<?xml version="1.0" encoding="us-ascii" standalone="no"?><svg xmlns="http://www.w3.org/2000/svg" xmlns:xlink="http://www.w3.org/1999/xlink" contentStyleType="text/css" height="853px" preserveAspectRatio="none" style="width:419px;height:853px;background:#FFFFFF;" version="1.1" viewBox="0 0 419 853" width="419px" zoomAndPan="magnify"><defs/><g><!--cluster Energy Community Platform--><g id="cluster_Energy Community Platform"><rect fill="none" height="840" rx="2.5" ry="2.5" style="stroke:#181818;stroke-width:1.0;" width="233" x="180" y="7"/><text fill="#000000" font-family="sans-serif" font-size="14" font-weight="bold" lengthAdjust="spacing" textLength="192" x="200.5" y="23.5332">Energy Community Platform</text></g><g id="elem_UC1"><ellipse cx="296.5887" cy="59.0177" fill="#F1F1F1" rx="68.0887" ry="16.0177" style="stroke:#181818;stroke-width:0.5;"/><text fill="#000000" font-family="sans-serif" font-size="14" lengthAdjust="spacing" textLength="82" x="252.5887" y="63.5343">Create users</text></g><g id="elem_UC2"><ellipse cx="296.2688" cy="126.1538" fill="#F1F1F1" rx="68.7688" ry="16.1538" style="stroke:#181818;stroke-width:0.5;"/><text fill="#000000" font-family="sans-serif" font-size="14" lengthAdjust="spacing" textLength="84" x="251.2688" y="130.6704">Update users</text></g><g id="elem_UC3"><ellipse cx="296.4169" cy="192.8834" fill="#F1F1F1" rx="67.4169" ry="15.8834" style="stroke:#181818;stroke-width:0.5;"/><text fill="#000000" font-family="sans-serif" font-size="14" lengthAdjust="spacing" textLength="80" x="253.4169" y="197.4">Delete users</text></g><g id="elem_UC4"><ellipse cx="296.6203" cy="261.8241" fill="#F1F1F1" rx="77.1203" ry="17.8241" style="stroke:#181818;stroke-width:0.5;"/><text fill="#000000" font-family="sans-serif" font-size="14" lengthAdjust="spacing" textLength="107" x="240.7783" y="266.1856">Register account</text></g><g id="elem_UC5"><ellipse cx="296.6111" cy="332.2222" fill="#F1F1F1" rx="74.1111" ry="17.2222" style="stroke:#181818;stroke-width:0.5;"/><text fill="#000000" font-family="sans-serif" font-size="14" lengthAdjust="spacing" textLength="99" x="244.1111" y="336.7388">Update account</text></g><g id="elem_UC6"><ellipse cx="296.6476" cy="400.9295" fill="#F1F1F1" rx="72.6476" ry="16.9295" style="stroke:#181818;stroke-width:0.5;"/><text fill="#000000" font-family="sans-serif" font-size="14" lengthAdjust="spacing" textLength="95" x="246.1476" y="405.4461">Delete account</text></g><g id="elem_UC7"><ellipse cx="296.58" cy="469.1227" fill="#F1F1F1" rx="66.08" ry="15.6227" style="stroke:#181818;stroke-width:0.5;"/><text fill="#000000" font-family="sans-serif" font-size="14" lengthAdjust="spacing" textLength="76" x="255.58" y="473.6393">Upload data</text></g><g id="elem_UC8"><ellipse cx="296.4254" cy="535.1851" fill="#F1F1F1" rx="66.4254" ry="15.6851" style="stroke:#181818;stroke-width:0.5;"/><text fill="#000000" font-family="sans-serif" font-size="14" lengthAdjust="spacing" textLength="77" x="254.9254" y="539.7017">Update data</text></g><g id="elem_UC9"><ellipse cx="296.5887" cy="602.0177" fill="#F1F1F1" rx="68.0887" ry="16.0177" style="stroke:#181818;stroke-width:0.5;"/><text fill="#000000" font-family="sans-serif" font-size="14" lengthAdjust="spacing" textLength="82" x="252.5887" y="606.5343">Analyse data</text></g><g id="elem_UC10"><ellipse cx="296.5042" cy="676.0008" fill="#F1F1F1" rx="100.5042" ry="22.5008" style="stroke:#181818;stroke-width:0.5;"/><text fill="#000000" font-family="sans-serif" font-size="14" lengthAdjust="spacing" textLength="162" x="215.5042" y="679.7293">Create energy community</text></g><g id="elem_UC11"><ellipse cx="296.5193" cy="749.0298" fill="#F1F1F1" rx="53.5193" ry="15.5298" style="stroke:#181818;stroke-width:0.5;"/><text fill="#000000" font-family="sans-serif" font-size="14" lengthAdjust="spacing" textLength="59" x="264.0193" y="753.5464">Add Data</text></g><g id="elem_UC12"><ellipse cx="296.341" cy="815.1182" fill="#F1F1F1" rx="65.341" ry="15.6182" style="stroke:#181818;stroke-width:0.5;"/><text fill="#000000" font-family="sans-serif" font-size="14" lengthAdjust="spacing" textLength="75" x="255.841" y="819.6348">Delete Data</text></g><!--entity Admin--><g id="elem_Admin"><ellipse cx="71" cy="95.5" fill="#F1F1F1" rx="8" ry="8" style="stroke:#181818;stroke-width:0.5;"/><path d="M71,103.5 L71,130.5 M58,111.5 L84,111.5 M71,130.5 L58,145.5 M71,130.5 L84,145.5 " fill="none" style="stroke:#181818;stroke-width:0.5;"/><text fill="#000000" font-family="sans-serif" font-size="14" lengthAdjust="spacing" textLength="39" x="51.5" y="161.5332">Admin</text></g><!--entity User--><g id="elem_User"><ellipse cx="71" cy="301.5" fill="#F1F1F1" rx="8" ry="8" style="stroke:#181818;stroke-width:0.5;"/><path d="M71,309.5 L71,336.5 M58,317.5 L84,317.5 M71,336.5 L58,351.5 M71,336.5 L84,351.5 " fill="none" style="stroke:#181818;stroke-width:0.5;"/><text fill="#000000" font-family="sans-serif" font-size="14" lengthAdjust="spacing" textLength="29" x="56.5" y="367.5332">User</text></g><!--entity Prosumer--><g id="elem_Prosumer"><ellipse cx="71" cy="504.5" fill="#F1F1F1" rx="8" ry="8" style="stroke:#181818;stroke-width:0.5;"/><path d="M71,512.5 L71,539.5 M58,520.5 L84,520.5 M71,539.5 L58,554.5 M71,539.5 L84,554.5 " fill="none" style="stroke:#181818;stroke-width:0.5;"/><text fill="#000000" font-family="sans-serif" font-size="14" lengthAdjust="spacing" textLength="61" x="40.5" y="570.5332">Prosumer</text></g><!--entity CM--><g id="elem_CM"><ellipse cx="71" cy="681.5" fill="#F1F1F1" rx="8" ry="8" style="stroke:#181818;stroke-width:0.5;"/><path d="M71,689.5 L71,716.5 M58,697.5 L84,697.5 M71,716.5 L58,731.5 M71,716.5 L84,731.5 " fill="none" style="stroke:#181818;stroke-width:0.5;"/><text fill="#000000" font-family="sans-serif" font-size="14" lengthAdjust="spacing" textLength="130" x="6" y="747.5332">Community Manager</text></g><!--link Admin to UC1--><g id="link_Admin_UC1"><path d="M90.68,119.23 C110.68,112.09 143.4,100.67 172,92 C197.38,84.3 220.1712,78.1027 243.4412,72.0827 " fill="none" id="Admin-to-UC1" style="stroke:#181818;stroke-width:1.0;"/><polygon fill="#181818" points="249.25,70.58,239.535,68.9616,244.4094,71.8323,241.5387,76.7066,249.25,70.58" style="stroke:#181818;stroke-width:1.0;"/></g><!--link Admin to UC2--><g id="link_Admin_UC2"><path d="M90.67,126 C120.41,126 174.02,126 221.3,126 " fill="none" id="Admin-to-UC2" style="stroke:#181818;stroke-width:1.0;"/><polygon fill="#181818" points="227.3,126,218.3,122,222.3,126,218.3,130,227.3,126" style="stroke:#181818;stroke-width:1.0;"/></g><!--link Admin to UC3--><g id="link_Admin_UC3"><path d="M90.71,132.49 C110.73,139.35 143.48,150.37 172,159 C197.86,166.82 221.2051,173.3245 244.6751,179.6245 " fill="none" id="Admin-to-UC3" style="stroke:#181818;stroke-width:1.0;"/><polygon fill="#181818" points="250.47,181.18,242.8147,174.9835,245.6409,179.8837,240.7407,182.71,250.47,181.18" style="stroke:#181818;stroke-width:1.0;"/></g><!--link User to UC4--><g id="link_User_UC4"><path d="M85.82,326.86 C105.04,319.79 140.96,306.82 172,297 C195.9,289.44 216.8681,283.3631 239.3381,277.1331 " fill="none" id="User-to-UC4" style="stroke:#181818;stroke-width:1.0;"/><polygon fill="#181818" points="245.12,275.53,235.3785,274.08,240.3018,276.8659,237.5159,281.7892,245.12,275.53" style="stroke:#181818;stroke-width:1.0;"/></g><!--link User to UC5--><g id="link_User_UC5"><path d="M85.64,332 C112.32,332 167.1,332 216.42,332 " fill="none" id="User-to-UC5" style="stroke:#181818;stroke-width:1.0;"/><polygon fill="#181818" points="222.42,332,213.42,328,217.42,332,213.42,336,222.42,332" style="stroke:#181818;stroke-width:1.0;"/></g><!--link User to UC6--><g id="link_User_UC6"><path d="M85.51,336.84 C104.66,343.65 140.84,356.29 172,366 C197.11,373.82 219.5276,380.2687 242.6376,386.6687 " fill="none" id="User-to-UC6" style="stroke:#181818;stroke-width:1.0;"/><polygon fill="#181818" points="248.42,388.27,240.814,382.0131,243.6014,386.9355,238.6789,389.7229,248.42,388.27" style="stroke:#181818;stroke-width:1.0;"/></g><!--link Prosumer to UC7--><g id="link_Prosumer_UC7"><path d="M101.61,524.73 C121.44,517.98 148.17,509.11 172,502 C197.95,494.26 221.402,487.9057 244.932,481.8057 " fill="none" id="Prosumer-to-UC7" style="stroke:#181818;stroke-width:1.0;"/><polygon fill="#181818" points="250.74,480.3,241.0242,478.6865,245.9,481.5547,243.0318,486.4305,250.74,480.3" style="stroke:#181818;stroke-width:1.0;"/></g><!--link Prosumer to UC8--><g id="link_Prosumer_UC8"><path d="M101.68,535 C134.21,535 181.44,535 223.88,535 " fill="none" id="Prosumer-to-UC8" style="stroke:#181818;stroke-width:1.0;"/><polygon fill="#181818" points="229.88,535,220.88,531,224.88,535,220.88,539,229.88,535" style="stroke:#181818;stroke-width:1.0;"/></g><!--link Prosumer to UC9--><g id="link_Prosumer_UC9"><path d="M101.63,545.21 C121.47,551.94 148.2,560.8 172,568 C197.86,575.82 221.2051,582.3245 244.6751,588.6245 " fill="none" id="Prosumer-to-UC9" style="stroke:#181818;stroke-width:1.0;"/><polygon fill="#181818" points="250.47,590.18,242.8147,583.9835,245.6409,588.8837,240.7407,591.71,250.47,590.18" style="stroke:#181818;stroke-width:1.0;"/></g><!--link CM to UC10--><g id="link_CM_UC10"><path d="M136.05,701.68 C160.43,697.76 182.6063,694.1839 208.3763,690.0339 " fill="none" id="CM-to-UC10" style="stroke:#181818;stroke-width:1.0;"/><polygon fill="#181818" points="214.3,689.08,204.7785,686.5618,209.3636,689.875,206.0504,694.46,214.3,689.08" style="stroke:#181818;stroke-width:1.0;"/></g><!--link CM to UC11--><g id="link_CM_UC11"><path d="M136.05,722.6 C172.29,728.6 210.8604,734.9909 243.6304,740.4109 " fill="none" id="CM-to-UC11" style="stroke:#181818;stroke-width:1.0;"/><polygon fill="#181818" points="249.55,741.39,241.3233,735.975,244.617,740.5741,240.0179,743.8678,249.55,741.39" style="stroke:#181818;stroke-width:1.0;"/></g><!--link CM to UC9--><g id="link_CM_UC9"><path d="M115.87,672.89 C132.53,659.65 152.26,645.76 172,636 C194.13,625.06 214.4434,618.6005 236.9834,613.2305 " fill="none" id="CM-to-UC9" style="stroke:#181818;stroke-width:1.0;"/><polygon fill="#181818" points="242.82,611.84,233.138,610.0347,237.9561,612.9988,234.9921,617.8169,242.82,611.84" style="stroke:#181818;stroke-width:1.0;"/></g><!--link CM to UC12--><g id="link_CM_UC12"><path d="M120.52,751.06 C136.25,762.29 154.23,773.72 172,782 C194.73,792.59 215.6145,798.9071 238.3845,804.1771 " fill="none" id="CM-to-UC12" style="stroke:#181818;stroke-width:1.0;"/><polygon fill="#181818" points="244.23,805.53,236.3637,799.6037,239.3588,804.4026,234.5598,807.3976,244.23,805.53" style="stroke:#181818;stroke-width:1.0;"/></g><!--SRC=[RLBBRiCW4Bpp5IlV8yNEqvTAaTEZfQYIFm31nhM4eG9yiAh-U_t03L1yGEpCC0lZ5VYqO1Nehlsqm3kDp7PA4aAPLHfklE-aspS6jTi-j393_rTcbUhxGNPsX9fAsgBEW1geQZ9zG6PFAbk1aBrBrEq8B_r3KFjKki_Wcm0C1XarawxII2tEjJQBLrFbFjzyyPWlVFwE0YF-G7p11xQTiQY1CgO6QPtec6WIAaw9Dg7YJ48JeIY7oOaw_fBeuT5Ndxv9AaOJy2L918LhhcpBTSji7vXn3lUNKPuddkBpSw80oxBC0UnsR-v7X4Zn3rd2XcLa77ACWLCCdDSpssmvz982hocmNCzNzNRFVLJdOLr6T45-VW40]--></g></svg>