<?xml version="1.0" encoding="us-ascii" standalone="no"?><svg xmlns="http://www.w3.org/2000/svg" xmlns:xlink="http://www.w3.org/1999/xlink" contentStyleType="text/css" height="514px" preserveAspectRatio="none" style="width:630px;height:514px;background:#FFFFFF;" version="1.1" viewBox="0 0 630 514" width="630px" zoomAndPan="magnify"><defs/><g><text fill="#000000" font-family="sans-serif" font-size="14" font-weight="bold" lengthAdjust="spacing" textLength="223" x="202.75" y="29.5332">Sequence Diagram: GET Level 2</text><rect fill="#FFFFFF" height="292" style="stroke:#181818;stroke-width:1.0;" width="10" x="32.5" y="131.2188"/><rect fill="#FFFFFF" height="268.6484" style="stroke:#181818;stroke-width:1.0;" width="10" x="202.5" y="153.5703"/><rect fill="#FFFFFF" height="238.2969" style="stroke:#181818;stroke-width:1.0;" width="10" x="376" y="183.9219"/><rect fill="#FFFFFF" height="30.3516" style="stroke:#181818;stroke-width:1.0;" width="10" x="541.5" y="214.2734"/><rect fill="none" height="155.5938" style="stroke:#000000;stroke-width:1.5;" width="458.5" x="10" y="259.625"/><line style="stroke:#181818;stroke-width:0.5;stroke-dasharray:5.0,5.0;" x1="37" x2="37" y1="121.2188" y2="432.2188"/><line style="stroke:#181818;stroke-width:0.5;stroke-dasharray:5.0,5.0;" x1="207.5" x2="207.5" y1="121.2188" y2="432.2188"/><line style="stroke:#181818;stroke-width:0.5;stroke-dasharray:5.0,5.0;" x1="380.5" x2="380.5" y1="121.2188" y2="432.2188"/><line style="stroke:#181818;stroke-width:0.5;stroke-dasharray:5.0,5.0;" x1="546.5" x2="546.5" y1="121.2188" y2="432.2188"/><text fill="#000000" font-family="sans-serif" font-size="14" lengthAdjust="spacing" textLength="29" x="20" y="118.1426">User</text><ellipse cx="37.5" cy="52.1094" fill="#E3E3E3" rx="8" ry="8" style="stroke:#181818;stroke-width:0.5;"/><path d="M37.5,60.1094 L37.5,87.1094 M24.5,68.1094 L50.5,68.1094 M37.5,87.1094 L24.5,102.1094 M37.5,87.1094 L50.5,102.1094 " fill="none" style="stroke:#181818;stroke-width:0.5;"/><text fill="#000000" font-family="sans-serif" font-size="14" lengthAdjust="spacing" textLength="29" x="20" y="445.752">User</text><ellipse cx="37.5" cy="457.3281" fill="#E3E3E3" rx="8" ry="8" style="stroke:#181818;stroke-width:0.5;"/><path d="M37.5,465.3281 L37.5,492.3281 M24.5,473.3281 L50.5,473.3281 M37.5,492.3281 L24.5,507.3281 M37.5,492.3281 L50.5,507.3281 " fill="none" style="stroke:#181818;stroke-width:0.5;"/><rect fill="#E3E3E3" height="31.6094" rx="2.5" ry="2.5" style="stroke:#181818;stroke-width:0.5;" width="172" x="121.5" y="88.6094"/><text fill="#000000" font-family="sans-serif" font-size="14" lengthAdjust="spacing" textLength="158" x="128.5" y="110.1426">Frontend (React, Refine)</text><rect fill="#E3E3E3" height="31.6094" rx="2.5" ry="2.5" style="stroke:#181818;stroke-width:0.5;" width="172" x="121.5" y="431.2188"/><text fill="#000000" font-family="sans-serif" font-size="14" lengthAdjust="spacing" textLength="158" x="128.5" y="452.752">Frontend (React, Refine)</text><rect fill="#E3E3E3" height="31.6094" rx="2.5" ry="2.5" style="stroke:#181818;stroke-width:0.5;" width="155" x="303.5" y="88.6094"/><text fill="#000000" font-family="sans-serif" font-size="14" lengthAdjust="spacing" textLength="141" x="310.5" y="110.1426">Backend (Node.js API)</text><rect fill="#E3E3E3" height="31.6094" rx="2.5" ry="2.5" style="stroke:#181818;stroke-width:0.5;" width="155" x="303.5" y="431.2188"/><text fill="#000000" font-family="sans-serif" font-size="14" lengthAdjust="spacing" textLength="141" x="310.5" y="452.752">Backend (Node.js API)</text><rect fill="#E3E3E3" height="31.6094" rx="2.5" ry="2.5" style="stroke:#181818;stroke-width:0.5;" width="156" x="468.5" y="88.6094"/><text fill="#000000" font-family="sans-serif" font-size="14" lengthAdjust="spacing" textLength="142" x="475.5" y="110.1426">PostgreSQL Database</text><rect fill="#E3E3E3" height="31.6094" rx="2.5" ry="2.5" style="stroke:#181818;stroke-width:0.5;" width="156" x="468.5" y="431.2188"/><text fill="#000000" font-family="sans-serif" font-size="14" lengthAdjust="spacing" textLength="142" x="475.5" y="452.752">PostgreSQL Database</text><rect fill="#FFFFFF" height="292" style="stroke:#181818;stroke-width:1.0;" width="10" x="32.5" y="131.2188"/><rect fill="#FFFFFF" height="268.6484" style="stroke:#181818;stroke-width:1.0;" width="10" x="202.5" y="153.5703"/><rect fill="#FFFFFF" height="238.2969" style="stroke:#181818;stroke-width:1.0;" width="10" x="376" y="183.9219"/><rect fill="#FFFFFF" height="30.3516" style="stroke:#181818;stroke-width:1.0;" width="10" x="541.5" y="214.2734"/><polygon fill="#181818" points="190.5,149.5703,200.5,153.5703,190.5,157.5703,194.5,153.5703" style="stroke:#181818;stroke-width:1.0;"/><line style="stroke:#181818;stroke-width:1.0;" x1="42.5" x2="196.5" y1="153.5703" y2="153.5703"/><text fill="#000000" font-family="sans-serif" font-size="13" lengthAdjust="spacing" textLength="127" x="49.5" y="148.7139">Requests entity or list</text><polygon fill="#181818" points="364,179.9219,374,183.9219,364,187.9219,368,183.9219" style="stroke:#181818;stroke-width:1.0;"/><line style="stroke:#181818;stroke-width:1.0;" x1="212.5" x2="370" y1="183.9219" y2="183.9219"/><text fill="#000000" font-family="sans-serif" font-size="13" lengthAdjust="spacing" textLength="131" x="219.5" y="179.0654">GET /entity or /entities</text><polygon fill="#181818" points="529.5,210.2734,539.5,214.2734,529.5,218.2734,533.5,214.2734" style="stroke:#181818;stroke-width:1.0;"/><line style="stroke:#181818;stroke-width:1.0;" x1="386" x2="535.5" y1="214.2734" y2="214.2734"/><text fill="#000000" font-family="sans-serif" font-size="13" lengthAdjust="spacing" textLength="121" x="393" y="209.417">Query entity/list data</text><polygon fill="#181818" points="397,240.625,387,244.625,397,248.625,393,244.625" style="stroke:#181818;stroke-width:1.0;"/><line style="stroke:#181818;stroke-width:1.0;stroke-dasharray:2.0,2.0;" x1="391" x2="545.5" y1="244.625" y2="244.625"/><text fill="#000000" font-family="sans-serif" font-size="13" lengthAdjust="spacing" textLength="67" x="403" y="239.7686">Return data</text><path d="M10,259.625 L71,259.625 L71,267.9766 L61,277.9766 L10,277.9766 L10,259.625 " fill="#EEEEEE" style="stroke:#000000;stroke-width:1.5;"/><rect fill="none" height="155.5938" style="stroke:#000000;stroke-width:1.5;" width="458.5" x="10" y="259.625"/><text fill="#000000" font-family="sans-serif" font-size="13" font-weight="bold" lengthAdjust="spacing" textLength="16" x="25" y="274.1201">alt</text><text fill="#000000" font-family="sans-serif" font-size="11" font-weight="bold" lengthAdjust="spacing" textLength="98" x="86" y="273.0439">[successful case]</text><polygon fill="#181818" points="223.5,296.3281,213.5,300.3281,223.5,304.3281,219.5,300.3281" style="stroke:#181818;stroke-width:1.0;"/><line style="stroke:#181818;stroke-width:1.0;" x1="217.5" x2="375" y1="300.3281" y2="300.3281"/><text fill="#000000" font-family="sans-serif" font-size="13" lengthAdjust="spacing" textLength="107" x="229.5" y="295.4717">Success with data</text><polygon fill="#181818" points="53.5,326.6797,43.5,330.6797,53.5,334.6797,49.5,330.6797" style="stroke:#181818;stroke-width:1.0;"/><line style="stroke:#181818;stroke-width:1.0;" x1="47.5" x2="201.5" y1="330.6797" y2="330.6797"/><text fill="#000000" font-family="sans-serif" font-size="13" lengthAdjust="spacing" textLength="136" x="59.5" y="325.8232">Displays entity/list data</text><line style="stroke:#000000;stroke-width:1.0;stroke-dasharray:2.0,2.0;" x1="10" x2="468.5" y1="339.6797" y2="339.6797"/><text fill="#000000" font-family="sans-serif" font-size="11" font-weight="bold" lengthAdjust="spacing" textLength="72" x="15" y="351.0986">[failure case]</text><polygon fill="#181818" points="223.5,372.8672,213.5,376.8672,223.5,380.8672,219.5,376.8672" style="stroke:#181818;stroke-width:1.0;"/><line style="stroke:#181818;stroke-width:1.0;" x1="217.5" x2="375" y1="376.8672" y2="376.8672"/><text fill="#000000" font-family="sans-serif" font-size="13" lengthAdjust="spacing" textLength="124" x="229.5" y="372.0107">Failed to retrieve data</text><polygon fill="#181818" points="53.5,403.2188,43.5,407.2188,53.5,411.2188,49.5,407.2188" style="stroke:#181818;stroke-width:1.0;"/><line style="stroke:#181818;stroke-width:1.0;" x1="47.5" x2="201.5" y1="407.2188" y2="407.2188"/><text fill="#000000" font-family="sans-serif" font-size="13" lengthAdjust="spacing" textLength="80" x="59.5" y="402.3623">Displays error</text><!--SRC=[XP91Jy9048Nl_HKJJfge91uvc40GOu86gFw0SJkKbMKNTwQG_djdMoeb9jf3qtI_j- -ztU6jzNkCk8ENu8FPnB0Za5XHnZyh2pHRB2cNsX54CeA-T7qWts0HZjQNi4R7b6LYHT6SlYhoXc1giLHk14-FRp2d0pcupp8q4Y8CtfdY090XVMIweLXZz-W51hCOl90lu6f5Ij_0YjRMqtM3vuln9JtHc0ty6Wgw-sGOBvvRzBHoYIy2InafNyvXYe8VoDJ0qqaJpHvGgCsKNd3xa1nXf1cq5Gi3UQrPWtPmbkMiIS4IgeekKjjyU5QqdvRuBEj2TXgLJoUgN5OKwvFPC3b1eN7FEishtEs5sugaYhu52-gZw0IuCeQOrvK3ewqpqAVdsjRCMmYELZRjHWaxzMfEPAJtodk7DVzEHpe6EWpMLP7-C9afGGL8qB6IQ7Ko_hUACSGi7LIlM7TslL_f5hu1]--></g></svg>