<?xml version="1.0" encoding="UTF-8" standalone="no"?><svg xmlns="http://www.w3.org/2000/svg" xmlns:xlink="http://www.w3.org/1999/xlink" contentStyleType="text/css" height="563px" preserveAspectRatio="none" style="width:654px;height:563px;background:#FFFFFF;" version="1.1" viewBox="0 0 654 563" width="654px" zoomAndPan="magnify"><defs/><g><!--class PatientController--><g id="elem_PatientController"><rect codeLine="8" fill="#F1F1F1" height="65.6094" id="PatientController" rx="2.5" ry="2.5" style="stroke:#181818;stroke-width:0.5;" width="340" x="144.5" y="7"/><ellipse cx="257.25" cy="23" fill="#FFBB44" rx="11" ry="11" style="stroke:#181818;stroke-width:1.0;"/><path d="M260.0156,18.875 Q260.1719,18.6563 260.3594,18.5469 Q260.5469,18.4375 260.7656,18.4375 Q261.1406,18.4375 261.375,18.7031 Q261.6094,18.9531 261.6094,19.5625 L261.6094,21.0156 Q261.6094,21.625 261.375,21.8906 Q261.1406,22.1563 260.7656,22.1563 Q260.4219,22.1563 260.2188,21.9531 Q260.0156,21.7656 259.9063,21.25 Q259.8594,20.8906 259.6719,20.7031 Q259.3438,20.3281 258.7344,20.1094 Q258.125,19.8906 257.5,19.8906 Q256.7344,19.8906 256.0938,20.2188 Q255.4688,20.5469 254.9688,21.2969 Q254.4844,22.0469 254.4844,23.0781 L254.4844,24.1719 Q254.4844,25.4063 255.375,26.2344 Q256.2656,27.0469 257.8594,27.0469 Q258.7969,27.0469 259.4531,26.7969 Q259.8438,26.6406 260.2656,26.2031 Q260.5313,25.9375 260.6719,25.8594 Q260.8281,25.7813 261.0313,25.7813 Q261.3594,25.7813 261.6094,26.0469 Q261.875,26.2969 261.875,26.6406 Q261.875,26.9844 261.5313,27.3906 Q261.0313,27.9688 260.2344,28.2969 Q259.1563,28.75 257.8594,28.75 Q256.3438,28.75 255.1406,28.125 Q254.1563,27.625 253.4688,26.5625 Q252.7813,25.4844 252.7813,24.2031 L252.7813,23.0469 Q252.7813,21.7188 253.3906,20.5781 Q254.0156,19.4219 255.1094,18.8125 Q256.2031,18.1875 257.4375,18.1875 Q258.1719,18.1875 258.8125,18.3594 Q259.4688,18.5156 260.0156,18.875 Z " fill="#000000"/><text fill="#000000" font-family="sans-serif" font-size="14" lengthAdjust="spacing" textLength="106" x="277.75" y="28.7285">PatientController</text><line style="stroke:#181818;stroke-width:0.5;" x1="145.5" x2="483.5" y1="39" y2="39"/><line style="stroke:#181818;stroke-width:0.5;" x1="145.5" x2="483.5" y1="47" y2="47"/><ellipse cx="155.5" cy="61.3047" fill="#84BE84" rx="3" ry="3" style="stroke:#038048;stroke-width:1.0;"/><text fill="#000000" font-family="sans-serif" font-size="14" lengthAdjust="spacing" textLength="314" x="164.5" y="65.5332">editPatient(patientDTO: PatientDTO): PatientDTO</text></g><!--class PatientService--><g id="elem_PatientService"><rect codeLine="12" fill="#F1F1F1" height="83.2188" id="PatientService" rx="2.5" ry="2.5" style="stroke:#181818;stroke-width:0.5;" width="340" x="144.5" y="151"/><ellipse cx="264.75" cy="167" fill="#ADD1B2" rx="11" ry="11" style="stroke:#181818;stroke-width:1.0;"/><path d="M262.8594,171.5625 Q262.6406,171.8281 262.5,171.9063 Q262.3594,171.9844 262.1719,171.9844 Q261.7813,171.9844 261.5313,171.7188 Q261.2969,171.4531 261.2969,170.8594 L261.2969,169.7031 Q261.2969,169.0938 261.5313,168.8438 Q261.7813,168.5781 262.1719,168.5781 Q262.4688,168.5781 262.6719,168.7344 Q262.875,168.8906 262.9844,169.2656 Q263.0938,169.625 263.2031,169.7656 Q263.4531,170.0156 264.0625,170.2813 Q264.6719,170.5469 265.4063,170.5469 Q266.5469,170.5469 267.2656,170.0156 Q267.7344,169.6875 267.7344,169.2188 Q267.7344,168.9063 267.5156,168.625 Q267.2969,168.3438 266.7813,168.1719 Q266.4531,168.0469 265.2969,167.8281 Q263.9063,167.5625 263.1875,167.2031 Q262.4688,166.8438 262.0469,166.1875 Q261.6406,165.5156 261.6406,164.7344 Q261.6406,163.5156 262.6563,162.6094 Q263.6875,161.6875 265.3281,161.6875 Q265.9844,161.6875 266.5313,161.8281 Q267.0938,161.9688 267.5625,162.2656 Q267.8906,161.9531 268.2188,161.9531 Q268.5938,161.9531 268.8281,162.2188 Q269.0625,162.4688 269.0625,163.0781 L269.0625,164.3594 Q269.0625,164.9688 268.8281,165.2344 Q268.5938,165.4844 268.2188,165.4844 Q267.9063,165.4844 267.6719,165.2969 Q267.4844,165.1563 267.3906,164.7344 Q267.3125,164.3125 267.1719,164.125 Q266.9219,163.8125 266.4375,163.6094 Q265.9688,163.3906 265.3281,163.3906 Q264.4063,163.3906 263.875,163.8125 Q263.3438,164.2344 263.3438,164.7031 Q263.3438,165.0156 263.5625,165.3125 Q263.7813,165.6094 264.2031,165.7813 Q264.4844,165.8906 265.7813,166.1563 Q267.0938,166.4063 267.7969,166.7188 Q268.5,167.0156 268.9688,167.6719 Q269.4375,168.3281 269.4375,169.2344 Q269.4375,170.5 268.5469,171.25 Q267.3594,172.25 265.5313,172.25 Q264.8281,172.25 264.1563,172.0781 Q263.5,171.9063 262.8594,171.5625 Z " fill="#000000"/><text fill="#000000" font-family="sans-serif" font-size="14" lengthAdjust="spacing" textLength="91" x="285.25" y="172.7285">PatientService</text><line style="stroke:#181818;stroke-width:0.5;" x1="145.5" x2="483.5" y1="183" y2="183"/><line style="stroke:#181818;stroke-width:0.5;" x1="145.5" x2="483.5" y1="191" y2="191"/><ellipse cx="155.5" cy="205.3047" fill="#84BE84" rx="3" ry="3" style="stroke:#038048;stroke-width:1.0;"/><text fill="#000000" font-family="sans-serif" font-size="14" lengthAdjust="spacing" textLength="314" x="164.5" y="209.5332">editPatient(patientDTO: PatientDTO): PatientDTO</text><rect fill="#F24D5C" height="6" style="stroke:#C82930;stroke-width:1.0;" width="6" x="152.5" y="219.9141"/><text fill="#000000" font-family="sans-serif" font-size="14" lengthAdjust="spacing" textLength="211" x="164.5" y="227.1426">findByDomainId(id: Long): Patient</text></g><!--class Patient--><g id="elem_Patient"><rect codeLine="17" fill="#F1F1F1" height="83.2188" id="Patient" rx="2.5" ry="2.5" style="stroke:#181818;stroke-width:0.5;" width="93" x="235" y="473"/><ellipse cx="257.65" cy="489" fill="#FFAAAA" rx="11" ry="11" style="stroke:#181818;stroke-width:1.0;"/><path d="M256.5094,489.7969 L256.5094,492.2969 L260.8375,492.2969 L260.8375,491.375 Q260.8375,490.7656 261.0719,490.5 Q261.3219,490.2344 261.6969,490.2344 Q262.0719,490.2344 262.3063,490.5 Q262.5406,490.7656 262.5406,491.375 L262.5406,494 L254.5406,494 Q253.9156,494 253.65,493.7656 Q253.4,493.5313 253.4,493.1406 Q253.4,492.7656 253.6656,492.5313 Q253.9312,492.2969 254.5406,492.2969 L254.8062,492.2969 L254.8062,485.6406 L254.5406,485.6406 Q253.9156,485.6406 253.65,485.4063 Q253.4,485.1719 253.4,484.7813 Q253.4,484.4063 253.65,484.1719 Q253.9156,483.9375 254.5406,483.9375 L262.1656,483.9375 L262.1656,486.5313 Q262.1656,487.1406 261.9313,487.4063 Q261.7125,487.6563 261.3219,487.6563 Q260.9469,487.6563 260.7125,487.4063 Q260.4781,487.1406 260.4781,486.5313 L260.4781,485.6406 L256.5094,485.6406 L256.5094,488.0938 L257.9938,488.0938 Q257.9938,487.4375 258.1188,487.25 Q258.3844,486.8438 258.8531,486.8438 Q259.2281,486.8438 259.4625,487.1094 Q259.6969,487.3594 259.6969,487.9688 L259.6969,489.9375 Q259.6969,490.4844 259.5719,490.6719 Q259.3063,491.0625 258.8531,491.0625 Q258.3844,491.0625 258.1188,490.6563 Q257.9938,490.4688 257.9938,489.7969 L256.5094,489.7969 Z " fill="#000000"/><text fill="#000000" font-family="sans-serif" font-size="14" lengthAdjust="spacing" textLength="44" x="273.35" y="494.7285">Patient</text><line style="stroke:#181818;stroke-width:0.5;" x1="236" x2="327" y1="505" y2="505"/><rect fill="none" height="6" style="stroke:#C82930;stroke-width:1.0;" width="6" x="243" y="516.3047"/><text fill="#000000" font-family="sans-serif" font-size="14" lengthAdjust="spacing" textLength="51" x="255" y="523.5332">id: Long</text><line style="stroke:#181818;stroke-width:0.5;" x1="236" x2="327" y1="530.6094" y2="530.6094"/><ellipse cx="246" cy="544.9141" fill="#84BE84" rx="3" ry="3" style="stroke:#038048;stroke-width:1.0;"/><text fill="#000000" font-family="sans-serif" font-size="14" lengthAdjust="spacing" textLength="67" x="255" y="549.1426">edit(): void</text></g><!--class PatientRepo--><g id="elem_PatientRepo"><rect codeLine="22" fill="#F1F1F1" height="83.2188" id="PatientRepo" rx="2.5" ry="2.5" style="stroke:#181818;stroke-width:0.5;" width="237" x="7" y="312"/><ellipse cx="82.25" cy="328" fill="#FFCC77" rx="11" ry="11" style="stroke:#181818;stroke-width:1.0;"/><path d="M81.0938,329.1563 L81.0938,331.2969 L81.7031,331.2969 Q82.3281,331.2969 82.5781,331.5313 Q82.8438,331.7656 82.8438,332.1563 Q82.8438,332.5313 82.5781,332.7656 Q82.3281,333 81.7031,333 L79.125,333 Q78.5156,333 78.25,332.7656 Q77.9844,332.5313 77.9844,332.1406 Q77.9844,331.7656 78.25,331.5313 Q78.5156,331.2969 79.125,331.2969 L79.3906,331.2969 L79.3906,324.6406 L79.125,324.6406 Q78.5156,324.6406 78.25,324.4063 Q77.9844,324.1719 77.9844,323.7813 Q77.9844,323.4063 78.25,323.1719 Q78.5156,322.9375 79.125,322.9375 L82.9844,322.9375 Q84.7813,322.9375 85.7656,323.8281 Q86.7656,324.7188 86.7656,326 Q86.7656,326.7969 86.2969,327.4531 Q85.8281,328.1094 84.8906,328.6094 Q85.4375,329.0781 86.0469,329.8281 Q86.4375,330.2969 87.0781,331.2969 Q87.7344,331.2969 87.9375,331.4375 Q88.3125,331.6875 88.3125,332.1563 Q88.3125,332.5313 88.0469,332.7656 Q87.7969,333 87.1875,333 L86.2031,333 Q84.1406,329.7969 82.7813,329.1563 L81.0938,329.1563 Z M81.0938,327.4531 L82.4219,327.4531 Q83.1563,327.4531 83.75,327.2344 Q84.5313,326.9375 84.7969,326.6094 Q85.0625,326.2656 85.0625,325.9375 Q85.0625,325.4688 84.5469,325.0625 Q84.0313,324.6406 83.0469,324.6406 L81.0938,324.6406 L81.0938,327.4531 Z " fill="#000000"/><text fill="#000000" font-family="sans-serif" font-size="14" lengthAdjust="spacing" textLength="78" x="102.75" y="333.7285">PatientRepo</text><line style="stroke:#181818;stroke-width:0.5;" x1="8" x2="243" y1="344" y2="344"/><line style="stroke:#181818;stroke-width:0.5;" x1="8" x2="243" y1="352" y2="352"/><ellipse cx="18" cy="366.3047" fill="#84BE84" rx="3" ry="3" style="stroke:#038048;stroke-width:1.0;"/><text fill="#000000" font-family="sans-serif" font-size="14" lengthAdjust="spacing" textLength="211" x="27" y="370.5332">findByDomainId(id: Long): Patient</text><ellipse cx="18" cy="383.9141" fill="#84BE84" rx="3" ry="3" style="stroke:#038048;stroke-width:1.0;"/><text fill="#000000" font-family="sans-serif" font-size="14" lengthAdjust="spacing" textLength="169" x="27" y="388.1426">save(patient: Patient): void</text></g><!--class PatientDTO--><g id="elem_PatientDTO"><rect codeLine="27" fill="#F1F1F1" height="65.6094" id="PatientDTO" rx="2.5" ry="2.5" style="stroke:#181818;stroke-width:0.5;" width="106" x="466.5" y="481.5"/><ellipse cx="481.5" cy="497.5" fill="#FFFF66" rx="11" ry="11" style="stroke:#181818;stroke-width:1.0;"/><path d="M479.0469,500.7969 L479.0469,494.1406 Q478.5,494.125 478.2344,493.8906 Q477.9844,493.6563 477.9844,493.2813 Q477.9844,492.9063 478.25,492.6719 Q478.5156,492.4375 479.125,492.4375 L482.6875,492.4375 Q483.5156,492.4375 484.3125,492.75 Q485.1094,493.0469 485.5938,493.5313 Q485.9531,493.8906 486.3438,494.5156 Q486.7344,495.125 486.9375,495.75 Q487.1406,496.3594 487.1406,497.25 L487.1406,498.0625 Q487.1406,499.1406 486.7656,499.9844 Q486.4063,500.8125 485.8125,501.3438 Q485.2188,501.8594 484.7031,502.1094 Q483.875,502.5 482.5469,502.5 L479.125,502.5 Q478.5156,502.5 478.25,502.2656 Q477.9844,502.0313 477.9844,501.6406 Q477.9844,501.2656 478.25,501.0313 Q478.5156,500.7969 479.0469,500.7969 Z M480.75,500.7969 L482.5625,500.7969 Q483.5625,500.7969 484.0781,500.5 Q484.75,500.125 485.0938,499.5469 Q485.4375,498.9531 485.4375,498.0156 L485.4375,497.2031 Q485.4375,496.4063 485.125,495.7969 Q484.6406,494.8438 484.0313,494.5 Q483.4375,494.1406 482.5469,494.1406 L480.75,494.1406 L480.75,500.7969 Z " fill="#000000"/><text fill="#000000" font-family="sans-serif" font-size="14" lengthAdjust="spacing" textLength="74" x="495.5" y="503.2285">PatientDTO</text><line style="stroke:#181818;stroke-width:0.5;" x1="467.5" x2="571.5" y1="513.5" y2="513.5"/><rect fill="none" height="6" style="stroke:#C82930;stroke-width:1.0;" width="6" x="474.5" y="524.8047"/><text fill="#000000" font-family="sans-serif" font-size="14" lengthAdjust="spacing" textLength="51" x="486.5" y="532.0332">id: Long</text><line style="stroke:#181818;stroke-width:0.5;" x1="467.5" x2="571.5" y1="539.1094" y2="539.1094"/></g><!--class PatientMapper--><g id="elem_PatientMapper"><rect codeLine="31" fill="#F1F1F1" height="65.6094" id="PatientMapper" rx="2.5" ry="2.5" style="stroke:#181818;stroke-width:0.5;" width="255" x="392" y="320.5"/><ellipse cx="469.25" cy="336.5" fill="#66B2FF" rx="11" ry="11" style="stroke:#181818;stroke-width:1.0;"/><path d="M467.1875,334.7188 L467.1875,339.7969 L467.8125,339.7969 Q468.4219,339.7969 468.6719,340.0313 Q468.9375,340.2656 468.9375,340.6563 Q468.9375,341.0313 468.6719,341.2656 Q468.4219,341.5 467.8125,341.5 L465.5781,341.5 Q464.9531,341.5 464.7031,341.2656 Q464.4375,341.0313 464.4375,340.6406 Q464.4375,340.2656 464.7031,340.0313 Q464.9531,339.7969 465.4844,339.7969 L465.4844,333.1406 Q465.0469,333.0938 464.8125,332.875 Q464.5781,332.6406 464.5781,332.2813 Q464.5781,331.9063 464.8438,331.6719 Q465.1094,331.4375 465.7188,331.4375 L467.5938,331.4375 L469.9063,336.5625 L472.1719,331.4375 L474.0625,331.4375 Q474.6719,331.4375 474.9375,331.6719 Q475.2031,331.9063 475.2031,332.2813 Q475.2031,332.6406 474.9688,332.875 Q474.7344,333.0938 474.2969,333.1406 L474.2969,339.7969 Q474.8281,339.7969 475.0781,340.0469 Q475.3438,340.2813 475.3438,340.6563 Q475.3438,341.0313 475.0781,341.2656 Q474.8281,341.5 474.2188,341.5 L471.9688,341.5 Q471.3594,341.5 471.0938,341.2656 Q470.8438,341.0313 470.8438,340.6406 Q470.8438,340.2656 471.0938,340.0313 Q471.3594,339.7969 471.9688,339.7969 L472.5938,339.7969 L472.5938,334.7188 L470.6406,339.1094 L469.1719,339.1094 L467.1875,334.7188 Z " fill="#000000"/><text fill="#000000" font-family="sans-serif" font-size="14" lengthAdjust="spacing" textLength="92" x="489.75" y="342.2285">PatientMapper</text><line style="stroke:#181818;stroke-width:0.5;" x1="393" x2="646" y1="352.5" y2="352.5"/><line style="stroke:#181818;stroke-width:0.5;" x1="393" x2="646" y1="360.5" y2="360.5"/><ellipse cx="403" cy="374.8047" fill="#84BE84" rx="3" ry="3" style="stroke:#038048;stroke-width:1.0;"/><text fill="#000000" font-family="sans-serif" font-size="14" lengthAdjust="spacing" textLength="229" x="412" y="379.0332">toDTO(patient: Patient): PatientDTO</text></g><!--link PatientController to PatientService--><g id="link_PatientController_PatientService"><path codeLine="35" d="M290.82,73.28 C285.36,82.44 280.33,92.73 277.5,103 C273.52,117.42 276.9,132.62 282.95,146.28 " fill="none" id="PatientController-to-PatientService" style="stroke:#181818;stroke-width:1.0;"/><polygon fill="#181818" points="285.1,150.85,284.8916,141.0033,282.9731,146.3249,277.6515,144.4064,285.1,150.85" style="stroke:#181818;stroke-width:1.0;"/><text fill="#000000" font-family="sans-serif" font-size="13" lengthAdjust="spacing" textLength="27" x="278.5" y="117.4951">calls</text></g><!--link PatientService to PatientController--><g id="link_PatientService_PatientController"><path codeLine="41" d="M314.5,150.93 C314.5,128.38 314.5,100.51 314.5,78.47 " fill="none" id="PatientService-to-PatientController" style="stroke:#181818;stroke-width:1.0;"/><polygon fill="#181818" points="314.5,73.29,310.5,82.29,314.5,78.29,318.5,82.29,314.5,73.29" style="stroke:#181818;stroke-width:1.0;"/><text fill="#000000" font-family="sans-serif" font-size="13" lengthAdjust="spacing" textLength="70" x="315.5" y="117.4951">returns DTO</text></g><!--link PatientService to PatientRepo--><g id="link_PatientService_PatientRepo"><path codeLine="36" d="M266.32,234.03 C239.32,256.75 205.62,285.1 177.96,308.37 " fill="none" id="PatientService-to-PatientRepo" style="stroke:#181818;stroke-width:1.0;"/><polygon fill="#181818" points="173.92,311.76,183.3798,309.0192,177.7434,308.538,178.2246,302.9016,173.92,311.76" style="stroke:#181818;stroke-width:1.0;"/><text fill="#000000" font-family="sans-serif" font-size="13" lengthAdjust="spacing" textLength="28" x="227.5" y="278.4951">uses</text></g><!--link PatientService to PatientMapper--><g id="link_PatientService_PatientMapper"><path codeLine="37" d="M366.76,234.03 C399.8,259.66 442.09,292.46 473.79,317.04 " fill="none" id="PatientService-to-PatientMapper" style="stroke:#181818;stroke-width:1.0;"/><polygon fill="#181818" points="477.99,320.3,473.3285,311.6241,474.0386,317.2362,468.4265,317.9464,477.99,320.3" style="stroke:#181818;stroke-width:1.0;"/><text fill="#000000" font-family="sans-serif" font-size="13" lengthAdjust="spacing" textLength="77" x="424.5" y="278.4951">maps to DTO</text></g><!--link PatientRepo to Patient--><g id="link_PatientRepo_Patient"><path codeLine="38" d="M165.27,395.03 C187.46,417.65 215.14,445.86 237.92,469.08 " fill="none" id="PatientRepo-to-Patient" style="stroke:#181818;stroke-width:1.0;"/><polygon fill="#181818" points="241.53,472.76,238.0875,463.5324,238.0304,469.1889,232.3738,469.1318,241.53,472.76" style="stroke:#181818;stroke-width:1.0;"/><text fill="#000000" font-family="sans-serif" font-size="13" lengthAdjust="spacing" textLength="42" x="209.5" y="439.4951">fetches</text></g><!--link Patient to PatientService--><g id="link_Patient_PatientService"><path codeLine="39" d="M285.7,472.8 C291.87,412.99 303.34,301.71 309.79,239.18 " fill="none" id="Patient-to-PatientService" style="stroke:#181818;stroke-width:1.0;"/><polygon fill="#181818" points="310.32,234.03,305.4151,242.5706,309.8055,239.0035,313.3727,243.3938,310.32,234.03" style="stroke:#181818;stroke-width:1.0;"/><text fill="#000000" font-family="sans-serif" font-size="13" lengthAdjust="spacing" textLength="40" x="303.5" y="358.9951">returns</text></g><!--link PatientMapper to PatientDTO--><g id="link_PatientMapper_PatientDTO"><path codeLine="40" d="M519.5,386.68 C519.5,412.54 519.5,448.9 519.5,476.07 " fill="none" id="PatientMapper-to-PatientDTO" style="stroke:#181818;stroke-width:1.0;"/><polygon fill="#181818" points="519.5,481.37,523.5,472.37,519.5,476.37,515.5,472.37,519.5,481.37" style="stroke:#181818;stroke-width:1.0;"/><text fill="#000000" font-family="sans-serif" font-size="13" lengthAdjust="spacing" textLength="63" x="520.5" y="439.4951">converts to</text></g><!--SRC=[dP9VQuCm5CNVyobkwOko-h1IB9HIgFz0QAke3FOeccw2DQAfT8nzzoLjj55B1ykBclpkEUVcEadnCIims8V8ZTwLYmf97jSrN62z1iMUJHrdovOAcmsQ23QqWpVNj8TmE9jkBUlLcFTWqpj4WRVRsS6GDxcuOImMFJwmVIzq8oyOXGauRvhBPO_VRtr_hBsVJNNTc3jEZxKYRmXQNDHnTFqA8Ycj7zCC5zGa1Qr8dkDAXMy4RBtWDAFYL2blJwQy0hzxL-KFz8DGUsLYDyHLaoNutugyI6CjfSQNHKvnLhYfagKhs97YuqvoOp5NiTCQQYryjrTONKEob1T9Cn250Iv9b_PluojMnmrkk-cE91S-3Qd1KJI6YE4AQX-NfJG6IhZ20uF-rO_c29gsWVuWO0L9dESr6cnB9By1Xfrh_8owHMJSAIvhe8J_SaXMa5X67J5DFk-2ZvDLc9wheeE4XOGo3zu0AHfSKUxw9A1q3Pqo3_aB]--></g></svg>