<?xml version="1.0" encoding="us-ascii" standalone="no"?><svg xmlns="http://www.w3.org/2000/svg" xmlns:xlink="http://www.w3.org/1999/xlink" contentStyleType="text/css" height="542px" preserveAspectRatio="none" style="width:1093px;height:542px;background:#FFFFFF;" version="1.1" viewBox="0 0 1093 542" width="1093px" zoomAndPan="magnify"><defs/><g><!--cluster localhost--><g id="cluster_localhost"><polygon fill="none" points="511,16,521,6,750,6,750,201,740,211,511,211,511,16" style="stroke:#181818;stroke-width:1.0;"/><line style="stroke:#181818;stroke-width:1.0;" x1="740" x2="750" y1="16" y2="6"/><line style="stroke:#181818;stroke-width:1.0;" x1="511" x2="740" y1="16" y2="16"/><line style="stroke:#181818;stroke-width:1.0;" x1="740" x2="740" y1="16" y2="211"/><text fill="#000000" font-family="sans-serif" font-size="14" font-weight="bold" lengthAdjust="spacing" textLength="131" x="561" y="33.5332">Localhost:Browser</text></g><!--cluster Browser--><g id="cluster_Browser"><rect fill="none" height="116" rx="2.5" ry="2.5" style="stroke:#181818;stroke-width:1.0;" width="175" x="543" y="63"/><rect fill="none" height="10" style="stroke:#181818;stroke-width:1.0;" width="15" x="698" y="68"/><rect fill="none" height="2" style="stroke:#181818;stroke-width:1.0;" width="4" x="696" y="70"/><rect fill="none" height="2" style="stroke:#181818;stroke-width:1.0;" width="4" x="696" y="74"/><text fill="#000000" font-family="sans-serif" font-size="14" font-weight="bold" lengthAdjust="spacing" textLength="59" x="601" y="90.5332">Browser</text></g><!--cluster frontendServer--><g id="cluster_frontendServer"><polygon fill="none" points="16,271,26,261,249,261,249,515,239,525,16,525,16,271" style="stroke:#181818;stroke-width:1.0;"/><line style="stroke:#181818;stroke-width:1.0;" x1="239" x2="249" y1="271" y2="261"/><line style="stroke:#181818;stroke-width:1.0;" x1="16" x2="239" y1="271" y2="271"/><line style="stroke:#181818;stroke-width:1.0;" x1="239" x2="239" y1="271" y2="525"/><text fill="#000000" font-family="sans-serif" font-size="14" font-weight="bold" lengthAdjust="spacing" textLength="157" x="50" y="288.5332">Frontend Server :5137</text></g><!--cluster backendServer--><g id="cluster_backendServer"><polygon fill="none" points="273,271,283,261,909,261,909,356,899,366,273,366,273,271" style="stroke:#181818;stroke-width:1.0;"/><line style="stroke:#181818;stroke-width:1.0;" x1="899" x2="909" y1="271" y2="261"/><line style="stroke:#181818;stroke-width:1.0;" x1="273" x2="899" y1="271" y2="271"/><line style="stroke:#181818;stroke-width:1.0;" x1="899" x2="899" y1="271" y2="366"/><text fill="#000000" font-family="sans-serif" font-size="14" font-weight="bold" lengthAdjust="spacing" textLength="153" x="510.5" y="288.5332">Backend Server :4000</text></g><!--cluster optimizationServer--><g id="cluster_optimizationServer"><polygon fill="none" points="816,426,826,416,1076,416,1076,511,1066,521,816,521,816,426" style="stroke:#181818;stroke-width:1.0;"/><line style="stroke:#181818;stroke-width:1.0;" x1="1066" x2="1076" y1="426" y2="416"/><line style="stroke:#181818;stroke-width:1.0;" x1="816" x2="1066" y1="426" y2="426"/><line style="stroke:#181818;stroke-width:1.0;" x1="1066" x2="1066" y1="426" y2="521"/><text fill="#000000" font-family="sans-serif" font-size="14" font-weight="bold" lengthAdjust="spacing" textLength="184" x="850" y="443.5332">Optimization Module :8000</text></g><!--entity UI_Client--><g id="elem_UI_Client"><rect fill="#F1F1F1" height="47.6094" rx="2.5" ry="2.5" style="stroke:#181818;stroke-width:0.5;" width="107" x="586.5" y="107"/><rect fill="#F1F1F1" height="10" style="stroke:#181818;stroke-width:0.5;" width="15" x="673.5" y="112"/><rect fill="#F1F1F1" height="2" style="stroke:#181818;stroke-width:0.5;" width="4" x="671.5" y="114"/><rect fill="#F1F1F1" height="2" style="stroke:#181818;stroke-width:0.5;" width="4" x="671.5" y="118"/><text fill="#000000" font-family="sans-serif" font-size="14" lengthAdjust="spacing" textLength="67" x="601.5" y="141.5332">UI (cliente)</text></g><!--entity HTTP_Server--><g id="elem_HTTP_Server"><rect fill="#F1F1F1" height="47.6094" rx="2.5" ry="2.5" style="stroke:#181818;stroke-width:0.5;" width="122" x="102" y="302"/><rect fill="#F1F1F1" height="10" style="stroke:#181818;stroke-width:0.5;" width="15" x="204" y="307"/><rect fill="#F1F1F1" height="2" style="stroke:#181818;stroke-width:0.5;" width="4" x="202" y="309"/><rect fill="#F1F1F1" height="2" style="stroke:#181818;stroke-width:0.5;" width="4" x="202" y="313"/><text fill="#000000" font-family="sans-serif" font-size="14" lengthAdjust="spacing" textLength="82" x="117" y="336.5332">HTTP Server</text></g><!--entity UI_App--><g id="elem_UI_App"><path d="M47.5,453 L88.5,453 A3.75,3.75 0 0 1 91,455.5 L98,474 L230.5,474 A2.5,2.5 0 0 1 233,476.5 L233,506.1094 A2.5,2.5 0 0 1 230.5,508.6094 L47.5,508.6094 A2.5,2.5 0 0 1 45,506.1094 L45,455.5 A2.5,2.5 0 0 1 47.5,453 " fill="#F1F1F1" style="stroke:#181818;stroke-width:0.5;"/><line style="stroke:#181818;stroke-width:0.5;" x1="45" x2="98" y1="474" y2="474"/><text fill="#000000" font-family="sans-serif" font-size="14" lengthAdjust="spacing" textLength="158" x="55" y="495.5332">Frontend (React, Refine)</text></g><!--entity Backend_API--><g id="elem_Backend_API"><rect fill="#F1F1F1" height="47.6094" rx="2.5" ry="2.5" style="stroke:#181818;stroke-width:0.5;" width="181" x="711.5" y="302"/><rect fill="#F1F1F1" height="10" style="stroke:#181818;stroke-width:0.5;" width="15" x="872.5" y="307"/><rect fill="#F1F1F1" height="2" style="stroke:#181818;stroke-width:0.5;" width="4" x="870.5" y="309"/><rect fill="#F1F1F1" height="2" style="stroke:#181818;stroke-width:0.5;" width="4" x="870.5" y="313"/><text fill="#000000" font-family="sans-serif" font-size="14" lengthAdjust="spacing" textLength="141" x="726.5" y="336.5332">Backend (Node.js API)</text></g><!--entity Auth--><g id="elem_Auth"><rect fill="#F1F1F1" height="47.6094" rx="2.5" ry="2.5" style="stroke:#181818;stroke-width:0.5;" width="180" x="496" y="302"/><rect fill="#F1F1F1" height="10" style="stroke:#181818;stroke-width:0.5;" width="15" x="656" y="307"/><rect fill="#F1F1F1" height="2" style="stroke:#181818;stroke-width:0.5;" width="4" x="654" y="309"/><rect fill="#F1F1F1" height="2" style="stroke:#181818;stroke-width:0.5;" width="4" x="654" y="313"/><text fill="#000000" font-family="sans-serif" font-size="14" lengthAdjust="spacing" textLength="140" x="511" y="336.5332">Authentication Module</text></g><!--entity EnergyManagement--><g id="elem_EnergyManagement"><rect fill="#F1F1F1" height="47.6094" rx="2.5" ry="2.5" style="stroke:#181818;stroke-width:0.5;" width="171" x="289.5" y="302"/><rect fill="#F1F1F1" height="10" style="stroke:#181818;stroke-width:0.5;" width="15" x="440.5" y="307"/><rect fill="#F1F1F1" height="2" style="stroke:#181818;stroke-width:0.5;" width="4" x="438.5" y="309"/><rect fill="#F1F1F1" height="2" style="stroke:#181818;stroke-width:0.5;" width="4" x="438.5" y="313"/><text fill="#000000" font-family="sans-serif" font-size="14" lengthAdjust="spacing" textLength="131" x="304.5" y="336.5332">Energy Management</text></g><!--entity Optimizer--><g id="elem_Optimizer"><rect fill="#F1F1F1" height="47.6094" rx="2.5" ry="2.5" style="stroke:#181818;stroke-width:0.5;" width="211" x="833.5" y="457"/><rect fill="#F1F1F1" height="10" style="stroke:#181818;stroke-width:0.5;" width="15" x="1024.5" y="462"/><rect fill="#F1F1F1" height="2" style="stroke:#181818;stroke-width:0.5;" width="4" x="1022.5" y="464"/><rect fill="#F1F1F1" height="2" style="stroke:#181818;stroke-width:0.5;" width="4" x="1022.5" y="468"/><text fill="#000000" font-family="sans-serif" font-size="14" lengthAdjust="spacing" textLength="171" x="848.5" y="491.5332">Optimizer (Python/R Script)</text></g><!--entity db--><g id="elem_db"><path d="M636,467.5 C636,457.5 717,457.5 717,457.5 C717,457.5 798,457.5 798,467.5 L798,494.1094 C798,504.1094 717,504.1094 717,504.1094 C717,504.1094 636,504.1094 636,494.1094 L636,467.5 " fill="#F1F1F1" style="stroke:#181818;stroke-width:0.5;"/><path d="M636,467.5 C636,477.5 717,477.5 717,477.5 C717,477.5 798,477.5 798,467.5 " fill="none" style="stroke:#181818;stroke-width:0.5;"/><text fill="#000000" font-family="sans-serif" font-size="14" lengthAdjust="spacing" textLength="142" x="646" y="496.0332">PostgreSQL Database</text></g><!--link Browser to HTTP_Server--><g id="link_Browser_HTTP_Server"><path d="M542.7944,134.9833 C542.6431,135.0389 542.4899,135.0952 542.3347,135.1523 C537.3685,136.9786 530.4088,139.5628 521.8289,142.8119 C504.6691,149.31 481.0281,158.4675 453.8913,169.54 C399.6175,191.685 331.36,221.49 273,253 C245.89,267.64 216.78,286.86 195.32,301.76 " fill="none" id="Browser-HTTP_Server" style="stroke:#181818;stroke-width:1.0;"/><text fill="#000000" font-family="sans-serif" font-size="13" lengthAdjust="spacing" textLength="84" x="318" y="241.4951">HTTP Request</text></g><!--link HTTP_Server to UI_App--><g id="link_HTTP_Server_UI_App"><path d="M159.35,350.24 C155.03,377.82 147.82,444.76 143.25,473.92 " fill="none" id="HTTP_Server-UI_App" style="stroke:#181818;stroke-width:1.0;"/><text fill="#000000" font-family="sans-serif" font-size="13" lengthAdjust="spacing" textLength="48" x="155" y="396.4951">Serve UI</text></g><!--link Browser to Backend_API--><g id="link_Browser_Backend_API"><path d="M552.1027,179.3362 C552.1552,179.628 552.2088,179.9201 552.2635,180.2123 C553.1391,184.8873 554.3021,189.5966 555.8302,194.1842 C558.8863,203.3594 563.4025,212.0475 570,219 C609.33,260.46 642,229.29 694,253 C722.5,266 751.89,286.11 772.8,301.77 " fill="none" id="Browser-Backend_API" style="stroke:#181818;stroke-width:1.0;"/><text fill="#000000" font-family="sans-serif" font-size="13" lengthAdjust="spacing" textLength="124" x="668" y="241.4951">API Requests (HTTP)</text></g><!--link Backend_API to Optimizer--><g id="link_Backend_API_Optimizer"><path d="M822.81,350.24 C848.56,378.99 892.16,427.69 918,456.54 " fill="none" id="Backend_API-Optimizer" style="stroke:#181818;stroke-width:1.0;"/><text fill="#000000" font-family="sans-serif" font-size="13" lengthAdjust="spacing" textLength="127" x="867" y="396.4951">REST API (Port 8000)</text></g><!--link Backend_API to db--><g id="link_Backend_API_db"><path d="M786.51,350.25 C780.24,359.94 773.07,371.39 767,382 C752.5,407.37 737.47,437.42 727.73,457.49 " fill="none" id="Backend_API-db" style="stroke:#181818;stroke-width:1.0;"/><text fill="#000000" font-family="sans-serif" font-size="13" lengthAdjust="spacing" textLength="75" x="768" y="396.4951">SQL Queries</text></g><!--SRC=[RLBRJi9047tVhvZmOab4CMeqVGF4I09QRizaQHTOBJjrkwXe-2o_m1zpjjrAA_HfvyoPCtDcQZ01Wp17Ot0DaTGYD18LOmeZ0J66F5vXQe2dKEiNaT_M-9uANOCl1lI5k4vG2MN09HnUpKrxiquixSkAJNlWXLaewhMClMCxrtQXaM0LZOL-8p5BltSGECo_lhYyEUp_C9a4irAPZLr9tcI1SKGvcgML95LbRoHuQ4vX91PIsQ6ASUOyVAbEqywHls6kcitcaMNah5ahw5Mgl4TIFNjEWHBE-xwejJ6hZ6qV1CYGsuF00ADDBFwpkqhevNR05L-ATR7Q78GzkhU2YP5h-Pb9blmybM3N2VpRewOSjLf8aHTipGhL-GZ6ePQ9oVSNSSFdF1KGpJD-G7_FKelni0ztBbLZx0Gw9FxnyorILln1ZKRbc7uMqMrUDo8rh9mYfZkddn-4GbRMAT_1jqilP5Bmh52TbHbKi7VbmwWxdcGrNe3QW5tA0P_CKMloDDm8BSd4Bm00]--></g></svg>