<?xml version="1.0" encoding="UTF-8" standalone="no"?><svg xmlns="http://www.w3.org/2000/svg" xmlns:xlink="http://www.w3.org/1999/xlink" contentStyleType="text/css" height="668px" preserveAspectRatio="none" style="width:766px;height:668px;background:#FFFFFF;" version="1.1" viewBox="0 0 766 668" width="766px" zoomAndPan="magnify"><defs/><g><!--class PatientController--><g id="elem_PatientController"><rect codeLine="9" fill="#F1F1F1" height="65.6094" id="PatientController" rx="2.5" ry="2.5" style="stroke:#181818;stroke-width:0.5;" width="331" x="227" y="15.5"/><ellipse cx="335.25" cy="31.5" fill="#FFBB44" rx="11" ry="11" style="stroke:#181818;stroke-width:1.0;"/><path d="M338.0156,27.375 Q338.1719,27.1563 338.3594,27.0469 Q338.5469,26.9375 338.7656,26.9375 Q339.1406,26.9375 339.375,27.2031 Q339.6094,27.4531 339.6094,28.0625 L339.6094,29.5156 Q339.6094,30.125 339.375,30.3906 Q339.1406,30.6563 338.7656,30.6563 Q338.4219,30.6563 338.2188,30.4531 Q338.0156,30.2656 337.9063,29.75 Q337.8594,29.3906 337.6719,29.2031 Q337.3438,28.8281 336.7344,28.6094 Q336.125,28.3906 335.5,28.3906 Q334.7344,28.3906 334.0938,28.7188 Q333.4688,29.0469 332.9688,29.7969 Q332.4844,30.5469 332.4844,31.5781 L332.4844,32.6719 Q332.4844,33.9063 333.375,34.7344 Q334.2656,35.5469 335.8594,35.5469 Q336.7969,35.5469 337.4531,35.2969 Q337.8438,35.1406 338.2656,34.7031 Q338.5313,34.4375 338.6719,34.3594 Q338.8281,34.2813 339.0313,34.2813 Q339.3594,34.2813 339.6094,34.5469 Q339.875,34.7969 339.875,35.1406 Q339.875,35.4844 339.5313,35.8906 Q339.0313,36.4688 338.2344,36.7969 Q337.1563,37.25 335.8594,37.25 Q334.3438,37.25 333.1406,36.625 Q332.1563,36.125 331.4688,35.0625 Q330.7813,33.9844 330.7813,32.7031 L330.7813,31.5469 Q330.7813,30.2188 331.3906,29.0781 Q332.0156,27.9219 333.1094,27.3125 Q334.2031,26.6875 335.4375,26.6875 Q336.1719,26.6875 336.8125,26.8594 Q337.4688,27.0156 338.0156,27.375 Z " fill="#000000"/><text fill="#000000" font-family="sans-serif" font-size="14" lengthAdjust="spacing" textLength="106" x="355.75" y="37.2285">PatientController</text><line style="stroke:#181818;stroke-width:0.5;" x1="228" x2="557" y1="47.5" y2="47.5"/><line style="stroke:#181818;stroke-width:0.5;" x1="228" x2="557" y1="55.5" y2="55.5"/><ellipse cx="238" cy="69.8047" fill="#84BE84" rx="3" ry="3" style="stroke:#038048;stroke-width:1.0;"/><text fill="#000000" font-family="sans-serif" font-size="14" lengthAdjust="spacing" textLength="305" x="247" y="74.0332">getPatients(searchCriteria: String): PatientDTO[]</text></g><!--class PatientService--><g id="elem_PatientService"><rect codeLine="13" fill="#F1F1F1" height="83.2188" id="PatientService" rx="2.5" ry="2.5" style="stroke:#181818;stroke-width:0.5;" width="331" x="227" y="168"/><ellipse cx="342.75" cy="184" fill="#ADD1B2" rx="11" ry="11" style="stroke:#181818;stroke-width:1.0;"/><path d="M340.8594,188.5625 Q340.6406,188.8281 340.5,188.9063 Q340.3594,188.9844 340.1719,188.9844 Q339.7813,188.9844 339.5313,188.7188 Q339.2969,188.4531 339.2969,187.8594 L339.2969,186.7031 Q339.2969,186.0938 339.5313,185.8438 Q339.7813,185.5781 340.1719,185.5781 Q340.4688,185.5781 340.6719,185.7344 Q340.875,185.8906 340.9844,186.2656 Q341.0938,186.625 341.2031,186.7656 Q341.4531,187.0156 342.0625,187.2813 Q342.6719,187.5469 343.4063,187.5469 Q344.5469,187.5469 345.2656,187.0156 Q345.7344,186.6875 345.7344,186.2188 Q345.7344,185.9063 345.5156,185.625 Q345.2969,185.3438 344.7813,185.1719 Q344.4531,185.0469 343.2969,184.8281 Q341.9063,184.5625 341.1875,184.2031 Q340.4688,183.8438 340.0469,183.1875 Q339.6406,182.5156 339.6406,181.7344 Q339.6406,180.5156 340.6563,179.6094 Q341.6875,178.6875 343.3281,178.6875 Q343.9844,178.6875 344.5313,178.8281 Q345.0938,178.9688 345.5625,179.2656 Q345.8906,178.9531 346.2188,178.9531 Q346.5938,178.9531 346.8281,179.2188 Q347.0625,179.4688 347.0625,180.0781 L347.0625,181.3594 Q347.0625,181.9688 346.8281,182.2344 Q346.5938,182.4844 346.2188,182.4844 Q345.9063,182.4844 345.6719,182.2969 Q345.4844,182.1563 345.3906,181.7344 Q345.3125,181.3125 345.1719,181.125 Q344.9219,180.8125 344.4375,180.6094 Q343.9688,180.3906 343.3281,180.3906 Q342.4063,180.3906 341.875,180.8125 Q341.3438,181.2344 341.3438,181.7031 Q341.3438,182.0156 341.5625,182.3125 Q341.7813,182.6094 342.2031,182.7813 Q342.4844,182.8906 343.7813,183.1563 Q345.0938,183.4063 345.7969,183.7188 Q346.5,184.0156 346.9688,184.6719 Q347.4375,185.3281 347.4375,186.2344 Q347.4375,187.5 346.5469,188.25 Q345.3594,189.25 343.5313,189.25 Q342.8281,189.25 342.1563,189.0781 Q341.5,188.9063 340.8594,188.5625 Z " fill="#000000"/><text fill="#000000" font-family="sans-serif" font-size="14" lengthAdjust="spacing" textLength="91" x="363.25" y="189.7285">PatientService</text><line style="stroke:#181818;stroke-width:0.5;" x1="228" x2="557" y1="200" y2="200"/><line style="stroke:#181818;stroke-width:0.5;" x1="228" x2="557" y1="208" y2="208"/><ellipse cx="238" cy="222.3047" fill="#84BE84" rx="3" ry="3" style="stroke:#038048;stroke-width:1.0;"/><text fill="#000000" font-family="sans-serif" font-size="14" lengthAdjust="spacing" textLength="305" x="247" y="226.5332">getPatients(searchCriteria: String): PatientDTO[]</text><rect fill="#F24D5C" height="6" style="stroke:#C82930;stroke-width:1.0;" width="6" x="235" y="236.9141"/><text fill="#000000" font-family="sans-serif" font-size="14" lengthAdjust="spacing" textLength="289" x="247" y="244.1426">findByCriteria(searchCriteria: String): Patient[]</text></g><!--class Patient--><g id="elem_Patient"><rect codeLine="18" fill="#F1F1F1" height="136.0469" id="Patient" rx="2.5" ry="2.5" style="stroke:#181818;stroke-width:0.5;" width="269" x="197" y="517"/><ellipse cx="305.25" cy="533" fill="#FFAAAA" rx="11" ry="11" style="stroke:#181818;stroke-width:1.0;"/><path d="M304.1094,533.7969 L304.1094,536.2969 L308.4375,536.2969 L308.4375,535.375 Q308.4375,534.7656 308.6719,534.5 Q308.9219,534.2344 309.2969,534.2344 Q309.6719,534.2344 309.9063,534.5 Q310.1406,534.7656 310.1406,535.375 L310.1406,538 L302.1406,538 Q301.5156,538 301.25,537.7656 Q301,537.5313 301,537.1406 Q301,536.7656 301.2656,536.5313 Q301.5313,536.2969 302.1406,536.2969 L302.4063,536.2969 L302.4063,529.6406 L302.1406,529.6406 Q301.5156,529.6406 301.25,529.4063 Q301,529.1719 301,528.7813 Q301,528.4063 301.25,528.1719 Q301.5156,527.9375 302.1406,527.9375 L309.7656,527.9375 L309.7656,530.5313 Q309.7656,531.1406 309.5313,531.4063 Q309.3125,531.6563 308.9219,531.6563 Q308.5469,531.6563 308.3125,531.4063 Q308.0781,531.1406 308.0781,530.5313 L308.0781,529.6406 L304.1094,529.6406 L304.1094,532.0938 L305.5938,532.0938 Q305.5938,531.4375 305.7188,531.25 Q305.9844,530.8438 306.4531,530.8438 Q306.8281,530.8438 307.0625,531.1094 Q307.2969,531.3594 307.2969,531.9688 L307.2969,533.9375 Q307.2969,534.4844 307.1719,534.6719 Q306.9063,535.0625 306.4531,535.0625 Q305.9844,535.0625 305.7188,534.6563 Q305.5938,534.4688 305.5938,533.7969 L304.1094,533.7969 Z " fill="#000000"/><text fill="#000000" font-family="sans-serif" font-size="14" lengthAdjust="spacing" textLength="44" x="325.75" y="538.7285">Patient</text><line style="stroke:#181818;stroke-width:0.5;" x1="198" x2="465" y1="549" y2="549"/><rect fill="none" height="6" style="stroke:#C82930;stroke-width:1.0;" width="6" x="205" y="560.3047"/><text fill="#000000" font-family="sans-serif" font-size="14" lengthAdjust="spacing" textLength="51" x="217" y="567.5332">id: Long</text><rect fill="none" height="6" style="stroke:#C82930;stroke-width:1.0;" width="6" x="205" y="577.9141"/><text fill="#000000" font-family="sans-serif" font-size="14" lengthAdjust="spacing" textLength="80" x="217" y="585.1426">name: String</text><rect fill="none" height="6" style="stroke:#C82930;stroke-width:1.0;" width="6" x="205" y="595.5234"/><text fill="#000000" font-family="sans-serif" font-size="14" lengthAdjust="spacing" textLength="110" x="217" y="602.752">dateOfBirth: Date</text><rect fill="none" height="6" style="stroke:#C82930;stroke-width:1.0;" width="6" x="205" y="613.1328"/><text fill="#000000" font-family="sans-serif" font-size="14" lengthAdjust="spacing" textLength="188" x="217" y="620.3613">medicalRecordNumber: String</text><rect fill="none" height="6" style="stroke:#C82930;stroke-width:1.0;" width="6" x="205" y="630.7422"/><text fill="#000000" font-family="sans-serif" font-size="14" lengthAdjust="spacing" textLength="243" x="217" y="637.9707">contactInformation: ContactInformation</text><line style="stroke:#181818;stroke-width:0.5;" x1="198" x2="465" y1="645.0469" y2="645.0469"/></g><!--class ContactInformation--><g id="elem_ContactInformation"><rect codeLine="26" fill="#F1F1F1" height="83.2188" id="ContactInformation" rx="2.5" ry="2.5" style="stroke:#181818;stroke-width:0.5;" width="160" x="593.5" y="7"/><ellipse cx="612.55" cy="23" fill="#D1E7DD" rx="11" ry="11" style="stroke:#181818;stroke-width:1.0;"/><path d="M613.1438,26.2656 L615.6125,20.3906 L615.2219,20.3906 Q614.6125,20.3906 614.3469,20.1563 Q614.0813,19.9219 614.0813,19.5313 Q614.0813,19.1563 614.3469,18.9219 Q614.6125,18.6875 615.2219,18.6875 L617.5031,18.6875 Q618.1125,18.6875 618.3781,18.9219 Q618.6438,19.1563 618.6438,19.5313 Q618.6438,20 618.2375,20.2656 Q618.05,20.3906 617.4563,20.3906 L613.9719,28.75 L612.3313,28.75 L608.8469,20.3906 Q608.2531,20.3906 608.0656,20.2656 Q607.6594,20 607.6594,19.5313 Q607.6594,19.1563 607.925,18.9219 Q608.1906,18.6875 608.8,18.6875 L611.0969,18.6875 Q611.7063,18.6875 611.9563,18.9219 Q612.2219,19.1563 612.2219,19.5313 Q612.2219,19.9219 611.9563,20.1563 Q611.7063,20.3906 611.0969,20.3906 L610.6906,20.3906 L613.1438,26.2656 Z " fill="#000000"/><text fill="#000000" font-family="sans-serif" font-size="14" lengthAdjust="spacing" textLength="119" x="627.45" y="28.7285">ContactInformation</text><line style="stroke:#181818;stroke-width:0.5;" x1="594.5" x2="752.5" y1="39" y2="39"/><rect fill="none" height="6" style="stroke:#C82930;stroke-width:1.0;" width="6" x="601.5" y="50.3047"/><text fill="#000000" font-family="sans-serif" font-size="14" lengthAdjust="spacing" textLength="78" x="613.5" y="57.5332">email: String</text><rect fill="none" height="6" style="stroke:#C82930;stroke-width:1.0;" width="6" x="601.5" y="67.9141"/><text fill="#000000" font-family="sans-serif" font-size="14" lengthAdjust="spacing" textLength="134" x="613.5" y="75.1426">phoneNumber: String</text><line style="stroke:#181818;stroke-width:0.5;" x1="594.5" x2="752.5" y1="82.2188" y2="82.2188"/></g><!--class PatientRepo--><g id="elem_PatientRepo"><rect codeLine="33" fill="#F1F1F1" height="100.8281" id="PatientRepo" rx="2.5" ry="2.5" style="stroke:#181818;stroke-width:0.5;" width="315" x="7" y="329"/><ellipse cx="121.25" cy="345" fill="#FFCC77" rx="11" ry="11" style="stroke:#181818;stroke-width:1.0;"/><path d="M120.0938,346.1563 L120.0938,348.2969 L120.7031,348.2969 Q121.3281,348.2969 121.5781,348.5313 Q121.8438,348.7656 121.8438,349.1563 Q121.8438,349.5313 121.5781,349.7656 Q121.3281,350 120.7031,350 L118.125,350 Q117.5156,350 117.25,349.7656 Q116.9844,349.5313 116.9844,349.1406 Q116.9844,348.7656 117.25,348.5313 Q117.5156,348.2969 118.125,348.2969 L118.3906,348.2969 L118.3906,341.6406 L118.125,341.6406 Q117.5156,341.6406 117.25,341.4063 Q116.9844,341.1719 116.9844,340.7813 Q116.9844,340.4063 117.25,340.1719 Q117.5156,339.9375 118.125,339.9375 L121.9844,339.9375 Q123.7813,339.9375 124.7656,340.8281 Q125.7656,341.7188 125.7656,343 Q125.7656,343.7969 125.2969,344.4531 Q124.8281,345.1094 123.8906,345.6094 Q124.4375,346.0781 125.0469,346.8281 Q125.4375,347.2969 126.0781,348.2969 Q126.7344,348.2969 126.9375,348.4375 Q127.3125,348.6875 127.3125,349.1563 Q127.3125,349.5313 127.0469,349.7656 Q126.7969,350 126.1875,350 L125.2031,350 Q123.1406,346.7969 121.7813,346.1563 L120.0938,346.1563 Z M120.0938,344.4531 L121.4219,344.4531 Q122.1563,344.4531 122.75,344.2344 Q123.5313,343.9375 123.7969,343.6094 Q124.0625,343.2656 124.0625,342.9375 Q124.0625,342.4688 123.5469,342.0625 Q123.0313,341.6406 122.0469,341.6406 L120.0938,341.6406 L120.0938,344.4531 Z " fill="#000000"/><text fill="#000000" font-family="sans-serif" font-size="14" lengthAdjust="spacing" textLength="78" x="141.75" y="350.7285">PatientRepo</text><line style="stroke:#181818;stroke-width:0.5;" x1="8" x2="321" y1="361" y2="361"/><line style="stroke:#181818;stroke-width:0.5;" x1="8" x2="321" y1="369" y2="369"/><ellipse cx="18" cy="383.3047" fill="#84BE84" rx="3" ry="3" style="stroke:#038048;stroke-width:1.0;"/><text fill="#000000" font-family="sans-serif" font-size="14" lengthAdjust="spacing" textLength="289" x="27" y="387.5332">findByCriteria(searchCriteria: String): Patient[]</text><ellipse cx="18" cy="400.9141" fill="#84BE84" rx="3" ry="3" style="stroke:#038048;stroke-width:1.0;"/><text fill="#000000" font-family="sans-serif" font-size="14" lengthAdjust="spacing" textLength="169" x="27" y="405.1426">save(patient: Patient): void</text><ellipse cx="18" cy="418.5234" fill="#84BE84" rx="3" ry="3" style="stroke:#038048;stroke-width:1.0;"/><text fill="#000000" font-family="sans-serif" font-size="14" lengthAdjust="spacing" textLength="177" x="27" y="422.752">delete(patientId: Long): void</text></g><!--class PatientDTO--><g id="elem_PatientDTO"><rect codeLine="39" fill="#F1F1F1" height="153.6563" id="PatientDTO" rx="2.5" ry="2.5" style="stroke:#181818;stroke-width:0.5;" width="214" x="507.5" y="508"/><ellipse cx="573.25" cy="524" fill="#FFFF66" rx="11" ry="11" style="stroke:#181818;stroke-width:1.0;"/><path d="M570.7969,527.2969 L570.7969,520.6406 Q570.25,520.625 569.9844,520.3906 Q569.7344,520.1563 569.7344,519.7813 Q569.7344,519.4063 570,519.1719 Q570.2656,518.9375 570.875,518.9375 L574.4375,518.9375 Q575.2656,518.9375 576.0625,519.25 Q576.8594,519.5469 577.3438,520.0313 Q577.7031,520.3906 578.0938,521.0156 Q578.4844,521.625 578.6875,522.25 Q578.8906,522.8594 578.8906,523.75 L578.8906,524.5625 Q578.8906,525.6406 578.5156,526.4844 Q578.1563,527.3125 577.5625,527.8438 Q576.9688,528.3594 576.4531,528.6094 Q575.625,529 574.2969,529 L570.875,529 Q570.2656,529 570,528.7656 Q569.7344,528.5313 569.7344,528.1406 Q569.7344,527.7656 570,527.5313 Q570.2656,527.2969 570.7969,527.2969 Z M572.5,527.2969 L574.3125,527.2969 Q575.3125,527.2969 575.8281,527 Q576.5,526.625 576.8438,526.0469 Q577.1875,525.4531 577.1875,524.5156 L577.1875,523.7031 Q577.1875,522.9063 576.875,522.2969 Q576.3906,521.3438 575.7813,521 Q575.1875,520.6406 574.2969,520.6406 L572.5,520.6406 L572.5,527.2969 Z " fill="#000000"/><text fill="#000000" font-family="sans-serif" font-size="14" lengthAdjust="spacing" textLength="74" x="593.75" y="529.7285">PatientDTO</text><line style="stroke:#181818;stroke-width:0.5;" x1="508.5" x2="720.5" y1="540" y2="540"/><rect fill="none" height="6" style="stroke:#C82930;stroke-width:1.0;" width="6" x="515.5" y="551.3047"/><text fill="#000000" font-family="sans-serif" font-size="14" lengthAdjust="spacing" textLength="51" x="527.5" y="558.5332">id: Long</text><rect fill="none" height="6" style="stroke:#C82930;stroke-width:1.0;" width="6" x="515.5" y="568.9141"/><text fill="#000000" font-family="sans-serif" font-size="14" lengthAdjust="spacing" textLength="80" x="527.5" y="576.1426">name: String</text><rect fill="none" height="6" style="stroke:#C82930;stroke-width:1.0;" width="6" x="515.5" y="586.5234"/><text fill="#000000" font-family="sans-serif" font-size="14" lengthAdjust="spacing" textLength="110" x="527.5" y="593.752">dateOfBirth: Date</text><rect fill="none" height="6" style="stroke:#C82930;stroke-width:1.0;" width="6" x="515.5" y="604.1328"/><text fill="#000000" font-family="sans-serif" font-size="14" lengthAdjust="spacing" textLength="188" x="527.5" y="611.3613">medicalRecordNumber: String</text><rect fill="none" height="6" style="stroke:#C82930;stroke-width:1.0;" width="6" x="515.5" y="621.7422"/><text fill="#000000" font-family="sans-serif" font-size="14" lengthAdjust="spacing" textLength="78" x="527.5" y="628.9707">email: String</text><rect fill="none" height="6" style="stroke:#C82930;stroke-width:1.0;" width="6" x="515.5" y="639.3516"/><text fill="#000000" font-family="sans-serif" font-size="14" lengthAdjust="spacing" textLength="134" x="527.5" y="646.5801">phoneNumber: String</text><line style="stroke:#181818;stroke-width:0.5;" x1="508.5" x2="720.5" y1="653.6563" y2="653.6563"/></g><!--class PatientMapper--><g id="elem_PatientMapper"><rect codeLine="48" fill="#F1F1F1" height="83.2188" id="PatientMapper" rx="2.5" ry="2.5" style="stroke:#181818;stroke-width:0.5;" width="290" x="469.5" y="338"/><ellipse cx="564.25" cy="354" fill="#66B2FF" rx="11" ry="11" style="stroke:#181818;stroke-width:1.0;"/><path d="M562.1875,352.2188 L562.1875,357.2969 L562.8125,357.2969 Q563.4219,357.2969 563.6719,357.5313 Q563.9375,357.7656 563.9375,358.1563 Q563.9375,358.5313 563.6719,358.7656 Q563.4219,359 562.8125,359 L560.5781,359 Q559.9531,359 559.7031,358.7656 Q559.4375,358.5313 559.4375,358.1406 Q559.4375,357.7656 559.7031,357.5313 Q559.9531,357.2969 560.4844,357.2969 L560.4844,350.6406 Q560.0469,350.5938 559.8125,350.375 Q559.5781,350.1406 559.5781,349.7813 Q559.5781,349.4063 559.8438,349.1719 Q560.1094,348.9375 560.7188,348.9375 L562.5938,348.9375 L564.9063,354.0625 L567.1719,348.9375 L569.0625,348.9375 Q569.6719,348.9375 569.9375,349.1719 Q570.2031,349.4063 570.2031,349.7813 Q570.2031,350.1406 569.9688,350.375 Q569.7344,350.5938 569.2969,350.6406 L569.2969,357.2969 Q569.8281,357.2969 570.0781,357.5469 Q570.3438,357.7813 570.3438,358.1563 Q570.3438,358.5313 570.0781,358.7656 Q569.8281,359 569.2188,359 L566.9688,359 Q566.3594,359 566.0938,358.7656 Q565.8438,358.5313 565.8438,358.1406 Q565.8438,357.7656 566.0938,357.5313 Q566.3594,357.2969 566.9688,357.2969 L567.5938,357.2969 L567.5938,352.2188 L565.6406,356.6094 L564.1719,356.6094 L562.1875,352.2188 Z " fill="#000000"/><text fill="#000000" font-family="sans-serif" font-size="14" lengthAdjust="spacing" textLength="92" x="584.75" y="359.7285">PatientMapper</text><line style="stroke:#181818;stroke-width:0.5;" x1="470.5" x2="758.5" y1="370" y2="370"/><line style="stroke:#181818;stroke-width:0.5;" x1="470.5" x2="758.5" y1="378" y2="378"/><ellipse cx="480.5" cy="392.3047" fill="#84BE84" rx="3" ry="3" style="stroke:#038048;stroke-width:1.0;"/><text fill="#000000" font-family="sans-serif" font-size="14" lengthAdjust="spacing" textLength="229" x="489.5" y="396.5332">toDTO(patient: Patient): PatientDTO</text><ellipse cx="480.5" cy="409.9141" fill="#84BE84" rx="3" ry="3" style="stroke:#038048;stroke-width:1.0;"/><text fill="#000000" font-family="sans-serif" font-size="14" lengthAdjust="spacing" textLength="264" x="489.5" y="414.1426">toEntity(patientDTO: PatientDTO): Patient</text></g><!--link PatientController to PatientService--><g id="link_PatientController_PatientService"><path codeLine="53" d="M371.52,81.53 C365.05,93.16 358.77,106.71 355.5,120 C351.92,134.53 355.41,149.76 361.45,163.41 " fill="none" id="PatientController-to-PatientService" style="stroke:#181818;stroke-width:1.0;"/><polygon fill="#181818" points="363.59,167.98,363.3816,158.1333,361.4631,163.4549,356.1415,161.5364,363.59,167.98" style="stroke:#181818;stroke-width:1.0;"/><text fill="#000000" font-family="sans-serif" font-size="13" lengthAdjust="spacing" textLength="27" x="356.5" y="134.4951">calls</text></g><!--link PatientService to PatientController--><g id="link_PatientService_PatientController"><path codeLine="59" d="M392.5,167.88 C392.5,142.89 392.5,111.1 392.5,86.75 " fill="none" id="PatientService-to-PatientController" style="stroke:#181818;stroke-width:1.0;"/><polygon fill="#181818" points="392.5,81.68,388.5,90.68,392.5,86.68,396.5,90.68,392.5,81.68" style="stroke:#181818;stroke-width:1.0;"/><text fill="#000000" font-family="sans-serif" font-size="13" lengthAdjust="spacing" textLength="70" x="393.5" y="134.4951">returns DTO</text></g><!--link PatientService to PatientRepo--><g id="link_PatientService_PatientRepo"><path codeLine="54" d="M337.31,251.17 C306.91,273.57 268.83,301.62 236.16,325.7 " fill="none" id="PatientService-to-PatientRepo" style="stroke:#181818;stroke-width:1.0;"/><polygon fill="#181818" points="231.79,328.91,241.4073,326.7868,235.8138,325.9421,236.6586,320.3486,231.79,328.91" style="stroke:#181818;stroke-width:1.0;"/><text fill="#000000" font-family="sans-serif" font-size="13" lengthAdjust="spacing" textLength="28" x="293.5" y="295.4951">uses</text></g><!--link PatientService to PatientMapper--><g id="link_PatientService_PatientMapper"><path codeLine="55" d="M446.24,251.17 C479.66,276.46 522.61,308.96 556.75,334.8 " fill="none" id="PatientService-to-PatientMapper" style="stroke:#181818;stroke-width:1.0;"/><polygon fill="#181818" points="560.87,337.92,556.1045,329.3009,556.882,334.904,551.2789,335.6816,560.87,337.92" style="stroke:#181818;stroke-width:1.0;"/><text fill="#000000" font-family="sans-serif" font-size="13" lengthAdjust="spacing" textLength="77" x="504.5" y="295.4951">maps to DTO</text></g><!--link PatientRepo to Patient--><g id="link_PatientRepo_Patient"><path codeLine="56" d="M205.14,430.02 C225.57,454.92 250.69,485.53 273.14,512.89 " fill="none" id="PatientRepo-to-Patient" style="stroke:#181818;stroke-width:1.0;"/><polygon fill="#181818" points="276.44,516.9,273.831,507.403,273.2715,513.0321,267.6424,512.4726,276.44,516.9" style="stroke:#181818;stroke-width:1.0;"/><text fill="#000000" font-family="sans-serif" font-size="13" lengthAdjust="spacing" textLength="42" x="244.5" y="474.4951">fetches</text></g><!--link Patient to PatientService--><g id="link_Patient_PatientService"><path codeLine="57" d="M342.45,516.95 C354.75,441.62 374.39,321.38 385.04,256.17 " fill="none" id="Patient-to-PatientService" style="stroke:#181818;stroke-width:1.0;"/><polygon fill="#181818" points="385.86,251.18,380.4503,259.4101,385.0473,256.1135,388.3439,260.7105,385.86,251.18" style="stroke:#181818;stroke-width:1.0;"/><text fill="#000000" font-family="sans-serif" font-size="13" lengthAdjust="spacing" textLength="40" x="374.5" y="384.9951">returns</text></g><!--link PatientMapper to PatientDTO--><g id="link_PatientMapper_PatientDTO"><path codeLine="58" d="M614.5,421.19 C614.5,444.56 614.5,474.74 614.5,502.76 " fill="none" id="PatientMapper-to-PatientDTO" style="stroke:#181818;stroke-width:1.0;"/><polygon fill="#181818" points="614.5,507.97,618.5,498.97,614.5,502.97,610.5,498.97,614.5,507.97" style="stroke:#181818;stroke-width:1.0;"/><text fill="#000000" font-family="sans-serif" font-size="13" lengthAdjust="spacing" textLength="63" x="615.5" y="474.4951">converts to</text></g><!--SRC=[jPJRYjim48RlzHHQSfFGv6AN9G6p1E8Jf2HniDr0AQMezYGHs9AHbR1BwRjNMikE3yksfTHt6dtpppyZoNSf72a3xEtYTVnv_3p1IKRA4Z_ZfoSyzgOZtr-fRuANItHdsCWB3sl7wyFHTBHotNlxeGCxmIuEWyt62_kyeyLj-_6nmuVUFeZMSH0Ep8IQTvp5eiDlL_lzK7ix7StdzeFlTrWt3lgWgqLzVpxlW8VLvfFtBR0_UaxSppXCH-wzjt3TrmpKwczF90Kc7Swau5a6Oe9_8Ao-3oUGPhCSbq14SdO4bI0eiN0a1MMdYOKDeKn- -Of-8bIFsSGZ45UQm3zewhIPwY-rNshqjvcL5NCxJAosCAEfXJUSdQeL8pdK0bKa9HA2eqs5F5lOLOigd4DA4vA5a72HxYxvTn3Tl4HDa2HopOvSvAecPnPs1Z5jh7DGGwHn2ZcXMRT8SUOCUjML8aAj6sWQ3g7WpTp_Ve2lQIMvmhYeOiscmgwSfXMHGWQoOTPcjZMYhEdhUplG_tuAVpupymQDjoqfYjRTbrpxVgFpMoirw359vKlDgeqsTClG9GTl3SzcIznzAjZ2gi6iHBrmYzGdgx1B2UzHLKUAoqbHOidrZmIr5LgieeuWa_DDy6rd0kH5i0Oo9Lgegg4RuEmAGkggxnXiZQ5HrYP_0G00]--></g></svg>