<?xml version="1.0" encoding="us-ascii" standalone="no"?><svg xmlns="http://www.w3.org/2000/svg" xmlns:xlink="http://www.w3.org/1999/xlink" contentStyleType="text/css" height="364px" preserveAspectRatio="none" style="width:493px;height:364px;background:#FFFFFF;" version="1.1" viewBox="0 0 493 364" width="493px" zoomAndPan="magnify"><defs/><g><!--class Prosumer--><g id="elem_Prosumer"><rect codeLine="3" fill="#F1F1F1" height="153.6563" id="Prosumer" rx="2.5" ry="2.5" style="stroke:#181818;stroke-width:0.5;" width="156" x="174" y="7"/><ellipse cx="217.35" cy="23" fill="#ADD1B2" rx="11" ry="11" style="stroke:#181818;stroke-width:1.0;"/><path d="M220.1156,18.875 Q220.2719,18.6563 220.4594,18.5469 Q220.6469,18.4375 220.8656,18.4375 Q221.2406,18.4375 221.475,18.7031 Q221.7094,18.9531 221.7094,19.5625 L221.7094,21.0156 Q221.7094,21.625 221.475,21.8906 Q221.2406,22.1563 220.8656,22.1563 Q220.5219,22.1563 220.3188,21.9531 Q220.1156,21.7656 220.0063,21.25 Q219.9594,20.8906 219.7719,20.7031 Q219.4438,20.3281 218.8344,20.1094 Q218.225,19.8906 217.6,19.8906 Q216.8344,19.8906 216.1938,20.2188 Q215.5688,20.5469 215.0688,21.2969 Q214.5844,22.0469 214.5844,23.0781 L214.5844,24.1719 Q214.5844,25.4063 215.475,26.2344 Q216.3656,27.0469 217.9594,27.0469 Q218.8969,27.0469 219.5531,26.7969 Q219.9438,26.6406 220.3656,26.2031 Q220.6313,25.9375 220.7719,25.8594 Q220.9281,25.7813 221.1313,25.7813 Q221.4594,25.7813 221.7094,26.0469 Q221.975,26.2969 221.975,26.6406 Q221.975,26.9844 221.6313,27.3906 Q221.1313,27.9688 220.3344,28.2969 Q219.2563,28.75 217.9594,28.75 Q216.4438,28.75 215.2406,28.125 Q214.2563,27.625 213.5688,26.5625 Q212.8813,25.4844 212.8813,24.2031 L212.8813,23.0469 Q212.8813,21.7188 213.4906,20.5781 Q214.1156,19.4219 215.2094,18.8125 Q216.3031,18.1875 217.5375,18.1875 Q218.2719,18.1875 218.9125,18.3594 Q219.5688,18.5156 220.1156,18.875 Z " fill="#000000"/><text fill="#000000" font-family="sans-serif" font-size="14" lengthAdjust="spacing" textLength="61" x="237.65" y="28.7285">Prosumer</text><line style="stroke:#181818;stroke-width:0.5;" x1="175" x2="329" y1="39" y2="39"/><rect fill="none" height="6" style="stroke:#C82930;stroke-width:1.0;" width="6" x="182" y="50.3047"/><text fill="#000000" font-family="sans-serif" font-size="14" lengthAdjust="spacing" textLength="84" x="194" y="57.5332">PLoad: float[]</text><rect fill="none" height="6" style="stroke:#C82930;stroke-width:1.0;" width="6" x="182" y="67.9141"/><text fill="#000000" font-family="sans-serif" font-size="14" lengthAdjust="spacing" textLength="130" x="194" y="75.1426">PPV_capacity: float[]</text><rect fill="none" height="6" style="stroke:#C82930;stroke-width:1.0;" width="6" x="182" y="85.5234"/><text fill="#000000" font-family="sans-serif" font-size="14" lengthAdjust="spacing" textLength="65" x="194" y="92.752">SOC: float</text><rect fill="none" height="6" style="stroke:#C82930;stroke-width:1.0;" width="6" x="182" y="103.1328"/><text fill="#000000" font-family="sans-serif" font-size="14" lengthAdjust="spacing" textLength="75" x="194" y="110.3613">P_buy: float</text><rect fill="none" height="6" style="stroke:#C82930;stroke-width:1.0;" width="6" x="182" y="120.7422"/><text fill="#000000" font-family="sans-serif" font-size="14" lengthAdjust="spacing" textLength="73" x="194" y="127.9707">P_sell: float</text><line style="stroke:#181818;stroke-width:0.5;" x1="175" x2="329" y1="135.0469" y2="135.0469"/><ellipse cx="185" cy="149.3516" fill="#84BE84" rx="3" ry="3" style="stroke:#038048;stroke-width:1.0;"/><text fill="#000000" font-family="sans-serif" font-size="14" lengthAdjust="spacing" textLength="107" x="194" y="153.5801">otimizarEnergia()</text></g><!--class Grid--><g id="elem_Grid"><rect codeLine="12" fill="#F1F1F1" height="118.4375" id="Grid" rx="2.5" ry="2.5" style="stroke:#181818;stroke-width:0.5;" width="138" x="7" y="239"/><ellipse cx="58.25" cy="255" fill="#ADD1B2" rx="11" ry="11" style="stroke:#181818;stroke-width:1.0;"/><path d="M61.0156,250.875 Q61.1719,250.6563 61.3594,250.5469 Q61.5469,250.4375 61.7656,250.4375 Q62.1406,250.4375 62.375,250.7031 Q62.6094,250.9531 62.6094,251.5625 L62.6094,253.0156 Q62.6094,253.625 62.375,253.8906 Q62.1406,254.1563 61.7656,254.1563 Q61.4219,254.1563 61.2188,253.9531 Q61.0156,253.7656 60.9063,253.25 Q60.8594,252.8906 60.6719,252.7031 Q60.3438,252.3281 59.7344,252.1094 Q59.125,251.8906 58.5,251.8906 Q57.7344,251.8906 57.0938,252.2188 Q56.4688,252.5469 55.9688,253.2969 Q55.4844,254.0469 55.4844,255.0781 L55.4844,256.1719 Q55.4844,257.4063 56.375,258.2344 Q57.2656,259.0469 58.8594,259.0469 Q59.7969,259.0469 60.4531,258.7969 Q60.8438,258.6406 61.2656,258.2031 Q61.5313,257.9375 61.6719,257.8594 Q61.8281,257.7813 62.0313,257.7813 Q62.3594,257.7813 62.6094,258.0469 Q62.875,258.2969 62.875,258.6406 Q62.875,258.9844 62.5313,259.3906 Q62.0313,259.9688 61.2344,260.2969 Q60.1563,260.75 58.8594,260.75 Q57.3438,260.75 56.1406,260.125 Q55.1563,259.625 54.4688,258.5625 Q53.7813,257.4844 53.7813,256.2031 L53.7813,255.0469 Q53.7813,253.7188 54.3906,252.5781 Q55.0156,251.4219 56.1094,250.8125 Q57.2031,250.1875 58.4375,250.1875 Q59.1719,250.1875 59.8125,250.3594 Q60.4688,250.5156 61.0156,250.875 Z " fill="#000000"/><text fill="#000000" font-family="sans-serif" font-size="14" lengthAdjust="spacing" textLength="27" x="78.75" y="260.7285">Grid</text><line style="stroke:#181818;stroke-width:0.5;" x1="8" x2="144" y1="271" y2="271"/><rect fill="none" height="6" style="stroke:#C82930;stroke-width:1.0;" width="6" x="15" y="282.3047"/><text fill="#000000" font-family="sans-serif" font-size="14" lengthAdjust="spacing" textLength="76" x="27" y="289.5332">Cbuy: float[]</text><rect fill="none" height="6" style="stroke:#C82930;stroke-width:1.0;" width="6" x="15" y="299.9141"/><text fill="#000000" font-family="sans-serif" font-size="14" lengthAdjust="spacing" textLength="74" x="27" y="307.1426">Csell: float[]</text><line style="stroke:#181818;stroke-width:0.5;" x1="8" x2="144" y1="314.2188" y2="314.2188"/><ellipse cx="18" cy="328.5234" fill="#84BE84" rx="3" ry="3" style="stroke:#038048;stroke-width:1.0;"/><text fill="#000000" font-family="sans-serif" font-size="14" lengthAdjust="spacing" textLength="112" x="27" y="332.752">fornecerEnergia()</text><ellipse cx="18" cy="346.1328" fill="#84BE84" rx="3" ry="3" style="stroke:#038048;stroke-width:1.0;"/><text fill="#000000" font-family="sans-serif" font-size="14" lengthAdjust="spacing" textLength="111" x="27" y="350.3613">comprarEnergia()</text></g><!--class Solver--><g id="elem_Solver"><rect codeLine="19" fill="#F1F1F1" height="65.6094" id="Solver" rx="2.5" ry="2.5" style="stroke:#181818;stroke-width:0.5;" width="147" x="238.5" y="265"/><ellipse cx="287.75" cy="281" fill="#ADD1B2" rx="11" ry="11" style="stroke:#181818;stroke-width:1.0;"/><path d="M290.5156,276.875 Q290.6719,276.6563 290.8594,276.5469 Q291.0469,276.4375 291.2656,276.4375 Q291.6406,276.4375 291.875,276.7031 Q292.1094,276.9531 292.1094,277.5625 L292.1094,279.0156 Q292.1094,279.625 291.875,279.8906 Q291.6406,280.1563 291.2656,280.1563 Q290.9219,280.1563 290.7188,279.9531 Q290.5156,279.7656 290.4063,279.25 Q290.3594,278.8906 290.1719,278.7031 Q289.8438,278.3281 289.2344,278.1094 Q288.625,277.8906 288,277.8906 Q287.2344,277.8906 286.5938,278.2188 Q285.9688,278.5469 285.4688,279.2969 Q284.9844,280.0469 284.9844,281.0781 L284.9844,282.1719 Q284.9844,283.4063 285.875,284.2344 Q286.7656,285.0469 288.3594,285.0469 Q289.2969,285.0469 289.9531,284.7969 Q290.3438,284.6406 290.7656,284.2031 Q291.0313,283.9375 291.1719,283.8594 Q291.3281,283.7813 291.5313,283.7813 Q291.8594,283.7813 292.1094,284.0469 Q292.375,284.2969 292.375,284.6406 Q292.375,284.9844 292.0313,285.3906 Q291.5313,285.9688 290.7344,286.2969 Q289.6563,286.75 288.3594,286.75 Q286.8438,286.75 285.6406,286.125 Q284.6563,285.625 283.9688,284.5625 Q283.2813,283.4844 283.2813,282.2031 L283.2813,281.0469 Q283.2813,279.7188 283.8906,278.5781 Q284.5156,277.4219 285.6094,276.8125 Q286.7031,276.1875 287.9375,276.1875 Q288.6719,276.1875 289.3125,276.3594 Q289.9688,276.5156 290.5156,276.875 Z " fill="#000000"/><text fill="#000000" font-family="sans-serif" font-size="14" lengthAdjust="spacing" textLength="40" x="308.25" y="286.7285">Solver</text><line style="stroke:#181818;stroke-width:0.5;" x1="239.5" x2="384.5" y1="297" y2="297"/><line style="stroke:#181818;stroke-width:0.5;" x1="239.5" x2="384.5" y1="305" y2="305"/><ellipse cx="249.5" cy="319.3047" fill="#84BE84" rx="3" ry="3" style="stroke:#038048;stroke-width:1.0;"/><text fill="#000000" font-family="sans-serif" font-size="14" lengthAdjust="spacing" textLength="121" x="258.5" y="323.5332">resolverProblema()</text></g><!--link Prosumer to Grid--><g id="link_Prosumer_Grid"><path codeLine="23" d="M173.7,124.56 C147.01,141.62 119.32,163.95 101,191 C91.46,205.09 86.8435,216.5233 83.1735,233.0133 " fill="none" id="Prosumer-to-Grid" style="stroke:#181818;stroke-width:1.0;"/><polygon fill="#181818" points="81.87,238.87,87.7297,230.9539,82.9562,233.9894,79.9207,229.216,81.87,238.87" style="stroke:#181818;stroke-width:1.0;"/><text fill="#000000" font-family="sans-serif" font-size="13" lengthAdjust="spacing" textLength="134" x="102" y="205.4951">Compra/Vende Energia</text></g><!--link Prosumer to Prosumer--><g id="link_Prosumer_Prosumer"><path codeLine="24" d="M330.16,62.51 C350.06,63.92 365,71.09 365,84 C365,96.91 356.045,103.6559 336.145,105.0659 " fill="none" id="Prosumer-to-Prosumer" style="stroke:#181818;stroke-width:1.0;"/><polygon fill="#181818" points="330.16,105.49,339.4202,108.8439,335.1475,105.1366,338.8548,100.8639,330.16,105.49" style="stroke:#181818;stroke-width:1.0;"/><text fill="#000000" font-family="sans-serif" font-size="13" lengthAdjust="spacing" textLength="109" x="371" y="89.4951">Troca Energia P2P</text></g><!--link Prosumer to Solver--><g id="link_Prosumer_Solver"><path codeLine="25" d="M242.22,161.23 C242.35,177.29 244.16,193.93 249,209 C255.55,229.39 264.9754,244.4241 277.6154,259.9741 " fill="none" id="Prosumer-to-Solver" style="stroke:#181818;stroke-width:1.0;"/><polygon fill="#181818" points="281.4,264.63,278.8271,255.1232,278.2462,260.7501,272.6192,260.1693,281.4,264.63" style="stroke:#181818;stroke-width:1.0;"/><text fill="#000000" font-family="sans-serif" font-size="13" lengthAdjust="spacing" textLength="77" x="250" y="205.4951">Envia Modelo</text></g><!--link Solver to Prosumer--><g id="link_Solver_Prosumer"><path codeLine="26" d="M326.4,264.88 C333.94,243.56 340.09,215.15 332,191 C328.56,180.73 326.7273,175.8186 321.0673,166.2186 " fill="none" id="Solver-to-Prosumer" style="stroke:#181818;stroke-width:1.0;"/><polygon fill="#181818" points="318.02,161.05,319.1452,170.8344,320.5594,165.3571,326.0366,166.7713,318.02,161.05" style="stroke:#181818;stroke-width:1.0;"/><text fill="#000000" font-family="sans-serif" font-size="13" lengthAdjust="spacing" textLength="114" x="336" y="205.4951">Retorna Resultados</text></g><!--SRC=[RP11ImCn48Nl-HLpKraMmUCUl4JnKZ5OwKMaJ9Df2IGx9SaMglZVZMqsRXTp6VBDuysRkO87Yxk07i4GI8SnKXJwju8A70TF0Ru4vDU2MZ2Q3hQECRr_Z52jrXhtg6qwpdlB5rdGA5vlXkCSHN9koXhWPBtznF3OKzXPlBuHtwA4UWhMr43opwtEb1Ex0XlOSkX9qyJmp3NxVVXtpfBTeQxUGA1u0lac6qU-IEk5slR-dAm3URAyNL6V3rgCBuNrqy5RO8sZ2jITkbIM45rM77B_cGqv5eNEh5ufvIKnrpYuX8QZ-040]--></g></svg>