<?xml version="1.0" encoding="us-ascii" standalone="no"?><svg xmlns="http://www.w3.org/2000/svg" xmlns:xlink="http://www.w3.org/1999/xlink" contentStyleType="text/css" height="485px" preserveAspectRatio="none" style="width:353px;height:485px;background:#FFFFFF;" version="1.1" viewBox="0 0 353 485" width="353px" zoomAndPan="magnify"><defs/><g><!--cluster Frameworks & Drivers--><g id="cluster_Frameworks &amp; Drivers"><path d="M27.5,6 L184.5,6 A3.75,3.75 0 0 1 187,8.5 L194,29.6094 L280.5,29.6094 A2.5,2.5 0 0 1 283,32.1094 L283,103.5 A2.5,2.5 0 0 1 280.5,106 L27.5,106 A2.5,2.5 0 0 1 25,103.5 L25,8.5 A2.5,2.5 0 0 1 27.5,6 " fill="none" style="stroke:#000000;stroke-width:1.5;"/><line style="stroke:#000000;stroke-width:1.5;" x1="25" x2="194" y1="29.6094" y2="29.6094"/><text fill="#000000" font-family="sans-serif" font-size="14" font-weight="bold" lengthAdjust="spacing" textLength="156" x="29" y="22.5332">Frameworks &amp; Drivers</text></g><!--cluster Interface Adapters--><g id="cluster_Interface Adapters"><path d="M9.5,130 L140.5,130 A3.75,3.75 0 0 1 143,132.5 L150,153.6094 L300.5,153.6094 A2.5,2.5 0 0 1 303,156.1094 L303,227.5 A2.5,2.5 0 0 1 300.5,230 L9.5,230 A2.5,2.5 0 0 1 7,227.5 L7,132.5 A2.5,2.5 0 0 1 9.5,130 " fill="none" style="stroke:#000000;stroke-width:1.5;"/><line style="stroke:#000000;stroke-width:1.5;" x1="7" x2="150" y1="153.6094" y2="153.6094"/><text fill="#000000" font-family="sans-serif" font-size="14" font-weight="bold" lengthAdjust="spacing" textLength="130" x="11" y="146.5332">Interface Adapters</text></g><!--cluster Application Business Rules--><g id="cluster_Application Business Rules"><path d="M141.5,254 L333.5,254 A3.75,3.75 0 0 1 336,256.5 L343,277.6094 L343.5,277.6094 A2.5,2.5 0 0 1 346,280.1094 L346,351.5 A2.5,2.5 0 0 1 343.5,354 L141.5,354 A2.5,2.5 0 0 1 139,351.5 L139,256.5 A2.5,2.5 0 0 1 141.5,254 " fill="none" style="stroke:#000000;stroke-width:1.5;"/><line style="stroke:#000000;stroke-width:1.5;" x1="139" x2="343" y1="277.6094" y2="277.6094"/><text fill="#000000" font-family="sans-serif" font-size="14" font-weight="bold" lengthAdjust="spacing" textLength="191" x="143" y="270.5332">Application Business Rules</text></g><!--cluster Enterprise Business Rules--><g id="cluster_Enterprise Business Rules"><path d="M8.5,378 L196.5,378 A3.75,3.75 0 0 1 199,380.5 L206,401.6094 L280.5,401.6094 A2.5,2.5 0 0 1 283,404.1094 L283,475.5 A2.5,2.5 0 0 1 280.5,478 L8.5,478 A2.5,2.5 0 0 1 6,475.5 L6,380.5 A2.5,2.5 0 0 1 8.5,378 " fill="none" style="stroke:#000000;stroke-width:1.5;"/><line style="stroke:#000000;stroke-width:1.5;" x1="6" x2="206" y1="401.6094" y2="401.6094"/><text fill="#000000" font-family="sans-serif" font-size="14" font-weight="bold" lengthAdjust="spacing" textLength="187" x="10" y="394.5332">Enterprise Business Rules</text></g><!--entity Database--><g id="elem_Database"><rect fill="#F1F1F1" height="47.6094" rx="2.5" ry="2.5" style="stroke:#181818;stroke-width:0.5;" width="101" x="41.5" y="42"/><rect fill="#F1F1F1" height="10" style="stroke:#181818;stroke-width:0.5;" width="15" x="122.5" y="47"/><rect fill="#F1F1F1" height="2" style="stroke:#181818;stroke-width:0.5;" width="4" x="120.5" y="49"/><rect fill="#F1F1F1" height="2" style="stroke:#181818;stroke-width:0.5;" width="4" x="120.5" y="53"/><text fill="#000000" font-family="sans-serif" font-size="14" lengthAdjust="spacing" textLength="61" x="56.5" y="76.5332">Database</text></g><!--entity Routing--><g id="elem_Routing"><rect fill="#F1F1F1" height="47.6094" rx="2.5" ry="2.5" style="stroke:#181818;stroke-width:0.5;" width="89" x="177.5" y="42"/><rect fill="#F1F1F1" height="10" style="stroke:#181818;stroke-width:0.5;" width="15" x="246.5" y="47"/><rect fill="#F1F1F1" height="2" style="stroke:#181818;stroke-width:0.5;" width="4" x="244.5" y="49"/><rect fill="#F1F1F1" height="2" style="stroke:#181818;stroke-width:0.5;" width="4" x="244.5" y="53"/><text fill="#000000" font-family="sans-serif" font-size="14" lengthAdjust="spacing" textLength="49" x="192.5" y="76.5332">Routing</text></g><!--entity Repositories--><g id="elem_Repositories"><rect fill="#F1F1F1" height="47.6094" rx="2.5" ry="2.5" style="stroke:#181818;stroke-width:0.5;" width="119" x="23.5" y="166"/><rect fill="#F1F1F1" height="10" style="stroke:#181818;stroke-width:0.5;" width="15" x="122.5" y="171"/><rect fill="#F1F1F1" height="2" style="stroke:#181818;stroke-width:0.5;" width="4" x="120.5" y="173"/><rect fill="#F1F1F1" height="2" style="stroke:#181818;stroke-width:0.5;" width="4" x="120.5" y="177"/><text fill="#000000" font-family="sans-serif" font-size="14" lengthAdjust="spacing" textLength="79" x="38.5" y="200.5332">Repositories</text></g><!--entity Controllers--><g id="elem_Controllers"><rect fill="#F1F1F1" height="47.6094" rx="2.5" ry="2.5" style="stroke:#181818;stroke-width:0.5;" width="109" x="177.5" y="166"/><rect fill="#F1F1F1" height="10" style="stroke:#181818;stroke-width:0.5;" width="15" x="266.5" y="171"/><rect fill="#F1F1F1" height="2" style="stroke:#181818;stroke-width:0.5;" width="4" x="264.5" y="173"/><rect fill="#F1F1F1" height="2" style="stroke:#181818;stroke-width:0.5;" width="4" x="264.5" y="177"/><text fill="#000000" font-family="sans-serif" font-size="14" lengthAdjust="spacing" textLength="69" x="192.5" y="200.5332">Controllers</text></g><!--entity Services--><g id="elem_Services"><rect fill="#F1F1F1" height="47.6094" rx="2.5" ry="2.5" style="stroke:#181818;stroke-width:0.5;" width="94" x="176" y="290"/><rect fill="#F1F1F1" height="10" style="stroke:#181818;stroke-width:0.5;" width="15" x="250" y="295"/><rect fill="#F1F1F1" height="2" style="stroke:#181818;stroke-width:0.5;" width="4" x="248" y="297"/><rect fill="#F1F1F1" height="2" style="stroke:#181818;stroke-width:0.5;" width="4" x="248" y="301"/><text fill="#000000" font-family="sans-serif" font-size="14" lengthAdjust="spacing" textLength="54" x="191" y="324.5332">Services</text></g><!--entity Domain--><g id="elem_Domain"><rect fill="#F1F1F1" height="47.6094" rx="2.5" ry="2.5" style="stroke:#181818;stroke-width:0.5;" width="88" x="179" y="414"/><rect fill="#F1F1F1" height="10" style="stroke:#181818;stroke-width:0.5;" width="15" x="247" y="419"/><rect fill="#F1F1F1" height="2" style="stroke:#181818;stroke-width:0.5;" width="4" x="245" y="421"/><rect fill="#F1F1F1" height="2" style="stroke:#181818;stroke-width:0.5;" width="4" x="245" y="425"/><text fill="#000000" font-family="sans-serif" font-size="14" lengthAdjust="spacing" textLength="48" x="194" y="448.5332">Domain</text></g><!--entity IRepositories--><g id="elem_IRepositories"><rect fill="#F1F1F1" height="47.6094" rx="2.5" ry="2.5" style="stroke:#181818;stroke-width:0.5;" width="122" x="22" y="414"/><rect fill="#F1F1F1" height="10" style="stroke:#181818;stroke-width:0.5;" width="15" x="124" y="419"/><rect fill="#F1F1F1" height="2" style="stroke:#181818;stroke-width:0.5;" width="4" x="122" y="421"/><rect fill="#F1F1F1" height="2" style="stroke:#181818;stroke-width:0.5;" width="4" x="122" y="425"/><text fill="#000000" font-family="sans-serif" font-size="14" lengthAdjust="spacing" textLength="82" x="37" y="448.5332">IRepositories</text></g><!--link Routing to Controllers--><g id="link_Routing_Controllers"><path d="M223.9,90.23 C225.68,111.94 227.8418,138.1899 229.6118,159.8699 " fill="none" id="Routing-to-Controllers" style="stroke:#181818;stroke-width:1.0;stroke-dasharray:7.0,7.0;"/><polygon fill="#181818" points="230.1,165.85,233.3544,156.5544,229.6931,160.8666,225.3809,157.2053,230.1,165.85" style="stroke:#181818;stroke-width:1.0;"/></g><!--reverse link Database to Repositories--><g id="link_Database_Repositories"><path d="M89.8463,96.2136 C88.2363,117.9236 86.31,144.17 84.71,165.85 " fill="none" id="Database-backto-Repositories" style="stroke:#181818;stroke-width:1.0;stroke-dasharray:7.0,7.0;"/><polygon fill="#181818" points="90.29,90.23,85.6353,98.9095,89.9202,95.2163,93.6134,99.5012,90.29,90.23" style="stroke:#181818;stroke-width:1.0;"/></g><!--link Controllers to Services--><g id="link_Controllers_Services"><path d="M230.29,214.23 C228.68,235.94 226.7516,262.1863 225.1516,283.8663 " fill="none" id="Controllers-to-Services" style="stroke:#181818;stroke-width:1.0;stroke-dasharray:7.0,7.0;"/><polygon fill="#181818" points="224.71,289.85,229.3616,281.1688,225.078,284.8636,221.3833,280.58,224.71,289.85" style="stroke:#181818;stroke-width:1.0;"/></g><!--link Services to Domain--><g id="link_Services_Domain"><path d="M223,338.23 C223,359.94 223,386.17 223,407.85 " fill="none" id="Services-to-Domain" style="stroke:#181818;stroke-width:1.0;stroke-dasharray:7.0,7.0;"/><polygon fill="#181818" points="223,413.85,227,404.85,223,408.85,219,404.85,223,413.85" style="stroke:#181818;stroke-width:1.0;"/></g><!--link Services to IRepositories--><g id="link_Services_IRepositories"><path d="M196.34,338.23 C171.43,359.94 138.9636,388.2282 114.0836,409.9082 " fill="none" id="Services-to-IRepositories" style="stroke:#181818;stroke-width:1.0;stroke-dasharray:7.0,7.0;"/><polygon fill="#181818" points="109.56,413.85,118.9732,410.9531,113.3296,410.5652,113.7175,404.9217,109.56,413.85" style="stroke:#181818;stroke-width:1.0;"/></g><!--link Repositories to IRepositories--><g id="link_Repositories_IRepositories"><path d="M83,214.14 C83,261.03 83,348.76 83,395.74 " fill="none" id="Repositories-to-IRepositories" style="stroke:#181818;stroke-width:1.0;stroke-dasharray:7.0,7.0;"/><polygon fill="none" points="83,413.74,89,395.74,77,395.74,83,413.74" style="stroke:#181818;stroke-width:1.0;"/></g><!--SRC=[XO_DJiCm48JlUOfL3t32kIE4L4YHUWrFiBXBMDNnMlQc781tnutw4vi3bdpmZ6Q-yUs7QaZtRHiSUfr6PwoCRRv1F7czsp4E4SScdu1sZmF1wYKBz2bnd-06kiW7Yca5NmtaSqb2XuflcAYIUvcK_T3yB1ktNYc-eoLOxp3eiQ-kwob8OfN8b2hhMRn6SIx7vjeJ0envBBpp8dWmfkoxBbc7uDYYidXucX9xIWdwoT7VHQyK3snfPYumC_RYNPitnp-6o9d_Jt4d8xAln6qnE2FFY9btYXHQcLW-ilrT-xy0]--></g></svg>