<?xml version="1.0" encoding="us-ascii" standalone="no"?><svg xmlns="http://www.w3.org/2000/svg" xmlns:xlink="http://www.w3.org/1999/xlink" contentStyleType="text/css" height="618px" preserveAspectRatio="none" style="width:1124px;height:618px;background:#FFFFFF;" version="1.1" viewBox="0 0 1124 618" width="1124px" zoomAndPan="magnify"><defs/><g><text fill="#000000" font-family="sans-serif" font-size="14" font-weight="bold" lengthAdjust="spacing" textLength="236" x="443.25" y="29.5332">Sequence Diagram:  POST Level 3</text><rect fill="#FFFFFF" height="477.625" style="stroke:#181818;stroke-width:1.0;" width="10" x="86" y="86.2188"/><rect fill="#FFFFFF" height="424.9219" style="stroke:#181818;stroke-width:1.0;" width="10" x="263" y="108.5703"/><rect fill="#FFFFFF" height="364.2188" style="stroke:#181818;stroke-width:1.0;" width="10" x="409.5" y="138.9219"/><rect fill="#FFFFFF" height="303.5156" style="stroke:#181818;stroke-width:1.0;" width="10" x="541.5" y="169.2734"/><rect fill="#FFFFFF" height="151.7578" style="stroke:#181818;stroke-width:1.0;" width="10" x="658" y="229.9766"/><rect fill="#FFFFFF" height="30.3516" style="stroke:#181818;stroke-width:1.0;" width="10" x="747.5" y="412.0859"/><rect fill="#FFFFFF" height="91.0547" style="stroke:#181818;stroke-width:1.0;" width="10" x="898.5" y="260.3281"/><rect fill="#FFFFFF" height="30.3516" style="stroke:#181818;stroke-width:1.0;" width="10" x="1035.5" y="290.6797"/><line style="stroke:#181818;stroke-width:0.5;stroke-dasharray:5.0,5.0;" x1="91" x2="91" y1="76.2188" y2="581.8438"/><line style="stroke:#181818;stroke-width:0.5;stroke-dasharray:5.0,5.0;" x1="268" x2="268" y1="76.2188" y2="581.8438"/><line style="stroke:#181818;stroke-width:0.5;stroke-dasharray:5.0,5.0;" x1="414" x2="414" y1="76.2188" y2="581.8438"/><line style="stroke:#181818;stroke-width:0.5;stroke-dasharray:5.0,5.0;" x1="546.5" x2="546.5" y1="76.2188" y2="581.8438"/><line style="stroke:#181818;stroke-width:0.5;stroke-dasharray:5.0,5.0;" x1="662.5" x2="662.5" y1="76.2188" y2="581.8438"/><line style="stroke:#181818;stroke-width:0.5;stroke-dasharray:5.0,5.0;" x1="752.5" x2="752.5" y1="76.2188" y2="581.8438"/><line style="stroke:#181818;stroke-width:0.5;stroke-dasharray:5.0,5.0;" x1="824.5" x2="824.5" y1="76.2188" y2="581.8438"/><line style="stroke:#181818;stroke-width:0.5;stroke-dasharray:5.0,5.0;" x1="903.5" x2="903.5" y1="76.2188" y2="581.8438"/><line style="stroke:#181818;stroke-width:0.5;stroke-dasharray:5.0,5.0;" x1="1040.5" x2="1040.5" y1="76.2188" y2="581.8438"/><rect fill="#E3E3E3" height="31.6094" rx="2.5" ry="2.5" style="stroke:#181818;stroke-width:0.5;" width="172" x="5" y="43.6094"/><text fill="#000000" font-family="sans-serif" font-size="14" lengthAdjust="spacing" textLength="158" x="12" y="65.1426">Frontend (React, Refine)</text><rect fill="#E3E3E3" height="31.6094" rx="2.5" ry="2.5" style="stroke:#181818;stroke-width:0.5;" width="172" x="5" y="580.8438"/><text fill="#000000" font-family="sans-serif" font-size="14" lengthAdjust="spacing" textLength="158" x="12" y="602.377">Frontend (React, Refine)</text><rect fill="#E3E3E3" height="31.6094" rx="2.5" ry="2.5" style="stroke:#181818;stroke-width:0.5;" width="162" x="187" y="43.6094"/><text fill="#000000" font-family="sans-serif" font-size="14" lengthAdjust="spacing" textLength="148" x="194" y="65.1426">EnergyManagementAPI</text><rect fill="#E3E3E3" height="31.6094" rx="2.5" ry="2.5" style="stroke:#181818;stroke-width:0.5;" width="162" x="187" y="580.8438"/><text fill="#000000" font-family="sans-serif" font-size="14" lengthAdjust="spacing" textLength="148" x="194" y="602.377">EnergyManagementAPI</text><rect fill="#E3E3E3" height="31.6094" rx="2.5" ry="2.5" style="stroke:#181818;stroke-width:0.5;" width="111" x="359" y="43.6094"/><text fill="#000000" font-family="sans-serif" font-size="14" lengthAdjust="spacing" textLength="97" x="366" y="65.1426">EntityController</text><rect fill="#E3E3E3" height="31.6094" rx="2.5" ry="2.5" style="stroke:#181818;stroke-width:0.5;" width="111" x="359" y="580.8438"/><text fill="#000000" font-family="sans-serif" font-size="14" lengthAdjust="spacing" textLength="97" x="366" y="602.377">EntityController</text><rect fill="#E3E3E3" height="31.6094" rx="2.5" ry="2.5" style="stroke:#181818;stroke-width:0.5;" width="130" x="481.5" y="43.6094"/><text fill="#000000" font-family="sans-serif" font-size="14" lengthAdjust="spacing" textLength="116" x="488.5" y="65.1426">ApplicationService</text><rect fill="#E3E3E3" height="31.6094" rx="2.5" ry="2.5" style="stroke:#181818;stroke-width:0.5;" width="130" x="481.5" y="580.8438"/><text fill="#000000" font-family="sans-serif" font-size="14" lengthAdjust="spacing" textLength="116" x="488.5" y="602.377">ApplicationService</text><rect fill="#E3E3E3" height="31.6094" rx="2.5" ry="2.5" style="stroke:#181818;stroke-width:0.5;" width="83" x="621.5" y="43.6094"/><text fill="#000000" font-family="sans-serif" font-size="14" lengthAdjust="spacing" textLength="69" x="628.5" y="65.1426">EntityRepo</text><rect fill="#E3E3E3" height="31.6094" rx="2.5" ry="2.5" style="stroke:#181818;stroke-width:0.5;" width="83" x="621.5" y="580.8438"/><text fill="#000000" font-family="sans-serif" font-size="14" lengthAdjust="spacing" textLength="69" x="628.5" y="602.377">EntityRepo</text><rect fill="#E3E3E3" height="31.6094" rx="2.5" ry="2.5" style="stroke:#181818;stroke-width:0.5;" width="76" x="714.5" y="43.6094"/><text fill="#000000" font-family="sans-serif" font-size="14" lengthAdjust="spacing" textLength="62" x="721.5" y="65.1426">EntityMap</text><rect fill="#E3E3E3" height="31.6094" rx="2.5" ry="2.5" style="stroke:#181818;stroke-width:0.5;" width="76" x="714.5" y="580.8438"/><text fill="#000000" font-family="sans-serif" font-size="14" lengthAdjust="spacing" textLength="62" x="721.5" y="602.377">EntityMap</text><rect fill="#E3E3E3" height="31.6094" rx="2.5" ry="2.5" style="stroke:#181818;stroke-width:0.5;" width="49" x="800.5" y="43.6094"/><text fill="#000000" font-family="sans-serif" font-size="14" lengthAdjust="spacing" textLength="35" x="807.5" y="65.1426">Entity</text><rect fill="#E3E3E3" height="31.6094" rx="2.5" ry="2.5" style="stroke:#181818;stroke-width:0.5;" width="49" x="800.5" y="580.8438"/><text fill="#000000" font-family="sans-serif" font-size="14" lengthAdjust="spacing" textLength="35" x="807.5" y="602.377">Entity</text><rect fill="#E3E3E3" height="31.6094" rx="2.5" ry="2.5" style="stroke:#181818;stroke-width:0.5;" width="88" x="859.5" y="43.6094"/><text fill="#000000" font-family="sans-serif" font-size="14" lengthAdjust="spacing" textLength="74" x="866.5" y="65.1426">Persistence</text><rect fill="#E3E3E3" height="31.6094" rx="2.5" ry="2.5" style="stroke:#181818;stroke-width:0.5;" width="88" x="859.5" y="580.8438"/><text fill="#000000" font-family="sans-serif" font-size="14" lengthAdjust="spacing" textLength="74" x="866.5" y="602.377">Persistence</text><rect fill="#E3E3E3" height="31.6094" rx="2.5" ry="2.5" style="stroke:#181818;stroke-width:0.5;" width="156" x="962.5" y="43.6094"/><text fill="#000000" font-family="sans-serif" font-size="14" lengthAdjust="spacing" textLength="142" x="969.5" y="65.1426">PostgreSQL Database</text><rect fill="#E3E3E3" height="31.6094" rx="2.5" ry="2.5" style="stroke:#181818;stroke-width:0.5;" width="156" x="962.5" y="580.8438"/><text fill="#000000" font-family="sans-serif" font-size="14" lengthAdjust="spacing" textLength="142" x="969.5" y="602.377">PostgreSQL Database</text><rect fill="#FFFFFF" height="477.625" style="stroke:#181818;stroke-width:1.0;" width="10" x="86" y="86.2188"/><rect fill="#FFFFFF" height="424.9219" style="stroke:#181818;stroke-width:1.0;" width="10" x="263" y="108.5703"/><rect fill="#FFFFFF" height="364.2188" style="stroke:#181818;stroke-width:1.0;" width="10" x="409.5" y="138.9219"/><rect fill="#FFFFFF" height="303.5156" style="stroke:#181818;stroke-width:1.0;" width="10" x="541.5" y="169.2734"/><rect fill="#FFFFFF" height="151.7578" style="stroke:#181818;stroke-width:1.0;" width="10" x="658" y="229.9766"/><rect fill="#FFFFFF" height="30.3516" style="stroke:#181818;stroke-width:1.0;" width="10" x="747.5" y="412.0859"/><rect fill="#FFFFFF" height="91.0547" style="stroke:#181818;stroke-width:1.0;" width="10" x="898.5" y="260.3281"/><rect fill="#FFFFFF" height="30.3516" style="stroke:#181818;stroke-width:1.0;" width="10" x="1035.5" y="290.6797"/><polygon fill="#181818" points="251,104.5703,261,108.5703,251,112.5703,255,108.5703" style="stroke:#181818;stroke-width:1.0;"/><line style="stroke:#181818;stroke-width:1.0;" x1="96" x2="257" y1="108.5703" y2="108.5703"/><text fill="#000000" font-family="sans-serif" font-size="13" lengthAdjust="spacing" textLength="112" x="103" y="103.7139">POST /entity {data}</text><polygon fill="#181818" points="397.5,134.9219,407.5,138.9219,397.5,142.9219,401.5,138.9219" style="stroke:#181818;stroke-width:1.0;"/><line style="stroke:#181818;stroke-width:1.0;" x1="273" x2="403.5" y1="138.9219" y2="138.9219"/><text fill="#000000" font-family="sans-serif" font-size="13" lengthAdjust="spacing" textLength="35" x="280" y="134.0654">POST</text><polygon fill="#181818" points="529.5,165.2734,539.5,169.2734,529.5,173.2734,533.5,169.2734" style="stroke:#181818;stroke-width:1.0;"/><line style="stroke:#181818;stroke-width:1.0;" x1="419.5" x2="535.5" y1="169.2734" y2="169.2734"/><text fill="#000000" font-family="sans-serif" font-size="13" lengthAdjust="spacing" textLength="103" x="426.5" y="164.417">createEntity(data)</text><polygon fill="#181818" points="813,195.625,823,199.625,813,203.625,817,199.625" style="stroke:#181818;stroke-width:1.0;"/><line style="stroke:#181818;stroke-width:1.0;" x1="551.5" x2="819" y1="199.625" y2="199.625"/><text fill="#000000" font-family="sans-serif" font-size="13" lengthAdjust="spacing" textLength="36" x="558.5" y="194.7686">create</text><polygon fill="#181818" points="646,225.9766,656,229.9766,646,233.9766,650,229.9766" style="stroke:#181818;stroke-width:1.0;"/><line style="stroke:#181818;stroke-width:1.0;" x1="551.5" x2="652" y1="229.9766" y2="229.9766"/><text fill="#000000" font-family="sans-serif" font-size="13" lengthAdjust="spacing" textLength="66" x="558.5" y="225.1201">save(entity)</text><polygon fill="#181818" points="886.5,256.3281,896.5,260.3281,886.5,264.3281,890.5,260.3281" style="stroke:#181818;stroke-width:1.0;"/><line style="stroke:#181818;stroke-width:1.0;" x1="668" x2="892.5" y1="260.3281" y2="260.3281"/><text fill="#000000" font-family="sans-serif" font-size="13" lengthAdjust="spacing" textLength="106" x="675" y="255.4717">Persist entity data</text><polygon fill="#181818" points="1023.5,286.6797,1033.5,290.6797,1023.5,294.6797,1027.5,290.6797" style="stroke:#181818;stroke-width:1.0;"/><line style="stroke:#181818;stroke-width:1.0;" x1="908.5" x2="1029.5" y1="290.6797" y2="290.6797"/><text fill="#000000" font-family="sans-serif" font-size="13" lengthAdjust="spacing" textLength="108" x="915.5" y="285.8232">Insert entity record</text><polygon fill="#181818" points="919.5,317.0313,909.5,321.0313,919.5,325.0313,915.5,321.0313" style="stroke:#181818;stroke-width:1.0;"/><line style="stroke:#181818;stroke-width:1.0;stroke-dasharray:2.0,2.0;" x1="913.5" x2="1039.5" y1="321.0313" y2="321.0313"/><text fill="#000000" font-family="sans-serif" font-size="13" lengthAdjust="spacing" textLength="97" x="925.5" y="316.1748">Confirm insertion</text><polygon fill="#181818" points="679,347.3828,669,351.3828,679,355.3828,675,351.3828" style="stroke:#181818;stroke-width:1.0;"/><line style="stroke:#181818;stroke-width:1.0;stroke-dasharray:2.0,2.0;" x1="673" x2="902.5" y1="351.3828" y2="351.3828"/><text fill="#000000" font-family="sans-serif" font-size="13" lengthAdjust="spacing" textLength="91" x="685" y="346.5264">Return success</text><polygon fill="#181818" points="562.5,377.7344,552.5,381.7344,562.5,385.7344,558.5,381.7344" style="stroke:#181818;stroke-width:1.0;"/><line style="stroke:#181818;stroke-width:1.0;stroke-dasharray:2.0,2.0;" x1="556.5" x2="662" y1="381.7344" y2="381.7344"/><text fill="#000000" font-family="sans-serif" font-size="13" lengthAdjust="spacing" textLength="32" x="568.5" y="376.8779">entity</text><polygon fill="#181818" points="735.5,408.0859,745.5,412.0859,735.5,416.0859,739.5,412.0859" style="stroke:#181818;stroke-width:1.0;"/><line style="stroke:#181818;stroke-width:1.0;" x1="551.5" x2="741.5" y1="412.0859" y2="412.0859"/><text fill="#000000" font-family="sans-serif" font-size="13" lengthAdjust="spacing" textLength="77" x="558.5" y="407.2295">toDTO(entity)</text><polygon fill="#181818" points="562.5,438.4375,552.5,442.4375,562.5,446.4375,558.5,442.4375" style="stroke:#181818;stroke-width:1.0;"/><line style="stroke:#181818;stroke-width:1.0;" x1="556.5" x2="751.5" y1="442.4375" y2="442.4375"/><text fill="#000000" font-family="sans-serif" font-size="13" lengthAdjust="spacing" textLength="58" x="568.5" y="437.5811">entityDTO</text><polygon fill="#181818" points="430.5,468.7891,420.5,472.7891,430.5,476.7891,426.5,472.7891" style="stroke:#181818;stroke-width:1.0;"/><line style="stroke:#181818;stroke-width:1.0;" x1="424.5" x2="545.5" y1="472.7891" y2="472.7891"/><text fill="#000000" font-family="sans-serif" font-size="13" lengthAdjust="spacing" textLength="58" x="436.5" y="467.9326">entityDTO</text><polygon fill="#181818" points="284,499.1406,274,503.1406,284,507.1406,280,503.1406" style="stroke:#181818;stroke-width:1.0;"/><line style="stroke:#181818;stroke-width:1.0;" x1="278" x2="413.5" y1="503.1406" y2="503.1406"/><text fill="#000000" font-family="sans-serif" font-size="13" lengthAdjust="spacing" textLength="95" x="290" y="498.2842">Status code 201</text><polygon fill="#181818" points="107,529.4922,97,533.4922,107,537.4922,103,533.4922" style="stroke:#181818;stroke-width:1.0;"/><line style="stroke:#181818;stroke-width:1.0;" x1="101" x2="267" y1="533.4922" y2="533.4922"/><text fill="#000000" font-family="sans-serif" font-size="13" lengthAdjust="spacing" textLength="51" x="113" y="528.6357">Success</text><polygon fill="#181818" points="1111.5,559.8438,1121.5,563.8438,1111.5,567.8438,1115.5,563.8438" style="stroke:#181818;stroke-width:1.0;"/><line style="stroke:#181818;stroke-width:1.0;stroke-dasharray:2.0,2.0;" x1="91" x2="1117.5" y1="563.8438" y2="563.8438"/><text fill="#000000" font-family="sans-serif" font-size="13" lengthAdjust="spacing" textLength="96" x="98" y="558.9873">Display success</text><!--SRC=[RPJ1Rjim38RlVWgYfnHOqQsxvJ0WhJkWG8DwSL-0anbNg2Dv4fqY6FRkeoGtbbiV3ClWzrFKhn_shzhqwF00MskiUd7sGC1keCAVAnMgLsofvbD7u4WnchRBWVe56_kcJGjxx3mL1MiMjAO_0nb5K6fiXLi3L4_rCppIaJhuNXIYPgrqZuRXugUpXiaqiDeHAlu2EzfhGvSNW1xgQZEdxmsvzhH58uCToF2cUeYWl3-2CipfJdexstNa8ZLzpk5DttTQ8MjhQd97hIZjdjPBZNVKsyY4nHAmnJxMvRrKZhMqd9ShSbvx3lv59dn_8Apdrb7zwn5APFoDFf7bRL68WVg8JD4uUU3gHx06rka6hYdk27yR4VwRwE1Um8IUB1f54vMvbr6Y6NqIWN8aP3hNAcnocOqqklbEYp21PrrU2hvAmUEHLcdgh5KqFH921eV2hCau68yODfy4qSK8Yg2y5Vp1U79dMj9jNJFnugLGLrDtEV1UkmFeA9ES50tbTEezpRqZ7fm1FoX5tkTm72NDFhCkJPAJyPIP9H8buTYMpq-VBGav2y12J-7pje7CkiukV57mVd7pIq-ngXbvyA1iGt3pzLiko-8oPYi4KYIVFGdvYsaLQ2s_3TztU5eoByJwFm00]--></g></svg>