<?xml version="1.0" encoding="us-ascii" standalone="no"?><svg xmlns="http://www.w3.org/2000/svg" xmlns:xlink="http://www.w3.org/1999/xlink" contentStyleType="text/css" height="804px" preserveAspectRatio="none" style="width:1142px;height:804px;background:#FFFFFF;" version="1.1" viewBox="0 0 1142 804" width="1142px" zoomAndPan="magnify"><defs/><g><!--cluster Client Machine--><g id="cluster_Client Machine"><polygon fill="none" points="82,145,92,135,677,135,677,235,667,245,82,245,82,145" style="stroke:#181818;stroke-width:1.0;"/><line style="stroke:#181818;stroke-width:1.0;" x1="667" x2="677" y1="145" y2="135"/><line style="stroke:#181818;stroke-width:1.0;" x1="82" x2="667" y1="145" y2="145"/><line style="stroke:#181818;stroke-width:1.0;" x1="667" x2="667" y1="145" y2="245"/><text fill="#000000" font-family="sans-serif" font-size="14" font-weight="bold" lengthAdjust="spacing" textLength="105" x="323" y="162.5332">Client Machine</text></g><!--cluster Frontend Server :5137--><g id="cluster_Frontend Server :5137"><polygon fill="none" points="66.5,279,76.5,269,718.5,269,718.5,364,708.5,374,66.5,374,66.5,279" style="stroke:#181818;stroke-width:1.0;"/><line style="stroke:#181818;stroke-width:1.0;" x1="708.5" x2="718.5" y1="279" y2="269"/><line style="stroke:#181818;stroke-width:1.0;" x1="66.5" x2="708.5" y1="279" y2="279"/><line style="stroke:#181818;stroke-width:1.0;" x1="708.5" x2="708.5" y1="279" y2="374"/><text fill="#000000" font-family="sans-serif" font-size="14" font-weight="bold" lengthAdjust="spacing" textLength="157" x="310" y="296.5332">Frontend Server :5137</text></g><!--cluster Backend Server :4000--><g id="cluster_Backend Server :4000"><polygon fill="none" points="71.5,408,81.5,398,695,398,695,659,685,669,71.5,669,71.5,408" style="stroke:#181818;stroke-width:1.0;"/><line style="stroke:#181818;stroke-width:1.0;" x1="685" x2="695" y1="408" y2="398"/><line style="stroke:#181818;stroke-width:1.0;" x1="71.5" x2="685" y1="408" y2="408"/><line style="stroke:#181818;stroke-width:1.0;" x1="685" x2="685" y1="408" y2="669"/><text fill="#000000" font-family="sans-serif" font-size="14" font-weight="bold" lengthAdjust="spacing" textLength="153" x="302.75" y="425.5332">Backend Server :4000</text></g><!--cluster Optimization Server :8000--><g id="cluster_Optimization Server :8000"><polygon fill="none" points="16,16,26,6,271,6,271,101,261,111,16,111,16,16" style="stroke:#181818;stroke-width:1.0;"/><line style="stroke:#181818;stroke-width:1.0;" x1="261" x2="271" y1="16" y2="6"/><line style="stroke:#181818;stroke-width:1.0;" x1="16" x2="261" y1="16" y2="16"/><line style="stroke:#181818;stroke-width:1.0;" x1="261" x2="261" y1="16" y2="111"/><text fill="#000000" font-family="sans-serif" font-size="14" font-weight="bold" lengthAdjust="spacing" textLength="179" x="50" y="33.5332">Optimization Server :8000</text></g><!--entity Browser--><g id="elem_Browser"><rect fill="#F1F1F1" height="47.6094" rx="2.5" ry="2.5" style="stroke:#181818;stroke-width:0.5;" width="91" x="98" y="176"/><rect fill="#F1F1F1" height="10" style="stroke:#181818;stroke-width:0.5;" width="15" x="169" y="181"/><rect fill="#F1F1F1" height="2" style="stroke:#181818;stroke-width:0.5;" width="4" x="167" y="183"/><rect fill="#F1F1F1" height="2" style="stroke:#181818;stroke-width:0.5;" width="4" x="167" y="187"/><text fill="#000000" font-family="sans-serif" font-size="14" lengthAdjust="spacing" textLength="51" x="113" y="210.5332">Browser</text></g><!--entity Frontend Server--><g id="elem_Frontend Server"><rect fill="#F1F1F1" height="47.6094" rx="2.5" ry="2.5" style="stroke:#181818;stroke-width:0.5;" width="144" x="517" y="176"/><rect fill="#F1F1F1" height="10" style="stroke:#181818;stroke-width:0.5;" width="15" x="641" y="181"/><rect fill="#F1F1F1" height="2" style="stroke:#181818;stroke-width:0.5;" width="4" x="639" y="183"/><rect fill="#F1F1F1" height="2" style="stroke:#181818;stroke-width:0.5;" width="4" x="639" y="187"/><text fill="#000000" font-family="sans-serif" font-size="14" lengthAdjust="spacing" textLength="104" x="532" y="210.5332">Frontend Server</text></g><!--entity HTTP Server--><g id="elem_HTTP Server"><rect fill="#F1F1F1" height="47.6094" rx="2.5" ry="2.5" style="stroke:#181818;stroke-width:0.5;" width="122" x="82.5" y="310"/><rect fill="#F1F1F1" height="10" style="stroke:#181818;stroke-width:0.5;" width="15" x="184.5" y="315"/><rect fill="#F1F1F1" height="2" style="stroke:#181818;stroke-width:0.5;" width="4" x="182.5" y="317"/><rect fill="#F1F1F1" height="2" style="stroke:#181818;stroke-width:0.5;" width="4" x="182.5" y="321"/><text fill="#000000" font-family="sans-serif" font-size="14" lengthAdjust="spacing" textLength="82" x="97.5" y="344.5332">HTTP Server</text></g><!--entity Frontend App (React, Refine)--><g id="elem_Frontend App (React, Refine)"><rect fill="#F1F1F1" height="47.6094" rx="2.5" ry="2.5" style="stroke:#181818;stroke-width:0.5;" width="227" x="475.5" y="310"/><rect fill="#F1F1F1" height="10" style="stroke:#181818;stroke-width:0.5;" width="15" x="682.5" y="315"/><rect fill="#F1F1F1" height="2" style="stroke:#181818;stroke-width:0.5;" width="4" x="680.5" y="317"/><rect fill="#F1F1F1" height="2" style="stroke:#181818;stroke-width:0.5;" width="4" x="680.5" y="321"/><text fill="#000000" font-family="sans-serif" font-size="14" lengthAdjust="spacing" textLength="187" x="490.5" y="344.5332">Frontend App (React, Refine)</text></g><!--entity Node.js API--><g id="elem_Node.js API"><rect fill="#F1F1F1" height="47.6094" rx="2.5" ry="2.5" style="stroke:#181818;stroke-width:0.5;" width="112" x="87.5" y="605"/><rect fill="#F1F1F1" height="10" style="stroke:#181818;stroke-width:0.5;" width="15" x="179.5" y="610"/><rect fill="#F1F1F1" height="2" style="stroke:#181818;stroke-width:0.5;" width="4" x="177.5" y="612"/><rect fill="#F1F1F1" height="2" style="stroke:#181818;stroke-width:0.5;" width="4" x="177.5" y="616"/><text fill="#000000" font-family="sans-serif" font-size="14" lengthAdjust="spacing" textLength="72" x="102.5" y="639.5332">Node.js API</text></g><!--entity Authentication Module--><g id="elem_Authentication Module"><rect fill="#F1F1F1" height="47.6094" rx="2.5" ry="2.5" style="stroke:#181818;stroke-width:0.5;" width="180" x="499" y="605"/><rect fill="#F1F1F1" height="10" style="stroke:#181818;stroke-width:0.5;" width="15" x="659" y="610"/><rect fill="#F1F1F1" height="2" style="stroke:#181818;stroke-width:0.5;" width="4" x="657" y="612"/><rect fill="#F1F1F1" height="2" style="stroke:#181818;stroke-width:0.5;" width="4" x="657" y="616"/><text fill="#000000" font-family="sans-serif" font-size="14" lengthAdjust="spacing" textLength="140" x="514" y="639.5332">Authentication Module</text></g><!--entity Energy Management--><g id="elem_Energy Management"><rect fill="#F1F1F1" height="47.6094" rx="2.5" ry="2.5" style="stroke:#181818;stroke-width:0.5;" width="171" x="503.5" y="522"/><rect fill="#F1F1F1" height="10" style="stroke:#181818;stroke-width:0.5;" width="15" x="654.5" y="527"/><rect fill="#F1F1F1" height="2" style="stroke:#181818;stroke-width:0.5;" width="4" x="652.5" y="529"/><rect fill="#F1F1F1" height="2" style="stroke:#181818;stroke-width:0.5;" width="4" x="652.5" y="533"/><text fill="#000000" font-family="sans-serif" font-size="14" lengthAdjust="spacing" textLength="131" x="518.5" y="556.5332">Energy Management</text></g><!--entity Optimization Server--><g id="elem_Optimization Server"><rect fill="#F1F1F1" height="47.6094" rx="2.5" ry="2.5" style="stroke:#181818;stroke-width:0.5;" width="163" x="507.5" y="439"/><rect fill="#F1F1F1" height="10" style="stroke:#181818;stroke-width:0.5;" width="15" x="650.5" y="444"/><rect fill="#F1F1F1" height="2" style="stroke:#181818;stroke-width:0.5;" width="4" x="648.5" y="446"/><rect fill="#F1F1F1" height="2" style="stroke:#181818;stroke-width:0.5;" width="4" x="648.5" y="450"/><text fill="#000000" font-family="sans-serif" font-size="14" lengthAdjust="spacing" textLength="123" x="522.5" y="473.5332">Optimization Server</text></g><!--entity Optimizer (Python/R)--><g id="elem_Optimizer (Python/R)"><rect fill="#F1F1F1" height="47.6094" rx="2.5" ry="2.5" style="stroke:#181818;stroke-width:0.5;" width="171" x="58" y="47"/><rect fill="#F1F1F1" height="10" style="stroke:#181818;stroke-width:0.5;" width="15" x="209" y="52"/><rect fill="#F1F1F1" height="2" style="stroke:#181818;stroke-width:0.5;" width="4" x="207" y="54"/><rect fill="#F1F1F1" height="2" style="stroke:#181818;stroke-width:0.5;" width="4" x="207" y="58"/><text fill="#000000" font-family="sans-serif" font-size="14" lengthAdjust="spacing" textLength="131" x="73" y="81.5332">Optimizer (Python/R)</text></g><!--entity PostgreSQL Database--><g id="elem_PostgreSQL Database"><path d="M508,698.5 C508,688.5 589,688.5 589,688.5 C589,688.5 670,688.5 670,698.5 L670,725.1094 C670,735.1094 589,735.1094 589,735.1094 C589,735.1094 508,735.1094 508,725.1094 L508,698.5 " fill="#F1F1F1" style="stroke:#181818;stroke-width:0.5;"/><path d="M508,698.5 C508,708.5 589,708.5 589,708.5 C589,708.5 670,708.5 670,698.5 " fill="none" style="stroke:#181818;stroke-width:0.5;"/><text fill="#000000" font-family="sans-serif" font-size="14" lengthAdjust="spacing" textLength="142" x="518" y="727.0332">PostgreSQL Database</text></g><g id="elem_GMN22"><path d="M793,321 L793,330 L702.67,334 L793,338 L793,347.3516 A0,0 0 0 0 793,347.3516 L1135,347.3516 A0,0 0 0 0 1135,347.3516 L1135,331 L1125,321 L793,321 A0,0 0 0 0 793,321 " fill="#FAFAFA" style="stroke:#181818;stroke-width:0.5;"/><path d="M1125,321 L1125,331 L1135,331 L1125,321 " fill="#FAFAFA" style="stroke:#181818;stroke-width:0.5;"/><text fill="#000000" font-family="sans-serif" font-size="13" lengthAdjust="spacing" textLength="321" x="799" y="339.4951">Serves UI for users, admins, and community managers.</text></g><g id="elem_GMN25"><path d="M446,771 L446,797.3516 L732,797.3516 L732,781 L722,771 L446,771 " fill="#FAFAFA" style="stroke:#181818;stroke-width:0.5;"/><path d="M722,771 L722,781 L732,781 L722,771 " fill="#FAFAFA" style="stroke:#181818;stroke-width:1.0;"/><text fill="#000000" font-family="sans-serif" font-size="13" lengthAdjust="spacing" textLength="265" x="452" y="789.4951">Handles business logic and API routingplices.</text></g><!--link Browser to Frontend Server--><g id="link_Browser_Frontend Server"><path d="M189.06,200 C266.05,200 418.59,200 510.94,200 " fill="none" id="Browser-to-Frontend Server" style="stroke:#181818;stroke-width:1.0;"/><polygon fill="#181818" points="516.94,200,507.94,196,511.94,200,507.94,204,516.94,200" style="stroke:#181818;stroke-width:1.0;"/><text fill="#000000" font-family="sans-serif" font-size="13" lengthAdjust="spacing" textLength="91" x="306" y="196.4951">HTTP Requests</text></g><!--link HTTP Server to Frontend App (React, Refine)--><g id="link_HTTP Server_Frontend App (React, Refine)"><path d="M204.77,334 C274.05,334 383.25,334 469.29,334 " fill="none" id="HTTP Server-to-Frontend App (React, Refine)" style="stroke:#181818;stroke-width:1.0;"/><polygon fill="#181818" points="475.29,334,466.29,330,470.29,334,466.29,338,475.29,334" style="stroke:#181818;stroke-width:1.0;"/></g><!--link Node.js API to Authentication Module--><g id="link_Node.js API_Authentication Module"><path d="M199.77,629 C274.66,629 403.24,629 492.6,629 " fill="none" id="Node.js API-to-Authentication Module" style="stroke:#181818;stroke-width:1.0;"/><polygon fill="#181818" points="498.6,629,489.6,625,493.6,629,489.6,633,498.6,629" style="stroke:#181818;stroke-width:1.0;"/></g><!--link Node.js API to Energy Management--><g id="link_Node.js API_Energy Management"><path d="M199.77,618.66 C275.94,604.4 407.9424,579.6937 497.2324,562.9837 " fill="none" id="Node.js API-to-Energy Management" style="stroke:#181818;stroke-width:1.0;"/><polygon fill="#181818" points="503.13,561.88,493.5478,559.6038,498.2153,562.7997,495.0194,567.4673,503.13,561.88" style="stroke:#181818;stroke-width:1.0;"/></g><!--link Node.js API to PostgreSQL Database--><g id="link_Node.js API_PostgreSQL Database"><path d="M199.77,639.34 C277.33,653.86 413.0123,679.2569 502.0823,695.9169 " fill="none" id="Node.js API-to-PostgreSQL Database" style="stroke:#181818;stroke-width:1.0;"/><polygon fill="#181818" points="507.98,697.02,499.8688,691.4335,503.0652,696.1007,498.398,699.2971,507.98,697.02" style="stroke:#181818;stroke-width:1.0;"/><text fill="#000000" font-family="sans-serif" font-size="13" lengthAdjust="spacing" textLength="75" x="314" y="652.4951">SQL Queries</text></g><!--link Node.js API to Optimization Server--><g id="link_Node.js API_Optimization Server"><path d="M197.45,604.93 C257.11,578.3 357.36,535.06 446,504 C465.61,497.13 481.2686,492.1752 501.3886,486.3252 " fill="none" id="Node.js API-to-Optimization Server" style="stroke:#181818;stroke-width:1.0;"/><polygon fill="#181818" points="507.15,484.65,497.3911,483.3218,502.3488,486.046,499.6247,491.0037,507.15,484.65" style="stroke:#181818;stroke-width:1.0;"/><text fill="#000000" font-family="sans-serif" font-size="13" lengthAdjust="spacing" textLength="127" x="288" y="513.4951">REST API (Port 8000)</text></g><!--link Node.js API to GMN25--><g id="link_Node.js API_GMN25"><path d="M195.23,653.12 C254.34,680.45 355.48,724.85 446,753 C468.65,760.04 493.81,766.09 516.59,770.93 " fill="none" id="Node.js API-GMN25" style="stroke:#181818;stroke-width:1.0;stroke-dasharray:7.0,7.0;"/></g><!--SRC=[XP9FJm8n4CNl-oacd311nQZHS311nK3YdnNmH3ZKxh1RsNRMTgf1utUtXJMWOZnjTlhUR_hUhfihKmahD6Wo90jB6e6jnwJ46GCJM9KN39coA5cHIJB1ub4uX4PAZdEBe_jhkAo7ZIGnb8MpYrAXORWHib066_2U04pEBRqwj5FOtJs3oPKbmsWo6A5zYTCEzCVZ58RuxD6nIpw-O3-Kq3a-E3ofcKlB5-4xjrjLq1oYaDmAq5cunyvq3JqNShx9F6gtspNpDWZsdXnqqq7Dx7ekGXubHUm0RYZp9KwtQti6RRu8qOt8KGVN7xejzSKEulkzHwlGRVVTLQoqUblTPDtTi3SQHnKqKx8Cfo7EpZhj5XDqJjUHw_CmRQOBBiZi3rTbHG1Z_HVGxBzwOGLty3206LdmuNkx5eXCAnEVmIT9QsyKBq0lAx9kBucykEVNjitu0TuFW3BG7xqB-vo3ad8bbzWOtP9dPVAgL18tgPy0]--></g></svg>