<?xml version="1.0" encoding="UTF-8" standalone="no"?><svg xmlns="http://www.w3.org/2000/svg" xmlns:xlink="http://www.w3.org/1999/xlink" contentStyleType="text/css" height="198px" preserveAspectRatio="none" style="width:544px;height:198px;background:#FFFFFF;" version="1.1" viewBox="0 0 544 198" width="544px" zoomAndPan="magnify"><defs/><g><line style="stroke:#181818;stroke-width:0.5;stroke-dasharray:5.0,5.0;" x1="25" x2="25" y1="37.6094" y2="161.6641"/><line style="stroke:#181818;stroke-width:0.5;stroke-dasharray:5.0,5.0;" x1="171" x2="171" y1="37.6094" y2="161.6641"/><rect fill="#E2E2F0" height="31.6094" rx="2.5" ry="2.5" style="stroke:#181818;stroke-width:0.5;" width="41" x="5" y="5"/><text fill="#000000" font-family="sans-serif" font-size="14" lengthAdjust="spacing" textLength="27" x="12" y="26.5332">SPA</text><rect fill="#E2E2F0" height="31.6094" rx="2.5" ry="2.5" style="stroke:#181818;stroke-width:0.5;" width="41" x="5" y="160.6641"/><text fill="#000000" font-family="sans-serif" font-size="14" lengthAdjust="spacing" textLength="27" x="12" y="182.1973">SPA</text><rect fill="#E2E2F0" height="31.6094" rx="2.5" ry="2.5" style="stroke:#181818;stroke-width:0.5;" width="41" x="151" y="5"/><text fill="#000000" font-family="sans-serif" font-size="14" lengthAdjust="spacing" textLength="27" x="158" y="26.5332">APP</text><rect fill="#E2E2F0" height="31.6094" rx="2.5" ry="2.5" style="stroke:#181818;stroke-width:0.5;" width="41" x="151" y="160.6641"/><text fill="#000000" font-family="sans-serif" font-size="14" lengthAdjust="spacing" textLength="27" x="158" y="182.1973">APP</text><polygon fill="#181818" points="159.5,65.9609,169.5,69.9609,159.5,73.9609,163.5,69.9609" style="stroke:#181818;stroke-width:1.0;"/><line style="stroke:#181818;stroke-width:1.0;" x1="25.5" x2="165.5" y1="69.9609" y2="69.9609"/><text fill="#000000" font-family="sans-serif" font-size="13" lengthAdjust="spacing" textLength="122" x="32.5" y="65.1045">1: post(/api/pacients)</text><line style="stroke:#181818;stroke-width:1.0;" x1="171.5" x2="213.5" y1="100.3125" y2="100.3125"/><line style="stroke:#181818;stroke-width:1.0;" x1="213.5" x2="213.5" y1="100.3125" y2="113.3125"/><line style="stroke:#181818;stroke-width:1.0;" x1="172.5" x2="213.5" y1="113.3125" y2="113.3125"/><polygon fill="#181818" points="182.5,109.3125,172.5,113.3125,182.5,117.3125,178.5,113.3125" style="stroke:#181818;stroke-width:1.0;"/><text fill="#000000" font-family="sans-serif" font-size="13" lengthAdjust="spacing" textLength="359" x="178.5" y="95.4561">1.1: Handles request body, creates pacient and saves it to DB</text><polygon fill="#181818" points="36.5,139.6641,26.5,143.6641,36.5,147.6641,32.5,143.6641" style="stroke:#181818;stroke-width:1.0;"/><line style="stroke:#181818;stroke-width:1.0;stroke-dasharray:2.0,2.0;" x1="30.5" x2="170.5" y1="143.6641" y2="143.6641"/><text fill="#000000" font-family="sans-serif" font-size="13" lengthAdjust="spacing" textLength="119" x="42.5" y="138.8076">1.2: response status</text><!--SRC=[JOr12W8n34NtFSLdLWhgeCikX95Pk2nuWjZfeY1jR3A2jpUZWgv2_ljvOMgQOsOgYkuIXWuaiEdu7mmXl85DvvnXR8_Buh7tu2gwwebppnHpAYfhP-nNsLdfJ6Mw9K5Bzpc9ubgdvmQn9L9BluUm4eGUbcI5LeodZybKzdHH7RmfX6kH157IMLu0]--></g></svg>