<?xml version="1.0" encoding="UTF-8" standalone="no"?><svg xmlns="http://www.w3.org/2000/svg" xmlns:xlink="http://www.w3.org/1999/xlink" contentStyleType="text/css" height="654px" preserveAspectRatio="none" style="width:1462px;height:654px;background:#FFFFFF;" version="1.1" viewBox="0 0 1462 654" width="1462px" zoomAndPan="magnify"><defs/><g><rect fill="#FFFFFF" height="538.9766" style="stroke:#181818;stroke-width:1.0;" width="10" x="255.5" y="69.9609"/><rect fill="#FFFFFF" height="469.2734" style="stroke:#181818;stroke-width:1.0;" width="10" x="431.5" y="100.3125"/><rect fill="#FFFFFF" height="478.2734" style="stroke:#181818;stroke-width:1.0;" width="10" x="553.5" y="130.6641"/><rect fill="#FFFFFF" height="30.3516" style="stroke:#181818;stroke-width:1.0;" width="10" x="755.5" y="161.0156"/><rect fill="#FFFFFF" height="287.1641" style="stroke:#181818;stroke-width:1.0;" width="10" x="818" y="252.0703"/><rect fill="#FFFFFF" height="91.0547" style="stroke:#181818;stroke-width:1.0;" width="10" x="1029" y="343.125"/><rect fill="#FFFFFF" height="30.3516" style="stroke:#181818;stroke-width:1.0;" width="10" x="1328" y="373.4766"/><rect fill="#FFFFFF" height="14" style="stroke:#181818;stroke-width:1.0;" width="10" x="1410" y="464.5313"/><line style="stroke:#181818;stroke-width:0.5;stroke-dasharray:5.0,5.0;" x1="33" x2="33" y1="37.6094" y2="617.9375"/><line style="stroke:#181818;stroke-width:0.5;stroke-dasharray:5.0,5.0;" x1="260" x2="260" y1="37.6094" y2="617.9375"/><line style="stroke:#181818;stroke-width:0.5;stroke-dasharray:5.0,5.0;" x1="436.5" x2="436.5" y1="37.6094" y2="617.9375"/><line style="stroke:#181818;stroke-width:0.5;stroke-dasharray:5.0,5.0;" x1="558.5" x2="558.5" y1="37.6094" y2="617.9375"/><line style="stroke:#181818;stroke-width:0.5;stroke-dasharray:5.0,5.0;" x1="760.5" x2="760.5" y1="37.6094" y2="617.9375"/><line style="stroke:#181818;stroke-width:0.5;stroke-dasharray:5.0,5.0;" x1="822.5" x2="822.5" y1="37.6094" y2="617.9375"/><line style="stroke:#181818;stroke-width:0.5;stroke-dasharray:5.0,5.0;" x1="1034" x2="1034" y1="37.6094" y2="617.9375"/><line style="stroke:#181818;stroke-width:0.5;stroke-dasharray:5.0,5.0;" x1="1333" x2="1333" y1="37.6094" y2="617.9375"/><line style="stroke:#181818;stroke-width:0.5;stroke-dasharray:5.0,5.0;" x1="1415" x2="1415" y1="37.6094" y2="617.9375"/><rect fill="#E2E2F0" height="31.6094" rx="2.5" ry="2.5" style="stroke:#181818;stroke-width:0.5;" width="57" x="5" y="5"/><text fill="#000000" font-family="sans-serif" font-size="14" lengthAdjust="spacing" textLength="43" x="12" y="26.5332">SPA UI</text><rect fill="#E2E2F0" height="31.6094" rx="2.5" ry="2.5" style="stroke:#181818;stroke-width:0.5;" width="57" x="5" y="616.9375"/><text fill="#000000" font-family="sans-serif" font-size="14" lengthAdjust="spacing" textLength="43" x="12" y="638.4707">SPA UI</text><rect fill="#E2E2F0" height="31.6094" rx="2.5" ry="2.5" style="stroke:#181818;stroke-width:0.5;" width="41" x="240" y="5"/><text fill="#000000" font-family="sans-serif" font-size="14" lengthAdjust="spacing" textLength="27" x="247" y="26.5332">APP</text><rect fill="#E2E2F0" height="31.6094" rx="2.5" ry="2.5" style="stroke:#181818;stroke-width:0.5;" width="41" x="240" y="616.9375"/><text fill="#000000" font-family="sans-serif" font-size="14" lengthAdjust="spacing" textLength="27" x="247" y="638.4707">APP</text><rect fill="#E2E2F0" height="31.6094" rx="2.5" ry="2.5" style="stroke:#181818;stroke-width:0.5;" width="76" x="398.5" y="5"/><text fill="#000000" font-family="sans-serif" font-size="14" lengthAdjust="spacing" textLength="62" x="405.5" y="26.5332">Controller</text><rect fill="#E2E2F0" height="31.6094" rx="2.5" ry="2.5" style="stroke:#181818;stroke-width:0.5;" width="76" x="398.5" y="616.9375"/><text fill="#000000" font-family="sans-serif" font-size="14" lengthAdjust="spacing" textLength="62" x="405.5" y="638.4707">Controller</text><rect fill="#E2E2F0" height="31.6094" rx="2.5" ry="2.5" style="stroke:#181818;stroke-width:0.5;" width="62" x="527.5" y="5"/><text fill="#000000" font-family="sans-serif" font-size="14" lengthAdjust="spacing" textLength="48" x="534.5" y="26.5332">Mapper</text><rect fill="#E2E2F0" height="31.6094" rx="2.5" ry="2.5" style="stroke:#181818;stroke-width:0.5;" width="62" x="527.5" y="616.9375"/><text fill="#000000" font-family="sans-serif" font-size="14" lengthAdjust="spacing" textLength="48" x="534.5" y="638.4707">Mapper</text><rect fill="#E2E2F0" height="31.6094" rx="2.5" ry="2.5" style="stroke:#181818;stroke-width:0.5;" width="44" x="738.5" y="5"/><text fill="#000000" font-family="sans-serif" font-size="14" lengthAdjust="spacing" textLength="30" x="745.5" y="26.5332">DTO</text><rect fill="#E2E2F0" height="31.6094" rx="2.5" ry="2.5" style="stroke:#181818;stroke-width:0.5;" width="44" x="738.5" y="616.9375"/><text fill="#000000" font-family="sans-serif" font-size="14" lengthAdjust="spacing" textLength="30" x="745.5" y="638.4707">DTO</text><rect fill="#E2E2F0" height="31.6094" rx="2.5" ry="2.5" style="stroke:#181818;stroke-width:0.5;" width="61" x="792.5" y="5"/><text fill="#000000" font-family="sans-serif" font-size="14" lengthAdjust="spacing" textLength="47" x="799.5" y="26.5332">Service</text><rect fill="#E2E2F0" height="31.6094" rx="2.5" ry="2.5" style="stroke:#181818;stroke-width:0.5;" width="61" x="792.5" y="616.9375"/><text fill="#000000" font-family="sans-serif" font-size="14" lengthAdjust="spacing" textLength="47" x="799.5" y="638.4707">Service</text><rect fill="#E2E2F0" height="31.6094" rx="2.5" ry="2.5" style="stroke:#181818;stroke-width:0.5;" width="62" x="1003" y="5"/><text fill="#000000" font-family="sans-serif" font-size="14" lengthAdjust="spacing" textLength="48" x="1010" y="26.5332">Domain</text><rect fill="#E2E2F0" height="31.6094" rx="2.5" ry="2.5" style="stroke:#181818;stroke-width:0.5;" width="62" x="1003" y="616.9375"/><text fill="#000000" font-family="sans-serif" font-size="14" lengthAdjust="spacing" textLength="48" x="1010" y="638.4707">Domain</text><rect fill="#E2E2F0" height="31.6094" rx="2.5" ry="2.5" style="stroke:#181818;stroke-width:0.5;" width="62" x="1302" y="5"/><text fill="#000000" font-family="sans-serif" font-size="14" lengthAdjust="spacing" textLength="48" x="1309" y="26.5332">EntityID</text><rect fill="#E2E2F0" height="31.6094" rx="2.5" ry="2.5" style="stroke:#181818;stroke-width:0.5;" width="62" x="1302" y="616.9375"/><text fill="#000000" font-family="sans-serif" font-size="14" lengthAdjust="spacing" textLength="48" x="1309" y="638.4707">EntityID</text><rect fill="#E2E2F0" height="31.6094" rx="2.5" ry="2.5" style="stroke:#181818;stroke-width:0.5;" width="82" x="1374" y="5"/><text fill="#000000" font-family="sans-serif" font-size="14" lengthAdjust="spacing" textLength="68" x="1381" y="26.5332">Repository</text><rect fill="#E2E2F0" height="31.6094" rx="2.5" ry="2.5" style="stroke:#181818;stroke-width:0.5;" width="82" x="1374" y="616.9375"/><text fill="#000000" font-family="sans-serif" font-size="14" lengthAdjust="spacing" textLength="68" x="1381" y="638.4707">Repository</text><rect fill="#FFFFFF" height="538.9766" style="stroke:#181818;stroke-width:1.0;" width="10" x="255.5" y="69.9609"/><rect fill="#FFFFFF" height="469.2734" style="stroke:#181818;stroke-width:1.0;" width="10" x="431.5" y="100.3125"/><rect fill="#FFFFFF" height="478.2734" style="stroke:#181818;stroke-width:1.0;" width="10" x="553.5" y="130.6641"/><rect fill="#FFFFFF" height="30.3516" style="stroke:#181818;stroke-width:1.0;" width="10" x="755.5" y="161.0156"/><rect fill="#FFFFFF" height="287.1641" style="stroke:#181818;stroke-width:1.0;" width="10" x="818" y="252.0703"/><rect fill="#FFFFFF" height="91.0547" style="stroke:#181818;stroke-width:1.0;" width="10" x="1029" y="343.125"/><rect fill="#FFFFFF" height="30.3516" style="stroke:#181818;stroke-width:1.0;" width="10" x="1328" y="373.4766"/><rect fill="#FFFFFF" height="14" style="stroke:#181818;stroke-width:1.0;" width="10" x="1410" y="464.5313"/><polygon fill="#181818" points="243.5,65.9609,253.5,69.9609,243.5,73.9609,247.5,69.9609" style="stroke:#181818;stroke-width:1.0;"/><line style="stroke:#181818;stroke-width:1.0;" x1="33.5" x2="249.5" y1="69.9609" y2="69.9609"/><text fill="#000000" font-family="sans-serif" font-size="13" lengthAdjust="spacing" textLength="122" x="40.5" y="65.1045">1: post(/api/pacients)</text><polygon fill="#181818" points="419.5,96.3125,429.5,100.3125,419.5,104.3125,423.5,100.3125" style="stroke:#181818;stroke-width:1.0;"/><line style="stroke:#181818;stroke-width:1.0;" x1="265.5" x2="425.5" y1="100.3125" y2="100.3125"/><text fill="#000000" font-family="sans-serif" font-size="13" lengthAdjust="spacing" textLength="51" x="272.5" y="95.4561">1.1: post</text><polygon fill="#181818" points="541.5,126.6641,551.5,130.6641,541.5,134.6641,545.5,130.6641" style="stroke:#181818;stroke-width:1.0;"/><line style="stroke:#181818;stroke-width:1.0;" x1="441.5" x2="547.5" y1="130.6641" y2="130.6641"/><text fill="#000000" font-family="sans-serif" font-size="13" lengthAdjust="spacing" textLength="93" x="448.5" y="125.8076">1.1.1.1: toDTO()</text><polygon fill="#181818" points="743.5,157.0156,753.5,161.0156,743.5,165.0156,747.5,161.0156" style="stroke:#181818;stroke-width:1.0;"/><line style="stroke:#181818;stroke-width:1.0;" x1="563.5" x2="749.5" y1="161.0156" y2="161.0156"/><text fill="#000000" font-family="sans-serif" font-size="13" lengthAdjust="spacing" textLength="173" x="570.5" y="156.1592">1.1.1.1.1: new Dto(object info)</text><polygon fill="#181818" points="574.5,187.3672,564.5,191.3672,574.5,195.3672,570.5,191.3672" style="stroke:#181818;stroke-width:1.0;"/><line style="stroke:#181818;stroke-width:1.0;stroke-dasharray:2.0,2.0;" x1="568.5" x2="759.5" y1="191.3672" y2="191.3672"/><text fill="#000000" font-family="sans-serif" font-size="13" lengthAdjust="spacing" textLength="129" x="580.5" y="186.5107">1.1.1.1.2: returns DTO</text><polygon fill="#181818" points="452.5,217.7188,442.5,221.7188,452.5,225.7188,448.5,221.7188" style="stroke:#181818;stroke-width:1.0;"/><line style="stroke:#181818;stroke-width:1.0;stroke-dasharray:2.0,2.0;" x1="446.5" x2="552.5" y1="221.7188" y2="221.7188"/><text fill="#000000" font-family="sans-serif" font-size="13" lengthAdjust="spacing" textLength="44" x="458.5" y="216.8623">1.1.1.2:</text><polygon fill="#181818" points="806,248.0703,816,252.0703,806,256.0703,810,252.0703" style="stroke:#181818;stroke-width:1.0;"/><line style="stroke:#181818;stroke-width:1.0;" x1="441.5" x2="812" y1="252.0703" y2="252.0703"/><text fill="#000000" font-family="sans-serif" font-size="13" lengthAdjust="spacing" textLength="101" x="448.5" y="247.2139">1.1.3: service call</text><polygon fill="#181818" points="574.5,278.4219,564.5,282.4219,574.5,286.4219,570.5,282.4219" style="stroke:#181818;stroke-width:1.0;"/><line style="stroke:#181818;stroke-width:1.0;" x1="568.5" x2="817" y1="282.4219" y2="282.4219"/><text fill="#000000" font-family="sans-serif" font-size="13" lengthAdjust="spacing" textLength="103" x="580.5" y="277.5654">1.1.3.1: toDomain</text><polygon fill="#181818" points="806,308.7734,816,312.7734,806,316.7734,810,312.7734" style="stroke:#181818;stroke-width:1.0;"/><line style="stroke:#181818;stroke-width:1.0;" x1="563.5" x2="812" y1="312.7734" y2="312.7734"/><text fill="#000000" font-family="sans-serif" font-size="13" lengthAdjust="spacing" textLength="134" x="570.5" y="307.917">1.1.3.1.1: create object</text><polygon fill="#181818" points="1017,339.125,1027,343.125,1017,347.125,1021,343.125" style="stroke:#181818;stroke-width:1.0;"/><line style="stroke:#181818;stroke-width:1.0;" x1="828" x2="1023" y1="343.125" y2="343.125"/><text fill="#000000" font-family="sans-serif" font-size="13" lengthAdjust="spacing" textLength="51" x="835" y="338.2686">1.1.3.1.1</text><polygon fill="#181818" points="1316,369.4766,1326,373.4766,1316,377.4766,1320,373.4766" style="stroke:#181818;stroke-width:1.0;"/><line style="stroke:#181818;stroke-width:1.0;" x1="1039" x2="1322" y1="373.4766" y2="373.4766"/><text fill="#000000" font-family="sans-serif" font-size="13" lengthAdjust="spacing" textLength="270" x="1046" y="368.6201">1.1.3.1.1.1: generates Medical Record Number</text><polygon fill="#181818" points="1050,399.8281,1040,403.8281,1050,407.8281,1046,403.8281" style="stroke:#181818;stroke-width:1.0;"/><line style="stroke:#181818;stroke-width:1.0;stroke-dasharray:2.0,2.0;" x1="1044" x2="1332" y1="403.8281" y2="403.8281"/><text fill="#000000" font-family="sans-serif" font-size="13" lengthAdjust="spacing" textLength="66" x="1056" y="398.9717">1.1.3.1.1.2:</text><polygon fill="#181818" points="839,430.1797,829,434.1797,839,438.1797,835,434.1797" style="stroke:#181818;stroke-width:1.0;"/><line style="stroke:#181818;stroke-width:1.0;stroke-dasharray:2.0,2.0;" x1="833" x2="1033" y1="434.1797" y2="434.1797"/><text fill="#000000" font-family="sans-serif" font-size="13" lengthAdjust="spacing" textLength="177" x="845" y="429.3232">1.1.3.1.3: return pacient object</text><polygon fill="#181818" points="1398,460.5313,1408,464.5313,1398,468.5313,1402,464.5313" style="stroke:#181818;stroke-width:1.0;"/><line style="stroke:#181818;stroke-width:1.0;" x1="828" x2="1404" y1="464.5313" y2="464.5313"/><text fill="#000000" font-family="sans-serif" font-size="13" lengthAdjust="spacing" textLength="153" x="835" y="459.6748">1.1.3.1.3.1 : saves pacient</text><polygon fill="#181818" points="839,474.5313,829,478.5313,839,482.5313,835,478.5313" style="stroke:#181818;stroke-width:1.0;"/><line style="stroke:#181818;stroke-width:1.0;stroke-dasharray:2.0,2.0;" x1="833" x2="1414" y1="478.5313" y2="478.5313"/><polygon fill="#181818" points="574.5,504.8828,564.5,508.8828,574.5,512.8828,570.5,508.8828" style="stroke:#181818;stroke-width:1.0;"/><line style="stroke:#181818;stroke-width:1.0;stroke-dasharray:2.0,2.0;" x1="568.5" x2="817" y1="508.8828" y2="508.8828"/><text fill="#000000" font-family="sans-serif" font-size="13" lengthAdjust="spacing" textLength="176" x="580.5" y="504.0264">1.1.3.1.3.1: transforms to DTO</text><polygon fill="#181818" points="452.5,535.2344,442.5,539.2344,452.5,543.2344,448.5,539.2344" style="stroke:#181818;stroke-width:1.0;"/><line style="stroke:#181818;stroke-width:1.0;stroke-dasharray:2.0,2.0;" x1="446.5" x2="822" y1="539.2344" y2="539.2344"/><text fill="#000000" font-family="sans-serif" font-size="13" lengthAdjust="spacing" textLength="110" x="458.5" y="534.3779">1.1.3.1.3.2: returns</text><polygon fill="#181818" points="276.5,565.5859,266.5,569.5859,276.5,573.5859,272.5,569.5859" style="stroke:#181818;stroke-width:1.0;"/><line style="stroke:#181818;stroke-width:1.0;stroke-dasharray:2.0,2.0;" x1="270.5" x2="435.5" y1="569.5859" y2="569.5859"/><text fill="#000000" font-family="sans-serif" font-size="13" lengthAdjust="spacing" textLength="142" x="282.5" y="564.7295">1.1.3.1.3.2.1: status 201</text><polygon fill="#181818" points="44.5,595.9375,34.5,599.9375,44.5,603.9375,40.5,599.9375" style="stroke:#181818;stroke-width:1.0;"/><line style="stroke:#181818;stroke-width:1.0;stroke-dasharray:2.0,2.0;" x1="38.5" x2="254.5" y1="599.9375" y2="599.9375"/><text fill="#000000" font-family="sans-serif" font-size="13" lengthAdjust="spacing" textLength="198" x="50.5" y="595.0811">1.1.3.1.3.2.1.1: success message</text><!--SRC=[RLF1JW8n4BtlLqmyuK4KkN4m8UB1Wqf4Fw2MOcgWtRG5mzyxxRJRwU81EisyDzFtPhONBcYfUs42N6tMI_XylWBX0SEkvxdbUfqIUBQ9Hsk2i_kzSYbVhrsBUn5zdp4KjkdLnrlAuTacDigTj5JqAef7J7iGsX0vXMtwoGGTpi-h12YN5lAkUkjriEwSGFNQTT6IcuUeUW6p1M0YJ6v5hszx8RKomLztGWPz4a4bQ_0NyTK5f4qpiIAPIJMCF78cSQQ95omQCc5DidTqH0hc1tna6FKBgs0dzkj7oG3Qx2oZHtln1pUNpQRt2t0g79sXAMnLmoeTBzKbQZTIaaT5WFa2FDr1Yls-FgSCD9zZ2-RP0Xeh4zrM9-7IgLYIT7Uy9F61ePaXL3j345nMXA5ZzMzbb4C2Rg_QQbI1QoAjsyBhyV250naA3YjMWcGPrUSrqJBcyC0g3_bFvBmC2FBs5R5yLAI7gQ_hp2fDPsY75oVKasjL1Mp_QyXVnFinyD3pSefvaauOlxFku76eQQcwXZJUAoBMjUHzorFurWqVQkN6jZw8SFHmVpVZ1TWtc3xQA6-z794J_IYbyXuE-2U-rHy0]--></g></svg>