<?xml version="1.0" encoding="us-ascii" standalone="no"?><svg xmlns="http://www.w3.org/2000/svg" xmlns:xlink="http://www.w3.org/1999/xlink" contentStyleType="text/css" height="503px" preserveAspectRatio="none" style="width:1720px;height:503px;background:#FFFFFF;" version="1.1" viewBox="0 0 1720 503" width="1720px" zoomAndPan="magnify"><defs/><g><!--cluster EM--><g id="cluster_EM"><rect fill="none" height="428" rx="2.5" ry="2.5" style="stroke:#181818;stroke-width:1.0;" width="1478" x="236" y="53"/><rect fill="none" height="10" style="stroke:#181818;stroke-width:1.0;" width="15" x="1694" y="58"/><rect fill="none" height="2" style="stroke:#181818;stroke-width:1.0;" width="4" x="1692" y="60"/><rect fill="none" height="2" style="stroke:#181818;stroke-width:1.0;" width="4" x="1692" y="64"/><text fill="#000000" font-family="sans-serif" font-size="14" font-style="italic" lengthAdjust="spacing" textLength="110" x="920" y="80.5332">&#171;Container (C4)&#187;</text><text fill="#000000" font-family="sans-serif" font-size="14" font-weight="bold" lengthAdjust="spacing" textLength="144" x="903" y="98.1426">Energy Management</text></g><!--cluster FD--><g id="cluster_FD"><path d="M301.5,142 L516.5,142 A3.75,3.75 0 0 1 519,144.5 L526,165.6094 L526.5,165.6094 A2.5,2.5 0 0 1 529,168.1094 L529,357.5 A2.5,2.5 0 0 1 526.5,360 L301.5,360 A2.5,2.5 0 0 1 299,357.5 L299,144.5 A2.5,2.5 0 0 1 301.5,142 " fill="none" style="stroke:#000000;stroke-width:1.5;"/><line style="stroke:#000000;stroke-width:1.5;" x1="299" x2="526" y1="165.6094" y2="165.6094"/><text fill="#000000" font-family="sans-serif" font-size="14" font-weight="bold" lengthAdjust="spacing" textLength="214" x="303" y="158.5332">Frameworks and Drivers Layer</text></g><!--cluster IA--><g id="cluster_IA"><path d="M806.5,142 L979.5,142 A3.75,3.75 0 0 1 982,144.5 L989,165.6094 L989.5,165.6094 A2.5,2.5 0 0 1 992,168.1094 L992,357.5 A2.5,2.5 0 0 1 989.5,360 L806.5,360 A2.5,2.5 0 0 1 804,357.5 L804,144.5 A2.5,2.5 0 0 1 806.5,142 " fill="none" style="stroke:#000000;stroke-width:1.5;"/><line style="stroke:#000000;stroke-width:1.5;" x1="804" x2="989" y1="165.6094" y2="165.6094"/><text fill="#000000" font-family="sans-serif" font-size="14" font-weight="bold" lengthAdjust="spacing" textLength="172" x="808" y="158.5332">Interface Adapters Layer</text></g><!--cluster AB--><g id="cluster_AB"><path d="M1485.5,249 L1677.5,249 A3.75,3.75 0 0 1 1680,251.5 L1687,272.6094 L1687.5,272.6094 A2.5,2.5 0 0 1 1690,275.1094 L1690,364.5 A2.5,2.5 0 0 1 1687.5,367 L1485.5,367 A2.5,2.5 0 0 1 1483,364.5 L1483,251.5 A2.5,2.5 0 0 1 1485.5,249 " fill="none" style="stroke:#000000;stroke-width:1.5;"/><line style="stroke:#000000;stroke-width:1.5;" x1="1483" x2="1687" y1="272.6094" y2="272.6094"/><text fill="#000000" font-family="sans-serif" font-size="14" font-weight="bold" lengthAdjust="spacing" textLength="191" x="1487" y="265.5332">Application Business Rules</text></g><!--cluster EB--><g id="cluster_EB"><path d="M1222.5,77 L1410.5,77 A3.75,3.75 0 0 1 1413,79.5 L1420,100.6094 L1420.5,100.6094 A2.5,2.5 0 0 1 1423,103.1094 L1423,192.5 A2.5,2.5 0 0 1 1420.5,195 L1222.5,195 A2.5,2.5 0 0 1 1220,192.5 L1220,79.5 A2.5,2.5 0 0 1 1222.5,77 " fill="none" style="stroke:#000000;stroke-width:1.5;"/><line style="stroke:#000000;stroke-width:1.5;" x1="1220" x2="1420" y1="100.6094" y2="100.6094"/><text fill="#000000" font-family="sans-serif" font-size="14" font-weight="bold" lengthAdjust="spacing" textLength="187" x="1224" y="93.5332">Enterprise Business Rules</text></g><text fill="#000000" font-family="sans-serif" font-size="14" lengthAdjust="spacing" textLength="4" x="234" y="329.5332">&#160;</text><rect fill="#F1F1F1" height="12" style="stroke:#181818;stroke-width:1.5;" width="12" x="230" y="303"/><text fill="#000000" font-family="sans-serif" font-size="14" lengthAdjust="spacing" textLength="4" x="234" y="185.9238">&#160;</text><rect fill="#F1F1F1" height="12" style="stroke:#181818;stroke-width:1.5;" width="12" x="230" y="201"/><text fill="#000000" font-family="sans-serif" font-size="14" lengthAdjust="spacing" textLength="4" x="234" y="86.9238">&#160;</text><rect fill="#F1F1F1" height="12" style="stroke:#181818;stroke-width:1.5;" width="12" x="230" y="102"/><!--entity Controller_API--><g id="elem_Controller_API"><ellipse cx="669" cy="311" fill="#F1F1F1" rx="8" ry="8" style="stroke:#181818;stroke-width:0.5;"/><text fill="#000000" font-family="sans-serif" font-size="14" lengthAdjust="spacing" textLength="87" x="625.5" y="342.5332">Controller API</text></g><!--entity DMAPI--><g id="elem_DMAPI"><ellipse cx="669" cy="247" fill="#F1F1F1" rx="8" ry="8" style="stroke:#181818;stroke-width:0.5;"/><text fill="#000000" font-family="sans-serif" font-size="14" lengthAdjust="spacing" textLength="97" x="620.5" y="278.5332">Data Model API</text></g><!--entity PAPI--><g id="elem_PAPI"><ellipse cx="669" cy="194" fill="#F1F1F1" rx="8" ry="8" style="stroke:#181818;stroke-width:0.5;"/><text fill="#000000" font-family="sans-serif" font-size="14" lengthAdjust="spacing" textLength="99" x="619.5" y="225.5332">Persistence API</text></g><!--entity Data_Model--><g id="elem_Data_Model"><rect fill="#F1F1F1" height="65.2188" rx="2.5" ry="2.5" style="stroke:#181818;stroke-width:0.5;" width="150" x="594" y="84.5"/><rect fill="#F1F1F1" height="10" style="stroke:#181818;stroke-width:0.5;" width="15" x="724" y="89.5"/><rect fill="#F1F1F1" height="2" style="stroke:#181818;stroke-width:0.5;" width="4" x="722" y="91.5"/><rect fill="#F1F1F1" height="2" style="stroke:#181818;stroke-width:0.5;" width="4" x="722" y="95.5"/><text fill="#000000" font-family="sans-serif" font-size="14" font-style="italic" lengthAdjust="spacing" textLength="110" x="609" y="119.0332">&#171;Container (C4)&#187;</text><text fill="#000000" font-family="sans-serif" font-size="14" lengthAdjust="spacing" textLength="72" x="628" y="136.6426">Data Model</text></g><!--entity REPOAPI--><g id="elem_REPOAPI"><ellipse cx="1106" cy="228" fill="#F1F1F1" rx="8" ry="8" style="stroke:#181818;stroke-width:0.5;"/><text fill="#000000" font-family="sans-serif" font-size="14" lengthAdjust="spacing" textLength="93" x="1059.5" y="259.5332">Repository API</text></g><!--entity ASAPI--><g id="elem_ASAPI"><ellipse cx="1321" cy="244" fill="#F1F1F1" rx="8" ry="8" style="stroke:#181818;stroke-width:0.5;"/><text fill="#000000" font-family="sans-serif" font-size="14" lengthAdjust="spacing" textLength="101" x="1270.5" y="275.5332">App Service API</text></g><!--entity DTOAPI--><g id="elem_DTOAPI"><ellipse cx="1321" cy="318" fill="#F1F1F1" rx="8" ry="8" style="stroke:#181818;stroke-width:0.5;"/><text fill="#000000" font-family="sans-serif" font-size="14" lengthAdjust="spacing" textLength="55" x="1293.5" y="349.5332">DTO API</text></g><!--entity DTO--><g id="elem_DTO"><rect fill="#F1F1F1" height="65.2188" rx="2.5" ry="2.5" style="stroke:#181818;stroke-width:0.5;" width="150" x="1246" y="362.5"/><rect fill="#F1F1F1" height="10" style="stroke:#181818;stroke-width:0.5;" width="15" x="1376" y="367.5"/><rect fill="#F1F1F1" height="2" style="stroke:#181818;stroke-width:0.5;" width="4" x="1374" y="369.5"/><rect fill="#F1F1F1" height="2" style="stroke:#181818;stroke-width:0.5;" width="4" x="1374" y="373.5"/><text fill="#000000" font-family="sans-serif" font-size="14" font-style="italic" lengthAdjust="spacing" textLength="110" x="1261" y="397.0332">&#171;Container (C4)&#187;</text><text fill="#000000" font-family="sans-serif" font-size="14" lengthAdjust="spacing" textLength="30" x="1301" y="414.6426">DTO</text></g><!--entity ModelAPI--><g id="elem_ModelAPI"><ellipse cx="1106" cy="133" fill="#F1F1F1" rx="8" ry="8" style="stroke:#181818;stroke-width:0.5;"/><text fill="#000000" font-family="sans-serif" font-size="14" lengthAdjust="spacing" textLength="63" x="1074.5" y="164.5332">Model API</text></g><!--entity Routing--><g id="elem_Routing"><rect fill="#F1F1F1" height="65.2188" rx="2.5" ry="2.5" style="stroke:#181818;stroke-width:0.5;" width="150" x="339" y="278.5"/><rect fill="#F1F1F1" height="10" style="stroke:#181818;stroke-width:0.5;" width="15" x="469" y="283.5"/><rect fill="#F1F1F1" height="2" style="stroke:#181818;stroke-width:0.5;" width="4" x="467" y="285.5"/><rect fill="#F1F1F1" height="2" style="stroke:#181818;stroke-width:0.5;" width="4" x="467" y="289.5"/><text fill="#000000" font-family="sans-serif" font-size="14" font-style="italic" lengthAdjust="spacing" textLength="110" x="354" y="313.0332">&#171;Container (C4)&#187;</text><text fill="#000000" font-family="sans-serif" font-size="14" lengthAdjust="spacing" textLength="49" x="384.5" y="330.6426">Routing</text></g><!--entity Persistence--><g id="elem_Persistence"><rect fill="#F1F1F1" height="65.2188" rx="2.5" ry="2.5" style="stroke:#181818;stroke-width:0.5;" width="150" x="339" y="178.5"/><rect fill="#F1F1F1" height="10" style="stroke:#181818;stroke-width:0.5;" width="15" x="469" y="183.5"/><rect fill="#F1F1F1" height="2" style="stroke:#181818;stroke-width:0.5;" width="4" x="467" y="185.5"/><rect fill="#F1F1F1" height="2" style="stroke:#181818;stroke-width:0.5;" width="4" x="467" y="189.5"/><text fill="#000000" font-family="sans-serif" font-size="14" font-style="italic" lengthAdjust="spacing" textLength="110" x="354" y="213.0332">&#171;Container (C4)&#187;</text><text fill="#000000" font-family="sans-serif" font-size="14" lengthAdjust="spacing" textLength="74" x="372" y="230.6426">Persistence</text></g><!--entity Controller--><g id="elem_Controller"><rect fill="#F1F1F1" height="65.2188" rx="2.5" ry="2.5" style="stroke:#181818;stroke-width:0.5;" width="150" x="823" y="278.5"/><rect fill="#F1F1F1" height="10" style="stroke:#181818;stroke-width:0.5;" width="15" x="953" y="283.5"/><rect fill="#F1F1F1" height="2" style="stroke:#181818;stroke-width:0.5;" width="4" x="951" y="285.5"/><rect fill="#F1F1F1" height="2" style="stroke:#181818;stroke-width:0.5;" width="4" x="951" y="289.5"/><text fill="#000000" font-family="sans-serif" font-size="14" font-style="italic" lengthAdjust="spacing" textLength="110" x="838" y="313.0332">&#171;Container (C4)&#187;</text><text fill="#000000" font-family="sans-serif" font-size="14" lengthAdjust="spacing" textLength="62" x="862" y="330.6426">Controller</text></g><!--entity Repository--><g id="elem_Repository"><rect fill="#F1F1F1" height="65.2188" rx="2.5" ry="2.5" style="stroke:#181818;stroke-width:0.5;" width="150" x="823" y="178.5"/><rect fill="#F1F1F1" height="10" style="stroke:#181818;stroke-width:0.5;" width="15" x="953" y="183.5"/><rect fill="#F1F1F1" height="2" style="stroke:#181818;stroke-width:0.5;" width="4" x="951" y="185.5"/><rect fill="#F1F1F1" height="2" style="stroke:#181818;stroke-width:0.5;" width="4" x="951" y="189.5"/><text fill="#000000" font-family="sans-serif" font-size="14" font-style="italic" lengthAdjust="spacing" textLength="110" x="838" y="213.0332">&#171;Container (C4)&#187;</text><text fill="#000000" font-family="sans-serif" font-size="14" lengthAdjust="spacing" textLength="68" x="859" y="230.6426">Repository</text></g><!--entity AS--><g id="elem_AS"><rect fill="#F1F1F1" height="65.2188" rx="2.5" ry="2.5" style="stroke:#181818;stroke-width:0.5;" width="160" x="1506" y="285.5"/><rect fill="#F1F1F1" height="10" style="stroke:#181818;stroke-width:0.5;" width="15" x="1646" y="290.5"/><rect fill="#F1F1F1" height="2" style="stroke:#181818;stroke-width:0.5;" width="4" x="1644" y="292.5"/><rect fill="#F1F1F1" height="2" style="stroke:#181818;stroke-width:0.5;" width="4" x="1644" y="296.5"/><text fill="#000000" font-family="sans-serif" font-size="14" font-style="italic" lengthAdjust="spacing" textLength="110" x="1526" y="320.0332">&#171;Container (C4)&#187;</text><text fill="#000000" font-family="sans-serif" font-size="14" lengthAdjust="spacing" textLength="120" x="1521" y="337.6426">Application Service</text></g><!--entity DomainModel--><g id="elem_DomainModel"><rect fill="#F1F1F1" height="65.2188" rx="2.5" ry="2.5" style="stroke:#181818;stroke-width:0.5;" width="150" x="1246" y="113.5"/><rect fill="#F1F1F1" height="10" style="stroke:#181818;stroke-width:0.5;" width="15" x="1376" y="118.5"/><rect fill="#F1F1F1" height="2" style="stroke:#181818;stroke-width:0.5;" width="4" x="1374" y="120.5"/><rect fill="#F1F1F1" height="2" style="stroke:#181818;stroke-width:0.5;" width="4" x="1374" y="124.5"/><text fill="#000000" font-family="sans-serif" font-size="14" font-style="italic" lengthAdjust="spacing" textLength="110" x="1261" y="148.0332">&#171;Container (C4)&#187;</text><text fill="#000000" font-family="sans-serif" font-size="14" lengthAdjust="spacing" textLength="90" x="1271" y="165.6426">Domain Model</text></g><!--entity AuthAPI--><g id="elem_AuthAPI"><ellipse cx="84" cy="109" fill="#F1F1F1" rx="8" ry="8" style="stroke:#181818;stroke-width:0.5;"/><text fill="#000000" font-family="sans-serif" font-size="14" lengthAdjust="spacing" textLength="115" x="26.5" y="140.5332">Authentication API</text></g><!--entity OptimizationAPI--><g id="elem_OptimizationAPI"><ellipse cx="84" cy="14" fill="#F1F1F1" rx="8" ry="8" style="stroke:#181818;stroke-width:0.5;"/><text fill="#000000" font-family="sans-serif" font-size="14" lengthAdjust="spacing" textLength="102" x="33" y="45.5332">Optimization API</text></g><!--entity EMAPI--><g id="elem_EMAPI"><ellipse cx="84" cy="309" fill="#F1F1F1" rx="8" ry="8" style="stroke:#181818;stroke-width:0.5;"/><text fill="#000000" font-family="sans-serif" font-size="14" lengthAdjust="spacing" textLength="156" x="6" y="340.5332">Energy Management API</text></g><!--entity SGBDAPI--><g id="elem_SGBDAPI"><ellipse cx="84" cy="207" fill="#F1F1F1" rx="8" ry="8" style="stroke:#181818;stroke-width:0.5;"/><text fill="#000000" font-family="sans-serif" font-size="14" lengthAdjust="spacing" textLength="64" x="52" y="238.5332">SGBD API</text></g><!--link Persistence to PAPI--><g id="link_Persistence_PAPI"><path d="M489.2,206.01 C551.31,201.84 633.84,196.3 659.82,194.55 " fill="none" id="Persistence-PAPI" style="stroke:#181818;stroke-width:1.0;"/></g><!--link Persistence to DMAPI--><g id="link_Persistence_DMAPI"><path d="M489.2,221.56 C551.31,230.4 633.84,242.14 659.82,245.84 " fill="none" id="Persistence-DMAPI" style="stroke:#181818;stroke-width:1.0;"/></g><!--link DMAPI to Data_Model--><g id="link_DMAPI_Data_Model"><path d="M659.7,246.5 C638.08,244.75 584.79,236.98 565.5,202.5 C553.04,180.23 570.17,161.37 593.87,147.07 " fill="none" id="DMAPI-Data_Model" style="stroke:#181818;stroke-width:1.0;"/></g><!--link Repository to REPOAPI--><g id="link_Repository_REPOAPI"><path d="M973.08,217.11 C1020.14,221 1075.97,225.6 1096.71,227.32 " fill="none" id="Repository-REPOAPI" style="stroke:#181818;stroke-width:1.0;"/></g><!--link REPOAPI to AS--><g id="link_REPOAPI_AS"><path d="M1108.08,237.24 C1112.71,272.12 1134.35,396.31 1212,445 C1294.46,496.71 1339.4,477.9 1431,445 C1483.02,426.32 1530,381.61 1558.03,350.57 " fill="none" id="REPOAPI-AS" style="stroke:#181818;stroke-width:1.0;"/></g><!--link Controller to ASAPI--><g id="link_Controller_ASAPI"><path d="M973.13,301.86 C1025.46,295.15 1097.16,285.41 1160,275 C1218.34,265.33 1288.06,250.79 1311.7,245.77 " fill="none" id="Controller-ASAPI" style="stroke:#181818;stroke-width:1.0;"/></g><!--link ASAPI to AS--><g id="link_ASAPI_AS"><path d="M1330.16,246.3 C1356.47,253.7 1441.14,277.52 1505.73,295.7 " fill="none" id="ASAPI-AS" style="stroke:#181818;stroke-width:1.0;"/></g><!--link Repository to ModelAPI--><g id="link_Repository_ModelAPI"><path d="M973.08,182.95 C1020.14,165.13 1075.97,143.99 1096.71,136.14 " fill="none" id="Repository-ModelAPI" style="stroke:#181818;stroke-width:1.0;"/></g><!--link ModelAPI to DomainModel--><g id="link_ModelAPI_DomainModel"><path d="M1115.09,133.49 C1136.48,134.8 1196.29,138.45 1245.81,141.47 " fill="none" id="ModelAPI-DomainModel" style="stroke:#181818;stroke-width:1.0;"/></g><!--link Controller to DTOAPI--><g id="link_Controller_DTOAPI"><path d="M973.3,312.24 C1080.47,314.02 1270.18,317.17 1311.79,317.86 " fill="none" id="Controller-DTOAPI" style="stroke:#181818;stroke-width:1.0;"/></g><!--link DTOAPI to AS--><g id="link_DTOAPI_AS"><path d="M1330.16,318 C1356.47,318 1441.14,318 1505.73,318 " fill="none" id="DTOAPI-AS" style="stroke:#181818;stroke-width:1.0;"/></g><!--link DTO to DTOAPI--><g id="link_DTO_DTOAPI"><path d="M1321,362.21 C1321,350.59 1321,338.96 1321,327.33 " fill="none" id="DTO-DTOAPI" style="stroke:#181818;stroke-width:1.0;"/></g><!--link DMAPI to Repository--><g id="link_DMAPI_Repository"><path d="M678.08,245.72 C701.1,242.07 768.87,231.32 822.97,222.74 " fill="none" id="DMAPI-Repository" style="stroke:#181818;stroke-width:1.0;"/></g><!--link PAPI to Repository--><g id="link_PAPI_Repository"><path d="M678.08,194.61 C701.1,196.33 768.87,201.4 822.97,205.46 " fill="none" id="PAPI-Repository" style="stroke:#181818;stroke-width:1.0;"/></g><!--link Routing to Controller_API--><g id="link_Routing_Controller_API"><path d="M489.2,311 C551.31,311 633.84,311 659.82,311 " fill="none" id="Routing-Controller_API" style="stroke:#181818;stroke-width:1.0;"/></g><!--link Controller_API to Controller--><g id="link_Controller_API_Controller"><path d="M678.08,311 C701.1,311 768.87,311 822.97,311 " fill="none" id="Controller_API-Controller" style="stroke:#181818;stroke-width:1.0;"/></g><!--link EMAPI to p1--><g id="link_EMAPI_p1"><path d="M93.06,309 C120.2,309 207.76,309 229.89,309 " fill="none" id="EMAPI-p1" style="stroke:#181818;stroke-width:1.0;"/></g><!--link SGBDAPI to p2--><g id="link_SGBDAPI_p2"><path d="M93.06,207 C120.2,207 207.76,207 229.89,207 " fill="none" id="SGBDAPI-p2" style="stroke:#181818;stroke-width:1.0;"/></g><!--link p1 to Routing--><g id="link_p1_Routing"><path d="M242.08,309.06 C256.56,309.22 299.57,309.71 338.82,310.16 " fill="none" id="p1-Routing" style="stroke:#181818;stroke-width:1.0;"/></g><!--link AuthAPI to p3--><g id="link_AuthAPI_p3"><path d="M93.06,108.95 C120.2,108.77 207.76,108.18 229.89,108.03 " fill="none" id="AuthAPI-p3" style="stroke:#181818;stroke-width:1.0;"/></g><!--link OptimizationAPI to p3--><g id="link_OptimizationAPI_p3"><path d="M93.16,18.09 C108.52,25.89 142.67,43.65 170,61 C193.04,75.63 218.9,95.41 229.76,103.88 " fill="none" id="OptimizationAPI-p3" style="stroke:#181818;stroke-width:1.0;"/></g><!--SRC=[bLLDRzim3BtdLn0-RGSVrlPO571gTmZGe47SUo3OIYhKbWH9xf0D_U-JPUl3YjrbEIdaUoGVISa00FATK8u4Qg4X5Aipnq2PQ56pqavey561OY38wKr1JGIk567K-2hMSaOnLL1i0Kb82eh5wGnRHD49jzgHmFtz8wCAwSW2lZtUVNzu-6Eu_OypeO3_C5H88lFDlFasDhl3aJMrJlAK6yIJ5eH_CV4k0T4QSa4-i93mZCvO9Bw4gOmzwnIXfvcY5mWx7PD8XMc5lo9zkXEX2eiZql0UB5ZJO778TXjJipU1DYKpf7nhiJbI2BQiniqITcUXOP4JREX8pO1JmxhihLVSvpqCUQTb95yrO98f7MGuvo3A5k0Jn9FTP2RbnYdCQiJLlwSQjFNgmUunPv8e9ix_EzTziNkndG-YcCR7YhArWMMSDwH2_Rs2TITr9YbXtpLOBchAoWjcYSK7gN1oNS51QNeWOz7UEuhGhgnSpQZCIgjHbs1JHoA3lgScK9XX2B0OFtzrJTJ7A72mZTet8pVkSx4UdoSTdWiYyRLjpbch0mVhRlvViV2VSw8CpSeAxkx2K2pSkHs_lqA-ilc6Zotqj-mrc6Xix5zvmuWlPHhKv6_piik-eFOsJr-vcKeFOonlMVb53VQjKszku_HP3yVklNlIFFg5AzAItyPlMQ5jZbEuf_NYA-RX-cELTZmTm560ykSwjo7wSy2w6LWZmaLARRi6o-s06gLER96Wlm00]--></g></svg>