<?xml version="1.0" encoding="us-ascii" standalone="no"?><svg xmlns="http://www.w3.org/2000/svg" xmlns:xlink="http://www.w3.org/1999/xlink" contentStyleType="text/css" height="923px" preserveAspectRatio="none" style="width:663px;height:923px;background:#FFFFFF;" version="1.1" viewBox="0 0 663 923" width="663px" zoomAndPan="magnify"><defs/><g><!--cluster EM--><g id="cluster_EM"><rect fill="none" height="807" rx="2.5" ry="2.5" style="stroke:#181818;stroke-width:1.0;" width="650" x="7" y="110"/><rect fill="none" height="10" style="stroke:#181818;stroke-width:1.0;" width="15" x="637" y="115"/><rect fill="none" height="2" style="stroke:#181818;stroke-width:1.0;" width="4" x="635" y="117"/><rect fill="none" height="2" style="stroke:#181818;stroke-width:1.0;" width="4" x="635" y="121"/><text fill="#000000" font-family="sans-serif" font-size="14" font-style="italic" lengthAdjust="spacing" textLength="110" x="277" y="137.5332">&#171;Container (C4)&#187;</text><text fill="#000000" font-family="sans-serif" font-size="14" font-weight="bold" lengthAdjust="spacing" textLength="144" x="260" y="155.1426">Energy Management</text></g><!--cluster FD--><g id="cluster_FD"><path d="M97.5,140 L312.5,140 A3.75,3.75 0 0 1 315,142.5 L322,163.6094 L459.5,163.6094 A2.5,2.5 0 0 1 462,166.1094 L462,254.5 A2.5,2.5 0 0 1 459.5,257 L97.5,257 A2.5,2.5 0 0 1 95,254.5 L95,142.5 A2.5,2.5 0 0 1 97.5,140 " fill="none" style="stroke:#000000;stroke-width:1.5;"/><line style="stroke:#000000;stroke-width:1.5;" x1="95" x2="322" y1="163.6094" y2="163.6094"/><text fill="#000000" font-family="sans-serif" font-size="14" font-weight="bold" lengthAdjust="spacing" textLength="214" x="99" y="156.5332">Frameworks and Drivers Layer</text></g><!--cluster IA--><g id="cluster_IA"><path d="M130.5,390 L303.5,390 A3.75,3.75 0 0 1 306,392.5 L313,413.6094 L492.5,413.6094 A2.5,2.5 0 0 1 495,416.1094 L495,504.5 A2.5,2.5 0 0 1 492.5,507 L130.5,507 A2.5,2.5 0 0 1 128,504.5 L128,392.5 A2.5,2.5 0 0 1 130.5,390 " fill="none" style="stroke:#000000;stroke-width:1.5;"/><line style="stroke:#000000;stroke-width:1.5;" x1="128" x2="313" y1="413.6094" y2="413.6094"/><text fill="#000000" font-family="sans-serif" font-size="14" font-weight="bold" lengthAdjust="spacing" textLength="172" x="132" y="406.5332">Interface Adapters Layer</text></g><!--cluster AB--><g id="cluster_AB"><path d="M267.5,776 L459.5,776 A3.75,3.75 0 0 1 462,778.5 L469,799.6094 L469.5,799.6094 A2.5,2.5 0 0 1 472,802.1094 L472,890.5 A2.5,2.5 0 0 1 469.5,893 L267.5,893 A2.5,2.5 0 0 1 265,890.5 L265,778.5 A2.5,2.5 0 0 1 267.5,776 " fill="none" style="stroke:#000000;stroke-width:1.5;"/><line style="stroke:#000000;stroke-width:1.5;" x1="265" x2="469" y1="799.6094" y2="799.6094"/><text fill="#000000" font-family="sans-serif" font-size="14" font-weight="bold" lengthAdjust="spacing" textLength="191" x="269" y="792.5332">Application Business Rules</text></g><!--cluster EB--><g id="cluster_EB"><path d="M432.5,635 L620.5,635 A3.75,3.75 0 0 1 623,637.5 L630,658.6094 L630.5,658.6094 A2.5,2.5 0 0 1 633,661.1094 L633,749.5 A2.5,2.5 0 0 1 630.5,752 L432.5,752 A2.5,2.5 0 0 1 430,749.5 L430,637.5 A2.5,2.5 0 0 1 432.5,635 " fill="none" style="stroke:#000000;stroke-width:1.5;"/><line style="stroke:#000000;stroke-width:1.5;" x1="430" x2="630" y1="658.6094" y2="658.6094"/><text fill="#000000" font-family="sans-serif" font-size="14" font-weight="bold" lengthAdjust="spacing" textLength="187" x="434" y="651.5332">Enterprise Business Rules</text></g><text fill="#000000" font-family="sans-serif" font-size="14" lengthAdjust="spacing" textLength="4" x="412" y="88.9238">&#160;</text><rect fill="#F1F1F1" height="12" style="stroke:#181818;stroke-width:1.5;" width="12" x="408" y="104"/><text fill="#000000" font-family="sans-serif" font-size="14" lengthAdjust="spacing" textLength="4" x="365" y="88.9238">&#160;</text><rect fill="#F1F1F1" height="12" style="stroke:#181818;stroke-width:1.5;" width="12" x="361" y="104"/><text fill="#000000" font-family="sans-serif" font-size="14" lengthAdjust="spacing" textLength="4" x="283" y="88.9238">&#160;</text><rect fill="#F1F1F1" height="12" style="stroke:#181818;stroke-width:1.5;" width="12" x="279" y="104"/><!--entity Controller_API--><g id="elem_Controller_API"><ellipse cx="202" cy="333.5" fill="#F1F1F1" rx="8" ry="8" style="stroke:#181818;stroke-width:0.5;"/><text fill="#000000" font-family="sans-serif" font-size="14" lengthAdjust="spacing" textLength="87" x="158.5" y="365.0332">Controller API</text></g><!--entity DMAPI--><g id="elem_DMAPI"><ellipse cx="414" cy="333.5" fill="#F1F1F1" rx="8" ry="8" style="stroke:#181818;stroke-width:0.5;"/><text fill="#000000" font-family="sans-serif" font-size="14" lengthAdjust="spacing" textLength="97" x="365.5" y="365.0332">Data Model API</text></g><!--entity PAPI--><g id="elem_PAPI"><ellipse cx="361" cy="333.5" fill="#F1F1F1" rx="8" ry="8" style="stroke:#181818;stroke-width:0.5;"/><text fill="#000000" font-family="sans-serif" font-size="14" lengthAdjust="spacing" textLength="99" x="311.5" y="365.0332">Persistence API</text></g><!--entity Data_Model--><g id="elem_Data_Model"><rect fill="#F1F1F1" height="65.2188" rx="2.5" ry="2.5" style="stroke:#181818;stroke-width:0.5;" width="150" x="458" y="301"/><rect fill="#F1F1F1" height="10" style="stroke:#181818;stroke-width:0.5;" width="15" x="588" y="306"/><rect fill="#F1F1F1" height="2" style="stroke:#181818;stroke-width:0.5;" width="4" x="586" y="308"/><rect fill="#F1F1F1" height="2" style="stroke:#181818;stroke-width:0.5;" width="4" x="586" y="312"/><text fill="#000000" font-family="sans-serif" font-size="14" font-style="italic" lengthAdjust="spacing" textLength="110" x="473" y="335.5332">&#171;Container (C4)&#187;</text><text fill="#000000" font-family="sans-serif" font-size="14" lengthAdjust="spacing" textLength="72" x="492" y="353.1426">Data Model</text></g><!--entity REPOAPI--><g id="elem_REPOAPI"><ellipse cx="404" cy="581" fill="#F1F1F1" rx="8" ry="8" style="stroke:#181818;stroke-width:0.5;"/><text fill="#000000" font-family="sans-serif" font-size="14" lengthAdjust="spacing" textLength="93" x="357.5" y="612.5332">Repository API</text></g><!--entity ASAPI--><g id="elem_ASAPI"><ellipse cx="81" cy="703.5" fill="#F1F1F1" rx="8" ry="8" style="stroke:#181818;stroke-width:0.5;"/><text fill="#000000" font-family="sans-serif" font-size="14" lengthAdjust="spacing" textLength="101" x="30.5" y="735.0332">App Service API</text></g><!--entity DTOAPI--><g id="elem_DTOAPI"><ellipse cx="368" cy="703.5" fill="#F1F1F1" rx="8" ry="8" style="stroke:#181818;stroke-width:0.5;"/><text fill="#000000" font-family="sans-serif" font-size="14" lengthAdjust="spacing" textLength="55" x="340.5" y="735.0332">DTO API</text></g><!--entity DTO--><g id="elem_DTO"><rect fill="#F1F1F1" height="65.2188" rx="2.5" ry="2.5" style="stroke:#181818;stroke-width:0.5;" width="150" x="174" y="671"/><rect fill="#F1F1F1" height="10" style="stroke:#181818;stroke-width:0.5;" width="15" x="304" y="676"/><rect fill="#F1F1F1" height="2" style="stroke:#181818;stroke-width:0.5;" width="4" x="302" y="678"/><rect fill="#F1F1F1" height="2" style="stroke:#181818;stroke-width:0.5;" width="4" x="302" y="682"/><text fill="#000000" font-family="sans-serif" font-size="14" font-style="italic" lengthAdjust="spacing" textLength="110" x="189" y="705.5332">&#171;Container (C4)&#187;</text><text fill="#000000" font-family="sans-serif" font-size="14" lengthAdjust="spacing" textLength="30" x="229" y="723.1426">DTO</text></g><!--entity ModelAPI--><g id="elem_ModelAPI"><ellipse cx="532" cy="581" fill="#F1F1F1" rx="8" ry="8" style="stroke:#181818;stroke-width:0.5;"/><text fill="#000000" font-family="sans-serif" font-size="14" lengthAdjust="spacing" textLength="63" x="500.5" y="612.5332">Model API</text></g><!--entity Routing--><g id="elem_Routing"><rect fill="#F1F1F1" height="65.2188" rx="2.5" ry="2.5" style="stroke:#181818;stroke-width:0.5;" width="150" x="111" y="176"/><rect fill="#F1F1F1" height="10" style="stroke:#181818;stroke-width:0.5;" width="15" x="241" y="181"/><rect fill="#F1F1F1" height="2" style="stroke:#181818;stroke-width:0.5;" width="4" x="239" y="183"/><rect fill="#F1F1F1" height="2" style="stroke:#181818;stroke-width:0.5;" width="4" x="239" y="187"/><text fill="#000000" font-family="sans-serif" font-size="14" font-style="italic" lengthAdjust="spacing" textLength="110" x="126" y="210.5332">&#171;Container (C4)&#187;</text><text fill="#000000" font-family="sans-serif" font-size="14" lengthAdjust="spacing" textLength="49" x="156.5" y="228.1426">Routing</text></g><!--entity Persistence--><g id="elem_Persistence"><rect fill="#F1F1F1" height="65.2188" rx="2.5" ry="2.5" style="stroke:#181818;stroke-width:0.5;" width="150" x="296" y="176"/><rect fill="#F1F1F1" height="10" style="stroke:#181818;stroke-width:0.5;" width="15" x="426" y="181"/><rect fill="#F1F1F1" height="2" style="stroke:#181818;stroke-width:0.5;" width="4" x="424" y="183"/><rect fill="#F1F1F1" height="2" style="stroke:#181818;stroke-width:0.5;" width="4" x="424" y="187"/><text fill="#000000" font-family="sans-serif" font-size="14" font-style="italic" lengthAdjust="spacing" textLength="110" x="311" y="210.5332">&#171;Container (C4)&#187;</text><text fill="#000000" font-family="sans-serif" font-size="14" lengthAdjust="spacing" textLength="74" x="329" y="228.1426">Persistence</text></g><!--entity Controller--><g id="elem_Controller"><rect fill="#F1F1F1" height="65.2188" rx="2.5" ry="2.5" style="stroke:#181818;stroke-width:0.5;" width="150" x="144" y="426"/><rect fill="#F1F1F1" height="10" style="stroke:#181818;stroke-width:0.5;" width="15" x="274" y="431"/><rect fill="#F1F1F1" height="2" style="stroke:#181818;stroke-width:0.5;" width="4" x="272" y="433"/><rect fill="#F1F1F1" height="2" style="stroke:#181818;stroke-width:0.5;" width="4" x="272" y="437"/><text fill="#000000" font-family="sans-serif" font-size="14" font-style="italic" lengthAdjust="spacing" textLength="110" x="159" y="460.5332">&#171;Container (C4)&#187;</text><text fill="#000000" font-family="sans-serif" font-size="14" lengthAdjust="spacing" textLength="62" x="183" y="478.1426">Controller</text></g><!--entity Repository--><g id="elem_Repository"><rect fill="#F1F1F1" height="65.2188" rx="2.5" ry="2.5" style="stroke:#181818;stroke-width:0.5;" width="150" x="329" y="426"/><rect fill="#F1F1F1" height="10" style="stroke:#181818;stroke-width:0.5;" width="15" x="459" y="431"/><rect fill="#F1F1F1" height="2" style="stroke:#181818;stroke-width:0.5;" width="4" x="457" y="433"/><rect fill="#F1F1F1" height="2" style="stroke:#181818;stroke-width:0.5;" width="4" x="457" y="437"/><text fill="#000000" font-family="sans-serif" font-size="14" font-style="italic" lengthAdjust="spacing" textLength="110" x="344" y="460.5332">&#171;Container (C4)&#187;</text><text fill="#000000" font-family="sans-serif" font-size="14" lengthAdjust="spacing" textLength="68" x="365" y="478.1426">Repository</text></g><!--entity AS--><g id="elem_AS"><rect fill="#F1F1F1" height="65.2188" rx="2.5" ry="2.5" style="stroke:#181818;stroke-width:0.5;" width="160" x="288" y="812"/><rect fill="#F1F1F1" height="10" style="stroke:#181818;stroke-width:0.5;" width="15" x="428" y="817"/><rect fill="#F1F1F1" height="2" style="stroke:#181818;stroke-width:0.5;" width="4" x="426" y="819"/><rect fill="#F1F1F1" height="2" style="stroke:#181818;stroke-width:0.5;" width="4" x="426" y="823"/><text fill="#000000" font-family="sans-serif" font-size="14" font-style="italic" lengthAdjust="spacing" textLength="110" x="308" y="846.5332">&#171;Container (C4)&#187;</text><text fill="#000000" font-family="sans-serif" font-size="14" lengthAdjust="spacing" textLength="120" x="303" y="864.1426">Application Service</text></g><!--entity DomainModel--><g id="elem_DomainModel"><rect fill="#F1F1F1" height="65.2188" rx="2.5" ry="2.5" style="stroke:#181818;stroke-width:0.5;" width="150" x="457" y="671"/><rect fill="#F1F1F1" height="10" style="stroke:#181818;stroke-width:0.5;" width="15" x="587" y="676"/><rect fill="#F1F1F1" height="2" style="stroke:#181818;stroke-width:0.5;" width="4" x="585" y="678"/><rect fill="#F1F1F1" height="2" style="stroke:#181818;stroke-width:0.5;" width="4" x="585" y="682"/><text fill="#000000" font-family="sans-serif" font-size="14" font-style="italic" lengthAdjust="spacing" textLength="110" x="472" y="705.5332">&#171;Container (C4)&#187;</text><text fill="#000000" font-family="sans-serif" font-size="14" lengthAdjust="spacing" textLength="90" x="482" y="723.1426">Domain Model</text></g><!--entity AuthAPI--><g id="elem_AuthAPI"><ellipse cx="256" cy="14" fill="#F1F1F1" rx="8" ry="8" style="stroke:#181818;stroke-width:0.5;"/><text fill="#000000" font-family="sans-serif" font-size="14" lengthAdjust="spacing" textLength="115" x="198.5" y="45.5332">Authentication API</text></g><!--entity OptimizationAPI--><g id="elem_OptimizationAPI"><ellipse cx="97" cy="14" fill="#F1F1F1" rx="8" ry="8" style="stroke:#181818;stroke-width:0.5;"/><text fill="#000000" font-family="sans-serif" font-size="14" lengthAdjust="spacing" textLength="102" x="46" y="45.5332">Optimization API</text></g><!--entity EMAPI--><g id="elem_EMAPI"><ellipse cx="557" cy="14" fill="#F1F1F1" rx="8" ry="8" style="stroke:#181818;stroke-width:0.5;"/><text fill="#000000" font-family="sans-serif" font-size="14" lengthAdjust="spacing" textLength="156" x="479" y="45.5332">Energy Management API</text></g><!--entity SGBDAPI--><g id="elem_SGBDAPI"><ellipse cx="396" cy="14" fill="#F1F1F1" rx="8" ry="8" style="stroke:#181818;stroke-width:0.5;"/><text fill="#000000" font-family="sans-serif" font-size="14" lengthAdjust="spacing" textLength="64" x="364" y="45.5332">SGBD API</text></g><!--link Persistence to PAPI--><g id="link_Persistence_PAPI"><path d="M368.42,241.18 C366.16,269.08 363.01,307.79 361.66,324.4 " fill="none" id="Persistence-PAPI" style="stroke:#181818;stroke-width:1.0;"/></g><!--link Persistence to DMAPI--><g id="link_Persistence_DMAPI"><path d="M382.07,241.18 C391.83,269.08 405.36,307.79 411.17,324.4 " fill="none" id="Persistence-DMAPI" style="stroke:#181818;stroke-width:1.0;"/></g><!--link DMAPI to Data_Model--><g id="link_DMAPI_Data_Model"><path d="M423.3,333.5 C434.72,333.5 446.15,333.5 457.58,333.5 " fill="none" id="DMAPI-Data_Model" style="stroke:#181818;stroke-width:1.0;"/></g><!--link Repository to REPOAPI--><g id="link_Repository_REPOAPI"><path d="M404,491.16 C404,518.22 404,555.28 404,571.65 " fill="none" id="Repository-REPOAPI" style="stroke:#181818;stroke-width:1.0;"/></g><!--link REPOAPI to AS--><g id="link_REPOAPI_AS"><path d="M404.34,590.25 C405.25,615.75 406.85,695.48 395,760 C391.78,777.53 385.86,796.48 380.39,811.89 " fill="none" id="REPOAPI-AS" style="stroke:#181818;stroke-width:1.0;"/></g><!--link Controller to ASAPI--><g id="link_Controller_ASAPI"><path d="M200.96,491.27 C168.96,547.62 103.92,662.14 85.79,694.07 " fill="none" id="Controller-ASAPI" style="stroke:#181818;stroke-width:1.0;"/></g><!--link ASAPI to AS--><g id="link_ASAPI_AS"><path d="M90.31,712.52 C104.13,724.13 131.25,745.8 157,760 C198.49,782.87 247.56,802.68 287.93,817.25 " fill="none" id="ASAPI-AS" style="stroke:#181818;stroke-width:1.0;"/></g><!--link Repository to ModelAPI--><g id="link_Repository_ModelAPI"><path d="M437.63,491.16 C466.52,518.35 506.15,555.67 523.4,571.9 " fill="none" id="Repository-ModelAPI" style="stroke:#181818;stroke-width:1.0;"/></g><!--link ModelAPI to DomainModel--><g id="link_ModelAPI_DomainModel"><path d="M532,590.28 C532,606.61 532,643.7 532,670.79 " fill="none" id="ModelAPI-DomainModel" style="stroke:#181818;stroke-width:1.0;"/></g><!--link Controller to DTOAPI--><g id="link_Controller_DTOAPI"><path d="M244.02,491.14 C275.55,531.42 327.39,599.12 342,627 C354.09,650.09 362.45,679.98 366.03,694.24 " fill="none" id="Controller-DTOAPI" style="stroke:#181818;stroke-width:1.0;"/></g><!--link DTOAPI to AS--><g id="link_DTOAPI_AS"><path d="M368,712.78 C368,731.83 368,779.62 368,811.82 " fill="none" id="DTOAPI-AS" style="stroke:#181818;stroke-width:1.0;"/></g><!--link DTO to DTOAPI--><g id="link_DTO_DTOAPI"><path d="M324.3,703.5 C335.8,703.5 347.29,703.5 358.78,703.5 " fill="none" id="DTO-DTOAPI" style="stroke:#181818;stroke-width:1.0;"/></g><!--link DMAPI to Repository--><g id="link_DMAPI_Repository"><path d="M413.34,342.57 C411.99,359.19 408.84,398.03 406.56,425.95 " fill="none" id="DMAPI-Repository" style="stroke:#181818;stroke-width:1.0;"/></g><!--link PAPI to Repository--><g id="link_PAPI_Repository"><path d="M363.82,342.57 C369.63,359.19 383.21,398.03 392.97,425.95 " fill="none" id="PAPI-Repository" style="stroke:#181818;stroke-width:1.0;"/></g><!--link Routing to Controller_API--><g id="link_Routing_Controller_API"><path d="M190.12,241.18 C193.75,269.08 198.79,307.79 200.95,324.4 " fill="none" id="Routing-Controller_API" style="stroke:#181818;stroke-width:1.0;"/></g><!--link Controller_API to Controller--><g id="link_Controller_API_Controller"><path d="M203.12,342.57 C205.41,359.19 210.78,398.03 214.64,425.95 " fill="none" id="Controller_API-Controller" style="stroke:#181818;stroke-width:1.0;"/></g><!--link EMAPI to p1--><g id="link_EMAPI_p1"><path d="M547.62,21.17 C520.53,38.98 442.68,90.15 420.17,104.95 " fill="none" id="EMAPI-p1" style="stroke:#181818;stroke-width:1.0;"/></g><!--link SGBDAPI to p2--><g id="link_SGBDAPI_p2"><path d="M393.53,23.01 C387.72,41.84 373.34,88.45 368.57,103.92 " fill="none" id="SGBDAPI-p2" style="stroke:#181818;stroke-width:1.0;"/></g><!--link p1 to Routing--><g id="link_p1_Routing"><path d="M407.99,112.55 C403.37,113.69 396.82,115.16 391,116 C366.3,119.55 301.97,114.25 279,124 C252.63,135.19 228.73,157.04 211.76,175.58 " fill="none" id="p1-Routing" style="stroke:#181818;stroke-width:1.0;"/></g><!--link AuthAPI to p3--><g id="link_AuthAPI_p3"><path d="M258.47,23.01 C264.28,41.84 278.66,88.45 283.43,103.92 " fill="none" id="AuthAPI-p3" style="stroke:#181818;stroke-width:1.0;"/></g><!--link OptimizationAPI to p3--><g id="link_OptimizationAPI_p3"><path d="M106.07,19.53 C138.93,35.96 251.28,92.14 278.85,105.93 " fill="none" id="OptimizationAPI-p3" style="stroke:#181818;stroke-width:1.0;"/></g><!--SRC=[bLLDRzim3BtdLn0-RGSVrlPO571gTmZGe47SUo0aIYhKbWH9xf0D_U-JPUl3YjnbEIdaUoGVISa00FATK8u4Qg4X5Aipnq2PQ56pq4xOivOpYgc2QWr8GbPHB4vdM2EAJhZLZWpkxnyPLKYp1NnxlFl-yF37SFiVPq81_s6ea4NccxJvDZOVMNFGiPzAutZIjU9VJBnBGFG0fI0VM4XuHcSiCfzvMlsMTOhGKwBM6S96noHIORh7Nv4-tObGXSKHQNWF5gnfiDWLcvMfsPj0cx84gLnRR8aKWZKxu6OEkx7GiCW9DdJaWfpUL6vO3h2uLDpdtGrvfsLaNpLWaYaVP3Zd8CeMu1F4arqL9kNAAImEYAj_JpLewzM3tMBE955CdFzthjjgys8x7qGnZOyL5Ki3ApXlo1ufmYWiEwapIGdRhi5oLbDHNp1hB3x87cVN5HoKfWSo5kszemZjAkf5GcLHMusw19iw4XdqFJU1mWn3WDduvQjheZv6WODjrBw4tBZFrN9ybNHuBeZ4rxQvPAqE7Aox-N_5md-cH1cQbHNStPcXMBXpEtv_XNnbwOQFBVItx3MOQ6niy54PHdmfyw0cVvldNVO5jRTv-iebAjsDiRnbuHSrsBTElRcDqsSz7Bltxadpw1UkI4j-6xzbXROKft9FwyN7oyFrDohlU3w0em3rpsLfG_JdW7Kpi4Q4YvJRTWsMsm4rIftO8a5_0G00]--></g></svg>