<?xml version="1.0" encoding="us-ascii" standalone="no"?><svg xmlns="http://www.w3.org/2000/svg" xmlns:xlink="http://www.w3.org/1999/xlink" contentStyleType="text/css" height="696px" preserveAspectRatio="none" style="width:681px;height:696px;background:#FFFFFF;" version="1.1" viewBox="0 0 681 696" width="681px" zoomAndPan="magnify"><defs/><g><text fill="#000000" font-family="sans-serif" font-size="14" font-weight="bold" lengthAdjust="spacing" textLength="248" x="215.5" y="29.5332">Sequence Diagram: DELETE Level 2</text><rect fill="#FFFFFF" height="474.1094" style="stroke:#181818;stroke-width:1.0;" width="10" x="32.5" y="131.2188"/><rect fill="#FFFFFF" height="450.7578" style="stroke:#181818;stroke-width:1.0;" width="10" x="236.5" y="153.5703"/><rect fill="#FFFFFF" height="91.0547" style="stroke:#181818;stroke-width:1.0;" width="10" x="426.5" y="183.9219"/><rect fill="#FFFFFF" height="238.2969" style="stroke:#181818;stroke-width:1.0;" width="10" x="426.5" y="366.0313"/><rect fill="#FFFFFF" height="30.3516" style="stroke:#181818;stroke-width:1.0;" width="10" x="592" y="214.2734"/><rect fill="#FFFFFF" height="30.3516" style="stroke:#181818;stroke-width:1.0;" width="10" x="592" y="396.3828"/><rect fill="none" height="155.5938" style="stroke:#000000;stroke-width:1.5;" width="509" x="10" y="441.7344"/><line style="stroke:#181818;stroke-width:0.5;stroke-dasharray:5.0,5.0;" x1="37" x2="37" y1="121.2188" y2="614.3281"/><line style="stroke:#181818;stroke-width:0.5;stroke-dasharray:5.0,5.0;" x1="241.5" x2="241.5" y1="121.2188" y2="614.3281"/><line style="stroke:#181818;stroke-width:0.5;stroke-dasharray:5.0,5.0;" x1="431" x2="431" y1="121.2188" y2="614.3281"/><line style="stroke:#181818;stroke-width:0.5;stroke-dasharray:5.0,5.0;" x1="597" x2="597" y1="121.2188" y2="614.3281"/><text fill="#000000" font-family="sans-serif" font-size="14" lengthAdjust="spacing" textLength="29" x="20" y="118.1426">User</text><ellipse cx="37.5" cy="52.1094" fill="#E3E3E3" rx="8" ry="8" style="stroke:#181818;stroke-width:0.5;"/><path d="M37.5,60.1094 L37.5,87.1094 M24.5,68.1094 L50.5,68.1094 M37.5,87.1094 L24.5,102.1094 M37.5,87.1094 L50.5,102.1094 " fill="none" style="stroke:#181818;stroke-width:0.5;"/><text fill="#000000" font-family="sans-serif" font-size="14" lengthAdjust="spacing" textLength="29" x="20" y="627.8613">User</text><ellipse cx="37.5" cy="639.4375" fill="#E3E3E3" rx="8" ry="8" style="stroke:#181818;stroke-width:0.5;"/><path d="M37.5,647.4375 L37.5,674.4375 M24.5,655.4375 L50.5,655.4375 M37.5,674.4375 L24.5,689.4375 M37.5,674.4375 L50.5,689.4375 " fill="none" style="stroke:#181818;stroke-width:0.5;"/><rect fill="#E3E3E3" height="31.6094" rx="2.5" ry="2.5" style="stroke:#181818;stroke-width:0.5;" width="172" x="155.5" y="88.6094"/><text fill="#000000" font-family="sans-serif" font-size="14" lengthAdjust="spacing" textLength="158" x="162.5" y="110.1426">Frontend (React, Refine)</text><rect fill="#E3E3E3" height="31.6094" rx="2.5" ry="2.5" style="stroke:#181818;stroke-width:0.5;" width="172" x="155.5" y="613.3281"/><text fill="#000000" font-family="sans-serif" font-size="14" lengthAdjust="spacing" textLength="158" x="162.5" y="634.8613">Frontend (React, Refine)</text><rect fill="#E3E3E3" height="31.6094" rx="2.5" ry="2.5" style="stroke:#181818;stroke-width:0.5;" width="155" x="354" y="88.6094"/><text fill="#000000" font-family="sans-serif" font-size="14" lengthAdjust="spacing" textLength="141" x="361" y="110.1426">Backend (Node.js API)</text><rect fill="#E3E3E3" height="31.6094" rx="2.5" ry="2.5" style="stroke:#181818;stroke-width:0.5;" width="155" x="354" y="613.3281"/><text fill="#000000" font-family="sans-serif" font-size="14" lengthAdjust="spacing" textLength="141" x="361" y="634.8613">Backend (Node.js API)</text><rect fill="#E3E3E3" height="31.6094" rx="2.5" ry="2.5" style="stroke:#181818;stroke-width:0.5;" width="156" x="519" y="88.6094"/><text fill="#000000" font-family="sans-serif" font-size="14" lengthAdjust="spacing" textLength="142" x="526" y="110.1426">PostgreSQL Database</text><rect fill="#E3E3E3" height="31.6094" rx="2.5" ry="2.5" style="stroke:#181818;stroke-width:0.5;" width="156" x="519" y="613.3281"/><text fill="#000000" font-family="sans-serif" font-size="14" lengthAdjust="spacing" textLength="142" x="526" y="634.8613">PostgreSQL Database</text><rect fill="#FFFFFF" height="474.1094" style="stroke:#181818;stroke-width:1.0;" width="10" x="32.5" y="131.2188"/><rect fill="#FFFFFF" height="450.7578" style="stroke:#181818;stroke-width:1.0;" width="10" x="236.5" y="153.5703"/><rect fill="#FFFFFF" height="91.0547" style="stroke:#181818;stroke-width:1.0;" width="10" x="426.5" y="183.9219"/><rect fill="#FFFFFF" height="238.2969" style="stroke:#181818;stroke-width:1.0;" width="10" x="426.5" y="366.0313"/><rect fill="#FFFFFF" height="30.3516" style="stroke:#181818;stroke-width:1.0;" width="10" x="592" y="214.2734"/><rect fill="#FFFFFF" height="30.3516" style="stroke:#181818;stroke-width:1.0;" width="10" x="592" y="396.3828"/><polygon fill="#181818" points="224.5,149.5703,234.5,153.5703,224.5,157.5703,228.5,153.5703" style="stroke:#181818;stroke-width:1.0;"/><line style="stroke:#181818;stroke-width:1.0;" x1="42.5" x2="230.5" y1="153.5703" y2="153.5703"/><text fill="#000000" font-family="sans-serif" font-size="13" lengthAdjust="spacing" textLength="163" x="49.5" y="148.7139">Requests to delete an entity</text><polygon fill="#181818" points="414.5,179.9219,424.5,183.9219,414.5,187.9219,418.5,183.9219" style="stroke:#181818;stroke-width:1.0;"/><line style="stroke:#181818;stroke-width:1.0;" x1="246.5" x2="420.5" y1="183.9219" y2="183.9219"/><text fill="#000000" font-family="sans-serif" font-size="13" lengthAdjust="spacing" textLength="76" x="253.5" y="179.0654">GET /entities</text><polygon fill="#181818" points="580,210.2734,590,214.2734,580,218.2734,584,214.2734" style="stroke:#181818;stroke-width:1.0;"/><line style="stroke:#181818;stroke-width:1.0;" x1="436.5" x2="586" y1="214.2734" y2="214.2734"/><text fill="#000000" font-family="sans-serif" font-size="13" lengthAdjust="spacing" textLength="92" x="443.5" y="209.417">Query entity list</text><polygon fill="#181818" points="447.5,240.625,437.5,244.625,447.5,248.625,443.5,244.625" style="stroke:#181818;stroke-width:1.0;"/><line style="stroke:#181818;stroke-width:1.0;stroke-dasharray:2.0,2.0;" x1="441.5" x2="596" y1="244.625" y2="244.625"/><text fill="#000000" font-family="sans-serif" font-size="13" lengthAdjust="spacing" textLength="95" x="453.5" y="239.7686">Return entity list</text><polygon fill="#181818" points="257.5,270.9766,247.5,274.9766,257.5,278.9766,253.5,274.9766" style="stroke:#181818;stroke-width:1.0;"/><line style="stroke:#181818;stroke-width:1.0;" x1="251.5" x2="430.5" y1="274.9766" y2="274.9766"/><text fill="#000000" font-family="sans-serif" font-size="13" lengthAdjust="spacing" textLength="55" x="263.5" y="270.1201">Entity list</text><polygon fill="#181818" points="53.5,301.3281,43.5,305.3281,53.5,309.3281,49.5,305.3281" style="stroke:#181818;stroke-width:1.0;"/><line style="stroke:#181818;stroke-width:1.0;" x1="47.5" x2="235.5" y1="305.3281" y2="305.3281"/><text fill="#000000" font-family="sans-serif" font-size="13" lengthAdjust="spacing" textLength="107" x="59.5" y="300.4717">Displays entity list</text><polygon fill="#181818" points="224.5,331.6797,234.5,335.6797,224.5,339.6797,228.5,335.6797" style="stroke:#181818;stroke-width:1.0;"/><line style="stroke:#181818;stroke-width:1.0;" x1="42.5" x2="230.5" y1="335.6797" y2="335.6797"/><text fill="#000000" font-family="sans-serif" font-size="13" lengthAdjust="spacing" textLength="102" x="49.5" y="330.8232">Selects entity {id}</text><polygon fill="#181818" points="414.5,362.0313,424.5,366.0313,414.5,370.0313,418.5,366.0313" style="stroke:#181818;stroke-width:1.0;"/><line style="stroke:#181818;stroke-width:1.0;" x1="246.5" x2="420.5" y1="366.0313" y2="366.0313"/><text fill="#000000" font-family="sans-serif" font-size="13" lengthAdjust="spacing" textLength="112" x="253.5" y="361.1748">DELETE /entity/{id}</text><polygon fill="#181818" points="580,392.3828,590,396.3828,580,400.3828,584,396.3828" style="stroke:#181818;stroke-width:1.0;"/><line style="stroke:#181818;stroke-width:1.0;" x1="436.5" x2="586" y1="396.3828" y2="396.3828"/><text fill="#000000" font-family="sans-serif" font-size="13" lengthAdjust="spacing" textLength="113" x="443.5" y="391.5264">Delete entity record</text><polygon fill="#181818" points="447.5,422.7344,437.5,426.7344,447.5,430.7344,443.5,426.7344" style="stroke:#181818;stroke-width:1.0;"/><line style="stroke:#181818;stroke-width:1.0;stroke-dasharray:2.0,2.0;" x1="441.5" x2="596" y1="426.7344" y2="426.7344"/><text fill="#000000" font-family="sans-serif" font-size="13" lengthAdjust="spacing" textLength="70" x="453.5" y="421.8779">Status code</text><path d="M10,441.7344 L71,441.7344 L71,450.0859 L61,460.0859 L10,460.0859 L10,441.7344 " fill="#EEEEEE" style="stroke:#000000;stroke-width:1.5;"/><rect fill="none" height="155.5938" style="stroke:#000000;stroke-width:1.5;" width="509" x="10" y="441.7344"/><text fill="#000000" font-family="sans-serif" font-size="13" font-weight="bold" lengthAdjust="spacing" textLength="16" x="25" y="456.2295">alt</text><text fill="#000000" font-family="sans-serif" font-size="11" font-weight="bold" lengthAdjust="spacing" textLength="98" x="86" y="455.1533">[successful case]</text><polygon fill="#181818" points="257.5,478.4375,247.5,482.4375,257.5,486.4375,253.5,482.4375" style="stroke:#181818;stroke-width:1.0;"/><line style="stroke:#181818;stroke-width:1.0;" x1="251.5" x2="425.5" y1="482.4375" y2="482.4375"/><text fill="#000000" font-family="sans-serif" font-size="13" lengthAdjust="spacing" textLength="156" x="263.5" y="477.5811">Entity deleted successfully</text><polygon fill="#181818" points="53.5,508.7891,43.5,512.7891,53.5,516.7891,49.5,512.7891" style="stroke:#181818;stroke-width:1.0;"/><line style="stroke:#181818;stroke-width:1.0;" x1="47.5" x2="235.5" y1="512.7891" y2="512.7891"/><text fill="#000000" font-family="sans-serif" font-size="13" lengthAdjust="spacing" textLength="170" x="59.5" y="507.9326">Entity is deleted successfully</text><line style="stroke:#000000;stroke-width:1.0;stroke-dasharray:2.0,2.0;" x1="10" x2="519" y1="521.7891" y2="521.7891"/><text fill="#000000" font-family="sans-serif" font-size="11" font-weight="bold" lengthAdjust="spacing" textLength="72" x="15" y="533.208">[failure case]</text><polygon fill="#181818" points="257.5,554.9766,247.5,558.9766,257.5,562.9766,253.5,558.9766" style="stroke:#181818;stroke-width:1.0;"/><line style="stroke:#181818;stroke-width:1.0;" x1="251.5" x2="425.5" y1="558.9766" y2="558.9766"/><text fill="#000000" font-family="sans-serif" font-size="13" lengthAdjust="spacing" textLength="117" x="263.5" y="554.1201">Entity deletion failed</text><polygon fill="#181818" points="53.5,585.3281,43.5,589.3281,53.5,593.3281,49.5,589.3281" style="stroke:#181818;stroke-width:1.0;"/><line style="stroke:#181818;stroke-width:1.0;" x1="47.5" x2="235.5" y1="589.3281" y2="589.3281"/><text fill="#000000" font-family="sans-serif" font-size="13" lengthAdjust="spacing" textLength="116" x="59.5" y="584.4717">Entity is not deleted</text><!--SRC=[ZPF1RjGm48RlUOhHda2YhSHn3qXT9KL82zfkoWCCzcngwjgBPr8K8TwTYPDq4rWAEKHH_Fqp__os-S658oPyX8ynH7EVuYE1f9OAVbxPeNd0XchfF44Y8nWQFmVgUxJnkmiD7D0p5OKuKRIcRoq5Gr0wR9HRGrbjgxiAjlH47juM1Hg92LQVcT8AaA7_ABIcEEEE60HMDoa6eM3XrPwKVWDxEhX0hpDUxwwNz4QTPlXJj7JvbU5wzs50nvKbleiiJQBwTWib2dv1fWoNcspDFQ7GuAb_mSMxlYEirOCEni8W4InvKWe3KD2nkvEmTzVpAfjyhU5zTGTNcNJ49tQoDu6gAJUAtxQKkh4oUCToagX9HIuMrVSaRGeBtj9SCQi_Z5ATHoS_e_yylcwVuwF7ZXSDbj7K6eUHP-A7ip__364y1aCEtLM6_Xb5EGGz5jPZ69DzEOrQK5e6esVXjnZG2t1h334VMWz6Dxu0VVuMpx39TgRnNHOiynbfn-S5f7T3RuZpRQB_xEbYo0goBxOBKQQMHP_TcPsS_UeFvYy0]--></g></svg>