<?xml version="1.0" encoding="us-ascii" standalone="no"?><svg xmlns="http://www.w3.org/2000/svg" xmlns:xlink="http://www.w3.org/1999/xlink" contentStyleType="text/css" height="2123px" preserveAspectRatio="none" style="width:739px;height:2123px;background:#FFFFFF;" version="1.1" viewBox="0 0 739 2123" width="739px" zoomAndPan="magnify"><defs/><g><!--cluster Energy Community Platform--><g id="cluster_Energy Community Platform"><rect fill="none" height="2110" rx="2.5" ry="2.5" style="stroke:#181818;stroke-width:1.0;" width="389" x="344" y="7"/><text fill="#000000" font-family="sans-serif" font-size="14" font-weight="bold" lengthAdjust="spacing" textLength="192" x="442.5" y="23.5332">Energy Community Platform</text></g><!--cluster Admin Management--><g id="cluster_Admin Management"><path d="M391.5,51 L530.5,51 A3.75,3.75 0 0 1 533,53.5 L540,74.6094 L685.5,74.6094 A2.5,2.5 0 0 1 688,77.1094 L688,458.5 A2.5,2.5 0 0 1 685.5,461 L391.5,461 A2.5,2.5 0 0 1 389,458.5 L389,53.5 A2.5,2.5 0 0 1 391.5,51 " fill="none" style="stroke:#000000;stroke-width:1.5;"/><line style="stroke:#000000;stroke-width:1.5;" x1="389" x2="540" y1="74.6094" y2="74.6094"/><text fill="#000000" font-family="sans-serif" font-size="14" font-weight="bold" lengthAdjust="spacing" textLength="138" x="393" y="67.5332">Admin Management</text></g><!--cluster Account Management--><g id="cluster_Account Management"><path d="M415,985 L568,985 A3.75,3.75 0 0 1 570.5,987.5 L577.5,1008.6094 L662,1008.6094 A2.5,2.5 0 0 1 664.5,1011.1094 L664.5,1311.5 A2.5,2.5 0 0 1 662,1314 L415,1314 A2.5,2.5 0 0 1 412.5,1311.5 L412.5,987.5 A2.5,2.5 0 0 1 415,985 " fill="none" style="stroke:#000000;stroke-width:1.5;"/><line style="stroke:#000000;stroke-width:1.5;" x1="412.5" x2="577.5" y1="1008.6094" y2="1008.6094"/><text fill="#000000" font-family="sans-serif" font-size="14" font-weight="bold" lengthAdjust="spacing" textLength="152" x="416.5" y="1001.5332">Account Management</text></g><!--cluster Energy Management for Prosumer--><g id="cluster_Energy Management for Prosumer"><path d="M370.5,485 L611.5,485 A3.75,3.75 0 0 1 614,487.5 L621,508.6094 L706.5,508.6094 A2.5,2.5 0 0 1 709,511.1094 L709,958.5 A2.5,2.5 0 0 1 706.5,961 L370.5,961 A2.5,2.5 0 0 1 368,958.5 L368,487.5 A2.5,2.5 0 0 1 370.5,485 " fill="none" style="stroke:#000000;stroke-width:1.5;"/><line style="stroke:#000000;stroke-width:1.5;" x1="368" x2="621" y1="508.6094" y2="508.6094"/><text fill="#000000" font-family="sans-serif" font-size="14" font-weight="bold" lengthAdjust="spacing" textLength="240" x="372" y="501.5332">Energy Management for Prosumer</text></g><!--cluster Community Management--><g id="cluster_Community Management"><path d="M374,1338 L547,1338 A3.75,3.75 0 0 1 549.5,1340.5 L556.5,1361.6094 L703,1361.6094 A2.5,2.5 0 0 1 705.5,1364.1094 L705.5,2090.5 A2.5,2.5 0 0 1 703,2093 L374,2093 A2.5,2.5 0 0 1 371.5,2090.5 L371.5,1340.5 A2.5,2.5 0 0 1 374,1338 " fill="none" style="stroke:#000000;stroke-width:1.5;"/><line style="stroke:#000000;stroke-width:1.5;" x1="371.5" x2="556.5" y1="1361.6094" y2="1361.6094"/><text fill="#000000" font-family="sans-serif" font-size="14" font-weight="bold" lengthAdjust="spacing" textLength="172" x="375.5" y="1354.5332">Community Management</text></g><g id="elem_UC1"><ellipse cx="538.6819" cy="283.1364" fill="#F1F1F1" rx="78.6819" ry="18.1364" style="stroke:#181818;stroke-width:0.5;"/><text fill="#000000" font-family="sans-serif" font-size="14" lengthAdjust="spacing" textLength="111" x="481.5947" y="287.3083">UC1: Create User</text></g><g id="elem_UC2"><ellipse cx="538.4775" cy="354.7955" fill="#F1F1F1" rx="79.4775" ry="18.2955" style="stroke:#181818;stroke-width:0.5;"/><text fill="#000000" font-family="sans-serif" font-size="14" lengthAdjust="spacing" textLength="113" x="480.756" y="358.8709">UC2: Update User</text></g><g id="elem_UC3"><ellipse cx="538.396" cy="426.9792" fill="#F1F1F1" rx="77.896" ry="17.9792" style="stroke:#181818;stroke-width:0.5;"/><text fill="#000000" font-family="sans-serif" font-size="14" lengthAdjust="spacing" textLength="109" x="481.9355" y="431.2466">UC3: Delete User</text></g><g id="elem_UC4"><ellipse cx="538.641" cy="116.1282" fill="#F1F1F1" rx="133.641" ry="29.1282" style="stroke:#181818;stroke-width:0.5;"/><text fill="#000000" font-family="sans-serif" font-size="14" lengthAdjust="spacing" textLength="234" x="421.641" y="119.8567">UC4: Manage Roles and Permissions</text></g><g id="elem_UC5"><ellipse cx="538.5226" cy="204.8045" fill="#F1F1F1" rx="109.5226" ry="24.3045" style="stroke:#181818;stroke-width:0.5;"/><text fill="#000000" font-family="sans-serif" font-size="14" lengthAdjust="spacing" textLength="182" x="447.5226" y="208.533">UC5: Monitor Platform Usage</text></g><g id="elem_UC6"><ellipse cx="538.6309" cy="1126.8262" fill="#F1F1F1" rx="92.1309" ry="20.8262" style="stroke:#181818;stroke-width:0.5;"/><text fill="#000000" font-family="sans-serif" font-size="14" lengthAdjust="spacing" textLength="143" x="467.1309" y="1130.5547">UC6: Register Account</text></g><g id="elem_UC7"><ellipse cx="538.6756" cy="1203.1351" fill="#F1F1F1" rx="88.6756" ry="20.1351" style="stroke:#181818;stroke-width:0.5;"/><text fill="#000000" font-family="sans-serif" font-size="14" lengthAdjust="spacing" textLength="135" x="471.1756" y="1206.8636">UC7: Update Account</text></g><g id="elem_UC8"><ellipse cx="538.4661" cy="1277.7932" fill="#F1F1F1" rx="86.9661" ry="19.7932" style="stroke:#181818;stroke-width:0.5;"/><text fill="#000000" font-family="sans-serif" font-size="14" lengthAdjust="spacing" textLength="131" x="472.9661" y="1281.5217">UC8: Delete Account</text></g><g id="elem_UC9"><ellipse cx="538.4781" cy="1045.8956" fill="#F1F1F1" rx="109.9781" ry="24.3956" style="stroke:#181818;stroke-width:0.5;"/><text fill="#000000" font-family="sans-serif" font-size="14" lengthAdjust="spacing" textLength="183" x="446.9781" y="1049.6241">UC9: Join Energy Community</text></g><g id="elem_UC10"><ellipse cx="538.5894" cy="839.2179" fill="#F1F1F1" rx="104.0894" ry="23.2179" style="stroke:#181818;stroke-width:0.5;"/><text fill="#000000" font-family="sans-serif" font-size="14" lengthAdjust="spacing" textLength="170" x="453.5894" y="842.9464">UC10: Upload Energy Data</text></g><g id="elem_UC11"><ellipse cx="538.5397" cy="920.8079" fill="#F1F1F1" rx="104.5397" ry="23.3079" style="stroke:#181818;stroke-width:0.5;"/><text fill="#000000" font-family="sans-serif" font-size="14" lengthAdjust="spacing" textLength="171" x="453.0397" y="924.5365">UC11: Update Energy Data</text></g><g id="elem_UC12"><ellipse cx="538.5301" cy="551.906" fill="#F1F1F1" rx="140.0301" ry="30.406" style="stroke:#181818;stroke-width:0.5;"/><text fill="#000000" font-family="sans-serif" font-size="14" lengthAdjust="spacing" textLength="191" x="441.0301" y="546.8299">UC12: Analyse Energy Trends</text><text fill="#000000" font-family="sans-serif" font-size="14" lengthAdjust="spacing" textLength="198" x="439.5301" y="564.4392">(define x, y values and relation)</text></g><g id="elem_UC13"><ellipse cx="538.5357" cy="650.8071" fill="#F1F1F1" rx="154.5357" ry="33.3071" style="stroke:#181818;stroke-width:0.5;"/><text fill="#000000" font-family="sans-serif" font-size="14" lengthAdjust="spacing" textLength="278" x="399.5357" y="654.5357">UC13: View Consumption/Production History</text></g><g id="elem_UC17"><ellipse cx="538.6734" cy="750.2347" fill="#F1F1F1" rx="141.6734" ry="30.7347" style="stroke:#181818;stroke-width:0.5;"/><text fill="#000000" font-family="sans-serif" font-size="14" lengthAdjust="spacing" textLength="251" x="413.1734" y="753.9632">UC17: View Cost/Revenue from Trading</text></g><g id="elem_UC18"><ellipse cx="538.4467" cy="1966.7893" fill="#F1F1F1" rx="121.9467" ry="26.7893" style="stroke:#181818;stroke-width:0.5;"/><text fill="#000000" font-family="sans-serif" font-size="14" lengthAdjust="spacing" textLength="209" x="433.9467" y="1970.5179">UC18: Create Energy Community</text></g><g id="elem_UC19"><ellipse cx="538.2982" cy="2052.7596" fill="#F1F1F1" rx="106.7982" ry="23.7596" style="stroke:#181818;stroke-width:0.5;"/><text fill="#000000" font-family="sans-serif" font-size="14" lengthAdjust="spacing" textLength="176" x="450.2982" y="2056.4882">UC19: Add Community Data</text></g><g id="elem_UC20"><ellipse cx="538.6901" cy="1407.138" fill="#F1F1F1" rx="151.1901" ry="32.638" style="stroke:#181818;stroke-width:0.5;"/><text fill="#000000" font-family="sans-serif" font-size="14" lengthAdjust="spacing" textLength="271" x="403.1901" y="1410.8665">UC20: Analyse Community Energy Balance</text></g><g id="elem_UC21"><ellipse cx="538.5948" cy="1500.219" fill="#F1F1F1" rx="114.0948" ry="25.219" style="stroke:#181818;stroke-width:0.5;"/><text fill="#000000" font-family="sans-serif" font-size="14" lengthAdjust="spacing" textLength="192" x="442.5948" y="1503.9475">UC21: Delete Community Data</text></g><g id="elem_UC22"><ellipse cx="538.2597" cy="1588.7519" fill="#F1F1F1" rx="131.7597" ry="28.7519" style="stroke:#181818;stroke-width:0.5;"/><text fill="#000000" font-family="sans-serif" font-size="14" lengthAdjust="spacing" textLength="230" x="423.2597" y="1592.4805">UC22: Manage Community Members</text></g><g id="elem_UC23"><ellipse cx="538.7297" cy="1681.8459" fill="#F1F1F1" rx="132.2297" ry="28.8459" style="stroke:#181818;stroke-width:0.5;"/><text fill="#000000" font-family="sans-serif" font-size="14" lengthAdjust="spacing" textLength="231" x="423.2297" y="1685.5745">UC23: Generate Community Reports</text></g><g id="elem_UC24"><ellipse cx="538.2783" cy="1776.8557" fill="#F1F1F1" rx="139.7783" ry="30.3557" style="stroke:#181818;stroke-width:0.5;"/><text fill="#000000" font-family="sans-serif" font-size="14" lengthAdjust="spacing" textLength="247" x="414.7783" y="1780.5842">UC24: Configure Energy Sharing Rules</text></g><g id="elem_UC25"><ellipse cx="538.5463" cy="1874.2093" fill="#F1F1F1" rx="144.0463" ry="31.2093" style="stroke:#181818;stroke-width:0.5;"/><text fill="#000000" font-family="sans-serif" font-size="14" lengthAdjust="spacing" textLength="256" x="410.5463" y="1877.9378">UC25: Monitor Energy Sharing Efficiency</text></g><!--entity Admin--><g id="elem_Admin"><ellipse cx="277.5" cy="252.5" fill="#F1F1F1" rx="8" ry="8" style="stroke:#181818;stroke-width:0.5;"/><path d="M277.5,260.5 L277.5,287.5 M264.5,268.5 L290.5,268.5 M277.5,287.5 L264.5,302.5 M277.5,287.5 L290.5,302.5 " fill="none" style="stroke:#181818;stroke-width:0.5;"/><text fill="#000000" font-family="sans-serif" font-size="14" lengthAdjust="spacing" textLength="39" x="258" y="318.5332">Admin</text></g><!--entity User--><g id="elem_User"><ellipse cx="277.5" cy="1143.5" fill="#F1F1F1" rx="8" ry="8" style="stroke:#181818;stroke-width:0.5;"/><path d="M277.5,1151.5 L277.5,1178.5 M264.5,1159.5 L290.5,1159.5 M277.5,1178.5 L264.5,1193.5 M277.5,1178.5 L290.5,1193.5 " fill="none" style="stroke:#181818;stroke-width:0.5;"/><text fill="#000000" font-family="sans-serif" font-size="14" lengthAdjust="spacing" textLength="29" x="263" y="1209.5332">User</text></g><!--entity Prosumer--><g id="elem_Prosumer"><ellipse cx="71" cy="764.5" fill="#F1F1F1" rx="8" ry="8" style="stroke:#181818;stroke-width:0.5;"/><path d="M71,772.5 L71,799.5 M58,780.5 L84,780.5 M71,799.5 L58,814.5 M71,799.5 L84,814.5 " fill="none" style="stroke:#181818;stroke-width:0.5;"/><text fill="#000000" font-family="sans-serif" font-size="14" lengthAdjust="spacing" textLength="61" x="40.5" y="830.5332">Prosumer</text></g><!--entity CM--><g id="elem_CM"><ellipse cx="71" cy="1651.5" fill="#F1F1F1" rx="8" ry="8" style="stroke:#181818;stroke-width:0.5;"/><path d="M71,1659.5 L71,1686.5 M58,1667.5 L84,1667.5 M71,1686.5 L58,1701.5 M71,1686.5 L84,1701.5 " fill="none" style="stroke:#181818;stroke-width:0.5;"/><text fill="#000000" font-family="sans-serif" font-size="14" lengthAdjust="spacing" textLength="130" x="6" y="1717.5332">Community Manager</text></g><!--link Prosumer to User--><g id="link_Prosumer_User"><path d="M93.11,834.13 C135.06,911.86 219.2835,1067.9584 254.2535,1132.7784 " fill="none" id="Prosumer-to-User" style="stroke:#181818;stroke-width:1.0;"/><polygon fill="none" points="262.8,1148.62,259.5341,1129.9295,248.973,1135.6272,262.8,1148.62" style="stroke:#181818;stroke-width:1.0;"/><text fill="#000000" font-family="sans-serif" font-size="13" lengthAdjust="spacing" textLength="60" x="167" y="970.4951">&#171;extends&#187;</text></g><!--link CM to User--><g id="link_CM_User"><path d="M82.59,1642.84 C98.31,1586.47 129.87,1479.58 166,1392 C196.1,1319.04 231.957,1252.7037 254.147,1213.3037 " fill="none" id="CM-to-User" style="stroke:#181818;stroke-width:1.0;"/><polygon fill="none" points="262.98,1197.62,248.9191,1210.3593,259.3749,1216.248,262.98,1197.62" style="stroke:#181818;stroke-width:1.0;"/><text fill="#000000" font-family="sans-serif" font-size="13" lengthAdjust="spacing" textLength="60" x="167" y="1263.4951">&#171;extends&#187;</text></g><!--link Admin to UC1--><g id="link_Admin_UC1"><path d="M297.13,283 C330.71,283 397.16,283 453.79,283 " fill="none" id="Admin-to-UC1" style="stroke:#181818;stroke-width:1.0;"/><polygon fill="#181818" points="459.79,283,450.79,279,454.79,283,450.79,287,459.79,283" style="stroke:#181818;stroke-width:1.0;"/></g><!--link Admin to UC2--><g id="link_Admin_UC2"><path d="M297.02,296.68 C307.87,304.06 322.13,312.71 336,318 C377.04,333.65 419.4343,342.0046 458.4843,347.2946 " fill="none" id="Admin-to-UC2" style="stroke:#181818;stroke-width:1.0;"/><polygon fill="#181818" points="464.43,348.1,456.0484,342.928,459.4753,347.4288,454.9745,350.8556,464.43,348.1" style="stroke:#181818;stroke-width:1.0;"/></g><!--link Admin to UC3--><g id="link_Admin_UC3"><path d="M289.65,322.06 C298.42,345.66 313.07,374.31 336,391 C371.63,416.93 414.0328,425.7976 454.4628,428.4476 " fill="none" id="Admin-to-UC3" style="stroke:#181818;stroke-width:1.0;"/><polygon fill="#181818" points="460.45,428.84,451.7309,424.2599,455.4607,428.513,451.2077,432.2428,460.45,428.84" style="stroke:#181818;stroke-width:1.0;"/></g><!--link Admin to UC4--><g id="link_Admin_UC4"><path d="M287.69,243.89 C295.95,217.24 310.78,183.25 336,163 C358.34,145.06 380.4943,135.2158 408.4343,128.1258 " fill="none" id="Admin-to-UC4" style="stroke:#181818;stroke-width:1.0;"/><polygon fill="#181818" points="414.25,126.65,404.5426,124.9865,409.4036,127.8798,406.5103,132.7408,414.25,126.65" style="stroke:#181818;stroke-width:1.0;"/></g><!--link Admin to UC5--><g id="link_Admin_UC5"><path d="M297.02,269.04 C307.86,261.49 322.12,252.58 336,247 C370.06,233.3 403.3504,224.9232 438.0504,218.4932 " fill="none" id="Admin-to-UC5" style="stroke:#181818;stroke-width:1.0;"/><polygon fill="#181818" points="443.95,217.4,434.3718,215.1068,439.0337,218.311,435.8295,222.9729,443.95,217.4" style="stroke:#181818;stroke-width:1.0;"/></g><!--link User to UC6--><g id="link_User_UC6"><path d="M292.32,1168.73 C301.93,1165.25 315.09,1160.82 327,1158 C368.7,1148.13 409.8789,1141.6046 448.9489,1136.5846 " fill="none" id="User-to-UC6" style="stroke:#181818;stroke-width:1.0;"/><polygon fill="#181818" points="454.9,1135.82,445.4636,1132.9996,449.9408,1136.4572,446.4831,1140.9343,454.9,1135.82" style="stroke:#181818;stroke-width:1.0;"/></g><!--link User to UC7--><g id="link_User_UC7"><path d="M292.06,1175.52 C322.71,1178.95 393.3472,1186.863 452.8872,1193.523 " fill="none" id="User-to-UC7" style="stroke:#181818;stroke-width:1.0;"/><polygon fill="#181818" points="458.85,1194.19,450.3504,1189.2143,453.881,1193.6342,449.4611,1197.1647,458.85,1194.19" style="stroke:#181818;stroke-width:1.0;"/></g><!--link User to UC8--><g id="link_User_UC8"><path d="M292.07,1196.18 C302.29,1210.94 317.67,1229.5 336,1240 C371.21,1260.17 409.064,1269.1946 446.834,1273.7946 " fill="none" id="User-to-UC8" style="stroke:#181818;stroke-width:1.0;"/><polygon fill="#181818" points="452.79,1274.52,444.3396,1269.4613,447.8267,1273.9155,443.3724,1277.4026,452.79,1274.52" style="stroke:#181818;stroke-width:1.0;"/></g><!--link User to UC9--><g id="link_User_UC9"><path d="M292.07,1142.35 C301.67,1123.71 316.35,1101.26 336,1088 C364.14,1069.01 393.2452,1059.4046 426.1352,1053.4746 " fill="none" id="User-to-UC9" style="stroke:#181818;stroke-width:1.0;"/><polygon fill="#181818" points="432.04,1052.41,422.4731,1050.0704,427.1193,1053.2972,423.8926,1057.9435,432.04,1052.41" style="stroke:#181818;stroke-width:1.0;"/></g><!--link Prosumer to UC10--><g id="link_Prosumer_UC10"><path d="M101.83,797.82 C169.25,804.19 329.8366,819.3754 436.3766,829.4454 " fill="none" id="Prosumer-to-UC10" style="stroke:#181818;stroke-width:1.0;"/><polygon fill="#181818" points="442.35,830.01,433.7663,825.1809,437.3722,829.5395,433.0135,833.1454,442.35,830.01" style="stroke:#181818;stroke-width:1.0;"/></g><!--link Prosumer to UC11--><g id="link_Prosumer_UC11"><path d="M101.8,805.59 C150.39,822.6 249.94,856.4 336,879 C375.57,889.39 414.1736,897.728 451.2536,905.048 " fill="none" id="Prosumer-to-UC11" style="stroke:#181818;stroke-width:1.0;"/><polygon fill="#181818" points="457.14,906.21,449.0851,900.5427,452.2347,905.2416,447.5357,908.3912,457.14,906.21" style="stroke:#181818;stroke-width:1.0;"/></g><!--link Prosumer to UC12--><g id="link_Prosumer_UC12"><path d="M101.65,766.05 C147.73,722.8 241.15,641.94 336,600 C364.61,587.35 391.2098,579.1254 421.5698,571.9754 " fill="none" id="Prosumer-to-UC12" style="stroke:#181818;stroke-width:1.0;"/><polygon fill="#181818" points="427.41,570.6,417.7327,568.7696,422.5431,571.7462,419.5666,576.5566,427.41,570.6" style="stroke:#181818;stroke-width:1.0;"/></g><!--link Prosumer to UC13--><g id="link_Prosumer_UC13"><path d="M101.6,780.14 C119.88,771.29 143.98,760.23 166,752 C252.72,719.6 348.5033,694.0903 423.5233,676.2203 " fill="none" id="Prosumer-to-UC13" style="stroke:#181818;stroke-width:1.0;"/><polygon fill="#181818" points="429.36,674.83,419.6781,673.0243,424.4961,675.9886,421.5318,680.8066,429.36,674.83" style="stroke:#181818;stroke-width:1.0;"/></g><!--link Prosumer to UC17--><g id="link_Prosumer_UC17"><path d="M101.57,790.1 C120.05,787.15 144.37,783.51 166,781 C244.43,771.9 326.4969,764.8803 397.1869,759.5603 " fill="none" id="Prosumer-to-UC17" style="stroke:#181818;stroke-width:1.0;"/><polygon fill="#181818" points="403.17,759.11,393.8952,755.7967,398.1841,759.4852,394.4956,763.7741,403.17,759.11" style="stroke:#181818;stroke-width:1.0;"/></g><!--link CM to UC18--><g id="link_CM_UC18"><path d="M102.64,1721.28 C147.55,1775.83 236.73,1873.3 336,1922 C365.93,1936.68 394.8272,1945.401 426.9872,1952.131 " fill="none" id="CM-to-UC18" style="stroke:#181818;stroke-width:1.0;"/><polygon fill="#181818" points="432.86,1953.36,424.8701,1947.6013,427.966,1952.3359,423.2315,1955.4317,432.86,1953.36" style="stroke:#181818;stroke-width:1.0;"/></g><!--link CM to UC19--><g id="link_CM_UC19"><path d="M88.36,1721.11 C104.9,1758.15 132.71,1814.3 166,1857 C228.87,1937.63 244.84,1965.69 336,2012 C367.75,2028.13 399.4392,2036.8795 433.5092,2042.8195 " fill="none" id="CM-to-UC19" style="stroke:#181818;stroke-width:1.0;"/><polygon fill="#181818" points="439.42,2043.85,431.2408,2038.3636,434.4943,2042.9912,429.8667,2046.2448,439.42,2043.85" style="stroke:#181818;stroke-width:1.0;"/></g><!--link CM to UC20--><g id="link_CM_UC20"><path d="M105.09,1642.95 C151.19,1591.37 239.96,1501.83 336,1457 C362.7,1444.54 387.0848,1436.4176 415.8148,1429.1176 " fill="none" id="CM-to-UC20" style="stroke:#181818;stroke-width:1.0;"/><polygon fill="#181818" points="421.63,1427.64,411.9221,1425.9796,416.784,1428.8713,413.8922,1433.7332,421.63,1427.64" style="stroke:#181818;stroke-width:1.0;"/></g><!--link CM to UC21--><g id="link_CM_UC21"><path d="M133.4,1642.86 C144.16,1636.37 155.32,1629.85 166,1624 C239.57,1583.7 256.57,1568.98 336,1542 C370.85,1530.16 404.3877,1522.1819 439.0577,1515.5219 " fill="none" id="CM-to-UC21" style="stroke:#181818;stroke-width:1.0;"/><polygon fill="#181818" points="444.95,1514.39,435.357,1512.1597,440.0398,1515.3332,436.8662,1520.016,444.95,1514.39" style="stroke:#181818;stroke-width:1.0;"/></g><!--link CM to UC22--><g id="link_CM_UC22"><path d="M136.02,1663.45 C146.02,1660.8 156.26,1658.22 166,1656 C254.34,1635.86 349.6893,1618.9023 424.1593,1606.6723 " fill="none" id="CM-to-UC22" style="stroke:#181818;stroke-width:1.0;"/><polygon fill="#181818" points="430.08,1605.7,420.5507,1603.2114,425.1461,1606.5103,421.8472,1611.1056,430.08,1605.7" style="stroke:#181818;stroke-width:1.0;"/></g><!--link CM to UC23--><g id="link_CM_UC23"><path d="M136.24,1682 C205.57,1682 311.91,1682 400.12,1682 " fill="none" id="CM-to-UC23" style="stroke:#181818;stroke-width:1.0;"/><polygon fill="#181818" points="406.12,1682,397.12,1678,401.12,1682,397.12,1686,406.12,1682" style="stroke:#181818;stroke-width:1.0;"/></g><!--link CM to UC24--><g id="link_CM_UC24"><path d="M136.24,1695.11 C213.55,1710.89 338.4713,1736.3799 429.6313,1754.9899 " fill="none" id="CM-to-UC24" style="stroke:#181818;stroke-width:1.0;"/><polygon fill="#181818" points="435.51,1756.19,427.492,1750.4706,430.611,1755.1899,425.8918,1758.309,435.51,1756.19" style="stroke:#181818;stroke-width:1.0;"/></g><!--link CM to UC25--><g id="link_CM_UC25"><path d="M133.3,1721.12 C185.46,1752.94 263.28,1797 336,1825 C365.99,1836.54 393.7248,1844.5933 424.7248,1852.0133 " fill="none" id="CM-to-UC25" style="stroke:#181818;stroke-width:1.0;"/><polygon fill="#181818" points="430.56,1853.41,422.7384,1847.4249,425.6974,1852.2461,420.8761,1855.2051,430.56,1853.41" style="stroke:#181818;stroke-width:1.0;"/></g><!--SRC=[VLNBRjim4BphAnQ-k0LgE9BVHc30TO8K1O86Jj9JBworiedgOP1K4hVDltSbKPHCoiqbvcgMt1tEB6EC5AWC1DyV58HSu4xnBFMyFgntAXFIOyK_M8S9J_NlPub2_tmGcSmJi-njiYJ9KwvESCzIjaVH0oPXS-yD-r11xWGFDVenYrzGG7zeJeCjngmuNnxuKNhrxZ0O_5sLny8Ihg_nJM4QojNAsznV_EGLdR1q7oFqRbCK-nCqnJtGAL4caXxyyJo0VjLUiGric4H9iIFR_Q86e5Tzgjf9C5L53j1VBd57MEWzR_mbR0GoXMKXPSiKj5714fwFeOKARDHe2JSOupbgPAF6IrqHRBCO9R0qX0SK2PUoO4-dZUsq2QLbn41nSve2EeQsqGaJhyoeMXuCLgQDTYHm8YCdCdOY4ugyLsINjzNDzMwNvQdwFzlJ9SbapwMYNNI2BdzgGsU6ydFWp0RE3UldmBaDN2pXQqPDsPBI-4L5ODbXrVVK3ipimDmEB1ggZ0CwwT95D6n1rF9abr2l2aBYZ8Lr0pTCiLgmLmxSD_nrm1s1-wJmTShYapJu9r7O4Nwa7qACU8hmzWbEyCBYN8jMQCD_h7Tr3E6J8xvpV2MkK-hhMA27r6EObvCAlf0ICb5VW5zfaSPDUmkoooEgkgXIyKGJHaZbxR2sYpykPb57EjdcIR3GTFNArS6vUdzo8Plq-esgJlXlFAkWpflMUUsacMbQgk4MNp3D4IAH9MKbFDtNsRDASQrHkMhkqexwdT6WCpegPdRNXt4dVD8PDRtP7sQDnfqterliDkpIB9wRONp1exvZQfzSlGx3LYLjdI-SGNxLwBn9qQTzPZ4ZJTNZtV5Ku9jHqtbSuBuRWHdsBGum-OcYLcxWk2OWrzmXbSJE3jhYCHFAf3dlIa1E8Pz5V9yBG-3ZWGbI76pps7WbSDwMeFMuM8ctKSHtdAnMNq4mwJ1ACArSwb1wbx7Od5iggimk7_zLSw7DUd6-rfVGh7rh7LZhaRKUM-j9ROqcf8LEalRUlNy0]--></g></svg>