<?xml version="1.0" encoding="us-ascii" standalone="no"?><svg xmlns="http://www.w3.org/2000/svg" xmlns:xlink="http://www.w3.org/1999/xlink" contentStyleType="text/css" height="575px" preserveAspectRatio="none" style="width:683px;height:575px;background:#FFFFFF;" version="1.1" viewBox="0 0 683 575" width="683px" zoomAndPan="magnify"><defs/><g><text fill="#000000" font-family="sans-serif" font-size="14" font-weight="bold" lengthAdjust="spacing" textLength="232" x="224.5" y="29.5332">Sequence Diagram: POST Level 2</text><rect fill="#FFFFFF" height="352.7031" style="stroke:#181818;stroke-width:1.0;" width="10" x="32.5" y="131.2188"/><rect fill="#FFFFFF" height="329.3516" style="stroke:#181818;stroke-width:1.0;" width="10" x="237.5" y="153.5703"/><rect fill="#FFFFFF" height="238.2969" style="stroke:#181818;stroke-width:1.0;" width="10" x="428.5" y="244.625"/><rect fill="#FFFFFF" height="30.3516" style="stroke:#181818;stroke-width:1.0;" width="10" x="594" y="274.9766"/><rect fill="none" height="155.5938" style="stroke:#000000;stroke-width:1.5;" width="511" x="10" y="320.3281"/><line style="stroke:#181818;stroke-width:0.5;stroke-dasharray:5.0,5.0;" x1="37" x2="37" y1="121.2188" y2="492.9219"/><line style="stroke:#181818;stroke-width:0.5;stroke-dasharray:5.0,5.0;" x1="242.5" x2="242.5" y1="121.2188" y2="492.9219"/><line style="stroke:#181818;stroke-width:0.5;stroke-dasharray:5.0,5.0;" x1="433" x2="433" y1="121.2188" y2="492.9219"/><line style="stroke:#181818;stroke-width:0.5;stroke-dasharray:5.0,5.0;" x1="599" x2="599" y1="121.2188" y2="492.9219"/><text fill="#000000" font-family="sans-serif" font-size="14" lengthAdjust="spacing" textLength="29" x="20" y="118.1426">User</text><ellipse cx="37.5" cy="52.1094" fill="#E3E3E3" rx="8" ry="8" style="stroke:#181818;stroke-width:0.5;"/><path d="M37.5,60.1094 L37.5,87.1094 M24.5,68.1094 L50.5,68.1094 M37.5,87.1094 L24.5,102.1094 M37.5,87.1094 L50.5,102.1094 " fill="none" style="stroke:#181818;stroke-width:0.5;"/><text fill="#000000" font-family="sans-serif" font-size="14" lengthAdjust="spacing" textLength="29" x="20" y="506.4551">User</text><ellipse cx="37.5" cy="518.0313" fill="#E3E3E3" rx="8" ry="8" style="stroke:#181818;stroke-width:0.5;"/><path d="M37.5,526.0313 L37.5,553.0313 M24.5,534.0313 L50.5,534.0313 M37.5,553.0313 L24.5,568.0313 M37.5,553.0313 L50.5,568.0313 " fill="none" style="stroke:#181818;stroke-width:0.5;"/><rect fill="#E3E3E3" height="31.6094" rx="2.5" ry="2.5" style="stroke:#181818;stroke-width:0.5;" width="172" x="156.5" y="88.6094"/><text fill="#000000" font-family="sans-serif" font-size="14" lengthAdjust="spacing" textLength="158" x="163.5" y="110.1426">Frontend (React, Refine)</text><rect fill="#E3E3E3" height="31.6094" rx="2.5" ry="2.5" style="stroke:#181818;stroke-width:0.5;" width="172" x="156.5" y="491.9219"/><text fill="#000000" font-family="sans-serif" font-size="14" lengthAdjust="spacing" textLength="158" x="163.5" y="513.4551">Frontend (React, Refine)</text><rect fill="#E3E3E3" height="31.6094" rx="2.5" ry="2.5" style="stroke:#181818;stroke-width:0.5;" width="155" x="356" y="88.6094"/><text fill="#000000" font-family="sans-serif" font-size="14" lengthAdjust="spacing" textLength="141" x="363" y="110.1426">Backend (Node.js API)</text><rect fill="#E3E3E3" height="31.6094" rx="2.5" ry="2.5" style="stroke:#181818;stroke-width:0.5;" width="155" x="356" y="491.9219"/><text fill="#000000" font-family="sans-serif" font-size="14" lengthAdjust="spacing" textLength="141" x="363" y="513.4551">Backend (Node.js API)</text><rect fill="#E3E3E3" height="31.6094" rx="2.5" ry="2.5" style="stroke:#181818;stroke-width:0.5;" width="156" x="521" y="88.6094"/><text fill="#000000" font-family="sans-serif" font-size="14" lengthAdjust="spacing" textLength="142" x="528" y="110.1426">PostgreSQL Database</text><rect fill="#E3E3E3" height="31.6094" rx="2.5" ry="2.5" style="stroke:#181818;stroke-width:0.5;" width="156" x="521" y="491.9219"/><text fill="#000000" font-family="sans-serif" font-size="14" lengthAdjust="spacing" textLength="142" x="528" y="513.4551">PostgreSQL Database</text><rect fill="#FFFFFF" height="352.7031" style="stroke:#181818;stroke-width:1.0;" width="10" x="32.5" y="131.2188"/><rect fill="#FFFFFF" height="329.3516" style="stroke:#181818;stroke-width:1.0;" width="10" x="237.5" y="153.5703"/><rect fill="#FFFFFF" height="238.2969" style="stroke:#181818;stroke-width:1.0;" width="10" x="428.5" y="244.625"/><rect fill="#FFFFFF" height="30.3516" style="stroke:#181818;stroke-width:1.0;" width="10" x="594" y="274.9766"/><polygon fill="#181818" points="225.5,149.5703,235.5,153.5703,225.5,157.5703,229.5,153.5703" style="stroke:#181818;stroke-width:1.0;"/><line style="stroke:#181818;stroke-width:1.0;" x1="42.5" x2="231.5" y1="153.5703" y2="153.5703"/><text fill="#000000" font-family="sans-serif" font-size="13" lengthAdjust="spacing" textLength="139" x="49.5" y="148.7139">Asks to create an entity</text><polygon fill="#181818" points="53.5,179.9219,43.5,183.9219,53.5,187.9219,49.5,183.9219" style="stroke:#181818;stroke-width:1.0;"/><line style="stroke:#181818;stroke-width:1.0;" x1="47.5" x2="236.5" y1="183.9219" y2="183.9219"/><text fill="#000000" font-family="sans-serif" font-size="13" lengthAdjust="spacing" textLength="120" x="59.5" y="179.0654">Requests entity data</text><polygon fill="#181818" points="225.5,210.2734,235.5,214.2734,225.5,218.2734,229.5,214.2734" style="stroke:#181818;stroke-width:1.0;"/><line style="stroke:#181818;stroke-width:1.0;" x1="42.5" x2="231.5" y1="214.2734" y2="214.2734"/><text fill="#000000" font-family="sans-serif" font-size="13" lengthAdjust="spacing" textLength="129" x="49.5" y="209.417">Inserts requested data</text><polygon fill="#181818" points="416.5,240.625,426.5,244.625,416.5,248.625,420.5,244.625" style="stroke:#181818;stroke-width:1.0;"/><line style="stroke:#181818;stroke-width:1.0;" x1="247.5" x2="422.5" y1="244.625" y2="244.625"/><text fill="#000000" font-family="sans-serif" font-size="13" lengthAdjust="spacing" textLength="112" x="254.5" y="239.7686">POST /entity {data}</text><polygon fill="#181818" points="582,270.9766,592,274.9766,582,278.9766,586,274.9766" style="stroke:#181818;stroke-width:1.0;"/><line style="stroke:#181818;stroke-width:1.0;" x1="438.5" x2="588" y1="274.9766" y2="274.9766"/><text fill="#000000" font-family="sans-serif" font-size="13" lengthAdjust="spacing" textLength="108" x="445.5" y="270.1201">Insert entity record</text><polygon fill="#181818" points="449.5,301.3281,439.5,305.3281,449.5,309.3281,445.5,305.3281" style="stroke:#181818;stroke-width:1.0;"/><line style="stroke:#181818;stroke-width:1.0;stroke-dasharray:2.0,2.0;" x1="443.5" x2="598" y1="305.3281" y2="305.3281"/><text fill="#000000" font-family="sans-serif" font-size="13" lengthAdjust="spacing" textLength="70" x="455.5" y="300.4717">Status code</text><path d="M10,320.3281 L71,320.3281 L71,328.6797 L61,338.6797 L10,338.6797 L10,320.3281 " fill="#EEEEEE" style="stroke:#000000;stroke-width:1.5;"/><rect fill="none" height="155.5938" style="stroke:#000000;stroke-width:1.5;" width="511" x="10" y="320.3281"/><text fill="#000000" font-family="sans-serif" font-size="13" font-weight="bold" lengthAdjust="spacing" textLength="16" x="25" y="334.8232">alt</text><text fill="#000000" font-family="sans-serif" font-size="11" font-weight="bold" lengthAdjust="spacing" textLength="98" x="86" y="333.7471">[successful case]</text><polygon fill="#181818" points="258.5,357.0313,248.5,361.0313,258.5,365.0313,254.5,361.0313" style="stroke:#181818;stroke-width:1.0;"/><line style="stroke:#181818;stroke-width:1.0;" x1="252.5" x2="427.5" y1="361.0313" y2="361.0313"/><text fill="#000000" font-family="sans-serif" font-size="13" lengthAdjust="spacing" textLength="157" x="264.5" y="356.1748">Entity created successfully</text><polygon fill="#181818" points="53.5,387.3828,43.5,391.3828,53.5,395.3828,49.5,391.3828" style="stroke:#181818;stroke-width:1.0;"/><line style="stroke:#181818;stroke-width:1.0;" x1="47.5" x2="236.5" y1="391.3828" y2="391.3828"/><text fill="#000000" font-family="sans-serif" font-size="13" lengthAdjust="spacing" textLength="171" x="59.5" y="386.5264">Entity is created successfully</text><line style="stroke:#000000;stroke-width:1.0;stroke-dasharray:2.0,2.0;" x1="10" x2="521" y1="400.3828" y2="400.3828"/><text fill="#000000" font-family="sans-serif" font-size="11" font-weight="bold" lengthAdjust="spacing" textLength="72" x="15" y="411.8018">[failure case]</text><polygon fill="#181818" points="258.5,433.5703,248.5,437.5703,258.5,441.5703,254.5,437.5703" style="stroke:#181818;stroke-width:1.0;"/><line style="stroke:#181818;stroke-width:1.0;" x1="252.5" x2="427.5" y1="437.5703" y2="437.5703"/><text fill="#000000" font-family="sans-serif" font-size="13" lengthAdjust="spacing" textLength="118" x="264.5" y="432.7139">Entity creation failed</text><polygon fill="#181818" points="53.5,463.9219,43.5,467.9219,53.5,471.9219,49.5,467.9219" style="stroke:#181818;stroke-width:1.0;"/><line style="stroke:#181818;stroke-width:1.0;" x1="47.5" x2="236.5" y1="467.9219" y2="467.9219"/><text fill="#000000" font-family="sans-serif" font-size="13" lengthAdjust="spacing" textLength="117" x="59.5" y="463.0654">Entity is not created</text><!--SRC=[ZPBBJiCm44Nt_efHLo3na5XsWTIg827n20G-OB2dgMcmmJC1LOX_Pvm7JH52P175yRbpPwxDQnzUCE4pNCKGxIh5Pm993Hd-tYdGhh6YKZOrGI8h6Afw39GhTF7TXmgMM3CP8ruKBUcreM095XuhvQPGt9JtS4blLCC968DMOeB90rEQ03Ba3wCbnLl_Wa5WSfvY40eEzkv8wGEuewKFjD_YPJ7RfUVQQ0jVHqT7Jmopug93-vrTl8WiLQBozX8MAFY8J2sycBUj-JSKwdhABpWypOumXHcl6II2JPG934119zviHRcppAgabKwrRys2XNiKd1h-A7iHTAb4wb1o7TJN6MRhGppkwtnavdFhF0mwuAfSpB-B3-vwY36vhKedLkfmnwOKb8R1QfJ6qHZ5Me0RQubvsTHWDJS3-emykudEEhSk9pVIr9jMi1jHJtl-NK1wi_H- -Rf9z4zF7qEh8FUdNOWoM9gStMZQ8SxHhtosNm00]--></g></svg>