<?xml version="1.0" encoding="us-ascii" standalone="no"?><svg xmlns="http://www.w3.org/2000/svg" xmlns:xlink="http://www.w3.org/1999/xlink" contentStyleType="text/css" height="596px" preserveAspectRatio="none" style="width:767px;height:596px;background:#FFFFFF;" version="1.1" viewBox="0 0 767 596" width="767px" zoomAndPan="magnify"><defs/><g><!--cluster localhost--><g id="cluster_localhost"><polygon fill="none" points="68,16,78,6,225,6,225,185,215,195,68,195,68,16" style="stroke:#181818;stroke-width:1.0;"/><line style="stroke:#181818;stroke-width:1.0;" x1="215" x2="225" y1="16" y2="6"/><line style="stroke:#181818;stroke-width:1.0;" x1="68" x2="215" y1="16" y2="16"/><line style="stroke:#181818;stroke-width:1.0;" x1="215" x2="215" y1="16" y2="195"/><text fill="#000000" font-family="sans-serif" font-size="14" font-weight="bold" lengthAdjust="spacing" textLength="81" x="102" y="33.5332">Localhost:?</text></g><!--cluster Browser--><g id="cluster_Browser"><rect fill="none" height="100" rx="2.5" ry="2.5" style="stroke:#181818;stroke-width:1.0;" width="84" x="108" y="63"/><rect fill="none" height="10" style="stroke:#181818;stroke-width:1.0;" width="15" x="172" y="68"/><rect fill="none" height="2" style="stroke:#181818;stroke-width:1.0;" width="4" x="170" y="70"/><rect fill="none" height="2" style="stroke:#181818;stroke-width:1.0;" width="4" x="170" y="74"/><text fill="#000000" font-family="sans-serif" font-size="14" font-weight="bold" lengthAdjust="spacing" textLength="59" x="120.5" y="90.5332">Browser</text></g><!--cluster server1--><g id="cluster_server1"><polygon fill="none" points="16,337,26,327,416,327,416,569,406,579,16,579,16,337" style="stroke:#181818;stroke-width:1.0;"/><line style="stroke:#181818;stroke-width:1.0;" x1="406" x2="416" y1="337" y2="327"/><line style="stroke:#181818;stroke-width:1.0;" x1="16" x2="406" y1="337" y2="337"/><line style="stroke:#181818;stroke-width:1.0;" x1="406" x2="406" y1="337" y2="579"/><text fill="#000000" font-family="sans-serif" font-size="14" font-weight="bold" lengthAdjust="spacing" textLength="78" x="173" y="354.5332">Server1:??</text></g><!--cluster server2--><g id="cluster_server2"><polygon fill="none" points="456,333,466,323,750,323,750,442,740,452,456,452,456,333" style="stroke:#181818;stroke-width:1.0;"/><line style="stroke:#181818;stroke-width:1.0;" x1="740" x2="750" y1="333" y2="323"/><line style="stroke:#181818;stroke-width:1.0;" x1="456" x2="740" y1="333" y2="333"/><line style="stroke:#181818;stroke-width:1.0;" x1="740" x2="740" y1="333" y2="452"/><text fill="#000000" font-family="sans-serif" font-size="14" font-weight="bold" lengthAdjust="spacing" textLength="69" x="564.5" y="350.5332">Server2:?</text></g><!--entity UI--><g id="elem_UI"><rect fill="#F1F1F1" height="47.6094" rx="2.5" ry="2.5" style="stroke:#181818;stroke-width:0.5;" width="52" x="124" y="99"/><rect fill="#F1F1F1" height="10" style="stroke:#181818;stroke-width:0.5;" width="15" x="156" y="104"/><rect fill="#F1F1F1" height="2" style="stroke:#181818;stroke-width:0.5;" width="4" x="154" y="106"/><rect fill="#F1F1F1" height="2" style="stroke:#181818;stroke-width:0.5;" width="4" x="154" y="110"/><text fill="#000000" font-family="sans-serif" font-size="14" lengthAdjust="spacing" textLength="12" x="139" y="133.5332">UI</text></g><!--entity EM--><g id="elem_EM"><rect fill="#F1F1F1" height="47.6094" rx="2.5" ry="2.5" style="stroke:#181818;stroke-width:0.5;" width="167" x="59.5" y="376"/><rect fill="#F1F1F1" height="10" style="stroke:#181818;stroke-width:0.5;" width="15" x="206.5" y="381"/><rect fill="#F1F1F1" height="2" style="stroke:#181818;stroke-width:0.5;" width="4" x="204.5" y="383"/><rect fill="#F1F1F1" height="2" style="stroke:#181818;stroke-width:0.5;" width="4" x="204.5" y="387"/><text fill="#000000" font-family="sans-serif" font-size="14" lengthAdjust="spacing" textLength="127" x="74.5" y="410.5332">EnergyManagement</text></g><!--entity Auth--><g id="elem_Auth"><rect fill="#F1F1F1" height="47.6094" rx="2.5" ry="2.5" style="stroke:#181818;stroke-width:0.5;" width="130" x="262" y="376"/><rect fill="#F1F1F1" height="10" style="stroke:#181818;stroke-width:0.5;" width="15" x="372" y="381"/><rect fill="#F1F1F1" height="2" style="stroke:#181818;stroke-width:0.5;" width="4" x="370" y="383"/><rect fill="#F1F1F1" height="2" style="stroke:#181818;stroke-width:0.5;" width="4" x="370" y="387"/><text fill="#000000" font-family="sans-serif" font-size="14" lengthAdjust="spacing" textLength="90" x="277" y="410.5332">Authentication</text></g><!--entity Optimization--><g id="elem_Optimization"><rect fill="#F1F1F1" height="47.6094" rx="2.5" ry="2.5" style="stroke:#181818;stroke-width:0.5;" width="117" x="84.5" y="507"/><rect fill="#F1F1F1" height="10" style="stroke:#181818;stroke-width:0.5;" width="15" x="181.5" y="512"/><rect fill="#F1F1F1" height="2" style="stroke:#181818;stroke-width:0.5;" width="4" x="179.5" y="514"/><rect fill="#F1F1F1" height="2" style="stroke:#181818;stroke-width:0.5;" width="4" x="179.5" y="518"/><text fill="#000000" font-family="sans-serif" font-size="14" lengthAdjust="spacing" textLength="77" x="99.5" y="541.5332">Optimization</text></g><!--entity HTTP--><g id="elem_HTTP"><rect fill="#F1F1F1" height="47.6094" rx="2.5" ry="2.5" style="stroke:#181818;stroke-width:0.5;" width="122" x="604" y="376"/><rect fill="#F1F1F1" height="10" style="stroke:#181818;stroke-width:0.5;" width="15" x="706" y="381"/><rect fill="#F1F1F1" height="2" style="stroke:#181818;stroke-width:0.5;" width="4" x="704" y="383"/><rect fill="#F1F1F1" height="2" style="stroke:#181818;stroke-width:0.5;" width="4" x="704" y="387"/><text fill="#000000" font-family="sans-serif" font-size="14" lengthAdjust="spacing" textLength="82" x="619" y="410.5332">HTTP Server</text></g><!--entity U_I--><g id="elem_U_I"><path d="M501.5,372 L542.5,372 A3.75,3.75 0 0 1 545,374.5 L552,393 L566.5,393 A2.5,2.5 0 0 1 569,395.5 L569,425.1094 A2.5,2.5 0 0 1 566.5,427.6094 L501.5,427.6094 A2.5,2.5 0 0 1 499,425.1094 L499,374.5 A2.5,2.5 0 0 1 501.5,372 " fill="#F1F1F1" style="stroke:#181818;stroke-width:0.5;"/><line style="stroke:#181818;stroke-width:0.5;" x1="499" x2="552" y1="393" y2="393"/><text fill="#000000" font-family="sans-serif" font-size="14" lengthAdjust="spacing" textLength="12" x="509" y="414.5332">UI</text></g><!--link localhost to server2--><g id="link_localhost_server2"><path d="M95.5532,195.0858 C95.6344,195.2217 95.716,195.3574 95.7979,195.4929 C95.9617,195.7638 96.1269,196.0339 96.2934,196.3029 C96.9595,197.3793 97.6473,198.4404 98.3575,199.4838 C101.1983,203.6577 104.3975,207.5487 108,211 C209.08,307.85 298,220.41 408,307 C426.515,321.57 440.37,344.085 449.6675,363.1938 C451.9919,367.9709 454.0314,372.5352 455.7877,376.7093 C455.8426,376.8397 455.8972,376.9698 455.9515,377.0994 " fill="none" id="localhost-server2" style="stroke:#181818;stroke-width:1.0;"/><text fill="#000000" font-family="sans-serif" font-size="13" lengthAdjust="spacing" textLength="33" x="324" y="264.4951">http/s</text></g><!--link localhost to server1--><g id="link_localhost_server1"><path d="M67.8721,166.994 C67.7971,167.3906 67.7217,167.7893 67.6459,168.19 C62.7975,193.8338 56.3988,227.675 50,261.515 C46.8006,278.435 43.6013,295.3547 40.5957,311.2492 C39.8443,315.2229 39.105,319.1324 38.3808,322.9619 C38.1998,323.9193 38.0197,324.8716 37.8406,325.8187 C37.7958,326.0555 37.7511,326.292 37.7065,326.5281 " fill="none" id="localhost-server1" style="stroke:#181818;stroke-width:1.0;"/><text fill="#000000" font-family="sans-serif" font-size="13" lengthAdjust="spacing" textLength="33" x="54" y="264.4951">http/s</text></g><!--SRC=[TP3H2u8m4CRV_IiEtoNgqHSf41AIWlGvbYuTw4xcLLJulpSNJIiR3Exk-utlzW4043RwmX69i8PSA9wHGEbe2IJc72hCM5LYIy1QS3VlpW_SXu7was7TeEIIOANmsd8rI9zo6bcXivKpjCPHlxzmDJT- -rVj1zDsOMoeK79Lt68cMS5hFNSdqEMPIWFtXHw8ZFKVdKAt3ObQt9aDedE-jrkCjblyoMAT93k3cUB53dOdh7Ak83r4XaaZTsmrfEvv7bXJ7qgYPjR-Ck_GBF44]--></g></svg>