<?xml version="1.0" encoding="UTF-8" standalone="no"?><svg xmlns="http://www.w3.org/2000/svg" xmlns:xlink="http://www.w3.org/1999/xlink" contentStyleType="text/css" height="384px" preserveAspectRatio="none" style="width:443px;height:384px;background:#FFFFFF;" version="1.1" viewBox="0 0 443 384" width="443px" zoomAndPan="magnify"><defs/><g><rect fill="#FFFFFF" height="200.9453" style="stroke:#181818;stroke-width:1.0;" width="10" x="32.5" y="92.6094"/><rect fill="#FFFFFF" height="178.5938" style="stroke:#181818;stroke-width:1.0;" width="10" x="248.5" y="114.9609"/><rect fill="#FFFFFF" height="30.3516" style="stroke:#181818;stroke-width:1.0;" width="10" x="403.5" y="145.3125"/><rect fill="none" height="94.8906" style="stroke:#000000;stroke-width:1.5;" width="274" x="10" y="190.6641"/><line style="stroke:#181818;stroke-width:0.5;stroke-dasharray:5.0,5.0;" x1="37" x2="37" y1="82.6094" y2="302.5547"/><line style="stroke:#181818;stroke-width:0.5;stroke-dasharray:5.0,5.0;" x1="253" x2="253" y1="82.6094" y2="302.5547"/><line style="stroke:#181818;stroke-width:0.5;stroke-dasharray:5.0,5.0;" x1="408.5" x2="408.5" y1="82.6094" y2="302.5547"/><text fill="#000000" font-family="sans-serif" font-size="14" lengthAdjust="spacing" textLength="29" x="20" y="79.5332">User</text><ellipse cx="37.5" cy="13.5" fill="#E2E2F0" rx="8" ry="8" style="stroke:#181818;stroke-width:0.5;"/><path d="M37.5,21.5 L37.5,48.5 M24.5,29.5 L50.5,29.5 M37.5,48.5 L24.5,63.5 M37.5,48.5 L50.5,63.5 " fill="none" style="stroke:#181818;stroke-width:0.5;"/><text fill="#000000" font-family="sans-serif" font-size="14" lengthAdjust="spacing" textLength="29" x="20" y="316.0879">User</text><ellipse cx="37.5" cy="327.6641" fill="#E2E2F0" rx="8" ry="8" style="stroke:#181818;stroke-width:0.5;"/><path d="M37.5,335.6641 L37.5,362.6641 M24.5,343.6641 L50.5,343.6641 M37.5,362.6641 L24.5,377.6641 M37.5,362.6641 L50.5,377.6641 " fill="none" style="stroke:#181818;stroke-width:0.5;"/><rect fill="#E2E2F0" height="31.6094" rx="2.5" ry="2.5" style="stroke:#181818;stroke-width:0.5;" width="41" x="233" y="50"/><text fill="#000000" font-family="sans-serif" font-size="14" lengthAdjust="spacing" textLength="27" x="240" y="71.5332">SPA</text><rect fill="#E2E2F0" height="31.6094" rx="2.5" ry="2.5" style="stroke:#181818;stroke-width:0.5;" width="41" x="233" y="301.5547"/><text fill="#000000" font-family="sans-serif" font-size="14" lengthAdjust="spacing" textLength="27" x="240" y="323.0879">SPA</text><rect fill="#E2E2F0" height="31.6094" rx="2.5" ry="2.5" style="stroke:#181818;stroke-width:0.5;" width="58" x="379.5" y="50"/><text fill="#000000" font-family="sans-serif" font-size="14" lengthAdjust="spacing" textLength="44" x="386.5" y="71.5332">Patient</text><rect fill="#E2E2F0" height="31.6094" rx="2.5" ry="2.5" style="stroke:#181818;stroke-width:0.5;" width="58" x="379.5" y="301.5547"/><text fill="#000000" font-family="sans-serif" font-size="14" lengthAdjust="spacing" textLength="44" x="386.5" y="323.0879">Patient</text><rect fill="#FFFFFF" height="200.9453" style="stroke:#181818;stroke-width:1.0;" width="10" x="32.5" y="92.6094"/><rect fill="#FFFFFF" height="178.5938" style="stroke:#181818;stroke-width:1.0;" width="10" x="248.5" y="114.9609"/><rect fill="#FFFFFF" height="30.3516" style="stroke:#181818;stroke-width:1.0;" width="10" x="403.5" y="145.3125"/><polygon fill="#181818" points="236.5,110.9609,246.5,114.9609,236.5,118.9609,240.5,114.9609" style="stroke:#181818;stroke-width:1.0;"/><line style="stroke:#181818;stroke-width:1.0;" x1="42.5" x2="242.5" y1="114.9609" y2="114.9609"/><text fill="#000000" font-family="sans-serif" font-size="13" font-weight="bold" lengthAdjust="spacing" textLength="7" x="49.5" y="110.1045">1</text><text fill="#000000" font-family="sans-serif" font-size="13" lengthAdjust="spacing" textLength="156" x="60.5" y="110.1045">Get a list of all the patients</text><polygon fill="#181818" points="391.5,141.3125,401.5,145.3125,391.5,149.3125,395.5,145.3125" style="stroke:#181818;stroke-width:1.0;"/><line style="stroke:#181818;stroke-width:1.0;" x1="258.5" x2="397.5" y1="145.3125" y2="145.3125"/><text fill="#000000" font-family="sans-serif" font-size="13" font-weight="bold" lengthAdjust="spacing" textLength="7" x="265.5" y="140.4561">2</text><text fill="#000000" font-family="sans-serif" font-size="13" lengthAdjust="spacing" textLength="115" x="276.5" y="140.4561">GET/patients/findAll</text><polygon fill="#181818" points="269.5,171.6641,259.5,175.6641,269.5,179.6641,265.5,175.6641" style="stroke:#181818;stroke-width:1.0;"/><line style="stroke:#181818;stroke-width:1.0;stroke-dasharray:2.0,2.0;" x1="263.5" x2="407.5" y1="175.6641" y2="175.6641"/><text fill="#000000" font-family="sans-serif" font-size="13" font-weight="bold" lengthAdjust="spacing" textLength="7" x="275.5" y="170.8076">3</text><text fill="#000000" font-family="sans-serif" font-size="13" lengthAdjust="spacing" textLength="68" x="286.5" y="170.8076">status code</text><path d="M10,190.6641 L71,190.6641 L71,199.0156 L61,209.0156 L10,209.0156 L10,190.6641 " fill="#EEEEEE" style="stroke:#000000;stroke-width:1.5;"/><rect fill="none" height="94.8906" style="stroke:#000000;stroke-width:1.5;" width="274" x="10" y="190.6641"/><text fill="#000000" font-family="sans-serif" font-size="13" font-weight="bold" lengthAdjust="spacing" textLength="16" x="25" y="205.1592">alt</text><text fill="#000000" font-family="sans-serif" font-size="11" font-weight="bold" lengthAdjust="spacing" textLength="101" x="86" y="204.083">[successfull case]</text><polygon fill="#181818" points="53.5,227.3672,43.5,231.3672,53.5,235.3672,49.5,231.3672" style="stroke:#181818;stroke-width:1.0;"/><line style="stroke:#181818;stroke-width:1.0;stroke-dasharray:2.0,2.0;" x1="47.5" x2="247.5" y1="231.3672" y2="231.3672"/><text fill="#000000" font-family="sans-serif" font-size="13" font-weight="bold" lengthAdjust="spacing" textLength="7" x="59.5" y="226.5107">4</text><text fill="#000000" font-family="sans-serif" font-size="13" lengthAdjust="spacing" textLength="127" x="70.5" y="226.5107">Returns requested list</text><line style="stroke:#000000;stroke-width:1.0;stroke-dasharray:2.0,2.0;" x1="10" x2="284" y1="240.3672" y2="240.3672"/><text fill="#000000" font-family="sans-serif" font-size="11" font-weight="bold" lengthAdjust="spacing" textLength="43" x="15" y="251.7861">[failure]</text><polygon fill="#181818" points="53.5,273.5547,43.5,277.5547,53.5,281.5547,49.5,277.5547" style="stroke:#181818;stroke-width:1.0;"/><line style="stroke:#181818;stroke-width:1.0;stroke-dasharray:2.0,2.0;" x1="47.5" x2="247.5" y1="277.5547" y2="277.5547"/><text fill="#000000" font-family="sans-serif" font-size="13" font-weight="bold" lengthAdjust="spacing" textLength="7" x="59.5" y="272.6982">5</text><text fill="#000000" font-family="sans-serif" font-size="13" lengthAdjust="spacing" textLength="171" x="70.5" y="272.6982">Does not return requested list</text><!--SRC=[RSzD3W8X30NWVK_nBc3Skp2PHEDsuiy1AdGY2OBIulbbHaSNoe90U5zfkLfEzNgMGjGvomKdRMTs5XviyhgD6nPh7FeEA-p4m8X13Na0nmYx26viGP8fVMsB4z68ckrVxwFV7fTpUZc4vBiOl-YT8vh1ulEn6bjLkEo5lFmAZWQjpedgK5jRZbK8RKqjj3BJ72linMf9YYBtAchYfs58eWe63h6MlsoJHP6oDJVw7vxy4m00]--></g></svg>