<?xml version="1.0" encoding="us-ascii" standalone="no"?><svg xmlns="http://www.w3.org/2000/svg" xmlns:xlink="http://www.w3.org/1999/xlink" contentStyleType="text/css" height="988px" preserveAspectRatio="none" style="width:1076px;height:988px;background:#FCF9EA;" version="1.1" viewBox="0 0 1076 988" width="1076px" zoomAndPan="magnify"><defs/><g><rect fill="#FCF9EA" height="988" style="stroke:none;stroke-width:1.0;" width="1076" x="0" y="0"/><text fill="#000000" font-family="sans-serif" font-size="14" font-weight="bold" lengthAdjust="spacing" textLength="237" x="412.75" y="24.5332">Modelo de Dom&#237;nio (Compactado)</text><!--class Administrator--><g id="elem_Administrator"><rect codeLine="79" fill="#BADFDB" height="65.6094" id="Administrator" rx="7.5" ry="7.5" style="stroke:#FFFFFF;stroke-width:0.5;" width="115" x="7" y="623.1094"/><ellipse cx="22" cy="639.1094" fill="#ADD1B2" rx="11" ry="11" style="stroke:#181818;stroke-width:1.0;"/><path d="M24.7656,634.9844 Q24.9219,634.7656 25.1094,634.6563 Q25.2969,634.5469 25.5156,634.5469 Q25.8906,634.5469 26.125,634.8125 Q26.3594,635.0625 26.3594,635.6719 L26.3594,637.125 Q26.3594,637.7344 26.125,638 Q25.8906,638.2656 25.5156,638.2656 Q25.1719,638.2656 24.9688,638.0625 Q24.7656,637.875 24.6563,637.3594 Q24.6094,637 24.4219,636.8125 Q24.0938,636.4375 23.4844,636.2188 Q22.875,636 22.25,636 Q21.4844,636 20.8438,636.3281 Q20.2188,636.6563 19.7188,637.4063 Q19.2344,638.1563 19.2344,639.1875 L19.2344,640.2813 Q19.2344,641.5156 20.125,642.3438 Q21.0156,643.1563 22.6094,643.1563 Q23.5469,643.1563 24.2031,642.9063 Q24.5938,642.75 25.0156,642.3125 Q25.2813,642.0469 25.4219,641.9688 Q25.5781,641.8906 25.7813,641.8906 Q26.1094,641.8906 26.3594,642.1563 Q26.625,642.4063 26.625,642.75 Q26.625,643.0938 26.2813,643.5 Q25.7813,644.0781 24.9844,644.4063 Q23.9063,644.8594 22.6094,644.8594 Q21.0938,644.8594 19.8906,644.2344 Q18.9063,643.7344 18.2188,642.6719 Q17.5313,641.5938 17.5313,640.3125 L17.5313,639.1563 Q17.5313,637.8281 18.1406,636.6875 Q18.7656,635.5313 19.8594,634.9219 Q20.9531,634.2969 22.1875,634.2969 Q22.9219,634.2969 23.5625,634.4688 Q24.2188,634.625 24.7656,634.9844 Z " fill="#000000"/><text fill="#000000" font-family="sans-serif" font-size="14" lengthAdjust="spacing" textLength="83" x="36" y="644.8379">Administrator</text><line style="stroke:#FFFFFF;stroke-width:0.5;" x1="8" x2="121" y1="655.1094" y2="655.1094"/><text fill="#000000" font-family="sans-serif" font-size="14" lengthAdjust="spacing" textLength="62" x="13" y="673.6426">+id: string</text><line style="stroke:#FFFFFF;stroke-width:0.5;" x1="8" x2="121" y1="680.7188" y2="680.7188"/></g><!--class CommunityManager--><g id="elem_CommunityManager"><rect codeLine="82" fill="#BADFDB" height="65.6094" id="CommunityManager" rx="7.5" ry="7.5" style="stroke:#FFFFFF;stroke-width:0.5;" width="158" x="157.5" y="623.1094"/><ellipse cx="172.5" cy="639.1094" fill="#ADD1B2" rx="11" ry="11" style="stroke:#181818;stroke-width:1.0;"/><path d="M175.2656,634.9844 Q175.4219,634.7656 175.6094,634.6563 Q175.7969,634.5469 176.0156,634.5469 Q176.3906,634.5469 176.625,634.8125 Q176.8594,635.0625 176.8594,635.6719 L176.8594,637.125 Q176.8594,637.7344 176.625,638 Q176.3906,638.2656 176.0156,638.2656 Q175.6719,638.2656 175.4688,638.0625 Q175.2656,637.875 175.1563,637.3594 Q175.1094,637 174.9219,636.8125 Q174.5938,636.4375 173.9844,636.2188 Q173.375,636 172.75,636 Q171.9844,636 171.3438,636.3281 Q170.7188,636.6563 170.2188,637.4063 Q169.7344,638.1563 169.7344,639.1875 L169.7344,640.2813 Q169.7344,641.5156 170.625,642.3438 Q171.5156,643.1563 173.1094,643.1563 Q174.0469,643.1563 174.7031,642.9063 Q175.0938,642.75 175.5156,642.3125 Q175.7813,642.0469 175.9219,641.9688 Q176.0781,641.8906 176.2813,641.8906 Q176.6094,641.8906 176.8594,642.1563 Q177.125,642.4063 177.125,642.75 Q177.125,643.0938 176.7813,643.5 Q176.2813,644.0781 175.4844,644.4063 Q174.4063,644.8594 173.1094,644.8594 Q171.5938,644.8594 170.3906,644.2344 Q169.4063,643.7344 168.7188,642.6719 Q168.0313,641.5938 168.0313,640.3125 L168.0313,639.1563 Q168.0313,637.8281 168.6406,636.6875 Q169.2656,635.5313 170.3594,634.9219 Q171.4531,634.2969 172.6875,634.2969 Q173.4219,634.2969 174.0625,634.4688 Q174.7188,634.625 175.2656,634.9844 Z " fill="#000000"/><text fill="#000000" font-family="sans-serif" font-size="14" lengthAdjust="spacing" textLength="126" x="186.5" y="644.8379">CommunityManager</text><line style="stroke:#FFFFFF;stroke-width:0.5;" x1="158.5" x2="314.5" y1="655.1094" y2="655.1094"/><text fill="#000000" font-family="sans-serif" font-size="14" lengthAdjust="spacing" textLength="62" x="163.5" y="673.6426">+id: string</text><line style="stroke:#FFFFFF;stroke-width:0.5;" x1="158.5" x2="314.5" y1="680.7188" y2="680.7188"/></g><!--class Prosumer--><g id="elem_Prosumer"><rect codeLine="22" fill="#BADFDB" height="136.0469" id="Prosumer" rx="7.5" ry="7.5" style="stroke:#FFFFFF;stroke-width:0.5;" width="176" x="350.5" y="588.1094"/><ellipse cx="403.75" cy="604.1094" fill="#ADD1B2" rx="11" ry="11" style="stroke:#181818;stroke-width:1.0;"/><path d="M406.5156,599.9844 Q406.6719,599.7656 406.8594,599.6563 Q407.0469,599.5469 407.2656,599.5469 Q407.6406,599.5469 407.875,599.8125 Q408.1094,600.0625 408.1094,600.6719 L408.1094,602.125 Q408.1094,602.7344 407.875,603 Q407.6406,603.2656 407.2656,603.2656 Q406.9219,603.2656 406.7188,603.0625 Q406.5156,602.875 406.4063,602.3594 Q406.3594,602 406.1719,601.8125 Q405.8438,601.4375 405.2344,601.2188 Q404.625,601 404,601 Q403.2344,601 402.5938,601.3281 Q401.9688,601.6563 401.4688,602.4063 Q400.9844,603.1563 400.9844,604.1875 L400.9844,605.2813 Q400.9844,606.5156 401.875,607.3438 Q402.7656,608.1563 404.3594,608.1563 Q405.2969,608.1563 405.9531,607.9063 Q406.3438,607.75 406.7656,607.3125 Q407.0313,607.0469 407.1719,606.9688 Q407.3281,606.8906 407.5313,606.8906 Q407.8594,606.8906 408.1094,607.1563 Q408.375,607.4063 408.375,607.75 Q408.375,608.0938 408.0313,608.5 Q407.5313,609.0781 406.7344,609.4063 Q405.6563,609.8594 404.3594,609.8594 Q402.8438,609.8594 401.6406,609.2344 Q400.6563,608.7344 399.9688,607.6719 Q399.2813,606.5938 399.2813,605.3125 L399.2813,604.1563 Q399.2813,602.8281 399.8906,601.6875 Q400.5156,600.5313 401.6094,599.9219 Q402.7031,599.2969 403.9375,599.2969 Q404.6719,599.2969 405.3125,599.4688 Q405.9688,599.625 406.5156,599.9844 Z " fill="#000000"/><text fill="#000000" font-family="sans-serif" font-size="14" lengthAdjust="spacing" textLength="61" x="424.25" y="609.8379">Prosumer</text><line style="stroke:#FFFFFF;stroke-width:0.5;" x1="351.5" x2="525.5" y1="620.1094" y2="620.1094"/><text fill="#000000" font-family="sans-serif" font-size="14" lengthAdjust="spacing" textLength="99" x="356.5" y="638.6426">+id: ProsumerId</text><text fill="#000000" font-family="sans-serif" font-size="14" lengthAdjust="spacing" textLength="120" x="356.5" y="656.252">+description: string</text><text fill="#000000" font-family="sans-serif" font-size="14" lengthAdjust="spacing" textLength="73" x="356.5" y="673.8613">+user: User</text><text fill="#000000" font-family="sans-serif" font-size="14" lengthAdjust="spacing" textLength="105" x="356.5" y="691.4707">+battery: Battery</text><text fill="#000000" font-family="sans-serif" font-size="14" lengthAdjust="spacing" textLength="164" x="356.5" y="709.0801">+panel: PhotovoltaicPanel</text><line style="stroke:#FFFFFF;stroke-width:0.5;" x1="351.5" x2="525.5" y1="716.1563" y2="716.1563"/></g><!--class Profile--><g id="elem_Profile"><rect codeLine="30" fill="#BADFDB" height="241.7031" id="Profile" rx="7.5" ry="7.5" style="stroke:#FFFFFF;stroke-width:0.5;" width="208" x="177.5" y="259.6094"/><ellipse cx="257.25" cy="275.6094" fill="#ADD1B2" rx="11" ry="11" style="stroke:#181818;stroke-width:1.0;"/><path d="M260.0156,271.4844 Q260.1719,271.2656 260.3594,271.1563 Q260.5469,271.0469 260.7656,271.0469 Q261.1406,271.0469 261.375,271.3125 Q261.6094,271.5625 261.6094,272.1719 L261.6094,273.625 Q261.6094,274.2344 261.375,274.5 Q261.1406,274.7656 260.7656,274.7656 Q260.4219,274.7656 260.2188,274.5625 Q260.0156,274.375 259.9063,273.8594 Q259.8594,273.5 259.6719,273.3125 Q259.3438,272.9375 258.7344,272.7188 Q258.125,272.5 257.5,272.5 Q256.7344,272.5 256.0938,272.8281 Q255.4688,273.1563 254.9688,273.9063 Q254.4844,274.6563 254.4844,275.6875 L254.4844,276.7813 Q254.4844,278.0156 255.375,278.8438 Q256.2656,279.6563 257.8594,279.6563 Q258.7969,279.6563 259.4531,279.4063 Q259.8438,279.25 260.2656,278.8125 Q260.5313,278.5469 260.6719,278.4688 Q260.8281,278.3906 261.0313,278.3906 Q261.3594,278.3906 261.6094,278.6563 Q261.875,278.9063 261.875,279.25 Q261.875,279.5938 261.5313,280 Q261.0313,280.5781 260.2344,280.9063 Q259.1563,281.3594 257.8594,281.3594 Q256.3438,281.3594 255.1406,280.7344 Q254.1563,280.2344 253.4688,279.1719 Q252.7813,278.0938 252.7813,276.8125 L252.7813,275.6563 Q252.7813,274.3281 253.3906,273.1875 Q254.0156,272.0313 255.1094,271.4219 Q256.2031,270.7969 257.4375,270.7969 Q258.1719,270.7969 258.8125,270.9688 Q259.4688,271.125 260.0156,271.4844 Z " fill="#000000"/><text fill="#000000" font-family="sans-serif" font-size="14" lengthAdjust="spacing" textLength="40" x="277.75" y="281.3379">Profile</text><line style="stroke:#FFFFFF;stroke-width:0.5;" x1="178.5" x2="384.5" y1="291.6094" y2="291.6094"/><text fill="#000000" font-family="sans-serif" font-size="14" lengthAdjust="spacing" textLength="78" x="183.5" y="310.1426">+id: ProfileId</text><text fill="#000000" font-family="sans-serif" font-size="14" lengthAdjust="spacing" textLength="74" x="183.5" y="327.752">+date: Date</text><text fill="#000000" font-family="sans-serif" font-size="14" lengthAdjust="spacing" textLength="191" x="183.5" y="345.3613">+timestamp: ProfileTimeStamp</text><text fill="#000000" font-family="sans-serif" font-size="14" lengthAdjust="spacing" textLength="114" x="183.5" y="362.9707">+profileLoad: float</text><text fill="#000000" font-family="sans-serif" font-size="14" lengthAdjust="spacing" textLength="136" x="183.5" y="380.5801">+stateOfCharge: float</text><text fill="#000000" font-family="sans-serif" font-size="14" lengthAdjust="spacing" textLength="196" x="183.5" y="398.1895">+photovoltaicEnergyLoad: float</text><text fill="#000000" font-family="sans-serif" font-size="14" lengthAdjust="spacing" textLength="132" x="183.5" y="415.7988">+boughtEnergy: float</text><text fill="#000000" font-family="sans-serif" font-size="14" lengthAdjust="spacing" textLength="114" x="183.5" y="433.4082">+soldEnergy: float</text><text fill="#000000" font-family="sans-serif" font-size="14" lengthAdjust="spacing" textLength="83" x="183.5" y="451.0176">+peerIn: float</text><text fill="#000000" font-family="sans-serif" font-size="14" lengthAdjust="spacing" textLength="95" x="183.5" y="468.627">+peerOut: float</text><text fill="#000000" font-family="sans-serif" font-size="14" lengthAdjust="spacing" textLength="137" x="183.5" y="486.2363">+prosumer: Prosumer</text><line style="stroke:#FFFFFF;stroke-width:0.5;" x1="178.5" x2="384.5" y1="493.3125" y2="493.3125"/></g><!--class GridExchange--><g id="elem_GridExchange"><rect codeLine="44" fill="#BADFDB" height="188.875" id="GridExchange" rx="7.5" ry="7.5" style="stroke:#FFFFFF;stroke-width:0.5;" width="149" x="833" y="286.1094"/><ellipse cx="860.6" cy="302.1094" fill="#ADD1B2" rx="11" ry="11" style="stroke:#181818;stroke-width:1.0;"/><path d="M863.3656,297.9844 Q863.5219,297.7656 863.7094,297.6563 Q863.8969,297.5469 864.1156,297.5469 Q864.4906,297.5469 864.725,297.8125 Q864.9594,298.0625 864.9594,298.6719 L864.9594,300.125 Q864.9594,300.7344 864.725,301 Q864.4906,301.2656 864.1156,301.2656 Q863.7719,301.2656 863.5688,301.0625 Q863.3656,300.875 863.2563,300.3594 Q863.2094,300 863.0219,299.8125 Q862.6938,299.4375 862.0844,299.2188 Q861.475,299 860.85,299 Q860.0844,299 859.4438,299.3281 Q858.8188,299.6563 858.3188,300.4063 Q857.8344,301.1563 857.8344,302.1875 L857.8344,303.2813 Q857.8344,304.5156 858.725,305.3438 Q859.6156,306.1563 861.2094,306.1563 Q862.1469,306.1563 862.8031,305.9063 Q863.1938,305.75 863.6156,305.3125 Q863.8813,305.0469 864.0219,304.9688 Q864.1781,304.8906 864.3813,304.8906 Q864.7094,304.8906 864.9594,305.1563 Q865.225,305.4063 865.225,305.75 Q865.225,306.0938 864.8813,306.5 Q864.3813,307.0781 863.5844,307.4063 Q862.5063,307.8594 861.2094,307.8594 Q859.6938,307.8594 858.4906,307.2344 Q857.5063,306.7344 856.8188,305.6719 Q856.1313,304.5938 856.1313,303.3125 L856.1313,302.1563 Q856.1313,300.8281 856.7406,299.6875 Q857.3656,298.5313 858.4594,297.9219 Q859.5531,297.2969 860.7875,297.2969 Q861.5219,297.2969 862.1625,297.4688 Q862.8188,297.625 863.3656,297.9844 Z " fill="#000000"/><text fill="#000000" font-family="sans-serif" font-size="14" lengthAdjust="spacing" textLength="89" x="877.4" y="307.8379">GridExchange</text><line style="stroke:#FFFFFF;stroke-width:0.5;" x1="834" x2="981" y1="318.1094" y2="318.1094"/><text fill="#000000" font-family="sans-serif" font-size="14" lengthAdjust="spacing" textLength="62" x="839" y="336.6426">+id: string</text><text fill="#000000" font-family="sans-serif" font-size="14" lengthAdjust="spacing" textLength="115" x="839" y="354.252">+timestamp: string</text><text fill="#000000" font-family="sans-serif" font-size="14" lengthAdjust="spacing" textLength="66" x="839" y="371.8613">+buy: float</text><text fill="#000000" font-family="sans-serif" font-size="14" lengthAdjust="spacing" textLength="64" x="839" y="389.4707">+sell: float</text><text fill="#000000" font-family="sans-serif" font-size="14" lengthAdjust="spacing" textLength="98" x="839" y="407.0801">+priceBuy: float</text><text fill="#000000" font-family="sans-serif" font-size="14" lengthAdjust="spacing" textLength="97" x="839" y="424.6895">+priceSell: float</text><text fill="#000000" font-family="sans-serif" font-size="14" lengthAdjust="spacing" textLength="137" x="839" y="442.2988">+prosumer: Prosumer</text><text fill="#000000" font-family="sans-serif" font-size="14" lengthAdjust="spacing" textLength="67" x="839" y="459.9082">+grid: Grid</text><line style="stroke:#FFFFFF;stroke-width:0.5;" x1="834" x2="981" y1="466.9844" y2="466.9844"/></g><!--class CommunityExchange--><g id="elem_CommunityExchange"><rect codeLine="55" fill="#BADFDB" height="153.6563" id="CommunityExchange" rx="7.5" ry="7.5" style="stroke:#FFFFFF;stroke-width:0.5;" width="165" x="431" y="45.6094"/><ellipse cx="446.45" cy="61.6094" fill="#ADD1B2" rx="11" ry="11" style="stroke:#181818;stroke-width:1.0;"/><path d="M449.2156,57.4844 Q449.3719,57.2656 449.5594,57.1563 Q449.7469,57.0469 449.9656,57.0469 Q450.3406,57.0469 450.575,57.3125 Q450.8094,57.5625 450.8094,58.1719 L450.8094,59.625 Q450.8094,60.2344 450.575,60.5 Q450.3406,60.7656 449.9656,60.7656 Q449.6219,60.7656 449.4188,60.5625 Q449.2156,60.375 449.1063,59.8594 Q449.0594,59.5 448.8719,59.3125 Q448.5438,58.9375 447.9344,58.7188 Q447.325,58.5 446.7,58.5 Q445.9344,58.5 445.2938,58.8281 Q444.6688,59.1563 444.1688,59.9063 Q443.6844,60.6563 443.6844,61.6875 L443.6844,62.7813 Q443.6844,64.0156 444.575,64.8438 Q445.4656,65.6563 447.0594,65.6563 Q447.9969,65.6563 448.6531,65.4063 Q449.0438,65.25 449.4656,64.8125 Q449.7313,64.5469 449.8719,64.4688 Q450.0281,64.3906 450.2313,64.3906 Q450.5594,64.3906 450.8094,64.6563 Q451.075,64.9063 451.075,65.25 Q451.075,65.5938 450.7313,66 Q450.2313,66.5781 449.4344,66.9063 Q448.3563,67.3594 447.0594,67.3594 Q445.5438,67.3594 444.3406,66.7344 Q443.3563,66.2344 442.6688,65.1719 Q441.9813,64.0938 441.9813,62.8125 L441.9813,61.6563 Q441.9813,60.3281 442.5906,59.1875 Q443.2156,58.0313 444.3094,57.4219 Q445.4031,56.7969 446.6375,56.7969 Q447.3719,56.7969 448.0125,56.9688 Q448.6688,57.125 449.2156,57.4844 Z " fill="#000000"/><text fill="#000000" font-family="sans-serif" font-size="14" lengthAdjust="spacing" textLength="132" x="460.55" y="67.3379">CommunityExchange</text><line style="stroke:#FFFFFF;stroke-width:0.5;" x1="432" x2="595" y1="77.6094" y2="77.6094"/><text fill="#000000" font-family="sans-serif" font-size="14" lengthAdjust="spacing" textLength="62" x="437" y="96.1426">+id: string</text><text fill="#000000" font-family="sans-serif" font-size="14" lengthAdjust="spacing" textLength="115" x="437" y="113.752">+timestamp: string</text><text fill="#000000" font-family="sans-serif" font-size="14" lengthAdjust="spacing" textLength="83" x="437" y="131.3613">+peerIn: float</text><text fill="#000000" font-family="sans-serif" font-size="14" lengthAdjust="spacing" textLength="95" x="437" y="148.9707">+peerOut: float</text><text fill="#000000" font-family="sans-serif" font-size="14" lengthAdjust="spacing" textLength="137" x="437" y="166.5801">+prosumer: Prosumer</text><text fill="#000000" font-family="sans-serif" font-size="14" lengthAdjust="spacing" textLength="153" x="437" y="184.1895">+community: Community</text><line style="stroke:#FFFFFF;stroke-width:0.5;" x1="432" x2="595" y1="191.2656" y2="191.2656"/></g><!--class Community--><g id="elem_Community"><rect codeLine="64" fill="#BADFDB" height="100.8281" id="Community" rx="7.5" ry="7.5" style="stroke:#FFFFFF;stroke-width:0.5;" width="194" x="491.5" y="330.1094"/><ellipse cx="549.25" cy="346.1094" fill="#ADD1B2" rx="11" ry="11" style="stroke:#181818;stroke-width:1.0;"/><path d="M552.0156,341.9844 Q552.1719,341.7656 552.3594,341.6563 Q552.5469,341.5469 552.7656,341.5469 Q553.1406,341.5469 553.375,341.8125 Q553.6094,342.0625 553.6094,342.6719 L553.6094,344.125 Q553.6094,344.7344 553.375,345 Q553.1406,345.2656 552.7656,345.2656 Q552.4219,345.2656 552.2188,345.0625 Q552.0156,344.875 551.9063,344.3594 Q551.8594,344 551.6719,343.8125 Q551.3438,343.4375 550.7344,343.2188 Q550.125,343 549.5,343 Q548.7344,343 548.0938,343.3281 Q547.4688,343.6563 546.9688,344.4063 Q546.4844,345.1563 546.4844,346.1875 L546.4844,347.2813 Q546.4844,348.5156 547.375,349.3438 Q548.2656,350.1563 549.8594,350.1563 Q550.7969,350.1563 551.4531,349.9063 Q551.8438,349.75 552.2656,349.3125 Q552.5313,349.0469 552.6719,348.9688 Q552.8281,348.8906 553.0313,348.8906 Q553.3594,348.8906 553.6094,349.1563 Q553.875,349.4063 553.875,349.75 Q553.875,350.0938 553.5313,350.5 Q553.0313,351.0781 552.2344,351.4063 Q551.1563,351.8594 549.8594,351.8594 Q548.3438,351.8594 547.1406,351.2344 Q546.1563,350.7344 545.4688,349.6719 Q544.7813,348.5938 544.7813,347.3125 L544.7813,346.1563 Q544.7813,344.8281 545.3906,343.6875 Q546.0156,342.5313 547.1094,341.9219 Q548.2031,341.2969 549.4375,341.2969 Q550.1719,341.2969 550.8125,341.4688 Q551.4688,341.625 552.0156,341.9844 Z " fill="#000000"/><text fill="#000000" font-family="sans-serif" font-size="14" lengthAdjust="spacing" textLength="70" x="569.75" y="351.8379">Community</text><line style="stroke:#FFFFFF;stroke-width:0.5;" x1="492.5" x2="684.5" y1="362.1094" y2="362.1094"/><text fill="#000000" font-family="sans-serif" font-size="14" lengthAdjust="spacing" textLength="62" x="497.5" y="380.6426">+id: string</text><text fill="#000000" font-family="sans-serif" font-size="14" lengthAdjust="spacing" textLength="86" x="497.5" y="398.252">+name: string</text><text fill="#000000" font-family="sans-serif" font-size="14" lengthAdjust="spacing" textLength="182" x="497.5" y="415.8613">+prosumers: List&lt;Prosumer&gt;</text><line style="stroke:#FFFFFF;stroke-width:0.5;" x1="492.5" x2="684.5" y1="422.9375" y2="422.9375"/></g><!--class User--><g id="elem_User"><rect codeLine="70" fill="#BADFDB" height="153.6563" id="User" rx="7.5" ry="7.5" style="stroke:#FFFFFF;stroke-width:0.5;" width="123" x="175" y="819.1094"/><ellipse cx="217.9" cy="835.1094" fill="#ADD1B2" rx="11" ry="11" style="stroke:#181818;stroke-width:1.0;"/><path d="M220.6656,830.9844 Q220.8219,830.7656 221.0094,830.6563 Q221.1969,830.5469 221.4156,830.5469 Q221.7906,830.5469 222.025,830.8125 Q222.2594,831.0625 222.2594,831.6719 L222.2594,833.125 Q222.2594,833.7344 222.025,834 Q221.7906,834.2656 221.4156,834.2656 Q221.0719,834.2656 220.8688,834.0625 Q220.6656,833.875 220.5563,833.3594 Q220.5094,833 220.3219,832.8125 Q219.9938,832.4375 219.3844,832.2188 Q218.775,832 218.15,832 Q217.3844,832 216.7438,832.3281 Q216.1188,832.6563 215.6188,833.4063 Q215.1344,834.1563 215.1344,835.1875 L215.1344,836.2813 Q215.1344,837.5156 216.025,838.3438 Q216.9156,839.1563 218.5094,839.1563 Q219.4469,839.1563 220.1031,838.9063 Q220.4938,838.75 220.9156,838.3125 Q221.1813,838.0469 221.3219,837.9688 Q221.4781,837.8906 221.6813,837.8906 Q222.0094,837.8906 222.2594,838.1563 Q222.525,838.4063 222.525,838.75 Q222.525,839.0938 222.1813,839.5 Q221.6813,840.0781 220.8844,840.4063 Q219.8063,840.8594 218.5094,840.8594 Q216.9938,840.8594 215.7906,840.2344 Q214.8063,839.7344 214.1188,838.6719 Q213.4313,837.5938 213.4313,836.3125 L213.4313,835.1563 Q213.4313,833.8281 214.0406,832.6875 Q214.6656,831.5313 215.7594,830.9219 Q216.8531,830.2969 218.0875,830.2969 Q218.8219,830.2969 219.4625,830.4688 Q220.1188,830.625 220.6656,830.9844 Z " fill="#000000"/><text fill="#000000" font-family="sans-serif" font-size="14" lengthAdjust="spacing" textLength="29" x="238.1" y="840.8379">User</text><line style="stroke:#FFFFFF;stroke-width:0.5;" x1="176" x2="297" y1="851.1094" y2="851.1094"/><text fill="#000000" font-family="sans-serif" font-size="14" lengthAdjust="spacing" textLength="62" x="181" y="869.6426">+id: string</text><text fill="#000000" font-family="sans-serif" font-size="14" lengthAdjust="spacing" textLength="86" x="181" y="887.252">+name: string</text><text fill="#000000" font-family="sans-serif" font-size="14" lengthAdjust="spacing" textLength="84" x="181" y="904.8613">+email: string</text><text fill="#000000" font-family="sans-serif" font-size="14" lengthAdjust="spacing" textLength="91" x="181" y="922.4707">+phone: string</text><text fill="#000000" font-family="sans-serif" font-size="14" lengthAdjust="spacing" textLength="111" x="181" y="940.0801">+password: string</text><text fill="#000000" font-family="sans-serif" font-size="14" lengthAdjust="spacing" textLength="75" x="181" y="957.6895">+role: string</text><line style="stroke:#FFFFFF;stroke-width:0.5;" x1="176" x2="297" y1="964.7656" y2="964.7656"/></g><!--class PhotovoltaicPanel--><g id="elem_PhotovoltaicPanel"><rect codeLine="85" fill="#BADFDB" height="100.8281" id="PhotovoltaicPanel" rx="7.5" ry="7.5" style="stroke:#FFFFFF;stroke-width:0.5;" width="149" x="417" y="845.6094"/><ellipse cx="433.8" cy="861.6094" fill="#ADD1B2" rx="11" ry="11" style="stroke:#181818;stroke-width:1.0;"/><path d="M436.5656,857.4844 Q436.7219,857.2656 436.9094,857.1563 Q437.0969,857.0469 437.3156,857.0469 Q437.6906,857.0469 437.925,857.3125 Q438.1594,857.5625 438.1594,858.1719 L438.1594,859.625 Q438.1594,860.2344 437.925,860.5 Q437.6906,860.7656 437.3156,860.7656 Q436.9719,860.7656 436.7688,860.5625 Q436.5656,860.375 436.4563,859.8594 Q436.4094,859.5 436.2219,859.3125 Q435.8938,858.9375 435.2844,858.7188 Q434.675,858.5 434.05,858.5 Q433.2844,858.5 432.6438,858.8281 Q432.0188,859.1563 431.5188,859.9063 Q431.0344,860.6563 431.0344,861.6875 L431.0344,862.7813 Q431.0344,864.0156 431.925,864.8438 Q432.8156,865.6563 434.4094,865.6563 Q435.3469,865.6563 436.0031,865.4063 Q436.3938,865.25 436.8156,864.8125 Q437.0813,864.5469 437.2219,864.4688 Q437.3781,864.3906 437.5813,864.3906 Q437.9094,864.3906 438.1594,864.6563 Q438.425,864.9063 438.425,865.25 Q438.425,865.5938 438.0813,866 Q437.5813,866.5781 436.7844,866.9063 Q435.7063,867.3594 434.4094,867.3594 Q432.8938,867.3594 431.6906,866.7344 Q430.7063,866.2344 430.0188,865.1719 Q429.3313,864.0938 429.3313,862.8125 L429.3313,861.6563 Q429.3313,860.3281 429.9406,859.1875 Q430.5656,858.0313 431.6594,857.4219 Q432.7531,856.7969 433.9875,856.7969 Q434.7219,856.7969 435.3625,856.9688 Q436.0188,857.125 436.5656,857.4844 Z " fill="#000000"/><text fill="#000000" font-family="sans-serif" font-size="14" lengthAdjust="spacing" textLength="113" x="448.2" y="867.3379">PhotovoltaicPanel</text><line style="stroke:#FFFFFF;stroke-width:0.5;" x1="418" x2="565" y1="877.6094" y2="877.6094"/><text fill="#000000" font-family="sans-serif" font-size="14" lengthAdjust="spacing" textLength="62" x="423" y="896.1426">+id: string</text><text fill="#000000" font-family="sans-serif" font-size="14" lengthAdjust="spacing" textLength="86" x="423" y="913.752">+name: string</text><text fill="#000000" font-family="sans-serif" font-size="14" lengthAdjust="spacing" textLength="137" x="423" y="931.3613">+prosumer: Prosumer</text><line style="stroke:#FFFFFF;stroke-width:0.5;" x1="418" x2="565" y1="938.4375" y2="938.4375"/></g><!--class PhotovoltaicEnergy--><g id="elem_PhotovoltaicEnergy"><rect codeLine="91" fill="#BADFDB" height="136.0469" id="PhotovoltaicEnergy" rx="7.5" ry="7.5" style="stroke:#FFFFFF;stroke-width:0.5;" width="176" x="561.5" y="588.1094"/><ellipse cx="586.4" cy="604.1094" fill="#ADD1B2" rx="11" ry="11" style="stroke:#181818;stroke-width:1.0;"/><path d="M589.1656,599.9844 Q589.3219,599.7656 589.5094,599.6563 Q589.6969,599.5469 589.9156,599.5469 Q590.2906,599.5469 590.525,599.8125 Q590.7594,600.0625 590.7594,600.6719 L590.7594,602.125 Q590.7594,602.7344 590.525,603 Q590.2906,603.2656 589.9156,603.2656 Q589.5719,603.2656 589.3688,603.0625 Q589.1656,602.875 589.0563,602.3594 Q589.0094,602 588.8219,601.8125 Q588.4938,601.4375 587.8844,601.2188 Q587.275,601 586.65,601 Q585.8844,601 585.2438,601.3281 Q584.6188,601.6563 584.1188,602.4063 Q583.6344,603.1563 583.6344,604.1875 L583.6344,605.2813 Q583.6344,606.5156 584.525,607.3438 Q585.4156,608.1563 587.0094,608.1563 Q587.9469,608.1563 588.6031,607.9063 Q588.9938,607.75 589.4156,607.3125 Q589.6813,607.0469 589.8219,606.9688 Q589.9781,606.8906 590.1813,606.8906 Q590.5094,606.8906 590.7594,607.1563 Q591.025,607.4063 591.025,607.75 Q591.025,608.0938 590.6813,608.5 Q590.1813,609.0781 589.3844,609.4063 Q588.3063,609.8594 587.0094,609.8594 Q585.4938,609.8594 584.2906,609.2344 Q583.3063,608.7344 582.6188,607.6719 Q581.9313,606.5938 581.9313,605.3125 L581.9313,604.1563 Q581.9313,602.8281 582.5406,601.6875 Q583.1656,600.5313 584.2594,599.9219 Q585.3531,599.2969 586.5875,599.2969 Q587.3219,599.2969 587.9625,599.4688 Q588.6188,599.625 589.1656,599.9844 Z " fill="#000000"/><text fill="#000000" font-family="sans-serif" font-size="14" lengthAdjust="spacing" textLength="122" x="602.6" y="609.8379">PhotovoltaicEnergy</text><line style="stroke:#FFFFFF;stroke-width:0.5;" x1="562.5" x2="736.5" y1="620.1094" y2="620.1094"/><text fill="#000000" font-family="sans-serif" font-size="14" lengthAdjust="spacing" textLength="62" x="567.5" y="638.6426">+id: string</text><text fill="#000000" font-family="sans-serif" font-size="14" lengthAdjust="spacing" textLength="115" x="567.5" y="656.252">+timestamp: string</text><text fill="#000000" font-family="sans-serif" font-size="14" lengthAdjust="spacing" textLength="119" x="567.5" y="673.8613">+energyLoad: float</text><text fill="#000000" font-family="sans-serif" font-size="14" lengthAdjust="spacing" textLength="132" x="567.5" y="691.4707">+batteryEnergy: float</text><text fill="#000000" font-family="sans-serif" font-size="14" lengthAdjust="spacing" textLength="164" x="567.5" y="709.0801">+panel: PhotovoltaicPanel</text><line style="stroke:#FFFFFF;stroke-width:0.5;" x1="562.5" x2="736.5" y1="716.1563" y2="716.1563"/></g><!--class Battery--><g id="elem_Battery"><rect codeLine="99" fill="#BADFDB" height="171.2656" id="Battery" rx="7.5" ry="7.5" style="stroke:#FFFFFF;stroke-width:0.5;" width="191" x="706" y="810.6094"/><ellipse cx="774.75" cy="826.6094" fill="#ADD1B2" rx="11" ry="11" style="stroke:#181818;stroke-width:1.0;"/><path d="M777.5156,822.4844 Q777.6719,822.2656 777.8594,822.1563 Q778.0469,822.0469 778.2656,822.0469 Q778.6406,822.0469 778.875,822.3125 Q779.1094,822.5625 779.1094,823.1719 L779.1094,824.625 Q779.1094,825.2344 778.875,825.5 Q778.6406,825.7656 778.2656,825.7656 Q777.9219,825.7656 777.7188,825.5625 Q777.5156,825.375 777.4063,824.8594 Q777.3594,824.5 777.1719,824.3125 Q776.8438,823.9375 776.2344,823.7188 Q775.625,823.5 775,823.5 Q774.2344,823.5 773.5938,823.8281 Q772.9688,824.1563 772.4688,824.9063 Q771.9844,825.6563 771.9844,826.6875 L771.9844,827.7813 Q771.9844,829.0156 772.875,829.8438 Q773.7656,830.6563 775.3594,830.6563 Q776.2969,830.6563 776.9531,830.4063 Q777.3438,830.25 777.7656,829.8125 Q778.0313,829.5469 778.1719,829.4688 Q778.3281,829.3906 778.5313,829.3906 Q778.8594,829.3906 779.1094,829.6563 Q779.375,829.9063 779.375,830.25 Q779.375,830.5938 779.0313,831 Q778.5313,831.5781 777.7344,831.9063 Q776.6563,832.3594 775.3594,832.3594 Q773.8438,832.3594 772.6406,831.7344 Q771.6563,831.2344 770.9688,830.1719 Q770.2813,829.0938 770.2813,827.8125 L770.2813,826.6563 Q770.2813,825.3281 770.8906,824.1875 Q771.5156,823.0313 772.6094,822.4219 Q773.7031,821.7969 774.9375,821.7969 Q775.6719,821.7969 776.3125,821.9688 Q776.9688,822.125 777.5156,822.4844 Z " fill="#000000"/><text fill="#000000" font-family="sans-serif" font-size="14" lengthAdjust="spacing" textLength="45" x="795.25" y="832.3379">Battery</text><line style="stroke:#FFFFFF;stroke-width:0.5;" x1="707" x2="896" y1="842.6094" y2="842.6094"/><text fill="#000000" font-family="sans-serif" font-size="14" lengthAdjust="spacing" textLength="62" x="712" y="861.1426">+id: string</text><text fill="#000000" font-family="sans-serif" font-size="14" lengthAdjust="spacing" textLength="86" x="712" y="878.752">+name: string</text><text fill="#000000" font-family="sans-serif" font-size="14" lengthAdjust="spacing" textLength="123" x="712" y="896.3613">+maxCapacity: float</text><text fill="#000000" font-family="sans-serif" font-size="14" lengthAdjust="spacing" textLength="102" x="712" y="913.9707">+efficiency: float</text><text fill="#000000" font-family="sans-serif" font-size="14" lengthAdjust="spacing" textLength="179" x="712" y="931.5801">+maxChargeDischarge: float</text><text fill="#000000" font-family="sans-serif" font-size="14" lengthAdjust="spacing" textLength="130" x="712" y="949.1895">+initialCapacity: float</text><text fill="#000000" font-family="sans-serif" font-size="14" lengthAdjust="spacing" textLength="115" x="712" y="966.7988">+timestamp: string</text><line style="stroke:#FFFFFF;stroke-width:0.5;" x1="707" x2="896" y1="973.875" y2="973.875"/></g><!--class BatteryEnergy--><g id="elem_BatteryEnergy"><rect codeLine="109" fill="#BADFDB" height="188.875" id="BatteryEnergy" rx="7.5" ry="7.5" style="stroke:#FFFFFF;stroke-width:0.5;" width="164" x="772.5" y="561.6094"/><ellipse cx="806.4" cy="577.6094" fill="#ADD1B2" rx="11" ry="11" style="stroke:#181818;stroke-width:1.0;"/><path d="M809.1656,573.4844 Q809.3219,573.2656 809.5094,573.1563 Q809.6969,573.0469 809.9156,573.0469 Q810.2906,573.0469 810.525,573.3125 Q810.7594,573.5625 810.7594,574.1719 L810.7594,575.625 Q810.7594,576.2344 810.525,576.5 Q810.2906,576.7656 809.9156,576.7656 Q809.5719,576.7656 809.3688,576.5625 Q809.1656,576.375 809.0563,575.8594 Q809.0094,575.5 808.8219,575.3125 Q808.4938,574.9375 807.8844,574.7188 Q807.275,574.5 806.65,574.5 Q805.8844,574.5 805.2438,574.8281 Q804.6188,575.1563 804.1188,575.9063 Q803.6344,576.6563 803.6344,577.6875 L803.6344,578.7813 Q803.6344,580.0156 804.525,580.8438 Q805.4156,581.6563 807.0094,581.6563 Q807.9469,581.6563 808.6031,581.4063 Q808.9938,581.25 809.4156,580.8125 Q809.6813,580.5469 809.8219,580.4688 Q809.9781,580.3906 810.1813,580.3906 Q810.5094,580.3906 810.7594,580.6563 Q811.025,580.9063 811.025,581.25 Q811.025,581.5938 810.6813,582 Q810.1813,582.5781 809.3844,582.9063 Q808.3063,583.3594 807.0094,583.3594 Q805.4938,583.3594 804.2906,582.7344 Q803.3063,582.2344 802.6188,581.1719 Q801.9313,580.0938 801.9313,578.8125 L801.9313,577.6563 Q801.9313,576.3281 802.5406,575.1875 Q803.1656,574.0313 804.2594,573.4219 Q805.3531,572.7969 806.5875,572.7969 Q807.3219,572.7969 807.9625,572.9688 Q808.6188,573.125 809.1656,573.4844 Z " fill="#000000"/><text fill="#000000" font-family="sans-serif" font-size="14" lengthAdjust="spacing" textLength="90" x="824.6" y="583.3379">BatteryEnergy</text><line style="stroke:#FFFFFF;stroke-width:0.5;" x1="773.5" x2="935.5" y1="593.6094" y2="593.6094"/><text fill="#000000" font-family="sans-serif" font-size="14" lengthAdjust="spacing" textLength="62" x="778.5" y="612.1426">+id: string</text><text fill="#000000" font-family="sans-serif" font-size="14" lengthAdjust="spacing" textLength="115" x="778.5" y="629.752">+timestamp: string</text><text fill="#000000" font-family="sans-serif" font-size="14" lengthAdjust="spacing" textLength="136" x="778.5" y="647.3613">+stateOfCharge: float</text><text fill="#000000" font-family="sans-serif" font-size="14" lengthAdjust="spacing" textLength="87" x="778.5" y="664.9707">+charge: float</text><text fill="#000000" font-family="sans-serif" font-size="14" lengthAdjust="spacing" textLength="105" x="778.5" y="682.5801">+discharge: float</text><text fill="#000000" font-family="sans-serif" font-size="14" lengthAdjust="spacing" textLength="135" x="778.5" y="700.1895">+isCharging: boolean</text><text fill="#000000" font-family="sans-serif" font-size="14" lengthAdjust="spacing" textLength="152" x="778.5" y="717.7988">+isDischarging: boolean</text><text fill="#000000" font-family="sans-serif" font-size="14" lengthAdjust="spacing" textLength="105" x="778.5" y="735.4082">+battery: Battery</text><line style="stroke:#FFFFFF;stroke-width:0.5;" x1="773.5" x2="935.5" y1="742.4844" y2="742.4844"/></g><!--class Grid--><g id="elem_Grid"><rect codeLine="120" fill="#BADFDB" height="83.2188" id="Grid" rx="7.5" ry="7.5" style="stroke:#FFFFFF;stroke-width:0.5;" width="98" x="971.5" y="614.6094"/><ellipse cx="1004.05" cy="630.6094" fill="#ADD1B2" rx="11" ry="11" style="stroke:#181818;stroke-width:1.0;"/><path d="M1006.8156,626.4844 Q1006.9719,626.2656 1007.1594,626.1563 Q1007.3469,626.0469 1007.5656,626.0469 Q1007.9406,626.0469 1008.175,626.3125 Q1008.4094,626.5625 1008.4094,627.1719 L1008.4094,628.625 Q1008.4094,629.2344 1008.175,629.5 Q1007.9406,629.7656 1007.5656,629.7656 Q1007.2219,629.7656 1007.0188,629.5625 Q1006.8156,629.375 1006.7063,628.8594 Q1006.6594,628.5 1006.4719,628.3125 Q1006.1438,627.9375 1005.5344,627.7188 Q1004.925,627.5 1004.3,627.5 Q1003.5344,627.5 1002.8938,627.8281 Q1002.2688,628.1563 1001.7688,628.9063 Q1001.2844,629.6563 1001.2844,630.6875 L1001.2844,631.7813 Q1001.2844,633.0156 1002.175,633.8438 Q1003.0656,634.6563 1004.6594,634.6563 Q1005.5969,634.6563 1006.2531,634.4063 Q1006.6438,634.25 1007.0656,633.8125 Q1007.3313,633.5469 1007.4719,633.4688 Q1007.6281,633.3906 1007.8313,633.3906 Q1008.1594,633.3906 1008.4094,633.6563 Q1008.675,633.9063 1008.675,634.25 Q1008.675,634.5938 1008.3313,635 Q1007.8313,635.5781 1007.0344,635.9063 Q1005.9563,636.3594 1004.6594,636.3594 Q1003.1438,636.3594 1001.9406,635.7344 Q1000.9563,635.2344 1000.2688,634.1719 Q999.5813,633.0938 999.5813,631.8125 L999.5813,630.6563 Q999.5813,629.3281 1000.1906,628.1875 Q1000.8156,627.0313 1001.9094,626.4219 Q1003.0031,625.7969 1004.2375,625.7969 Q1004.9719,625.7969 1005.6125,625.9688 Q1006.2688,626.125 1006.8156,626.4844 Z " fill="#000000"/><text fill="#000000" font-family="sans-serif" font-size="14" lengthAdjust="spacing" textLength="27" x="1021.95" y="636.3379">Grid</text><line style="stroke:#FFFFFF;stroke-width:0.5;" x1="972.5" x2="1068.5" y1="646.6094" y2="646.6094"/><text fill="#000000" font-family="sans-serif" font-size="14" lengthAdjust="spacing" textLength="62" x="977.5" y="665.1426">+id: string</text><text fill="#000000" font-family="sans-serif" font-size="14" lengthAdjust="spacing" textLength="86" x="977.5" y="682.752">+name: string</text><line style="stroke:#FFFFFF;stroke-width:0.5;" x1="972.5" x2="1068.5" y1="689.8281" y2="689.8281"/></g><!--link Administrator to User--><g id="link_Administrator_User"><path codeLine="80" d="M87.7,689.2094 C111.63,722.3194 139.2876,760.5897 170.9876,804.4597 " fill="none" id="Administrator-to-User" style="stroke:#FFC5A1;stroke-width:1.0;"/><polygon fill="none" points="181.53,819.0494,175.8509,800.9456,166.1244,807.9738,181.53,819.0494" style="stroke:#FFC5A1;stroke-width:1.0;"/></g><!--link CommunityManager to User--><g id="link_CommunityManager_User"><path codeLine="83" d="M236.5,689.2094 C236.5,722.3194 236.5,757.1794 236.5,801.0494 " fill="none" id="CommunityManager-to-User" style="stroke:#FFC5A1;stroke-width:1.0;"/><polygon fill="none" points="236.5,819.0494,242.5,801.0494,230.5,801.0494,236.5,819.0494" style="stroke:#FFC5A1;stroke-width:1.0;"/></g><!--link Prosumer to User--><g id="link_Prosumer_User"><path codeLine="126" d="M381.42,724.3594 C355.41,755.0094 328.4417,786.7742 301.9117,818.0442 " fill="none" id="Prosumer-to-User" style="stroke:#FFC5A1;stroke-width:1.0;"/><polygon fill="#FFC5A1" points="298.03,822.6194,306.9027,818.3444,301.2647,818.8067,300.8024,813.1688,298.03,822.6194" style="stroke:#FFC5A1;stroke-width:1.0;"/></g><!--link Prosumer to Battery--><g id="link_Prosumer_Battery"><path codeLine="127" d="M510.69,724.3294 C521.72,733.5394 533.2,742.5794 544.5,750.6094 C595.42,786.7694 650.8644,818.4775 700.5144,844.6975 " fill="none" id="Prosumer-to-Battery" style="stroke:#FFC5A1;stroke-width:1.0;"/><polygon fill="#FFC5A1" points="705.82,847.4994,699.7295,839.7595,701.3987,845.1645,695.9937,846.8336,705.82,847.4994" style="stroke:#FFC5A1;stroke-width:1.0;"/></g><!--link Prosumer to PhotovoltaicPanel--><g id="link_Prosumer_PhotovoltaicPanel"><path codeLine="128" d="M453.48,724.3594 C462.05,762.8494 471.3056,804.4429 479.1256,839.5529 " fill="none" id="Prosumer-to-PhotovoltaicPanel" style="stroke:#FFC5A1;stroke-width:1.0;"/><polygon fill="#FFC5A1" points="480.43,845.4094,482.3777,835.755,479.343,840.529,474.5691,837.4942,480.43,845.4094" style="stroke:#FFC5A1;stroke-width:1.0;"/></g><!--link Profile to Prosumer--><g id="link_Profile_Prosumer"><path codeLine="129" d="M350.59,501.9694 C367.54,531.4894 382.0935,556.8455 397.0035,582.8255 " fill="none" id="Profile-to-Prosumer" style="stroke:#FFC5A1;stroke-width:1.0;"/><polygon fill="#FFC5A1" points="399.99,588.0294,398.9795,578.2325,397.5012,583.6928,392.0409,582.2145,399.99,588.0294" style="stroke:#FFC5A1;stroke-width:1.0;"/></g><!--link GridExchange to Prosumer--><g id="link_GridExchange_Prosumer"><path codeLine="130" d="M832.66,429.7994 C794.79,453.0894 747.61,480.5094 703.5,501.6094 C635.37,534.2094 609.21,522.6594 544.5,561.6094 C531.89,569.1994 524.0131,574.5814 512.2331,584.1714 " fill="none" id="GridExchange-to-Prosumer" style="stroke:#FFC5A1;stroke-width:1.0;"/><polygon fill="#FFC5A1" points="507.58,587.9594,517.0849,585.3794,511.4575,584.8027,512.0342,579.1753,507.58,587.9594" style="stroke:#FFC5A1;stroke-width:1.0;"/></g><!--link GridExchange to Grid--><g id="link_GridExchange_Grid"><path codeLine="131" d="M946.23,475.3494 C965.84,522.8194 986.3488,572.4441 1001.4588,609.0141 " fill="none" id="GridExchange-to-Grid" style="stroke:#FFC5A1;stroke-width:1.0;"/><polygon fill="#FFC5A1" points="1003.75,614.5594,1004.0101,604.714,1001.8407,609.9383,996.6163,607.7689,1003.75,614.5594" style="stroke:#FFC5A1;stroke-width:1.0;"/></g><!--link CommunityExchange to Prosumer--><g id="link_CommunityExchange_Prosumer"><path codeLine="132" d="M488.87,199.9594 C483.41,219.2594 478.16,240.0494 474.5,259.6094 C453.13,373.7994 444.5583,503.0154 441.0183,582.1054 " fill="none" id="CommunityExchange-to-Prosumer" style="stroke:#FFC5A1;stroke-width:1.0;"/><polygon fill="#FFC5A1" points="440.75,588.0994,445.1484,579.2872,440.9736,583.1044,437.1564,578.9295,440.75,588.0994" style="stroke:#FFC5A1;stroke-width:1.0;"/></g><!--link CommunityExchange to Community--><g id="link_CommunityExchange_Community"><path codeLine="133" d="M535.8,199.7294 C548.15,241.8794 561.4632,287.3114 572.2932,324.2814 " fill="none" id="CommunityExchange-to-Community" style="stroke:#FFC5A1;stroke-width:1.0;"/><polygon fill="#FFC5A1" points="573.98,330.0394,575.2885,320.2778,572.5744,325.241,567.6112,322.5268,573.98,330.0394" style="stroke:#FFC5A1;stroke-width:1.0;"/></g><!--link Community to Prosumer--><g id="link_Community_Prosumer"><path codeLine="134" d="M561.34,431.1394 C537.27,475.0094 504.8253,534.1786 478.2253,582.6786 " fill="none" id="Community-to-Prosumer" style="stroke:#FFC5A1;stroke-width:1.0;"/><polygon fill="#FFC5A1" points="475.34,587.9394,483.175,581.9718,477.7444,583.5554,476.1607,578.1248,475.34,587.9394" style="stroke:#FFC5A1;stroke-width:1.0;"/></g><!--link PhotovoltaicEnergy to PhotovoltaicPanel--><g id="link_PhotovoltaicEnergy_PhotovoltaicPanel"><path codeLine="135" d="M604.86,724.3594 C579.31,762.8494 551.1187,805.3007 527.8087,840.4107 " fill="none" id="PhotovoltaicEnergy-to-PhotovoltaicPanel" style="stroke:#FFC5A1;stroke-width:1.0;"/><polygon fill="#FFC5A1" points="524.49,845.4094,532.8004,840.1239,527.2556,841.2438,526.1356,835.699,524.49,845.4094" style="stroke:#FFC5A1;stroke-width:1.0;"/></g><!--link BatteryEnergy to Battery--><g id="link_BatteryEnergy_Battery"><path codeLine="136" d="M833.63,750.8294 C829.25,770.4694 825.9754,785.2231 821.6754,804.5131 " fill="none" id="BatteryEnergy-to-Battery" style="stroke:#FFC5A1;stroke-width:1.0;"/><polygon fill="#FFC5A1" points="820.37,810.3694,826.2323,802.4553,821.4579,805.4892,818.424,800.7147,820.37,810.3694" style="stroke:#FFC5A1;stroke-width:1.0;"/></g><!--SRC=[dLNDJjmm4BxdAIprq5PefNBWqAX2MXPK8O50fLNF4tkIjN0yaUqKwCyZzIdwOhMJpIQEGu5ULjblVhwPoSmNUojr0mPgLW2_hGorMcn8aM6lIbw-HyZitgCpSZ8Q3JiycXYu0clNpXbPj0xFEUaR-HtPkxaB-v4njZQ6xdgAikH7SEYn4p82JGz-tKg70PlNKu0eHP7zoZ8ddK9sIG8LCO7ibEe_lxKazcP3TGFSWQ2tMTPphaKjjRJEWFDPGWK7KkJC0r9NMKZN-_dGkjNIFLo2XWfJrxtdjI7RrbEF0JaN0H5ekP6DawJtmHvkBPgSVV6_uLy1pg5vo7sVtKF06j2eVBOjEVf6oe7arm6Ag4lfUvyo1s1730vpTWhT_0wShD4wg9kzrsUFt0Ia8-kn2mAVfbG4Bg0-mE5LkTc2gN22DvEQplm2L0-pm8BQQkjwqpGVAP603VfHwHbmrRefifleEDjn21-D56VtV0kwmkGjnOsFOD56PQ5I4PlaU19vTD3Dt2qfogEL2VIXg8LbUd6T_pSRZ_A1CX_P5mfQAaH3ZL4DkxGsPnV-SZuCDCTZlh36pqc5DKWLvTwIZibykZj__rFCaCBqxg9BpkAxNgr-7lUtzSWvPybz9o79tRraLakBUfqSpRFN01Tlh9UAz9wUr8sTo3odeHhkD-15jDkaFGMMfUGIDP-2mRKJYbDf-Lmn_Cjn4jH2hhJXUPql7DPZefNK99Rgj5sSJvMpWlpYWUxXeQcv9L7kI9YU7B7tViq-eV9JeM3GZYppQgEvR43QRFzrMQrswnaX0sa4fcz- -51qrc4n8-7yjwMJirJ5eg1byoW-e-P4OGjNiTn3l0pJvly2]--></g></svg>