<?xml version="1.0" encoding="us-ascii" standalone="no"?><svg xmlns="http://www.w3.org/2000/svg" xmlns:xlink="http://www.w3.org/1999/xlink" contentStyleType="text/css" height="103px" preserveAspectRatio="none" style="width:205px;height:103px;background:#FFFFFF;" version="1.1" viewBox="0 0 205 103" width="205px" zoomAndPan="magnify"><defs/><g><!--entity API--><g id="elem_API"><ellipse cx="16.5" cy="63.41" fill="#F1F1F1" rx="8" ry="8" style="stroke:#181818;stroke-width:0.5;"/><text fill="#000000" font-family="sans-serif" font-size="14" lengthAdjust="spacing" textLength="21" x="6" y="94.9432">API</text></g><!--entity UI--><g id="elem_UI"><ellipse cx="69.5" cy="63.41" fill="#F1F1F1" rx="8" ry="8" style="stroke:#181818;stroke-width:0.5;"/><text fill="#000000" font-family="sans-serif" font-size="14" lengthAdjust="spacing" textLength="12" x="63.5" y="94.9432">UI</text></g><!--entity System--><g id="elem_System"><rect fill="#F1F1F1" height="47.6094" rx="2.5" ry="2.5" style="stroke:#181818;stroke-width:0.5;" width="86" x="113.5" y="39.41"/><rect fill="#F1F1F1" height="10" style="stroke:#181818;stroke-width:0.5;" width="15" x="179.5" y="44.41"/><rect fill="#F1F1F1" height="2" style="stroke:#181818;stroke-width:0.5;" width="4" x="177.5" y="46.41"/><rect fill="#F1F1F1" height="2" style="stroke:#181818;stroke-width:0.5;" width="4" x="177.5" y="50.41"/><text fill="#000000" font-family="sans-serif" font-size="14" lengthAdjust="spacing" textLength="46" x="128.5" y="73.9432">System</text></g><!--link API to System--><g id="link_API_System"><path d="M20.93,53.99 C27.57,41.14 41.44,18.64 61,9.41 C68.24,6 71.37,7.01 79,9.41 C97.93,15.35 116.28,27.74 130.37,39.16 " fill="none" id="API-System" style="stroke:#181818;stroke-width:1.0;"/></g><!--link UI to System--><g id="link_UI_System"><path d="M78.68,63.41 C90.23,63.41 101.78,63.41 113.33,63.41 " fill="none" id="UI-System" style="stroke:#181818;stroke-width:1.0;"/></g><!--SRC=[oymhIIrAIqnELN0Cy5JWoeHpGu6yvFpSWloyrBmIXU3AufBKN2uka29T62yKYGq0]--></g></svg>