<?xml version="1.0" encoding="us-ascii" standalone="no"?><svg xmlns="http://www.w3.org/2000/svg" xmlns:xlink="http://www.w3.org/1999/xlink" contentStyleType="text/css" height="757px" preserveAspectRatio="none" style="width:689px;height:757px;background:#FFFFFF;" version="1.1" viewBox="0 0 689 757" width="689px" zoomAndPan="magnify"><defs/><g><text fill="#000000" font-family="sans-serif" font-size="14" font-weight="bold" lengthAdjust="spacing" textLength="272" x="207.5" y="29.5332">Sequence Diagram: PUT/PATCH Level 2</text><rect fill="#FFFFFF" height="534.8125" style="stroke:#181818;stroke-width:1.0;" width="10" x="32.5" y="131.2188"/><rect fill="#FFFFFF" height="511.4609" style="stroke:#181818;stroke-width:1.0;" width="10" x="240.5" y="153.5703"/><rect fill="#FFFFFF" height="91.0547" style="stroke:#181818;stroke-width:1.0;" width="10" x="434.5" y="183.9219"/><rect fill="#FFFFFF" height="238.2969" style="stroke:#181818;stroke-width:1.0;" width="10" x="434.5" y="426.7344"/><rect fill="#FFFFFF" height="30.3516" style="stroke:#181818;stroke-width:1.0;" width="10" x="600" y="214.2734"/><rect fill="#FFFFFF" height="30.3516" style="stroke:#181818;stroke-width:1.0;" width="10" x="600" y="457.0859"/><rect fill="none" height="155.5938" style="stroke:#000000;stroke-width:1.5;" width="517" x="10" y="502.4375"/><line style="stroke:#181818;stroke-width:0.5;stroke-dasharray:5.0,5.0;" x1="37" x2="37" y1="121.2188" y2="675.0313"/><line style="stroke:#181818;stroke-width:0.5;stroke-dasharray:5.0,5.0;" x1="245.5" x2="245.5" y1="121.2188" y2="675.0313"/><line style="stroke:#181818;stroke-width:0.5;stroke-dasharray:5.0,5.0;" x1="439" x2="439" y1="121.2188" y2="675.0313"/><line style="stroke:#181818;stroke-width:0.5;stroke-dasharray:5.0,5.0;" x1="605" x2="605" y1="121.2188" y2="675.0313"/><text fill="#000000" font-family="sans-serif" font-size="14" lengthAdjust="spacing" textLength="29" x="20" y="118.1426">User</text><ellipse cx="37.5" cy="52.1094" fill="#E3E3E3" rx="8" ry="8" style="stroke:#181818;stroke-width:0.5;"/><path d="M37.5,60.1094 L37.5,87.1094 M24.5,68.1094 L50.5,68.1094 M37.5,87.1094 L24.5,102.1094 M37.5,87.1094 L50.5,102.1094 " fill="none" style="stroke:#181818;stroke-width:0.5;"/><text fill="#000000" font-family="sans-serif" font-size="14" lengthAdjust="spacing" textLength="29" x="20" y="688.5645">User</text><ellipse cx="37.5" cy="700.1406" fill="#E3E3E3" rx="8" ry="8" style="stroke:#181818;stroke-width:0.5;"/><path d="M37.5,708.1406 L37.5,735.1406 M24.5,716.1406 L50.5,716.1406 M37.5,735.1406 L24.5,750.1406 M37.5,735.1406 L50.5,750.1406 " fill="none" style="stroke:#181818;stroke-width:0.5;"/><rect fill="#E3E3E3" height="31.6094" rx="2.5" ry="2.5" style="stroke:#181818;stroke-width:0.5;" width="172" x="159.5" y="88.6094"/><text fill="#000000" font-family="sans-serif" font-size="14" lengthAdjust="spacing" textLength="158" x="166.5" y="110.1426">Frontend (React, Refine)</text><rect fill="#E3E3E3" height="31.6094" rx="2.5" ry="2.5" style="stroke:#181818;stroke-width:0.5;" width="172" x="159.5" y="674.0313"/><text fill="#000000" font-family="sans-serif" font-size="14" lengthAdjust="spacing" textLength="158" x="166.5" y="695.5645">Frontend (React, Refine)</text><rect fill="#E3E3E3" height="31.6094" rx="2.5" ry="2.5" style="stroke:#181818;stroke-width:0.5;" width="155" x="362" y="88.6094"/><text fill="#000000" font-family="sans-serif" font-size="14" lengthAdjust="spacing" textLength="141" x="369" y="110.1426">Backend (Node.js API)</text><rect fill="#E3E3E3" height="31.6094" rx="2.5" ry="2.5" style="stroke:#181818;stroke-width:0.5;" width="155" x="362" y="674.0313"/><text fill="#000000" font-family="sans-serif" font-size="14" lengthAdjust="spacing" textLength="141" x="369" y="695.5645">Backend (Node.js API)</text><rect fill="#E3E3E3" height="31.6094" rx="2.5" ry="2.5" style="stroke:#181818;stroke-width:0.5;" width="156" x="527" y="88.6094"/><text fill="#000000" font-family="sans-serif" font-size="14" lengthAdjust="spacing" textLength="142" x="534" y="110.1426">PostgreSQL Database</text><rect fill="#E3E3E3" height="31.6094" rx="2.5" ry="2.5" style="stroke:#181818;stroke-width:0.5;" width="156" x="527" y="674.0313"/><text fill="#000000" font-family="sans-serif" font-size="14" lengthAdjust="spacing" textLength="142" x="534" y="695.5645">PostgreSQL Database</text><rect fill="#FFFFFF" height="534.8125" style="stroke:#181818;stroke-width:1.0;" width="10" x="32.5" y="131.2188"/><rect fill="#FFFFFF" height="511.4609" style="stroke:#181818;stroke-width:1.0;" width="10" x="240.5" y="153.5703"/><rect fill="#FFFFFF" height="91.0547" style="stroke:#181818;stroke-width:1.0;" width="10" x="434.5" y="183.9219"/><rect fill="#FFFFFF" height="238.2969" style="stroke:#181818;stroke-width:1.0;" width="10" x="434.5" y="426.7344"/><rect fill="#FFFFFF" height="30.3516" style="stroke:#181818;stroke-width:1.0;" width="10" x="600" y="214.2734"/><rect fill="#FFFFFF" height="30.3516" style="stroke:#181818;stroke-width:1.0;" width="10" x="600" y="457.0859"/><polygon fill="#181818" points="228.5,149.5703,238.5,153.5703,228.5,157.5703,232.5,153.5703" style="stroke:#181818;stroke-width:1.0;"/><line style="stroke:#181818;stroke-width:1.0;" x1="42.5" x2="234.5" y1="153.5703" y2="153.5703"/><text fill="#000000" font-family="sans-serif" font-size="13" lengthAdjust="spacing" textLength="142" x="49.5" y="148.7139">Asks to update an entity</text><polygon fill="#181818" points="422.5,179.9219,432.5,183.9219,422.5,187.9219,426.5,183.9219" style="stroke:#181818;stroke-width:1.0;"/><line style="stroke:#181818;stroke-width:1.0;" x1="250.5" x2="428.5" y1="183.9219" y2="183.9219"/><text fill="#000000" font-family="sans-serif" font-size="13" lengthAdjust="spacing" textLength="76" x="257.5" y="179.0654">GET /entities</text><polygon fill="#181818" points="588,210.2734,598,214.2734,588,218.2734,592,214.2734" style="stroke:#181818;stroke-width:1.0;"/><line style="stroke:#181818;stroke-width:1.0;" x1="444.5" x2="594" y1="214.2734" y2="214.2734"/><text fill="#000000" font-family="sans-serif" font-size="13" lengthAdjust="spacing" textLength="92" x="451.5" y="209.417">Query entity list</text><polygon fill="#181818" points="455.5,240.625,445.5,244.625,455.5,248.625,451.5,244.625" style="stroke:#181818;stroke-width:1.0;"/><line style="stroke:#181818;stroke-width:1.0;stroke-dasharray:2.0,2.0;" x1="449.5" x2="604" y1="244.625" y2="244.625"/><text fill="#000000" font-family="sans-serif" font-size="13" lengthAdjust="spacing" textLength="95" x="461.5" y="239.7686">Return entity list</text><polygon fill="#181818" points="261.5,270.9766,251.5,274.9766,261.5,278.9766,257.5,274.9766" style="stroke:#181818;stroke-width:1.0;"/><line style="stroke:#181818;stroke-width:1.0;" x1="255.5" x2="438.5" y1="274.9766" y2="274.9766"/><text fill="#000000" font-family="sans-serif" font-size="13" lengthAdjust="spacing" textLength="55" x="267.5" y="270.1201">Entity list</text><polygon fill="#181818" points="53.5,301.3281,43.5,305.3281,53.5,309.3281,49.5,305.3281" style="stroke:#181818;stroke-width:1.0;"/><line style="stroke:#181818;stroke-width:1.0;" x1="47.5" x2="239.5" y1="305.3281" y2="305.3281"/><text fill="#000000" font-family="sans-serif" font-size="13" lengthAdjust="spacing" textLength="107" x="59.5" y="300.4717">Displays entity list</text><polygon fill="#181818" points="228.5,331.6797,238.5,335.6797,228.5,339.6797,232.5,335.6797" style="stroke:#181818;stroke-width:1.0;"/><line style="stroke:#181818;stroke-width:1.0;" x1="42.5" x2="234.5" y1="335.6797" y2="335.6797"/><text fill="#000000" font-family="sans-serif" font-size="13" lengthAdjust="spacing" textLength="102" x="49.5" y="330.8232">Selects entity {id}</text><polygon fill="#181818" points="53.5,362.0313,43.5,366.0313,53.5,370.0313,49.5,366.0313" style="stroke:#181818;stroke-width:1.0;"/><line style="stroke:#181818;stroke-width:1.0;" x1="47.5" x2="239.5" y1="366.0313" y2="366.0313"/><text fill="#000000" font-family="sans-serif" font-size="13" lengthAdjust="spacing" textLength="170" x="59.5" y="361.1748">Requests updated entity data</text><polygon fill="#181818" points="228.5,392.3828,238.5,396.3828,228.5,400.3828,232.5,396.3828" style="stroke:#181818;stroke-width:1.0;"/><line style="stroke:#181818;stroke-width:1.0;" x1="42.5" x2="234.5" y1="396.3828" y2="396.3828"/><text fill="#000000" font-family="sans-serif" font-size="13" lengthAdjust="spacing" textLength="127" x="49.5" y="391.5264">Submits updated data</text><polygon fill="#181818" points="422.5,422.7344,432.5,426.7344,422.5,430.7344,426.5,426.7344" style="stroke:#181818;stroke-width:1.0;"/><line style="stroke:#181818;stroke-width:1.0;" x1="250.5" x2="428.5" y1="426.7344" y2="426.7344"/><text fill="#000000" font-family="sans-serif" font-size="13" lengthAdjust="spacing" textLength="124" x="257.5" y="421.8779">PUT /entity/{id} {data}</text><polygon fill="#181818" points="588,453.0859,598,457.0859,588,461.0859,592,457.0859" style="stroke:#181818;stroke-width:1.0;"/><line style="stroke:#181818;stroke-width:1.0;" x1="444.5" x2="594" y1="457.0859" y2="457.0859"/><text fill="#000000" font-family="sans-serif" font-size="13" lengthAdjust="spacing" textLength="117" x="451.5" y="452.2295">Update entity record</text><polygon fill="#181818" points="455.5,483.4375,445.5,487.4375,455.5,491.4375,451.5,487.4375" style="stroke:#181818;stroke-width:1.0;"/><line style="stroke:#181818;stroke-width:1.0;stroke-dasharray:2.0,2.0;" x1="449.5" x2="604" y1="487.4375" y2="487.4375"/><text fill="#000000" font-family="sans-serif" font-size="13" lengthAdjust="spacing" textLength="70" x="461.5" y="482.5811">Status code</text><path d="M10,502.4375 L71,502.4375 L71,510.7891 L61,520.7891 L10,520.7891 L10,502.4375 " fill="#EEEEEE" style="stroke:#000000;stroke-width:1.5;"/><rect fill="none" height="155.5938" style="stroke:#000000;stroke-width:1.5;" width="517" x="10" y="502.4375"/><text fill="#000000" font-family="sans-serif" font-size="13" font-weight="bold" lengthAdjust="spacing" textLength="16" x="25" y="516.9326">alt</text><text fill="#000000" font-family="sans-serif" font-size="11" font-weight="bold" lengthAdjust="spacing" textLength="98" x="86" y="515.8564">[successful case]</text><polygon fill="#181818" points="261.5,539.1406,251.5,543.1406,261.5,547.1406,257.5,543.1406" style="stroke:#181818;stroke-width:1.0;"/><line style="stroke:#181818;stroke-width:1.0;" x1="255.5" x2="433.5" y1="543.1406" y2="543.1406"/><text fill="#000000" font-family="sans-serif" font-size="13" lengthAdjust="spacing" textLength="160" x="267.5" y="538.2842">Entity updated successfully</text><polygon fill="#181818" points="53.5,569.4922,43.5,573.4922,53.5,577.4922,49.5,573.4922" style="stroke:#181818;stroke-width:1.0;"/><line style="stroke:#181818;stroke-width:1.0;" x1="47.5" x2="239.5" y1="573.4922" y2="573.4922"/><text fill="#000000" font-family="sans-serif" font-size="13" lengthAdjust="spacing" textLength="174" x="59.5" y="568.6357">Entity is updated successfully</text><line style="stroke:#000000;stroke-width:1.0;stroke-dasharray:2.0,2.0;" x1="10" x2="527" y1="582.4922" y2="582.4922"/><text fill="#000000" font-family="sans-serif" font-size="11" font-weight="bold" lengthAdjust="spacing" textLength="72" x="15" y="593.9111">[failure case]</text><polygon fill="#181818" points="261.5,615.6797,251.5,619.6797,261.5,623.6797,257.5,619.6797" style="stroke:#181818;stroke-width:1.0;"/><line style="stroke:#181818;stroke-width:1.0;" x1="255.5" x2="433.5" y1="619.6797" y2="619.6797"/><text fill="#000000" font-family="sans-serif" font-size="13" lengthAdjust="spacing" textLength="111" x="267.5" y="614.8232">Entity update failed</text><polygon fill="#181818" points="53.5,646.0313,43.5,650.0313,53.5,654.0313,49.5,650.0313" style="stroke:#181818;stroke-width:1.0;"/><line style="stroke:#181818;stroke-width:1.0;" x1="47.5" x2="239.5" y1="650.0313" y2="650.0313"/><text fill="#000000" font-family="sans-serif" font-size="13" lengthAdjust="spacing" textLength="120" x="59.5" y="645.1748">Entity is not updated</text><!--SRC=[ZPFBRjim44Nt-eg1LmtGr42MNXImw_G198LYsHymeSOAQvfqE6GA8SY_TwX7B3bkMYq4IJmpStbroJjj3-Xn3xVEElNWtPuW-4WPlwxag7POKH5gG-191RIL6GB50vRkjxOLRD4mPLdGGT227YDPHR3KM0atWtopdkRpzPVlS4DFPE0gor05vs6oOV8JG8Rqa4dRe9K-e0qm-UgT3MHB-B0YeJ_2YhRQqaM35_byJ2z4R0F_T2Lz-iKmpt-qQBSondF7eV9KtDt04WFU8rC3BnUDDFs4WLfDwGQNdzD4cC6STmp1GJoKYK0BP6NNzR4eAKkibFIQPl3jUWtJXjJ4HxQNreDIirm8VXV9rrrdC9h3iKG42d8vwhwY4BqTyIKDAmRzssrSdqTxFPt-Pkip-OryC5ZpQC3ObeACvEELUDRboqcJLGe52z8wL_QelE1fitY_rmEoGTvOAfdgBAsdQHuy9-xbt-Pksb_NpPTSEr- -xsyHC4G69SawCHPD08vA4VCs6b0Iempa-flX_PQEDQPk2iPcTRJcymKaXqsEd3RHq__ER7WgtnrcNUW7PicvCyaOV4f1_mC0]--></g></svg>