<?xml version="1.0" encoding="UTF-8" standalone="no"?><svg xmlns="http://www.w3.org/2000/svg" xmlns:xlink="http://www.w3.org/1999/xlink" contentStyleType="text/css" height="831px" preserveAspectRatio="none" style="width:1746px;height:831px;background:#FFFFFF;" version="1.1" viewBox="0 0 1746 831" width="1746px" zoomAndPan="magnify"><defs/><g><rect fill="#FFFFFF" height="647.2188" style="stroke:#181818;stroke-width:1.0;" width="10" x="32.5" y="92.6094"/><rect fill="#FFFFFF" height="30.3516" style="stroke:#181818;stroke-width:1.0;" width="10" x="266.5" y="114.9609"/><rect fill="#FFFFFF" height="564.1641" style="stroke:#181818;stroke-width:1.0;" width="10" x="266.5" y="175.6641"/><rect fill="#FFFFFF" height="533.8125" style="stroke:#181818;stroke-width:1.0;" width="10" x="799.5" y="206.0156"/><rect fill="#FFFFFF" height="325.8672" style="stroke:#181818;stroke-width:1.0;" width="10" x="992.5" y="236.3672"/><rect fill="#FFFFFF" height="265.1641" style="stroke:#181818;stroke-width:1.0;" width="10" x="1167.5" y="266.7188"/><rect fill="#FFFFFF" height="91.0547" style="stroke:#181818;stroke-width:1.0;" width="10" x="1315.5" y="349.7734"/><rect fill="#FFFFFF" height="30.3516" style="stroke:#181818;stroke-width:1.0;" width="10" x="1566.5" y="380.125"/><rect fill="#FFFFFF" height="30.3516" style="stroke:#181818;stroke-width:1.0;" width="10" x="1689" y="471.1797"/><rect fill="none" height="155.5938" style="stroke:#000000;stroke-width:1.5;" width="822" x="10" y="577.2344"/><line style="stroke:#181818;stroke-width:0.5;stroke-dasharray:5.0,5.0;" x1="37" x2="37" y1="82.6094" y2="749.8281"/><line style="stroke:#181818;stroke-width:0.5;stroke-dasharray:5.0,5.0;" x1="271" x2="271" y1="82.6094" y2="749.8281"/><line style="stroke:#181818;stroke-width:0.5;stroke-dasharray:5.0,5.0;" x1="804" x2="804" y1="82.6094" y2="749.8281"/><line style="stroke:#181818;stroke-width:0.5;stroke-dasharray:5.0,5.0;" x1="997.5" x2="997.5" y1="82.6094" y2="749.8281"/><line style="stroke:#181818;stroke-width:0.5;stroke-dasharray:5.0,5.0;" x1="1172" x2="1172" y1="82.6094" y2="749.8281"/><line style="stroke:#181818;stroke-width:0.5;stroke-dasharray:5.0,5.0;" x1="1320.5" x2="1320.5" y1="82.6094" y2="749.8281"/><line style="stroke:#181818;stroke-width:0.5;stroke-dasharray:5.0,5.0;" x1="1571" x2="1571" y1="82.6094" y2="749.8281"/><line style="stroke:#181818;stroke-width:0.5;stroke-dasharray:5.0,5.0;" x1="1694" x2="1694" y1="82.6094" y2="749.8281"/><text fill="#000000" font-family="sans-serif" font-size="14" lengthAdjust="spacing" textLength="29" x="20" y="79.5332">User</text><ellipse cx="37.5" cy="13.5" fill="#E2E2F0" rx="8" ry="8" style="stroke:#181818;stroke-width:0.5;"/><path d="M37.5,21.5 L37.5,48.5 M24.5,29.5 L50.5,29.5 M37.5,48.5 L24.5,63.5 M37.5,48.5 L50.5,63.5 " fill="none" style="stroke:#181818;stroke-width:0.5;"/><text fill="#000000" font-family="sans-serif" font-size="14" lengthAdjust="spacing" textLength="29" x="20" y="763.3613">User</text><ellipse cx="37.5" cy="774.9375" fill="#E2E2F0" rx="8" ry="8" style="stroke:#181818;stroke-width:0.5;"/><path d="M37.5,782.9375 L37.5,809.9375 M24.5,790.9375 L50.5,790.9375 M37.5,809.9375 L24.5,824.9375 M37.5,809.9375 L50.5,824.9375 " fill="none" style="stroke:#181818;stroke-width:0.5;"/><rect fill="#E2E2F0" height="31.6094" rx="2.5" ry="2.5" style="stroke:#181818;stroke-width:0.5;" width="41" x="251" y="50"/><text fill="#000000" font-family="sans-serif" font-size="14" lengthAdjust="spacing" textLength="27" x="258" y="71.5332">SPA</text><rect fill="#E2E2F0" height="31.6094" rx="2.5" ry="2.5" style="stroke:#181818;stroke-width:0.5;" width="41" x="251" y="748.8281"/><text fill="#000000" font-family="sans-serif" font-size="14" lengthAdjust="spacing" textLength="27" x="258" y="770.3613">SPA</text><rect fill="#E2E2F0" height="31.6094" rx="2.5" ry="2.5" style="stroke:#181818;stroke-width:0.5;" width="35" x="787" y="50"/><text fill="#000000" font-family="sans-serif" font-size="14" lengthAdjust="spacing" textLength="21" x="794" y="71.5332">API</text><rect fill="#E2E2F0" height="31.6094" rx="2.5" ry="2.5" style="stroke:#181818;stroke-width:0.5;" width="35" x="787" y="748.8281"/><text fill="#000000" font-family="sans-serif" font-size="14" lengthAdjust="spacing" textLength="21" x="794" y="770.3613">API</text><rect fill="#E2E2F0" height="31.6094" rx="2.5" ry="2.5" style="stroke:#181818;stroke-width:0.5;" width="120" x="937.5" y="50"/><text fill="#000000" font-family="sans-serif" font-size="14" lengthAdjust="spacing" textLength="106" x="944.5" y="71.5332">PatientController</text><rect fill="#E2E2F0" height="31.6094" rx="2.5" ry="2.5" style="stroke:#181818;stroke-width:0.5;" width="120" x="937.5" y="748.8281"/><text fill="#000000" font-family="sans-serif" font-size="14" lengthAdjust="spacing" textLength="106" x="944.5" y="770.3613">PatientController</text><rect fill="#E2E2F0" height="31.6094" rx="2.5" ry="2.5" style="stroke:#181818;stroke-width:0.5;" width="105" x="1120" y="50"/><text fill="#000000" font-family="sans-serif" font-size="14" lengthAdjust="spacing" textLength="91" x="1127" y="71.5332">PatientService</text><rect fill="#E2E2F0" height="31.6094" rx="2.5" ry="2.5" style="stroke:#181818;stroke-width:0.5;" width="105" x="1120" y="748.8281"/><text fill="#000000" font-family="sans-serif" font-size="14" lengthAdjust="spacing" textLength="91" x="1127" y="770.3613">PatientService</text><rect fill="#E2E2F0" height="31.6094" rx="2.5" ry="2.5" style="stroke:#181818;stroke-width:0.5;" width="58" x="1291.5" y="50"/><text fill="#000000" font-family="sans-serif" font-size="14" lengthAdjust="spacing" textLength="44" x="1298.5" y="71.5332">Patient</text><rect fill="#E2E2F0" height="31.6094" rx="2.5" ry="2.5" style="stroke:#181818;stroke-width:0.5;" width="58" x="1291.5" y="748.8281"/><text fill="#000000" font-family="sans-serif" font-size="14" lengthAdjust="spacing" textLength="44" x="1298.5" y="770.3613">Patient</text><rect fill="#E2E2F0" height="31.6094" rx="2.5" ry="2.5" style="stroke:#181818;stroke-width:0.5;" width="133" x="1505" y="50"/><text fill="#000000" font-family="sans-serif" font-size="14" lengthAdjust="spacing" textLength="119" x="1512" y="71.5332">ContactInformation</text><rect fill="#E2E2F0" height="31.6094" rx="2.5" ry="2.5" style="stroke:#181818;stroke-width:0.5;" width="133" x="1505" y="748.8281"/><text fill="#000000" font-family="sans-serif" font-size="14" lengthAdjust="spacing" textLength="119" x="1512" y="770.3613">ContactInformation</text><rect fill="#E2E2F0" height="31.6094" rx="2.5" ry="2.5" style="stroke:#181818;stroke-width:0.5;" width="92" x="1648" y="50"/><text fill="#000000" font-family="sans-serif" font-size="14" lengthAdjust="spacing" textLength="78" x="1655" y="71.5332">PatientRepo</text><rect fill="#E2E2F0" height="31.6094" rx="2.5" ry="2.5" style="stroke:#181818;stroke-width:0.5;" width="92" x="1648" y="748.8281"/><text fill="#000000" font-family="sans-serif" font-size="14" lengthAdjust="spacing" textLength="78" x="1655" y="770.3613">PatientRepo</text><rect fill="#FFFFFF" height="647.2188" style="stroke:#181818;stroke-width:1.0;" width="10" x="32.5" y="92.6094"/><rect fill="#FFFFFF" height="30.3516" style="stroke:#181818;stroke-width:1.0;" width="10" x="266.5" y="114.9609"/><rect fill="#FFFFFF" height="564.1641" style="stroke:#181818;stroke-width:1.0;" width="10" x="266.5" y="175.6641"/><rect fill="#FFFFFF" height="533.8125" style="stroke:#181818;stroke-width:1.0;" width="10" x="799.5" y="206.0156"/><rect fill="#FFFFFF" height="325.8672" style="stroke:#181818;stroke-width:1.0;" width="10" x="992.5" y="236.3672"/><rect fill="#FFFFFF" height="265.1641" style="stroke:#181818;stroke-width:1.0;" width="10" x="1167.5" y="266.7188"/><rect fill="#FFFFFF" height="91.0547" style="stroke:#181818;stroke-width:1.0;" width="10" x="1315.5" y="349.7734"/><rect fill="#FFFFFF" height="30.3516" style="stroke:#181818;stroke-width:1.0;" width="10" x="1566.5" y="380.125"/><rect fill="#FFFFFF" height="30.3516" style="stroke:#181818;stroke-width:1.0;" width="10" x="1689" y="471.1797"/><polygon fill="#181818" points="254.5,110.9609,264.5,114.9609,254.5,118.9609,258.5,114.9609" style="stroke:#181818;stroke-width:1.0;"/><line style="stroke:#181818;stroke-width:1.0;" x1="42.5" x2="260.5" y1="114.9609" y2="114.9609"/><text fill="#000000" font-family="sans-serif" font-size="13" font-weight="bold" lengthAdjust="spacing" textLength="7" x="49.5" y="110.1045">1</text><text fill="#000000" font-family="sans-serif" font-size="13" lengthAdjust="spacing" textLength="144" x="60.5" y="110.1045">Edit a patient information</text><polygon fill="#181818" points="53.5,141.3125,43.5,145.3125,53.5,149.3125,49.5,145.3125" style="stroke:#181818;stroke-width:1.0;"/><line style="stroke:#181818;stroke-width:1.0;stroke-dasharray:2.0,2.0;" x1="47.5" x2="270.5" y1="145.3125" y2="145.3125"/><text fill="#000000" font-family="sans-serif" font-size="13" font-weight="bold" lengthAdjust="spacing" textLength="7" x="59.5" y="140.4561">2</text><text fill="#000000" font-family="sans-serif" font-size="13" lengthAdjust="spacing" textLength="189" x="70.5" y="140.4561">Shows patients' ID and name list</text><polygon fill="#181818" points="254.5,171.6641,264.5,175.6641,254.5,179.6641,258.5,175.6641" style="stroke:#181818;stroke-width:1.0;"/><line style="stroke:#181818;stroke-width:1.0;" x1="42.5" x2="260.5" y1="175.6641" y2="175.6641"/><text fill="#000000" font-family="sans-serif" font-size="13" font-weight="bold" lengthAdjust="spacing" textLength="7" x="49.5" y="170.8076">3</text><text fill="#000000" font-family="sans-serif" font-size="13" lengthAdjust="spacing" textLength="91" x="60.5" y="170.8076">types patient ID</text><polygon fill="#181818" points="787.5,202.0156,797.5,206.0156,787.5,210.0156,791.5,206.0156" style="stroke:#181818;stroke-width:1.0;"/><line style="stroke:#181818;stroke-width:1.0;" x1="276.5" x2="793.5" y1="206.0156" y2="206.0156"/><text fill="#000000" font-family="sans-serif" font-size="13" font-weight="bold" lengthAdjust="spacing" textLength="7" x="283.5" y="201.1592">4</text><text fill="#000000" font-family="sans-serif" font-size="13" lengthAdjust="spacing" textLength="493" x="294.5" y="201.1592">PUT/PATCH /patient/{firstName, lastName, phoneNumber, email, emergencyContact}</text><polygon fill="#181818" points="980.5,232.3672,990.5,236.3672,980.5,240.3672,984.5,236.3672" style="stroke:#181818;stroke-width:1.0;"/><line style="stroke:#181818;stroke-width:1.0;" x1="809.5" x2="986.5" y1="236.3672" y2="236.3672"/><text fill="#000000" font-family="sans-serif" font-size="13" font-weight="bold" lengthAdjust="spacing" textLength="7" x="816.5" y="231.5107">5</text><text fill="#000000" font-family="sans-serif" font-size="13" lengthAdjust="spacing" textLength="153" x="827.5" y="231.5107">updatePatient(patientDTO)</text><polygon fill="#181818" points="1155.5,262.7188,1165.5,266.7188,1155.5,270.7188,1159.5,266.7188" style="stroke:#181818;stroke-width:1.0;"/><line style="stroke:#181818;stroke-width:1.0;" x1="1002.5" x2="1161.5" y1="266.7188" y2="266.7188"/><text fill="#000000" font-family="sans-serif" font-size="13" font-weight="bold" lengthAdjust="spacing" textLength="7" x="1009.5" y="261.8623">6</text><text fill="#000000" font-family="sans-serif" font-size="13" lengthAdjust="spacing" textLength="135" x="1020.5" y="261.8623">editPatient(patientDTO)</text><path d="M1182,279.7188 L1182,321.7188 L1520,321.7188 L1520,289.7188 L1510,279.7188 L1182,279.7188 " fill="#FEFFDD" style="stroke:#181818;stroke-width:0.5;"/><path d="M1510,279.7188 L1510,289.7188 L1520,289.7188 L1510,279.7188 " fill="#FEFFDD" style="stroke:#181818;stroke-width:0.5;"/><text fill="#000000" font-family="sans-serif" font-size="13" lengthAdjust="spacing" textLength="317" x="1188" y="298.2139">PatientService is responsible for orchestrating the logic</text><text fill="#000000" font-family="sans-serif" font-size="13" lengthAdjust="spacing" textLength="254" x="1188" y="314.5654">and ensuring ContactInformation is updated.</text><polygon fill="#181818" points="1303.5,345.7734,1313.5,349.7734,1303.5,353.7734,1307.5,349.7734" style="stroke:#181818;stroke-width:1.0;"/><line style="stroke:#181818;stroke-width:1.0;" x1="1177.5" x2="1309.5" y1="349.7734" y2="349.7734"/><text fill="#000000" font-family="sans-serif" font-size="13" font-weight="bold" lengthAdjust="spacing" textLength="7" x="1184.5" y="344.917">7</text><text fill="#000000" font-family="sans-serif" font-size="13" lengthAdjust="spacing" textLength="108" x="1195.5" y="344.917">findByDomainId(id)</text><polygon fill="#181818" points="1554.5,376.125,1564.5,380.125,1554.5,384.125,1558.5,380.125" style="stroke:#181818;stroke-width:1.0;"/><line style="stroke:#181818;stroke-width:1.0;" x1="1325.5" x2="1560.5" y1="380.125" y2="380.125"/><text fill="#000000" font-family="sans-serif" font-size="13" font-weight="bold" lengthAdjust="spacing" textLength="7" x="1332.5" y="375.2686">8</text><text fill="#000000" font-family="sans-serif" font-size="13" lengthAdjust="spacing" textLength="211" x="1343.5" y="375.2686">updateContact(phoneNumber, email)</text><polygon fill="#181818" points="1336.5,406.4766,1326.5,410.4766,1336.5,414.4766,1332.5,410.4766" style="stroke:#181818;stroke-width:1.0;"/><line style="stroke:#181818;stroke-width:1.0;stroke-dasharray:2.0,2.0;" x1="1330.5" x2="1570.5" y1="410.4766" y2="410.4766"/><text fill="#000000" font-family="sans-serif" font-size="13" font-weight="bold" lengthAdjust="spacing" textLength="7" x="1342.5" y="405.6201">9</text><text fill="#000000" font-family="sans-serif" font-size="13" lengthAdjust="spacing" textLength="158" x="1353.5" y="405.6201">updated ContactInformation</text><polygon fill="#181818" points="1188.5,436.8281,1178.5,440.8281,1188.5,444.8281,1184.5,440.8281" style="stroke:#181818;stroke-width:1.0;"/><line style="stroke:#181818;stroke-width:1.0;stroke-dasharray:2.0,2.0;" x1="1182.5" x2="1319.5" y1="440.8281" y2="440.8281"/><text fill="#000000" font-family="sans-serif" font-size="13" font-weight="bold" lengthAdjust="spacing" textLength="14" x="1194.5" y="435.9717">10</text><text fill="#000000" font-family="sans-serif" font-size="13" lengthAdjust="spacing" textLength="91" x="1212.5" y="435.9717">updated Patient</text><polygon fill="#181818" points="1677,467.1797,1687,471.1797,1677,475.1797,1681,471.1797" style="stroke:#181818;stroke-width:1.0;"/><line style="stroke:#181818;stroke-width:1.0;" x1="1177.5" x2="1683" y1="471.1797" y2="471.1797"/><text fill="#000000" font-family="sans-serif" font-size="13" font-weight="bold" lengthAdjust="spacing" textLength="14" x="1184.5" y="466.3232">11</text><text fill="#000000" font-family="sans-serif" font-size="13" lengthAdjust="spacing" textLength="125" x="1202.5" y="466.3232">save(updated Patient)</text><polygon fill="#181818" points="1188.5,497.5313,1178.5,501.5313,1188.5,505.5313,1184.5,501.5313" style="stroke:#181818;stroke-width:1.0;"/><line style="stroke:#181818;stroke-width:1.0;stroke-dasharray:2.0,2.0;" x1="1182.5" x2="1693" y1="501.5313" y2="501.5313"/><text fill="#000000" font-family="sans-serif" font-size="13" font-weight="bold" lengthAdjust="spacing" textLength="14" x="1194.5" y="496.6748">12</text><text fill="#000000" font-family="sans-serif" font-size="13" lengthAdjust="spacing" textLength="128" x="1212.5" y="496.6748">updated Patient saved</text><polygon fill="#181818" points="1013.5,527.8828,1003.5,531.8828,1013.5,535.8828,1009.5,531.8828" style="stroke:#181818;stroke-width:1.0;"/><line style="stroke:#181818;stroke-width:1.0;stroke-dasharray:2.0,2.0;" x1="1007.5" x2="1171.5" y1="531.8828" y2="531.8828"/><text fill="#000000" font-family="sans-serif" font-size="13" font-weight="bold" lengthAdjust="spacing" textLength="14" x="1019.5" y="527.0264">13</text><text fill="#000000" font-family="sans-serif" font-size="13" lengthAdjust="spacing" textLength="115" x="1037.5" y="527.0264">updated patientDTO</text><polygon fill="#181818" points="820.5,558.2344,810.5,562.2344,820.5,566.2344,816.5,562.2344" style="stroke:#181818;stroke-width:1.0;"/><line style="stroke:#181818;stroke-width:1.0;stroke-dasharray:2.0,2.0;" x1="814.5" x2="996.5" y1="562.2344" y2="562.2344"/><text fill="#000000" font-family="sans-serif" font-size="13" font-weight="bold" lengthAdjust="spacing" textLength="14" x="826.5" y="557.3779">14</text><text fill="#000000" font-family="sans-serif" font-size="13" lengthAdjust="spacing" textLength="93" x="844.5" y="557.3779">status code 200</text><path d="M10,577.2344 L71,577.2344 L71,585.5859 L61,595.5859 L10,595.5859 L10,577.2344 " fill="#EEEEEE" style="stroke:#000000;stroke-width:1.5;"/><rect fill="none" height="155.5938" style="stroke:#000000;stroke-width:1.5;" width="822" x="10" y="577.2344"/><text fill="#000000" font-family="sans-serif" font-size="13" font-weight="bold" lengthAdjust="spacing" textLength="16" x="25" y="591.7295">alt</text><text fill="#000000" font-family="sans-serif" font-size="11" font-weight="bold" lengthAdjust="spacing" textLength="98" x="86" y="590.6533">[successful case]</text><polygon fill="#181818" points="287.5,613.9375,277.5,617.9375,287.5,621.9375,283.5,617.9375" style="stroke:#181818;stroke-width:1.0;"/><line style="stroke:#181818;stroke-width:1.0;stroke-dasharray:2.0,2.0;" x1="281.5" x2="798.5" y1="617.9375" y2="617.9375"/><text fill="#000000" font-family="sans-serif" font-size="13" font-weight="bold" lengthAdjust="spacing" textLength="14" x="293.5" y="613.0811">15</text><text fill="#000000" font-family="sans-serif" font-size="13" lengthAdjust="spacing" textLength="167" x="311.5" y="613.0811">Patient updated successfully</text><polygon fill="#181818" points="53.5,644.2891,43.5,648.2891,53.5,652.2891,49.5,648.2891" style="stroke:#181818;stroke-width:1.0;"/><line style="stroke:#181818;stroke-width:1.0;stroke-dasharray:2.0,2.0;" x1="47.5" x2="265.5" y1="648.2891" y2="648.2891"/><text fill="#000000" font-family="sans-serif" font-size="13" font-weight="bold" lengthAdjust="spacing" textLength="14" x="59.5" y="643.4326">16</text><text fill="#000000" font-family="sans-serif" font-size="13" lengthAdjust="spacing" textLength="108" x="77.5" y="643.4326">Success message</text><line style="stroke:#000000;stroke-width:1.0;stroke-dasharray:2.0,2.0;" x1="10" x2="832" y1="657.2891" y2="657.2891"/><text fill="#000000" font-family="sans-serif" font-size="11" font-weight="bold" lengthAdjust="spacing" textLength="43" x="15" y="668.708">[failure]</text><polygon fill="#181818" points="287.5,690.4766,277.5,694.4766,287.5,698.4766,283.5,694.4766" style="stroke:#181818;stroke-width:1.0;"/><line style="stroke:#181818;stroke-width:1.0;stroke-dasharray:2.0,2.0;" x1="281.5" x2="798.5" y1="694.4766" y2="694.4766"/><text fill="#000000" font-family="sans-serif" font-size="13" font-weight="bold" lengthAdjust="spacing" textLength="14" x="293.5" y="689.6201">17</text><text fill="#000000" font-family="sans-serif" font-size="13" lengthAdjust="spacing" textLength="113" x="311.5" y="689.6201">Patient not updated</text><polygon fill="#181818" points="53.5,720.8281,43.5,724.8281,53.5,728.8281,49.5,724.8281" style="stroke:#181818;stroke-width:1.0;"/><line style="stroke:#181818;stroke-width:1.0;stroke-dasharray:2.0,2.0;" x1="47.5" x2="265.5" y1="724.8281" y2="724.8281"/><text fill="#000000" font-family="sans-serif" font-size="13" font-weight="bold" lengthAdjust="spacing" textLength="14" x="59.5" y="719.9717">18</text><text fill="#000000" font-family="sans-serif" font-size="13" lengthAdjust="spacing" textLength="85" x="77.5" y="719.9717">Error message</text><!--SRC=[ZPJDJkCm4CVlVegvRP7e5d7aWDIbIDiBHBGyWB4dYIN7Zcodg4BxxZjEyzN4GlIGnl7yV_FbCM-2DKtrWOwnhGZMmRkdTow2El60brLymFeH3jaM7k1PgW0SQXuKcW3AvDPLjB1cb94bOz5yJR9M_W27qdxwNkP_mNu7t4Wml4BGoWTW4gy1rtx3kSP1J-gKjqVOPdkopTwFcsnxVFeBcqwm-SgLy-65lDs2vlrRNLg3Bsq1RW4hhdJyGrUW4USdQm8v-JTw8ZhLYLoGf-m2ZaREQjtcsDIIpBgTLUTwTtoz6H4B6MDBqeW_e3ifWSH6gljFo9s2CMFferD56S3cyzqPNdbmw6jhlFhG2DHIi4wKw8CZGrD0AAbBjb22nQQXyOsBdxiIxST3456NCiZV36E3AGmszpScI9dboiW_vvsbyfkzN2cvJ6e0H6N2QL_wRckrxEk4kTIp179z5MENKaexERQ9tJ7mL5DxR9_cX3NFV5cwDwmjCJm_uMe6MbOm6hEfy2Vnj6oPYAgbBIBxTYeaZASsGHoERM8QXhdsWOV6Wx0IuVxkBe6PpXNNb40Z17gVDne4zyY0Vkq03_TAdseVvQZGvzPyVezTzg6Y1o-GeVOqC7J26lSTdiQWTv6YFZj7CpSmZMJJvEAzCxiT9yk8-0y0]--></g></svg>