<?xml version="1.0" encoding="UTF-8" standalone="no"?><svg xmlns="http://www.w3.org/2000/svg" xmlns:xlink="http://www.w3.org/1999/xlink" contentStyleType="text/css" height="620px" preserveAspectRatio="none" style="width:443px;height:620px;background:#FFFFFF;" version="1.1" viewBox="0 0 443 620" width="443px" zoomAndPan="magnify"><defs/><g><rect fill="#FFFFFF" height="437.2422" style="stroke:#181818;stroke-width:1.0;" width="10" x="32.5" y="92.6094"/><rect fill="#FFFFFF" height="414.8906" style="stroke:#181818;stroke-width:1.0;" width="10" x="248.5" y="114.9609"/><rect fill="#FFFFFF" height="30.3516" style="stroke:#181818;stroke-width:1.0;" width="10" x="403.5" y="181.6641"/><rect fill="#FFFFFF" height="30.3516" style="stroke:#181818;stroke-width:1.0;" width="10" x="403.5" y="381.6094"/><rect fill="none" height="94.8906" style="stroke:#000000;stroke-width:1.5;" width="274" x="10" y="227.0156"/><rect fill="none" height="94.8906" style="stroke:#000000;stroke-width:1.5;" width="274" x="10" y="426.9609"/><line style="stroke:#181818;stroke-width:0.5;stroke-dasharray:5.0,5.0;" x1="37" x2="37" y1="82.6094" y2="538.8516"/><line style="stroke:#181818;stroke-width:0.5;stroke-dasharray:5.0,5.0;" x1="253" x2="253" y1="82.6094" y2="538.8516"/><line style="stroke:#181818;stroke-width:0.5;stroke-dasharray:5.0,5.0;" x1="408.5" x2="408.5" y1="82.6094" y2="538.8516"/><text fill="#000000" font-family="sans-serif" font-size="14" lengthAdjust="spacing" textLength="29" x="20" y="79.5332">User</text><ellipse cx="37.5" cy="13.5" fill="#E2E2F0" rx="8" ry="8" style="stroke:#181818;stroke-width:0.5;"/><path d="M37.5,21.5 L37.5,48.5 M24.5,29.5 L50.5,29.5 M37.5,48.5 L24.5,63.5 M37.5,48.5 L50.5,63.5 " fill="none" style="stroke:#181818;stroke-width:0.5;"/><text fill="#000000" font-family="sans-serif" font-size="14" lengthAdjust="spacing" textLength="29" x="20" y="552.3848">User</text><ellipse cx="37.5" cy="563.9609" fill="#E2E2F0" rx="8" ry="8" style="stroke:#181818;stroke-width:0.5;"/><path d="M37.5,571.9609 L37.5,598.9609 M24.5,579.9609 L50.5,579.9609 M37.5,598.9609 L24.5,613.9609 M37.5,598.9609 L50.5,613.9609 " fill="none" style="stroke:#181818;stroke-width:0.5;"/><rect fill="#E2E2F0" height="31.6094" rx="2.5" ry="2.5" style="stroke:#181818;stroke-width:0.5;" width="41" x="233" y="50"/><text fill="#000000" font-family="sans-serif" font-size="14" lengthAdjust="spacing" textLength="27" x="240" y="71.5332">SPA</text><rect fill="#E2E2F0" height="31.6094" rx="2.5" ry="2.5" style="stroke:#181818;stroke-width:0.5;" width="41" x="233" y="537.8516"/><text fill="#000000" font-family="sans-serif" font-size="14" lengthAdjust="spacing" textLength="27" x="240" y="559.3848">SPA</text><rect fill="#E2E2F0" height="31.6094" rx="2.5" ry="2.5" style="stroke:#181818;stroke-width:0.5;" width="58" x="379.5" y="50"/><text fill="#000000" font-family="sans-serif" font-size="14" lengthAdjust="spacing" textLength="44" x="386.5" y="71.5332">Patient</text><rect fill="#E2E2F0" height="31.6094" rx="2.5" ry="2.5" style="stroke:#181818;stroke-width:0.5;" width="58" x="379.5" y="537.8516"/><text fill="#000000" font-family="sans-serif" font-size="14" lengthAdjust="spacing" textLength="44" x="386.5" y="559.3848">Patient</text><rect fill="#FFFFFF" height="437.2422" style="stroke:#181818;stroke-width:1.0;" width="10" x="32.5" y="92.6094"/><rect fill="#FFFFFF" height="414.8906" style="stroke:#181818;stroke-width:1.0;" width="10" x="248.5" y="114.9609"/><rect fill="#FFFFFF" height="30.3516" style="stroke:#181818;stroke-width:1.0;" width="10" x="403.5" y="181.6641"/><rect fill="#FFFFFF" height="30.3516" style="stroke:#181818;stroke-width:1.0;" width="10" x="403.5" y="381.6094"/><polygon fill="#181818" points="236.5,110.9609,246.5,114.9609,236.5,118.9609,240.5,114.9609" style="stroke:#181818;stroke-width:1.0;"/><line style="stroke:#181818;stroke-width:1.0;" x1="42.5" x2="242.5" y1="114.9609" y2="114.9609"/><text fill="#000000" font-family="sans-serif" font-size="13" font-weight="bold" lengthAdjust="spacing" textLength="7" x="49.5" y="110.1045">1</text><text fill="#000000" font-family="sans-serif" font-size="13" lengthAdjust="spacing" textLength="144" x="60.5" y="110.1045">Edit a patient information</text><path d="M263,127.9609 L263,153.9609 L422,153.9609 L422,137.9609 L412,127.9609 L263,127.9609 " fill="#FEFFDD" style="stroke:#181818;stroke-width:0.5;"/><path d="M412,127.9609 L412,137.9609 L422,137.9609 L412,127.9609 " fill="#FEFFDD" style="stroke:#181818;stroke-width:0.5;"/><text fill="#000000" font-family="sans-serif" font-size="13" lengthAdjust="spacing" textLength="138" x="269" y="146.4561">Single Page Application</text><polygon fill="#181818" points="391.5,177.6641,401.5,181.6641,391.5,185.6641,395.5,181.6641" style="stroke:#181818;stroke-width:1.0;"/><line style="stroke:#181818;stroke-width:1.0;" x1="258.5" x2="397.5" y1="181.6641" y2="181.6641"/><text fill="#000000" font-family="sans-serif" font-size="13" font-weight="bold" lengthAdjust="spacing" textLength="7" x="265.5" y="176.8076">2</text><text fill="#000000" font-family="sans-serif" font-size="13" lengthAdjust="spacing" textLength="115" x="276.5" y="176.8076">GET/patients/findAll</text><polygon fill="#181818" points="269.5,208.0156,259.5,212.0156,269.5,216.0156,265.5,212.0156" style="stroke:#181818;stroke-width:1.0;"/><line style="stroke:#181818;stroke-width:1.0;stroke-dasharray:2.0,2.0;" x1="263.5" x2="407.5" y1="212.0156" y2="212.0156"/><text fill="#000000" font-family="sans-serif" font-size="13" font-weight="bold" lengthAdjust="spacing" textLength="7" x="275.5" y="207.1592">3</text><text fill="#000000" font-family="sans-serif" font-size="13" lengthAdjust="spacing" textLength="68" x="286.5" y="207.1592">status code</text><path d="M10,227.0156 L71,227.0156 L71,235.3672 L61,245.3672 L10,245.3672 L10,227.0156 " fill="#EEEEEE" style="stroke:#000000;stroke-width:1.5;"/><rect fill="none" height="94.8906" style="stroke:#000000;stroke-width:1.5;" width="274" x="10" y="227.0156"/><text fill="#000000" font-family="sans-serif" font-size="13" font-weight="bold" lengthAdjust="spacing" textLength="16" x="25" y="241.5107">alt</text><text fill="#000000" font-family="sans-serif" font-size="11" font-weight="bold" lengthAdjust="spacing" textLength="101" x="86" y="240.4346">[successfull case]</text><polygon fill="#181818" points="53.5,263.7188,43.5,267.7188,53.5,271.7188,49.5,267.7188" style="stroke:#181818;stroke-width:1.0;"/><line style="stroke:#181818;stroke-width:1.0;stroke-dasharray:2.0,2.0;" x1="47.5" x2="247.5" y1="267.7188" y2="267.7188"/><text fill="#000000" font-family="sans-serif" font-size="13" font-weight="bold" lengthAdjust="spacing" textLength="7" x="59.5" y="262.8623">4</text><text fill="#000000" font-family="sans-serif" font-size="13" lengthAdjust="spacing" textLength="127" x="70.5" y="262.8623">Returns requested list</text><line style="stroke:#000000;stroke-width:1.0;stroke-dasharray:2.0,2.0;" x1="10" x2="284" y1="276.7188" y2="276.7188"/><text fill="#000000" font-family="sans-serif" font-size="11" font-weight="bold" lengthAdjust="spacing" textLength="43" x="15" y="288.1377">[failure]</text><polygon fill="#181818" points="53.5,309.9063,43.5,313.9063,53.5,317.9063,49.5,313.9063" style="stroke:#181818;stroke-width:1.0;"/><line style="stroke:#181818;stroke-width:1.0;stroke-dasharray:2.0,2.0;" x1="47.5" x2="247.5" y1="313.9063" y2="313.9063"/><text fill="#000000" font-family="sans-serif" font-size="13" font-weight="bold" lengthAdjust="spacing" textLength="7" x="59.5" y="309.0498">5</text><text fill="#000000" font-family="sans-serif" font-size="13" lengthAdjust="spacing" textLength="171" x="70.5" y="309.0498">Does not return requested list</text><polygon fill="#181818" points="236.5,347.2578,246.5,351.2578,236.5,355.2578,240.5,351.2578" style="stroke:#181818;stroke-width:1.0;"/><line style="stroke:#181818;stroke-width:1.0;" x1="42.5" x2="242.5" y1="351.2578" y2="351.2578"/><text fill="#000000" font-family="sans-serif" font-size="13" font-weight="bold" lengthAdjust="spacing" textLength="7" x="49.5" y="346.4014">6</text><text fill="#000000" font-family="sans-serif" font-size="13" lengthAdjust="spacing" textLength="89" x="60.5" y="346.4014">types patient id</text><polygon fill="#181818" points="391.5,377.6094,401.5,381.6094,391.5,385.6094,395.5,381.6094" style="stroke:#181818;stroke-width:1.0;"/><line style="stroke:#181818;stroke-width:1.0;" x1="258.5" x2="397.5" y1="381.6094" y2="381.6094"/><text fill="#000000" font-family="sans-serif" font-size="13" font-weight="bold" lengthAdjust="spacing" textLength="7" x="265.5" y="376.7529">7</text><text fill="#000000" font-family="sans-serif" font-size="13" lengthAdjust="spacing" textLength="115" x="276.5" y="376.7529">DELETE/patient/{id}</text><polygon fill="#181818" points="269.5,407.9609,259.5,411.9609,269.5,415.9609,265.5,411.9609" style="stroke:#181818;stroke-width:1.0;"/><line style="stroke:#181818;stroke-width:1.0;stroke-dasharray:2.0,2.0;" x1="263.5" x2="407.5" y1="411.9609" y2="411.9609"/><text fill="#000000" font-family="sans-serif" font-size="13" font-weight="bold" lengthAdjust="spacing" textLength="7" x="275.5" y="407.1045">8</text><text fill="#000000" font-family="sans-serif" font-size="13" lengthAdjust="spacing" textLength="68" x="286.5" y="407.1045">status code</text><path d="M10,426.9609 L71,426.9609 L71,435.3125 L61,445.3125 L10,445.3125 L10,426.9609 " fill="#EEEEEE" style="stroke:#000000;stroke-width:1.5;"/><rect fill="none" height="94.8906" style="stroke:#000000;stroke-width:1.5;" width="274" x="10" y="426.9609"/><text fill="#000000" font-family="sans-serif" font-size="13" font-weight="bold" lengthAdjust="spacing" textLength="16" x="25" y="441.4561">alt</text><text fill="#000000" font-family="sans-serif" font-size="11" font-weight="bold" lengthAdjust="spacing" textLength="101" x="86" y="440.3799">[successfull case]</text><polygon fill="#181818" points="53.5,463.6641,43.5,467.6641,53.5,471.6641,49.5,467.6641" style="stroke:#181818;stroke-width:1.0;"/><line style="stroke:#181818;stroke-width:1.0;stroke-dasharray:2.0,2.0;" x1="47.5" x2="247.5" y1="467.6641" y2="467.6641"/><text fill="#000000" font-family="sans-serif" font-size="13" font-weight="bold" lengthAdjust="spacing" textLength="7" x="59.5" y="462.8076">9</text><text fill="#000000" font-family="sans-serif" font-size="13" lengthAdjust="spacing" textLength="163" x="70.5" y="462.8076">Patient deleted successfully</text><line style="stroke:#000000;stroke-width:1.0;stroke-dasharray:2.0,2.0;" x1="10" x2="284" y1="476.6641" y2="476.6641"/><text fill="#000000" font-family="sans-serif" font-size="11" font-weight="bold" lengthAdjust="spacing" textLength="43" x="15" y="488.083">[failure]</text><polygon fill="#181818" points="53.5,509.8516,43.5,513.8516,53.5,517.8516,49.5,513.8516" style="stroke:#181818;stroke-width:1.0;"/><line style="stroke:#181818;stroke-width:1.0;stroke-dasharray:2.0,2.0;" x1="47.5" x2="247.5" y1="513.8516" y2="513.8516"/><text fill="#000000" font-family="sans-serif" font-size="13" font-weight="bold" lengthAdjust="spacing" textLength="14" x="59.5" y="508.9951">10</text><text fill="#000000" font-family="sans-serif" font-size="13" lengthAdjust="spacing" textLength="109" x="77.5" y="508.9951">Patient not deleted</text><!--SRC=[lP31QiCm38RlUWgzGCazXq6WOPSTojezW6ShcS2rCqiUbB5tdvqcxLWBkyq7Onbz_o_z9ciC-VXA2Q2p6XE-I7qRg_nXbCvblN3pWFjTXotsZXKDJaQPWYA78QPZAMAuOgKJ8CJoIZo-ASPX_jfp63tXpeo4tJHvjcUEWiEv6w1w5AlTejxYOtze5Yzf1Wwky_vgjFG1hC3cCgUeqIneeoDmT4iOhoZPMX8PilTeZH1WEVC8HMPUkyLdqfo2OABtJABaqBCea1V2mR3FwIwsZIHrgS9L_WOF3du5gwUf89TStPqmjlrJV-ZNF9fFTb__ciMgxCXJNUK7S_epaHMkeIm2DOPl]--></g></svg>