<?xml version="1.0" encoding="UTF-8" standalone="no"?><svg xmlns="http://www.w3.org/2000/svg" xmlns:xlink="http://www.w3.org/1999/xlink" contentStyleType="text/css" height="373px" preserveAspectRatio="none" style="width:921px;height:373px;background:#FFFFFF;" version="1.1" viewBox="0 0 921 373" width="921px" zoomAndPan="magnify"><defs/><g><rect fill="#FFFFFF" height="271.1641" style="stroke:#181818;stroke-width:1.0;" width="10" x="20.5" y="47.6094"/><rect fill="#FFFFFF" height="212.4609" style="stroke:#181818;stroke-width:1.0;" width="10" x="292.5" y="106.3125"/><rect fill="#FFFFFF" height="151.7578" style="stroke:#181818;stroke-width:1.0;" width="10" x="487.5" y="136.6641"/><rect fill="#FFFFFF" height="91.0547" style="stroke:#181818;stroke-width:1.0;" width="10" x="670.5" y="167.0156"/><rect fill="#FFFFFF" height="30.3516" style="stroke:#181818;stroke-width:1.0;" width="10" x="864.5" y="197.3672"/><line style="stroke:#181818;stroke-width:0.5;stroke-dasharray:5.0,5.0;" x1="25" x2="25" y1="37.6094" y2="336.7734"/><line style="stroke:#181818;stroke-width:0.5;stroke-dasharray:5.0,5.0;" x1="297" x2="297" y1="37.6094" y2="336.7734"/><line style="stroke:#181818;stroke-width:0.5;stroke-dasharray:5.0,5.0;" x1="492.5" x2="492.5" y1="37.6094" y2="336.7734"/><line style="stroke:#181818;stroke-width:0.5;stroke-dasharray:5.0,5.0;" x1="675" x2="675" y1="37.6094" y2="336.7734"/><line style="stroke:#181818;stroke-width:0.5;stroke-dasharray:5.0,5.0;" x1="869.5" x2="869.5" y1="37.6094" y2="336.7734"/><rect fill="#E2E2F0" height="31.6094" rx="2.5" ry="2.5" style="stroke:#181818;stroke-width:0.5;" width="41" x="5" y="5"/><text fill="#000000" font-family="sans-serif" font-size="14" lengthAdjust="spacing" textLength="27" x="12" y="26.5332">SPA</text><rect fill="#E2E2F0" height="31.6094" rx="2.5" ry="2.5" style="stroke:#181818;stroke-width:0.5;" width="41" x="5" y="335.7734"/><text fill="#000000" font-family="sans-serif" font-size="14" lengthAdjust="spacing" textLength="27" x="12" y="357.3066">SPA</text><rect fill="#E2E2F0" height="31.6094" rx="2.5" ry="2.5" style="stroke:#181818;stroke-width:0.5;" width="35" x="280" y="5"/><text fill="#000000" font-family="sans-serif" font-size="14" lengthAdjust="spacing" textLength="21" x="287" y="26.5332">API</text><rect fill="#E2E2F0" height="31.6094" rx="2.5" ry="2.5" style="stroke:#181818;stroke-width:0.5;" width="35" x="280" y="335.7734"/><text fill="#000000" font-family="sans-serif" font-size="14" lengthAdjust="spacing" textLength="21" x="287" y="357.3066">API</text><rect fill="#E2E2F0" height="31.6094" rx="2.5" ry="2.5" style="stroke:#181818;stroke-width:0.5;" width="120" x="432.5" y="5"/><text fill="#000000" font-family="sans-serif" font-size="14" lengthAdjust="spacing" textLength="106" x="439.5" y="26.5332">PatientController</text><rect fill="#E2E2F0" height="31.6094" rx="2.5" ry="2.5" style="stroke:#181818;stroke-width:0.5;" width="120" x="432.5" y="335.7734"/><text fill="#000000" font-family="sans-serif" font-size="14" lengthAdjust="spacing" textLength="106" x="439.5" y="357.3066">PatientController</text><rect fill="#E2E2F0" height="31.6094" rx="2.5" ry="2.5" style="stroke:#181818;stroke-width:0.5;" width="105" x="623" y="5"/><text fill="#000000" font-family="sans-serif" font-size="14" lengthAdjust="spacing" textLength="91" x="630" y="26.5332">PatientService</text><rect fill="#E2E2F0" height="31.6094" rx="2.5" ry="2.5" style="stroke:#181818;stroke-width:0.5;" width="105" x="623" y="335.7734"/><text fill="#000000" font-family="sans-serif" font-size="14" lengthAdjust="spacing" textLength="91" x="630" y="357.3066">PatientService</text><rect fill="#E2E2F0" height="31.6094" rx="2.5" ry="2.5" style="stroke:#181818;stroke-width:0.5;" width="92" x="823.5" y="5"/><text fill="#000000" font-family="sans-serif" font-size="14" lengthAdjust="spacing" textLength="78" x="830.5" y="26.5332">PatientRepo</text><rect fill="#E2E2F0" height="31.6094" rx="2.5" ry="2.5" style="stroke:#181818;stroke-width:0.5;" width="92" x="823.5" y="335.7734"/><text fill="#000000" font-family="sans-serif" font-size="14" lengthAdjust="spacing" textLength="78" x="830.5" y="357.3066">PatientRepo</text><rect fill="#FFFFFF" height="271.1641" style="stroke:#181818;stroke-width:1.0;" width="10" x="20.5" y="47.6094"/><rect fill="#FFFFFF" height="212.4609" style="stroke:#181818;stroke-width:1.0;" width="10" x="292.5" y="106.3125"/><rect fill="#FFFFFF" height="151.7578" style="stroke:#181818;stroke-width:1.0;" width="10" x="487.5" y="136.6641"/><rect fill="#FFFFFF" height="91.0547" style="stroke:#181818;stroke-width:1.0;" width="10" x="670.5" y="167.0156"/><rect fill="#FFFFFF" height="30.3516" style="stroke:#181818;stroke-width:1.0;" width="10" x="864.5" y="197.3672"/><path d="M35,52.6094 L35,78.6094 L194,78.6094 L194,62.6094 L184,52.6094 L35,52.6094 " fill="#FEFFDD" style="stroke:#181818;stroke-width:0.5;"/><path d="M184,52.6094 L184,62.6094 L194,62.6094 L184,52.6094 " fill="#FEFFDD" style="stroke:#181818;stroke-width:0.5;"/><text fill="#000000" font-family="sans-serif" font-size="13" lengthAdjust="spacing" textLength="138" x="41" y="71.1045">Single Page Application</text><polygon fill="#181818" points="280.5,102.3125,290.5,106.3125,280.5,110.3125,284.5,106.3125" style="stroke:#181818;stroke-width:1.0;"/><line style="stroke:#181818;stroke-width:1.0;" x1="30.5" x2="286.5" y1="106.3125" y2="106.3125"/><text fill="#000000" font-family="sans-serif" font-size="13" lengthAdjust="spacing" textLength="243" x="37.5" y="101.4561">GET /api/patients?search={searchCriteria}</text><polygon fill="#181818" points="475.5,132.6641,485.5,136.6641,475.5,140.6641,479.5,136.6641" style="stroke:#181818;stroke-width:1.0;"/><line style="stroke:#181818;stroke-width:1.0;" x1="302.5" x2="481.5" y1="136.6641" y2="136.6641"/><text fill="#000000" font-family="sans-serif" font-size="13" lengthAdjust="spacing" textLength="154" x="309.5" y="131.8076">getPatients(searchCriteria)</text><polygon fill="#181818" points="658.5,163.0156,668.5,167.0156,658.5,171.0156,662.5,167.0156" style="stroke:#181818;stroke-width:1.0;"/><line style="stroke:#181818;stroke-width:1.0;" x1="497.5" x2="664.5" y1="167.0156" y2="167.0156"/><text fill="#000000" font-family="sans-serif" font-size="13" lengthAdjust="spacing" textLength="154" x="504.5" y="162.1592">getPatients(searchCriteria)</text><polygon fill="#181818" points="852.5,193.3672,862.5,197.3672,852.5,201.3672,856.5,197.3672" style="stroke:#181818;stroke-width:1.0;"/><line style="stroke:#181818;stroke-width:1.0;" x1="680.5" x2="858.5" y1="197.3672" y2="197.3672"/><text fill="#000000" font-family="sans-serif" font-size="13" lengthAdjust="spacing" textLength="165" x="687.5" y="192.5107">findByCriteria(searchCriteria)</text><polygon fill="#181818" points="691.5,223.7188,681.5,227.7188,691.5,231.7188,687.5,227.7188" style="stroke:#181818;stroke-width:1.0;"/><line style="stroke:#181818;stroke-width:1.0;stroke-dasharray:2.0,2.0;" x1="685.5" x2="868.5" y1="227.7188" y2="227.7188"/><text fill="#000000" font-family="sans-serif" font-size="13" lengthAdjust="spacing" textLength="60" x="697.5" y="222.8623">patientList</text><polygon fill="#181818" points="508.5,254.0703,498.5,258.0703,508.5,262.0703,504.5,258.0703" style="stroke:#181818;stroke-width:1.0;"/><line style="stroke:#181818;stroke-width:1.0;" x1="502.5" x2="674.5" y1="258.0703" y2="258.0703"/><text fill="#000000" font-family="sans-serif" font-size="13" lengthAdjust="spacing" textLength="60" x="514.5" y="253.2139">patientList</text><polygon fill="#181818" points="313.5,284.4219,303.5,288.4219,313.5,292.4219,309.5,288.4219" style="stroke:#181818;stroke-width:1.0;"/><line style="stroke:#181818;stroke-width:1.0;stroke-dasharray:2.0,2.0;" x1="307.5" x2="491.5" y1="288.4219" y2="288.4219"/><text fill="#000000" font-family="sans-serif" font-size="13" lengthAdjust="spacing" textLength="161" x="319.5" y="283.5654">status code 200, patientList</text><polygon fill="#181818" points="36.5,314.7734,26.5,318.7734,36.5,322.7734,32.5,318.7734" style="stroke:#181818;stroke-width:1.0;"/><line style="stroke:#181818;stroke-width:1.0;stroke-dasharray:2.0,2.0;" x1="30.5" x2="296.5" y1="318.7734" y2="318.7734"/><text fill="#000000" font-family="sans-serif" font-size="13" lengthAdjust="spacing" textLength="60" x="42.5" y="313.917">patientList</text><!--SRC=[bPB1QiCm38RlUWeTDsXfsN7GZQoKKjWXB7i1uQYf8DZ6rWfZxDtdf4cJhIrX9zlY_p_9aiYe74aPYpm3wz8bI7LGTFisKeYjQiQSAiRC-reCgJWBR4jirG19XlCdpF8TFk9syuuByhBmISTMutDa2kQm-ZgTwo3AGUWRg4-SZ02DEq7oasljh0PNrnmIicBjml7kD-H-W5mO0IvPGuA2mr4C_vFUkSxedZ9mtzYx1DsBBLy-Uz0ajt71c32_LcdNqLU92YLVPTmkREZ25EZl9yVzEuyvAkb7HEDAneVbSZR178-bdNG2DMjpivPs9qRl9Fu1]--></g></svg>