<?xml version="1.0" encoding="us-ascii" standalone="no"?><svg xmlns="http://www.w3.org/2000/svg" xmlns:xlink="http://www.w3.org/1999/xlink" contentStyleType="text/css" height="407px" preserveAspectRatio="none" style="width:884px;height:407px;background:#FFFFFF;" version="1.1" viewBox="0 0 884 407" width="884px" zoomAndPan="magnify"><defs/><g><!--class Prosumer--><g id="elem_Prosumer"><rect codeLine="3" fill="#F1F1F1" height="202.0938" id="Prosumer" rx="2.5" ry="2.5" style="stroke:#181818;stroke-width:0.5;" width="197" x="286.5" y="7"/><text fill="#000000" font-family="sans-serif" font-size="14" lengthAdjust="spacing" textLength="61" x="354.5" y="26.5332">Prosumer</text><line style="stroke:#181818;stroke-width:0.5;" x1="287.5" x2="482.5" y1="34.6094" y2="34.6094"/><rect fill="none" height="6" style="stroke:#C82930;stroke-width:1.0;" width="6" x="294.5" y="45.9141"/><text fill="#000000" font-family="sans-serif" font-size="14" lengthAdjust="spacing" textLength="118" x="306.5" y="53.1426">pvProduction: float</text><rect fill="none" height="6" style="stroke:#C82930;stroke-width:1.0;" width="6" x="294.5" y="63.5234"/><text fill="#000000" font-family="sans-serif" font-size="14" lengthAdjust="spacing" textLength="62" x="306.5" y="70.752">load: float</text><rect fill="none" height="6" style="stroke:#C82930;stroke-width:1.0;" width="6" x="294.5" y="81.1328"/><text fill="#000000" font-family="sans-serif" font-size="14" lengthAdjust="spacing" textLength="75" x="306.5" y="88.3613">pLoad: float</text><rect fill="none" height="6" style="stroke:#C82930;stroke-width:1.0;" width="6" x="294.5" y="98.7422"/><text fill="#000000" font-family="sans-serif" font-size="14" lengthAdjust="spacing" textLength="117" x="306.5" y="105.9707">pESSCharge: float</text><rect fill="none" height="6" style="stroke:#C82930;stroke-width:1.0;" width="6" x="294.5" y="116.3516"/><text fill="#000000" font-family="sans-serif" font-size="14" lengthAdjust="spacing" textLength="134" x="306.5" y="123.5801">pESSDischarge: float</text><rect fill="none" height="6" style="stroke:#C82930;stroke-width:1.0;" width="6" x="294.5" y="133.9609"/><text fill="#000000" font-family="sans-serif" font-size="14" lengthAdjust="spacing" textLength="96" x="306.5" y="141.1895">pPV_ESS: float</text><line style="stroke:#181818;stroke-width:0.5;" x1="287.5" x2="482.5" y1="148.2656" y2="148.2656"/><ellipse cx="297.5" cy="162.5703" fill="#84BE84" rx="3" ry="3" style="stroke:#038048;stroke-width:1.0;"/><text fill="#000000" font-family="sans-serif" font-size="14" lengthAdjust="spacing" textLength="142" x="306.5" y="166.7988">calculatePLoad(): float</text><ellipse cx="297.5" cy="180.1797" fill="#84BE84" rx="3" ry="3" style="stroke:#038048;stroke-width:1.0;"/><text fill="#000000" font-family="sans-serif" font-size="14" lengthAdjust="spacing" textLength="148" x="306.5" y="184.4082">decideExchange(): void</text><ellipse cx="297.5" cy="197.7891" fill="#84BE84" rx="3" ry="3" style="stroke:#038048;stroke-width:1.0;"/><text fill="#000000" font-family="sans-serif" font-size="14" lengthAdjust="spacing" textLength="171" x="306.5" y="202.0176">decideBatteryUsage(): void</text></g><!--class Battery--><g id="elem_Battery"><rect codeLine="15" fill="#F1F1F1" height="114.0469" id="Battery" rx="2.5" ry="2.5" style="stroke:#181818;stroke-width:0.5;" width="214" x="7" y="278"/><text fill="#000000" font-family="sans-serif" font-size="14" lengthAdjust="spacing" textLength="45" x="91.5" y="297.5332">Battery</text><line style="stroke:#181818;stroke-width:0.5;" x1="8" x2="220" y1="305.6094" y2="305.6094"/><rect fill="none" height="6" style="stroke:#C82930;stroke-width:1.0;" width="6" x="15" y="316.9141"/><text fill="#000000" font-family="sans-serif" font-size="14" lengthAdjust="spacing" textLength="87" x="27" y="324.1426">capacity: float</text><rect fill="none" height="6" style="stroke:#C82930;stroke-width:1.0;" width="6" x="15" y="334.5234"/><text fill="#000000" font-family="sans-serif" font-size="14" lengthAdjust="spacing" textLength="128" x="27" y="341.752">stateOfCharge: float</text><line style="stroke:#181818;stroke-width:0.5;" x1="8" x2="220" y1="348.8281" y2="348.8281"/><ellipse cx="18" cy="363.1328" fill="#84BE84" rx="3" ry="3" style="stroke:#038048;stroke-width:1.0;"/><text fill="#000000" font-family="sans-serif" font-size="14" lengthAdjust="spacing" textLength="170" x="27" y="367.3613">charge(amount: float): void</text><ellipse cx="18" cy="380.7422" fill="#84BE84" rx="3" ry="3" style="stroke:#038048;stroke-width:1.0;"/><text fill="#000000" font-family="sans-serif" font-size="14" lengthAdjust="spacing" textLength="188" x="27" y="384.9707">discharge(amount: float): void</text></g><!--class Community--><g id="elem_Community"><rect codeLine="22" fill="#F1F1F1" height="131.6563" id="Community" rx="2.5" ry="2.5" style="stroke:#181818;stroke-width:0.5;" width="258" x="256" y="269"/><text fill="#000000" font-family="sans-serif" font-size="14" lengthAdjust="spacing" textLength="70" x="350" y="288.5332">Community</text><line style="stroke:#181818;stroke-width:0.5;" x1="257" x2="513" y1="296.6094" y2="296.6094"/><rect fill="none" height="6" style="stroke:#C82930;stroke-width:1.0;" width="6" x="264" y="307.9141"/><text fill="#000000" font-family="sans-serif" font-size="14" lengthAdjust="spacing" textLength="143" x="276" y="315.1426">peers: List&lt;Prosumer&gt;</text><line style="stroke:#181818;stroke-width:0.5;" x1="257" x2="513" y1="322.2188" y2="322.2188"/><ellipse cx="267" cy="336.5234" fill="#84BE84" rx="3" ry="3" style="stroke:#038048;stroke-width:1.0;"/><text fill="#000000" font-family="sans-serif" font-size="14" lengthAdjust="spacing" textLength="113" x="276" y="340.752">hasEnergy(): bool</text><ellipse cx="267" cy="354.1328" fill="#84BE84" rx="3" ry="3" style="stroke:#038048;stroke-width:1.0;"/><text fill="#000000" font-family="sans-serif" font-size="14" lengthAdjust="spacing" textLength="129" x="276" y="358.3613">needsEnergy(): bool</text><ellipse cx="267" cy="371.7422" fill="#84BE84" rx="3" ry="3" style="stroke:#038048;stroke-width:1.0;"/><text fill="#000000" font-family="sans-serif" font-size="14" lengthAdjust="spacing" textLength="232" x="276" y="375.9707">receiveEnergy(from: Prosumer): void</text><ellipse cx="267" cy="389.3516" fill="#84BE84" rx="3" ry="3" style="stroke:#038048;stroke-width:1.0;"/><text fill="#000000" font-family="sans-serif" font-size="14" lengthAdjust="spacing" textLength="217" x="276" y="393.5801">provideEnergy(to: Prosumer): void</text></g><!--class Exchange--><g id="elem_Exchange"><rect codeLine="30" fill="#F1F1F1" height="114.0469" id="Exchange" rx="2.5" ry="2.5" style="stroke:#181818;stroke-width:0.5;" width="328" x="549" y="278"/><text fill="#000000" font-family="sans-serif" font-size="14" lengthAdjust="spacing" textLength="62" x="682" y="297.5332">Exchange</text><line style="stroke:#181818;stroke-width:0.5;" x1="550" x2="876" y1="305.6094" y2="305.6094"/><rect fill="none" height="6" style="stroke:#C82930;stroke-width:1.0;" width="6" x="557" y="316.9141"/><text fill="#000000" font-family="sans-serif" font-size="14" lengthAdjust="spacing" textLength="66" x="569" y="324.1426">pSell: float</text><rect fill="none" height="6" style="stroke:#C82930;stroke-width:1.0;" width="6" x="557" y="334.5234"/><text fill="#000000" font-family="sans-serif" font-size="14" lengthAdjust="spacing" textLength="67" x="569" y="341.752">pBuy: float</text><line style="stroke:#181818;stroke-width:0.5;" x1="550" x2="876" y1="348.8281" y2="348.8281"/><ellipse cx="560" cy="363.1328" fill="#84BE84" rx="3" ry="3" style="stroke:#038048;stroke-width:1.0;"/><text fill="#000000" font-family="sans-serif" font-size="14" lengthAdjust="spacing" textLength="302" x="569" y="367.3613">registerSell(from: Prosumer, amount: float): void</text><ellipse cx="560" cy="380.7422" fill="#84BE84" rx="3" ry="3" style="stroke:#038048;stroke-width:1.0;"/><text fill="#000000" font-family="sans-serif" font-size="14" lengthAdjust="spacing" textLength="287" x="569" y="384.9707">registerBuy(to: Prosumer, amount: float): void</text></g><!--link Prosumer to Battery--><g id="link_Prosumer_Battery"><path codeLine="37" d="M286.4,190.87 C251.59,219.77 217.8761,247.7571 186.2261,274.0371 " fill="none" id="Prosumer-to-Battery" style="stroke:#181818;stroke-width:1.0;"/><polygon fill="#181818" points="181.61,277.87,191.0895,275.198,185.4568,274.6759,185.9789,269.0432,181.61,277.87" style="stroke:#181818;stroke-width:1.0;"/></g><!--link Prosumer to Community--><g id="link_Prosumer_Community"><path codeLine="38" d="M372.32,209.33 C372.1,229.48 372.1461,244.1767 373.0261,262.7567 " fill="none" id="Prosumer-to-Community" style="stroke:#181818;stroke-width:1.0;"/><polygon fill="#181818" points="373.31,268.75,376.8797,259.5708,373.0735,263.7556,368.8887,259.9493,373.31,268.75" style="stroke:#181818;stroke-width:1.0;"/></g><!--link Community to Prosumer--><g id="link_Community_Prosumer"><path codeLine="40" d="M397.38,268.75 C398.31,250.17 398.7285,235.4796 398.4985,215.3296 " fill="none" id="Community-to-Prosumer" style="stroke:#181818;stroke-width:1.0;"/><polygon fill="#181818" points="398.43,209.33,394.533,218.3751,398.4871,214.3297,402.5325,218.2838,398.43,209.33" style="stroke:#181818;stroke-width:1.0;"/><text fill="#000000" font-family="sans-serif" font-size="13" lengthAdjust="spacing" textLength="20" x="378.6712" y="230.5214">0..*</text></g><!--link Prosumer to Exchange--><g id="link_Prosumer_Exchange"><path codeLine="39" d="M483.86,176.81 C530.92,209.1 581.5823,243.8459 626.2323,274.4759 " fill="none" id="Prosumer-to-Exchange" style="stroke:#181818;stroke-width:1.0;"/><polygon fill="#181818" points="631.18,277.87,626.0212,269.4803,627.0569,275.0416,621.4957,276.0773,631.18,277.87" style="stroke:#181818;stroke-width:1.0;"/></g><!--SRC=[TLBBRi8m4BpdAonEz07g6LKSeBaX5GcrrshhBC6g7z7QZXfL_VSwQHoS01Shdbdlpip6VWbT0O5YrZKImqc2Ewzabd49rh8z6UiL4ll965kmgWv0uRaJHg_OKHfm7Hu-YlHUxQP0VZXiJq0bJj4NOVabiN__2DmPUc0S9FSI7ExRtlExb2kGYmBpxz18bzXojH55Gct0EQJcpK92_qQJFTjxv5015wv9zLWN1hyUfmw2gWwPWp9UkvuOZO_khfSC4hP6AQ_3r1Wq8jaLsmdhdkCErbt74zXS8vLDw-FJ6DcX6h6uXXDo53Nsp96CMWqxJNLMPEesmlywPowh1ganvgZqW5AEThVnJHeHOHbS8BLr4mMFx6PmyLLeDf9puqbGD_ogYyKwhdGC3Y6FuMWeEo-XXMTFo-NzR1YS_G40]--></g></svg>