<?xml version="1.0" encoding="us-ascii" standalone="no"?><svg xmlns="http://www.w3.org/2000/svg" xmlns:xlink="http://www.w3.org/1999/xlink" contentStyleType="text/css" height="301px" preserveAspectRatio="none" style="width:1821px;height:301px;background:#FFFFFF;" version="1.1" viewBox="0 0 1821 301" width="1821px" zoomAndPan="magnify"><defs/><g><!--cluster SATCOMM--><g id="cluster_SATCOMM"><rect fill="none" height="266" rx="2.5" ry="2.5" style="stroke:#181818;stroke-width:1.0;" width="1637" x="178.5" y="13.1855"/><rect fill="none" height="10" style="stroke:#181818;stroke-width:1.0;" width="15" x="1795.5" y="18.1855"/><rect fill="none" height="2" style="stroke:#181818;stroke-width:1.0;" width="4" x="1793.5" y="20.1855"/><rect fill="none" height="2" style="stroke:#181818;stroke-width:1.0;" width="4" x="1793.5" y="24.1855"/><text fill="#000000" font-family="sans-serif" font-size="14" font-style="italic" lengthAdjust="spacing" textLength="110" x="942" y="40.7188">&#171;Container (C4)&#187;</text><text fill="#000000" font-family="sans-serif" font-size="14" font-weight="bold" lengthAdjust="spacing" textLength="73" x="960.5" y="58.3281">SATCOMM</text></g><!--cluster View_UI--><g id="cluster_View_UI"><rect fill="none" height="177" rx="2.5" ry="2.5" style="stroke:#181818;stroke-width:1.0;" width="265" x="307.5" y="25.1855"/><rect fill="none" height="10" style="stroke:#181818;stroke-width:1.0;" width="15" x="552.5" y="30.1855"/><rect fill="none" height="2" style="stroke:#181818;stroke-width:1.0;" width="4" x="550.5" y="32.1855"/><rect fill="none" height="2" style="stroke:#181818;stroke-width:1.0;" width="4" x="550.5" y="36.1855"/><text fill="#000000" font-family="sans-serif" font-size="14" font-style="italic" lengthAdjust="spacing" textLength="110" x="385" y="52.7188">&#171;Container (C4)&#187;</text><text fill="#000000" font-family="sans-serif" font-size="14" font-weight="bold" lengthAdjust="spacing" textLength="61" x="409.5" y="70.3281">View (UI)</text></g><!--cluster Authentication--><g id="cluster_Authentication"><rect fill="none" height="83" rx="2.5" ry="2.5" style="stroke:#181818;stroke-width:1.0;" width="231" x="873.5" y="179.1855"/><rect fill="none" height="10" style="stroke:#181818;stroke-width:1.0;" width="15" x="1084.5" y="184.1855"/><rect fill="none" height="2" style="stroke:#181818;stroke-width:1.0;" width="4" x="1082.5" y="186.1855"/><rect fill="none" height="2" style="stroke:#181818;stroke-width:1.0;" width="4" x="1082.5" y="190.1855"/><text fill="#000000" font-family="sans-serif" font-size="14" font-style="italic" lengthAdjust="spacing" textLength="110" x="934" y="206.7188">&#171;Container (C4)&#187;</text><text fill="#000000" font-family="sans-serif" font-size="14" font-weight="bold" lengthAdjust="spacing" textLength="102" x="938" y="224.3281">Authentication</text></g><!--cluster EM--><g id="cluster_EM"><rect fill="none" height="130" rx="2.5" ry="2.5" style="stroke:#181818;stroke-width:1.0;" width="242" x="1238.5" y="94.1855"/><rect fill="none" height="10" style="stroke:#181818;stroke-width:1.0;" width="15" x="1460.5" y="99.1855"/><rect fill="none" height="2" style="stroke:#181818;stroke-width:1.0;" width="4" x="1458.5" y="101.1855"/><rect fill="none" height="2" style="stroke:#181818;stroke-width:1.0;" width="4" x="1458.5" y="105.1855"/><text fill="#000000" font-family="sans-serif" font-size="14" font-style="italic" lengthAdjust="spacing" textLength="110" x="1304.5" y="121.7188">&#171;Container (C4)&#187;</text><text fill="#000000" font-family="sans-serif" font-size="14" font-weight="bold" lengthAdjust="spacing" textLength="144" x="1287.5" y="139.3281">Energy Management</text></g><!--cluster OTAPI--><g id="cluster_OTAPI"><rect fill="none" height="83" rx="2.5" ry="2.5" style="stroke:#181818;stroke-width:1.0;" width="208" x="1591.5" y="31.1855"/><rect fill="none" height="10" style="stroke:#181818;stroke-width:1.0;" width="15" x="1779.5" y="36.1855"/><rect fill="none" height="2" style="stroke:#181818;stroke-width:1.0;" width="4" x="1777.5" y="38.1855"/><rect fill="none" height="2" style="stroke:#181818;stroke-width:1.0;" width="4" x="1777.5" y="42.1855"/><text fill="#000000" font-family="sans-serif" font-size="14" font-style="italic" lengthAdjust="spacing" textLength="110" x="1640.5" y="58.7188">&#171;Container (C4)&#187;</text><text fill="#000000" font-family="sans-serif" font-size="14" font-weight="bold" lengthAdjust="spacing" textLength="87" x="1652" y="76.3281">Optimization</text></g><text fill="#000000" font-family="sans-serif" font-size="14" lengthAdjust="spacing" textLength="4" x="176.5" y="234.7188">&#160;</text><rect fill="#F1F1F1" height="12" style="stroke:#181818;stroke-width:1.5;" width="12" x="172.5" y="208.1855"/><!--entity OtimizationAPI--><g id="elem_OtimizationAPI"><ellipse cx="1384.5" cy="60.1855" fill="#F1F1F1" rx="8" ry="8" style="stroke:#181818;stroke-width:0.5;"/><text fill="#000000" font-family="sans-serif" font-size="14" lengthAdjust="spacing" textLength="102" x="1333.5" y="91.7188">Optimization API</text></g><!--entity AuthAPI--><g id="elem_AuthAPI"><ellipse cx="681.5" cy="184.1855" fill="#F1F1F1" rx="8" ry="8" style="stroke:#181818;stroke-width:0.5;"/><text fill="#000000" font-family="sans-serif" font-size="14" lengthAdjust="spacing" textLength="115" x="624" y="215.7188">Authentication API</text></g><!--entity EMAPI--><g id="elem_EMAPI"><ellipse cx="1025.5" cy="139.1855" fill="#F1F1F1" rx="8" ry="8" style="stroke:#181818;stroke-width:0.5;"/><text fill="#000000" font-family="sans-serif" font-size="14" lengthAdjust="spacing" textLength="156" x="947.5" y="170.7188">Energy Management API</text></g><text fill="#000000" font-family="sans-serif" font-size="14" lengthAdjust="spacing" textLength="4" x="305.5" y="204.7188">&#160;</text><rect fill="#F1F1F1" height="12" style="stroke:#181818;stroke-width:1.5;" width="12" x="301.5" y="178.1855"/><text fill="#000000" font-family="sans-serif" font-size="14" lengthAdjust="spacing" textLength="4" x="305.5" y="69.1094">&#160;</text><rect fill="#F1F1F1" height="12" style="stroke:#181818;stroke-width:1.5;" width="12" x="301.5" y="84.1855"/><text fill="#000000" font-family="sans-serif" font-size="14" lengthAdjust="spacing" textLength="4" x="305.5" y="22.1094">&#160;</text><rect fill="#F1F1F1" height="12" style="stroke:#181818;stroke-width:1.5;" width="12" x="301.5" y="37.1855"/><text fill="#000000" font-family="sans-serif" font-size="14" lengthAdjust="spacing" textLength="4" x="305.5" y="157.7188">&#160;</text><rect fill="#F1F1F1" height="12" style="stroke:#181818;stroke-width:1.5;" width="12" x="301.5" y="131.1855"/><text fill="#000000" font-family="sans-serif" font-size="14" lengthAdjust="spacing" textLength="4" x="871.5" y="176.1094">&#160;</text><rect fill="#F1F1F1" height="12" style="stroke:#181818;stroke-width:1.5;" width="12" x="867.5" y="191.1855"/><text fill="#000000" font-family="sans-serif" font-size="14" lengthAdjust="spacing" textLength="4" x="871.5" y="264.7188">&#160;</text><rect fill="#F1F1F1" height="12" style="stroke:#181818;stroke-width:1.5;" width="12" x="867.5" y="238.1855"/><text fill="#000000" font-family="sans-serif" font-size="14" lengthAdjust="spacing" textLength="4" x="1236.5" y="226.7188">&#160;</text><rect fill="#F1F1F1" height="12" style="stroke:#181818;stroke-width:1.5;" width="12" x="1232.5" y="200.1855"/><text fill="#000000" font-family="sans-serif" font-size="14" lengthAdjust="spacing" textLength="4" x="1236.5" y="138.1094">&#160;</text><rect fill="#F1F1F1" height="12" style="stroke:#181818;stroke-width:1.5;" width="12" x="1232.5" y="153.1855"/><text fill="#000000" font-family="sans-serif" font-size="14" lengthAdjust="spacing" textLength="4" x="1236.5" y="91.1094">&#160;</text><rect fill="#F1F1F1" height="12" style="stroke:#181818;stroke-width:1.5;" width="12" x="1232.5" y="106.1855"/><text fill="#000000" font-family="sans-serif" font-size="14" lengthAdjust="spacing" textLength="4" x="1589.5" y="116.7188">&#160;</text><rect fill="#F1F1F1" height="12" style="stroke:#181818;stroke-width:1.5;" width="12" x="1585.5" y="90.1855"/><text fill="#000000" font-family="sans-serif" font-size="14" lengthAdjust="spacing" textLength="4" x="1589.5" y="28.1094">&#160;</text><rect fill="#F1F1F1" height="12" style="stroke:#181818;stroke-width:1.5;" width="12" x="1585.5" y="43.1855"/><!--entity UI_User--><g id="elem_UI_User"><ellipse cx="55.5" cy="166.1855" fill="#F1F1F1" rx="8" ry="8" style="stroke:#181818;stroke-width:0.5;"/><text fill="#000000" font-family="sans-serif" font-size="14" lengthAdjust="spacing" textLength="45" x="33" y="197.7188">UI User</text></g><!--entity UI_Administrator--><g id="elem_UI_Administrator"><ellipse cx="55.5" cy="261.1855" fill="#F1F1F1" rx="8" ry="8" style="stroke:#181818;stroke-width:0.5;"/><text fill="#000000" font-family="sans-serif" font-size="14" lengthAdjust="spacing" textLength="99" x="6" y="292.7188">UI Administrator</text></g><!--link p5 to AuthAPI--><g id="link_p5_AuthAPI"><path d="M313.68,90.2555 C341.13,90.7455 472.09,94.7555 572.5,127.1855 C612.24,140.0255 654.77,166.8555 672.27,178.5455 " fill="none" id="p5-AuthAPI" style="stroke:#181818;stroke-width:1.0;"/></g><!--link AuthAPI to p7--><g id="link_AuthAPI_p7"><path d="M690.66,186.7655 C722.91,196.9455 840.94,234.2155 867.27,242.5355 " fill="none" id="AuthAPI-p7" style="stroke:#181818;stroke-width:1.0;"/></g><!--link p6 to EMAPI--><g id="link_p6_EMAPI"><path d="M313.74,42.9355 C346.88,41.3955 530.61,33.1855 680.5,33.1855 C680.5,33.1855 680.5,33.1855 807.5,33.1855 C897.23,33.1855 988.58,107.2555 1016.14,131.5655 " fill="none" id="p6-EMAPI" style="stroke:#181818;stroke-width:1.0;"/></g><!--link EMAPI to p8--><g id="link_EMAPI_p8"><path d="M1034.51,139.9455 C1068.99,143.2155 1204.21,156.0255 1232.35,158.6955 " fill="none" id="EMAPI-p8" style="stroke:#181818;stroke-width:1.0;"/></g><!--link p3 to EMAPI--><g id="link_p3_EMAPI"><path d="M879.84,195.1255 C902.28,186.4455 989.06,152.8855 1016.28,142.3655 " fill="none" id="p3-EMAPI" style="stroke:#181818;stroke-width:1.0;"/></g><!--link EMAPI to p4--><g id="link_EMAPI_p4"><path d="M1034.51,141.7255 C1068.99,152.6755 1204.21,195.6155 1232.35,204.5555 " fill="none" id="EMAPI-p4" style="stroke:#181818;stroke-width:1.0;"/></g><!--link p10 to OtimizationAPI--><g id="link_p10_OtimizationAPI"><path d="M313.68,135.5255 C346.43,125.2155 528.26,70.1855 680.5,70.1855 C680.5,70.1855 680.5,70.1855 1172.5,70.1855 C1251.71,70.1855 1347.47,63.0655 1375.46,60.8455 " fill="none" id="p10-OtimizationAPI" style="stroke:#181818;stroke-width:1.0;"/></g><!--link OtimizationAPI to p9--><g id="link_OtimizationAPI_p9"><path d="M1393.54,61.5955 C1427.29,67.5255 1557.15,90.3255 1585.16,95.2455 " fill="none" id="OtimizationAPI-p9" style="stroke:#181818;stroke-width:1.0;"/></g><!--link p11 to OtimizationAPI--><g id="link_p11_OtimizationAPI"><path d="M1244.63,110.3355 C1266.07,102.5955 1348.71,72.7455 1375.24,63.1655 " fill="none" id="p11-OtimizationAPI" style="stroke:#181818;stroke-width:1.0;"/></g><!--link OtimizationAPI to p12--><g id="link_OtimizationAPI_p12"><path d="M1393.54,59.7555 C1427.29,57.9455 1557.15,50.9755 1585.16,49.4755 " fill="none" id="OtimizationAPI-p12" style="stroke:#181818;stroke-width:1.0;"/></g><!--link p1 to p2--><g id="link_p1_p2"><path d="M184.74,211.9555 C194.66,207.8255 216.94,198.9655 236.5,194.1855 C260.35,188.3555 289.66,185.5355 301.34,184.5755 " fill="none" id="p1-p2" style="stroke:#181818;stroke-width:1.0;"/></g><!--link UI_User to p1--><g id="link_UI_User_p1"><path d="M64.82,169.4855 C88.1,178.7155 153.44,204.6455 172.33,212.1355 " fill="none" id="UI_User-p1" style="stroke:#181818;stroke-width:1.0;"/></g><!--link UI_Administrator to p1--><g id="link_UI_Administrator_p1"><path d="M64.82,257.9555 C88.1,248.9155 153.44,223.5355 172.33,216.1955 " fill="none" id="UI_Administrator-p1" style="stroke:#181818;stroke-width:1.0;"/></g><!--SRC=[ZLDDQuD04BtlhnWy9OT0DMa-80H4F7WG2uszXiLiaeMuk-YMqfRyz-wEDIP6WrxKD_FUczcdPtRGe2KK_7ZIiES5opINWcGoLr8meU7TtmP97CDw7KYXAHUiW54m6syslmJCfMIXGRb0It30GQWXVt3sjKiZBDfd6ANHsEdLQlIyMxq6Vks6vzsm-tABNrgp-P_wPEuyetRZ0JDDkrqMpqp26AkXKJr-Gqm5FRBS58QSmQpRRzcphFjiZcJhlrKn94hpdF_WqaEcMFNOUOzsN6XM76Z686aykdp1W4wBOkEeUrlHNBjD_fF9f6v5gAPPN2rQcc5SApu4S2CwHpBs8b2nK71PTKoXiy54LDNDXsRUxfV6IkiSK7Frpt67SknX4t8XH255UQJPC8rsQMcoipkQ_ym-E_TbVvzpmKjTK2slVNUWGseLz28Ff0ecVm00]--></g></svg>