<?xml version="1.0" encoding="us-ascii" standalone="no"?><svg xmlns="http://www.w3.org/2000/svg" xmlns:xlink="http://www.w3.org/1999/xlink" contentStyleType="text/css" height="1207px" preserveAspectRatio="none" style="width:432px;height:1207px;background:#FFFFFF;" version="1.1" viewBox="0 0 432 1207" width="432px" zoomAndPan="magnify"><defs/><g><!--cluster SATCOMM--><g id="cluster_SATCOMM"><rect fill="none" height="1091" rx="2.5" ry="2.5" style="stroke:#181818;stroke-width:1.0;" width="419" x="7" y="110"/><rect fill="none" height="10" style="stroke:#181818;stroke-width:1.0;" width="15" x="406" y="115"/><rect fill="none" height="2" style="stroke:#181818;stroke-width:1.0;" width="4" x="404" y="117"/><rect fill="none" height="2" style="stroke:#181818;stroke-width:1.0;" width="4" x="404" y="121"/><text fill="#000000" font-family="sans-serif" font-size="14" font-style="italic" lengthAdjust="spacing" textLength="110" x="161.5" y="137.5332">&#171;Container (C4)&#187;</text><text fill="#000000" font-family="sans-serif" font-size="14" font-weight="bold" lengthAdjust="spacing" textLength="73" x="180" y="155.1426">SATCOMM</text></g><!--cluster View_UI--><g id="cluster_View_UI"><rect fill="none" height="133" rx="2.5" ry="2.5" style="stroke:#181818;stroke-width:1.0;" width="177" x="172" y="195"/><rect fill="none" height="10" style="stroke:#181818;stroke-width:1.0;" width="15" x="329" y="200"/><rect fill="none" height="2" style="stroke:#181818;stroke-width:1.0;" width="4" x="327" y="202"/><rect fill="none" height="2" style="stroke:#181818;stroke-width:1.0;" width="4" x="327" y="206"/><text fill="#000000" font-family="sans-serif" font-size="14" font-style="italic" lengthAdjust="spacing" textLength="110" x="205.5" y="222.5332">&#171;Container (C4)&#187;</text><text fill="#000000" font-family="sans-serif" font-size="14" font-weight="bold" lengthAdjust="spacing" textLength="61" x="230" y="240.1426">View (UI)</text></g><!--cluster Authentication--><g id="cluster_Authentication"><rect fill="none" height="131" rx="2.5" ry="2.5" style="stroke:#181818;stroke-width:1.0;" width="162" x="23" y="559"/><rect fill="none" height="10" style="stroke:#181818;stroke-width:1.0;" width="15" x="165" y="564"/><rect fill="none" height="2" style="stroke:#181818;stroke-width:1.0;" width="4" x="163" y="566"/><rect fill="none" height="2" style="stroke:#181818;stroke-width:1.0;" width="4" x="163" y="570"/><text fill="#000000" font-family="sans-serif" font-size="14" font-style="italic" lengthAdjust="spacing" textLength="110" x="49" y="586.5332">&#171;Container (C4)&#187;</text><text fill="#000000" font-family="sans-serif" font-size="14" font-weight="bold" lengthAdjust="spacing" textLength="102" x="53" y="604.1426">Authentication</text></g><!--cluster EM--><g id="cluster_EM"><rect fill="none" height="131" rx="2.5" ry="2.5" style="stroke:#181818;stroke-width:1.0;" width="154" x="135" y="812"/><rect fill="none" height="10" style="stroke:#181818;stroke-width:1.0;" width="15" x="269" y="817"/><rect fill="none" height="2" style="stroke:#181818;stroke-width:1.0;" width="4" x="267" y="819"/><rect fill="none" height="2" style="stroke:#181818;stroke-width:1.0;" width="4" x="267" y="823"/><text fill="#000000" font-family="sans-serif" font-size="14" font-style="italic" lengthAdjust="spacing" textLength="110" x="157" y="839.5332">&#171;Container (C4)&#187;</text><text fill="#000000" font-family="sans-serif" font-size="14" font-weight="bold" lengthAdjust="spacing" textLength="144" x="140" y="857.1426">Energy Management</text></g><!--cluster OTAPI--><g id="cluster_OTAPI"><rect fill="none" height="120" rx="2.5" ry="2.5" style="stroke:#181818;stroke-width:1.0;" width="120" x="267.5" y="1065"/><rect fill="none" height="10" style="stroke:#181818;stroke-width:1.0;" width="15" x="367.5" y="1070"/><rect fill="none" height="2" style="stroke:#181818;stroke-width:1.0;" width="4" x="365.5" y="1072"/><rect fill="none" height="2" style="stroke:#181818;stroke-width:1.0;" width="4" x="365.5" y="1076"/><text fill="#000000" font-family="sans-serif" font-size="14" font-style="italic" lengthAdjust="spacing" textLength="110" x="272.5" y="1092.5332">&#171;Container (C4)&#187;</text><text fill="#000000" font-family="sans-serif" font-size="14" font-weight="bold" lengthAdjust="spacing" textLength="87" x="284" y="1110.1426">Optimization</text></g><text fill="#000000" font-family="sans-serif" font-size="14" lengthAdjust="spacing" textLength="4" x="136" y="88.9238">&#160;</text><rect fill="#F1F1F1" height="12" style="stroke:#181818;stroke-width:1.5;" width="12" x="132" y="104"/><!--entity OtimizationAPI--><g id="elem_OtimizationAPI"><ellipse cx="351" cy="908" fill="#F1F1F1" rx="8" ry="8" style="stroke:#181818;stroke-width:0.5;"/><text fill="#000000" font-family="sans-serif" font-size="14" lengthAdjust="spacing" textLength="102" x="300" y="939.5332">Optimization API</text></g><!--entity AuthAPI--><g id="elem_AuthAPI"><ellipse cx="233" cy="402" fill="#F1F1F1" rx="8" ry="8" style="stroke:#181818;stroke-width:0.5;"/><text fill="#000000" font-family="sans-serif" font-size="14" lengthAdjust="spacing" textLength="115" x="175.5" y="433.5332">Authentication API</text></g><!--entity EMAPI--><g id="elem_EMAPI"><ellipse cx="286" cy="655" fill="#F1F1F1" rx="8" ry="8" style="stroke:#181818;stroke-width:0.5;"/><text fill="#000000" font-family="sans-serif" font-size="14" lengthAdjust="spacing" textLength="156" x="208" y="686.5332">Energy Management API</text></g><text fill="#000000" font-family="sans-serif" font-size="14" lengthAdjust="spacing" textLength="4" x="188" y="173.9238">&#160;</text><rect fill="#F1F1F1" height="12" style="stroke:#181818;stroke-width:1.5;" width="12" x="184" y="189"/><text fill="#000000" font-family="sans-serif" font-size="14" lengthAdjust="spacing" textLength="4" x="282" y="173.9238">&#160;</text><rect fill="#F1F1F1" height="12" style="stroke:#181818;stroke-width:1.5;" width="12" x="278" y="189"/><text fill="#000000" font-family="sans-serif" font-size="14" lengthAdjust="spacing" textLength="4" x="329" y="173.9238">&#160;</text><rect fill="#F1F1F1" height="12" style="stroke:#181818;stroke-width:1.5;" width="12" x="325" y="189"/><text fill="#000000" font-family="sans-serif" font-size="14" lengthAdjust="spacing" textLength="4" x="235" y="173.9238">&#160;</text><rect fill="#F1F1F1" height="12" style="stroke:#181818;stroke-width:1.5;" width="12" x="231" y="189"/><text fill="#000000" font-family="sans-serif" font-size="14" lengthAdjust="spacing" textLength="4" x="165" y="537.9238">&#160;</text><rect fill="#F1F1F1" height="12" style="stroke:#181818;stroke-width:1.5;" width="12" x="161" y="553"/><text fill="#000000" font-family="sans-serif" font-size="14" lengthAdjust="spacing" textLength="4" x="118" y="537.9238">&#160;</text><rect fill="#F1F1F1" height="12" style="stroke:#181818;stroke-width:1.5;" width="12" x="114" y="553"/><text fill="#000000" font-family="sans-serif" font-size="14" lengthAdjust="spacing" textLength="4" x="163" y="790.9238">&#160;</text><rect fill="#F1F1F1" height="12" style="stroke:#181818;stroke-width:1.5;" width="12" x="159" y="806"/><text fill="#000000" font-family="sans-serif" font-size="14" lengthAdjust="spacing" textLength="4" x="210" y="790.9238">&#160;</text><rect fill="#F1F1F1" height="12" style="stroke:#181818;stroke-width:1.5;" width="12" x="206" y="806"/><text fill="#000000" font-family="sans-serif" font-size="14" lengthAdjust="spacing" textLength="4" x="257" y="790.9238">&#160;</text><rect fill="#F1F1F1" height="12" style="stroke:#181818;stroke-width:1.5;" width="12" x="253" y="806"/><text fill="#000000" font-family="sans-serif" font-size="14" lengthAdjust="spacing" textLength="4" x="302" y="1043.9238">&#160;</text><rect fill="#F1F1F1" height="12" style="stroke:#181818;stroke-width:1.5;" width="12" x="298" y="1059"/><text fill="#000000" font-family="sans-serif" font-size="14" lengthAdjust="spacing" textLength="4" x="349" y="1043.9238">&#160;</text><rect fill="#F1F1F1" height="12" style="stroke:#181818;stroke-width:1.5;" width="12" x="345" y="1059"/><!--entity UI_User--><g id="elem_UI_User"><ellipse cx="77" cy="14" fill="#F1F1F1" rx="8" ry="8" style="stroke:#181818;stroke-width:0.5;"/><text fill="#000000" font-family="sans-serif" font-size="14" lengthAdjust="spacing" textLength="45" x="54.5" y="45.5332">UI User</text></g><!--entity UI_Administrator--><g id="elem_UI_Administrator"><ellipse cx="199" cy="14" fill="#F1F1F1" rx="8" ry="8" style="stroke:#181818;stroke-width:0.5;"/><text fill="#000000" font-family="sans-serif" font-size="14" lengthAdjust="spacing" textLength="99" x="149.5" y="45.5332">UI Administrator</text></g><!--link p5 to AuthAPI--><g id="link_p5_AuthAPI"><path d="M287.56,201.26 C299.43,219.53 335.81,281.61 315,328 C299.79,361.91 260.17,386.52 242.16,396.32 " fill="none" id="p5-AuthAPI" style="stroke:#181818;stroke-width:1.0;"/></g><!--link AuthAPI to p7--><g id="link_AuthAPI_p7"><path d="M226.92,411.33 C206.48,439.38 140.52,529.86 123.85,552.71 " fill="none" id="AuthAPI-p7" style="stroke:#181818;stroke-width:1.0;"/></g><!--link p6 to EMAPI--><g id="link_p6_EMAPI"><path d="M336.02,201.31 C346.19,212.4 369.27,239.18 381,266 C405.56,322.14 409,339.72 409,401 C409,401 409,401 409,493 C409,567.92 323.85,629.63 295.24,648.24 " fill="none" id="p6-EMAPI" style="stroke:#181818;stroke-width:1.0;"/></g><!--link EMAPI to p8--><g id="link_EMAPI_p8"><path d="M282.02,664.33 C268.63,692.38 225.44,782.86 214.52,805.71 " fill="none" id="EMAPI-p8" style="stroke:#181818;stroke-width:1.0;"/></g><!--link p3 to EMAPI--><g id="link_p3_EMAPI"><path d="M173.06,564.79 C192.58,580.2 253.82,628.58 276.99,646.88 " fill="none" id="p3-EMAPI" style="stroke:#181818;stroke-width:1.0;"/></g><!--link EMAPI to p4--><g id="link_EMAPI_p4"><path d="M279.49,664.33 C257.6,692.38 186.97,782.86 169.13,805.71 " fill="none" id="EMAPI-p4" style="stroke:#181818;stroke-width:1.0;"/></g><!--link p10 to OtimizationAPI--><g id="link_p10_OtimizationAPI"><path d="M243.04,200.84 C259.39,214.01 304.01,250.59 315,266 C352.81,319.03 372,335.87 372,401 C372,401 372,401 372,493 C372,552.21 385.99,565.93 390,625 C391.96,653.82 392.57,661.23 390,690 C382.66,772.35 359.94,870.22 353.02,898.79 " fill="none" id="p10-OtimizationAPI" style="stroke:#181818;stroke-width:1.0;"/></g><!--link OtimizationAPI to p9--><g id="link_OtimizationAPI_p9"><path d="M348.47,917.33 C339.97,945.38 312.53,1035.86 305.6,1058.71 " fill="none" id="OtimizationAPI-p9" style="stroke:#181818;stroke-width:1.0;"/></g><!--link p11 to OtimizationAPI--><g id="link_p11_OtimizationAPI"><path d="M263.95,818.05 C279.02,833.46 324.51,879.93 343.03,898.85 " fill="none" id="p11-OtimizationAPI" style="stroke:#181818;stroke-width:1.0;"/></g><!--link OtimizationAPI to p12--><g id="link_OtimizationAPI_p12"><path d="M351,917.33 C351,945.38 351,1035.86 351,1058.71 " fill="none" id="OtimizationAPI-p12" style="stroke:#181818;stroke-width:1.0;"/></g><!--link p1 to p2--><g id="link_p1_p2"><path d="M142.44,116.03 C150.71,125.59 168.66,147.3 180,168 C183.72,174.79 186.69,183.25 188.4,188.64 " fill="none" id="p1-p2" style="stroke:#181818;stroke-width:1.0;"/></g><!--link UI_User to p1--><g id="link_UI_User_p1"><path d="M82.2,23.01 C94.42,41.84 124.67,88.45 134.7,103.92 " fill="none" id="UI_User-p1" style="stroke:#181818;stroke-width:1.0;"/></g><!--link UI_Administrator to p1--><g id="link_UI_Administrator_p1"><path d="M193.8,23.01 C181.58,41.84 151.33,88.45 141.3,103.92 " fill="none" id="UI_Administrator-p1" style="stroke:#181818;stroke-width:1.0;"/></g><!--SRC=[ZLDDQuD04BtlhnWy9GUXcZGV408Y7Zo8XSPUms9ikWVNHRUKjkI_TtUi7z4rw4LzC- -zcNsQ5haeUCObl7edFuuYE1pyWalAU5R2mbylZyTV0keIHIb1E40hiC12A6t9RopxEYSX5lKpB99mQKrgTNfkNw-3dytmnWmxJttyDfZD-vGVwivIAbd1PyoqChji7va44LO3fNhzXeXoUiroLPXp1ckptsvYMUVH7F79UwbZY8LaEVl1fUTCiP-mSyTsZCkiVATf1d7dOV851Le3YewZwHr4qtQh_6tRRbeHQcWQ5zk1PX0rYgC0Ug8R96Cl0ZKB1NTrnmgC3IgYkgu-DFLslpHM1kU0clj_ZZENem-Ra1iX0Yd29Ts6INXEAfMTtb7zP_hPkYzxbvnnLicIogBjkmCjqgYW5ncHQfZy0G00]--></g></svg>