<?xml version="1.0" encoding="us-ascii" standalone="no"?><svg xmlns="http://www.w3.org/2000/svg" xmlns:xlink="http://www.w3.org/1999/xlink" contentStyleType="text/css" height="1654px" preserveAspectRatio="none" style="width:509px;height:1654px;background:#FFFFFF;" version="1.1" viewBox="0 0 509 1654" width="509px" zoomAndPan="magnify"><defs/><g><!--cluster Energy Community Platform--><g id="cluster_Energy Community Platform"><rect fill="none" height="1641" rx="2.5" ry="2.5" style="stroke:#181818;stroke-width:1.0;" width="323" x="180" y="7"/><text fill="#000000" font-family="sans-serif" font-size="14" font-weight="bold" lengthAdjust="spacing" textLength="192" x="245.5" y="23.5332">Energy Community Platform</text></g><g id="elem_Create users"><ellipse cx="341.5887" cy="361.0177" fill="#F1F1F1" rx="68.0887" ry="16.0177" style="stroke:#181818;stroke-width:0.5;"/><text fill="#000000" font-family="sans-serif" font-size="14" lengthAdjust="spacing" textLength="82" x="297.5887" y="365.5343">Create users</text></g><g id="elem_Update users"><ellipse cx="341.2688" cy="428.1538" fill="#F1F1F1" rx="68.7688" ry="16.1538" style="stroke:#181818;stroke-width:0.5;"/><text fill="#000000" font-family="sans-serif" font-size="14" lengthAdjust="spacing" textLength="84" x="296.2688" y="432.6704">Update users</text></g><g id="elem_Delete users"><ellipse cx="341.4169" cy="58.8834" fill="#F1F1F1" rx="67.4169" ry="15.8834" style="stroke:#181818;stroke-width:0.5;"/><text fill="#000000" font-family="sans-serif" font-size="14" lengthAdjust="spacing" textLength="80" x="298.4169" y="63.4">Delete users</text></g><g id="elem_View system logs"><ellipse cx="341.6203" cy="127.8241" fill="#F1F1F1" rx="77.1203" ry="17.8241" style="stroke:#181818;stroke-width:0.5;"/><text fill="#000000" font-family="sans-serif" font-size="14" lengthAdjust="spacing" textLength="107" x="285.7783" y="132.1856">View system logs</text></g><g id="elem_Manage roles and permissions"><ellipse cx="341.5541" cy="206.8108" fill="#F1F1F1" rx="114.5541" ry="25.3108" style="stroke:#181818;stroke-width:0.5;"/><text fill="#000000" font-family="sans-serif" font-size="14" lengthAdjust="spacing" textLength="193" x="245.0541" y="210.5393">Manage roles and permissions</text></g><g id="elem_Monitor platform usage"><ellipse cx="341.5017" cy="289.0003" fill="#F1F1F1" rx="93.0017" ry="21.0003" style="stroke:#181818;stroke-width:0.5;"/><text fill="#000000" font-family="sans-serif" font-size="14" lengthAdjust="spacing" textLength="145" x="269.0017" y="292.7289">Monitor platform usage</text></g><g id="elem_Register account"><ellipse cx="341.6203" cy="648.8241" fill="#F1F1F1" rx="77.1203" ry="17.8241" style="stroke:#181818;stroke-width:0.5;"/><text fill="#000000" font-family="sans-serif" font-size="14" lengthAdjust="spacing" textLength="107" x="285.7783" y="653.1856">Register account</text></g><g id="elem_Update account"><ellipse cx="341.6111" cy="719.2222" fill="#F1F1F1" rx="74.1111" ry="17.2222" style="stroke:#181818;stroke-width:0.5;"/><text fill="#000000" font-family="sans-serif" font-size="14" lengthAdjust="spacing" textLength="99" x="289.1111" y="723.7388">Update account</text></g><g id="elem_Delete account"><ellipse cx="341.6476" cy="787.9295" fill="#F1F1F1" rx="72.6476" ry="16.9295" style="stroke:#181818;stroke-width:0.5;"/><text fill="#000000" font-family="sans-serif" font-size="14" lengthAdjust="spacing" textLength="95" x="291.1476" y="792.4461">Delete account</text></g><g id="elem_View community data"><ellipse cx="341.3923" cy="498.8785" fill="#F1F1F1" rx="87.3923" ry="19.8785" style="stroke:#181818;stroke-width:0.5;"/><text fill="#000000" font-family="sans-serif" font-size="14" lengthAdjust="spacing" textLength="132" x="275.3923" y="502.607">View community data</text></g><g id="elem_Join energy community"><ellipse cx="341.566" cy="574.9132" fill="#F1F1F1" rx="92.566" ry="20.9132" style="stroke:#181818;stroke-width:0.5;"/><text fill="#000000" font-family="sans-serif" font-size="14" lengthAdjust="spacing" textLength="144" x="269.566" y="578.6417">Join energy community</text></g><g id="elem_Upload data"><ellipse cx="341.58" cy="1040.1227" fill="#F1F1F1" rx="66.08" ry="15.6227" style="stroke:#181818;stroke-width:0.5;"/><text fill="#000000" font-family="sans-serif" font-size="14" lengthAdjust="spacing" textLength="76" x="300.58" y="1044.6393">Upload data</text></g><g id="elem_Update data"><ellipse cx="341.4254" cy="1106.1851" fill="#F1F1F1" rx="66.4254" ry="15.6851" style="stroke:#181818;stroke-width:0.5;"/><text fill="#000000" font-family="sans-serif" font-size="14" lengthAdjust="spacing" textLength="77" x="299.9254" y="1110.7017">Update data</text></g><g id="elem_Analyse data"><ellipse cx="341.5887" cy="1173.0177" fill="#F1F1F1" rx="68.0887" ry="16.0177" style="stroke:#181818;stroke-width:0.5;"/><text fill="#000000" font-family="sans-serif" font-size="14" lengthAdjust="spacing" textLength="82" x="297.5887" y="1177.5343">Analyse data</text></g><g id="elem_View own consumption/production history"><ellipse cx="341.4721" cy="871.9944" fill="#F1F1F1" rx="145.4721" ry="31.4944" style="stroke:#181818;stroke-width:0.5;"/><text fill="#000000" font-family="sans-serif" font-size="14" lengthAdjust="spacing" textLength="259" x="211.9721" y="875.7229">View own consumption/production history</text></g><g id="elem_Set energy usage preferences"><ellipse cx="341.5948" cy="964.219" fill="#F1F1F1" rx="114.0948" ry="25.219" style="stroke:#181818;stroke-width:0.5;"/><text fill="#000000" font-family="sans-serif" font-size="14" lengthAdjust="spacing" textLength="192" x="245.5948" y="967.9475">Set energy usage preferences</text></g><g id="elem_Create energy community"><ellipse cx="341.5042" cy="1543.0008" fill="#F1F1F1" rx="100.5042" ry="22.5008" style="stroke:#181818;stroke-width:0.5;"/><text fill="#000000" font-family="sans-serif" font-size="14" lengthAdjust="spacing" textLength="162" x="260.5042" y="1546.7293">Create energy community</text></g><g id="elem_Add data"><ellipse cx="341.5419" cy="1616.0159" fill="#F1F1F1" rx="52.0419" ry="15.5159" style="stroke:#181818;stroke-width:0.5;"/><text fill="#000000" font-family="sans-serif" font-size="14" lengthAdjust="spacing" textLength="57" x="310.0419" y="1620.5325">Add data</text></g><g id="elem_Delete data"><ellipse cx="341.3631" cy="1240.109" fill="#F1F1F1" rx="63.8631" ry="15.609" style="stroke:#181818;stroke-width:0.5;"/><text fill="#000000" font-family="sans-serif" font-size="14" lengthAdjust="spacing" textLength="73" x="301.8631" y="1244.6256">Delete data</text></g><g id="elem_Manage members"><ellipse cx="341.4775" cy="1308.7955" fill="#F1F1F1" rx="79.4775" ry="18.2955" style="stroke:#181818;stroke-width:0.5;"/><text fill="#000000" font-family="sans-serif" font-size="14" lengthAdjust="spacing" textLength="113" x="283.756" y="1312.8709">Manage members</text></g><g id="elem_Generate reports"><ellipse cx="341.396" cy="1380.9792" fill="#F1F1F1" rx="77.896" ry="17.9792" style="stroke:#181818;stroke-width:0.5;"/><text fill="#000000" font-family="sans-serif" font-size="14" lengthAdjust="spacing" textLength="109" x="284.9355" y="1385.2466">Generate reports</text></g><g id="elem_Configure energy sharing rules"><ellipse cx="341.4339" cy="1460.0868" fill="#F1F1F1" rx="115.9339" ry="25.5868" style="stroke:#181818;stroke-width:0.5;"/><text fill="#000000" font-family="sans-serif" font-size="14" lengthAdjust="spacing" textLength="196" x="243.4339" y="1463.8153">Configure energy sharing rules</text></g><!--entity Admin--><g id="elem_Admin"><ellipse cx="71" cy="217.5" fill="#F1F1F1" rx="8" ry="8" style="stroke:#181818;stroke-width:0.5;"/><path d="M71,225.5 L71,252.5 M58,233.5 L84,233.5 M71,252.5 L58,267.5 M71,252.5 L84,267.5 " fill="none" style="stroke:#181818;stroke-width:0.5;"/><text fill="#000000" font-family="sans-serif" font-size="14" lengthAdjust="spacing" textLength="39" x="51.5" y="283.5332">Admin</text></g><!--entity User--><g id="elem_User"><ellipse cx="71" cy="618.5" fill="#F1F1F1" rx="8" ry="8" style="stroke:#181818;stroke-width:0.5;"/><path d="M71,626.5 L71,653.5 M58,634.5 L84,634.5 M71,653.5 L58,668.5 M71,653.5 L84,668.5 " fill="none" style="stroke:#181818;stroke-width:0.5;"/><text fill="#000000" font-family="sans-serif" font-size="14" lengthAdjust="spacing" textLength="29" x="56.5" y="684.5332">User</text></g><!--entity Prosumer--><g id="elem_Prosumer"><ellipse cx="71" cy="1009.5" fill="#F1F1F1" rx="8" ry="8" style="stroke:#181818;stroke-width:0.5;"/><path d="M71,1017.5 L71,1044.5 M58,1025.5 L84,1025.5 M71,1044.5 L58,1059.5 M71,1044.5 L84,1059.5 " fill="none" style="stroke:#181818;stroke-width:0.5;"/><text fill="#000000" font-family="sans-serif" font-size="14" lengthAdjust="spacing" textLength="61" x="40.5" y="1075.5332">Prosumer</text></g><!--entity CM--><g id="elem_CM"><ellipse cx="71" cy="1350.5" fill="#F1F1F1" rx="8" ry="8" style="stroke:#181818;stroke-width:0.5;"/><path d="M71,1358.5 L71,1385.5 M58,1366.5 L84,1366.5 M71,1385.5 L58,1400.5 M71,1385.5 L84,1400.5 " fill="none" style="stroke:#181818;stroke-width:0.5;"/><text fill="#000000" font-family="sans-serif" font-size="14" lengthAdjust="spacing" textLength="130" x="6" y="1416.5332">Community Manager</text></g><!--link Admin to Create users--><g id="link_Admin_Create users"><path d="M90.8,267.41 C109.62,285.66 140.28,312.3 172,327 C205.04,342.31 238.91,349.8935 271.54,354.5435 " fill="none" id="Admin-to-Create users" style="stroke:#181818;stroke-width:1.0;"/><polygon fill="#181818" points="277.48,355.39,269.1343,350.1603,272.53,354.6846,268.0057,358.0803,277.48,355.39" style="stroke:#181818;stroke-width:1.0;"/></g><!--link Admin to Update users--><g id="link_Admin_Update users"><path d="M88.5,287.29 C104.74,320.97 132.8,368.06 172,394 C201.61,413.6 234.1484,421.652 266.8584,425.372 " fill="none" id="Admin-to-Update users" style="stroke:#181818;stroke-width:1.0;"/><polygon fill="#181818" points="272.82,426.05,264.3296,421.0586,267.852,425.485,263.4257,429.0074,272.82,426.05" style="stroke:#181818;stroke-width:1.0;"/></g><!--link Admin to Delete users--><g id="link_Admin_Delete users"><path d="M86.56,208.79 C102.08,172.64 130.23,120.4 172,92 C201.71,71.8 234.8102,63.9117 267.8502,60.5817 " fill="none" id="Admin-to-Delete users" style="stroke:#181818;stroke-width:1.0;"/><polygon fill="#181818" points="273.82,59.98,264.4643,56.9027,268.8452,60.4814,265.2665,64.8623,273.82,59.98" style="stroke:#181818;stroke-width:1.0;"/></g><!--link Admin to View system logs--><g id="link_Admin_View system logs"><path d="M90.59,227.41 C109.27,208.04 139.81,179.73 172,164 C202.64,149.03 233.4787,141.2186 264.8387,136.0886 " fill="none" id="Admin-to-View system logs" style="stroke:#181818;stroke-width:1.0;"/><polygon fill="#181818" points="270.76,135.12,261.2323,132.6254,265.8256,135.9272,262.5238,140.5205,270.76,135.12" style="stroke:#181818;stroke-width:1.0;"/></g><!--link Admin to Manage roles and permissions--><g id="link_Admin_Manage roles and permissions"><path d="M90.88,245.12 C122.93,240.22 184.0788,230.886 240.6388,222.246 " fill="none" id="Admin-to-Manage roles and permissions" style="stroke:#181818;stroke-width:1.0;"/><polygon fill="#181818" points="246.57,221.34,237.0692,218.7449,241.6273,222.095,238.2772,226.6532,246.57,221.34" style="stroke:#181818;stroke-width:1.0;"/></g><!--link Admin to Monitor platform usage--><g id="link_Admin_Monitor platform usage"><path d="M90.88,250.88 C126.27,256.29 198.4587,267.3146 257.9387,276.3946 " fill="none" id="Admin-to-Monitor platform usage" style="stroke:#181818;stroke-width:1.0;"/><polygon fill="#181818" points="263.87,277.3,255.5767,271.9876,258.9273,276.5455,254.3694,279.896,263.87,277.3" style="stroke:#181818;stroke-width:1.0;"/></g><!--link User to Register account--><g id="link_User_Register account"><path d="M85.68,649 C118.12,649 195.64,649 258.28,649 " fill="none" id="User-to-Register account" style="stroke:#181818;stroke-width:1.0;"/><polygon fill="#181818" points="264.28,649,255.28,645,259.28,649,255.28,653,264.28,649" style="stroke:#181818;stroke-width:1.0;"/></g><!--link User to Update account--><g id="link_User_Update account"><path d="M85.73,654.45 C104.83,661.89 140.63,675.29 172,684 C208.13,694.03 243.4345,701.5249 276.0545,707.6949 " fill="none" id="User-to-Update account" style="stroke:#181818;stroke-width:1.0;"/><polygon fill="#181818" points="281.95,708.81,273.8502,703.207,277.0371,707.8807,272.3634,711.0676,281.95,708.81" style="stroke:#181818;stroke-width:1.0;"/></g><!--link User to Delete account--><g id="link_User_Delete account"><path d="M85.66,669.35 C102.86,693.3 134.73,732.4 172,753 C202.33,769.77 233.8307,777.6686 265.7107,782.2386 " fill="none" id="User-to-Delete account" style="stroke:#181818;stroke-width:1.0;"/><polygon fill="#181818" points="271.65,783.09,263.3087,777.8534,266.7006,782.3805,262.1735,785.7724,271.65,783.09" style="stroke:#181818;stroke-width:1.0;"/></g><!--link User to View community data--><g id="link_User_View community data"><path d="M85.57,626.49 C102.48,600.49 133.83,558.43 172,536 C198.34,520.52 224.5354,512.5756 253.6254,507.3256 " fill="none" id="User-to-View community data" style="stroke:#181818;stroke-width:1.0;"/><polygon fill="#181818" points="259.53,506.26,249.9627,503.922,254.6095,507.148,251.3835,511.7949,259.53,506.26" style="stroke:#181818;stroke-width:1.0;"/></g><!--link User to Join energy community--><g id="link_User_Join energy community"><path d="M85.73,643.44 C104.84,635.85 140.65,622.14 172,613 C204.1,603.64 234.3323,596.4831 264.8623,589.9631 " fill="none" id="User-to-Join energy community" style="stroke:#181818;stroke-width:1.0;"/><polygon fill="#181818" points="270.73,588.71,261.0931,586.6779,265.8403,589.7543,262.7639,594.5014,270.73,588.71" style="stroke:#181818;stroke-width:1.0;"/></g><!--link Prosumer to Upload data--><g id="link_Prosumer_Upload data"><path d="M101.5,1040 C143.05,1040 213.91,1040 269.27,1040 " fill="none" id="Prosumer-to-Upload data" style="stroke:#181818;stroke-width:1.0;"/><polygon fill="#181818" points="275.27,1040,266.27,1036,270.27,1040,266.27,1044,275.27,1040" style="stroke:#181818;stroke-width:1.0;"/></g><!--link Prosumer to Update data--><g id="link_Prosumer_Update data"><path d="M101.9,1050.96 C121.62,1057.91 148.12,1066.75 172,1073 C209.92,1082.93 247.431,1090.3192 280.701,1096.1792 " fill="none" id="Prosumer-to-Update data" style="stroke:#181818;stroke-width:1.0;"/><polygon fill="#181818" points="286.61,1097.22,278.4403,1091.7195,281.6858,1096.3527,277.0526,1099.5982,286.61,1097.22" style="stroke:#181818;stroke-width:1.0;"/></g><!--link Prosumer to Analyse data--><g id="link_Prosumer_Analyse data"><path d="M101.73,1078.96 C119.8,1099.93 144.62,1124.41 172,1139 C203.73,1155.92 236.9811,1163.6587 269.5711,1167.9387 " fill="none" id="Prosumer-to-Analyse data" style="stroke:#181818;stroke-width:1.0;"/><polygon fill="#181818" points="275.52,1168.72,267.1175,1163.5822,270.5626,1168.0689,266.0758,1171.5141,275.52,1168.72" style="stroke:#181818;stroke-width:1.0;"/></g><!--link Prosumer to View own consumption/production history--><g id="link_Prosumer_View own consumption/production history"><path d="M95.88,1000.98 C113.79,974.8 140.57,941.48 172,921 C190.38,909.03 206.0457,901.7702 227.2657,894.8502 " fill="none" id="Prosumer-to-View own consumption/production history" style="stroke:#181818;stroke-width:1.0;"/><polygon fill="#181818" points="232.97,892.99,223.1733,891.9774,228.2164,894.5402,225.6536,899.5832,232.97,892.99" style="stroke:#181818;stroke-width:1.0;"/></g><!--link Prosumer to Set energy usage preferences--><g id="link_Prosumer_Set energy usage preferences"><path d="M101.59,1029.64 C121.4,1022.85 148.13,1013.97 172,1007 C201.85,998.28 229.1397,991.0676 258.0497,983.8276 " fill="none" id="Prosumer-to-Set energy usage preferences" style="stroke:#181818;stroke-width:1.0;"/><polygon fill="#181818" points="263.87,982.37,254.1679,980.6762,259.0198,983.5847,256.1113,988.4365,263.87,982.37" style="stroke:#181818;stroke-width:1.0;"/></g><!--link CM to Create energy community--><g id="link_CM_Create energy community"><path d="M94.4,1420.06 C112.05,1447.35 139.14,1482.46 172,1503 C195.71,1517.82 218.5678,1525.8715 245.5278,1531.7515 " fill="none" id="CM-to-Create energy community" style="stroke:#181818;stroke-width:1.0;"/><polygon fill="#181818" points="251.39,1533.03,243.4491,1527.204,246.5048,1531.9645,241.7443,1535.0203,251.39,1533.03" style="stroke:#181818;stroke-width:1.0;"/></g><!--link CM to Add data--><g id="link_CM_Add data"><path d="M80.37,1420.4 C92.38,1466.79 119.13,1542.62 172,1583 C205.52,1608.6 247.4751,1615.7331 283.6551,1617.2231 " fill="none" id="CM-to-Add data" style="stroke:#181818;stroke-width:1.0;"/><polygon fill="#181818" points="289.65,1617.47,280.8222,1613.1031,284.6542,1617.2643,280.493,1621.0963,289.65,1617.47" style="stroke:#181818;stroke-width:1.0;"/></g><!--link CM to Analyse data--><g id="link_CM_Analyse data"><path d="M83.76,1341.93 C97.98,1301.66 125.92,1240.19 172,1207 C201.18,1185.98 234.2511,1177.8302 267.4111,1174.4402 " fill="none" id="CM-to-Analyse data" style="stroke:#181818;stroke-width:1.0;"/><polygon fill="#181818" points="273.38,1173.83,264.0199,1170.7661,268.4059,1174.3385,264.8335,1178.7246,273.38,1173.83" style="stroke:#181818;stroke-width:1.0;"/></g><!--link CM to Delete data--><g id="link_CM_Delete data"><path d="M98.31,1341.89 C116.29,1318.27 142.2,1289.61 172,1273 C204.41,1254.93 239.1879,1247.3032 272.4879,1243.5432 " fill="none" id="CM-to-Delete data" style="stroke:#181818;stroke-width:1.0;"/><polygon fill="#181818" points="278.45,1242.87,269.058,1239.9051,273.4816,1243.431,269.9556,1247.8545,278.45,1242.87" style="stroke:#181818;stroke-width:1.0;"/></g><!--link CM to Manage members--><g id="link_CM_Manage members"><path d="M136.13,1356.47 C147.97,1352.35 160.29,1348.34 172,1345 C206.66,1335.11 240.1426,1327.7069 272.1026,1321.4269 " fill="none" id="CM-to-Manage members" style="stroke:#181818;stroke-width:1.0;"/><polygon fill="#181818" points="277.99,1320.27,268.3876,1318.0803,273.0838,1321.234,269.9301,1325.9302,277.99,1320.27" style="stroke:#181818;stroke-width:1.0;"/></g><!--link CM to Generate reports--><g id="link_CM_Generate reports"><path d="M136.31,1381 C174.48,1381 217.11,1381 257.33,1381 " fill="none" id="CM-to-Generate reports" style="stroke:#181818;stroke-width:1.0;"/><polygon fill="#181818" points="263.33,1381,254.33,1377,258.33,1381,254.33,1385,263.33,1381" style="stroke:#181818;stroke-width:1.0;"/></g><!--link CM to Configure energy sharing rules--><g id="link_CM_Configure energy sharing rules"><path d="M136.03,1404.28 C147.93,1408.36 160.3,1412.43 172,1416 C201.5,1425 228.4273,1432.3224 257.1473,1439.6724 " fill="none" id="CM-to-Configure energy sharing rules" style="stroke:#181818;stroke-width:1.0;"/><polygon fill="#181818" points="262.96,1441.16,255.2327,1435.0535,258.1161,1439.9204,253.2493,1442.8038,262.96,1441.16" style="stroke:#181818;stroke-width:1.0;"/></g><!--SRC=[TPB1QiCm38RlUGgHozR3s1iCIZO6WqBPwEvUehW6smgoGmbZxpudSRpEQN9ozClo_qdIs7hm1ApasKEZ66klo1Q5g3qnx1kZR3oV778y7fbSRz9lMP4nlLL-W8EmGYAN81nKXw8OwmahDKBvOf7b07-vHoryIsnA-2uA2D_T_Dxu4bJ2ePkYS-pXuGdkAqRX4VhWnEroyTGrs-8pQjmKFnLUm0tEem5DSfqmKm6JHWV2Dj0X6-LSwDIDP0fqeIjTn0kFXikx1N5iOqOuXQQxxoXLiC4WwffwwtUP7Xatr0YveKwKTUf-A2Job3SA43ZFAMKcvylKC_Sf71rg4irLzLoU0BRalHLwSDlwn40N6zpP4Ex6NNtic9f-MbiuX-uH3xUkVg1VqAQ1GCVO8gEjqIN4rI9dhDNXtoAkMtMTj6-k-v2YAyH5YUDR2t7z39gljBwBzZfw6BqmTiG-KokohP8z9wlkB5XP2Tph4Vld5m00]--></g></svg>