<?xml version="1.0" encoding="us-ascii" standalone="no"?><svg xmlns="http://www.w3.org/2000/svg" xmlns:xlink="http://www.w3.org/1999/xlink" contentStyleType="text/css" height="1346px" preserveAspectRatio="none" style="width:1210px;height:1346px;background:#FFFFFF;" version="1.1" viewBox="0 0 1210 1346" width="1210px" zoomAndPan="magnify"><defs/><g><text fill="#000000" font-family="sans-serif" font-size="14" font-weight="bold" lengthAdjust="spacing" textLength="272" x="468.25" y="29.5332">Sequence Diagram: PUT/PATCH Level 3</text><rect fill="#FFFFFF" height="1206.0625" style="stroke:#181818;stroke-width:1.0;" width="10" x="86" y="86.2188"/><rect fill="#FFFFFF" height="394.5703" style="stroke:#181818;stroke-width:1.0;" width="10" x="263" y="108.5703"/><rect fill="#FFFFFF" height="607.0313" style="stroke:#181818;stroke-width:1.0;" width="10" x="263" y="654.8984"/><rect fill="#FFFFFF" height="333.8672" style="stroke:#181818;stroke-width:1.0;" width="10" x="409.5" y="138.9219"/><rect fill="#FFFFFF" height="546.3281" style="stroke:#181818;stroke-width:1.0;" width="10" x="409.5" y="685.25"/><rect fill="#FFFFFF" height="273.1641" style="stroke:#181818;stroke-width:1.0;" width="10" x="562.5" y="169.2734"/><rect fill="#FFFFFF" height="485.625" style="stroke:#181818;stroke-width:1.0;" width="10" x="562.5" y="715.6016"/><rect fill="#FFFFFF" height="151.7578" style="stroke:#181818;stroke-width:1.0;" width="10" x="679" y="199.625"/><rect fill="#FFFFFF" height="151.7578" style="stroke:#181818;stroke-width:1.0;" width="10" x="679" y="745.9531"/><rect fill="#FFFFFF" height="151.7578" style="stroke:#181818;stroke-width:1.0;" width="10" x="679" y="958.4141"/><rect fill="#FFFFFF" height="30.3516" style="stroke:#181818;stroke-width:1.0;" width="10" x="768.5" y="381.7344"/><rect fill="#FFFFFF" height="30.3516" style="stroke:#181818;stroke-width:1.0;" width="10" x="768.5" y="1140.5234"/><rect fill="#FFFFFF" height="91.0547" style="stroke:#181818;stroke-width:1.0;" width="10" x="919.5" y="229.9766"/><rect fill="#FFFFFF" height="91.0547" style="stroke:#181818;stroke-width:1.0;" width="10" x="919.5" y="776.3047"/><rect fill="#FFFFFF" height="91.0547" style="stroke:#181818;stroke-width:1.0;" width="10" x="919.5" y="988.7656"/><rect fill="#FFFFFF" height="30.3516" style="stroke:#181818;stroke-width:1.0;" width="10" x="1068.5" y="260.3281"/><rect fill="#FFFFFF" height="30.3516" style="stroke:#181818;stroke-width:1.0;" width="10" x="1068.5" y="806.6563"/><rect fill="#FFFFFF" height="30.3516" style="stroke:#181818;stroke-width:1.0;" width="10" x="1068.5" y="1019.1172"/><line style="stroke:#181818;stroke-width:0.5;stroke-dasharray:5.0,5.0;" x1="91" x2="91" y1="76.2188" y2="1310.2813"/><line style="stroke:#181818;stroke-width:0.5;stroke-dasharray:5.0,5.0;" x1="268" x2="268" y1="76.2188" y2="1310.2813"/><line style="stroke:#181818;stroke-width:0.5;stroke-dasharray:5.0,5.0;" x1="414" x2="414" y1="76.2188" y2="1310.2813"/><line style="stroke:#181818;stroke-width:0.5;stroke-dasharray:5.0,5.0;" x1="567.5" x2="567.5" y1="76.2188" y2="1310.2813"/><line style="stroke:#181818;stroke-width:0.5;stroke-dasharray:5.0,5.0;" x1="683.5" x2="683.5" y1="76.2188" y2="1310.2813"/><line style="stroke:#181818;stroke-width:0.5;stroke-dasharray:5.0,5.0;" x1="773.5" x2="773.5" y1="76.2188" y2="1310.2813"/><line style="stroke:#181818;stroke-width:0.5;stroke-dasharray:5.0,5.0;" x1="845.5" x2="845.5" y1="76.2188" y2="1310.2813"/><line style="stroke:#181818;stroke-width:0.5;stroke-dasharray:5.0,5.0;" x1="924.5" x2="924.5" y1="76.2188" y2="1310.2813"/><line style="stroke:#181818;stroke-width:0.5;stroke-dasharray:5.0,5.0;" x1="1073.5" x2="1073.5" y1="76.2188" y2="1310.2813"/><line style="stroke:#181818;stroke-width:0.5;stroke-dasharray:5.0,5.0;" x1="1182.5" x2="1182.5" y1="76.2188" y2="1310.2813"/><rect fill="#E3E3E3" height="31.6094" rx="2.5" ry="2.5" style="stroke:#181818;stroke-width:0.5;" width="172" x="5" y="43.6094"/><text fill="#000000" font-family="sans-serif" font-size="14" lengthAdjust="spacing" textLength="158" x="12" y="65.1426">Frontend (React, Refine)</text><rect fill="#E3E3E3" height="31.6094" rx="2.5" ry="2.5" style="stroke:#181818;stroke-width:0.5;" width="172" x="5" y="1309.2813"/><text fill="#000000" font-family="sans-serif" font-size="14" lengthAdjust="spacing" textLength="158" x="12" y="1330.8145">Frontend (React, Refine)</text><rect fill="#E3E3E3" height="31.6094" rx="2.5" ry="2.5" style="stroke:#181818;stroke-width:0.5;" width="162" x="187" y="43.6094"/><text fill="#000000" font-family="sans-serif" font-size="14" lengthAdjust="spacing" textLength="148" x="194" y="65.1426">EnergyManagementAPI</text><rect fill="#E3E3E3" height="31.6094" rx="2.5" ry="2.5" style="stroke:#181818;stroke-width:0.5;" width="162" x="187" y="1309.2813"/><text fill="#000000" font-family="sans-serif" font-size="14" lengthAdjust="spacing" textLength="148" x="194" y="1330.8145">EnergyManagementAPI</text><rect fill="#E3E3E3" height="31.6094" rx="2.5" ry="2.5" style="stroke:#181818;stroke-width:0.5;" width="111" x="359" y="43.6094"/><text fill="#000000" font-family="sans-serif" font-size="14" lengthAdjust="spacing" textLength="97" x="366" y="65.1426">EntityController</text><rect fill="#E3E3E3" height="31.6094" rx="2.5" ry="2.5" style="stroke:#181818;stroke-width:0.5;" width="111" x="359" y="1309.2813"/><text fill="#000000" font-family="sans-serif" font-size="14" lengthAdjust="spacing" textLength="97" x="366" y="1330.8145">EntityController</text><rect fill="#E3E3E3" height="31.6094" rx="2.5" ry="2.5" style="stroke:#181818;stroke-width:0.5;" width="130" x="502.5" y="43.6094"/><text fill="#000000" font-family="sans-serif" font-size="14" lengthAdjust="spacing" textLength="116" x="509.5" y="65.1426">ApplicationService</text><rect fill="#E3E3E3" height="31.6094" rx="2.5" ry="2.5" style="stroke:#181818;stroke-width:0.5;" width="130" x="502.5" y="1309.2813"/><text fill="#000000" font-family="sans-serif" font-size="14" lengthAdjust="spacing" textLength="116" x="509.5" y="1330.8145">ApplicationService</text><rect fill="#E3E3E3" height="31.6094" rx="2.5" ry="2.5" style="stroke:#181818;stroke-width:0.5;" width="83" x="642.5" y="43.6094"/><text fill="#000000" font-family="sans-serif" font-size="14" lengthAdjust="spacing" textLength="69" x="649.5" y="65.1426">EntityRepo</text><rect fill="#E3E3E3" height="31.6094" rx="2.5" ry="2.5" style="stroke:#181818;stroke-width:0.5;" width="83" x="642.5" y="1309.2813"/><text fill="#000000" font-family="sans-serif" font-size="14" lengthAdjust="spacing" textLength="69" x="649.5" y="1330.8145">EntityRepo</text><rect fill="#E3E3E3" height="31.6094" rx="2.5" ry="2.5" style="stroke:#181818;stroke-width:0.5;" width="76" x="735.5" y="43.6094"/><text fill="#000000" font-family="sans-serif" font-size="14" lengthAdjust="spacing" textLength="62" x="742.5" y="65.1426">EntityMap</text><rect fill="#E3E3E3" height="31.6094" rx="2.5" ry="2.5" style="stroke:#181818;stroke-width:0.5;" width="76" x="735.5" y="1309.2813"/><text fill="#000000" font-family="sans-serif" font-size="14" lengthAdjust="spacing" textLength="62" x="742.5" y="1330.8145">EntityMap</text><rect fill="#E3E3E3" height="31.6094" rx="2.5" ry="2.5" style="stroke:#181818;stroke-width:0.5;" width="49" x="821.5" y="43.6094"/><text fill="#000000" font-family="sans-serif" font-size="14" lengthAdjust="spacing" textLength="35" x="828.5" y="65.1426">Entity</text><rect fill="#E3E3E3" height="31.6094" rx="2.5" ry="2.5" style="stroke:#181818;stroke-width:0.5;" width="49" x="821.5" y="1309.2813"/><text fill="#000000" font-family="sans-serif" font-size="14" lengthAdjust="spacing" textLength="35" x="828.5" y="1330.8145">Entity</text><rect fill="#E3E3E3" height="31.6094" rx="2.5" ry="2.5" style="stroke:#181818;stroke-width:0.5;" width="88" x="880.5" y="43.6094"/><text fill="#000000" font-family="sans-serif" font-size="14" lengthAdjust="spacing" textLength="74" x="887.5" y="65.1426">Persistence</text><rect fill="#E3E3E3" height="31.6094" rx="2.5" ry="2.5" style="stroke:#181818;stroke-width:0.5;" width="88" x="880.5" y="1309.2813"/><text fill="#000000" font-family="sans-serif" font-size="14" lengthAdjust="spacing" textLength="74" x="887.5" y="1330.8145">Persistence</text><rect fill="#E3E3E3" height="31.6094" rx="2.5" ry="2.5" style="stroke:#181818;stroke-width:0.5;" width="156" x="995.5" y="43.6094"/><text fill="#000000" font-family="sans-serif" font-size="14" lengthAdjust="spacing" textLength="142" x="1002.5" y="65.1426">PostgreSQL Database</text><rect fill="#E3E3E3" height="31.6094" rx="2.5" ry="2.5" style="stroke:#181818;stroke-width:0.5;" width="156" x="995.5" y="1309.2813"/><text fill="#000000" font-family="sans-serif" font-size="14" lengthAdjust="spacing" textLength="142" x="1002.5" y="1330.8145">PostgreSQL Database</text><rect fill="#E3E3E3" height="31.6094" rx="2.5" ry="2.5" style="stroke:#181818;stroke-width:0.5;" width="43" x="1161.5" y="43.6094"/><text fill="#000000" font-family="sans-serif" font-size="14" lengthAdjust="spacing" textLength="29" x="1168.5" y="65.1426">User</text><rect fill="#E3E3E3" height="31.6094" rx="2.5" ry="2.5" style="stroke:#181818;stroke-width:0.5;" width="43" x="1161.5" y="1309.2813"/><text fill="#000000" font-family="sans-serif" font-size="14" lengthAdjust="spacing" textLength="29" x="1168.5" y="1330.8145">User</text><rect fill="#FFFFFF" height="1206.0625" style="stroke:#181818;stroke-width:1.0;" width="10" x="86" y="86.2188"/><rect fill="#FFFFFF" height="394.5703" style="stroke:#181818;stroke-width:1.0;" width="10" x="263" y="108.5703"/><rect fill="#FFFFFF" height="607.0313" style="stroke:#181818;stroke-width:1.0;" width="10" x="263" y="654.8984"/><rect fill="#FFFFFF" height="333.8672" style="stroke:#181818;stroke-width:1.0;" width="10" x="409.5" y="138.9219"/><rect fill="#FFFFFF" height="546.3281" style="stroke:#181818;stroke-width:1.0;" width="10" x="409.5" y="685.25"/><rect fill="#FFFFFF" height="273.1641" style="stroke:#181818;stroke-width:1.0;" width="10" x="562.5" y="169.2734"/><rect fill="#FFFFFF" height="485.625" style="stroke:#181818;stroke-width:1.0;" width="10" x="562.5" y="715.6016"/><rect fill="#FFFFFF" height="151.7578" style="stroke:#181818;stroke-width:1.0;" width="10" x="679" y="199.625"/><rect fill="#FFFFFF" height="151.7578" style="stroke:#181818;stroke-width:1.0;" width="10" x="679" y="745.9531"/><rect fill="#FFFFFF" height="151.7578" style="stroke:#181818;stroke-width:1.0;" width="10" x="679" y="958.4141"/><rect fill="#FFFFFF" height="30.3516" style="stroke:#181818;stroke-width:1.0;" width="10" x="768.5" y="381.7344"/><rect fill="#FFFFFF" height="30.3516" style="stroke:#181818;stroke-width:1.0;" width="10" x="768.5" y="1140.5234"/><rect fill="#FFFFFF" height="91.0547" style="stroke:#181818;stroke-width:1.0;" width="10" x="919.5" y="229.9766"/><rect fill="#FFFFFF" height="91.0547" style="stroke:#181818;stroke-width:1.0;" width="10" x="919.5" y="776.3047"/><rect fill="#FFFFFF" height="91.0547" style="stroke:#181818;stroke-width:1.0;" width="10" x="919.5" y="988.7656"/><rect fill="#FFFFFF" height="30.3516" style="stroke:#181818;stroke-width:1.0;" width="10" x="1068.5" y="260.3281"/><rect fill="#FFFFFF" height="30.3516" style="stroke:#181818;stroke-width:1.0;" width="10" x="1068.5" y="806.6563"/><rect fill="#FFFFFF" height="30.3516" style="stroke:#181818;stroke-width:1.0;" width="10" x="1068.5" y="1019.1172"/><polygon fill="#181818" points="251,104.5703,261,108.5703,251,112.5703,255,108.5703" style="stroke:#181818;stroke-width:1.0;"/><line style="stroke:#181818;stroke-width:1.0;" x1="96" x2="257" y1="108.5703" y2="108.5703"/><text fill="#000000" font-family="sans-serif" font-size="13" lengthAdjust="spacing" textLength="76" x="103" y="103.7139">GET /entities</text><polygon fill="#181818" points="397.5,134.9219,407.5,138.9219,397.5,142.9219,401.5,138.9219" style="stroke:#181818;stroke-width:1.0;"/><line style="stroke:#181818;stroke-width:1.0;" x1="273" x2="403.5" y1="138.9219" y2="138.9219"/><text fill="#000000" font-family="sans-serif" font-size="13" lengthAdjust="spacing" textLength="26" x="280" y="134.0654">GET</text><polygon fill="#181818" points="550.5,165.2734,560.5,169.2734,550.5,173.2734,554.5,169.2734" style="stroke:#181818;stroke-width:1.0;"/><line style="stroke:#181818;stroke-width:1.0;" x1="419.5" x2="556.5" y1="169.2734" y2="169.2734"/><text fill="#000000" font-family="sans-serif" font-size="13" lengthAdjust="spacing" textLength="70" x="426.5" y="164.417">getEntities()</text><polygon fill="#181818" points="667,195.625,677,199.625,667,203.625,671,199.625" style="stroke:#181818;stroke-width:1.0;"/><line style="stroke:#181818;stroke-width:1.0;" x1="572.5" x2="673" y1="199.625" y2="199.625"/><text fill="#000000" font-family="sans-serif" font-size="13" lengthAdjust="spacing" textLength="80" x="579.5" y="194.7686">fetchEntities()</text><polygon fill="#181818" points="907.5,225.9766,917.5,229.9766,907.5,233.9766,911.5,229.9766" style="stroke:#181818;stroke-width:1.0;"/><line style="stroke:#181818;stroke-width:1.0;" x1="689" x2="913.5" y1="229.9766" y2="229.9766"/><text fill="#000000" font-family="sans-serif" font-size="13" lengthAdjust="spacing" textLength="92" x="696" y="225.1201">Query entity list</text><polygon fill="#181818" points="1056.5,256.3281,1066.5,260.3281,1056.5,264.3281,1060.5,260.3281" style="stroke:#181818;stroke-width:1.0;"/><line style="stroke:#181818;stroke-width:1.0;" x1="929.5" x2="1062.5" y1="260.3281" y2="260.3281"/><text fill="#000000" font-family="sans-serif" font-size="13" lengthAdjust="spacing" textLength="120" x="936.5" y="255.4717">Select entity records</text><polygon fill="#181818" points="940.5,286.6797,930.5,290.6797,940.5,294.6797,936.5,290.6797" style="stroke:#181818;stroke-width:1.0;"/><line style="stroke:#181818;stroke-width:1.0;stroke-dasharray:2.0,2.0;" x1="934.5" x2="1072.5" y1="290.6797" y2="290.6797"/><text fill="#000000" font-family="sans-serif" font-size="13" lengthAdjust="spacing" textLength="95" x="946.5" y="285.8232">Return entity list</text><polygon fill="#181818" points="700,317.0313,690,321.0313,700,325.0313,696,321.0313" style="stroke:#181818;stroke-width:1.0;"/><line style="stroke:#181818;stroke-width:1.0;stroke-dasharray:2.0,2.0;" x1="694" x2="923.5" y1="321.0313" y2="321.0313"/><text fill="#000000" font-family="sans-serif" font-size="13" lengthAdjust="spacing" textLength="84" x="706" y="316.1748">Return entities</text><polygon fill="#181818" points="583.5,347.3828,573.5,351.3828,583.5,355.3828,579.5,351.3828" style="stroke:#181818;stroke-width:1.0;"/><line style="stroke:#181818;stroke-width:1.0;stroke-dasharray:2.0,2.0;" x1="577.5" x2="683" y1="351.3828" y2="351.3828"/><text fill="#000000" font-family="sans-serif" font-size="13" lengthAdjust="spacing" textLength="42" x="589.5" y="346.5264">entities</text><polygon fill="#181818" points="756.5,377.7344,766.5,381.7344,756.5,385.7344,760.5,381.7344" style="stroke:#181818;stroke-width:1.0;"/><line style="stroke:#181818;stroke-width:1.0;" x1="572.5" x2="762.5" y1="381.7344" y2="381.7344"/><text fill="#000000" font-family="sans-serif" font-size="13" lengthAdjust="spacing" textLength="87" x="579.5" y="376.8779">toDTO(entities)</text><polygon fill="#181818" points="583.5,408.0859,573.5,412.0859,583.5,416.0859,579.5,412.0859" style="stroke:#181818;stroke-width:1.0;"/><line style="stroke:#181818;stroke-width:1.0;" x1="577.5" x2="772.5" y1="412.0859" y2="412.0859"/><text fill="#000000" font-family="sans-serif" font-size="13" lengthAdjust="spacing" textLength="68" x="589.5" y="407.2295">entitiesDTO</text><polygon fill="#181818" points="430.5,438.4375,420.5,442.4375,430.5,446.4375,426.5,442.4375" style="stroke:#181818;stroke-width:1.0;"/><line style="stroke:#181818;stroke-width:1.0;" x1="424.5" x2="566.5" y1="442.4375" y2="442.4375"/><text fill="#000000" font-family="sans-serif" font-size="13" lengthAdjust="spacing" textLength="68" x="436.5" y="437.5811">entitiesDTO</text><polygon fill="#181818" points="284,468.7891,274,472.7891,284,476.7891,280,472.7891" style="stroke:#181818;stroke-width:1.0;"/><line style="stroke:#181818;stroke-width:1.0;" x1="278" x2="413.5" y1="472.7891" y2="472.7891"/><text fill="#000000" font-family="sans-serif" font-size="13" lengthAdjust="spacing" textLength="95" x="290" y="467.9326">Status code 200</text><polygon fill="#181818" points="107,499.1406,97,503.1406,107,507.1406,103,503.1406" style="stroke:#181818;stroke-width:1.0;"/><line style="stroke:#181818;stroke-width:1.0;" x1="101" x2="267" y1="503.1406" y2="503.1406"/><text fill="#000000" font-family="sans-serif" font-size="13" lengthAdjust="spacing" textLength="135" x="113" y="498.2842">Success with entity list</text><polygon fill="#181818" points="1197.5,529.4922,1207.5,533.4922,1197.5,537.4922,1201.5,533.4922" style="stroke:#181818;stroke-width:1.0;"/><line style="stroke:#181818;stroke-width:1.0;stroke-dasharray:2.0,2.0;" x1="96" x2="1203.5" y1="533.4922" y2="533.4922"/><text fill="#000000" font-family="sans-serif" font-size="13" lengthAdjust="spacing" textLength="100" x="103" y="528.6357">Display entity list</text><polygon fill="#181818" points="107,559.8438,97,563.8438,107,567.8438,103,563.8438" style="stroke:#181818;stroke-width:1.0;"/><line style="stroke:#181818;stroke-width:1.0;" x1="101" x2="1182" y1="563.8438" y2="563.8438"/><text fill="#000000" font-family="sans-serif" font-size="13" lengthAdjust="spacing" textLength="102" x="113" y="558.9873">Selects entity {id}</text><polygon fill="#181818" points="1171,590.1953,1181,594.1953,1171,598.1953,1175,594.1953" style="stroke:#181818;stroke-width:1.0;"/><line style="stroke:#181818;stroke-width:1.0;" x1="96" x2="1177" y1="594.1953" y2="594.1953"/><text fill="#000000" font-family="sans-serif" font-size="13" lengthAdjust="spacing" textLength="134" x="103" y="589.3389">Requests updated data</text><polygon fill="#181818" points="107,620.5469,97,624.5469,107,628.5469,103,624.5469" style="stroke:#181818;stroke-width:1.0;"/><line style="stroke:#181818;stroke-width:1.0;" x1="101" x2="1182" y1="624.5469" y2="624.5469"/><text fill="#000000" font-family="sans-serif" font-size="13" lengthAdjust="spacing" textLength="127" x="113" y="619.6904">Submits updated data</text><polygon fill="#181818" points="251,650.8984,261,654.8984,251,658.8984,255,654.8984" style="stroke:#181818;stroke-width:1.0;"/><line style="stroke:#181818;stroke-width:1.0;" x1="96" x2="257" y1="654.8984" y2="654.8984"/><text fill="#000000" font-family="sans-serif" font-size="13" lengthAdjust="spacing" textLength="124" x="103" y="650.042">PUT /entity/{id} {data}</text><polygon fill="#181818" points="397.5,681.25,407.5,685.25,397.5,689.25,401.5,685.25" style="stroke:#181818;stroke-width:1.0;"/><line style="stroke:#181818;stroke-width:1.0;" x1="273" x2="403.5" y1="685.25" y2="685.25"/><text fill="#000000" font-family="sans-serif" font-size="13" lengthAdjust="spacing" textLength="25" x="280" y="680.3936">PUT</text><polygon fill="#181818" points="550.5,711.6016,560.5,715.6016,550.5,719.6016,554.5,715.6016" style="stroke:#181818;stroke-width:1.0;"/><line style="stroke:#181818;stroke-width:1.0;" x1="419.5" x2="556.5" y1="715.6016" y2="715.6016"/><text fill="#000000" font-family="sans-serif" font-size="13" lengthAdjust="spacing" textLength="124" x="426.5" y="710.7451">updateEntity(id, data)</text><polygon fill="#181818" points="667,741.9531,677,745.9531,667,749.9531,671,745.9531" style="stroke:#181818;stroke-width:1.0;"/><line style="stroke:#181818;stroke-width:1.0;" x1="572.5" x2="673" y1="745.9531" y2="745.9531"/><text fill="#000000" font-family="sans-serif" font-size="13" lengthAdjust="spacing" textLength="80" x="579.5" y="741.0967">fetchEntity(id)</text><polygon fill="#181818" points="907.5,772.3047,917.5,776.3047,907.5,780.3047,911.5,776.3047" style="stroke:#181818;stroke-width:1.0;"/><line style="stroke:#181818;stroke-width:1.0;" x1="689" x2="913.5" y1="776.3047" y2="776.3047"/><text fill="#000000" font-family="sans-serif" font-size="13" lengthAdjust="spacing" textLength="100" x="696" y="771.4482">Query entity data</text><polygon fill="#181818" points="1056.5,802.6563,1066.5,806.6563,1056.5,810.6563,1060.5,806.6563" style="stroke:#181818;stroke-width:1.0;"/><line style="stroke:#181818;stroke-width:1.0;" x1="929.5" x2="1062.5" y1="806.6563" y2="806.6563"/><text fill="#000000" font-family="sans-serif" font-size="13" lengthAdjust="spacing" textLength="113" x="936.5" y="801.7998">Select entity record</text><polygon fill="#181818" points="940.5,833.0078,930.5,837.0078,940.5,841.0078,936.5,837.0078" style="stroke:#181818;stroke-width:1.0;"/><line style="stroke:#181818;stroke-width:1.0;stroke-dasharray:2.0,2.0;" x1="934.5" x2="1072.5" y1="837.0078" y2="837.0078"/><text fill="#000000" font-family="sans-serif" font-size="13" lengthAdjust="spacing" textLength="103" x="946.5" y="832.1514">Return entity data</text><polygon fill="#181818" points="700,863.3594,690,867.3594,700,871.3594,696,867.3594" style="stroke:#181818;stroke-width:1.0;"/><line style="stroke:#181818;stroke-width:1.0;stroke-dasharray:2.0,2.0;" x1="694" x2="923.5" y1="867.3594" y2="867.3594"/><text fill="#000000" font-family="sans-serif" font-size="13" lengthAdjust="spacing" textLength="74" x="706" y="862.5029">Return entity</text><polygon fill="#181818" points="583.5,893.7109,573.5,897.7109,583.5,901.7109,579.5,897.7109" style="stroke:#181818;stroke-width:1.0;"/><line style="stroke:#181818;stroke-width:1.0;stroke-dasharray:2.0,2.0;" x1="577.5" x2="683" y1="897.7109" y2="897.7109"/><text fill="#000000" font-family="sans-serif" font-size="13" lengthAdjust="spacing" textLength="32" x="589.5" y="892.8545">entity</text><polygon fill="#181818" points="834,924.0625,844,928.0625,834,932.0625,838,928.0625" style="stroke:#181818;stroke-width:1.0;"/><line style="stroke:#181818;stroke-width:1.0;" x1="572.5" x2="840" y1="928.0625" y2="928.0625"/><text fill="#000000" font-family="sans-serif" font-size="13" lengthAdjust="spacing" textLength="72" x="579.5" y="923.2061">update(data)</text><polygon fill="#181818" points="667,954.4141,677,958.4141,667,962.4141,671,958.4141" style="stroke:#181818;stroke-width:1.0;"/><line style="stroke:#181818;stroke-width:1.0;" x1="572.5" x2="673" y1="958.4141" y2="958.4141"/><text fill="#000000" font-family="sans-serif" font-size="13" lengthAdjust="spacing" textLength="66" x="579.5" y="953.5576">save(entity)</text><polygon fill="#181818" points="907.5,984.7656,917.5,988.7656,907.5,992.7656,911.5,988.7656" style="stroke:#181818;stroke-width:1.0;"/><line style="stroke:#181818;stroke-width:1.0;" x1="689" x2="913.5" y1="988.7656" y2="988.7656"/><text fill="#000000" font-family="sans-serif" font-size="13" lengthAdjust="spacing" textLength="156" x="696" y="983.9092">Persist updated entity data</text><polygon fill="#181818" points="1056.5,1015.1172,1066.5,1019.1172,1056.5,1023.1172,1060.5,1019.1172" style="stroke:#181818;stroke-width:1.0;"/><line style="stroke:#181818;stroke-width:1.0;" x1="929.5" x2="1062.5" y1="1019.1172" y2="1019.1172"/><text fill="#000000" font-family="sans-serif" font-size="13" lengthAdjust="spacing" textLength="117" x="936.5" y="1014.2607">Update entity record</text><polygon fill="#181818" points="940.5,1045.4688,930.5,1049.4688,940.5,1053.4688,936.5,1049.4688" style="stroke:#181818;stroke-width:1.0;"/><line style="stroke:#181818;stroke-width:1.0;stroke-dasharray:2.0,2.0;" x1="934.5" x2="1072.5" y1="1049.4688" y2="1049.4688"/><text fill="#000000" font-family="sans-serif" font-size="13" lengthAdjust="spacing" textLength="87" x="946.5" y="1044.6123">Confirm update</text><polygon fill="#181818" points="700,1075.8203,690,1079.8203,700,1083.8203,696,1079.8203" style="stroke:#181818;stroke-width:1.0;"/><line style="stroke:#181818;stroke-width:1.0;stroke-dasharray:2.0,2.0;" x1="694" x2="923.5" y1="1079.8203" y2="1079.8203"/><text fill="#000000" font-family="sans-serif" font-size="13" lengthAdjust="spacing" textLength="91" x="706" y="1074.9639">Return success</text><polygon fill="#181818" points="583.5,1106.1719,573.5,1110.1719,583.5,1114.1719,579.5,1110.1719" style="stroke:#181818;stroke-width:1.0;"/><line style="stroke:#181818;stroke-width:1.0;stroke-dasharray:2.0,2.0;" x1="577.5" x2="683" y1="1110.1719" y2="1110.1719"/><text fill="#000000" font-family="sans-serif" font-size="13" lengthAdjust="spacing" textLength="32" x="589.5" y="1105.3154">entity</text><polygon fill="#181818" points="756.5,1136.5234,766.5,1140.5234,756.5,1144.5234,760.5,1140.5234" style="stroke:#181818;stroke-width:1.0;"/><line style="stroke:#181818;stroke-width:1.0;" x1="572.5" x2="762.5" y1="1140.5234" y2="1140.5234"/><text fill="#000000" font-family="sans-serif" font-size="13" lengthAdjust="spacing" textLength="77" x="579.5" y="1135.667">toDTO(entity)</text><polygon fill="#181818" points="583.5,1166.875,573.5,1170.875,583.5,1174.875,579.5,1170.875" style="stroke:#181818;stroke-width:1.0;"/><line style="stroke:#181818;stroke-width:1.0;" x1="577.5" x2="772.5" y1="1170.875" y2="1170.875"/><text fill="#000000" font-family="sans-serif" font-size="13" lengthAdjust="spacing" textLength="58" x="589.5" y="1166.0186">entityDTO</text><polygon fill="#181818" points="430.5,1197.2266,420.5,1201.2266,430.5,1205.2266,426.5,1201.2266" style="stroke:#181818;stroke-width:1.0;"/><line style="stroke:#181818;stroke-width:1.0;" x1="424.5" x2="566.5" y1="1201.2266" y2="1201.2266"/><text fill="#000000" font-family="sans-serif" font-size="13" lengthAdjust="spacing" textLength="58" x="436.5" y="1196.3701">entityDTO</text><polygon fill="#181818" points="284,1227.5781,274,1231.5781,284,1235.5781,280,1231.5781" style="stroke:#181818;stroke-width:1.0;"/><line style="stroke:#181818;stroke-width:1.0;" x1="278" x2="413.5" y1="1231.5781" y2="1231.5781"/><text fill="#000000" font-family="sans-serif" font-size="13" lengthAdjust="spacing" textLength="95" x="290" y="1226.7217">Status code 200</text><polygon fill="#181818" points="107,1257.9297,97,1261.9297,107,1265.9297,103,1261.9297" style="stroke:#181818;stroke-width:1.0;"/><line style="stroke:#181818;stroke-width:1.0;" x1="101" x2="267" y1="1261.9297" y2="1261.9297"/><text fill="#000000" font-family="sans-serif" font-size="13" lengthAdjust="spacing" textLength="51" x="113" y="1257.0732">Success</text><polygon fill="#181818" points="1197.5,1288.2813,1207.5,1292.2813,1197.5,1296.2813,1201.5,1292.2813" style="stroke:#181818;stroke-width:1.0;"/><line style="stroke:#181818;stroke-width:1.0;stroke-dasharray:2.0,2.0;" x1="91" x2="1203.5" y1="1292.2813" y2="1292.2813"/><text fill="#000000" font-family="sans-serif" font-size="13" lengthAdjust="spacing" textLength="96" x="98" y="1287.4248">Display success</text><!--SRC=[lPNFRk8m4CRlUOfHJrHgHRLxux0IBUmVgMXJGX_0JOPWDTXPsw6AghxxZkr079gM8Ats02JoRyRZpzyC-fcBaYcsXOKKCjqekKKmgi987rPYbZwp71DJ5mWAKyD4NeH0ic6PVE4YXpKhD4QHuORG1FzKA5A46MSvSHE87rVZUBgw-mdtkCC2laOHPJ0yvIKJ1Yw-AoaCYWn6IsIfkO8bhhd0omjW6f9usgNd0bLUBvYWuhOep3J-vK3wFGQfeFgESYjP5AWSrRvsuMbP5ZnbXakHeDhn5Ftk_halyH9BwHZxq0SiMEdMwRTlsQtvn-voZ4fpRQo6Zh7lHuJK9bUOFDp3Z1dsnBGdPxTHH0Bo7JFeXACFN7-pqi04VinNC4Qx8KVTSbOt2n3NYkFn5Wfa2o0AQGGYFaSpRvAFBeCo6WNt8CLOmIXWZIRTz8KuGHr4i3qzmGyLgXfSzJKK94-BEtqSHlZibk042_BhdYRlIfK59oQP2Bjkao_HL4fqicSOuZvxMteOOCKCQ5UDBxuZJn_h3Xe8GquXqiZPwlTepmUwM2DPf3SlnOIfBHjaxjpi1o7xc-fUiFTEOfYfDAGoG_XoSnE61TPeR6HTHo5LcgBMyCBDvYDfhVUSHobgGWD3bmNhtlAZRdpcSxgBrNlYbMTlUuyxqDuCJHzDI5Lcj4C6zCsEirHFMtwCT5g59bRJAlNORWAlbdaxtJGKU5RJ-1By51ZnxChLScRtsC1pkiSTzypk6TmyBldmvga7jqxzMUDu7GvwZhoAxqNJR8U-i-eJYZL3-E2HWTezEdomTcIBDLVRPfTXkcdVL_z6k7SJfnuqR-fpfqtzNsRDwT7I8vxzd_mB]--></g></svg>