<?xml version="1.0" encoding="UTF-8" standalone="no"?><svg xmlns="http://www.w3.org/2000/svg" xmlns:xlink="http://www.w3.org/1999/xlink" contentStyleType="text/css" height="354px" preserveAspectRatio="none" style="width:246px;height:354px;background:#FFFFFF;" version="1.1" viewBox="0 0 246 354" width="246px" zoomAndPan="magnify"><defs/><g><!--cluster BackEnd--><g id="cluster_BackEnd"><rect fill="none" height="238" rx="2.5" ry="2.5" style="stroke:#181818;stroke-width:1.0;" width="156" x="32" y="110"/><rect fill="none" height="10" style="stroke:#181818;stroke-width:1.0;" width="15" x="168" y="115"/><rect fill="none" height="2" style="stroke:#181818;stroke-width:1.0;" width="4" x="166" y="117"/><rect fill="none" height="2" style="stroke:#181818;stroke-width:1.0;" width="4" x="166" y="121"/><text fill="#000000" font-family="sans-serif" font-size="14" font-weight="bold" lengthAdjust="spacing" textLength="61" x="79.5" y="137.5332">BackEnd</text></g><!--entity DB--><g id="elem_DB"><rect fill="#F1F1F1" height="47.6094" rx="2.5" ry="2.5" style="stroke:#181818;stroke-width:0.5;" width="59" x="59.5" y="284"/><rect fill="#F1F1F1" height="10" style="stroke:#181818;stroke-width:0.5;" width="15" x="98.5" y="289"/><rect fill="#F1F1F1" height="2" style="stroke:#181818;stroke-width:0.5;" width="4" x="96.5" y="291"/><rect fill="#F1F1F1" height="2" style="stroke:#181818;stroke-width:0.5;" width="4" x="96.5" y="295"/><text fill="#000000" font-family="sans-serif" font-size="14" lengthAdjust="spacing" textLength="19" x="74.5" y="318.5332">DB</text></g><!--entity Server--><g id="elem_Server"><rect fill="#F1F1F1" height="47.6094" rx="2.5" ry="2.5" style="stroke:#181818;stroke-width:0.5;" width="82" x="48" y="176"/><rect fill="#F1F1F1" height="10" style="stroke:#181818;stroke-width:0.5;" width="15" x="110" y="181"/><rect fill="#F1F1F1" height="2" style="stroke:#181818;stroke-width:0.5;" width="4" x="108" y="183"/><rect fill="#F1F1F1" height="2" style="stroke:#181818;stroke-width:0.5;" width="4" x="108" y="187"/><text fill="#000000" font-family="sans-serif" font-size="14" lengthAdjust="spacing" textLength="42" x="63" y="210.5332">Server</text></g><text fill="#000000" font-family="sans-serif" font-size="14" lengthAdjust="spacing" textLength="17" x="80.5" y="88.9238">P1</text><rect fill="#F1F1F1" height="12" style="stroke:#181818;stroke-width:1.5;" width="12" x="83" y="104"/><text fill="#000000" font-family="sans-serif" font-size="14" lengthAdjust="spacing" textLength="17" x="161.5" y="88.9238">P2</text><rect fill="#F1F1F1" height="12" style="stroke:#181818;stroke-width:1.5;" width="12" x="164" y="104"/><!--entity API_Optimization--><g id="elem_API_Optimization"><ellipse cx="59" cy="14" fill="#F1F1F1" rx="8" ry="8" style="stroke:#181818;stroke-width:0.5;"/><text fill="#000000" font-family="sans-serif" font-size="14" lengthAdjust="spacing" textLength="106" x="6" y="45.5332">API_Optimization</text></g><!--entity API_Exterior--><g id="elem_API_Exterior"><ellipse cx="201" cy="14" fill="#F1F1F1" rx="8" ry="8" style="stroke:#181818;stroke-width:0.5;"/><text fill="#000000" font-family="sans-serif" font-size="14" lengthAdjust="spacing" textLength="77" x="162.5" y="45.5332">API_Exterior</text></g><!--link API_Optimization to P1--><g id="link_API_Optimization_P1"><path d="M61.56,23.01 C67.57,41.84 82.44,88.45 87.38,103.92 " fill="none" id="API_Optimization-P1" style="stroke:#181818;stroke-width:1.0;"/></g><!--link API_Exterior to P2--><g id="link_API_Exterior_P2"><path d="M198.36,23.01 C192.15,41.84 176.78,88.45 171.67,103.92 " fill="none" id="API_Exterior-P2" style="stroke:#181818;stroke-width:1.0;"/></g><!--link P1 to Server--><g id="link_P1_Server"><path d="M89,116.24 C89,127.71 89,155.63 89,175.88 " fill="none" id="P1-Server" style="stroke:#181818;stroke-width:1.0;"/></g><!--link P2 to Server--><g id="link_P2_Server"><path d="M165.18,116.24 C154.62,127.71 128.92,155.63 110.29,175.88 " fill="none" id="P2-Server" style="stroke:#181818;stroke-width:1.0;"/></g><!--link Server to DB--><g id="link_Server_DB"><path d="M89,224 C89,241.66 89,265.94 89,283.68 " fill="none" id="Server-DB" style="stroke:#181818;stroke-width:1.0;"/><path d="M96.0711,246.7389 A10,10 0 0 0 81.9289 246.7389" fill="none" style="stroke:#181818;stroke-width:1.5;"/><ellipse cx="89" cy="253.81" fill="#FFFFFF" rx="6" ry="6" style="stroke:#181818;stroke-width:1.5;"/></g><!--SRC=[oymhIIrAIqnELN0Cy8ptBoZ9pCsiIYp9pC_ZoaIHSgq0yZBpYxYuk9BpSmloyrBpIXIKd1AJirtpKfGKghaKW00Xu-A49X2SMbIMMWGMBCWlAb48C4HY6t7LSd6XEq11LnUa2jboi90HLu2XWYxCm00Z11j2AUXg6EW27G00]--></g></svg>