<?xml version="1.0" encoding="UTF-8" standalone="no"?><svg xmlns="http://www.w3.org/2000/svg" xmlns:xlink="http://www.w3.org/1999/xlink" contentStyleType="text/css" height="354px" preserveAspectRatio="none" style="width:483px;height:354px;background:#FFFFFF;" version="1.1" viewBox="0 0 483 354" width="483px" zoomAndPan="magnify"><defs/><g><!--cluster Level 2--><g id="cluster_Level 2"><rect fill="none" height="238" rx="2.5" ry="2.5" style="stroke:#181818;stroke-width:1.0;" width="344" x="7" y="110"/><rect fill="none" height="10" style="stroke:#181818;stroke-width:1.0;" width="15" x="331" y="115"/><rect fill="none" height="2" style="stroke:#181818;stroke-width:1.0;" width="4" x="329" y="117"/><rect fill="none" height="2" style="stroke:#181818;stroke-width:1.0;" width="4" x="329" y="121"/><text fill="#000000" font-family="sans-serif" font-size="14" font-weight="bold" lengthAdjust="spacing" textLength="51" x="153.5" y="137.5332">Level 2</text></g><!--entity FrontEnd--><g id="elem_FrontEnd"><rect fill="#F1F1F1" height="47.6094" rx="2.5" ry="2.5" style="stroke:#181818;stroke-width:0.5;" width="99" x="201.5" y="176"/><rect fill="#F1F1F1" height="10" style="stroke:#181818;stroke-width:0.5;" width="15" x="280.5" y="181"/><rect fill="#F1F1F1" height="2" style="stroke:#181818;stroke-width:0.5;" width="4" x="278.5" y="183"/><rect fill="#F1F1F1" height="2" style="stroke:#181818;stroke-width:0.5;" width="4" x="278.5" y="187"/><text fill="#000000" font-family="sans-serif" font-size="14" lengthAdjust="spacing" textLength="59" x="216.5" y="210.5332">FrontEnd</text></g><!--entity BackEnd--><g id="elem_BackEnd"><rect fill="#F1F1F1" height="47.6094" rx="2.5" ry="2.5" style="stroke:#181818;stroke-width:0.5;" width="96" x="60" y="284"/><rect fill="#F1F1F1" height="10" style="stroke:#181818;stroke-width:0.5;" width="15" x="136" y="289"/><rect fill="#F1F1F1" height="2" style="stroke:#181818;stroke-width:0.5;" width="4" x="134" y="291"/><rect fill="#F1F1F1" height="2" style="stroke:#181818;stroke-width:0.5;" width="4" x="134" y="295"/><text fill="#000000" font-family="sans-serif" font-size="14" lengthAdjust="spacing" textLength="56" x="75" y="318.5332">BackEnd</text></g><!--entity Optimization--><g id="elem_Optimization"><rect fill="#F1F1F1" height="47.6094" rx="2.5" ry="2.5" style="stroke:#181818;stroke-width:0.5;" width="117" x="49.5" y="176"/><rect fill="#F1F1F1" height="10" style="stroke:#181818;stroke-width:0.5;" width="15" x="146.5" y="181"/><rect fill="#F1F1F1" height="2" style="stroke:#181818;stroke-width:0.5;" width="4" x="144.5" y="183"/><rect fill="#F1F1F1" height="2" style="stroke:#181818;stroke-width:0.5;" width="4" x="144.5" y="187"/><text fill="#000000" font-family="sans-serif" font-size="14" lengthAdjust="spacing" textLength="77" x="64.5" y="210.5332">Optimization</text></g><text fill="#000000" font-family="sans-serif" font-size="14" lengthAdjust="spacing" textLength="17" x="16.5" y="88.9238">P1</text><rect fill="#F1F1F1" height="12" style="stroke:#181818;stroke-width:1.5;" width="12" x="19" y="104"/><text fill="#000000" font-family="sans-serif" font-size="14" lengthAdjust="spacing" textLength="17" x="158.5" y="88.9238">P2</text><rect fill="#F1F1F1" height="12" style="stroke:#181818;stroke-width:1.5;" width="12" x="161" y="104"/><text fill="#000000" font-family="sans-serif" font-size="14" lengthAdjust="spacing" textLength="17" x="242.5" y="88.9238">P3</text><rect fill="#F1F1F1" height="12" style="stroke:#181818;stroke-width:1.5;" width="12" x="245" y="104"/><text fill="#000000" font-family="sans-serif" font-size="14" lengthAdjust="spacing" textLength="17" x="324.5" y="88.9238">P4</text><rect fill="#F1F1F1" height="12" style="stroke:#181818;stroke-width:1.5;" width="12" x="327" y="104"/><!--entity API--><g id="elem_API"><ellipse cx="25" cy="14" fill="#F1F1F1" rx="8" ry="8" style="stroke:#181818;stroke-width:0.5;"/><text fill="#000000" font-family="sans-serif" font-size="14" lengthAdjust="spacing" textLength="21" x="14.5" y="45.5332">API</text></g><!--entity UI_Admin--><g id="elem_UI_Admin"><ellipse cx="131" cy="14" fill="#F1F1F1" rx="8" ry="8" style="stroke:#181818;stroke-width:0.5;"/><text fill="#000000" font-family="sans-serif" font-size="14" lengthAdjust="spacing" textLength="59" x="101.5" y="45.5332">UI_Admin</text></g><!--entity UI_Prosumer--><g id="elem_UI_Prosumer"><ellipse cx="251" cy="14" fill="#F1F1F1" rx="8" ry="8" style="stroke:#181818;stroke-width:0.5;"/><text fill="#000000" font-family="sans-serif" font-size="14" lengthAdjust="spacing" textLength="81" x="210.5" y="45.5332">UI_Prosumer</text></g><!--entity UI_EnergyCommunity--><g id="elem_UI_EnergyCommunity"><ellipse cx="409" cy="14" fill="#F1F1F1" rx="8" ry="8" style="stroke:#181818;stroke-width:0.5;"/><text fill="#000000" font-family="sans-serif" font-size="14" lengthAdjust="spacing" textLength="135" x="341.5" y="45.5332">UI_EnergyCommunity</text></g><!--link API to P1--><g id="link_API_P1"><path d="M25,23.01 C25,41.84 25,88.45 25,103.92 " fill="none" id="API-P1" style="stroke:#181818;stroke-width:1.0;"/></g><!--link UI_Admin to P2--><g id="link_UI_Admin_P2"><path d="M134.07,23.01 C141.28,41.84 159.13,88.45 165.05,103.92 " fill="none" id="UI_Admin-P2" style="stroke:#181818;stroke-width:1.0;"/></g><!--link UI_Prosumer to P3--><g id="link_UI_Prosumer_P3"><path d="M251,23.01 C251,41.84 251,88.45 251,103.92 " fill="none" id="UI_Prosumer-P3" style="stroke:#181818;stroke-width:1.0;"/></g><!--link UI_EnergyCommunity to P4--><g id="link_UI_EnergyCommunity_P4"><path d="M402.52,23.01 C387.3,41.84 349.61,88.45 337.11,103.92 " fill="none" id="UI_EnergyCommunity-P4" style="stroke:#181818;stroke-width:1.0;"/></g><!--link P1 to BackEnd--><g id="link_P1_BackEnd"><path d="M24.18,116 C21.71,132.33 15.56,185.28 32,224 C42.01,247.56 61.67,268.74 78.49,283.81 " fill="none" id="P1-BackEnd" style="stroke:#181818;stroke-width:1.0;"/></g><!--link P2 to FrontEnd--><g id="link_P2_FrontEnd"><path d="M172,116.24 C182.95,127.71 209.6,155.63 228.93,175.88 " fill="none" id="P2-FrontEnd" style="stroke:#181818;stroke-width:1.0;"/></g><!--link P3 to FrontEnd--><g id="link_P3_FrontEnd"><path d="M251,116.24 C251,127.71 251,155.63 251,175.88 " fill="none" id="P3-FrontEnd" style="stroke:#181818;stroke-width:1.0;"/></g><!--link P4 to FrontEnd--><g id="link_P4_FrontEnd"><path d="M328.12,116.24 C317.43,127.71 291.41,155.63 272.55,175.88 " fill="none" id="P4-FrontEnd" style="stroke:#181818;stroke-width:1.0;"/></g><!--link FrontEnd to BackEnd--><g id="link_FrontEnd_BackEnd"><path d="M219.97,224 C196.15,241.66 163.39,265.94 139.46,283.68 " fill="none" id="FrontEnd-BackEnd" style="stroke:#181818;stroke-width:1.0;"/><path d="M189.6476,255.2799 A10,10 0 0 0 181.2262 243.9186" fill="none" style="stroke:#181818;stroke-width:1.5;"/><ellipse cx="179.7563" cy="253.81" fill="#FFFFFF" rx="6" ry="6" style="stroke:#181818;stroke-width:1.5;"/></g><!--link Optimization to BackEnd--><g id="link_Optimization_BackEnd"><path d="M108,224 C108,241.66 108,265.94 108,283.68 " fill="none" id="Optimization-BackEnd" style="stroke:#181818;stroke-width:1.0;"/><path d="M115.0711,246.7389 A10,10 0 0 0 100.9289 246.7389" fill="none" style="stroke:#181818;stroke-width:1.5;"/><ellipse cx="108" cy="253.81" fill="#FFFFFF" rx="6" ry="6" style="stroke:#181818;stroke-width:1.5;"/></g><!--SRC=[PO_H2e8m58RlprCSlEfcaDCNi30GWdRJTOYk6BKpMJEmwDrJGTroL____HpOfyX9UoqhYPae4DHSpyKbgxMY40bhdgsMDgGvINlhzaRhbfJh02gZ6qEI74P7-P8Fv15-0FktB0ThoELK_-5TMTtNzDGufTMxTChGE3N6EXInbxcN4o-dy0KOv1WR3YQliNBmd4QImDfd758GCRBvUuBtPLOGIT1Ilqq1sMQxtFj2mV83]--></g></svg>