<?xml version="1.0" encoding="UTF-8" standalone="no"?><svg xmlns="http://www.w3.org/2000/svg" xmlns:xlink="http://www.w3.org/1999/xlink" contentStyleType="text/css" height="570px" preserveAspectRatio="none" style="width:502px;height:570px;background:#FFFFFF;" version="1.1" viewBox="0 0 502 570" width="502px" zoomAndPan="magnify"><defs/><g><!--cluster Server--><g id="cluster_Server"><rect fill="none" height="454" rx="2.5" ry="2.5" style="stroke:#181818;stroke-width:1.0;" width="489" x="7" y="110"/><rect fill="none" height="10" style="stroke:#181818;stroke-width:1.0;" width="15" x="476" y="115"/><rect fill="none" height="2" style="stroke:#181818;stroke-width:1.0;" width="4" x="474" y="117"/><rect fill="none" height="2" style="stroke:#181818;stroke-width:1.0;" width="4" x="474" y="121"/><text fill="#000000" font-family="sans-serif" font-size="14" font-weight="bold" lengthAdjust="spacing" textLength="48" x="227.5" y="137.5332">Server</text></g><!--entity Controllers--><g id="elem_Controllers"><rect fill="#F1F1F1" height="47.6094" rx="2.5" ry="2.5" style="stroke:#181818;stroke-width:0.5;" width="109" x="55.5" y="176"/><rect fill="#F1F1F1" height="10" style="stroke:#181818;stroke-width:0.5;" width="15" x="144.5" y="181"/><rect fill="#F1F1F1" height="2" style="stroke:#181818;stroke-width:0.5;" width="4" x="142.5" y="183"/><rect fill="#F1F1F1" height="2" style="stroke:#181818;stroke-width:0.5;" width="4" x="142.5" y="187"/><text fill="#000000" font-family="sans-serif" font-size="14" lengthAdjust="spacing" textLength="69" x="70.5" y="210.5332">Controllers</text></g><!--entity Domain--><g id="elem_Domain"><rect fill="#F1F1F1" height="47.6094" rx="2.5" ry="2.5" style="stroke:#181818;stroke-width:0.5;" width="88" x="23" y="392"/><rect fill="#F1F1F1" height="10" style="stroke:#181818;stroke-width:0.5;" width="15" x="91" y="397"/><rect fill="#F1F1F1" height="2" style="stroke:#181818;stroke-width:0.5;" width="4" x="89" y="399"/><rect fill="#F1F1F1" height="2" style="stroke:#181818;stroke-width:0.5;" width="4" x="89" y="403"/><text fill="#000000" font-family="sans-serif" font-size="14" lengthAdjust="spacing" textLength="48" x="38" y="426.5332">Domain</text></g><!--entity Services--><g id="elem_Services"><rect fill="#F1F1F1" height="47.6094" rx="2.5" ry="2.5" style="stroke:#181818;stroke-width:0.5;" width="94" x="212" y="284"/><rect fill="#F1F1F1" height="10" style="stroke:#181818;stroke-width:0.5;" width="15" x="286" y="289"/><rect fill="#F1F1F1" height="2" style="stroke:#181818;stroke-width:0.5;" width="4" x="284" y="291"/><rect fill="#F1F1F1" height="2" style="stroke:#181818;stroke-width:0.5;" width="4" x="284" y="295"/><text fill="#000000" font-family="sans-serif" font-size="14" lengthAdjust="spacing" textLength="54" x="227" y="318.5332">Services</text></g><!--entity Repositories--><g id="elem_Repositories"><rect fill="#F1F1F1" height="47.6094" rx="2.5" ry="2.5" style="stroke:#181818;stroke-width:0.5;" width="119" x="199.5" y="176"/><rect fill="#F1F1F1" height="10" style="stroke:#181818;stroke-width:0.5;" width="15" x="298.5" y="181"/><rect fill="#F1F1F1" height="2" style="stroke:#181818;stroke-width:0.5;" width="4" x="296.5" y="183"/><rect fill="#F1F1F1" height="2" style="stroke:#181818;stroke-width:0.5;" width="4" x="296.5" y="187"/><text fill="#000000" font-family="sans-serif" font-size="14" lengthAdjust="spacing" textLength="79" x="214.5" y="210.5332">Repositories</text></g><!--entity Authorizer--><g id="elem_Authorizer"><rect fill="#F1F1F1" height="47.6094" rx="2.5" ry="2.5" style="stroke:#181818;stroke-width:0.5;" width="104" x="146" y="392"/><rect fill="#F1F1F1" height="10" style="stroke:#181818;stroke-width:0.5;" width="15" x="230" y="397"/><rect fill="#F1F1F1" height="2" style="stroke:#181818;stroke-width:0.5;" width="4" x="228" y="399"/><rect fill="#F1F1F1" height="2" style="stroke:#181818;stroke-width:0.5;" width="4" x="228" y="403"/><text fill="#000000" font-family="sans-serif" font-size="14" lengthAdjust="spacing" textLength="64" x="161" y="426.5332">Authorizer</text></g><!--entity Dto--><g id="elem_Dto"><rect fill="#F1F1F1" height="47.6094" rx="2.5" ry="2.5" style="stroke:#181818;stroke-width:0.5;" width="62" x="405" y="500"/><rect fill="#F1F1F1" height="10" style="stroke:#181818;stroke-width:0.5;" width="15" x="447" y="505"/><rect fill="#F1F1F1" height="2" style="stroke:#181818;stroke-width:0.5;" width="4" x="445" y="507"/><rect fill="#F1F1F1" height="2" style="stroke:#181818;stroke-width:0.5;" width="4" x="445" y="511"/><text fill="#000000" font-family="sans-serif" font-size="14" lengthAdjust="spacing" textLength="22" x="420" y="534.5332">Dto</text></g><!--entity Logs--><g id="elem_Logs"><rect fill="#F1F1F1" height="47.6094" rx="2.5" ry="2.5" style="stroke:#181818;stroke-width:0.5;" width="71" x="285.5" y="392"/><rect fill="#F1F1F1" height="10" style="stroke:#181818;stroke-width:0.5;" width="15" x="336.5" y="397"/><rect fill="#F1F1F1" height="2" style="stroke:#181818;stroke-width:0.5;" width="4" x="334.5" y="399"/><rect fill="#F1F1F1" height="2" style="stroke:#181818;stroke-width:0.5;" width="4" x="334.5" y="403"/><text fill="#000000" font-family="sans-serif" font-size="14" lengthAdjust="spacing" textLength="31" x="300.5" y="426.5332">Logs</text></g><!--entity Mapper--><g id="elem_Mapper"><rect fill="#F1F1F1" height="47.6094" rx="2.5" ry="2.5" style="stroke:#181818;stroke-width:0.5;" width="88" x="392" y="392"/><rect fill="#F1F1F1" height="10" style="stroke:#181818;stroke-width:0.5;" width="15" x="460" y="397"/><rect fill="#F1F1F1" height="2" style="stroke:#181818;stroke-width:0.5;" width="4" x="458" y="399"/><rect fill="#F1F1F1" height="2" style="stroke:#181818;stroke-width:0.5;" width="4" x="458" y="403"/><text fill="#000000" font-family="sans-serif" font-size="14" lengthAdjust="spacing" textLength="48" x="407" y="426.5332">Mapper</text></g><text fill="#000000" font-family="sans-serif" font-size="14" lengthAdjust="spacing" textLength="17" x="121.5" y="88.9238">P1</text><rect fill="#F1F1F1" height="12" style="stroke:#181818;stroke-width:1.5;" width="12" x="124" y="104"/><text fill="#000000" font-family="sans-serif" font-size="14" lengthAdjust="spacing" textLength="17" x="250.5" y="88.9238">P2</text><rect fill="#F1F1F1" height="12" style="stroke:#181818;stroke-width:1.5;" width="12" x="253" y="104"/><text fill="#000000" font-family="sans-serif" font-size="14" lengthAdjust="spacing" textLength="17" x="377.5" y="88.9238">P3</text><rect fill="#F1F1F1" height="12" style="stroke:#181818;stroke-width:1.5;" width="12" x="380" y="104"/><!--entity API_Optimization--><g id="elem_API_Optimization"><ellipse cx="386" cy="14" fill="#F1F1F1" rx="8" ry="8" style="stroke:#181818;stroke-width:0.5;"/><text fill="#000000" font-family="sans-serif" font-size="14" lengthAdjust="spacing" textLength="106" x="333" y="45.5332">API_Optimization</text></g><!--entity API_Exterior--><g id="elem_API_Exterior"><ellipse cx="130" cy="14" fill="#F1F1F1" rx="8" ry="8" style="stroke:#181818;stroke-width:0.5;"/><text fill="#000000" font-family="sans-serif" font-size="14" lengthAdjust="spacing" textLength="77" x="91.5" y="45.5332">API_Exterior</text></g><!--entity DB--><g id="elem_DB"><ellipse cx="259" cy="14" fill="#F1F1F1" rx="8" ry="8" style="stroke:#181818;stroke-width:0.5;"/><text fill="#000000" font-family="sans-serif" font-size="14" lengthAdjust="spacing" textLength="19" x="249.5" y="45.5332">DB</text></g><!--link Controllers to Services--><g id="link_Controllers_Services"><path d="M142.33,224 C167.24,241.72 201.52,266.11 226.48,283.86 " fill="none" id="Controllers-Services" style="stroke:#181818;stroke-width:1.0;"/><path d="M182.7233,244.058 A10,10 0 0 0 174.5255 255.5817" fill="none" style="stroke:#181818;stroke-width:1.5;"/><ellipse cx="184.3863" cy="253.9188" fill="#FFFFFF" rx="6" ry="6" style="stroke:#181818;stroke-width:1.5;"/></g><!--link Services to Domain--><g id="link_Services_Domain"><path d="M217.34,332 C185.24,349.72 141.07,374.11 108.91,391.86 " fill="none" id="Services-Domain" style="stroke:#181818;stroke-width:1.0;"/><path d="M172.7554,364.6914 A10,10 0 0 0 165.9202 352.3108" fill="none" style="stroke:#181818;stroke-width:1.5;"/><ellipse cx="163.1475" cy="361.9188" fill="#FFFFFF" rx="6" ry="6" style="stroke:#181818;stroke-width:1.5;"/></g><!--link Services to Authorizer--><g id="link_Services_Authorizer"><path d="M245.76,332 C235.6,349.66 221.63,373.94 211.42,391.68 " fill="none" id="Services-Authorizer" style="stroke:#181818;stroke-width:1.0;"/><path d="M238.2642,359.2076 A10,10 0 0 0 226.0064 352.1546" fill="none" style="stroke:#181818;stroke-width:1.5;"/><ellipse cx="228.6088" cy="361.81" fill="#FFFFFF" rx="6" ry="6" style="stroke:#181818;stroke-width:1.5;"/></g><!--link Services to Logs--><g id="link_Services_Logs"><path d="M272.45,332 C282.78,349.66 296.98,373.94 307.36,391.68 " fill="none" id="Services-Logs" style="stroke:#181818;stroke-width:1.0;"/><path d="M292.4197,352.1362 A10,10 0 0 0 280.2125 359.2765" fill="none" style="stroke:#181818;stroke-width:1.5;"/><ellipse cx="289.8863" cy="361.81" fill="#FFFFFF" rx="6" ry="6" style="stroke:#181818;stroke-width:1.5;"/></g><!--link Services to Mapper--><g id="link_Services_Mapper"><path d="M297.41,332 C326.99,349.72 367.72,374.11 397.36,391.86 " fill="none" id="Services-Mapper" style="stroke:#181818;stroke-width:1.0;"/><path d="M344.9291,352.2193 A10,10 0 0 0 337.6631 364.3521" fill="none" style="stroke:#181818;stroke-width:1.5;"/><ellipse cx="347.3625" cy="361.9188" fill="#FFFFFF" rx="6" ry="6" style="stroke:#181818;stroke-width:1.5;"/></g><!--link Mapper to Dto--><g id="link_Mapper_Dto"><path d="M436,440 C436,457.66 436,481.94 436,499.68 " fill="none" id="Mapper-Dto" style="stroke:#181818;stroke-width:1.0;"/><path d="M443.0711,462.7389 A10,10 0 0 0 428.9289 462.7389" fill="none" style="stroke:#181818;stroke-width:1.5;"/><ellipse cx="436" cy="469.81" fill="#FFFFFF" rx="6" ry="6" style="stroke:#181818;stroke-width:1.5;"/></g><!--link Repositories to Services--><g id="link_Repositories_Services"><path d="M259,224 C259,241.66 259,265.94 259,283.68 " fill="none" id="Repositories-Services" style="stroke:#181818;stroke-width:1.0;"/><path d="M251.9289,260.8811 A10,10 0 0 0 266.0711 260.8811" fill="none" style="stroke:#181818;stroke-width:1.5;"/><ellipse cx="259" cy="253.81" fill="#FFFFFF" rx="6" ry="6" style="stroke:#181818;stroke-width:1.5;"/></g><!--link P2 to Repositories--><g id="link_P2_Repositories"><path d="M259,116.24 C259,127.71 259,155.63 259,175.88 " fill="none" id="P2-Repositories" style="stroke:#181818;stroke-width:1.0;"/></g><!--link API_Exterior to P1--><g id="link_API_Exterior_P1"><path d="M130,23.01 C130,41.84 130,88.45 130,103.92 " fill="none" id="API_Exterior-P1" style="stroke:#181818;stroke-width:1.0;"/></g><!--link P1 to Controllers--><g id="link_P1_Controllers"><path d="M128.81,116.24 C126.2,127.71 119.86,155.63 115.26,175.88 " fill="none" id="P1-Controllers" style="stroke:#181818;stroke-width:1.0;"/></g><!--link DB to P2--><g id="link_DB_P2"><path d="M259,23.01 C259,41.84 259,88.45 259,103.92 " fill="none" id="DB-P2" style="stroke:#181818;stroke-width:1.0;"/></g><!--link API_Optimization to P3--><g id="link_API_Optimization_P3"><path d="M386,23.01 C386,41.84 386,88.45 386,103.92 " fill="none" id="API_Optimization-P3" style="stroke:#181818;stroke-width:1.0;"/></g><!--link P3 to Services--><g id="link_P3_Services"><path d="M392.14,115.47 C403.42,124.11 427.1,144.35 436,168 C444.77,191.29 449.35,202.99 436,224 C407.69,268.54 348.47,289.6 306.33,299.26 " fill="none" id="P3-Services" style="stroke:#181818;stroke-width:1.0;"/></g><!--SRC=[NP51RW8n34NtEKN4gYmYmSm9W661rAfHUm0q6XcmnCIHnwqggjwz2GJXa8tjz-Fu9y4Wm8T-0Blok_rx51pnqWjIC5X9svzK8R72tTgOWSP80OBOsIVmD_3C_YgueI1CvpFmf6X7Ouz1WToA0-Wz7n1fGY762g- -v9JO1LYV9wIgLpfELjLlVOnfkr5Uh7jPkCVKUtB3nLqDrTnQoDEUK1bu2-NCv53VoBh5N1b8AnABzSiIcn9RO_wIw1lhNFqa-a-oc5hzCYVwoRlrLMhCy-TUSMjycvExZNy0]--></g></svg>