<?xml version="1.0" encoding="us-ascii" standalone="no"?><svg xmlns="http://www.w3.org/2000/svg" xmlns:xlink="http://www.w3.org/1999/xlink" contentStyleType="text/css" height="236px" preserveAspectRatio="none" style="width:215px;height:236px;background:#FFFFFF;" version="1.1" viewBox="0 0 215 236" width="215px" zoomAndPan="magnify"><defs/><g><!--cluster SATCOMM--><g id="cluster_SATCOMM"><rect fill="none" height="120" rx="2.5" ry="2.5" style="stroke:#181818;stroke-width:1.0;" width="134" x="26.5" y="110"/><rect fill="none" height="10" style="stroke:#181818;stroke-width:1.0;" width="15" x="140.5" y="115"/><rect fill="none" height="2" style="stroke:#181818;stroke-width:1.0;" width="4" x="138.5" y="117"/><rect fill="none" height="2" style="stroke:#181818;stroke-width:1.0;" width="4" x="138.5" y="121"/><text fill="#000000" font-family="sans-serif" font-size="14" font-style="italic" lengthAdjust="spacing" textLength="86" x="50.5" y="137.5332">&#171;Context C4&#187;</text><text fill="#000000" font-family="sans-serif" font-size="14" font-weight="bold" lengthAdjust="spacing" textLength="73" x="57" y="155.1426">SATCOMM</text></g><text fill="#000000" font-family="sans-serif" font-size="14" lengthAdjust="spacing" textLength="4" x="91.5" y="88.9238">&#160;</text><rect fill="#F1F1F1" height="12" style="stroke:#181818;stroke-width:1.5;" width="12" x="87.5" y="104"/><!--entity UI_User--><g id="elem_UI_User"><ellipse cx="30.5" cy="14" fill="#F1F1F1" rx="8" ry="8" style="stroke:#181818;stroke-width:0.5;"/><text fill="#000000" font-family="sans-serif" font-size="14" lengthAdjust="spacing" textLength="49" x="6" y="45.5332">UI_User</text></g><!--entity UI_Administrator--><g id="elem_UI_Administrator"><ellipse cx="156.5" cy="14" fill="#F1F1F1" rx="8" ry="8" style="stroke:#181818;stroke-width:0.5;"/><text fill="#000000" font-family="sans-serif" font-size="14" lengthAdjust="spacing" textLength="103" x="105" y="45.5332">UI_Administrator</text></g><!--link UI_User to p1--><g id="link_UI_User_p1"><path d="M35.87,23.01 C48.49,41.84 76.3892,83.4661 86.7592,98.9361 " fill="none" id="UI_User-to-p1" style="stroke:#181818;stroke-width:1.0;"/><polygon fill="#181818" points="90.1,103.92,88.4113,94.217,87.316,99.7668,81.7662,98.6714,90.1,103.92" style="stroke:#181818;stroke-width:1.0;"/></g><!--link UI_Administrator to p1--><g id="link_UI_Administrator_p1"><path d="M151.13,23.01 C138.51,41.84 110.6108,83.4661 100.2408,98.9361 " fill="none" id="UI_Administrator-to-p1" style="stroke:#181818;stroke-width:1.0;"/><polygon fill="#181818" points="96.9,103.92,105.2338,98.6714,99.684,99.7668,98.5887,94.217,96.9,103.92" style="stroke:#181818;stroke-width:1.0;"/></g><!--SRC=[Kr1GK4ZEpot8pqlDAr48TWnnzlVrLR2nSSxFAqcjA55mDh6pg-PIW8A2_A8IXG93XSHY1IK59R1mBPZC1AekIajCJbK8zOmFBKujmXHrJCdDpCiiBYbABCc7I4ELAkZgsW4DXGcXg8FA0G00]--></g></svg>