<?xml version="1.0" encoding="UTF-8" standalone="no"?><svg xmlns="http://www.w3.org/2000/svg" xmlns:xlink="http://www.w3.org/1999/xlink" contentStyleType="text/css" height="506px" preserveAspectRatio="none" style="width:1092px;height:506px;background:#FFFFFF;" version="1.1" viewBox="0 0 1092 506" width="1092px" zoomAndPan="magnify"><defs/><g><rect fill="#FFFFFF" height="321.3516" style="stroke:#181818;stroke-width:1.0;" width="10" x="32.5" y="92.6094"/><rect fill="#FFFFFF" height="30.3516" style="stroke:#181818;stroke-width:1.0;" width="10" x="277.5" y="114.9609"/><rect fill="#FFFFFF" height="238.2969" style="stroke:#181818;stroke-width:1.0;" width="10" x="277.5" y="175.6641"/><rect fill="#FFFFFF" height="91.0547" style="stroke:#181818;stroke-width:1.0;" width="10" x="810.5" y="206.0156"/><rect fill="#FFFFFF" height="30.3516" style="stroke:#181818;stroke-width:1.0;" width="10" x="1014.5" y="236.3672"/><rect fill="none" height="94.8906" style="stroke:#000000;stroke-width:1.5;" width="303" x="10" y="312.0703"/><line style="stroke:#181818;stroke-width:0.5;stroke-dasharray:5.0,5.0;" x1="37" x2="37" y1="82.6094" y2="423.9609"/><line style="stroke:#181818;stroke-width:0.5;stroke-dasharray:5.0,5.0;" x1="282" x2="282" y1="82.6094" y2="423.9609"/><line style="stroke:#181818;stroke-width:0.5;stroke-dasharray:5.0,5.0;" x1="815.5" x2="815.5" y1="82.6094" y2="423.9609"/><line style="stroke:#181818;stroke-width:0.5;stroke-dasharray:5.0,5.0;" x1="1019" x2="1019" y1="82.6094" y2="423.9609"/><text fill="#000000" font-family="sans-serif" font-size="14" lengthAdjust="spacing" textLength="29" x="20" y="79.5332">User</text><ellipse cx="37.5" cy="13.5" fill="#E2E2F0" rx="8" ry="8" style="stroke:#181818;stroke-width:0.5;"/><path d="M37.5,21.5 L37.5,48.5 M24.5,29.5 L50.5,29.5 M37.5,48.5 L24.5,63.5 M37.5,48.5 L50.5,63.5 " fill="none" style="stroke:#181818;stroke-width:0.5;"/><text fill="#000000" font-family="sans-serif" font-size="14" lengthAdjust="spacing" textLength="29" x="20" y="437.4941">User</text><ellipse cx="37.5" cy="449.0703" fill="#E2E2F0" rx="8" ry="8" style="stroke:#181818;stroke-width:0.5;"/><path d="M37.5,457.0703 L37.5,484.0703 M24.5,465.0703 L50.5,465.0703 M37.5,484.0703 L24.5,499.0703 M37.5,484.0703 L50.5,499.0703 " fill="none" style="stroke:#181818;stroke-width:0.5;"/><rect fill="#E2E2F0" height="31.6094" rx="2.5" ry="2.5" style="stroke:#181818;stroke-width:0.5;" width="41" x="262" y="50"/><text fill="#000000" font-family="sans-serif" font-size="14" lengthAdjust="spacing" textLength="27" x="269" y="71.5332">SPA</text><rect fill="#E2E2F0" height="31.6094" rx="2.5" ry="2.5" style="stroke:#181818;stroke-width:0.5;" width="41" x="262" y="422.9609"/><text fill="#000000" font-family="sans-serif" font-size="14" lengthAdjust="spacing" textLength="27" x="269" y="444.4941">SPA</text><rect fill="#E2E2F0" height="31.6094" rx="2.5" ry="2.5" style="stroke:#181818;stroke-width:0.5;" width="58" x="786.5" y="50"/><text fill="#000000" font-family="sans-serif" font-size="14" lengthAdjust="spacing" textLength="44" x="793.5" y="71.5332">Patient</text><rect fill="#E2E2F0" height="31.6094" rx="2.5" ry="2.5" style="stroke:#181818;stroke-width:0.5;" width="58" x="786.5" y="422.9609"/><text fill="#000000" font-family="sans-serif" font-size="14" lengthAdjust="spacing" textLength="44" x="793.5" y="444.4941">Patient</text><rect fill="#E2E2F0" height="31.6094" rx="2.5" ry="2.5" style="stroke:#181818;stroke-width:0.5;" width="133" x="953" y="50"/><text fill="#000000" font-family="sans-serif" font-size="14" lengthAdjust="spacing" textLength="119" x="960" y="71.5332">ContactInformation</text><rect fill="#E2E2F0" height="31.6094" rx="2.5" ry="2.5" style="stroke:#181818;stroke-width:0.5;" width="133" x="953" y="422.9609"/><text fill="#000000" font-family="sans-serif" font-size="14" lengthAdjust="spacing" textLength="119" x="960" y="444.4941">ContactInformation</text><rect fill="#FFFFFF" height="321.3516" style="stroke:#181818;stroke-width:1.0;" width="10" x="32.5" y="92.6094"/><rect fill="#FFFFFF" height="30.3516" style="stroke:#181818;stroke-width:1.0;" width="10" x="277.5" y="114.9609"/><rect fill="#FFFFFF" height="238.2969" style="stroke:#181818;stroke-width:1.0;" width="10" x="277.5" y="175.6641"/><rect fill="#FFFFFF" height="91.0547" style="stroke:#181818;stroke-width:1.0;" width="10" x="810.5" y="206.0156"/><rect fill="#FFFFFF" height="30.3516" style="stroke:#181818;stroke-width:1.0;" width="10" x="1014.5" y="236.3672"/><polygon fill="#181818" points="265.5,110.9609,275.5,114.9609,265.5,118.9609,269.5,114.9609" style="stroke:#181818;stroke-width:1.0;"/><line style="stroke:#181818;stroke-width:1.0;" x1="42.5" x2="271.5" y1="114.9609" y2="114.9609"/><text fill="#000000" font-family="sans-serif" font-size="13" font-weight="bold" lengthAdjust="spacing" textLength="7" x="49.5" y="110.1045">1</text><text fill="#000000" font-family="sans-serif" font-size="13" lengthAdjust="spacing" textLength="144" x="60.5" y="110.1045">Edit a patient information</text><polygon fill="#181818" points="53.5,141.3125,43.5,145.3125,53.5,149.3125,49.5,145.3125" style="stroke:#181818;stroke-width:1.0;"/><line style="stroke:#181818;stroke-width:1.0;stroke-dasharray:2.0,2.0;" x1="47.5" x2="281.5" y1="145.3125" y2="145.3125"/><text fill="#000000" font-family="sans-serif" font-size="13" font-weight="bold" lengthAdjust="spacing" textLength="7" x="59.5" y="140.4561">2</text><text fill="#000000" font-family="sans-serif" font-size="13" lengthAdjust="spacing" textLength="185" x="70.5" y="140.4561">Shows patients id and name list</text><polygon fill="#181818" points="265.5,171.6641,275.5,175.6641,265.5,179.6641,269.5,175.6641" style="stroke:#181818;stroke-width:1.0;"/><line style="stroke:#181818;stroke-width:1.0;" x1="42.5" x2="271.5" y1="175.6641" y2="175.6641"/><text fill="#000000" font-family="sans-serif" font-size="13" font-weight="bold" lengthAdjust="spacing" textLength="7" x="49.5" y="170.8076">3</text><text fill="#000000" font-family="sans-serif" font-size="13" lengthAdjust="spacing" textLength="89" x="60.5" y="170.8076">types patient id</text><polygon fill="#181818" points="798.5,202.0156,808.5,206.0156,798.5,210.0156,802.5,206.0156" style="stroke:#181818;stroke-width:1.0;"/><line style="stroke:#181818;stroke-width:1.0;" x1="287.5" x2="804.5" y1="206.0156" y2="206.0156"/><text fill="#000000" font-family="sans-serif" font-size="13" font-weight="bold" lengthAdjust="spacing" textLength="7" x="294.5" y="201.1592">4</text><text fill="#000000" font-family="sans-serif" font-size="13" lengthAdjust="spacing" textLength="493" x="305.5" y="201.1592">PUT/PATCH/patient/{firstName, lastName, phoneNumber, email, emergencyContact,}</text><polygon fill="#181818" points="1002.5,232.3672,1012.5,236.3672,1002.5,240.3672,1006.5,236.3672" style="stroke:#181818;stroke-width:1.0;"/><line style="stroke:#181818;stroke-width:1.0;" x1="820.5" x2="1008.5" y1="236.3672" y2="236.3672"/><text fill="#000000" font-family="sans-serif" font-size="13" font-weight="bold" lengthAdjust="spacing" textLength="7" x="827.5" y="231.5107">5</text><text fill="#000000" font-family="sans-serif" font-size="13" lengthAdjust="spacing" textLength="164" x="838.5" y="231.5107">Update phoneNumber, email</text><polygon fill="#181818" points="831.5,262.7188,821.5,266.7188,831.5,270.7188,827.5,266.7188" style="stroke:#181818;stroke-width:1.0;"/><line style="stroke:#181818;stroke-width:1.0;stroke-dasharray:2.0,2.0;" x1="825.5" x2="1018.5" y1="266.7188" y2="266.7188"/><text fill="#000000" font-family="sans-serif" font-size="13" font-weight="bold" lengthAdjust="spacing" textLength="7" x="837.5" y="261.8623">6</text><text fill="#000000" font-family="sans-serif" font-size="13" lengthAdjust="spacing" textLength="95" x="848.5" y="261.8623">Status of update</text><polygon fill="#181818" points="298.5,293.0703,288.5,297.0703,298.5,301.0703,294.5,297.0703" style="stroke:#181818;stroke-width:1.0;"/><line style="stroke:#181818;stroke-width:1.0;stroke-dasharray:2.0,2.0;" x1="292.5" x2="814.5" y1="297.0703" y2="297.0703"/><text fill="#000000" font-family="sans-serif" font-size="13" font-weight="bold" lengthAdjust="spacing" textLength="7" x="304.5" y="292.2139">7</text><text fill="#000000" font-family="sans-serif" font-size="13" lengthAdjust="spacing" textLength="153" x="315.5" y="292.2139">Status code (200/400/500)</text><path d="M10,312.0703 L71,312.0703 L71,320.4219 L61,330.4219 L10,330.4219 L10,312.0703 " fill="#EEEEEE" style="stroke:#000000;stroke-width:1.5;"/><rect fill="none" height="94.8906" style="stroke:#000000;stroke-width:1.5;" width="303" x="10" y="312.0703"/><text fill="#000000" font-family="sans-serif" font-size="13" font-weight="bold" lengthAdjust="spacing" textLength="16" x="25" y="326.5654">alt</text><text fill="#000000" font-family="sans-serif" font-size="11" font-weight="bold" lengthAdjust="spacing" textLength="98" x="86" y="325.4893">[successful case]</text><polygon fill="#181818" points="53.5,348.7734,43.5,352.7734,53.5,356.7734,49.5,352.7734" style="stroke:#181818;stroke-width:1.0;"/><line style="stroke:#181818;stroke-width:1.0;stroke-dasharray:2.0,2.0;" x1="47.5" x2="276.5" y1="352.7734" y2="352.7734"/><text fill="#000000" font-family="sans-serif" font-size="13" font-weight="bold" lengthAdjust="spacing" textLength="7" x="59.5" y="347.917">8</text><text fill="#000000" font-family="sans-serif" font-size="13" lengthAdjust="spacing" textLength="200" x="70.5" y="347.917">Patient updated successfully (200)</text><line style="stroke:#000000;stroke-width:1.0;stroke-dasharray:2.0,2.0;" x1="10" x2="313" y1="361.7734" y2="361.7734"/><text fill="#000000" font-family="sans-serif" font-size="11" font-weight="bold" lengthAdjust="spacing" textLength="43" x="15" y="373.1924">[failure]</text><polygon fill="#181818" points="53.5,394.9609,43.5,398.9609,53.5,402.9609,49.5,398.9609" style="stroke:#181818;stroke-width:1.0;"/><line style="stroke:#181818;stroke-width:1.0;stroke-dasharray:2.0,2.0;" x1="47.5" x2="276.5" y1="398.9609" y2="398.9609"/><text fill="#000000" font-family="sans-serif" font-size="13" font-weight="bold" lengthAdjust="spacing" textLength="7" x="59.5" y="394.1045">9</text><text fill="#000000" font-family="sans-serif" font-size="13" lengthAdjust="spacing" textLength="171" x="70.5" y="394.1045">Patient not updated (400/500)</text><!--SRC=[VPBBQiCm44NtynMpJC31fhIRB08X5DfDC2J-05KQDm9PCjQe9PJ-UsN7hpoemRO6pxrdT2qHsDbGVL03i9Ni6YnyN0l9-aimNQhsWQiD7l8jhl5LQKQ1jM1Dbb7RqZLLB9oTPB4Je6rVHLadN-FXvBxz8FEe5Gghq8gAq6ZF28gkzTTOFjVa9wfw1DjWtdzVOruSqtnxtBsblIRzANNZUH-12HenhEgJixJl8aYGAg5D-wBcawmyxvpbo4b-9rfF08215R5zt_kKHPoWg5Khk0TCPlSwW0TUgwkT7LXmyEXA31rX7jmZmt7ECSlUGJf5k7ZAilGvtYzPjfnRZHiLXj47ASdxCXYKmXDWl6x-xu2v3ALc4dFkA4iWumdBc41e_hMmRh9PZBEHLN1xI6Pbw_47]--></g></svg>