<?xml version="1.0" encoding="us-ascii" standalone="no"?><svg xmlns="http://www.w3.org/2000/svg" xmlns:xlink="http://www.w3.org/1999/xlink" contentStyleType="text/css" height="689px" preserveAspectRatio="none" style="width:1583px;height:689px;background:#FFFFFF;" version="1.1" viewBox="0 0 1583 689" width="1583px" zoomAndPan="magnify"><defs/><g><text fill="#000000" font-family="sans-serif" font-size="14" font-weight="bold" lengthAdjust="spacing" textLength="300" x="634.75" y="24.5332">C4 Component Diagram: Backend (Node.js)</text><!--cluster backend--><g id="cluster_backend"><rect fill="none" height="638" rx="2.5" ry="2.5" style="stroke:#181818;stroke-width:1.0;" width="994" x="7" y="45.6094"/><text fill="#000000" font-family="sans-serif" font-size="14" font-weight="bold" lengthAdjust="spacing" textLength="154" x="427" y="62.1426">Backend API (Node.js)</text></g><!--cluster Presentation Layer--><g id="cluster_Presentation Layer"><rect fill="none" height="214" rx="2.5" ry="2.5" style="stroke:#181818;stroke-width:1.0;" width="148" x="288" y="97.6094"/><text fill="#000000" font-family="sans-serif" font-size="14" font-weight="bold" lengthAdjust="spacing" textLength="132" x="296" y="114.1426">Presentation Layer</text></g><!--cluster Application Layer--><g id="cluster_Application Layer"><rect fill="none" height="316" rx="2.5" ry="2.5" style="stroke:#181818;stroke-width:1.0;" width="403" x="39" y="335.6094"/><text fill="#000000" font-family="sans-serif" font-size="14" font-weight="bold" lengthAdjust="spacing" textLength="120" x="180.5" y="352.1426">Application Layer</text></g><!--cluster Domain Layer--><g id="cluster_Domain Layer"><rect fill="none" height="100" rx="2.5" ry="2.5" style="stroke:#181818;stroke-width:1.0;" width="170" x="466" y="551.6094"/><text fill="#000000" font-family="sans-serif" font-size="14" font-weight="bold" lengthAdjust="spacing" textLength="94" x="504" y="568.1426">Domain Layer</text></g><!--cluster Infrastructure Layer--><g id="cluster_Infrastructure Layer"><rect fill="none" height="208" rx="2.5" ry="2.5" style="stroke:#181818;stroke-width:1.0;" width="301" x="660" y="443.6094"/><text fill="#000000" font-family="sans-serif" font-size="14" font-weight="bold" lengthAdjust="spacing" textLength="139" x="741" y="460.1426">Infrastructure Layer</text></g><!--entity Routing--><g id="elem_Routing"><rect fill="#F1F1F1" height="47.6094" rx="2.5" ry="2.5" style="stroke:#181818;stroke-width:0.5;" width="89" x="317.5" y="133.6094"/><rect fill="#F1F1F1" height="10" style="stroke:#181818;stroke-width:0.5;" width="15" x="386.5" y="138.6094"/><rect fill="#F1F1F1" height="2" style="stroke:#181818;stroke-width:0.5;" width="4" x="384.5" y="140.6094"/><rect fill="#F1F1F1" height="2" style="stroke:#181818;stroke-width:0.5;" width="4" x="384.5" y="144.6094"/><text fill="#000000" font-family="sans-serif" font-size="14" lengthAdjust="spacing" textLength="49" x="332.5" y="168.1426">Routing</text></g><!--entity Controllers--><g id="elem_Controllers"><rect fill="#F1F1F1" height="47.6094" rx="2.5" ry="2.5" style="stroke:#181818;stroke-width:0.5;" width="109" x="307.5" y="247.6094"/><rect fill="#F1F1F1" height="10" style="stroke:#181818;stroke-width:0.5;" width="15" x="396.5" y="252.6094"/><rect fill="#F1F1F1" height="2" style="stroke:#181818;stroke-width:0.5;" width="4" x="394.5" y="254.6094"/><rect fill="#F1F1F1" height="2" style="stroke:#181818;stroke-width:0.5;" width="4" x="394.5" y="258.6094"/><text fill="#000000" font-family="sans-serif" font-size="14" lengthAdjust="spacing" textLength="69" x="322.5" y="282.1426">Controllers</text></g><!--entity Services--><g id="elem_Services"><rect fill="#F1F1F1" height="47.6094" rx="2.5" ry="2.5" style="stroke:#181818;stroke-width:0.5;" width="94" x="315" y="371.6094"/><rect fill="#F1F1F1" height="10" style="stroke:#181818;stroke-width:0.5;" width="15" x="389" y="376.6094"/><rect fill="#F1F1F1" height="2" style="stroke:#181818;stroke-width:0.5;" width="4" x="387" y="378.6094"/><rect fill="#F1F1F1" height="2" style="stroke:#181818;stroke-width:0.5;" width="4" x="387" y="382.6094"/><text fill="#000000" font-family="sans-serif" font-size="14" lengthAdjust="spacing" textLength="54" x="330" y="406.1426">Services</text></g><!--entity Authorizer--><g id="elem_Authorizer"><rect fill="#F1F1F1" height="47.6094" rx="2.5" ry="2.5" style="stroke:#181818;stroke-width:0.5;" width="104" x="55" y="479.6094"/><rect fill="#F1F1F1" height="10" style="stroke:#181818;stroke-width:0.5;" width="15" x="139" y="484.6094"/><rect fill="#F1F1F1" height="2" style="stroke:#181818;stroke-width:0.5;" width="4" x="137" y="486.6094"/><rect fill="#F1F1F1" height="2" style="stroke:#181818;stroke-width:0.5;" width="4" x="137" y="490.6094"/><text fill="#000000" font-family="sans-serif" font-size="14" lengthAdjust="spacing" textLength="64" x="70" y="514.1426">Authorizer</text></g><!--entity Logs--><g id="elem_Logs"><rect fill="#F1F1F1" height="47.6094" rx="2.5" ry="2.5" style="stroke:#181818;stroke-width:0.5;" width="71" x="194.5" y="479.6094"/><rect fill="#F1F1F1" height="10" style="stroke:#181818;stroke-width:0.5;" width="15" x="245.5" y="484.6094"/><rect fill="#F1F1F1" height="2" style="stroke:#181818;stroke-width:0.5;" width="4" x="243.5" y="486.6094"/><rect fill="#F1F1F1" height="2" style="stroke:#181818;stroke-width:0.5;" width="4" x="243.5" y="490.6094"/><text fill="#000000" font-family="sans-serif" font-size="14" lengthAdjust="spacing" textLength="31" x="209.5" y="514.1426">Logs</text></g><!--entity Mapper--><g id="elem_Mapper"><rect fill="#F1F1F1" height="47.6094" rx="2.5" ry="2.5" style="stroke:#181818;stroke-width:0.5;" width="88" x="301" y="479.6094"/><rect fill="#F1F1F1" height="10" style="stroke:#181818;stroke-width:0.5;" width="15" x="369" y="484.6094"/><rect fill="#F1F1F1" height="2" style="stroke:#181818;stroke-width:0.5;" width="4" x="367" y="486.6094"/><rect fill="#F1F1F1" height="2" style="stroke:#181818;stroke-width:0.5;" width="4" x="367" y="490.6094"/><text fill="#000000" font-family="sans-serif" font-size="14" lengthAdjust="spacing" textLength="48" x="316" y="514.1426">Mapper</text></g><!--entity DTOs--><g id="elem_DTOs"><rect fill="#F1F1F1" height="47.6094" rx="2.5" ry="2.5" style="stroke:#181818;stroke-width:0.5;" width="77" x="327.5" y="587.6094"/><rect fill="#F1F1F1" height="10" style="stroke:#181818;stroke-width:0.5;" width="15" x="384.5" y="592.6094"/><rect fill="#F1F1F1" height="2" style="stroke:#181818;stroke-width:0.5;" width="4" x="382.5" y="594.6094"/><rect fill="#F1F1F1" height="2" style="stroke:#181818;stroke-width:0.5;" width="4" x="382.5" y="598.6094"/><text fill="#000000" font-family="sans-serif" font-size="14" lengthAdjust="spacing" textLength="37" x="342.5" y="622.1426">DTOs</text></g><!--entity Domain Models--><g id="elem_Domain Models"><rect fill="#F1F1F1" height="47.6094" rx="2.5" ry="2.5" style="stroke:#181818;stroke-width:0.5;" width="137" x="482.5" y="587.6094"/><rect fill="#F1F1F1" height="10" style="stroke:#181818;stroke-width:0.5;" width="15" x="599.5" y="592.6094"/><rect fill="#F1F1F1" height="2" style="stroke:#181818;stroke-width:0.5;" width="4" x="597.5" y="594.6094"/><rect fill="#F1F1F1" height="2" style="stroke:#181818;stroke-width:0.5;" width="4" x="597.5" y="598.6094"/><text fill="#000000" font-family="sans-serif" font-size="14" lengthAdjust="spacing" textLength="97" x="497.5" y="622.1426">Domain Models</text></g><!--entity Repositories--><g id="elem_Repositories"><rect fill="#F1F1F1" height="47.6094" rx="2.5" ry="2.5" style="stroke:#181818;stroke-width:0.5;" width="119" x="676.5" y="479.6094"/><rect fill="#F1F1F1" height="10" style="stroke:#181818;stroke-width:0.5;" width="15" x="775.5" y="484.6094"/><rect fill="#F1F1F1" height="2" style="stroke:#181818;stroke-width:0.5;" width="4" x="773.5" y="486.6094"/><rect fill="#F1F1F1" height="2" style="stroke:#181818;stroke-width:0.5;" width="4" x="773.5" y="490.6094"/><text fill="#000000" font-family="sans-serif" font-size="14" lengthAdjust="spacing" textLength="79" x="691.5" y="514.1426">Repositories</text></g><!--entity Data Models--><g id="elem_Data Models"><rect fill="#F1F1F1" height="47.6094" rx="2.5" ry="2.5" style="stroke:#181818;stroke-width:0.5;" width="119" x="676.5" y="587.6094"/><rect fill="#F1F1F1" height="10" style="stroke:#181818;stroke-width:0.5;" width="15" x="775.5" y="592.6094"/><rect fill="#F1F1F1" height="2" style="stroke:#181818;stroke-width:0.5;" width="4" x="773.5" y="594.6094"/><rect fill="#F1F1F1" height="2" style="stroke:#181818;stroke-width:0.5;" width="4" x="773.5" y="598.6094"/><text fill="#000000" font-family="sans-serif" font-size="14" lengthAdjust="spacing" textLength="79" x="691.5" y="622.1426">Data Models</text></g><!--entity Persistence--><g id="elem_Persistence"><rect fill="#F1F1F1" height="47.6094" rx="2.5" ry="2.5" style="stroke:#181818;stroke-width:0.5;" width="114" x="831" y="587.6094"/><rect fill="#F1F1F1" height="10" style="stroke:#181818;stroke-width:0.5;" width="15" x="925" y="592.6094"/><rect fill="#F1F1F1" height="2" style="stroke:#181818;stroke-width:0.5;" width="4" x="923" y="594.6094"/><rect fill="#F1F1F1" height="2" style="stroke:#181818;stroke-width:0.5;" width="4" x="923" y="598.6094"/><text fill="#000000" font-family="sans-serif" font-size="14" lengthAdjust="spacing" textLength="74" x="846" y="622.1426">Persistence</text></g><!--entity Backend API (REST)--><g id="elem_Backend API (REST)"><ellipse cx="1098" cy="271.6094" fill="#F1F1F1" rx="8" ry="8" style="stroke:#181818;stroke-width:0.5;"/><text fill="#000000" font-family="sans-serif" font-size="14" lengthAdjust="spacing" textLength="131" x="1032.5" y="303.1426">Backend API (REST)</text></g><!--entity Frontend Client--><g id="elem_Frontend Client"><ellipse cx="1263" cy="271.6094" fill="#F1F1F1" rx="8" ry="8" style="stroke:#181818;stroke-width:0.5;"/><text fill="#000000" font-family="sans-serif" font-size="14" lengthAdjust="spacing" textLength="98" x="1214" y="303.1426">Frontend Client</text></g><!--entity Optimization API--><g id="elem_Optimization API"><ellipse cx="1414" cy="271.6094" fill="#F1F1F1" rx="8" ry="8" style="stroke:#181818;stroke-width:0.5;"/><text fill="#000000" font-family="sans-serif" font-size="14" lengthAdjust="spacing" textLength="102" x="1363" y="303.1426">Optimization API</text></g><!--entity Database--><g id="elem_Database"><ellipse cx="1546" cy="271.6094" fill="#F1F1F1" rx="8" ry="8" style="stroke:#181818;stroke-width:0.5;"/><text fill="#000000" font-family="sans-serif" font-size="14" lengthAdjust="spacing" textLength="61" x="1515.5" y="303.1426">Database</text></g><!--link Routing to Controllers--><g id="link_Routing_Controllers"><path d="M362,181.7894 C362,201.1294 362,222.1294 362,241.4694 " fill="none" id="Routing-to-Controllers" style="stroke:#181818;stroke-width:1.0;"/><polygon fill="#181818" points="362,247.4694,366,238.4694,362,242.4694,358,238.4694,362,247.4694" style="stroke:#181818;stroke-width:1.0;"/></g><!--link Controllers to Services--><g id="link_Controllers_Services"><path d="M362,295.8094 C362,317.6594 362,343.6394 362,365.4694 " fill="none" id="Controllers-to-Services" style="stroke:#181818;stroke-width:1.0;"/><polygon fill="#181818" points="362,371.4694,366,362.4694,362,366.4694,358,362.4694,362,371.4694" style="stroke:#181818;stroke-width:1.0;"/></g><!--link Services to Authorizer--><g id="link_Services_Authorizer"><path d="M314.93,387.6094 C241.25,387.6094 107,387.6094 107,387.6094 C107,387.6094 107,439.5994 107,473.5694 " fill="none" id="Services-to-Authorizer" style="stroke:#181818;stroke-width:1.0;"/><polygon fill="#181818" points="107,479.5694,111,470.5694,107,474.5694,103,470.5694,107,479.5694" style="stroke:#181818;stroke-width:1.0;"/></g><!--link Services to Logs--><g id="link_Services_Logs"><path d="M314.72,403.6094 C276.84,403.6094 230,403.6094 230,403.6094 C230,403.6094 230,443.8094 230,473.3994 " fill="none" id="Services-to-Logs" style="stroke:#181818;stroke-width:1.0;"/><polygon fill="#181818" points="230,479.3994,234,470.3994,230,474.3994,226,470.3994,230,479.3994" style="stroke:#181818;stroke-width:1.0;"/></g><!--link Services to Mapper--><g id="link_Services_Mapper"><path d="M352,419.8494 C352,437.6294 352,455.6894 352,473.4494 " fill="none" id="Services-to-Mapper" style="stroke:#181818;stroke-width:1.0;"/><polygon fill="#181818" points="352,479.4494,356,470.4494,352,474.4494,348,470.4494,352,479.4494" style="stroke:#181818;stroke-width:1.0;"/></g><!--link Services to DTOs--><g id="link_Services_DTOs"><path d="M394.17,419.9694 C394.17,461.5594 394.17,539.8094 394.17,581.3394 " fill="none" id="Services-to-DTOs" style="stroke:#181818;stroke-width:1.0;"/><polygon fill="#181818" points="394.17,587.3394,398.17,578.3394,394.17,582.3394,390.17,578.3394,394.17,587.3394" style="stroke:#181818;stroke-width:1.0;"/></g><!--link Services to Repositories--><g id="link_Services_Repositories"><path d="M399.33,419.8194 C399.33,449.4094 399.33,495.6094 399.33,495.6094 C399.33,495.6094 573.45,495.6094 670.2,495.6094 " fill="none" id="Services-to-Repositories" style="stroke:#181818;stroke-width:1.0;"/><polygon fill="#181818" points="676.2,495.6094,667.2,491.6094,671.2,495.6094,667.2,499.6094,676.2,495.6094" style="stroke:#181818;stroke-width:1.0;"/></g><!--link Services to Domain Models--><g id="link_Services_Domain Models"><path d="M409.17,395.6094 C458.3,395.6094 528.17,395.6094 528.17,395.6094 C528.17,395.6094 528.17,524.7594 528.17,581.2494 " fill="none" id="Services-to-Domain Models" style="stroke:#181818;stroke-width:1.0;"/><polygon fill="#181818" points="528.17,587.2494,532.17,578.2494,528.17,582.2494,524.17,578.2494,528.17,587.2494" style="stroke:#181818;stroke-width:1.0;"/></g><!--link Repositories to Data Models--><g id="link_Repositories_Data Models"><path d="M736,527.8494 C736,545.6294 736,563.6894 736,581.4494 " fill="none" id="Repositories-to-Data Models" style="stroke:#181818;stroke-width:1.0;"/><polygon fill="#181818" points="736,587.4494,740,578.4494,736,582.4494,732,578.4494,736,587.4494" style="stroke:#181818;stroke-width:1.0;"/></g><!--link Repositories to Persistence--><g id="link_Repositories_Persistence"><path d="M795.64,503.6094 C838.22,503.6094 888,503.6094 888,503.6094 C888,503.6094 888,549.5294 888,581.3694 " fill="none" id="Repositories-to-Persistence" style="stroke:#181818;stroke-width:1.0;"/><polygon fill="#181818" points="888,587.3694,892,578.3694,888,582.3694,884,578.3694,888,587.3694" style="stroke:#181818;stroke-width:1.0;"/></g><!--link Mapper to DTOs--><g id="link_Mapper_DTOs"><path d="M358.25,527.8494 C358.25,545.6294 358.25,563.6894 358.25,581.4494 " fill="none" id="Mapper-to-DTOs" style="stroke:#181818;stroke-width:1.0;"/><polygon fill="#181818" points="358.25,587.4494,362.25,578.4494,358.25,582.4494,354.25,578.4494,358.25,587.4494" style="stroke:#181818;stroke-width:1.0;"/></g><!--link Repositories to Domain Models--><g id="link_Repositories_Domain Models"><path d="M676.08,511.6094 C629.88,511.6094 573.83,511.6094 573.83,511.6094 C573.83,511.6094 573.83,551.8094 573.83,581.3994 " fill="none" id="Repositories-to-Domain Models" style="stroke:#181818;stroke-width:1.0;"/><polygon fill="#181818" points="573.83,587.3994,577.83,578.3994,573.83,582.3994,569.83,578.3994,573.83,587.3994" style="stroke:#181818;stroke-width:1.0;"/></g><!--link backend to Backend API (REST)--><g id="link_backend_Backend API (REST)"><path d="M1001.2688,271.6094 C1001.4597,271.6094 1001.6535,271.6094 1001.8499,271.6094 C1002.6358,271.6094 1003.4657,271.6094 1004.3359,271.6094 C1011.2981,271.6094 1020.8487,271.6094 1031.2025,271.6094 C1051.91,271.6094 1075.83,271.6094 1088.68,271.6094 " fill="none" id="backend-Backend API (REST)" style="stroke:#181818;stroke-width:1.0;"/><text fill="#000000" font-family="sans-serif" font-size="13" lengthAdjust="spacing" textLength="71" x="921" y="259.3045">Data &amp; Auth</text></g><!--link backend to Frontend Client--><g id="link_backend_Frontend Client"><path d="M1001.0871,157.6094 C1001.2783,157.6094 1001.4727,157.6094 1001.6701,157.6094 C1002.0649,157.6094 1002.4721,157.6094 1002.8913,157.6094 C1004.5684,157.6094 1006.4391,157.6094 1008.4881,157.6094 C1016.6839,157.6094 1027.7323,157.6094 1040.6508,157.6094 C1066.4878,157.6094 1099.8056,157.6094 1132.7463,157.6094 C1198.6275,157.6094 1263,157.6094 1263,157.6094 C1263,157.6094 1263,225.0494 1263,252.2794 " fill="none" id="backend-to-Frontend Client" style="stroke:#181818;stroke-width:1.0;"/><path d="M1271.4572,259.2012 A9,9 0 0 0 1254.5428 259.2012" fill="none" style="stroke:#181818;stroke-width:1.5;"/></g><!--link backend to Optimization API--><g id="link_backend_Optimization API"><path d="M1001.0341,145.6094 C1001.2818,145.6094 1001.5348,145.6094 1001.7932,145.6094 C1002.3099,145.6094 1002.8479,145.6094 1003.4068,145.6094 C1005.6423,145.6094 1008.2119,145.6094 1011.0898,145.6094 C1022.6016,145.6094 1039.0469,145.6094 1058.7813,145.6094 C1098.25,145.6094 1150.875,145.6094 1203.5,145.6094 C1308.75,145.6094 1414,145.6094 1414,145.6094 C1414,145.6094 1414,223.6594 1414,252.5494 " fill="none" id="backend-to-Optimization API" style="stroke:#181818;stroke-width:1.0;"/><path d="M1422.4572,259.4712 A9,9 0 0 0 1405.5428 259.4712" fill="none" style="stroke:#181818;stroke-width:1.5;"/><text fill="#000000" font-family="sans-serif" font-size="13" lengthAdjust="spacing" textLength="116" x="1139.23" y="142.1045">Optimization results</text></g><!--link backend to Database--><g id="link_backend_Database"><path d="M1001.2036,170.6094 C1001.7614,170.6094 1002.3255,170.6094 1002.8958,170.6094 C1004.0364,170.6094 1005.2018,170.6094 1006.3914,170.6094 C1011.1498,170.6094 1016.296,170.6094 1021.7947,170.6094 C1032.792,170.6094 1045.1992,170.6094 1058.7344,170.6094 C1112.875,170.6094 1185.0625,170.6094 1257.25,170.6094 C1401.625,170.6094 1546,170.6094 1546,170.6094 C1546,170.6094 1546,227.2894 1546,252.2894 " fill="none" id="backend-to-Database" style="stroke:#181818;stroke-width:1.0;"/><path d="M1554.4572,259.2112 A9,9 0 0 0 1537.5428 259.2112" fill="none" style="stroke:#181818;stroke-width:1.5;"/></g><!--SRC=[VLDDJ-Cm4BtxLunoODb3EN7YWDHjMQaI7nNb3mpfDFNYs9OzsTs2-EzCQ9h6Ri3o8PxtPkRvEHDVjFKOi8RQMLTkWwi9E3IaOeyiiNp1YbQyCmI1IaPRcI5XjSMr-wTj1HiqSOWORObtdi05tZgbMBFKc5t2pDNUMR8CSusLKA_WbxGXkuRpUxUcYp_nfsgNtpU7uW1FbuiZfG2CyDmXRmfagS_Tfoq3HMc3h9s5MznHA3fYsKie7bt38h_8upDdEJXZACGMUrV3obFlZIw_BxoYy5UN54ygJnln8-XNoSgXMrUTyk_G-n7k_EbXHDdSrQY_5jN1T-AX6SbUs4t0AFz0oKsWhpqZxw9ckSJ8zUR8E6YGO4jnKqScMrBVl7y1c4okJtnFpdl6qDZZOO-btkRemTuyVdGuHmucv_7SWPEytESqeoEbJerH4iDQJYSrKpTMF5KWLl-0c_zCmQA1XPMF3OfUfGuZD9baW_PuitgIARk2Jvrdq7exf9z3yJl8wxIdcT7om8NCNqfuyAnh_RgV5AdQbajYCgADuTXERfBOzdp6I0Me3m00]--></g></svg>