<?xml version="1.0" encoding="UTF-8" standalone="no"?><svg xmlns="http://www.w3.org/2000/svg" xmlns:xlink="http://www.w3.org/1999/xlink" contentStyleType="text/css" height="651px" preserveAspectRatio="none" style="width:688px;height:651px;background:#FFFFFF;" version="1.1" viewBox="0 0 688 651" width="688px" zoomAndPan="magnify"><defs/><g><!--class PatientController--><g id="elem_PatientController"><rect codeLine="9" fill="#F1F1F1" height="83.2188" id="PatientController" rx="2.5" ry="2.5" style="stroke:#181818;stroke-width:0.5;" width="340" x="144.5" y="7"/><ellipse cx="257.25" cy="23" fill="#FFBB44" rx="11" ry="11" style="stroke:#181818;stroke-width:1.0;"/><path d="M260.0156,18.875 Q260.1719,18.6563 260.3594,18.5469 Q260.5469,18.4375 260.7656,18.4375 Q261.1406,18.4375 261.375,18.7031 Q261.6094,18.9531 261.6094,19.5625 L261.6094,21.0156 Q261.6094,21.625 261.375,21.8906 Q261.1406,22.1563 260.7656,22.1563 Q260.4219,22.1563 260.2188,21.9531 Q260.0156,21.7656 259.9063,21.25 Q259.8594,20.8906 259.6719,20.7031 Q259.3438,20.3281 258.7344,20.1094 Q258.125,19.8906 257.5,19.8906 Q256.7344,19.8906 256.0938,20.2188 Q255.4688,20.5469 254.9688,21.2969 Q254.4844,22.0469 254.4844,23.0781 L254.4844,24.1719 Q254.4844,25.4063 255.375,26.2344 Q256.2656,27.0469 257.8594,27.0469 Q258.7969,27.0469 259.4531,26.7969 Q259.8438,26.6406 260.2656,26.2031 Q260.5313,25.9375 260.6719,25.8594 Q260.8281,25.7813 261.0313,25.7813 Q261.3594,25.7813 261.6094,26.0469 Q261.875,26.2969 261.875,26.6406 Q261.875,26.9844 261.5313,27.3906 Q261.0313,27.9688 260.2344,28.2969 Q259.1563,28.75 257.8594,28.75 Q256.3438,28.75 255.1406,28.125 Q254.1563,27.625 253.4688,26.5625 Q252.7813,25.4844 252.7813,24.2031 L252.7813,23.0469 Q252.7813,21.7188 253.3906,20.5781 Q254.0156,19.4219 255.1094,18.8125 Q256.2031,18.1875 257.4375,18.1875 Q258.1719,18.1875 258.8125,18.3594 Q259.4688,18.5156 260.0156,18.875 Z " fill="#000000"/><text fill="#000000" font-family="sans-serif" font-size="14" lengthAdjust="spacing" textLength="106" x="277.75" y="28.7285">PatientController</text><line style="stroke:#181818;stroke-width:0.5;" x1="145.5" x2="483.5" y1="39" y2="39"/><line style="stroke:#181818;stroke-width:0.5;" x1="145.5" x2="483.5" y1="47" y2="47"/><ellipse cx="155.5" cy="61.3047" fill="#84BE84" rx="3" ry="3" style="stroke:#038048;stroke-width:1.0;"/><text fill="#000000" font-family="sans-serif" font-size="14" lengthAdjust="spacing" textLength="314" x="164.5" y="65.5332">editPatient(patientDTO: PatientDTO): PatientDTO</text><ellipse cx="155.5" cy="78.9141" fill="#84BE84" rx="3" ry="3" style="stroke:#038048;stroke-width:1.0;"/><text fill="#000000" font-family="sans-serif" font-size="14" lengthAdjust="spacing" textLength="221" x="164.5" y="83.1426">deletePatient(patientId: Long): void</text></g><!--class PatientService--><g id="elem_PatientService"><rect codeLine="14" fill="#F1F1F1" height="100.8281" id="PatientService" rx="2.5" ry="2.5" style="stroke:#181818;stroke-width:0.5;" width="340" x="144.5" y="168"/><ellipse cx="264.75" cy="184" fill="#ADD1B2" rx="11" ry="11" style="stroke:#181818;stroke-width:1.0;"/><path d="M262.8594,188.5625 Q262.6406,188.8281 262.5,188.9063 Q262.3594,188.9844 262.1719,188.9844 Q261.7813,188.9844 261.5313,188.7188 Q261.2969,188.4531 261.2969,187.8594 L261.2969,186.7031 Q261.2969,186.0938 261.5313,185.8438 Q261.7813,185.5781 262.1719,185.5781 Q262.4688,185.5781 262.6719,185.7344 Q262.875,185.8906 262.9844,186.2656 Q263.0938,186.625 263.2031,186.7656 Q263.4531,187.0156 264.0625,187.2813 Q264.6719,187.5469 265.4063,187.5469 Q266.5469,187.5469 267.2656,187.0156 Q267.7344,186.6875 267.7344,186.2188 Q267.7344,185.9063 267.5156,185.625 Q267.2969,185.3438 266.7813,185.1719 Q266.4531,185.0469 265.2969,184.8281 Q263.9063,184.5625 263.1875,184.2031 Q262.4688,183.8438 262.0469,183.1875 Q261.6406,182.5156 261.6406,181.7344 Q261.6406,180.5156 262.6563,179.6094 Q263.6875,178.6875 265.3281,178.6875 Q265.9844,178.6875 266.5313,178.8281 Q267.0938,178.9688 267.5625,179.2656 Q267.8906,178.9531 268.2188,178.9531 Q268.5938,178.9531 268.8281,179.2188 Q269.0625,179.4688 269.0625,180.0781 L269.0625,181.3594 Q269.0625,181.9688 268.8281,182.2344 Q268.5938,182.4844 268.2188,182.4844 Q267.9063,182.4844 267.6719,182.2969 Q267.4844,182.1563 267.3906,181.7344 Q267.3125,181.3125 267.1719,181.125 Q266.9219,180.8125 266.4375,180.6094 Q265.9688,180.3906 265.3281,180.3906 Q264.4063,180.3906 263.875,180.8125 Q263.3438,181.2344 263.3438,181.7031 Q263.3438,182.0156 263.5625,182.3125 Q263.7813,182.6094 264.2031,182.7813 Q264.4844,182.8906 265.7813,183.1563 Q267.0938,183.4063 267.7969,183.7188 Q268.5,184.0156 268.9688,184.6719 Q269.4375,185.3281 269.4375,186.2344 Q269.4375,187.5 268.5469,188.25 Q267.3594,189.25 265.5313,189.25 Q264.8281,189.25 264.1563,189.0781 Q263.5,188.9063 262.8594,188.5625 Z " fill="#000000"/><text fill="#000000" font-family="sans-serif" font-size="14" lengthAdjust="spacing" textLength="91" x="285.25" y="189.7285">PatientService</text><line style="stroke:#181818;stroke-width:0.5;" x1="145.5" x2="483.5" y1="200" y2="200"/><line style="stroke:#181818;stroke-width:0.5;" x1="145.5" x2="483.5" y1="208" y2="208"/><ellipse cx="155.5" cy="222.3047" fill="#84BE84" rx="3" ry="3" style="stroke:#038048;stroke-width:1.0;"/><text fill="#000000" font-family="sans-serif" font-size="14" lengthAdjust="spacing" textLength="314" x="164.5" y="226.5332">editPatient(patientDTO: PatientDTO): PatientDTO</text><ellipse cx="155.5" cy="239.9141" fill="#84BE84" rx="3" ry="3" style="stroke:#038048;stroke-width:1.0;"/><text fill="#000000" font-family="sans-serif" font-size="14" lengthAdjust="spacing" textLength="221" x="164.5" y="244.1426">deletePatient(patientId: Long): void</text><rect fill="#F24D5C" height="6" style="stroke:#C82930;stroke-width:1.0;" width="6" x="152.5" y="254.5234"/><text fill="#000000" font-family="sans-serif" font-size="14" lengthAdjust="spacing" textLength="211" x="164.5" y="261.752">findByDomainId(id: Long): Patient</text></g><!--class Patient--><g id="elem_Patient"><rect codeLine="20" fill="#F1F1F1" height="118.4375" id="Patient" rx="2.5" ry="2.5" style="stroke:#181818;stroke-width:0.5;" width="269" x="102" y="526"/><ellipse cx="210.25" cy="542" fill="#FFAAAA" rx="11" ry="11" style="stroke:#181818;stroke-width:1.0;"/><path d="M209.1094,542.7969 L209.1094,545.2969 L213.4375,545.2969 L213.4375,544.375 Q213.4375,543.7656 213.6719,543.5 Q213.9219,543.2344 214.2969,543.2344 Q214.6719,543.2344 214.9063,543.5 Q215.1406,543.7656 215.1406,544.375 L215.1406,547 L207.1406,547 Q206.5156,547 206.25,546.7656 Q206,546.5313 206,546.1406 Q206,545.7656 206.2656,545.5313 Q206.5313,545.2969 207.1406,545.2969 L207.4063,545.2969 L207.4063,538.6406 L207.1406,538.6406 Q206.5156,538.6406 206.25,538.4063 Q206,538.1719 206,537.7813 Q206,537.4063 206.25,537.1719 Q206.5156,536.9375 207.1406,536.9375 L214.7656,536.9375 L214.7656,539.5313 Q214.7656,540.1406 214.5313,540.4063 Q214.3125,540.6563 213.9219,540.6563 Q213.5469,540.6563 213.3125,540.4063 Q213.0781,540.1406 213.0781,539.5313 L213.0781,538.6406 L209.1094,538.6406 L209.1094,541.0938 L210.5938,541.0938 Q210.5938,540.4375 210.7188,540.25 Q210.9844,539.8438 211.4531,539.8438 Q211.8281,539.8438 212.0625,540.1094 Q212.2969,540.3594 212.2969,540.9688 L212.2969,542.9375 Q212.2969,543.4844 212.1719,543.6719 Q211.9063,544.0625 211.4531,544.0625 Q210.9844,544.0625 210.7188,543.6563 Q210.5938,543.4688 210.5938,542.7969 L209.1094,542.7969 Z " fill="#000000"/><text fill="#000000" font-family="sans-serif" font-size="14" lengthAdjust="spacing" textLength="44" x="230.75" y="547.7285">Patient</text><line style="stroke:#181818;stroke-width:0.5;" x1="103" x2="370" y1="558" y2="558"/><rect fill="none" height="6" style="stroke:#C82930;stroke-width:1.0;" width="6" x="110" y="569.3047"/><text fill="#000000" font-family="sans-serif" font-size="14" lengthAdjust="spacing" textLength="51" x="122" y="576.5332">id: Long</text><rect fill="none" height="6" style="stroke:#C82930;stroke-width:1.0;" width="6" x="110" y="586.9141"/><text fill="#000000" font-family="sans-serif" font-size="14" lengthAdjust="spacing" textLength="80" x="122" y="594.1426">name: String</text><rect fill="none" height="6" style="stroke:#C82930;stroke-width:1.0;" width="6" x="110" y="604.5234"/><text fill="#000000" font-family="sans-serif" font-size="14" lengthAdjust="spacing" textLength="243" x="122" y="611.752">contactInformation: ContactInformation</text><line style="stroke:#181818;stroke-width:0.5;" x1="103" x2="370" y1="618.8281" y2="618.8281"/><ellipse cx="113" cy="633.1328" fill="#84BE84" rx="3" ry="3" style="stroke:#038048;stroke-width:1.0;"/><text fill="#000000" font-family="sans-serif" font-size="14" lengthAdjust="spacing" textLength="67" x="122" y="637.3613">edit(): void</text></g><!--class ContactInformation--><g id="elem_ContactInformation"><rect codeLine="27" fill="#F1F1F1" height="83.2188" id="ContactInformation" rx="2.5" ry="2.5" style="stroke:#181818;stroke-width:0.5;" width="160" x="519.5" y="7"/><ellipse cx="538.55" cy="23" fill="#D1E7DD" rx="11" ry="11" style="stroke:#181818;stroke-width:1.0;"/><path d="M539.1438,26.2656 L541.6125,20.3906 L541.2219,20.3906 Q540.6125,20.3906 540.3469,20.1563 Q540.0813,19.9219 540.0813,19.5313 Q540.0813,19.1563 540.3469,18.9219 Q540.6125,18.6875 541.2219,18.6875 L543.5031,18.6875 Q544.1125,18.6875 544.3781,18.9219 Q544.6438,19.1563 544.6438,19.5313 Q544.6438,20 544.2375,20.2656 Q544.05,20.3906 543.4563,20.3906 L539.9719,28.75 L538.3313,28.75 L534.8469,20.3906 Q534.2531,20.3906 534.0656,20.2656 Q533.6594,20 533.6594,19.5313 Q533.6594,19.1563 533.925,18.9219 Q534.1906,18.6875 534.8,18.6875 L537.0969,18.6875 Q537.7063,18.6875 537.9563,18.9219 Q538.2219,19.1563 538.2219,19.5313 Q538.2219,19.9219 537.9563,20.1563 Q537.7063,20.3906 537.0969,20.3906 L536.6906,20.3906 L539.1438,26.2656 Z " fill="#000000"/><text fill="#000000" font-family="sans-serif" font-size="14" lengthAdjust="spacing" textLength="119" x="553.45" y="28.7285">ContactInformation</text><line style="stroke:#181818;stroke-width:0.5;" x1="520.5" x2="678.5" y1="39" y2="39"/><rect fill="none" height="6" style="stroke:#C82930;stroke-width:1.0;" width="6" x="527.5" y="50.3047"/><text fill="#000000" font-family="sans-serif" font-size="14" lengthAdjust="spacing" textLength="78" x="539.5" y="57.5332">email: String</text><rect fill="none" height="6" style="stroke:#C82930;stroke-width:1.0;" width="6" x="527.5" y="67.9141"/><text fill="#000000" font-family="sans-serif" font-size="14" lengthAdjust="spacing" textLength="134" x="539.5" y="75.1426">phoneNumber: String</text><line style="stroke:#181818;stroke-width:0.5;" x1="520.5" x2="678.5" y1="82.2188" y2="82.2188"/></g><!--class PatientRepo--><g id="elem_PatientRepo"><rect codeLine="32" fill="#F1F1F1" height="100.8281" id="PatientRepo" rx="2.5" ry="2.5" style="stroke:#181818;stroke-width:0.5;" width="237" x="7" y="347"/><ellipse cx="82.25" cy="363" fill="#FFCC77" rx="11" ry="11" style="stroke:#181818;stroke-width:1.0;"/><path d="M81.0938,364.1563 L81.0938,366.2969 L81.7031,366.2969 Q82.3281,366.2969 82.5781,366.5313 Q82.8438,366.7656 82.8438,367.1563 Q82.8438,367.5313 82.5781,367.7656 Q82.3281,368 81.7031,368 L79.125,368 Q78.5156,368 78.25,367.7656 Q77.9844,367.5313 77.9844,367.1406 Q77.9844,366.7656 78.25,366.5313 Q78.5156,366.2969 79.125,366.2969 L79.3906,366.2969 L79.3906,359.6406 L79.125,359.6406 Q78.5156,359.6406 78.25,359.4063 Q77.9844,359.1719 77.9844,358.7813 Q77.9844,358.4063 78.25,358.1719 Q78.5156,357.9375 79.125,357.9375 L82.9844,357.9375 Q84.7813,357.9375 85.7656,358.8281 Q86.7656,359.7188 86.7656,361 Q86.7656,361.7969 86.2969,362.4531 Q85.8281,363.1094 84.8906,363.6094 Q85.4375,364.0781 86.0469,364.8281 Q86.4375,365.2969 87.0781,366.2969 Q87.7344,366.2969 87.9375,366.4375 Q88.3125,366.6875 88.3125,367.1563 Q88.3125,367.5313 88.0469,367.7656 Q87.7969,368 87.1875,368 L86.2031,368 Q84.1406,364.7969 82.7813,364.1563 L81.0938,364.1563 Z M81.0938,362.4531 L82.4219,362.4531 Q83.1563,362.4531 83.75,362.2344 Q84.5313,361.9375 84.7969,361.6094 Q85.0625,361.2656 85.0625,360.9375 Q85.0625,360.4688 84.5469,360.0625 Q84.0313,359.6406 83.0469,359.6406 L81.0938,359.6406 L81.0938,362.4531 Z " fill="#000000"/><text fill="#000000" font-family="sans-serif" font-size="14" lengthAdjust="spacing" textLength="78" x="102.75" y="368.7285">PatientRepo</text><line style="stroke:#181818;stroke-width:0.5;" x1="8" x2="243" y1="379" y2="379"/><line style="stroke:#181818;stroke-width:0.5;" x1="8" x2="243" y1="387" y2="387"/><ellipse cx="18" cy="401.3047" fill="#84BE84" rx="3" ry="3" style="stroke:#038048;stroke-width:1.0;"/><text fill="#000000" font-family="sans-serif" font-size="14" lengthAdjust="spacing" textLength="211" x="27" y="405.5332">findByDomainId(id: Long): Patient</text><ellipse cx="18" cy="418.9141" fill="#84BE84" rx="3" ry="3" style="stroke:#038048;stroke-width:1.0;"/><text fill="#000000" font-family="sans-serif" font-size="14" lengthAdjust="spacing" textLength="169" x="27" y="423.1426">save(patient: Patient): void</text><ellipse cx="18" cy="436.5234" fill="#84BE84" rx="3" ry="3" style="stroke:#038048;stroke-width:1.0;"/><text fill="#000000" font-family="sans-serif" font-size="14" lengthAdjust="spacing" textLength="177" x="27" y="440.752">delete(patientId: Long): void</text></g><!--class PatientDTO--><g id="elem_PatientDTO"><rect codeLine="38" fill="#F1F1F1" height="118.4375" id="PatientDTO" rx="2.5" ry="2.5" style="stroke:#181818;stroke-width:0.5;" width="160" x="456.5" y="526"/><ellipse cx="495.8" cy="542" fill="#FFFF66" rx="11" ry="11" style="stroke:#181818;stroke-width:1.0;"/><path d="M493.3469,545.2969 L493.3469,538.6406 Q492.8,538.625 492.5344,538.3906 Q492.2844,538.1563 492.2844,537.7813 Q492.2844,537.4063 492.55,537.1719 Q492.8156,536.9375 493.425,536.9375 L496.9875,536.9375 Q497.8156,536.9375 498.6125,537.25 Q499.4094,537.5469 499.8938,538.0313 Q500.2531,538.3906 500.6438,539.0156 Q501.0344,539.625 501.2375,540.25 Q501.4406,540.8594 501.4406,541.75 L501.4406,542.5625 Q501.4406,543.6406 501.0656,544.4844 Q500.7063,545.3125 500.1125,545.8438 Q499.5188,546.3594 499.0031,546.6094 Q498.175,547 496.8469,547 L493.425,547 Q492.8156,547 492.55,546.7656 Q492.2844,546.5313 492.2844,546.1406 Q492.2844,545.7656 492.55,545.5313 Q492.8156,545.2969 493.3469,545.2969 Z M495.05,545.2969 L496.8625,545.2969 Q497.8625,545.2969 498.3781,545 Q499.05,544.625 499.3938,544.0469 Q499.7375,543.4531 499.7375,542.5156 L499.7375,541.7031 Q499.7375,540.9063 499.425,540.2969 Q498.9406,539.3438 498.3313,539 Q497.7375,538.6406 496.8469,538.6406 L495.05,538.6406 L495.05,545.2969 Z " fill="#000000"/><text fill="#000000" font-family="sans-serif" font-size="14" lengthAdjust="spacing" textLength="74" x="515.2" y="547.7285">PatientDTO</text><line style="stroke:#181818;stroke-width:0.5;" x1="457.5" x2="615.5" y1="558" y2="558"/><rect fill="none" height="6" style="stroke:#C82930;stroke-width:1.0;" width="6" x="464.5" y="569.3047"/><text fill="#000000" font-family="sans-serif" font-size="14" lengthAdjust="spacing" textLength="51" x="476.5" y="576.5332">id: Long</text><rect fill="none" height="6" style="stroke:#C82930;stroke-width:1.0;" width="6" x="464.5" y="586.9141"/><text fill="#000000" font-family="sans-serif" font-size="14" lengthAdjust="spacing" textLength="80" x="476.5" y="594.1426">name: String</text><rect fill="none" height="6" style="stroke:#C82930;stroke-width:1.0;" width="6" x="464.5" y="604.5234"/><text fill="#000000" font-family="sans-serif" font-size="14" lengthAdjust="spacing" textLength="78" x="476.5" y="611.752">email: String</text><rect fill="none" height="6" style="stroke:#C82930;stroke-width:1.0;" width="6" x="464.5" y="622.1328"/><text fill="#000000" font-family="sans-serif" font-size="14" lengthAdjust="spacing" textLength="134" x="476.5" y="629.3613">phoneNumber: String</text><line style="stroke:#181818;stroke-width:0.5;" x1="457.5" x2="615.5" y1="636.4375" y2="636.4375"/></g><!--class PatientMapper--><g id="elem_PatientMapper"><rect codeLine="45" fill="#F1F1F1" height="83.2188" id="PatientMapper" rx="2.5" ry="2.5" style="stroke:#181818;stroke-width:0.5;" width="290" x="391.5" y="356"/><ellipse cx="486.25" cy="372" fill="#66B2FF" rx="11" ry="11" style="stroke:#181818;stroke-width:1.0;"/><path d="M484.1875,370.2188 L484.1875,375.2969 L484.8125,375.2969 Q485.4219,375.2969 485.6719,375.5313 Q485.9375,375.7656 485.9375,376.1563 Q485.9375,376.5313 485.6719,376.7656 Q485.4219,377 484.8125,377 L482.5781,377 Q481.9531,377 481.7031,376.7656 Q481.4375,376.5313 481.4375,376.1406 Q481.4375,375.7656 481.7031,375.5313 Q481.9531,375.2969 482.4844,375.2969 L482.4844,368.6406 Q482.0469,368.5938 481.8125,368.375 Q481.5781,368.1406 481.5781,367.7813 Q481.5781,367.4063 481.8438,367.1719 Q482.1094,366.9375 482.7188,366.9375 L484.5938,366.9375 L486.9063,372.0625 L489.1719,366.9375 L491.0625,366.9375 Q491.6719,366.9375 491.9375,367.1719 Q492.2031,367.4063 492.2031,367.7813 Q492.2031,368.1406 491.9688,368.375 Q491.7344,368.5938 491.2969,368.6406 L491.2969,375.2969 Q491.8281,375.2969 492.0781,375.5469 Q492.3438,375.7813 492.3438,376.1563 Q492.3438,376.5313 492.0781,376.7656 Q491.8281,377 491.2188,377 L488.9688,377 Q488.3594,377 488.0938,376.7656 Q487.8438,376.5313 487.8438,376.1406 Q487.8438,375.7656 488.0938,375.5313 Q488.3594,375.2969 488.9688,375.2969 L489.5938,375.2969 L489.5938,370.2188 L487.6406,374.6094 L486.1719,374.6094 L484.1875,370.2188 Z " fill="#000000"/><text fill="#000000" font-family="sans-serif" font-size="14" lengthAdjust="spacing" textLength="92" x="506.75" y="377.7285">PatientMapper</text><line style="stroke:#181818;stroke-width:0.5;" x1="392.5" x2="680.5" y1="388" y2="388"/><line style="stroke:#181818;stroke-width:0.5;" x1="392.5" x2="680.5" y1="396" y2="396"/><ellipse cx="402.5" cy="410.3047" fill="#84BE84" rx="3" ry="3" style="stroke:#038048;stroke-width:1.0;"/><text fill="#000000" font-family="sans-serif" font-size="14" lengthAdjust="spacing" textLength="229" x="411.5" y="414.5332">toDTO(patient: Patient): PatientDTO</text><ellipse cx="402.5" cy="427.9141" fill="#84BE84" rx="3" ry="3" style="stroke:#038048;stroke-width:1.0;"/><text fill="#000000" font-family="sans-serif" font-size="14" lengthAdjust="spacing" textLength="264" x="411.5" y="432.1426">toEntity(patientDTO: PatientDTO): Patient</text></g><!--link PatientController to PatientService--><g id="link_PatientController_PatientService"><path codeLine="50" d="M288.89,90.3 C284.18,99.72 279.98,109.93 277.5,120 C274.01,134.17 276.38,149.08 281.28,162.86 " fill="none" id="PatientController-to-PatientService" style="stroke:#181818;stroke-width:1.0;"/><polygon fill="#181818" points="283.19,167.89,283.7127,158.055,281.4047,163.2196,276.2401,160.9115,283.19,167.89" style="stroke:#181818;stroke-width:1.0;"/><text fill="#000000" font-family="sans-serif" font-size="13" lengthAdjust="spacing" textLength="27" x="278.5" y="134.4951">calls</text></g><!--link PatientService to PatientController--><g id="link_PatientService_PatientController"><path codeLine="56" d="M314.5,167.91 C314.5,144.9 314.5,117.71 314.5,95.19 " fill="none" id="PatientService-to-PatientController" style="stroke:#181818;stroke-width:1.0;"/><polygon fill="#181818" points="314.5,90.17,310.5,99.17,314.5,95.17,318.5,99.17,314.5,90.17" style="stroke:#181818;stroke-width:1.0;"/><text fill="#000000" font-family="sans-serif" font-size="13" lengthAdjust="spacing" textLength="70" x="315.5" y="134.4951">returns DTO</text></g><!--link PatientService to PatientRepo--><g id="link_PatientService_PatientRepo"><path codeLine="51" d="M261.6,269.04 C236.83,292.24 207.29,319.9 182.07,343.52 " fill="none" id="PatientService-to-PatientRepo" style="stroke:#181818;stroke-width:1.0;"/><polygon fill="#181818" points="178.39,346.97,187.692,343.7339,182.0381,343.5508,182.2213,337.8969,178.39,346.97" style="stroke:#181818;stroke-width:1.0;"/><text fill="#000000" font-family="sans-serif" font-size="13" lengthAdjust="spacing" textLength="28" x="227.5" y="313.4951">uses</text></g><!--link PatientService to PatientMapper--><g id="link_PatientService_PatientMapper"><path codeLine="52" d="M376.63,269.04 C409.53,295.27 449.59,327.21 481.38,352.55 " fill="none" id="PatientService-to-PatientMapper" style="stroke:#181818;stroke-width:1.0;"/><polygon fill="#181818" points="485.61,355.92,481.0731,347.1783,481.7029,352.8,476.0812,353.4297,485.61,355.92" style="stroke:#181818;stroke-width:1.0;"/><text fill="#000000" font-family="sans-serif" font-size="13" lengthAdjust="spacing" textLength="77" x="433.5" y="313.4951">maps to DTO</text></g><!--link PatientRepo to Patient--><g id="link_PatientRepo_Patient"><path codeLine="53" d="M155.25,448.21 C168.73,470.74 184.81,497.62 199.1,521.5 " fill="none" id="PatientRepo-to-Patient" style="stroke:#181818;stroke-width:1.0;"/><polygon fill="#181818" points="201.75,525.92,200.5735,516.1417,199.1881,521.6262,193.7035,520.2408,201.75,525.92" style="stroke:#181818;stroke-width:1.0;"/><text fill="#000000" font-family="sans-serif" font-size="13" lengthAdjust="spacing" textLength="42" x="182.5" y="492.4951">fetches</text></g><!--link Patient to PatientService--><g id="link_Patient_PatientService"><path codeLine="54" d="M248.95,525.84 C263.76,456.62 288.31,341.91 302.79,274.23 " fill="none" id="Patient-to-PatientService" style="stroke:#181818;stroke-width:1.0;"/><polygon fill="#181818" points="303.9,269.04,298.1094,277.0067,302.8563,273.9298,305.9331,278.6767,303.9,269.04" style="stroke:#181818;stroke-width:1.0;"/><text fill="#000000" font-family="sans-serif" font-size="13" lengthAdjust="spacing" textLength="40" x="288.5" y="402.9951">returns</text></g><!--link PatientMapper to PatientDTO--><g id="link_PatientMapper_PatientDTO"><path codeLine="55" d="M536.5,439.21 C536.5,463.01 536.5,493.56 536.5,520.46 " fill="none" id="PatientMapper-to-PatientDTO" style="stroke:#181818;stroke-width:1.0;"/><polygon fill="#181818" points="536.5,525.79,540.5,516.79,536.5,520.79,532.5,516.79,536.5,525.79" style="stroke:#181818;stroke-width:1.0;"/><text fill="#000000" font-family="sans-serif" font-size="13" lengthAdjust="spacing" textLength="63" x="537.5" y="492.4951">converts to</text></g><!--SRC=[lPJVQwim5CVV_Iio-cAvxSF6Q456eMe4BsqLTOKz3Q-UtWKq4KtBnjZ_VfCrsgYZszFrHPDypg_lEV4cXmEXWF0kyPCdytMAiY9j6lIA7XwGYMSJprkBPufMA-D6iJ6Ezhw3Xt0ycwnTzzQ-wy5Ei4kYOBF1qP1tf7FRlh_lyH4EWzXFWcYKJ2HvnrakU_ns7OPZtzlPPB6mxpolnxf9C0HTwTJp5eiUk5zl7l5pOF_6JZAqsCycxYrUkkwdXQ7L5wQS0EKEexncHG7r5BqRI3o_82TSdPhL-IroiL3OVK_rnTaeXm8u3Cpyt48RHlyA_iH8RdmOHjiEHSPGdqW6_o6s9ET2hzn-SrcP4khd9hamobgcgAPBxRIfpLlulA9f2HQAUKtQdKmecMRSfmTMbyAMKGivexrBcQQcIg-5OwCk1n295_smrGkZi3kMVw3k3eH7RJ9L8H5KhDFvUo4-iIOzGIjeTwGhghI_qd0vnbhtVghcpojLTqh5sAPLfSqoPpB-5nKCPuWpJ3dXRzzEdGmvkZjeFb-X_aWZ2sLfKJJ6O5iZPKS4TcpW6dMkI71bMZM8C_bZC7GF6Yke0_3ivUBmwynguCUQTf0AeQ4YXYo0qHFKN4Qzag0cG-TP9laF]--></g></svg>