<?xml version="1.0" encoding="us-ascii" standalone="no"?><svg xmlns="http://www.w3.org/2000/svg" xmlns:xlink="http://www.w3.org/1999/xlink" contentStyleType="text/css" height="652px" preserveAspectRatio="none" style="width:1357px;height:652px;background:#FFFFFF;" version="1.1" viewBox="0 0 1357 652" width="1357px" zoomAndPan="magnify"><defs/><g><text fill="#000000" font-family="sans-serif" font-size="14" font-weight="bold" lengthAdjust="spacing" textLength="325" x="509" y="24.5332">Optimization Module (API-centric Architecture)</text><!--cluster Optimization Module--><g id="cluster_Optimization Module"><path d="M8.5,44.6094 L153.5,44.6094 A3.75,3.75 0 0 1 156,47.1094 L163,68.2188 L1347.5,68.2188 A2.5,2.5 0 0 1 1350,70.7188 L1350,469.1094 A2.5,2.5 0 0 1 1347.5,471.6094 L8.5,471.6094 A2.5,2.5 0 0 1 6,469.1094 L6,47.1094 A2.5,2.5 0 0 1 8.5,44.6094 " fill="none" style="stroke:#000000;stroke-width:1.5;"/><line style="stroke:#000000;stroke-width:1.5;" x1="6" x2="163" y1="68.2188" y2="68.2188"/><text fill="#000000" font-family="sans-serif" font-size="14" font-weight="bold" lengthAdjust="spacing" textLength="144" x="10" y="61.1426">Optimization Module</text></g><!--cluster p--><g id="cluster_p"><path d="M32.5,341.6094 L165.5,341.6094 A3.75,3.75 0 0 1 168,344.1094 L175,365.2188 L270.5,365.2188 A2.5,2.5 0 0 1 273,367.7188 L273,439.1094 A2.5,2.5 0 0 1 270.5,441.6094 L32.5,441.6094 A2.5,2.5 0 0 1 30,439.1094 L30,344.1094 A2.5,2.5 0 0 1 32.5,341.6094 " fill="none" style="stroke:#000000;stroke-width:1.5;"/><line style="stroke:#000000;stroke-width:1.5;" x1="30" x2="175" y1="365.2188" y2="365.2188"/><text fill="#000000" font-family="sans-serif" font-size="14" font-weight="bold" lengthAdjust="spacing" textLength="132" x="34" y="358.1426">Presentation Layer</text></g><!--cluster op--><g id="cluster_op"><path d="M448.5,88.6094 L510.5,88.6094 A3.75,3.75 0 0 1 513,91.1094 L520,112.2188 L1323.5,112.2188 A2.5,2.5 0 0 1 1326,114.7188 L1326,445.1094 A2.5,2.5 0 0 1 1323.5,447.6094 L448.5,447.6094 A2.5,2.5 0 0 1 446,445.1094 L446,91.1094 A2.5,2.5 0 0 1 448.5,88.6094 " fill="none" style="stroke:#000000;stroke-width:1.5;"/><line style="stroke:#000000;stroke-width:1.5;" x1="446" x2="520" y1="112.2188" y2="112.2188"/><text fill="#000000" font-family="sans-serif" font-size="14" font-weight="bold" lengthAdjust="spacing" textLength="61" x="450" y="105.1426">Backend</text></g><!--entity fastapi--><g id="elem_fastapi"><rect fill="#F1F1F1" height="47.6094" rx="2.5" ry="2.5" style="stroke:#181818;stroke-width:0.5;" width="211" x="46" y="377.6094"/><rect fill="#F1F1F1" height="10" style="stroke:#181818;stroke-width:0.5;" width="15" x="237" y="382.6094"/><rect fill="#F1F1F1" height="2" style="stroke:#181818;stroke-width:0.5;" width="4" x="235" y="384.6094"/><rect fill="#F1F1F1" height="2" style="stroke:#181818;stroke-width:0.5;" width="4" x="235" y="388.6094"/><text fill="#000000" font-family="sans-serif" font-size="14" lengthAdjust="spacing" textLength="171" x="61" y="412.1426">FastAPI Server (REST API)</text></g><!--entity service--><g id="elem_service"><rect fill="#F1F1F1" height="47.6094" rx="2.5" ry="2.5" style="stroke:#181818;stroke-width:0.5;" width="168" x="462" y="304.6094"/><rect fill="#F1F1F1" height="10" style="stroke:#181818;stroke-width:0.5;" width="15" x="610" y="309.6094"/><rect fill="#F1F1F1" height="2" style="stroke:#181818;stroke-width:0.5;" width="4" x="608" y="311.6094"/><rect fill="#F1F1F1" height="2" style="stroke:#181818;stroke-width:0.5;" width="4" x="608" y="315.6094"/><text fill="#000000" font-family="sans-serif" font-size="14" lengthAdjust="spacing" textLength="128" x="477" y="339.1426">Optimization Service</text></g><!--entity solver--><g id="elem_solver"><rect fill="#F1F1F1" height="47.6094" rx="2.5" ry="2.5" style="stroke:#181818;stroke-width:0.5;" width="178" x="818.5" y="383.6094"/><rect fill="#F1F1F1" height="10" style="stroke:#181818;stroke-width:0.5;" width="15" x="976.5" y="388.6094"/><rect fill="#F1F1F1" height="2" style="stroke:#181818;stroke-width:0.5;" width="4" x="974.5" y="390.6094"/><rect fill="#F1F1F1" height="2" style="stroke:#181818;stroke-width:0.5;" width="4" x="974.5" y="394.6094"/><text fill="#000000" font-family="sans-serif" font-size="14" lengthAdjust="spacing" textLength="138" x="833.5" y="418.1426">Solver (Gurobi/GLPK)</text></g><!--entity dataloader--><g id="elem_dataloader"><rect fill="#F1F1F1" height="47.6094" rx="2.5" ry="2.5" style="stroke:#181818;stroke-width:0.5;" width="181" x="817" y="300.6094"/><rect fill="#F1F1F1" height="10" style="stroke:#181818;stroke-width:0.5;" width="15" x="978" y="305.6094"/><rect fill="#F1F1F1" height="2" style="stroke:#181818;stroke-width:0.5;" width="4" x="976" y="307.6094"/><rect fill="#F1F1F1" height="2" style="stroke:#181818;stroke-width:0.5;" width="4" x="976" y="311.6094"/><text fill="#000000" font-family="sans-serif" font-size="14" lengthAdjust="spacing" textLength="141" x="832" y="335.1426">Data Loader (Pandas)</text></g><!--entity model--><g id="elem_model"><rect fill="#F1F1F1" height="47.6094" rx="2.5" ry="2.5" style="stroke:#181818;stroke-width:0.5;" width="159" x="1151" y="230.6094"/><rect fill="#F1F1F1" height="10" style="stroke:#181818;stroke-width:0.5;" width="15" x="1290" y="235.6094"/><rect fill="#F1F1F1" height="2" style="stroke:#181818;stroke-width:0.5;" width="4" x="1288" y="237.6094"/><rect fill="#F1F1F1" height="2" style="stroke:#181818;stroke-width:0.5;" width="4" x="1288" y="241.6094"/><text fill="#000000" font-family="sans-serif" font-size="14" lengthAdjust="spacing" textLength="119" x="1166" y="265.1426">Optimization Model</text></g><!--entity Frontend Client--><g id="elem_Frontend Client"><ellipse cx="546" cy="517.6094" fill="#F1F1F1" rx="8" ry="8" style="stroke:#181818;stroke-width:0.5;"/><text fill="#000000" font-family="sans-serif" font-size="14" lengthAdjust="spacing" textLength="98" x="497" y="549.1426">Frontend Client</text></g><!--entity Backend Node--><g id="elem_Backend Node"><ellipse cx="546" cy="612.6094" fill="#F1F1F1" rx="8" ry="8" style="stroke:#181818;stroke-width:0.5;"/><text fill="#000000" font-family="sans-serif" font-size="14" lengthAdjust="spacing" textLength="92" x="500" y="644.1426">Backend Node</text></g><!--link fastapi to service--><g id="link_fastapi_service"><path d="M257.32,408.5294 C310,409.2294 374.31,405.8494 430,390.6094 C458.77,382.7394 483.2564,369.8022 505.1964,355.9522 " fill="none" id="fastapi-to-service" style="stroke:#181818;stroke-width:1.0;"/><polygon fill="#181818" points="510.27,352.7494,500.5243,354.1712,506.042,355.4184,504.7947,360.936,510.27,352.7494" style="stroke:#181818;stroke-width:1.0;"/><text fill="#000000" font-family="sans-serif" font-size="13" lengthAdjust="spacing" textLength="139" x="290" y="387.1045">Recebe requisi&#231;&#245;es API</text></g><!--link service to fastapi--><g id="link_service_fastapi"><path d="M461.97,339.8194 C411.73,347.0394 346.47,357.1894 289,368.6094 C275.61,371.2694 267.3868,373.0021 253.5868,376.1821 " fill="none" id="service-to-fastapi" style="stroke:#181818;stroke-width:1.0;"/><polygon fill="#181818" points="247.74,377.5294,257.4084,379.4063,252.6123,376.4066,255.612,371.6106,247.74,377.5294" style="stroke:#181818;stroke-width:1.0;"/><text fill="#000000" font-family="sans-serif" font-size="13" lengthAdjust="spacing" textLength="80" x="319.5" y="342.1045">Resposta API</text></g><!--link service to dataloader--><g id="link_service_dataloader"><path d="M630.38,327.6794 C686.28,327.0594 753.8304,326.3055 810.9704,325.6755 " fill="none" id="service-to-dataloader" style="stroke:#181818;stroke-width:1.0;"/><polygon fill="#181818" points="816.97,325.6094,807.9264,321.7088,811.9703,325.6645,808.0146,329.7084,816.97,325.6094" style="stroke:#181818;stroke-width:1.0;"/><text fill="#000000" font-family="sans-serif" font-size="13" lengthAdjust="spacing" textLength="84" x="681.5" y="323.1045">Carrega dados</text></g><!--link service to model--><g id="link_service_model"><path d="M630.07,306.8694 C640.12,304.5794 650.27,302.4294 660,300.6094 C822.07,270.2894 863.45,264.0794 1028,253.6094 C1069.25,250.9894 1079.67,253.4194 1121,253.6094 C1130.7,253.6494 1134.8902,253.6718 1144.9802,253.7518 " fill="none" id="service-to-model" style="stroke:#181818;stroke-width:1.0;"/><polygon fill="#181818" points="1150.98,253.7994,1142.012,249.7281,1145.9802,253.7597,1141.9486,257.7279,1150.98,253.7994" style="stroke:#181818;stroke-width:1.0;"/><text fill="#000000" font-family="sans-serif" font-size="13" lengthAdjust="spacing" textLength="98" x="858.5" y="253.1045">Instancia modelo</text></g><!--link model to service--><g id="link_model_service"><path d="M1150.71,240.1794 C1067.35,227.2094 932.19,212.7094 817,230.6094 C736.19,243.1694 653.544,277.3055 600.674,302.0555 " fill="none" id="model-to-service" style="stroke:#181818;stroke-width:1.0;"/><polygon fill="#181818" points="595.24,304.5994,605.087,304.4063,599.7684,302.4795,601.6952,297.1609,595.24,304.5994" style="stroke:#181818;stroke-width:1.0;"/><text fill="#000000" font-family="sans-serif" font-size="13" lengthAdjust="spacing" textLength="150" x="832.5" y="219.1045">Resultados da otimiza&#231;&#227;o</text></g><!--link dataloader to model--><g id="link_dataloader_model"><path d="M998.34,305.0194 C1046.29,294.5594 1098.8778,283.0978 1145.0078,273.0378 " fill="none" id="dataloader-to-model" style="stroke:#181818;stroke-width:1.0;"/><polygon fill="#181818" points="1150.87,271.7594,1141.2244,269.7689,1145.9848,272.8247,1142.929,277.5852,1150.87,271.7594" style="stroke:#181818;stroke-width:1.0;"/><text fill="#000000" font-family="sans-serif" font-size="13" lengthAdjust="spacing" textLength="86" x="1031.5" y="276.1045">Fornece dados</text></g><!--link service to solver--><g id="link_service_solver"><path d="M630.31,347.0594 C640.31,349.2694 650.38,351.4894 660,353.6094 C712.52,365.1694 765.4888,376.7764 812.4988,387.0664 " fill="none" id="service-to-solver" style="stroke:#181818;stroke-width:1.0;"/><polygon fill="#181818" points="818.36,388.3494,810.4235,382.5174,813.4756,387.2802,808.7128,390.3324,818.36,388.3494" style="stroke:#181818;stroke-width:1.0;"/><text fill="#000000" font-family="sans-serif" font-size="13" lengthAdjust="spacing" textLength="125" x="661" y="350.1045">Chama solver externo</text></g><!--link solver to model--><g id="link_solver_model"><path d="M980.41,383.5994 C1022.32,368.5994 1075.69,347.7794 1121,324.6094 C1147.15,311.2394 1169.9977,296.6214 1190.9177,282.2214 " fill="none" id="solver-to-model" style="stroke:#181818;stroke-width:1.0;"/><polygon fill="#181818" points="1195.86,278.8194,1186.1785,280.6275,1191.7414,281.6544,1190.7145,287.2172,1195.86,278.8194" style="stroke:#181818;stroke-width:1.0;"/><text fill="#000000" font-family="sans-serif" font-size="13" lengthAdjust="spacing" textLength="91" x="1029" y="321.1045">Resolve modelo</text></g><!--link fastapi to Frontend Client--><g id="link_fastapi_Frontend Client"><path d="M233.83,425.6494 C334.87,455.5094 489.0796,501.0867 527.2696,512.3667 " fill="none" id="fastapi-to-Frontend Client" style="stroke:#181818;stroke-width:1.0;"/><path d="M536.3036,506.2166 A9,9 0 0 0 531.5122 522.4383" fill="none" style="stroke:#181818;stroke-width:1.5;"/><text fill="#000000" font-family="sans-serif" font-size="13" lengthAdjust="spacing" textLength="80" x="319.5" y="439.1045">API Requests</text></g><!--link fastapi to Backend Node--><g id="link_fastapi_Backend Node"><path d="M178.54,425.9894 C204.85,449.6694 247.45,485.4894 289,509.6094 C380.15,562.5194 503.7,600.5594 536.64,610.2094 " fill="none" id="fastapi-Backend Node" style="stroke:#181818;stroke-width:1.0;"/><text fill="#000000" font-family="sans-serif" font-size="13" lengthAdjust="spacing" textLength="90" x="314.5" y="506.1045">API Responses</text></g><!--SRC=[XL9BRjim4Dtp50Ejd8NHVHS1qhG9WZgjOVS24sfi4P4uwf3g5pbD5pr1Jv2BTKZQic88hLRac_TcdXudF3hVes077NksZN1746KW4yPAQB3chyxlOOTj8DFIBa9a4BTl8jHEo4R7tfZeOalmiO-kSpymON3FzQ3OucfzjxJaepWBLs8R5rKq25qOqwDzn3r1DIEiuAU1mvSF8taj5BHV8Q_mEqa56A2V22ntFNibGNM38Qe5s99y8O75vjts4oXmaKKxhMBlil39l9ppHW_awypZ_jpEsPWNVv1cEKjP6SfvJhFbDbkw7OGVtAlRrVfzSHLoOKxo5YF2Yh5EkZNw6aEHr5feC_vVTveljLdKfPCP1OSmOBcyFDg6rx0XImy4Gfy75zppx-S_55A0e-n8JRAJ3LLUemZjKS6Qmomz6r3cdTV9tZei28_aIRyf_uR5gwr_T2uH9XCDTdYyqhT8ua_j3_2qzOOoU6wabC-J2KCRamKr0bmYre1-yQobOxnPsBDUnXXrzOnvAgjbJi-mqFKLzb6t4AvRfqzPgJfjyqPVWq8C4_AuiF11lPw8Eie72kOl]--></g></svg>