<?xml version="1.0" encoding="us-ascii" standalone="no"?><svg xmlns="http://www.w3.org/2000/svg" xmlns:xlink="http://www.w3.org/1999/xlink" contentStyleType="text/css" height="1709px" preserveAspectRatio="none" style="width:1675px;height:1709px;background:#FCF9EA;" version="1.1" viewBox="0 0 1675 1709" width="1675px" zoomAndPan="magnify"><defs/><g><rect fill="#FCF9EA" height="1709" style="stroke:none;stroke-width:1.0;" width="1675" x="0" y="0"/><!--cluster <<agr Prosumer>>--><g id="cluster_&lt;&lt;agr Prosumer&gt;&gt;"><path d="M16,178 L113,178 A15,15 0 0 1 123,188 L130,201.6094 L293,201.6094 A10,10 0 0 1 303,211.6094 L303,358 A10,10 0 0 1 293,368 L16,368 A10,10 0 0 1 6,358 L6,188 A10,10 0 0 1 16,178 " fill="none" style="stroke:#000000;stroke-width:1.5;"/><line style="stroke:#000000;stroke-width:1.5;" x1="6" x2="130" y1="201.6094" y2="201.6094"/><text fill="#000000" font-family="sans-serif" font-size="14" font-weight="bold" lengthAdjust="spacing" textLength="111" x="10" y="194.5332">&#171;agr Prosumer&#187;</text></g><!--cluster <<agr Profile>>--><g id="cluster_&lt;&lt;agr Profile&gt;&gt;"><path d="M189,392 L264,392 A15,15 0 0 1 274,402 L281,415.6094 L1089,415.6094 A10,10 0 0 1 1099,425.6094 L1099,830 A10,10 0 0 1 1089,840 L189,840 A10,10 0 0 1 179,830 L179,402 A10,10 0 0 1 189,392 " fill="none" style="stroke:#000000;stroke-width:1.5;"/><line style="stroke:#000000;stroke-width:1.5;" x1="179" x2="281" y1="415.6094" y2="415.6094"/><text fill="#000000" font-family="sans-serif" font-size="14" font-weight="bold" lengthAdjust="spacing" textLength="89" x="183" y="408.5332">&#171;agr Profile&#187;</text></g><!--cluster <<agr Photovoltaic Energy>>--><g id="cluster_&lt;&lt;agr Photovoltaic Energy&gt;&gt;"><path d="M342,864 L512,864 A15,15 0 0 1 522,874 L529,887.6094 L1501.5,887.6094 A10,10 0 0 1 1511.5,897.6094 L1511.5,1130 A10,10 0 0 1 1501.5,1140 L342,1140 A10,10 0 0 1 332,1130 L332,874 A10,10 0 0 1 342,864 " fill="none" style="stroke:#000000;stroke-width:1.5;"/><line style="stroke:#000000;stroke-width:1.5;" x1="332" x2="529" y1="887.6094" y2="887.6094"/><text fill="#000000" font-family="sans-serif" font-size="14" font-weight="bold" lengthAdjust="spacing" textLength="184" x="336" y="880.5332">&#171;agr Photovoltaic Energy&#187;</text></g><!--cluster <<agr BatteryEnergy>>--><g id="cluster_&lt;&lt;agr BatteryEnergy&gt;&gt;"><path d="M358,6 L486,6 A15,15 0 0 1 496,16 L503,29.6094 L1654,29.6094 A10,10 0 0 1 1664,39.6094 L1664,358 A10,10 0 0 1 1654,368 L358,368 A10,10 0 0 1 348,358 L348,16 A10,10 0 0 1 358,6 " fill="none" style="stroke:#000000;stroke-width:1.5;"/><line style="stroke:#000000;stroke-width:1.5;" x1="348" x2="503" y1="29.6094" y2="29.6094"/><text fill="#000000" font-family="sans-serif" font-size="14" font-weight="bold" lengthAdjust="spacing" textLength="142" x="352" y="22.5332">&#171;agr BatteryEnergy&#187;</text></g><!--cluster <<agr Battery(ESS)>>--><g id="cluster_&lt;&lt;agr Battery(ESS)&gt;&gt;"><path d="M186.5,1164 L302.5,1164 A15,15 0 0 1 312.5,1174 L319.5,1187.6094 L1148,1187.6094 A10,10 0 0 1 1158,1197.6094 L1158,1688 A10,10 0 0 1 1148,1698 L186.5,1698 A10,10 0 0 1 176.5,1688 L176.5,1174 A10,10 0 0 1 186.5,1164 " fill="none" style="stroke:#000000;stroke-width:1.5;"/><line style="stroke:#000000;stroke-width:1.5;" x1="176.5" x2="319.5" y1="1187.6094" y2="1187.6094"/><text fill="#000000" font-family="sans-serif" font-size="14" font-weight="bold" lengthAdjust="spacing" textLength="130" x="180.5" y="1180.5332">&#171;agr Battery(ESS)&#187;</text></g><!--class Prosumer--><g id="elem_Prosumer"><rect codeLine="26" fill="#BADFDB" height="65.7969" id="Prosumer" rx="10" ry="10" style="stroke:#FFFFFF;stroke-width:0.5;" width="67" x="22" y="286"/><text fill="#000000" font-family="sans-serif" font-size="12" font-style="italic" lengthAdjust="spacing" textLength="43" x="34" y="303.457">&#171;entity&#187;</text><text fill="#000000" font-family="sans-serif" font-size="12" font-style="italic" lengthAdjust="spacing" textLength="35" x="38" y="318.5508">&#171;root&#187;</text><text fill="#000000" font-family="sans-serif" font-size="14" lengthAdjust="spacing" textLength="61" x="25" y="335.7207">Prosumer</text><line style="stroke:#FFFFFF;stroke-width:0.5;" x1="23" x2="88" y1="343.7969" y2="343.7969"/></g><!--class ProsumerId--><g id="elem_ProsumerId"><rect codeLine="27" fill="#BADFDB" height="50.7031" id="ProsumerId" rx="10" ry="10" style="stroke:#FFFFFF;stroke-width:0.5;" width="78" x="179" y="300.5"/><text fill="#000000" font-family="sans-serif" font-size="12" font-style="italic" lengthAdjust="spacing" textLength="27" x="204.5" y="317.957">&#171;vo&#187;</text><text fill="#000000" font-family="sans-serif" font-size="14" lengthAdjust="spacing" textLength="72" x="182" y="335.127">ProsumerId</text><line style="stroke:#FFFFFF;stroke-width:0.5;" x1="180" x2="256" y1="343.2031" y2="343.2031"/></g><!--class ProsumerDescription--><g id="elem_ProsumerDescription"><rect codeLine="28" fill="#BADFDB" height="50.7031" id="ProsumerDescription" rx="10" ry="10" style="stroke:#FFFFFF;stroke-width:0.5;" width="138" x="149" y="214.5"/><text fill="#000000" font-family="sans-serif" font-size="12" font-style="italic" lengthAdjust="spacing" textLength="27" x="204.5" y="231.957">&#171;vo&#187;</text><text fill="#000000" font-family="sans-serif" font-size="14" lengthAdjust="spacing" textLength="132" x="152" y="249.127">ProsumerDescription</text><line style="stroke:#FFFFFF;stroke-width:0.5;" x1="150" x2="286" y1="257.2031" y2="257.2031"/></g><!--class Profile--><g id="elem_Profile"><rect codeLine="36" fill="#BADFDB" height="65.7969" id="Profile" rx="10" ry="10" style="stroke:#FFFFFF;stroke-width:0.5;" width="46" x="195" y="550"/><text fill="#000000" font-family="sans-serif" font-size="12" font-style="italic" lengthAdjust="spacing" textLength="43" x="196.5" y="567.457">&#171;entity&#187;</text><text fill="#000000" font-family="sans-serif" font-size="12" font-style="italic" lengthAdjust="spacing" textLength="35" x="200.5" y="582.5508">&#171;root&#187;</text><text fill="#000000" font-family="sans-serif" font-size="14" lengthAdjust="spacing" textLength="40" x="198" y="599.7207">Profile</text><line style="stroke:#FFFFFF;stroke-width:0.5;" x1="196" x2="240" y1="607.7969" y2="607.7969"/></g><!--class ProfileId--><g id="elem_ProfileId"><rect codeLine="39" fill="#BADFDB" height="50.7031" id="ProfileId" rx="10" ry="10" style="stroke:#FFFFFF;stroke-width:0.5;" width="57" x="383.5" y="772.5"/><text fill="#000000" font-family="sans-serif" font-size="12" font-style="italic" lengthAdjust="spacing" textLength="27" x="398.5" y="789.957">&#171;vo&#187;</text><text fill="#000000" font-family="sans-serif" font-size="14" lengthAdjust="spacing" textLength="51" x="386.5" y="807.127">ProfileId</text><line style="stroke:#FFFFFF;stroke-width:0.5;" x1="384.5" x2="439.5" y1="815.2031" y2="815.2031"/></g><!--class ProfileTimeStamp--><g id="elem_ProfileTimeStamp"><rect codeLine="40" fill="#BADFDB" height="50.7031" id="ProfileTimeStamp" rx="10" ry="10" style="stroke:#FFFFFF;stroke-width:0.5;" width="117" x="353.5" y="686.5"/><text fill="#000000" font-family="sans-serif" font-size="12" font-style="italic" lengthAdjust="spacing" textLength="27" x="398.5" y="703.957">&#171;vo&#187;</text><text fill="#000000" font-family="sans-serif" font-size="14" lengthAdjust="spacing" textLength="111" x="356.5" y="721.127">ProfileTimeStamp</text><line style="stroke:#FFFFFF;stroke-width:0.5;" x1="354.5" x2="469.5" y1="729.2031" y2="729.2031"/></g><!--class ProfileLoad--><g id="elem_ProfileLoad"><rect codeLine="41" fill="#BADFDB" height="50.7031" id="ProfileLoad" rx="10" ry="10" style="stroke:#FFFFFF;stroke-width:0.5;" width="78" x="373" y="600.5"/><text fill="#000000" font-family="sans-serif" font-size="12" font-style="italic" lengthAdjust="spacing" textLength="27" x="398.5" y="617.957">&#171;vo&#187;</text><text fill="#000000" font-family="sans-serif" font-size="14" lengthAdjust="spacing" textLength="72" x="376" y="635.127">ProfileLoad</text><line style="stroke:#FFFFFF;stroke-width:0.5;" x1="374" x2="450" y1="643.2031" y2="643.2031"/></g><!--class SoldEnergy--><g id="elem_SoldEnergy"><rect codeLine="42" fill="#BADFDB" height="50.7031" id="SoldEnergy" rx="10" ry="10" style="stroke:#FFFFFF;stroke-width:0.5;" width="79" x="372.5" y="514.5"/><text fill="#000000" font-family="sans-serif" font-size="12" font-style="italic" lengthAdjust="spacing" textLength="27" x="398.5" y="531.957">&#171;vo&#187;</text><text fill="#000000" font-family="sans-serif" font-size="14" lengthAdjust="spacing" textLength="73" x="375.5" y="549.127">SoldEnergy</text><line style="stroke:#FFFFFF;stroke-width:0.5;" x1="373.5" x2="450.5" y1="557.2031" y2="557.2031"/></g><!--class BoughtEnergy--><g id="elem_BoughtEnergy"><rect codeLine="43" fill="#BADFDB" height="50.7031" id="BoughtEnergy" rx="10" ry="10" style="stroke:#FFFFFF;stroke-width:0.5;" width="96" x="364" y="428.5"/><text fill="#000000" font-family="sans-serif" font-size="12" font-style="italic" lengthAdjust="spacing" textLength="27" x="398.5" y="445.957">&#171;vo&#187;</text><text fill="#000000" font-family="sans-serif" font-size="14" lengthAdjust="spacing" textLength="90" x="367" y="463.127">BoughtEnergy</text><line style="stroke:#FFFFFF;stroke-width:0.5;" x1="365" x2="459" y1="471.2031" y2="471.2031"/></g><g id="elem_GMN15"><path d="M596,451 L596,450 L460.16,454 L596,458 L596,457.3516 A10,10 0 0 0 606,467.3516 L1073,467.3516 A10,10 0 0 0 1083,457.3516 L1083,451 L1073,441 L606,441 A10,10 0 0 0 596,451 " fill="#FEFFDD" style="stroke:#181818;stroke-width:0.5;"/><path d="M1073,441 L1073,446 A5,5 0 0 0 1078,451 L1083,451 L1073,441 " fill="#FEFFDD" style="stroke:#181818;stroke-width:0.5;"/><text fill="#000000" font-family="sans-serif" font-size="13" lengthAdjust="spacing" textLength="466" x="602" y="459.4951">Balance of the Prosumer in kw/h, positive values lead to buy energy from the grid</text></g><g id="elem_GMN24"><path d="M709,623 L709,622 L451.13,626 L709,630 L709,629.3516 A10,10 0 0 0 719,639.3516 L960,639.3516 A10,10 0 0 0 970,629.3516 L970,623 L960,613 L719,613 A10,10 0 0 0 709,623 " fill="#FEFFDD" style="stroke:#181818;stroke-width:0.5;"/><path d="M960,613 L960,618 A5,5 0 0 0 965,623 L970,623 L960,613 " fill="#FEFFDD" style="stroke:#181818;stroke-width:0.5;"/><text fill="#000000" font-family="sans-serif" font-size="13" lengthAdjust="spacing" textLength="240" x="715" y="631.4951">Energy required by the user in the interval</text></g><!--class PhotovoltaicEnergy--><g id="elem_PhotovoltaicEnergy"><rect codeLine="97" fill="#BADFDB" height="65.7969" id="PhotovoltaicEnergy" rx="10" ry="10" style="stroke:#FFFFFF;stroke-width:0.5;" width="128" x="348" y="940"/><text fill="#000000" font-family="sans-serif" font-size="12" font-style="italic" lengthAdjust="spacing" textLength="43" x="390.5" y="957.457">&#171;entity&#187;</text><text fill="#000000" font-family="sans-serif" font-size="12" font-style="italic" lengthAdjust="spacing" textLength="35" x="394.5" y="972.5508">&#171;root&#187;</text><text fill="#000000" font-family="sans-serif" font-size="14" lengthAdjust="spacing" textLength="122" x="351" y="989.7207">PhotovoltaicEnergy</text><line style="stroke:#FFFFFF;stroke-width:0.5;" x1="349" x2="475" y1="997.7969" y2="997.7969"/></g><!--class PhotovoltaicEnergyId--><g id="elem_PhotovoltaicEnergyId"><rect codeLine="98" fill="#BADFDB" height="50.7031" id="PhotovoltaicEnergyId" rx="10" ry="10" style="stroke:#FFFFFF;stroke-width:0.5;" width="139" x="770" y="1072.5"/><text fill="#000000" font-family="sans-serif" font-size="12" font-style="italic" lengthAdjust="spacing" textLength="27" x="826" y="1089.957">&#171;vo&#187;</text><text fill="#000000" font-family="sans-serif" font-size="14" lengthAdjust="spacing" textLength="133" x="773" y="1107.127">PhotovoltaicEnergyId</text><line style="stroke:#FFFFFF;stroke-width:0.5;" x1="771" x2="908" y1="1115.2031" y2="1115.2031"/></g><!--class PhotovoltaicEnergyLoad--><g id="elem_PhotovoltaicEnergyLoad"><rect codeLine="100" fill="#BADFDB" height="50.7031" id="PhotovoltaicEnergyLoad" rx="10" ry="10" style="stroke:#FFFFFF;stroke-width:0.5;" width="160" x="759.5" y="986.5"/><text fill="#000000" font-family="sans-serif" font-size="12" font-style="italic" lengthAdjust="spacing" textLength="27" x="826" y="1003.957">&#171;vo&#187;</text><text fill="#000000" font-family="sans-serif" font-size="14" lengthAdjust="spacing" textLength="154" x="762.5" y="1021.127">PhotovoltaicEnergyLoad</text><line style="stroke:#FFFFFF;stroke-width:0.5;" x1="760.5" x2="918.5" y1="1029.2031" y2="1029.2031"/></g><!--class PhotovoltaicEnergyBattery--><g id="elem_PhotovoltaicEnergyBattery"><rect codeLine="101" fill="#BADFDB" height="50.7031" id="PhotovoltaicEnergyBattery" rx="10" ry="10" style="stroke:#FFFFFF;stroke-width:0.5;" width="173" x="753" y="900.5"/><text fill="#000000" font-family="sans-serif" font-size="12" font-style="italic" lengthAdjust="spacing" textLength="27" x="826" y="917.957">&#171;vo&#187;</text><text fill="#000000" font-family="sans-serif" font-size="14" lengthAdjust="spacing" textLength="167" x="756" y="935.127">PhotovoltaicEnergyBattery</text><line style="stroke:#FFFFFF;stroke-width:0.5;" x1="754" x2="925" y1="943.2031" y2="943.2031"/></g><g id="elem_GMN32"><path d="M1354.5,923 L1354.5,922 L926.28,926 L1354.5,930 L1354.5,929.3516 A10,10 0 0 0 1364.5,939.3516 L1485.5,939.3516 A10,10 0 0 0 1495.5,929.3516 L1495.5,923 L1485.5,913 L1364.5,913 A10,10 0 0 0 1354.5,923 " fill="#FEFFDD" style="stroke:#181818;stroke-width:0.5;"/><path d="M1485.5,913 L1485.5,918 A5,5 0 0 0 1490.5,923 L1495.5,923 L1485.5,913 " fill="#FEFFDD" style="stroke:#181818;stroke-width:0.5;"/><text fill="#000000" font-family="sans-serif" font-size="13" lengthAdjust="spacing" textLength="120" x="1360.5" y="931.4951">Has value in results?</text></g><!--class BatteryEnergy--><g id="elem_BatteryEnergy"><rect codeLine="129" fill="#BADFDB" height="65.7969" id="BatteryEnergy" rx="10" ry="10" style="stroke:#FFFFFF;stroke-width:0.5;" width="96" x="364" y="207"/><text fill="#000000" font-family="sans-serif" font-size="12" font-style="italic" lengthAdjust="spacing" textLength="43" x="390.5" y="224.457">&#171;entity&#187;</text><text fill="#000000" font-family="sans-serif" font-size="12" font-style="italic" lengthAdjust="spacing" textLength="35" x="394.5" y="239.5508">&#171;root&#187;</text><text fill="#000000" font-family="sans-serif" font-size="14" lengthAdjust="spacing" textLength="90" x="367" y="256.7207">BatteryEnergy</text><line style="stroke:#FFFFFF;stroke-width:0.5;" x1="365" x2="459" y1="264.7969" y2="264.7969"/></g><!--class BatteryEnergyId--><g id="elem_BatteryEnergyId"><rect codeLine="130" fill="#BADFDB" height="50.7031" id="BatteryEnergyId" rx="10" ry="10" style="stroke:#FFFFFF;stroke-width:0.5;" width="107" x="786" y="300.5"/><text fill="#000000" font-family="sans-serif" font-size="12" font-style="italic" lengthAdjust="spacing" textLength="27" x="826" y="317.957">&#171;vo&#187;</text><text fill="#000000" font-family="sans-serif" font-size="14" lengthAdjust="spacing" textLength="101" x="789" y="335.127">BatteryEnergyId</text><line style="stroke:#FFFFFF;stroke-width:0.5;" x1="787" x2="892" y1="343.2031" y2="343.2031"/></g><!--class BatteryEnergyState--><g id="elem_BatteryEnergyState"><rect codeLine="131" fill="#BADFDB" height="50.7031" id="BatteryEnergyState" rx="10" ry="10" style="stroke:#FFFFFF;stroke-width:0.5;" width="129" x="775" y="214.5"/><text fill="#000000" font-family="sans-serif" font-size="12" font-style="italic" lengthAdjust="spacing" textLength="27" x="826" y="231.957">&#171;vo&#187;</text><text fill="#000000" font-family="sans-serif" font-size="14" lengthAdjust="spacing" textLength="123" x="778" y="249.127">BatteryEnergyState</text><line style="stroke:#FFFFFF;stroke-width:0.5;" x1="776" x2="903" y1="257.2031" y2="257.2031"/></g><!--class BatteryEnergyCharge--><g id="elem_BatteryEnergyCharge"><rect codeLine="132" fill="#BADFDB" height="50.7031" id="BatteryEnergyCharge" rx="10" ry="10" style="stroke:#FFFFFF;stroke-width:0.5;" width="143" x="768" y="128.5"/><text fill="#000000" font-family="sans-serif" font-size="12" font-style="italic" lengthAdjust="spacing" textLength="27" x="826" y="145.957">&#171;vo&#187;</text><text fill="#000000" font-family="sans-serif" font-size="14" lengthAdjust="spacing" textLength="137" x="771" y="163.127">BatteryEnergyCharge</text><line style="stroke:#FFFFFF;stroke-width:0.5;" x1="769" x2="910" y1="171.2031" y2="171.2031"/></g><g id="elem_GMN44"><path d="M1202,151 L1202,150 L911.17,154 L1202,158 L1202,157.3516 A10,10 0 0 0 1212,167.3516 L1638,167.3516 A10,10 0 0 0 1648,157.3516 L1648,151 L1638,141 L1212,141 A10,10 0 0 0 1202,151 " fill="#FEFFDD" style="stroke:#181818;stroke-width:0.5;"/><path d="M1638,141 L1638,146 A5,5 0 0 0 1643,151 L1648,151 L1638,141 " fill="#FEFFDD" style="stroke:#181818;stroke-width:0.5;"/><text fill="#000000" font-family="sans-serif" font-size="13" lengthAdjust="spacing" textLength="425" x="1208" y="159.4951">this value will be equal to the value provided by PhotovoltaicEnergyBattery</text></g><!--class BatteryEnergyDischarge--><g id="elem_BatteryEnergyDischarge"><rect codeLine="136" fill="#BADFDB" height="50.7031" id="BatteryEnergyDischarge" rx="10" ry="10" style="stroke:#FFFFFF;stroke-width:0.5;" width="160" x="759.5" y="42.5"/><text fill="#000000" font-family="sans-serif" font-size="12" font-style="italic" lengthAdjust="spacing" textLength="27" x="826" y="59.957">&#171;vo&#187;</text><text fill="#000000" font-family="sans-serif" font-size="14" lengthAdjust="spacing" textLength="154" x="762.5" y="77.127">BatteryEnergyDischarge</text><line style="stroke:#FFFFFF;stroke-width:0.5;" x1="760.5" x2="918.5" y1="85.2031" y2="85.2031"/></g><!--class Battery--><g id="elem_Battery"><rect codeLine="162" fill="#BADFDB" height="65.7969" id="Battery" rx="10" ry="10" style="stroke:#FFFFFF;stroke-width:0.5;" width="51" x="192.5" y="1365"/><text fill="#000000" font-family="sans-serif" font-size="12" font-style="italic" lengthAdjust="spacing" textLength="43" x="196.5" y="1382.457">&#171;entity&#187;</text><text fill="#000000" font-family="sans-serif" font-size="12" font-style="italic" lengthAdjust="spacing" textLength="35" x="200.5" y="1397.5508">&#171;root&#187;</text><text fill="#000000" font-family="sans-serif" font-size="14" lengthAdjust="spacing" textLength="45" x="195.5" y="1414.7207">Battery</text><line style="stroke:#FFFFFF;stroke-width:0.5;" x1="193.5" x2="242.5" y1="1422.7969" y2="1422.7969"/></g><!--class BatteryId--><g id="elem_BatteryId"><rect codeLine="163" fill="#BADFDB" height="50.7031" id="BatteryId" rx="10" ry="10" style="stroke:#FFFFFF;stroke-width:0.5;" width="62" x="381" y="1630.5"/><text fill="#000000" font-family="sans-serif" font-size="12" font-style="italic" lengthAdjust="spacing" textLength="27" x="398.5" y="1647.957">&#171;vo&#187;</text><text fill="#000000" font-family="sans-serif" font-size="14" lengthAdjust="spacing" textLength="56" x="384" y="1665.127">BatteryId</text><line style="stroke:#FFFFFF;stroke-width:0.5;" x1="382" x2="442" y1="1673.2031" y2="1673.2031"/></g><!--class BatteryName--><g id="elem_BatteryName"><rect codeLine="164" fill="#BADFDB" height="50.7031" id="BatteryName" rx="10" ry="10" style="stroke:#FFFFFF;stroke-width:0.5;" width="87" x="368.5" y="1544.5"/><text fill="#000000" font-family="sans-serif" font-size="12" font-style="italic" lengthAdjust="spacing" textLength="27" x="398.5" y="1561.957">&#171;vo&#187;</text><text fill="#000000" font-family="sans-serif" font-size="14" lengthAdjust="spacing" textLength="81" x="371.5" y="1579.127">BatteryName</text><line style="stroke:#FFFFFF;stroke-width:0.5;" x1="369.5" x2="454.5" y1="1587.2031" y2="1587.2031"/></g><!--class MaxCapacity--><g id="elem_MaxCapacity"><rect codeLine="165" fill="#BADFDB" height="50.7031" id="MaxCapacity" rx="10" ry="10" style="stroke:#FFFFFF;stroke-width:0.5;" width="86" x="369" y="1458.5"/><text fill="#000000" font-family="sans-serif" font-size="12" font-style="italic" lengthAdjust="spacing" textLength="27" x="398.5" y="1475.957">&#171;vo&#187;</text><text fill="#000000" font-family="sans-serif" font-size="14" lengthAdjust="spacing" textLength="80" x="372" y="1493.127">MaxCapacity</text><line style="stroke:#FFFFFF;stroke-width:0.5;" x1="370" x2="454" y1="1501.2031" y2="1501.2031"/></g><!--class EfficiencyCharge--><g id="elem_EfficiencyCharge"><rect codeLine="166" fill="#BADFDB" height="50.7031" id="EfficiencyCharge" rx="10" ry="10" style="stroke:#FFFFFF;stroke-width:0.5;" width="113" x="355.5" y="1372.5"/><text fill="#000000" font-family="sans-serif" font-size="12" font-style="italic" lengthAdjust="spacing" textLength="27" x="398.5" y="1389.957">&#171;vo&#187;</text><text fill="#000000" font-family="sans-serif" font-size="14" lengthAdjust="spacing" textLength="107" x="358.5" y="1407.127">EfficiencyCharge</text><line style="stroke:#FFFFFF;stroke-width:0.5;" x1="356.5" x2="467.5" y1="1415.2031" y2="1415.2031"/></g><!--class EfficiencyDischarge--><g id="elem_EfficiencyDischarge"><rect codeLine="167" fill="#BADFDB" height="50.7031" id="EfficiencyDischarge" rx="10" ry="10" style="stroke:#FFFFFF;stroke-width:0.5;" width="130" x="347" y="1286.5"/><text fill="#000000" font-family="sans-serif" font-size="12" font-style="italic" lengthAdjust="spacing" textLength="27" x="398.5" y="1303.957">&#171;vo&#187;</text><text fill="#000000" font-family="sans-serif" font-size="14" lengthAdjust="spacing" textLength="124" x="350" y="1321.127">EfficiencyDischarge</text><line style="stroke:#FFFFFF;stroke-width:0.5;" x1="348" x2="476" y1="1329.2031" y2="1329.2031"/></g><!--class MinimalSOC--><g id="elem_MinimalSOC"><rect codeLine="168" fill="#BADFDB" height="50.7031" id="MinimalSOC" rx="10" ry="10" style="stroke:#FFFFFF;stroke-width:0.5;" width="83" x="370.5" y="1200.5"/><text fill="#000000" font-family="sans-serif" font-size="12" font-style="italic" lengthAdjust="spacing" textLength="27" x="398.5" y="1217.957">&#171;vo&#187;</text><text fill="#000000" font-family="sans-serif" font-size="14" lengthAdjust="spacing" textLength="77" x="373.5" y="1235.127">MinimalSOC</text><line style="stroke:#FFFFFF;stroke-width:0.5;" x1="371.5" x2="452.5" y1="1243.2031" y2="1243.2031"/></g><g id="elem_GMN68"><path d="M709,1481 L709,1480 L455.35,1484 L709,1488 L709,1487.3516 A10,10 0 0 0 719,1497.3516 L960,1497.3516 A10,10 0 0 0 970,1487.3516 L970,1481 L960,1471 L719,1471 A10,10 0 0 0 709,1481 " fill="#FEFFDD" style="stroke:#181818;stroke-width:0.5;"/><path d="M960,1471 L960,1476 A5,5 0 0 0 965,1481 L970,1481 L960,1471 " fill="#FEFFDD" style="stroke:#181818;stroke-width:0.5;"/><text fill="#000000" font-family="sans-serif" font-size="13" lengthAdjust="spacing" textLength="240" x="715" y="1489.4951">Represents the Cap values for each ESS.</text></g><g id="elem_GMN71"><path d="M686.5,1395 L686.5,1394 L468.63,1398 L686.5,1402 L686.5,1401.3516 A10,10 0 0 0 696.5,1411.3516 L982.5,1411.3516 A10,10 0 0 0 992.5,1401.3516 L992.5,1395 L982.5,1385 L696.5,1385 A10,10 0 0 0 686.5,1395 " fill="#FEFFDD" style="stroke:#181818;stroke-width:0.5;"/><path d="M982.5,1385 L982.5,1390 A5,5 0 0 0 987.5,1395 L992.5,1395 L982.5,1385 " fill="#FEFFDD" style="stroke:#181818;stroke-width:0.5;"/><text fill="#000000" font-family="sans-serif" font-size="13" lengthAdjust="spacing" textLength="285" x="692.5" y="1403.4951">Represents the Eta values for charging efficiency.</text></g><g id="elem_GMN74"><path d="M610.5,1309 L610.5,1308 L477.16,1312 L610.5,1316 L610.5,1315.3516 A10,10 0 0 0 620.5,1325.3516 L1058.5,1325.3516 A10,10 0 0 0 1068.5,1315.3516 L1068.5,1309 L1058.5,1299 L620.5,1299 A10,10 0 0 0 610.5,1309 " fill="#FEFFDD" style="stroke:#181818;stroke-width:0.5;"/><path d="M1058.5,1299 L1058.5,1304 A5,5 0 0 0 1063.5,1309 L1068.5,1309 L1058.5,1299 " fill="#FEFFDD" style="stroke:#181818;stroke-width:0.5;"/><text fill="#000000" font-family="sans-serif" font-size="13" lengthAdjust="spacing" textLength="437" x="616.5" y="1317.4951">Represents the Eta values for discharging efficiency (if modeled separately).</text></g><g id="elem_GMN77"><path d="M537,1223 L537,1222 L453.8,1226 L537,1230 L537,1229.3516 A10,10 0 0 0 547,1239.3516 L1132,1239.3516 A10,10 0 0 0 1142,1229.3516 L1142,1223 L1132,1213 L547,1213 A10,10 0 0 0 537,1223 " fill="#FEFFDD" style="stroke:#181818;stroke-width:0.5;"/><path d="M1132,1213 L1132,1218 A5,5 0 0 0 1137,1223 L1142,1223 L1132,1213 " fill="#FEFFDD" style="stroke:#181818;stroke-width:0.5;"/><text fill="#000000" font-family="sans-serif" font-size="13" lengthAdjust="spacing" textLength="584" x="543" y="1231.4951">Could represent a minimum state of charge (not explicitly provided in your data but could be relevant).</text></g><!--link Prosumer to ProsumerId--><g id="link_Prosumer_ProsumerId"><path codeLine="30" d="M89.37,320.43 C115.32,321.57 145.5856,322.8903 172.8256,324.0703 " fill="none" id="Prosumer-to-ProsumerId" style="stroke:#FFC5A1;stroke-width:1.0;"/><polygon fill="#FFC5A1" points="178.82,324.33,170.0015,319.9442,173.8247,324.1136,169.6553,327.9367,178.82,324.33" style="stroke:#FFC5A1;stroke-width:1.0;"/><text fill="#000000" font-family="sans-serif" font-size="13" lengthAdjust="spacing" textLength="7" x="163.9509" y="339.052">1</text></g><!--link Prosumer to ProsumerDescription--><g id="link_Prosumer_ProsumerDescription"><path codeLine="31" d="M89.37,302.82 C111.1,292.12 134.6771,280.5203 159.5171,268.2903 " fill="none" id="Prosumer-to-ProsumerDescription" style="stroke:#FFC5A1;stroke-width:1.0;"/><polygon fill="#FFC5A1" points="164.9,265.64,155.0587,266.0268,160.4142,267.8486,158.5925,273.2041,164.9,265.64" style="stroke:#FFC5A1;stroke-width:1.0;"/><text fill="#000000" font-family="sans-serif" font-size="13" lengthAdjust="spacing" textLength="22" x="128.8781" y="286.5648">0..1</text></g><!--link Prosumer to Profile--><g id="link_Prosumer_Profile"><path codeLine="48" d="M76.66,352.17 C107.48,402.85 162.8332,493.9031 193.6732,544.6331 " fill="none" id="Prosumer-to-Profile" style="stroke:#FFC5A1;stroke-width:1.0;"/><polygon fill="#FFC5A1" points="196.79,549.76,195.5328,539.9917,194.1927,545.4875,188.6968,544.1474,196.79,549.76" style="stroke:#FFC5A1;stroke-width:1.0;"/><text fill="#000000" font-family="sans-serif" font-size="13" lengthAdjust="spacing" textLength="7" x="184.9252" y="539.1906">1</text></g><!--link Profile to ProfileTimeStamp--><g id="link_Profile_ProfileTimeStamp"><path codeLine="49" d="M241.2,603.71 C261.7,622.21 293.5,649.34 324,669 C333.49,675.12 338.6391,678.2266 348.9391,683.5466 " fill="none" id="Profile-to-ProfileTimeStamp" style="stroke:#FFC5A1;stroke-width:1.0;"/><polygon fill="#FFC5A1" points="354.27,686.3,348.1093,678.6159,349.8276,684.0055,344.438,685.7238,354.27,686.3" style="stroke:#FFC5A1;stroke-width:1.0;"/><text fill="#000000" font-family="sans-serif" font-size="13" lengthAdjust="spacing" textLength="7" x="338.6595" y="679.1016">1</text></g><!--link Profile to ProfileId--><g id="link_Profile_ProfileId"><path codeLine="50" d="M232.47,616.27 C249.15,654.02 280.76,715.45 324,755 C341.03,770.58 359.1494,779.6476 377.5194,786.7076 " fill="none" id="Profile-to-ProfileId" style="stroke:#FFC5A1;stroke-width:1.0;"/><polygon fill="#FFC5A1" points="383.12,788.86,376.154,781.8976,378.4528,787.0663,373.2841,789.3651,383.12,788.86" style="stroke:#FFC5A1;stroke-width:1.0;"/><text fill="#000000" font-family="sans-serif" font-size="13" lengthAdjust="spacing" textLength="7" x="368.6321" y="802.1665">1</text></g><!--link Profile to ProfileLoad--><g id="link_Profile_ProfileLoad"><path codeLine="51" d="M241.02,587.93 C273.14,595.12 327.4152,607.278 366.8652,616.118 " fill="none" id="Profile-to-ProfileLoad" style="stroke:#FFC5A1;stroke-width:1.0;"/><polygon fill="#FFC5A1" points="372.72,617.43,364.8124,611.5589,367.841,616.3367,363.0632,619.3653,372.72,617.43" style="stroke:#FFC5A1;stroke-width:1.0;"/><text fill="#000000" font-family="sans-serif" font-size="13" lengthAdjust="spacing" textLength="7" x="358.0998" y="630.8813">1</text></g><!--link Profile to SoldEnergy--><g id="link_Profile_SoldEnergy"><path codeLine="53" d="M241.02,578.07 C273.04,570.9 327.0449,558.8005 366.4949,549.9705 " fill="none" id="Profile-to-SoldEnergy" style="stroke:#FFC5A1;stroke-width:1.0;"/><polygon fill="#FFC5A1" points="372.35,548.66,362.6936,546.7224,367.4707,549.7521,364.441,554.5292,372.35,548.66" style="stroke:#FFC5A1;stroke-width:1.0;"/><text fill="#000000" font-family="sans-serif" font-size="13" lengthAdjust="spacing" textLength="7" x="357.3942" y="565.2866">1</text></g><!--link Profile to BoughtEnergy--><g id="link_Profile_BoughtEnergy"><path codeLine="54" d="M241.2,562.29 C261.7,543.79 293.5,516.66 324,497 C336.46,488.97 345.2548,484.0158 358.4848,477.5158 " fill="none" id="Profile-to-BoughtEnergy" style="stroke:#FFC5A1;stroke-width:1.0;"/><polygon fill="#FFC5A1" points="363.87,474.87,354.0284,475.2485,359.3824,477.0748,357.5561,482.4288,363.87,474.87" style="stroke:#FFC5A1;stroke-width:1.0;"/><text fill="#000000" font-family="sans-serif" font-size="13" lengthAdjust="spacing" textLength="7" x="348.9642" y="492.8355">1</text></g><!--link PhotovoltaicEnergy to PhotovoltaicEnergyId--><g id="link_PhotovoltaicEnergy_PhotovoltaicEnergyId"><path codeLine="108" d="M452.93,1006.03 C476.09,1023.41 506.6,1043.45 537,1055 C613.37,1084 701.3774,1093.363 763.9174,1096.463 " fill="none" id="PhotovoltaicEnergy-to-PhotovoltaicEnergyId" style="stroke:#FFC5A1;stroke-width:1.0;"/><polygon fill="#FFC5A1" points="769.91,1096.76,761.1191,1092.3193,764.9161,1096.5125,760.723,1100.3095,769.91,1096.76" style="stroke:#FFC5A1;stroke-width:1.0;"/><text fill="#000000" font-family="sans-serif" font-size="13" lengthAdjust="spacing" textLength="7" x="754.9158" y="1111.03">1</text></g><!--link PhotovoltaicEnergy to PhotovoltaicEnergyLoad--><g id="link_PhotovoltaicEnergy_PhotovoltaicEnergyLoad"><path codeLine="110" d="M476.24,978.8 C551.6,985.7 671.575,996.7026 753.335,1004.1926 " fill="none" id="PhotovoltaicEnergy-to-PhotovoltaicEnergyLoad" style="stroke:#FFC5A1;stroke-width:1.0;"/><polygon fill="#FFC5A1" points="759.31,1004.74,750.7124,999.9356,754.3308,1004.2839,749.9826,1007.9023,759.31,1004.74" style="stroke:#FFC5A1;stroke-width:1.0;"/><text fill="#000000" font-family="sans-serif" font-size="13" lengthAdjust="spacing" textLength="7" x="744.5948" y="1018.3332">1</text></g><!--link PhotovoltaicEnergy to PhotovoltaicEnergyBattery--><g id="link_PhotovoltaicEnergy_PhotovoltaicEnergyBattery"><path codeLine="111" d="M476.24,966.01 C549.63,957.91 665.0463,945.159 746.8563,936.119 " fill="none" id="PhotovoltaicEnergy-to-PhotovoltaicEnergyBattery" style="stroke:#FFC5A1;stroke-width:1.0;"/><polygon fill="#FFC5A1" points="752.82,935.46,743.4351,932.4727,747.8502,936.0092,744.3138,940.4243,752.82,935.46" style="stroke:#FFC5A1;stroke-width:1.0;"/><text fill="#000000" font-family="sans-serif" font-size="13" lengthAdjust="spacing" textLength="7" x="738.0702" y="950.4834">1</text></g><!--link Profile to PhotovoltaicEnergy--><g id="link_Profile_PhotovoltaicEnergy"><path codeLine="113" d="M230.31,616.36 C247.74,666.27 283.44,762.76 324,840 C342.67,875.54 364.7554,908.7514 383.3354,935.0214 " fill="none" id="Profile-to-PhotovoltaicEnergy" style="stroke:#FFC5A1;stroke-width:1.0;"/><polygon fill="#FFC5A1" points="386.8,939.92,384.8688,930.2623,383.9128,935.8378,378.3373,934.8819,386.8,939.92" style="stroke:#FFC5A1;stroke-width:1.0;"/><text fill="#000000" font-family="sans-serif" font-size="13" lengthAdjust="spacing" textLength="7" x="373.8806" y="928.9996">1</text></g><!--link BatteryEnergy to BatteryEnergyId--><g id="link_BatteryEnergy_BatteryEnergyId"><path codeLine="148" d="M460.06,258.71 C482.96,267.2 511.09,276.72 537,283 C622.94,303.83 719.3073,315.2185 779.9273,321.0185 " fill="none" id="BatteryEnergy-to-BatteryEnergyId" style="stroke:#FFC5A1;stroke-width:1.0;"/><polygon fill="#FFC5A1" points="785.9,321.59,777.3219,316.751,780.9227,321.1138,776.5599,324.7146,785.9,321.59" style="stroke:#FFC5A1;stroke-width:1.0;"/><text fill="#000000" font-family="sans-serif" font-size="13" lengthAdjust="spacing" textLength="7" x="770.8703" y="335.6356">1</text></g><!--link BatteryEnergy to BatteryEnergyState--><g id="link_BatteryEnergy_BatteryEnergyState"><path codeLine="149" d="M460.16,240 C536.87,240 682.73,240 768.9,240 " fill="none" id="BatteryEnergy-to-BatteryEnergyState" style="stroke:#FFC5A1;stroke-width:1.0;"/><polygon fill="#FFC5A1" points="774.9,240,765.9,236,769.9,240,765.9,244,774.9,240" style="stroke:#FFC5A1;stroke-width:1.0;"/><text fill="#000000" font-family="sans-serif" font-size="13" lengthAdjust="spacing" textLength="7" x="760.0259" y="254.4576">1</text></g><!--link BatteryEnergy to BatteryEnergyCharge--><g id="link_BatteryEnergy_BatteryEnergyCharge"><path codeLine="150" d="M460.06,221.29 C482.96,212.8 511.09,203.28 537,197 C614.85,178.14 700.1814,167.1527 761.7514,160.8327 " fill="none" id="BatteryEnergy-to-BatteryEnergyCharge" style="stroke:#FFC5A1;stroke-width:1.0;"/><polygon fill="#FFC5A1" points="767.72,160.22,758.3586,157.1599,762.7461,160.7306,759.1755,165.1181,767.72,160.22" style="stroke:#FFC5A1;stroke-width:1.0;"/><text fill="#000000" font-family="sans-serif" font-size="13" lengthAdjust="spacing" textLength="7" x="752.9568" y="175.215">1</text></g><!--link BatteryEnergy to BatteryEnergyDischarge--><g id="link_BatteryEnergy_BatteryEnergyDischarge"><path codeLine="151" d="M435.03,206.73 C457.02,176.44 493.73,133.17 537,111 C606.41,75.44 689.931,66.6969 753.341,65.5669 " fill="none" id="BatteryEnergy-to-BatteryEnergyDischarge" style="stroke:#FFC5A1;stroke-width:1.0;"/><polygon fill="#FFC5A1" points="759.34,65.46,750.2702,61.621,754.3408,65.5491,750.4127,69.6197,759.34,65.46" style="stroke:#FFC5A1;stroke-width:1.0;"/><text fill="#000000" font-family="sans-serif" font-size="13" lengthAdjust="spacing" textLength="7" x="744.6276" y="79.4883">1</text></g><!--link Profile to BatteryEnergy--><g id="link_Profile_BatteryEnergy"><path codeLine="156" d="M237.58,549.8 C274.29,484.23 352.7587,344.0352 389.4787,278.4552 " fill="none" id="Profile-to-BatteryEnergy" style="stroke:#FFC5A1;stroke-width:1.0;"/><polygon fill="#FFC5A1" points="392.41,273.22,384.5229,279.1186,389.9672,277.5827,391.5031,283.027,392.41,273.22" style="stroke:#FFC5A1;stroke-width:1.0;"/><text fill="#000000" font-family="sans-serif" font-size="13" lengthAdjust="spacing" textLength="7" x="381.1528" y="294.3662">1</text></g><!--link Prosumer to Battery--><g id="link_Prosumer_Battery"><path codeLine="170" d="M61.44,352.18 C85.27,512.39 187.3773,1198.8653 211.1873,1358.9453 " fill="none" id="Prosumer-to-Battery" style="stroke:#FFC5A1;stroke-width:1.0;"/><polygon fill="#FFC5A1" points="212.07,1364.88,214.7024,1355.3895,211.3344,1359.9344,206.7894,1356.5664,212.07,1364.88" style="stroke:#FFC5A1;stroke-width:1.0;"/><text fill="#000000" font-family="sans-serif" font-size="13" lengthAdjust="spacing" textLength="7" x="203.1251" y="1353.9513">1</text></g><!--link Battery to BatteryId--><g id="link_Battery_BatteryId"><path codeLine="171" d="M227.78,1431.12 C241.45,1477.12 271.84,1560.59 324,1613 C339.81,1628.88 357.0537,1637.7589 375.3837,1644.6489 " fill="none" id="Battery-to-BatteryId" style="stroke:#FFC5A1;stroke-width:1.0;"/><polygon fill="#FFC5A1" points="381,1646.76,373.9829,1639.8491,376.3197,1645.0007,371.1681,1647.3376,381,1646.76" style="stroke:#FFC5A1;stroke-width:1.0;"/><text fill="#000000" font-family="sans-serif" font-size="13" lengthAdjust="spacing" textLength="7" x="366.0219" y="1660.0433">1</text></g><!--link Battery to BatteryName--><g id="link_Battery_BatteryName"><path codeLine="172" d="M239.92,1431.02 C259.1,1459.28 289.69,1499.63 324,1527 C337.17,1537.51 347.8906,1543.8377 362.6906,1550.7277 " fill="none" id="Battery-to-BatteryName" style="stroke:#FFC5A1;stroke-width:1.0;"/><polygon fill="#FFC5A1" points="368.13,1553.26,361.659,1545.8353,363.5971,1551.1498,358.2826,1553.0879,368.13,1553.26" style="stroke:#FFC5A1;stroke-width:1.0;"/><text fill="#000000" font-family="sans-serif" font-size="13" lengthAdjust="spacing" textLength="7" x="353.5804" y="1565.4139">1</text></g><!--link Battery to MaxCapacity--><g id="link_Battery_MaxCapacity"><path codeLine="173" d="M243.71,1409.07 C275.31,1423.22 325.0442,1445.4973 363.3542,1462.6573 " fill="none" id="Battery-to-MaxCapacity" style="stroke:#FFC5A1;stroke-width:1.0;"/><polygon fill="#FFC5A1" points="368.83,1465.11,362.2515,1457.7804,364.2669,1463.0661,358.9812,1465.0814,368.83,1465.11" style="stroke:#FFC5A1;stroke-width:1.0;"/><text fill="#000000" font-family="sans-serif" font-size="13" lengthAdjust="spacing" textLength="7" x="354.1003" y="1476.8552">1</text></g><!--link Battery to EfficiencyCharge--><g id="link_Battery_EfficiencyCharge"><path codeLine="174" d="M243.71,1398 C271.76,1398 312.43,1398 349.35,1398 " fill="none" id="Battery-to-EfficiencyCharge" style="stroke:#FFC5A1;stroke-width:1.0;"/><polygon fill="#FFC5A1" points="355.35,1398,346.35,1394,350.35,1398,346.35,1402,355.35,1398" style="stroke:#FFC5A1;stroke-width:1.0;"/><text fill="#000000" font-family="sans-serif" font-size="13" lengthAdjust="spacing" textLength="7" x="340.6433" y="1412.5617">1</text></g><!--link Battery to EfficiencyDischarge--><g id="link_Battery_EfficiencyDischarge"><path codeLine="175" d="M243.71,1386.93 C271.36,1374.55 311.6045,1356.5233 348.2745,1340.0933 " fill="none" id="Battery-to-EfficiencyDischarge" style="stroke:#FFC5A1;stroke-width:1.0;"/><polygon fill="#FFC5A1" points="353.75,1337.64,343.9012,1337.6696,349.1871,1339.6844,347.1723,1344.9703,353.75,1337.64" style="stroke:#FFC5A1;stroke-width:1.0;"/><text fill="#000000" font-family="sans-serif" font-size="13" lengthAdjust="spacing" textLength="7" x="333.2422" y="1358.5648">1</text></g><!--link Battery to MinimalSOC--><g id="link_Battery_MinimalSOC"><path codeLine="176" d="M239.92,1364.98 C259.1,1336.72 289.69,1296.37 324,1269 C337.83,1257.97 349.4924,1251.243 364.8824,1244.213 " fill="none" id="Battery-to-MinimalSOC" style="stroke:#FFC5A1;stroke-width:1.0;"/><polygon fill="#FFC5A1" points="370.34,1241.72,360.4917,1241.8211,365.792,1243.7975,363.8156,1249.0978,370.34,1241.72" style="stroke:#FFC5A1;stroke-width:1.0;"/><text fill="#000000" font-family="sans-serif" font-size="13" lengthAdjust="spacing" textLength="7" x="355.5781" y="1259.3477">1</text></g><!--SRC=[nLZRRkCs47tNLmpIXoH0DvSMY-u2ZelOww8BxBR1kaMVAMba4Q58bwBiLTFyUuUwcP8fNnxQwadHEJCyCvmPCavvZ11n7GaCKlkUS1Hn7bp2G_s0OAKgJFldmqEGFtEvPffb4BBeUQLL8UEv4ah3DqcKl4VcC0mt0cTAnwY_r3mjKSFzso7d9oNDal-5yFsT0qM2vVcZCPg7XS6FaP8Lvyvd_GlB41urPm9cWeJvEAtCT-pz3-ySGXL3L6lxplMU6zIeJBd6-MmGR994Rzbz830nO1HelaeDn5nZPBYImJ0AU0c2HwtLjcTTfwR-z4VA3GR3PK8M9t4u_3oPB3OepNGA-NCPYWBt2KlK6nuXKJwhA68vby7hkDercRCLmiLambOQdhJAYmprT7hn4W0zTGpjvyc45kUcd4ud4wqKwNXvzT0-nfF9Hes07p2FD5_RvJjMHMi9yERD52xkBnnt7lpkviQXE4uhBeNi2ItX0lSZiryzWTMYNlUvOz5Px3UUuTAmR3rE-QHOvm0SUAb4lA12N9KUsvagQECyi5G6wrsjexBFZ0ac8mILW4bnbpSkuNbxctuBQvLpmpS86qObb8D05jlg28iIi5e34gsoodgbUTnaOdINR5WjQD-7M9ULGwJTBljGcxN0IzZbpGkxcQjBevyscoLt3OlMRD3uPq6T4aDOLgaeyZg9zfrBcX2KlegFCguzThKNt5x2eFv-p_VQoduwgV8iqLjs5h03S0HQP8oB4Uo9NhOqXiRWL4diDwZztEMrbkJ_RXNvaKgG7shrZA1MJWNDLPOLaZBMm_srMI6lS7dhsv37EEEIvqOpeuOxqyEER56FIql_FUqKUSQGbQ-afnXsmEYKTJZEEeJP08VZBbL6RPGmZ4TDGGz7dyDe9ylXyRvduDJaGPuxymuIPynGNvLzhuDc7JEgk3-pl9vgjb4rveKm-O-39hMrK9NBdgVTr76W9oPHs1IVOTEc9pZVg9j2PrcrEV3Fq3swBSpzZcYSN2sMo-j1iNGRSx126fPtL3LORrhvkzRTp-PzY3MJPmIjva_GD8O_Hcz7zB3JGjthWn467Ny6Zv7cATEhFijxm9kKjrM-vK90Y4175Ls0wGotXrCDhRNQqCs-EhuEDysee0yyZ_gQsjuvH9vnoNHvF8nGARfvo4OkQQUTacehCARjid64pVPIj77ZdClLOSdpVqr2V_tsK77Ai6lIVZMsesF8wf6wWN4YiwgdKybrJavbT_jemplRgCxyUSfgcogZtYkSQn5Krwl_Ut3jqC_iwvoH7FBjGHT9mYEEClBrzf3IvH1ywz0T8sDY-UiS_fFnwSETMBtuCDeZf5sXUHVR1Uox1ZXQwYBzWciwxscNywfn2Mp_lKdeMeOiIe7AuwPt5_0vzWOnSBump7NUJWR0plQSTVfvEBAMCmYTvU2A9v2f66boGOxszmU3ehokPHpKiSjpCnNdgX0ntPqQ5S30tc-pmlugGbwjJLEcL-G9yEjQa0eZojs9GtUlKXKabf7ui30GLJxfdDAaSCEakHucYFhw7m00]--></g></svg>