<?xml version="1.0" encoding="us-ascii" standalone="no"?><svg xmlns="http://www.w3.org/2000/svg" xmlns:xlink="http://www.w3.org/1999/xlink" contentStyleType="text/css" height="2745px" preserveAspectRatio="none" style="width:1071px;height:2745px;background:#FFFFFF;" version="1.1" viewBox="0 0 1071 2745" width="1071px" zoomAndPan="magnify"><defs/><g><!--cluster Energy Community Platform--><g id="cluster_Energy Community Platform"><rect fill="none" height="2732" rx="2.5" ry="2.5" style="stroke:#181818;stroke-width:1.0;" width="721" x="344" y="7"/><text fill="#000000" font-family="sans-serif" font-size="14" font-weight="bold" lengthAdjust="spacing" textLength="192" x="608.5" y="23.5332">Energy Community Platform</text></g><!--cluster Admin Management--><g id="cluster_Admin Management"><path d="M370.5,51 L509.5,51 A3.75,3.75 0 0 1 512,53.5 L519,74.6094 L664.5,74.6094 A2.5,2.5 0 0 1 667,77.1094 L667,458.5 A2.5,2.5 0 0 1 664.5,461 L370.5,461 A2.5,2.5 0 0 1 368,458.5 L368,53.5 A2.5,2.5 0 0 1 370.5,51 " fill="none" style="stroke:#000000;stroke-width:1.5;"/><line style="stroke:#000000;stroke-width:1.5;" x1="368" x2="519" y1="74.6094" y2="74.6094"/><text fill="#000000" font-family="sans-serif" font-size="14" font-weight="bold" lengthAdjust="spacing" textLength="138" x="372" y="67.5332">Admin Management</text></g><!--cluster Account Management--><g id="cluster_Account Management"><path d="M394,485 L547,485 A3.75,3.75 0 0 1 549.5,487.5 L556.5,508.6094 L641,508.6094 A2.5,2.5 0 0 1 643.5,511.1094 L643.5,811.5 A2.5,2.5 0 0 1 641,814 L394,814 A2.5,2.5 0 0 1 391.5,811.5 L391.5,487.5 A2.5,2.5 0 0 1 394,485 " fill="none" style="stroke:#000000;stroke-width:1.5;"/><line style="stroke:#000000;stroke-width:1.5;" x1="391.5" x2="556.5" y1="508.6094" y2="508.6094"/><text fill="#000000" font-family="sans-serif" font-size="14" font-weight="bold" lengthAdjust="spacing" textLength="152" x="395.5" y="501.5332">Account Management</text></g><!--cluster Energy Management for Prosumer--><g id="cluster_Energy Management for Prosumer"><path d="M702.5,1105 L943.5,1105 A3.75,3.75 0 0 1 946,1107.5 L953,1128.6094 L1038.5,1128.6094 A2.5,2.5 0 0 1 1041,1131.1094 L1041,1840.5 A2.5,2.5 0 0 1 1038.5,1843 L702.5,1843 A2.5,2.5 0 0 1 700,1840.5 L700,1107.5 A2.5,2.5 0 0 1 702.5,1105 " fill="none" style="stroke:#000000;stroke-width:1.5;"/><line style="stroke:#000000;stroke-width:1.5;" x1="700" x2="953" y1="1128.6094" y2="1128.6094"/><text fill="#000000" font-family="sans-serif" font-size="14" font-weight="bold" lengthAdjust="spacing" textLength="240" x="704" y="1121.5332">Energy Management for Prosumer</text></g><!--cluster Community Management--><g id="cluster_Community Management"><path d="M706,1867 L879,1867 A3.75,3.75 0 0 1 881.5,1869.5 L888.5,1890.6094 L1035,1890.6094 A2.5,2.5 0 0 1 1037.5,1893.1094 L1037.5,2712.5 A2.5,2.5 0 0 1 1035,2715 L706,2715 A2.5,2.5 0 0 1 703.5,2712.5 L703.5,1869.5 A2.5,2.5 0 0 1 706,1867 " fill="none" style="stroke:#000000;stroke-width:1.5;"/><line style="stroke:#000000;stroke-width:1.5;" x1="703.5" x2="888.5" y1="1890.6094" y2="1890.6094"/><text fill="#000000" font-family="sans-serif" font-size="14" font-weight="bold" lengthAdjust="spacing" textLength="172" x="707.5" y="1883.5332">Community Management</text></g><!--cluster External Interactions--><g id="cluster_External Interactions"><path d="M484,838 L631,838 A3.75,3.75 0 0 1 633.5,840.5 L640.5,861.6094 L976,861.6094 A2.5,2.5 0 0 1 978.5,864.1094 L978.5,1078.5 A2.5,2.5 0 0 1 976,1081 L484,1081 A2.5,2.5 0 0 1 481.5,1078.5 L481.5,840.5 A2.5,2.5 0 0 1 484,838 " fill="none" style="stroke:#000000;stroke-width:1.5;"/><line style="stroke:#000000;stroke-width:1.5;" x1="481.5" x2="640.5" y1="861.6094" y2="861.6094"/><text fill="#000000" font-family="sans-serif" font-size="14" font-weight="bold" lengthAdjust="spacing" textLength="146" x="485.5" y="854.5332">External Interactions</text></g><g id="elem_UC1"><ellipse cx="517.6819" cy="354.1364" fill="#F1F1F1" rx="78.6819" ry="18.1364" style="stroke:#181818;stroke-width:0.5;"/><text fill="#000000" font-family="sans-serif" font-size="14" lengthAdjust="spacing" textLength="111" x="460.5947" y="358.3083">UC1: Create User</text></g><g id="elem_UC2"><ellipse cx="517.4775" cy="425.7955" fill="#F1F1F1" rx="79.4775" ry="18.2955" style="stroke:#181818;stroke-width:0.5;"/><text fill="#000000" font-family="sans-serif" font-size="14" lengthAdjust="spacing" textLength="113" x="459.756" y="429.8709">UC2: Update User</text></g><g id="elem_UC3"><ellipse cx="517.396" cy="104.9792" fill="#F1F1F1" rx="77.896" ry="17.9792" style="stroke:#181818;stroke-width:0.5;"/><text fill="#000000" font-family="sans-serif" font-size="14" lengthAdjust="spacing" textLength="109" x="460.9355" y="109.2466">UC3: Delete User</text></g><g id="elem_UC4"><ellipse cx="517.641" cy="187.1282" fill="#F1F1F1" rx="133.641" ry="29.1282" style="stroke:#181818;stroke-width:0.5;"/><text fill="#000000" font-family="sans-serif" font-size="14" lengthAdjust="spacing" textLength="234" x="400.641" y="190.8567">UC4: Manage Roles and Permissions</text></g><g id="elem_UC5"><ellipse cx="517.5226" cy="275.8045" fill="#F1F1F1" rx="109.5226" ry="24.3045" style="stroke:#181818;stroke-width:0.5;"/><text fill="#000000" font-family="sans-serif" font-size="14" lengthAdjust="spacing" textLength="182" x="426.5226" y="279.533">UC5: Monitor Platform Usage</text></g><g id="elem_UC6"><ellipse cx="517.6309" cy="541.8262" fill="#F1F1F1" rx="92.1309" ry="20.8262" style="stroke:#181818;stroke-width:0.5;"/><text fill="#000000" font-family="sans-serif" font-size="14" lengthAdjust="spacing" textLength="143" x="446.1309" y="545.5547">UC6: Register Account</text></g><g id="elem_UC7"><ellipse cx="517.6756" cy="618.1351" fill="#F1F1F1" rx="88.6756" ry="20.1351" style="stroke:#181818;stroke-width:0.5;"/><text fill="#000000" font-family="sans-serif" font-size="14" lengthAdjust="spacing" textLength="135" x="450.1756" y="621.8636">UC7: Update Account</text></g><g id="elem_UC8"><ellipse cx="517.4661" cy="692.7932" fill="#F1F1F1" rx="86.9661" ry="19.7932" style="stroke:#181818;stroke-width:0.5;"/><text fill="#000000" font-family="sans-serif" font-size="14" lengthAdjust="spacing" textLength="131" x="451.9661" y="696.5217">UC8: Delete Account</text></g><g id="elem_UC9"><ellipse cx="517.4781" cy="772.8956" fill="#F1F1F1" rx="109.9781" ry="24.3956" style="stroke:#181818;stroke-width:0.5;"/><text fill="#000000" font-family="sans-serif" font-size="14" lengthAdjust="spacing" textLength="183" x="425.9781" y="776.6241">UC9: Join Energy Community</text></g><g id="elem_UC10"><ellipse cx="870.5894" cy="1636.2179" fill="#F1F1F1" rx="104.0894" ry="23.2179" style="stroke:#181818;stroke-width:0.5;"/><text fill="#000000" font-family="sans-serif" font-size="14" lengthAdjust="spacing" textLength="170" x="785.5894" y="1639.9464">UC10: Upload Energy Data</text></g><g id="elem_UC11"><ellipse cx="870.5397" cy="1717.8079" fill="#F1F1F1" rx="104.5397" ry="23.3079" style="stroke:#181818;stroke-width:0.5;"/><text fill="#000000" font-family="sans-serif" font-size="14" lengthAdjust="spacing" textLength="171" x="785.0397" y="1721.5365">UC11: Update Energy Data</text></g><g id="elem_UC12"><ellipse cx="870.6359" cy="1802.1272" fill="#F1F1F1" rx="113.6359" ry="25.1272" style="stroke:#181818;stroke-width:0.5;"/><text fill="#000000" font-family="sans-serif" font-size="14" lengthAdjust="spacing" textLength="191" x="775.1359" y="1805.8557">UC12: Analyse Energy Trends</text></g><g id="elem_UC13"><ellipse cx="870.5357" cy="1259.8071" fill="#F1F1F1" rx="154.5357" ry="33.3071" style="stroke:#181818;stroke-width:0.5;"/><text fill="#000000" font-family="sans-serif" font-size="14" lengthAdjust="spacing" textLength="278" x="731.5357" y="1263.5357">UC13: View Consumption/Production History</text></g><g id="elem_UC14"><ellipse cx="870.5257" cy="1358.0051" fill="#F1F1F1" rx="135.5257" ry="29.5051" style="stroke:#181818;stroke-width:0.5;"/><text fill="#000000" font-family="sans-serif" font-size="14" lengthAdjust="spacing" textLength="238" x="751.5257" y="1361.7337">UC14: Set Energy Usage Preferences</text></g><g id="elem_UC15"><ellipse cx="870.6999" cy="1451.94" fill="#F1F1F1" rx="132.6999" ry="28.94" style="stroke:#181818;stroke-width:0.5;"/><text fill="#000000" font-family="sans-serif" font-size="14" lengthAdjust="spacing" textLength="232" x="754.6999" y="1455.6685">UC15: Trade Energy with Community</text></g><g id="elem_UC16"><ellipse cx="870.6774" cy="1166.0355" fill="#F1F1F1" rx="113.1774" ry="25.0355" style="stroke:#181818;stroke-width:0.5;"/><text fill="#000000" font-family="sans-serif" font-size="14" lengthAdjust="spacing" textLength="190" x="775.6774" y="1169.764">UC16: Optimize Energy Usage</text></g><g id="elem_UC17"><ellipse cx="870.6734" cy="1547.2347" fill="#F1F1F1" rx="141.6734" ry="30.7347" style="stroke:#181818;stroke-width:0.5;"/><text fill="#000000" font-family="sans-serif" font-size="14" lengthAdjust="spacing" textLength="251" x="745.1734" y="1550.9632">UC17: View Cost/Revenue from Trading</text></g><g id="elem_UC18"><ellipse cx="870.4467" cy="2220.7893" fill="#F1F1F1" rx="121.9467" ry="26.7893" style="stroke:#181818;stroke-width:0.5;"/><text fill="#000000" font-family="sans-serif" font-size="14" lengthAdjust="spacing" textLength="209" x="765.9467" y="2224.5179">UC18: Create Energy Community</text></g><g id="elem_UC19"><ellipse cx="870.2982" cy="2306.7596" fill="#F1F1F1" rx="106.7982" ry="23.7596" style="stroke:#181818;stroke-width:0.5;"/><text fill="#000000" font-family="sans-serif" font-size="14" lengthAdjust="spacing" textLength="176" x="782.2982" y="2310.4882">UC19: Add Community Data</text></g><g id="elem_UC20"><ellipse cx="870.6901" cy="1936.138" fill="#F1F1F1" rx="151.1901" ry="32.638" style="stroke:#181818;stroke-width:0.5;"/><text fill="#000000" font-family="sans-serif" font-size="14" lengthAdjust="spacing" textLength="271" x="735.1901" y="1939.8665">UC20: Analyse Community Energy Balance</text></g><g id="elem_UC21"><ellipse cx="870.5948" cy="2391.219" fill="#F1F1F1" rx="114.0948" ry="25.219" style="stroke:#181818;stroke-width:0.5;"/><text fill="#000000" font-family="sans-serif" font-size="14" lengthAdjust="spacing" textLength="192" x="774.5948" y="2394.9475">UC21: Delete Community Data</text></g><g id="elem_UC22"><ellipse cx="870.2597" cy="2479.7519" fill="#F1F1F1" rx="131.7597" ry="28.7519" style="stroke:#181818;stroke-width:0.5;"/><text fill="#000000" font-family="sans-serif" font-size="14" lengthAdjust="spacing" textLength="230" x="755.2597" y="2483.4805">UC22: Manage Community Members</text></g><g id="elem_UC23"><ellipse cx="870.7297" cy="2572.8459" fill="#F1F1F1" rx="132.2297" ry="28.8459" style="stroke:#181818;stroke-width:0.5;"/><text fill="#000000" font-family="sans-serif" font-size="14" lengthAdjust="spacing" textLength="231" x="755.2297" y="2576.5745">UC23: Generate Community Reports</text></g><g id="elem_UC24"><ellipse cx="870.2783" cy="2667.8557" fill="#F1F1F1" rx="139.7783" ry="30.3557" style="stroke:#181818;stroke-width:0.5;"/><text fill="#000000" font-family="sans-serif" font-size="14" lengthAdjust="spacing" textLength="247" x="746.7783" y="2671.5842">UC24: Configure Energy Sharing Rules</text></g><g id="elem_UC25"><ellipse cx="870.5463" cy="2035.2093" fill="#F1F1F1" rx="144.0463" ry="31.2093" style="stroke:#181818;stroke-width:0.5;"/><text fill="#000000" font-family="sans-serif" font-size="14" lengthAdjust="spacing" textLength="256" x="742.5463" y="2038.9378">UC25: Monitor Energy Sharing Efficiency</text></g><g id="elem_UC26"><ellipse cx="870.3204" cy="2130.0641" fill="#F1F1F1" rx="130.8204" ry="28.5641" style="stroke:#181818;stroke-width:0.5;"/><text fill="#000000" font-family="sans-serif" font-size="14" lengthAdjust="spacing" textLength="228" x="756.3204" y="2133.7926">UC26: Set Community Energy Goals</text></g><g id="elem_UC27"><ellipse cx="870.6309" cy="1043.8262" fill="#F1F1F1" rx="92.1309" ry="20.8262" style="stroke:#181818;stroke-width:0.5;"/><text fill="#000000" font-family="sans-serif" font-size="14" lengthAdjust="spacing" textLength="143" x="799.1309" y="1047.5547">UC27: Buy/Sell Energy</text></g><!--entity Grid--><g id="elem_Grid"><ellipse cx="517.5" cy="882.5" fill="#F1F1F1" rx="8" ry="8" style="stroke:#181818;stroke-width:0.5;"/><path d="M517.5,890.5 L517.5,917.5 M504.5,898.5 L530.5,898.5 M517.5,917.5 L504.5,932.5 M517.5,917.5 L530.5,932.5 " fill="none" style="stroke:#181818;stroke-width:0.5;"/><text fill="#000000" font-family="sans-serif" font-size="14" lengthAdjust="spacing" textLength="27" x="504" y="948.5332">Grid</text></g><!--entity Solver--><g id="elem_Solver"><ellipse cx="517.5" cy="995.5" fill="#F1F1F1" rx="8" ry="8" style="stroke:#181818;stroke-width:0.5;"/><path d="M517.5,1003.5 L517.5,1030.5 M504.5,1011.5 L530.5,1011.5 M517.5,1030.5 L504.5,1045.5 M517.5,1030.5 L530.5,1045.5 " fill="none" style="stroke:#181818;stroke-width:0.5;"/><text fill="#000000" font-family="sans-serif" font-size="14" lengthAdjust="spacing" textLength="40" x="497.5" y="1061.5332">Solver</text></g><!--entity Admin--><g id="elem_Admin"><ellipse cx="277.5" cy="245.5" fill="#F1F1F1" rx="8" ry="8" style="stroke:#181818;stroke-width:0.5;"/><path d="M277.5,253.5 L277.5,280.5 M264.5,261.5 L290.5,261.5 M277.5,280.5 L264.5,295.5 M277.5,280.5 L290.5,295.5 " fill="none" style="stroke:#181818;stroke-width:0.5;"/><text fill="#000000" font-family="sans-serif" font-size="14" lengthAdjust="spacing" textLength="39" x="258" y="311.5332">Admin</text></g><!--entity User--><g id="elem_User"><ellipse cx="277.5" cy="710.5" fill="#F1F1F1" rx="8" ry="8" style="stroke:#181818;stroke-width:0.5;"/><path d="M277.5,718.5 L277.5,745.5 M264.5,726.5 L290.5,726.5 M277.5,745.5 L264.5,760.5 M277.5,745.5 L290.5,760.5 " fill="none" style="stroke:#181818;stroke-width:0.5;"/><text fill="#000000" font-family="sans-serif" font-size="14" lengthAdjust="spacing" textLength="29" x="263" y="776.5332">User</text></g><!--entity Prosumer--><g id="elem_Prosumer"><ellipse cx="71" cy="1407.5" fill="#F1F1F1" rx="8" ry="8" style="stroke:#181818;stroke-width:0.5;"/><path d="M71,1415.5 L71,1442.5 M58,1423.5 L84,1423.5 M71,1442.5 L58,1457.5 M71,1442.5 L84,1457.5 " fill="none" style="stroke:#181818;stroke-width:0.5;"/><text fill="#000000" font-family="sans-serif" font-size="14" lengthAdjust="spacing" textLength="61" x="40.5" y="1473.5332">Prosumer</text></g><!--entity CM--><g id="elem_CM"><ellipse cx="71" cy="2190.5" fill="#F1F1F1" rx="8" ry="8" style="stroke:#181818;stroke-width:0.5;"/><path d="M71,2198.5 L71,2225.5 M58,2206.5 L84,2206.5 M71,2225.5 L58,2240.5 M71,2225.5 L84,2240.5 " fill="none" style="stroke:#181818;stroke-width:0.5;"/><text fill="#000000" font-family="sans-serif" font-size="14" lengthAdjust="spacing" textLength="130" x="6" y="2256.5332">Community Manager</text></g><!--link Prosumer to User--><g id="link_Prosumer_User"><path d="M71.99,1398.88 C73.33,1305.09 85.01,1061.7 166,880 C189.72,826.78 225.5763,788.763 249.5663,766.023 " fill="none" id="Prosumer-to-User" style="stroke:#181818;stroke-width:1.0;"/><polygon fill="none" points="262.63,753.64,245.4386,761.6685,253.694,770.3776,262.63,753.64" style="stroke:#181818;stroke-width:1.0;"/><text fill="#000000" font-family="sans-serif" font-size="13" lengthAdjust="spacing" textLength="60" x="167" y="786.4951">&#171;extends&#187;</text></g><!--link CM to User--><g id="link_CM_User"><path d="M75.42,2181.98 C92.06,1992.37 163.76,1175.84 166,1163 C179.09,1087.83 235.1249,886.8688 260.4849,797.3288 " fill="none" id="CM-to-User" style="stroke:#181818;stroke-width:1.0;"/><polygon fill="none" points="265.39,780.01,254.712,795.6937,266.2578,798.9638,265.39,780.01" style="stroke:#181818;stroke-width:1.0;"/><text fill="#000000" font-family="sans-serif" font-size="13" lengthAdjust="spacing" textLength="60" x="167" y="913.4951">&#171;extends&#187;</text></g><!--link Admin to UC1--><g id="link_Admin_UC1"><path d="M297.15,292.86 C307.81,301.63 321.85,311.79 336,318 C370.23,333.03 404.937,340.9561 438.987,346.0861 " fill="none" id="Admin-to-UC1" style="stroke:#181818;stroke-width:1.0;"/><polygon fill="#181818" points="444.92,346.98,436.6164,341.6838,439.9758,346.2351,435.4245,349.5945,444.92,346.98" style="stroke:#181818;stroke-width:1.0;"/></g><!--link Admin to UC2--><g id="link_Admin_UC2"><path d="M288.86,315.25 C297.45,340.1 312.19,370.86 336,389 C364.88,411.01 397.6717,420.0642 431.8617,424.1142 " fill="none" id="Admin-to-UC2" style="stroke:#181818;stroke-width:1.0;"/><polygon fill="#181818" points="437.82,424.82,429.353,419.7891,432.8547,424.2318,428.412,427.7335,437.82,424.82" style="stroke:#181818;stroke-width:1.0;"/></g><!--link Admin to UC3--><g id="link_Admin_UC3"><path d="M284.76,236.88 C291.82,205.89 306.43,163.97 336,140 C364.76,116.68 398.5464,107.8717 433.4264,104.5917 " fill="none" id="Admin-to-UC3" style="stroke:#181818;stroke-width:1.0;"/><polygon fill="#181818" points="439.4,104.03,430.065,100.8902,434.422,104.4981,430.814,108.855,439.4,104.03" style="stroke:#181818;stroke-width:1.0;"/></g><!--link Admin to UC4--><g id="link_Admin_UC4"><path d="M297.04,259.67 C307.78,250.95 321.93,240.67 336,234 C361.02,222.14 383.6534,214.4713 410.4334,207.5013 " fill="none" id="Admin-to-UC4" style="stroke:#181818;stroke-width:1.0;"/><polygon fill="#181818" points="416.24,205.99,406.5227,204.3859,411.4012,207.2494,408.5377,212.1279,416.24,205.99" style="stroke:#181818;stroke-width:1.0;"/></g><!--link Admin to UC5--><g id="link_Admin_UC5"><path d="M297.18,276 C321.39,276 359.57,276 401.96,276 " fill="none" id="Admin-to-UC5" style="stroke:#181818;stroke-width:1.0;"/><polygon fill="#181818" points="407.96,276,398.96,272,402.96,276,398.96,280,407.96,276" style="stroke:#181818;stroke-width:1.0;"/></g><!--link User to UC6--><g id="link_User_UC6"><path d="M281.8,701.84 C287.05,664.94 300.67,610.84 336,580 C360.49,558.63 387.9978,549.1297 419.4478,544.3597 " fill="none" id="User-to-UC6" style="stroke:#181818;stroke-width:1.0;"/><polygon fill="#181818" points="425.38,543.46,415.8819,540.8548,420.4365,544.2098,417.0816,548.7644,425.38,543.46" style="stroke:#181818;stroke-width:1.0;"/></g><!--link User to UC7--><g id="link_User_UC7"><path d="M292.05,709.32 C301.65,690.68 316.32,668.23 336,655 C363.61,636.44 392.6484,627.7531 424.4384,622.9131 " fill="none" id="User-to-UC7" style="stroke:#181818;stroke-width:1.0;"/><polygon fill="#181818" points="430.37,622.01,420.8705,619.4102,425.427,622.7626,422.0746,627.3191,430.37,622.01" style="stroke:#181818;stroke-width:1.0;"/></g><!--link User to UC8--><g id="link_User_UC8"><path d="M292.32,738.21 C322.68,732.09 390.9486,718.327 445.6986,707.277 " fill="none" id="User-to-UC8" style="stroke:#181818;stroke-width:1.0;"/><polygon fill="#181818" points="451.58,706.09,441.9665,703.9496,446.6788,707.0792,443.5492,711.7915,451.58,706.09" style="stroke:#181818;stroke-width:1.0;"/></g><!--link User to UC9--><g id="link_User_UC9"><path d="M292.32,742.86 C317.62,746.26 367.3835,752.9507 416.9335,759.6107 " fill="none" id="User-to-UC9" style="stroke:#181818;stroke-width:1.0;"/><polygon fill="#181818" points="422.88,760.41,414.4931,755.2467,417.9246,759.7439,413.4274,763.1754,422.88,760.41" style="stroke:#181818;stroke-width:1.0;"/></g><!--link Prosumer to UC10--><g id="link_Prosumer_UC10"><path d="M101.68,1449.7 C150.12,1468.45 249.44,1505.52 336,1529 C492.58,1571.48 673.2808,1604.1387 779.1408,1621.6887 " fill="none" id="Prosumer-to-UC10" style="stroke:#181818;stroke-width:1.0;"/><polygon fill="#181818" points="785.06,1622.67,776.8354,1617.2519,780.1273,1621.8522,775.527,1625.1442,785.06,1622.67" style="stroke:#181818;stroke-width:1.0;"/></g><!--link Prosumer to UC11--><g id="link_Prosumer_UC11"><path d="M101.79,1463.58 C148.43,1502.18 243.01,1574.74 336,1612 C481.73,1670.39 657.2155,1696.9886 766.5355,1708.9286 " fill="none" id="Prosumer-to-UC11" style="stroke:#181818;stroke-width:1.0;"/><polygon fill="#181818" points="772.5,1709.58,763.9875,1704.6265,767.5296,1709.0371,763.1189,1712.5792,772.5,1709.58" style="stroke:#181818;stroke-width:1.0;"/></g><!--link Prosumer to UC12--><g id="link_Prosumer_UC12"><path d="M97.14,1477.31 C138.56,1538.19 227.45,1653.52 336,1704 C472.73,1767.59 641.1548,1789.549 752.6148,1797.389 " fill="none" id="Prosumer-to-UC12" style="stroke:#181818;stroke-width:1.0;"/><polygon fill="#181818" points="758.6,1797.81,749.9028,1793.1884,753.6123,1797.4592,749.3415,1801.1686,758.6,1797.81" style="stroke:#181818;stroke-width:1.0;"/></g><!--link Prosumer to UC13--><g id="link_Prosumer_UC13"><path d="M101.75,1422.16 C119.88,1413.08 143.78,1402.1 166,1395 C272.17,1361.07 568.6509,1309.4517 740.4309,1280.9617 " fill="none" id="Prosumer-to-UC13" style="stroke:#181818;stroke-width:1.0;"/><polygon fill="#181818" points="746.35,1279.98,736.8168,1277.5065,741.4174,1280.7981,738.1258,1285.3986,746.35,1279.98" style="stroke:#181818;stroke-width:1.0;"/></g><!--link Prosumer to UC14--><g id="link_Prosumer_UC14"><path d="M101.58,1433.17 C120.06,1430.26 144.38,1426.62 166,1424 C367.09,1399.61 595.4795,1379.7134 736.5295,1368.3134 " fill="none" id="Prosumer-to-UC14" style="stroke:#181818;stroke-width:1.0;"/><polygon fill="#181818" points="742.51,1367.83,733.217,1364.568,737.5263,1368.2328,733.8615,1372.542,742.51,1367.83" style="stroke:#181818;stroke-width:1.0;"/></g><!--link Prosumer to UC15--><g id="link_Prosumer_UC15"><path d="M101.81,1438.52 C204.45,1440.33 541.4409,1446.2447 732.3709,1449.5947 " fill="none" id="Prosumer-to-UC15" style="stroke:#181818;stroke-width:1.0;"/><polygon fill="#181818" points="738.37,1449.7,729.4416,1445.5427,733.3708,1449.6123,729.3012,1453.5415,738.37,1449.7" style="stroke:#181818;stroke-width:1.0;"/></g><!--link Prosumer to UC16--><g id="link_Prosumer_UC16"><path d="M101.85,1409.2 C119.44,1393.38 142.76,1374.33 166,1361 C235.9,1320.92 258.89,1321.39 336,1298 C488.16,1251.84 540.06,1282.56 684,1215 C688.02,1213.11 687.98,1210.9 692,1209 C718.96,1196.29 744.2009,1188.4573 772.7609,1181.9273 " fill="none" id="Prosumer-to-UC16" style="stroke:#181818;stroke-width:1.0;"/><polygon fill="#181818" points="778.61,1180.59,768.9448,1178.6966,773.7358,1181.7044,770.728,1186.4954,778.61,1180.59" style="stroke:#181818;stroke-width:1.0;"/></g><!--link Prosumer to UC17--><g id="link_Prosumer_UC17"><path d="M101.81,1442.07 C206.64,1456.4 556.2453,1504.1876 744.4453,1529.9076 " fill="none" id="Prosumer-to-UC17" style="stroke:#181818;stroke-width:1.0;"/><polygon fill="#181818" points="750.39,1530.72,742.0145,1525.5382,745.436,1530.043,740.9313,1533.4645,750.39,1530.72" style="stroke:#181818;stroke-width:1.0;"/></g><!--link CM to UC18--><g id="link_CM_UC18"><path d="M136.25,2221 C269.25,2221 570.61,2221 742.16,2221 " fill="none" id="CM-to-UC18" style="stroke:#181818;stroke-width:1.0;"/><polygon fill="#181818" points="748.16,2221,739.16,2217,743.16,2221,739.16,2225,748.16,2221" style="stroke:#181818;stroke-width:1.0;"/></g><!--link CM to UC19--><g id="link_CM_UC19"><path d="M136.25,2227.93 C276.19,2243.02 603.2046,2278.2867 767.9046,2296.0467 " fill="none" id="CM-to-UC19" style="stroke:#181818;stroke-width:1.0;"/><polygon fill="#181818" points="773.87,2296.69,765.3507,2291.7482,768.8988,2296.1539,764.493,2299.702,773.87,2296.69" style="stroke:#181818;stroke-width:1.0;"/></g><!--link CM to UC20--><g id="link_CM_UC20"><path d="M103.85,2181.9 C120.81,2162.91 142.91,2140.82 166,2125 C336.57,2008.12 570.2578,1964.1128 721.1778,1947.0828 " fill="none" id="CM-to-UC20" style="stroke:#181818;stroke-width:1.0;"/><polygon fill="#181818" points="727.14,1946.41,717.7482,1943.4444,722.1715,1946.9706,718.6453,1951.3939,727.14,1946.41" style="stroke:#181818;stroke-width:1.0;"/></g><!--link CM to UC21--><g id="link_CM_UC21"><path d="M136.17,2240.14 C189.4,2255.61 267.21,2277.33 336,2293 C489.8,2328.03 664.8077,2358.2177 771.5277,2375.5577 " fill="none" id="CM-to-UC21" style="stroke:#181818;stroke-width:1.0;"/><polygon fill="#181818" points="777.45,2376.52,769.208,2371.1284,772.5147,2375.7181,767.925,2379.0248,777.45,2376.52" style="stroke:#181818;stroke-width:1.0;"/></g><!--link CM to UC22--><g id="link_CM_UC22"><path d="M130.63,2260.1 C182.58,2293.08 261.53,2339.23 336,2367 C475.61,2419.06 639.2424,2448.947 749.1924,2464.927 " fill="none" id="CM-to-UC22" style="stroke:#181818;stroke-width:1.0;"/><polygon fill="#181818" points="755.13,2465.79,746.7989,2460.5371,750.182,2465.0709,745.6483,2468.454,755.13,2465.79" style="stroke:#181818;stroke-width:1.0;"/></g><!--link CM to UC23--><g id="link_CM_UC23"><path d="M102.13,2260.02 C146.75,2314.69 235.96,2412.69 336,2460 C468.02,2522.43 628.6677,2549.9784 740.2577,2562.5484 " fill="none" id="CM-to-UC23" style="stroke:#181818;stroke-width:1.0;"/><polygon fill="#181818" points="746.22,2563.22,737.7243,2558.2377,741.2514,2562.6603,736.8288,2566.1874,746.22,2563.22" style="stroke:#181818;stroke-width:1.0;"/></g><!--link CM to UC24--><g id="link_CM_UC24"><path d="M88.77,2260.15 C122.9,2334.29 208.18,2493.77 336,2561 C460.57,2626.52 614.8831,2651.4944 727.1131,2661.3644 " fill="none" id="CM-to-UC24" style="stroke:#181818;stroke-width:1.0;"/><polygon fill="#181818" points="733.09,2661.89,724.475,2657.1169,728.1092,2661.452,723.7742,2665.0862,733.09,2661.89" style="stroke:#181818;stroke-width:1.0;"/></g><!--link CM to UC25--><g id="link_CM_UC25"><path d="M128.26,2181.99 C140.32,2174.87 153.27,2168.1 166,2163 C353.57,2087.92 581.0035,2057.1003 726.1535,2044.2203 " fill="none" id="CM-to-UC25" style="stroke:#181818;stroke-width:1.0;"/><polygon fill="#181818" points="732.13,2043.69,722.8117,2040.5012,727.1496,2044.1319,723.5188,2048.4698,732.13,2043.69" style="stroke:#181818;stroke-width:1.0;"/></g><!--link CM to UC26--><g id="link_CM_UC26"><path d="M136.12,2201.64 C146.06,2199.11 156.26,2196.78 166,2195 C365.08,2158.57 593.7875,2142.4007 735.4875,2135.2907 " fill="none" id="CM-to-UC26" style="stroke:#181818;stroke-width:1.0;"/><polygon fill="#181818" points="741.48,2134.99,732.2909,2131.446,736.4863,2135.2406,732.6918,2139.436,741.48,2134.99" style="stroke:#181818;stroke-width:1.0;"/></g><!--link Grid to UC27--><g id="link_Grid_UC27"><path d="M531.12,917.4 C557.76,926.71 621.71,949.2 675,969 C725.89,987.91 778.3325,1008.2236 817.6625,1023.6136 " fill="none" id="Grid-to-UC27" style="stroke:#181818;stroke-width:1.0;"/><polygon fill="#181818" points="823.25,1025.8,816.3264,1018.7954,818.5938,1023.978,813.4112,1026.2454,823.25,1025.8" style="stroke:#181818;stroke-width:1.0;"/></g><!--link Prosumer to UC27--><g id="link_Prosumer_UC27"><path d="M73.3,1398.67 C77.58,1338.06 95.16,1222.62 166,1163 C253.63,1089.25 562.22,1101.98 675,1082 C717.01,1074.56 758.0668,1066.5882 795.3168,1059.1282 " fill="none" id="Prosumer-to-UC27" style="stroke:#181818;stroke-width:1.0;"/><polygon fill="#181818" points="801.2,1057.95,791.5898,1055.7952,796.2973,1058.9318,793.1607,1063.6394,801.2,1057.95" style="stroke:#181818;stroke-width:1.0;"/></g><!--link CM to UC27--><g id="link_CM_UC27"><path d="M77.47,2181.79 C101.31,2016.31 200.9,1376.94 336,1233 C444.79,1117.1 525.47,1172.94 675,1119 C726.41,1100.46 779.2612,1079.8985 818.5412,1064.3485 " fill="none" id="CM-to-UC27" style="stroke:#181818;stroke-width:1.0;"/><polygon fill="#181818" points="824.12,1062.14,814.2795,1061.7336,819.471,1063.9804,817.2242,1069.1719,824.12,1062.14" style="stroke:#181818;stroke-width:1.0;"/></g><!--link Solver to UC16--><g id="link_Solver_UC16"><path d="M537.67,1026.03 C570.8,1027.03 639.49,1033.35 684,1067 C689.72,1071.32 686.75,1076.12 692,1081 C723.9,1110.67 762.4418,1129.7374 798.7318,1143.5374 " fill="none" id="Solver-to-UC16" style="stroke:#181818;stroke-width:1.0;"/><polygon fill="#181818" points="804.34,1145.67,797.3495,1138.7323,799.6665,1143.8928,794.5059,1146.2099,804.34,1145.67" style="stroke:#181818;stroke-width:1.0;"/></g><!--link Solver to UC20--><g id="link_Solver_UC20"><path d="M522.42,1065.33 C537.57,1210.84 596.29,1716.76 692,1843 C715.02,1873.36 745.3185,1892.3655 778.7485,1906.9155 " fill="none" id="Solver-to-UC20" style="stroke:#181818;stroke-width:1.0;"/><polygon fill="#181818" points="784.25,1909.31,777.5941,1902.0506,779.6654,1907.3146,774.4014,1909.386,784.25,1909.31" style="stroke:#181818;stroke-width:1.0;"/></g><!--SRC=[XLPDRzim3BtxLn2vf3q4YPNle0YGfaMt0SMAfDrTivd4c6q5ajqks_hVHzkod4ZkrajDXXJ9f_TenxZB81CWe_qXWp2I66IHI3sl2wiW4r9vlFW7gp29Kltyeb3gnoSfL9uOixCMIPAdKNQ2HvxoFSeES0NhHw_VXIhaGKQXZjwA-1KbTFkc6cmmvaLzTOYEogjFXrxlpx8i2mkukS6V6QQXMYwzzUE7Ftd593pTnmYT-nJb_WHDSqzKPITaqe7VdWVGhSOhZe4rLwZ8T-J13ne0EjLFrJW9fbcH0_INAmme5ZelQty1QuaymxAHScHosb5i0I_7q8fYTjHm0NSOusNKq8uQBNH7i14nAk1f24yeaqYf0ZsTDhBJnfGc287YvZG4L8QEqGbZhyoeHkxrbcQCSmzpF4F7Ct8yO_AyLs2NjzMETH28FCt-ZVPaGJJPHogZKtI2RdzYXquDv9U1KpjmPb2_39pPWVC5V14qb4qf7J-l02mdhEQUs8wfxPZPZda3bL50ArowYGOjs9rfieseWmAGMF2m7k2EPxmcxC09zmr-BU4EmNrY-2hbyKcP-6TPoB7ESCZk4zk_HVX6EARKyx6GVf_w3_Do2y4dkcKXQt1zHmO-wM2BMLsjf3BDZpkakW6QmeuGV5B2i-IXQVGjoWxERVfZ9u_8zvNQJA9VU56rpd0ew4_DY2hhR_0LqnnX9qLIDX2b-pfrMd7dREajcrknlNwhbxLwXwtUKQjttEgTj7gd3K-TlTzEM3lietqwCmlr0vtvZZ1zKkOg3CywEUVgt5d6WuQhJOgkTijZJlIfLxIZ2-QRTT5QZhcxdvc5VOO19jzHrYHbZZeOgUC1gIL-KMY3Ho4pa-Q8Wf4eI4-xQ9zB0-3sm2Ln3JPvR6J175cminU4bNY_sqL1HAgghu0vuc2JIeqEdW-2nwRefA9v-UfUDbVPsFDBMyFVsBvbCyiUMlR8iiUMFMbeN7oSbEzI_MdIldNf6qCITU1pIW-yt5IgXSMCb7-Rd_fRZ6EDH8s1bdfPJdSnRPEOzZQzwaJTNgrEWDBRRTrCS5KVUktcia6T-pynm9MZyUjkYToxznS0]--></g></svg>