<?xml version="1.0" encoding="us-ascii" standalone="no"?><svg xmlns="http://www.w3.org/2000/svg" xmlns:xlink="http://www.w3.org/1999/xlink" contentStyleType="text/css" height="1019px" preserveAspectRatio="none" style="width:1920px;height:1019px;background:#FFFFFF;" version="1.1" viewBox="0 0 1920 1019" width="1920px" zoomAndPan="magnify"><defs/><g><!--class Prosumer--><g id="elem_Prosumer"><rect codeLine="4" fill="#F1F1F1" height="106.0469" id="Prosumer" rx="2.5" ry="2.5" style="stroke:#181818;stroke-width:0.5;" width="202" x="696.5" y="155"/><text fill="#000000" font-family="sans-serif" font-size="14" lengthAdjust="spacing" textLength="61" x="767" y="174.5332">Prosumer</text><line style="stroke:#181818;stroke-width:0.5;" x1="697.5" x2="897.5" y1="182.6094" y2="182.6094"/><rect fill="none" height="6" style="stroke:#C82930;stroke-width:1.0;" width="6" x="704.5" y="193.9141"/><text fill="#000000" font-family="sans-serif" font-size="14" lengthAdjust="spacing" textLength="116" x="716.5" y="201.1426">prosumerId: String</text><rect fill="none" height="6" style="stroke:#C82930;stroke-width:1.0;" width="6" x="704.5" y="211.5234"/><text fill="#000000" font-family="sans-serif" font-size="14" lengthAdjust="spacing" textLength="176" x="716.5" y="218.752">prosumerDescription: String</text><rect fill="none" height="6" style="stroke:#C82930;stroke-width:1.0;" width="6" x="704.5" y="229.1328"/><text fill="#000000" font-family="sans-serif" font-size="14" lengthAdjust="spacing" textLength="91" x="716.5" y="236.3613">pLoad: float[][]</text><rect fill="none" height="6" style="stroke:#C82930;stroke-width:1.0;" width="6" x="704.5" y="246.7422"/><text fill="#000000" font-family="sans-serif" font-size="14" lengthAdjust="spacing" textLength="129" x="716.5" y="253.9707">ppvCapacity: float[][]</text></g><!--class Profile--><g id="elem_Profile"><rect codeLine="13" fill="#F1F1F1" height="88.4375" id="Profile" rx="2.5" ry="2.5" style="stroke:#181818;stroke-width:0.5;" width="215" x="347" y="347.5"/><text fill="#000000" font-family="sans-serif" font-size="14" lengthAdjust="spacing" textLength="40" x="434.5" y="367.0332">Profile</text><line style="stroke:#181818;stroke-width:0.5;" x1="348" x2="561" y1="375.1094" y2="375.1094"/><rect fill="none" height="6" style="stroke:#C82930;stroke-width:1.0;" width="6" x="355" y="386.4141"/><text fill="#000000" font-family="sans-serif" font-size="14" lengthAdjust="spacing" textLength="95" x="367" y="393.6426">profileId: String</text><rect fill="none" height="6" style="stroke:#C82930;stroke-width:1.0;" width="6" x="355" y="404.0234"/><text fill="#000000" font-family="sans-serif" font-size="14" lengthAdjust="spacing" textLength="189" x="367" y="411.252">profileTimeStamp: TimeStamp</text><rect fill="none" height="6" style="stroke:#C82930;stroke-width:1.0;" width="6" x="355" y="421.6328"/><text fill="#000000" font-family="sans-serif" font-size="14" lengthAdjust="spacing" textLength="110" x="367" y="428.8613">profileValue: float</text></g><!--class Grid--><g id="elem_Grid"><rect codeLine="19" fill="#F1F1F1" height="70.8281" id="Grid" rx="2.5" ry="2.5" style="stroke:#181818;stroke-width:0.5;" width="131" x="1479" y="172.5"/><text fill="#000000" font-family="sans-serif" font-size="14" lengthAdjust="spacing" textLength="27" x="1531" y="192.0332">Grid</text><line style="stroke:#181818;stroke-width:0.5;" x1="1480" x2="1609" y1="200.1094" y2="200.1094"/><rect fill="none" height="6" style="stroke:#C82930;stroke-width:1.0;" width="6" x="1487" y="211.4141"/><text fill="#000000" font-family="sans-serif" font-size="14" lengthAdjust="spacing" textLength="80" x="1499" y="218.6426">gridId: String</text><rect fill="none" height="6" style="stroke:#C82930;stroke-width:1.0;" width="6" x="1487" y="229.0234"/><text fill="#000000" font-family="sans-serif" font-size="14" lengthAdjust="spacing" textLength="105" x="1499" y="236.252">gridName: String</text></g><!--class GridExchange--><g id="elem_GridExchange"><rect codeLine="24" fill="#F1F1F1" height="141.2656" id="GridExchange" rx="2.5" ry="2.5" style="stroke:#181818;stroke-width:0.5;" width="262" x="1413.5" y="321"/><text fill="#000000" font-family="sans-serif" font-size="14" lengthAdjust="spacing" textLength="89" x="1500" y="340.5332">GridExchange</text><line style="stroke:#181818;stroke-width:0.5;" x1="1414.5" x2="1674.5" y1="348.6094" y2="348.6094"/><rect fill="none" height="6" style="stroke:#C82930;stroke-width:1.0;" width="6" x="1421.5" y="359.9141"/><text fill="#000000" font-family="sans-serif" font-size="14" lengthAdjust="spacing" textLength="142" x="1433.5" y="367.1426">gridExchangeId: String</text><rect fill="none" height="6" style="stroke:#C82930;stroke-width:1.0;" width="6" x="1421.5" y="377.5234"/><text fill="#000000" font-family="sans-serif" font-size="14" lengthAdjust="spacing" textLength="236" x="1433.5" y="384.752">gridExchangeTimeStamp: TimeStamp</text><rect fill="none" height="6" style="stroke:#C82930;stroke-width:1.0;" width="6" x="1421.5" y="395.1328"/><text fill="#000000" font-family="sans-serif" font-size="14" lengthAdjust="spacing" textLength="145" x="1433.5" y="402.3613">gridExchangeBuy: float</text><rect fill="none" height="6" style="stroke:#C82930;stroke-width:1.0;" width="6" x="1421.5" y="412.7422"/><text fill="#000000" font-family="sans-serif" font-size="14" lengthAdjust="spacing" textLength="144" x="1433.5" y="419.9707">gridExchangeSell: float</text><rect fill="none" height="6" style="stroke:#C82930;stroke-width:1.0;" width="6" x="1421.5" y="430.3516"/><text fill="#000000" font-family="sans-serif" font-size="14" lengthAdjust="spacing" textLength="177" x="1433.5" y="437.5801">gridExchangePriceBuy: float</text><rect fill="none" height="6" style="stroke:#C82930;stroke-width:1.0;" width="6" x="1421.5" y="447.9609"/><text fill="#000000" font-family="sans-serif" font-size="14" lengthAdjust="spacing" textLength="176" x="1433.5" y="455.1895">gridExchangePriceSell: float</text></g><!--class Community--><g id="elem_Community"><rect codeLine="35" fill="#F1F1F1" height="88.4375" id="Community" rx="2.5" ry="2.5" style="stroke:#181818;stroke-width:0.5;" width="175" x="563" y="7"/><text fill="#000000" font-family="sans-serif" font-size="14" lengthAdjust="spacing" textLength="70" x="615.5" y="26.5332">Community</text><line style="stroke:#181818;stroke-width:0.5;" x1="564" x2="737" y1="34.6094" y2="34.6094"/><rect fill="none" height="6" style="stroke:#C82930;stroke-width:1.0;" width="6" x="571" y="45.9141"/><text fill="#000000" font-family="sans-serif" font-size="14" lengthAdjust="spacing" textLength="123" x="583" y="53.1426">communityId: String</text><rect fill="none" height="6" style="stroke:#C82930;stroke-width:1.0;" width="6" x="571" y="63.5234"/><text fill="#000000" font-family="sans-serif" font-size="14" lengthAdjust="spacing" textLength="148" x="583" y="70.752">communityName: String</text><rect fill="none" height="6" style="stroke:#C82930;stroke-width:1.0;" width="6" x="571" y="81.1328"/><text fill="#000000" font-family="sans-serif" font-size="14" lengthAdjust="spacing" textLength="149" x="583" y="88.3613">prosumers: Prosumer[*]</text></g><!--class CommunityExchange--><g id="elem_CommunityExchange"><rect codeLine="43" fill="#F1F1F1" height="106.0469" id="CommunityExchange" rx="2.5" ry="2.5" style="stroke:#181818;stroke-width:0.5;" width="305" x="7" y="338.5"/><text fill="#000000" font-family="sans-serif" font-size="14" lengthAdjust="spacing" textLength="132" x="93.5" y="358.0332">CommunityExchange</text><line style="stroke:#181818;stroke-width:0.5;" x1="8" x2="311" y1="366.1094" y2="366.1094"/><rect fill="none" height="6" style="stroke:#C82930;stroke-width:1.0;" width="6" x="15" y="377.4141"/><text fill="#000000" font-family="sans-serif" font-size="14" lengthAdjust="spacing" textLength="185" x="27" y="384.6426">communityExchangeId: String</text><rect fill="none" height="6" style="stroke:#C82930;stroke-width:1.0;" width="6" x="15" y="395.0234"/><text fill="#000000" font-family="sans-serif" font-size="14" lengthAdjust="spacing" textLength="279" x="27" y="402.252">communityExchangeTimeStamp: TimeStamp</text><rect fill="none" height="6" style="stroke:#C82930;stroke-width:1.0;" width="6" x="15" y="412.6328"/><text fill="#000000" font-family="sans-serif" font-size="14" lengthAdjust="spacing" textLength="75" x="27" y="419.8613">peerIn: float</text><rect fill="none" height="6" style="stroke:#C82930;stroke-width:1.0;" width="6" x="15" y="430.2422"/><text fill="#000000" font-family="sans-serif" font-size="14" lengthAdjust="spacing" textLength="87" x="27" y="437.4707">peerOut: float</text></g><!--class PhotovoltaicPanel--><g id="elem_PhotovoltaicPanel"><rect codeLine="50" fill="#F1F1F1" height="70.8281" id="PhotovoltaicPanel" rx="2.5" ry="2.5" style="stroke:#181818;stroke-width:0.5;" width="183" x="1195" y="356"/><text fill="#000000" font-family="sans-serif" font-size="14" lengthAdjust="spacing" textLength="113" x="1230" y="375.5332">PhotovoltaicPanel</text><line style="stroke:#181818;stroke-width:0.5;" x1="1196" x2="1377" y1="383.6094" y2="383.6094"/><rect fill="none" height="6" style="stroke:#C82930;stroke-width:1.0;" width="6" x="1203" y="394.9141"/><text fill="#000000" font-family="sans-serif" font-size="14" lengthAdjust="spacing" textLength="132" x="1215" y="402.1426">photovoltaicId: String</text><rect fill="none" height="6" style="stroke:#C82930;stroke-width:1.0;" width="6" x="1203" y="412.5234"/><text fill="#000000" font-family="sans-serif" font-size="14" lengthAdjust="spacing" textLength="157" x="1215" y="419.752">photovoltaicName: String</text></g><!--class PhotovoltaicEnergy--><g id="elem_PhotovoltaicEnergy"><rect codeLine="55" fill="#F1F1F1" height="106.0469" id="PhotovoltaicEnergy" rx="2.5" ry="2.5" style="stroke:#181818;stroke-width:0.5;" width="297" x="1138" y="539.5"/><text fill="#000000" font-family="sans-serif" font-size="14" lengthAdjust="spacing" textLength="122" x="1225.5" y="559.0332">PhotovoltaicEnergy</text><line style="stroke:#181818;stroke-width:0.5;" x1="1139" x2="1434" y1="567.1094" y2="567.1094"/><rect fill="none" height="6" style="stroke:#C82930;stroke-width:1.0;" width="6" x="1146" y="578.4141"/><text fill="#000000" font-family="sans-serif" font-size="14" lengthAdjust="spacing" textLength="177" x="1158" y="585.6426">photovoltaicEnergyId: String</text><rect fill="none" height="6" style="stroke:#C82930;stroke-width:1.0;" width="6" x="1146" y="596.0234"/><text fill="#000000" font-family="sans-serif" font-size="14" lengthAdjust="spacing" textLength="271" x="1158" y="603.252">photovoltaicEnergyTimeStamp: TimeStamp</text><rect fill="none" height="6" style="stroke:#C82930;stroke-width:1.0;" width="6" x="1146" y="613.6328"/><text fill="#000000" font-family="sans-serif" font-size="14" lengthAdjust="spacing" textLength="82" x="1158" y="620.8613">pvLoad: float</text><rect fill="none" height="6" style="stroke:#C82930;stroke-width:1.0;" width="6" x="1146" y="631.2422"/><text fill="#000000" font-family="sans-serif" font-size="14" lengthAdjust="spacing" textLength="95" x="1158" y="638.4707">pvBattery: float</text></g><!--class Battery--><g id="elem_Battery"><rect codeLine="62" fill="#F1F1F1" height="141.2656" id="Battery" rx="2.5" ry="2.5" style="stroke:#181818;stroke-width:0.5;" width="184" x="918.5" y="522"/><text fill="#000000" font-family="sans-serif" font-size="14" lengthAdjust="spacing" textLength="45" x="988" y="541.5332">Battery</text><line style="stroke:#181818;stroke-width:0.5;" x1="919.5" x2="1101.5" y1="549.6094" y2="549.6094"/><rect fill="none" height="6" style="stroke:#C82930;stroke-width:1.0;" width="6" x="926.5" y="560.9141"/><text fill="#000000" font-family="sans-serif" font-size="14" lengthAdjust="spacing" textLength="100" x="938.5" y="568.1426">batteryId: String</text><rect fill="none" height="6" style="stroke:#C82930;stroke-width:1.0;" width="6" x="926.5" y="578.5234"/><text fill="#000000" font-family="sans-serif" font-size="14" lengthAdjust="spacing" textLength="125" x="938.5" y="585.752">batteryName: String</text><rect fill="none" height="6" style="stroke:#C82930;stroke-width:1.0;" width="6" x="926.5" y="596.1328"/><text fill="#000000" font-family="sans-serif" font-size="14" lengthAdjust="spacing" textLength="112" x="938.5" y="603.3613">capacityMax: float</text><rect fill="none" height="6" style="stroke:#C82930;stroke-width:1.0;" width="6" x="926.5" y="613.7422"/><text fill="#000000" font-family="sans-serif" font-size="14" lengthAdjust="spacing" textLength="141" x="938.5" y="620.9707">efficiencyCharge: float</text><rect fill="none" height="6" style="stroke:#C82930;stroke-width:1.0;" width="6" x="926.5" y="631.3516"/><text fill="#000000" font-family="sans-serif" font-size="14" lengthAdjust="spacing" textLength="158" x="938.5" y="638.5801">efficiencyDischarge: float</text><rect fill="none" height="6" style="stroke:#C82930;stroke-width:1.0;" width="6" x="926.5" y="648.9609"/><text fill="#000000" font-family="sans-serif" font-size="14" lengthAdjust="spacing" textLength="79" x="938.5" y="656.1895">socMin: float</text></g><!--class BatteryEnergy--><g id="elem_BatteryEnergy"><rect codeLine="71" fill="#F1F1F1" height="158.875" id="BatteryEnergy" rx="2.5" ry="2.5" style="stroke:#181818;stroke-width:0.5;" width="265" x="968" y="723"/><text fill="#000000" font-family="sans-serif" font-size="14" lengthAdjust="spacing" textLength="90" x="1055.5" y="742.5332">BatteryEnergy</text><line style="stroke:#181818;stroke-width:0.5;" x1="969" x2="1232" y1="750.6094" y2="750.6094"/><rect fill="none" height="6" style="stroke:#C82930;stroke-width:1.0;" width="6" x="976" y="761.9141"/><text fill="#000000" font-family="sans-serif" font-size="14" lengthAdjust="spacing" textLength="145" x="988" y="769.1426">batteryEnergyId: String</text><rect fill="none" height="6" style="stroke:#C82930;stroke-width:1.0;" width="6" x="976" y="779.5234"/><text fill="#000000" font-family="sans-serif" font-size="14" lengthAdjust="spacing" textLength="239" x="988" y="786.752">batteryEnergyTimeStamp: TimeStamp</text><rect fill="none" height="6" style="stroke:#C82930;stroke-width:1.0;" width="6" x="976" y="797.1328"/><text fill="#000000" font-family="sans-serif" font-size="14" lengthAdjust="spacing" textLength="128" x="988" y="804.3613">stateOfCharge: float</text><rect fill="none" height="6" style="stroke:#C82930;stroke-width:1.0;" width="6" x="976" y="814.7422"/><text fill="#000000" font-family="sans-serif" font-size="14" lengthAdjust="spacing" textLength="79" x="988" y="821.9707">charge: float</text><rect fill="none" height="6" style="stroke:#C82930;stroke-width:1.0;" width="6" x="976" y="832.3516"/><text fill="#000000" font-family="sans-serif" font-size="14" lengthAdjust="spacing" textLength="97" x="988" y="839.5801">discharge: float</text><rect fill="none" height="6" style="stroke:#C82930;stroke-width:1.0;" width="6" x="976" y="849.9609"/><text fill="#000000" font-family="sans-serif" font-size="14" lengthAdjust="spacing" textLength="119" x="988" y="857.1895">chargeBinary: bool</text><rect fill="none" height="6" style="stroke:#C82930;stroke-width:1.0;" width="6" x="976" y="867.5703"/><text fill="#000000" font-family="sans-serif" font-size="14" lengthAdjust="spacing" textLength="137" x="988" y="874.7988">dischargeBinary: bool</text></g><!--class TimeStamp--><g id="elem_TimeStamp"><rect codeLine="81" fill="#F1F1F1" height="70.8281" id="TimeStamp" rx="2.5" ry="2.5" style="stroke:#181818;stroke-width:0.5;" width="165" x="1018" y="942"/><text fill="#000000" font-family="sans-serif" font-size="14" lengthAdjust="spacing" textLength="71" x="1065" y="961.5332">TimeStamp</text><line style="stroke:#181818;stroke-width:0.5;" x1="1019" x2="1182" y1="969.6094" y2="969.6094"/><rect fill="none" height="6" style="stroke:#C82930;stroke-width:1.0;" width="6" x="1026" y="980.9141"/><text fill="#000000" font-family="sans-serif" font-size="14" lengthAdjust="spacing" textLength="137" x="1038" y="988.1426">intervalOfTime: String</text><rect fill="none" height="6" style="stroke:#C82930;stroke-width:1.0;" width="6" x="1026" y="998.5234"/><text fill="#000000" font-family="sans-serif" font-size="14" lengthAdjust="spacing" textLength="139" x="1038" y="1005.752">numberOfIntervals: int</text></g><g id="elem_GMN29"><path d="M597,378.5 L597,404.8516 L1088,404.8516 L1088,388.5 L1078,378.5 L597,378.5 " fill="#FEFFDD" style="stroke:#181818;stroke-width:0.5;"/><path d="M1078,378.5 L1078,388.5 L1088,388.5 L1078,378.5 " fill="#FEFFDD" style="stroke:#181818;stroke-width:1.0;"/><text fill="#000000" font-family="sans-serif" font-size="13" lengthAdjust="spacing" textLength="470" x="603" y="396.9951">Balance of the Prosumer in kW/h, positive values lead to buy energy from the grid</text></g><g id="elem_GMN32"><path d="M1541.5,789.5 L1541.5,815.8516 L1913.5,815.8516 L1913.5,799.5 L1903.5,789.5 L1541.5,789.5 " fill="#FEFFDD" style="stroke:#181818;stroke-width:0.5;"/><path d="M1903.5,789.5 L1903.5,799.5 L1913.5,799.5 L1903.5,789.5 " fill="#FEFFDD" style="stroke:#181818;stroke-width:1.0;"/><text fill="#000000" font-family="sans-serif" font-size="13" lengthAdjust="spacing" textLength="351" x="1547.5" y="807.9951">Charge and discharge constrained by efficiency and capacity</text></g><!--link Prosumer to Profile--><g id="link_Prosumer_Profile"><path codeLine="87" d="M696.48,260.03 C659.53,278.92 617.49,300.69 579.5,321 C563.73,329.43 552.2002,335.7156 536.2202,344.5556 " fill="none" id="Prosumer-to-Profile" style="stroke:#181818;stroke-width:1.0;"/><polygon fill="#181818" points="530.97,347.46,540.7816,346.6036,535.3452,345.0397,536.9091,339.6033,530.97,347.46" style="stroke:#181818;stroke-width:1.0;"/><text fill="#000000" font-family="sans-serif" font-size="13" lengthAdjust="spacing" textLength="7" x="535.5996" y="336.6544">1</text></g><!--link Prosumer to PhotovoltaicPanel--><g id="link_Prosumer_PhotovoltaicPanel"><path codeLine="88" d="M898.71,232.77 C974.39,252.18 1079.53,282.63 1167.5,321 C1189.87,330.76 1208.163,340.6699 1228.263,352.7999 " fill="none" id="Prosumer-to-PhotovoltaicPanel" style="stroke:#181818;stroke-width:1.0;"/><polygon fill="#181818" points="1233.4,355.9,1227.7612,347.8251,1229.1191,353.3166,1223.6277,354.6745,1233.4,355.9" style="stroke:#181818;stroke-width:1.0;"/><text fill="#000000" font-family="sans-serif" font-size="13" lengthAdjust="spacing" textLength="7" x="1215.6106" y="345.1338">1</text></g><!--link Prosumer to Battery--><g id="link_Prosumer_Battery"><path codeLine="89" d="M898.76,216.48 C969.45,227.6 1059.15,254.82 1105.5,321 C1141.45,372.33 1125,402.45 1105.5,462 C1098.6,483.07 1090.309,498.6516 1077.349,516.8616 " fill="none" id="Prosumer-to-Battery" style="stroke:#181818;stroke-width:1.0;"/><polygon fill="#181818" points="1073.87,521.75,1082.3475,516.7368,1076.7692,517.6764,1075.8296,512.0981,1073.87,521.75" style="stroke:#181818;stroke-width:1.0;"/><text fill="#000000" font-family="sans-serif" font-size="13" lengthAdjust="spacing" textLength="7" x="1073.0441" y="511.1285">1</text></g><!--link Prosumer to GridExchange--><g id="link_Prosumer_GridExchange"><path codeLine="90" d="M898.6,220.07 C1019.07,235.04 1225.42,266.37 1395.5,321 C1401.34,322.88 1401.6296,322.8566 1407.5496,325.0366 " fill="none" id="Prosumer-to-GridExchange" style="stroke:#181818;stroke-width:1.0;"/><polygon fill="#181818" points="1413.18,327.11,1406.1167,320.2464,1408.488,325.3822,1403.3522,327.7536,1413.18,327.11" style="stroke:#181818;stroke-width:1.0;"/><text fill="#000000" font-family="sans-serif" font-size="13" lengthAdjust="spacing" textLength="20" x="1385.4516" y="320.6486">1..*</text></g><!--link Prosumer to CommunityExchange--><g id="link_Prosumer_CommunityExchange"><path codeLine="91" d="M696.45,236.33 C665.41,244.51 631.1,253.34 599.5,261 C480.03,289.95 446.81,284.28 329.5,321 C313.22,326.1 301.9275,329.9654 285.3775,336.2654 " fill="none" id="Prosumer-to-CommunityExchange" style="stroke:#181818;stroke-width:1.0;"/><polygon fill="#181818" points="279.77,338.4,289.6042,338.9365,284.4429,336.6212,286.7582,331.4598,279.77,338.4" style="stroke:#181818;stroke-width:1.0;"/><text fill="#000000" font-family="sans-serif" font-size="13" lengthAdjust="spacing" textLength="20" x="274.5875" y="327.7053">1..*</text></g><!--link PhotovoltaicPanel to PhotovoltaicEnergy--><g id="link_PhotovoltaicPanel_PhotovoltaicEnergy"><path codeLine="92" d="M1286.5,427.16 C1286.5,458.12 1286.5,497.91 1286.5,533.3 " fill="none" id="PhotovoltaicPanel-to-PhotovoltaicEnergy" style="stroke:#181818;stroke-width:1.0;"/><polygon fill="#181818" points="1286.5,539.3,1290.5,530.3,1286.5,534.3,1282.5,530.3,1286.5,539.3" style="stroke:#181818;stroke-width:1.0;"/><text fill="#000000" font-family="sans-serif" font-size="13" lengthAdjust="spacing" textLength="20" x="1265.1563" y="528.5918">1..*</text></g><!--link Battery to BatteryEnergy--><g id="link_Battery_BatteryEnergy"><path codeLine="93" d="M1040.59,663.05 C1048.87,682.18 1055.5262,697.5639 1064.0162,717.1739 " fill="none" id="Battery-to-BatteryEnergy" style="stroke:#181818;stroke-width:1.0;"/><polygon fill="#181818" points="1066.4,722.68,1066.495,712.8316,1064.4135,718.0916,1059.1535,716.01,1066.4,722.68" style="stroke:#181818;stroke-width:1.0;"/><text fill="#000000" font-family="sans-serif" font-size="13" lengthAdjust="spacing" textLength="20" x="1042.3345" y="712.1012">1..*</text></g><!--link Grid to GridExchange--><g id="link_Grid_GridExchange"><path codeLine="94" d="M1544.5,243.57 C1544.5,265.37 1544.5,288.31 1544.5,314.74 " fill="none" id="Grid-to-GridExchange" style="stroke:#181818;stroke-width:1.0;"/><polygon fill="#181818" points="1544.5,320.74,1548.5,311.74,1544.5,315.74,1540.5,311.74,1544.5,320.74" style="stroke:#181818;stroke-width:1.0;"/><text fill="#000000" font-family="sans-serif" font-size="13" lengthAdjust="spacing" textLength="20" x="1523.4688" y="310.1174">1..*</text></g><!--link Community to CommunityExchange--><g id="link_Community_CommunityExchange"><path codeLine="95" d="M588.07,95.04 C498.05,157.1 336.9598,268.1543 240.0998,334.9343 " fill="none" id="Community-to-CommunityExchange" style="stroke:#181818;stroke-width:1.0;"/><polygon fill="#181818" points="235.16,338.34,244.8401,336.5246,239.2765,335.5019,240.2992,329.9383,235.16,338.34" style="stroke:#181818;stroke-width:1.0;"/><text fill="#000000" font-family="sans-serif" font-size="13" lengthAdjust="spacing" textLength="20" x="223.9831" y="327.6372">1..*</text></g><!--link Community to Prosumer--><g id="link_Community_Prosumer"><path codeLine="96" d="M691.45,95.18 C709.03,113.72 725.5997,131.1979 744.0297,150.6179 " fill="none" id="Community-to-Prosumer" style="stroke:#181818;stroke-width:1.0;"/><polygon fill="#181818" points="748.16,154.97,744.866,145.6883,744.7181,151.3432,739.0632,151.1953,748.16,154.97" style="stroke:#181818;stroke-width:1.0;"/><text fill="#000000" font-family="sans-serif" font-size="13" lengthAdjust="spacing" textLength="20" x="720.1862" y="144.2847">1..*</text></g><!--link PhotovoltaicEnergy to BatteryEnergy--><g id="link_PhotovoltaicEnergy_BatteryEnergy"><path codeLine="97" d="M1239.8,645.72 C1218.93,669.06 1197.8694,692.6073 1174.7994,718.4073 " fill="none" id="PhotovoltaicEnergy-to-BatteryEnergy" style="stroke:#181818;stroke-width:1.0;"/><polygon fill="#181818" points="1170.8,722.88,1179.7809,718.8373,1174.1328,719.1528,1173.8173,713.5047,1170.8,722.88" style="stroke:#181818;stroke-width:1.0;"/><text fill="#000000" font-family="sans-serif" font-size="13" lengthAdjust="spacing" textLength="7" x="1170.1669" y="712.0465">1</text></g><!--link Profile to TimeStamp--><g id="link_Profile_TimeStamp"><path codeLine="98" d="M492.24,435.6 C571.68,524.93 764.23,734.28 950.5,882 C978.11,903.9 1005.8837,922.0252 1033.8437,938.7852 " fill="none" id="Profile-to-TimeStamp" style="stroke:#181818;stroke-width:1.0;"/><polygon fill="#181818" points="1038.99,941.87,1033.3272,933.8119,1034.7015,939.2993,1029.2141,940.6736,1038.99,941.87" style="stroke:#181818;stroke-width:1.0;"/><text fill="#000000" font-family="sans-serif" font-size="13" lengthAdjust="spacing" textLength="7" x="1019.5975" y="931.098">1</text></g><!--link GridExchange to TimeStamp--><g id="link_GridExchange_TimeStamp"><path codeLine="99" d="M1528.06,462.23 C1499.44,568.33 1430.43,769.79 1297.5,882 C1264.02,910.26 1226.1886,929.9527 1188.6686,945.5827 " fill="none" id="GridExchange-to-TimeStamp" style="stroke:#181818;stroke-width:1.0;"/><polygon fill="#181818" points="1183.13,947.89,1192.9761,948.1215,1187.7455,945.9673,1189.8998,940.7367,1183.13,947.89" style="stroke:#181818;stroke-width:1.0;"/><text fill="#000000" font-family="sans-serif" font-size="13" lengthAdjust="spacing" textLength="7" x="1191.0701" y="959.4171">1</text></g><!--link CommunityExchange to TimeStamp--><g id="link_CommunityExchange_TimeStamp"><path codeLine="100" d="M209.36,444.61 C307.31,544.04 535.64,761.61 768.5,882 C848.35,923.28 942.7274,947.4491 1012.0674,961.3691 " fill="none" id="CommunityExchange-to-TimeStamp" style="stroke:#181818;stroke-width:1.0;"/><polygon fill="#181818" points="1017.95,962.55,1009.9133,956.8568,1013.0478,961.5659,1008.3388,964.7003,1017.95,962.55" style="stroke:#181818;stroke-width:1.0;"/><text fill="#000000" font-family="sans-serif" font-size="13" lengthAdjust="spacing" textLength="7" x="1003.0173" y="957.9535">1</text></g><!--link PhotovoltaicEnergy to TimeStamp--><g id="link_PhotovoltaicEnergy_TimeStamp"><path codeLine="101" d="M1292.69,645.6 C1297.3,707.04 1296.34,809.91 1250.5,882 C1234.4,907.32 1213.9965,924.0706 1188.4765,938.8006 " fill="none" id="PhotovoltaicEnergy-to-TimeStamp" style="stroke:#181818;stroke-width:1.0;"/><polygon fill="#181818" points="1183.28,941.8,1193.0743,940.7652,1187.6104,939.3005,1189.0752,933.8366,1183.28,941.8" style="stroke:#181818;stroke-width:1.0;"/><text fill="#000000" font-family="sans-serif" font-size="13" lengthAdjust="spacing" textLength="7" x="1190.8973" y="931.2862">1</text></g><!--link BatteryEnergy to TimeStamp--><g id="link_BatteryEnergy_TimeStamp"><path codeLine="102" d="M1100.5,882.15 C1100.5,903.04 1100.5,918.54 1100.5,935.73 " fill="none" id="BatteryEnergy-to-TimeStamp" style="stroke:#181818;stroke-width:1.0;"/><polygon fill="#181818" points="1100.5,941.73,1104.5,932.73,1100.5,936.73,1096.5,932.73,1100.5,941.73" style="stroke:#181818;stroke-width:1.0;"/><text fill="#000000" font-family="sans-serif" font-size="13" lengthAdjust="spacing" textLength="7" x="1092.8547" y="931.2033">1</text></g><!--link Profile to GMN29--><g id="link_Profile_GMN29"><path d="M562.11,391.5 C573.7,391.5 585.29,391.5 596.88,391.5 " fill="none" id="Profile-GMN29" style="stroke:#181818;stroke-width:1.0;stroke-dasharray:7.0,7.0;"/></g><!--link BatteryEnergy to GMN32--><g id="link_BatteryEnergy_GMN32"><path d="M1233.06,802.5 C1335.75,802.5 1438.44,802.5 1541.12,802.5 " fill="none" id="BatteryEnergy-GMN32" style="stroke:#181818;stroke-width:1.0;stroke-dasharray:7.0,7.0;"/></g><!--SRC=[XLPDRzmW4BtxLunoITeqgNhTGm_vK1MfQLRTgZr4ESpYiOs2mJBOoghgVozUWnUCTtDPBUyDy1ZU3DQlN3ROOWtQx0JPtvOpqzKYgtXEK9EfLAwpZ0dK6jQjqbrDBVpD0AwWSSE7V0KREr6M4Nn7chMyCLp9cF-kqCueX4Bp_FByCe9DVuiDCcvsCNK930Nh11hQA7RnOGMzulcUo8bPaVTlh49PqaJz2-GMt1vgKZkCKh43-elNj35ODokO_eRyRnGTEM673RwrF7Uhb_RlREa1-e4rJM0qpyiEvdjeOHrF7TKP1jrqFeS9jI4XZd5hU_MdvkxvU85BQAdasb1hvrrWhJff71jUb0yQ9Yz7JQcvLNNTIUi2bnVcnxEaJ7YKuT1-UZNvzVdZwAGAzRsajjmDNjag9VQe9ChdUAfdTbziZX_Jz-xDDMGhI8P97v2dpYHsMrVAg5u9WvojKPBmpWxmkRq3QjcBuQ9Z4XPM7OaJQuy1ny_O1pNla1iqrXAxv9GETogsusYsjKEJksUkXJpYMxWP5GLdd2JRtLRObhJCtN7D4behziZbCP5HmhOXjYpudJHfOxlSKv6AJ7NbIs97v8PB7FBg31x4Hinqbac3EmUNLcgFugaOcEWOigktrfl5WmknDMQZXwNEuIS9ctibxPr8epISPzDpSNNr5Sw-dFc6l43CdPs6k8pFYUlhZsTHFrqCIAeuIsif24zh8lEk3A8Y3sJxj-2OfaDNEobgCSoV9rker5bod1J_xddsOBBeuKdfjDcbCITK78BYyaZvJ2f3qFAoCg0AxukLFOT0oMZ0J4M7xmqkuVNFv-eJD4fpmtk2VdYGDGZ278o2RRS36dShMbNlPmzlrsoZIDSAna83bFcXHcpdblOh2Bca7BQxe3_iuto7oVu3]--></g></svg>