<?xml version="1.0" encoding="us-ascii" standalone="no"?><svg xmlns="http://www.w3.org/2000/svg" xmlns:xlink="http://www.w3.org/1999/xlink" contentStyleType="text/css" height="936px" preserveAspectRatio="none" style="width:684px;height:936px;background:#FCF9EA;" version="1.1" viewBox="0 0 684 936" width="684px" zoomAndPan="magnify"><defs/><g><rect fill="#FCF9EA" height="936" style="stroke:none;stroke-width:1.0;" width="684" x="0" y="0"/><!--cluster <<agr Simulation>>--><g id="cluster_&lt;&lt;agr Simulation&gt;&gt;"><path d="M271.5,6 L388.5,6 A11.25,11.25 0 0 1 396,13.5 L403,39.6094 L427.5,39.6094 A7.5,7.5 0 0 1 435,47.1094 L435,314.5 A7.5,7.5 0 0 1 427.5,322 L271.5,322 A7.5,7.5 0 0 1 264,314.5 L264,13.5 A7.5,7.5 0 0 1 271.5,6 " fill="none" style="stroke:#000000;stroke-width:1.5;"/><line style="stroke:#000000;stroke-width:1.5;" x1="264" x2="403" y1="39.6094" y2="39.6094"/><text fill="#000000" font-family="sans-serif" font-size="14" font-weight="bold" lengthAdjust="spacing" textLength="116" x="273" y="27.5332">&#171;agr Simulation&#187;</text></g><!--cluster <<agr Profile>>--><g id="cluster_&lt;&lt;agr Profile&gt;&gt;"><path d="M13.5,100 L103.5,100 A11.25,11.25 0 0 1 111,107.5 L118,133.6094 L214.5,133.6094 A7.5,7.5 0 0 1 222,141.1094 L222,574.5 A7.5,7.5 0 0 1 214.5,582 L13.5,582 A7.5,7.5 0 0 1 6,574.5 L6,107.5 A7.5,7.5 0 0 1 13.5,100 " fill="none" style="stroke:#000000;stroke-width:1.5;"/><line style="stroke:#000000;stroke-width:1.5;" x1="6" x2="118" y1="133.6094" y2="133.6094"/><text fill="#000000" font-family="sans-serif" font-size="14" font-weight="bold" lengthAdjust="spacing" textLength="89" x="15" y="121.5332">&#171;agr Profile&#187;</text></g><!--cluster <<agr User>>--><g id="cluster_&lt;&lt;agr User&gt;&gt;"><path d="M508.5,604 L585.5,604 A11.25,11.25 0 0 1 593,611.5 L600,637.6094 L645.5,637.6094 A7.5,7.5 0 0 1 653,645.1094 L653,912.5 A7.5,7.5 0 0 1 645.5,920 L508.5,920 A7.5,7.5 0 0 1 501,912.5 L501,611.5 A7.5,7.5 0 0 1 508.5,604 " fill="none" style="stroke:#000000;stroke-width:1.5;"/><line style="stroke:#000000;stroke-width:1.5;" x1="501" x2="600" y1="637.6094" y2="637.6094"/><text fill="#000000" font-family="sans-serif" font-size="14" font-weight="bold" lengthAdjust="spacing" textLength="76" x="510" y="625.5332">&#171;agr User&#187;</text></g><!--cluster <<agr Battery(ESS)>>--><g id="cluster_&lt;&lt;agr Battery(ESS)&gt;&gt;"><path d="M485.5,62 L616.5,62 A11.25,11.25 0 0 1 624,69.5 L631,95.6094 L668.5,95.6094 A7.5,7.5 0 0 1 676,103.1094 L676,342.5 A7.5,7.5 0 0 1 668.5,350 L485.5,350 A7.5,7.5 0 0 1 478,342.5 L478,69.5 A7.5,7.5 0 0 1 485.5,62 " fill="none" style="stroke:#000000;stroke-width:1.5;"/><line style="stroke:#000000;stroke-width:1.5;" x1="478" x2="631" y1="95.6094" y2="95.6094"/><text fill="#000000" font-family="sans-serif" font-size="14" font-weight="bold" lengthAdjust="spacing" textLength="130" x="487" y="83.5332">&#171;agr Battery(ESS)&#187;</text></g><!--cluster <<agr Community>>--><g id="cluster_&lt;&lt;agr Community&gt;&gt;"><path d="M500.5,374 L621.5,374 A11.25,11.25 0 0 1 629,381.5 L636,407.6094 L653.5,407.6094 A7.5,7.5 0 0 1 661,415.1094 L661,572.5 A7.5,7.5 0 0 1 653.5,580 L500.5,580 A7.5,7.5 0 0 1 493,572.5 L493,381.5 A7.5,7.5 0 0 1 500.5,374 " fill="none" style="stroke:#000000;stroke-width:1.5;"/><line style="stroke:#000000;stroke-width:1.5;" x1="493" x2="636" y1="407.6094" y2="407.6094"/><text fill="#000000" font-family="sans-serif" font-size="14" font-weight="bold" lengthAdjust="spacing" textLength="120" x="502" y="395.5332">&#171;agr Community&#187;</text></g><!--cluster <<agr Prosumer>>--><g id="cluster_&lt;&lt;agr Prosumer&gt;&gt;"><path d="M289,346 L401,346 A11.25,11.25 0 0 1 408.5,353.5 L415.5,379.6094 L411,379.6094 A7.5,7.5 0 0 1 418.5,387.1094 L418.5,516.5 A7.5,7.5 0 0 1 411,524 L289,524 A7.5,7.5 0 0 1 281.5,516.5 L281.5,353.5 A7.5,7.5 0 0 1 289,346 " fill="none" style="stroke:#000000;stroke-width:1.5;"/><line style="stroke:#000000;stroke-width:1.5;" x1="281.5" x2="415.5" y1="379.6094" y2="379.6094"/><text fill="#000000" font-family="sans-serif" font-size="14" font-weight="bold" lengthAdjust="spacing" textLength="111" x="290.5" y="367.5332">&#171;agr Prosumer&#187;</text></g><!--cluster <<agr CommunityManager>>--><g id="cluster_&lt;&lt;agr CommunityManager&gt;&gt;"><path d="M253.5,548 L436.5,548 A11.25,11.25 0 0 1 444,555.5 L451,581.6094 L446.5,581.6094 A7.5,7.5 0 0 1 454,589.1094 L454,718.5 A7.5,7.5 0 0 1 446.5,726 L253.5,726 A7.5,7.5 0 0 1 246,718.5 L246,555.5 A7.5,7.5 0 0 1 253.5,548 " fill="none" style="stroke:#000000;stroke-width:1.5;"/><line style="stroke:#000000;stroke-width:1.5;" x1="246" x2="451" y1="581.6094" y2="581.6094"/><text fill="#000000" font-family="sans-serif" font-size="14" font-weight="bold" lengthAdjust="spacing" textLength="182" x="255" y="569.5332">&#171;agr CommunityManager&#187;</text></g><!--cluster <<agr Administrator>>--><g id="cluster_&lt;&lt;agr Administrator&gt;&gt;"><path d="M276,750 L414,750 A11.25,11.25 0 0 1 421.5,757.5 L428.5,783.6094 L424,783.6094 A7.5,7.5 0 0 1 431.5,791.1094 L431.5,920.5 A7.5,7.5 0 0 1 424,928 L276,928 A7.5,7.5 0 0 1 268.5,920.5 L268.5,757.5 A7.5,7.5 0 0 1 276,750 " fill="none" style="stroke:#000000;stroke-width:1.5;"/><line style="stroke:#000000;stroke-width:1.5;" x1="268.5" x2="428.5" y1="783.6094" y2="783.6094"/><text fill="#000000" font-family="sans-serif" font-size="14" font-weight="bold" lengthAdjust="spacing" textLength="137" x="277.5" y="771.5332">&#171;agr Administrator&#187;</text></g><!--class Simulation--><g id="elem_Simulation"><rect codeLine="31" fill="#BADFDB" height="253.3428" id="Simulation" rx="7.5" ry="7.5" style="stroke:#FFFFFF;stroke-width:0.5;" width="139" x="280" y="52.5"/><text fill="#000000" font-family="sans-serif" font-size="12" font-style="italic" lengthAdjust="spacing" textLength="43" x="328" y="74.957">&#171;entity&#187;</text><text fill="#000000" font-family="sans-serif" font-size="12" font-style="italic" lengthAdjust="spacing" textLength="35" x="332" y="90.0508">&#171;root&#187;</text><text fill="#000000" font-family="Arial" font-size="10" lengthAdjust="spacing" textLength="52" x="323.5" y="112.0674">Simulation</text><line style="stroke:#FFFFFF;stroke-width:0.5;" x1="281" x2="418" y1="124.1865" y2="124.1865"/><text fill="#000000" font-family="sans-serif" font-size="14" lengthAdjust="spacing" textLength="84" x="291" y="147.7197">+SimulationId</text><text fill="#000000" font-family="sans-serif" font-size="14" lengthAdjust="spacing" textLength="68" x="291" y="175.3291">+StartDate</text><text fill="#000000" font-family="sans-serif" font-size="14" lengthAdjust="spacing" textLength="63" x="291" y="202.9385">+EndDate</text><text fill="#000000" font-family="sans-serif" font-size="14" lengthAdjust="spacing" textLength="40" x="291" y="230.5479">+Load</text><text fill="#000000" font-family="sans-serif" font-size="14" lengthAdjust="spacing" textLength="85" x="291" y="258.1572">+BatteryLoad</text><text fill="#000000" font-family="sans-serif" font-size="14" lengthAdjust="spacing" textLength="117" x="291" y="285.7666">+PhotovoltaicLoad</text><line style="stroke:#FFFFFF;stroke-width:0.5;" x1="281" x2="418" y1="297.8428" y2="297.8428"/></g><!--class Profile--><g id="elem_Profile"><rect codeLine="42" fill="#BADFDB" height="418.999" id="Profile" rx="7.5" ry="7.5" style="stroke:#FFFFFF;stroke-width:0.5;" width="184" x="22" y="146.5"/><text fill="#000000" font-family="sans-serif" font-size="12" font-style="italic" lengthAdjust="spacing" textLength="43" x="92.5" y="168.957">&#171;entity&#187;</text><text fill="#000000" font-family="sans-serif" font-size="12" font-style="italic" lengthAdjust="spacing" textLength="35" x="96.5" y="184.0508">&#171;root&#187;</text><text fill="#000000" font-family="Arial" font-size="10" lengthAdjust="spacing" textLength="31" x="98.5" y="206.0674">Profile</text><line style="stroke:#FFFFFF;stroke-width:0.5;" x1="23" x2="205" y1="218.1865" y2="218.1865"/><text fill="#000000" font-family="sans-serif" font-size="14" lengthAdjust="spacing" textLength="59" x="33" y="241.7197">+ProfileId</text><text fill="#000000" font-family="sans-serif" font-size="14" lengthAdjust="spacing" textLength="38" x="33" y="269.3291">+Date</text><text fill="#000000" font-family="sans-serif" font-size="14" lengthAdjust="spacing" textLength="119" x="33" y="296.9385">+ProfileTimeStamp</text><text fill="#000000" font-family="sans-serif" font-size="14" lengthAdjust="spacing" textLength="80" x="33" y="324.5479">+ProfileLoad</text><text fill="#000000" font-family="sans-serif" font-size="14" lengthAdjust="spacing" textLength="81" x="33" y="352.1572">+SoldEnergy</text><text fill="#000000" font-family="sans-serif" font-size="14" lengthAdjust="spacing" textLength="98" x="33" y="379.7666">+BoughtEnergy</text><text fill="#000000" font-family="sans-serif" font-size="14" lengthAdjust="spacing" textLength="162" x="33" y="407.376">+PhotovoltaicEnergyLoad</text><text fill="#000000" font-family="sans-serif" font-size="14" lengthAdjust="spacing" textLength="103" x="33" y="434.9854">+StateOfCharge</text><text fill="#000000" font-family="sans-serif" font-size="14" lengthAdjust="spacing" textLength="49" x="33" y="462.5947">+PeerIn</text><text fill="#000000" font-family="sans-serif" font-size="14" lengthAdjust="spacing" textLength="61" x="33" y="490.2041">+PeerOut</text><text fill="#000000" font-family="sans-serif" font-size="14" lengthAdjust="spacing" textLength="100" x="33" y="517.8135">+BatteryCharge</text><text fill="#000000" font-family="sans-serif" font-size="14" lengthAdjust="spacing" textLength="117" x="33" y="545.4229">+BatteryDischarge</text><line style="stroke:#FFFFFF;stroke-width:0.5;" x1="23" x2="205" y1="557.499" y2="557.499"/></g><!--class User--><g id="elem_User"><rect codeLine="60" fill="#BADFDB" height="253.3428" id="User" rx="7.5" ry="7.5" style="stroke:#FFFFFF;stroke-width:0.5;" width="120" x="517" y="650.5"/><text fill="#000000" font-family="sans-serif" font-size="12" font-style="italic" lengthAdjust="spacing" textLength="43" x="555.5" y="672.957">&#171;entity&#187;</text><text fill="#000000" font-family="sans-serif" font-size="12" font-style="italic" lengthAdjust="spacing" textLength="35" x="559.5" y="688.0508">&#171;root&#187;</text><text fill="#000000" font-family="Arial" font-size="10" lengthAdjust="spacing" textLength="20" x="567" y="710.0674">User</text><line style="stroke:#FFFFFF;stroke-width:0.5;" x1="518" x2="636" y1="722.1865" y2="722.1865"/><text fill="#000000" font-family="sans-serif" font-size="14" lengthAdjust="spacing" textLength="48" x="528" y="745.7197">+UserId</text><text fill="#000000" font-family="sans-serif" font-size="14" lengthAdjust="spacing" textLength="73" x="528" y="773.3291">+UserName</text><text fill="#000000" font-family="sans-serif" font-size="14" lengthAdjust="spacing" textLength="71" x="528" y="800.9385">+UserEmail</text><text fill="#000000" font-family="sans-serif" font-size="14" lengthAdjust="spacing" textLength="98" x="528" y="828.5479">+UserPassword</text><text fill="#000000" font-family="sans-serif" font-size="14" lengthAdjust="spacing" textLength="78" x="528" y="856.1572">+UserPhone</text><text fill="#000000" font-family="sans-serif" font-size="14" lengthAdjust="spacing" textLength="66" x="528" y="883.7666">+UserRole</text><line style="stroke:#FFFFFF;stroke-width:0.5;" x1="518" x2="636" y1="895.8428" y2="895.8428"/></g><!--class Battery--><g id="elem_Battery"><rect codeLine="71" fill="#BADFDB" height="225.7334" id="Battery" rx="7.5" ry="7.5" style="stroke:#FFFFFF;stroke-width:0.5;" width="166" x="494" y="108"/><text fill="#000000" font-family="sans-serif" font-size="12" font-style="italic" lengthAdjust="spacing" textLength="43" x="555.5" y="130.457">&#171;entity&#187;</text><text fill="#000000" font-family="sans-serif" font-size="12" font-style="italic" lengthAdjust="spacing" textLength="35" x="559.5" y="145.5508">&#171;root&#187;</text><text fill="#000000" font-family="Arial" font-size="10" lengthAdjust="spacing" textLength="33" x="560.5" y="167.5674">Battery</text><line style="stroke:#FFFFFF;stroke-width:0.5;" x1="495" x2="659" y1="179.6865" y2="179.6865"/><text fill="#000000" font-family="sans-serif" font-size="14" lengthAdjust="spacing" textLength="64" x="505" y="203.2197">+BatteryId</text><text fill="#000000" font-family="sans-serif" font-size="14" lengthAdjust="spacing" textLength="89" x="505" y="230.8291">+BatteryName</text><text fill="#000000" font-family="sans-serif" font-size="14" lengthAdjust="spacing" textLength="88" x="505" y="258.4385">+MaxCapacity</text><text fill="#000000" font-family="sans-serif" font-size="14" lengthAdjust="spacing" textLength="68" x="505" y="286.0479">+Efficiency</text><text fill="#000000" font-family="sans-serif" font-size="14" lengthAdjust="spacing" textLength="144" x="505" y="313.6572">+MaxChargeDischarge</text><line style="stroke:#FFFFFF;stroke-width:0.5;" x1="495" x2="659" y1="325.7334" y2="325.7334"/></g><!--class Community--><g id="elem_Community"><rect codeLine="81" fill="#BADFDB" height="142.9053" id="Community" rx="7.5" ry="7.5" style="stroke:#FFFFFF;stroke-width:0.5;" width="136" x="509" y="420.5"/><text fill="#000000" font-family="sans-serif" font-size="12" font-style="italic" lengthAdjust="spacing" textLength="43" x="555.5" y="442.957">&#171;entity&#187;</text><text fill="#000000" font-family="sans-serif" font-size="12" font-style="italic" lengthAdjust="spacing" textLength="35" x="559.5" y="458.0508">&#171;root&#187;</text><text fill="#000000" font-family="Arial" font-size="10" lengthAdjust="spacing" textLength="54" x="550" y="480.0674">Community</text><line style="stroke:#FFFFFF;stroke-width:0.5;" x1="510" x2="644" y1="492.1865" y2="492.1865"/><text fill="#000000" font-family="sans-serif" font-size="14" lengthAdjust="spacing" textLength="89" x="520" y="515.7197">+CommunityId</text><text fill="#000000" font-family="sans-serif" font-size="14" lengthAdjust="spacing" textLength="114" x="520" y="543.3291">+CommunityName</text><line style="stroke:#FFFFFF;stroke-width:0.5;" x1="510" x2="644" y1="555.4053" y2="555.4053"/></g><!--class Prosumer--><g id="elem_Prosumer"><rect codeLine="88" fill="#BADFDB" height="115.2959" id="Prosumer" rx="7.5" ry="7.5" style="stroke:#FFFFFF;stroke-width:0.5;" width="102" x="298.5" y="392.5"/><text fill="#000000" font-family="sans-serif" font-size="12" font-style="italic" lengthAdjust="spacing" textLength="43" x="328" y="414.957">&#171;entity&#187;</text><text fill="#000000" font-family="sans-serif" font-size="12" font-style="italic" lengthAdjust="spacing" textLength="35" x="332" y="430.0508">&#171;root&#187;</text><text fill="#000000" font-family="Arial" font-size="10" lengthAdjust="spacing" textLength="44" x="327.5" y="452.0674">Prosumer</text><line style="stroke:#FFFFFF;stroke-width:0.5;" x1="299.5" x2="399.5" y1="464.1865" y2="464.1865"/><text fill="#000000" font-family="sans-serif" font-size="14" lengthAdjust="spacing" textLength="80" x="309.5" y="487.7197">+ProsumerId</text><line style="stroke:#FFFFFF;stroke-width:0.5;" x1="299.5" x2="399.5" y1="499.7959" y2="499.7959"/></g><!--class CommunityManager--><g id="elem_CommunityManager"><rect codeLine="98" fill="#BADFDB" height="115.2959" id="CommunityManager" rx="7.5" ry="7.5" style="stroke:#FFFFFF;stroke-width:0.5;" width="167" x="266" y="594.5"/><text fill="#000000" font-family="sans-serif" font-size="12" font-style="italic" lengthAdjust="spacing" textLength="43" x="328" y="616.957">&#171;entity&#187;</text><text fill="#000000" font-family="sans-serif" font-size="12" font-style="italic" lengthAdjust="spacing" textLength="35" x="332" y="632.0508">&#171;root&#187;</text><text fill="#000000" font-family="Arial" font-size="10" lengthAdjust="spacing" textLength="96" x="301.5" y="654.0674">CommunityManager</text><line style="stroke:#FFFFFF;stroke-width:0.5;" x1="267" x2="432" y1="666.1865" y2="666.1865"/><text fill="#000000" font-family="sans-serif" font-size="14" lengthAdjust="spacing" textLength="145" x="277" y="689.7197">+CommunityManagerId</text><line style="stroke:#FFFFFF;stroke-width:0.5;" x1="267" x2="432" y1="701.7959" y2="701.7959"/></g><!--class Administrator--><g id="elem_Administrator"><rect codeLine="106" fill="#BADFDB" height="115.2959" id="Administrator" rx="7.5" ry="7.5" style="stroke:#FFFFFF;stroke-width:0.5;" width="80" x="309.5" y="796.5"/><text fill="#000000" font-family="sans-serif" font-size="12" font-style="italic" lengthAdjust="spacing" textLength="43" x="328" y="818.957">&#171;entity&#187;</text><text fill="#000000" font-family="sans-serif" font-size="12" font-style="italic" lengthAdjust="spacing" textLength="35" x="332" y="834.0508">&#171;root&#187;</text><text fill="#000000" font-family="Arial" font-size="10" lengthAdjust="spacing" textLength="62" x="318.5" y="856.0674">Administrator</text><line style="stroke:#FFFFFF;stroke-width:0.5;" x1="310.5" x2="388.5" y1="868.1865" y2="868.1865"/><text fill="#000000" font-family="sans-serif" font-size="14" lengthAdjust="spacing" textLength="58" x="320.5" y="891.7197">+AdminId</text><line style="stroke:#FFFFFF;stroke-width:0.5;" x1="310.5" x2="388.5" y1="903.7959" y2="903.7959"/></g><!--link Profile to Simulation--><g id="link_Profile_Simulation"><path codeLine="56" d="M206.28,286.81 C230.71,268.29 251.9288,252.2049 274.9188,234.7749 " fill="none" id="Profile-to-Simulation" style="stroke:#FFC5A1;stroke-width:1.0;"/><polygon fill="#FFC5A1" points="279.7,231.15,270.1116,233.3999,275.7157,234.1708,274.9448,239.7748,279.7,231.15" style="stroke:#FFC5A1;stroke-width:1.0;"/></g><!--link Prosumer to User--><g id="link_Prosumer_User"><path codeLine="91" d="M400.61,506.11 C420.6,529.52 443.26,557.4 462,584 C481.05,611.04 490.8632,625.9031 507.7032,654.4031 " fill="none" id="Prosumer-to-User" style="stroke:#FFC5A1;stroke-width:1.0;"/><polygon fill="none" points="516.86,669.9,512.8689,651.3509,502.5376,657.4554,516.86,669.9" style="stroke:#FFC5A1;stroke-width:1.0;"/></g><!--link Prosumer to Community--><g id="link_Prosumer_Community"><path codeLine="92" d="M400.55,459.32 C432.47,465.27 468.3216,471.9404 503.0816,478.4204 " fill="none" id="Prosumer-to-Community" style="stroke:#FFC5A1;stroke-width:1.0;"/><polygon fill="#FFC5A1" points="508.98,479.52,500.8655,473.9384,504.0647,478.6037,499.3994,481.8029,508.98,479.52" style="stroke:#FFC5A1;stroke-width:1.0;"/></g><!--link Prosumer to Battery--><g id="link_Prosumer_Battery"><path codeLine="93" d="M400.55,399.18 C427.92,371.37 458.3198,340.5049 489.5598,308.7849 " fill="none" id="Prosumer-to-Battery" style="stroke:#FFC5A1;stroke-width:1.0;"/><polygon fill="#FFC5A1" points="493.77,304.51,484.6048,308.1155,490.2615,308.0724,490.3046,313.7291,493.77,304.51" style="stroke:#FFC5A1;stroke-width:1.0;"/></g><!--link Profile to Prosumer--><g id="link_Profile_Prosumer"><path codeLine="94" d="M206.28,392.75 C237.62,405.36 265.9642,416.7692 292.8142,427.5792 " fill="none" id="Profile-to-Prosumer" style="stroke:#FFC5A1;stroke-width:1.0;"/><polygon fill="#FFC5A1" points="298.38,429.82,291.5251,422.7482,293.7418,427.9526,288.5373,430.1693,298.38,429.82" style="stroke:#FFC5A1;stroke-width:1.0;"/></g><!--link CommunityManager to User--><g id="link_CommunityManager_User"><path codeLine="101" d="M433.19,697.84 C460.97,713.23 475.6256,721.3657 501.2156,735.5457 " fill="none" id="CommunityManager-to-User" style="stroke:#FFC5A1;stroke-width:1.0;"/><polygon fill="none" points="516.96,744.27,504.1237,730.2975,498.3075,740.7938,516.96,744.27" style="stroke:#FFC5A1;stroke-width:1.0;"/></g><!--link CommunityManager to Community--><g id="link_CommunityManager_Community"><path codeLine="102" d="M431.59,594.46 C456.97,576.45 479.7865,560.2618 504.0865,543.0218 " fill="none" id="CommunityManager-to-Community" style="stroke:#FFC5A1;stroke-width:1.0;"/><polygon fill="#FFC5A1" points="508.98,539.55,499.3252,541.4953,504.9021,542.4432,503.9542,548.02,508.98,539.55" style="stroke:#FFC5A1;stroke-width:1.0;"/></g><!--link Administrator to User--><g id="link_Administrator_User"><path codeLine="109" d="M389.52,840.68 C424.57,828.71 459.4957,816.7866 499.6757,803.0666 " fill="none" id="Administrator-to-User" style="stroke:#FFC5A1;stroke-width:1.0;"/><polygon fill="none" points="516.71,797.25,497.7368,797.3885,501.6146,808.7447,516.71,797.25" style="stroke:#FFC5A1;stroke-width:1.0;"/></g><!--SRC=[ZPDHQzim58NV_Ij4zx8n0WsZh0LZQDCC0ijQceqztqZNZeWi1LbEbstvxvDjsP8Tr-mXO9zxhlMTgviTPqWerrHW51LxBW-W8ITReFjCgrAoXH9AatSfJUyG0eVXHk23qWprI-FJ4ZMPtmmzNvGq6_uRoQVhe4G55CMzCPflIuChgcJjkHxh_WOvadlDGP07OS76F2tcBTnzlWqCTGRQiGKLgHWMU23py4mDSb-BOOm3CCPbHdhjTO0ks_nwhEJ1nweDyhPEDAoJFn6ndLgzDguqfJSmjrepyKRykUC6AsrmMLjWATjU5k9uUKHfaeGK-zDMb3XcsQ0-SehMj5QKGi5bT8uYWQaXHX7DivqXZ6kaXYiPHGVR3ncIgpY6J9CDpqi1LIb9hkeGJHolapYs3DoSaYIEjL8LJkKZvACthPXJ36Zp27LA-xgKpBzyLU1S3s0CwfCNddVAgACI1ZXrwhbACO1zrYhb0lkaJfp0T8wMqHEvmdUUemNF3ptLqssKO4kxZzd9uQlI3ZLKGlv63xgDFUyfNUn0P-svY7eb_VDJQNg32RrEUkG5RTMp_RMfPxCakAkHcVqeKFS7LYaJqwhAxQYgv-e_uT-MEN3XNv_j1r_jXWVAJid0_w84ld6RBjdxvMRpeK_eAXEGph7gBvH7NSEl1TZpRBFRn3JbbAEa9s-evzaVx2NbGkLvAMk84B6J9o0xJulP2GxqZHqlodnuPwqwlUMrPSNyYZGzizdVfBxrlfZu4CE2c-TWprhBr9JM8AsitnYMg_xFp9orItFnZJ3LI35CTybxpt8kUM4q63M0xPKcI6jVXzVlycpdw1y0]--></g></svg>