<?xml version="1.0" encoding="us-ascii" standalone="no"?><svg xmlns="http://www.w3.org/2000/svg" xmlns:xlink="http://www.w3.org/1999/xlink" contentStyleType="text/css" height="1172px" preserveAspectRatio="none" style="width:765px;height:1172px;background:#FFFFFF;" version="1.1" viewBox="0 0 765 1172" width="765px" zoomAndPan="magnify"><defs/><g><!--cluster <<agr Simulation>>--><g id="cluster_&lt;&lt;agr Simulation&gt;&gt;"><path d="M8.5,511 L135.5,511 A3.75,3.75 0 0 1 138,513.5 L145,544.6094 L175.5,544.6094 A2.5,2.5 0 0 1 178,547.1094 L178,823.5 A2.5,2.5 0 0 1 175.5,826 L8.5,826 A2.5,2.5 0 0 1 6,823.5 L6,513.5 A2.5,2.5 0 0 1 8.5,511 " fill="none" style="stroke:#000000;stroke-width:1.5;"/><line style="stroke:#000000;stroke-width:1.5;" x1="6" x2="145" y1="544.6094" y2="544.6094"/><text fill="#000000" font-family="sans-serif" font-size="14" font-weight="bold" lengthAdjust="spacing" textLength="116" x="15" y="532.5332">&#171;agr Simulation&#187;</text></g><!--cluster <<agr Community>>--><g id="cluster_&lt;&lt;agr Community&gt;&gt;"><path d="M300.5,905 L431.5,905 A3.75,3.75 0 0 1 434,907.5 L441,938.6094 L463.5,938.6094 A2.5,2.5 0 0 1 466,941.1094 L466,1107.5 A2.5,2.5 0 0 1 463.5,1110 L300.5,1110 A2.5,2.5 0 0 1 298,1107.5 L298,907.5 A2.5,2.5 0 0 1 300.5,905 " fill="none" style="stroke:#000000;stroke-width:1.5;"/><line style="stroke:#000000;stroke-width:1.5;" x1="298" x2="441" y1="938.6094" y2="938.6094"/><text fill="#000000" font-family="sans-serif" font-size="14" font-weight="bold" lengthAdjust="spacing" textLength="120" x="307" y="926.5332">&#171;agr Community&#187;</text></g><!--cluster <<agr Profile>>--><g id="cluster_&lt;&lt;agr Profile&gt;&gt;"><path d="M80.5,6 L180.5,6 A3.75,3.75 0 0 1 183,8.5 L190,39.6094 L291.5,39.6094 A2.5,2.5 0 0 1 294,42.1094 L294,484.5 A2.5,2.5 0 0 1 291.5,487 L80.5,487 A2.5,2.5 0 0 1 78,484.5 L78,8.5 A2.5,2.5 0 0 1 80.5,6 " fill="none" style="stroke:#000000;stroke-width:1.5;"/><line style="stroke:#000000;stroke-width:1.5;" x1="78" x2="190" y1="39.6094" y2="39.6094"/><text fill="#000000" font-family="sans-serif" font-size="14" font-weight="bold" lengthAdjust="spacing" textLength="89" x="87" y="27.5332">&#171;agr Profile&#187;</text></g><!--cluster <<agr User>>--><g id="cluster_&lt;&lt;agr User&gt;&gt;"><path d="M492.5,850 L579.5,850 A3.75,3.75 0 0 1 582,852.5 L589,883.6094 L639.5,883.6094 A2.5,2.5 0 0 1 642,886.1094 L642,1162.5 A2.5,2.5 0 0 1 639.5,1165 L492.5,1165 A2.5,2.5 0 0 1 490,1162.5 L490,852.5 A2.5,2.5 0 0 1 492.5,850 " fill="none" style="stroke:#000000;stroke-width:1.5;"/><line style="stroke:#000000;stroke-width:1.5;" x1="490" x2="589" y1="883.6094" y2="883.6094"/><text fill="#000000" font-family="sans-serif" font-size="14" font-weight="bold" lengthAdjust="spacing" textLength="76" x="499" y="871.5332">&#171;agr User&#187;</text></g><!--cluster <<agr Prosumer>>--><g id="cluster_&lt;&lt;agr Prosumer&gt;&gt;"><path d="M204.5,580 L326.5,580 A3.75,3.75 0 0 1 329,582.5 L336,613.6094 L336.5,613.6094 A2.5,2.5 0 0 1 339,616.1094 L339,754.5 A2.5,2.5 0 0 1 336.5,757 L204.5,757 A2.5,2.5 0 0 1 202,754.5 L202,582.5 A2.5,2.5 0 0 1 204.5,580 " fill="none" style="stroke:#000000;stroke-width:1.5;"/><line style="stroke:#000000;stroke-width:1.5;" x1="202" x2="336" y1="613.6094" y2="613.6094"/><text fill="#000000" font-family="sans-serif" font-size="14" font-weight="bold" lengthAdjust="spacing" textLength="111" x="211" y="601.5332">&#171;agr Prosumer&#187;</text></g><!--cluster <<agr Battery(ESS)>>--><g id="cluster_&lt;&lt;agr Battery(ESS)&gt;&gt;"><path d="M78.5,863.5 L219.5,863.5 A3.75,3.75 0 0 1 222,866 L229,897.1094 L271.5,897.1094 A2.5,2.5 0 0 1 274,899.6094 L274,1149 A2.5,2.5 0 0 1 271.5,1151.5 L78.5,1151.5 A2.5,2.5 0 0 1 76,1149 L76,866 A2.5,2.5 0 0 1 78.5,863.5 " fill="none" style="stroke:#000000;stroke-width:1.5;"/><line style="stroke:#000000;stroke-width:1.5;" x1="76" x2="229" y1="897.1094" y2="897.1094"/><text fill="#000000" font-family="sans-serif" font-size="14" font-weight="bold" lengthAdjust="spacing" textLength="130" x="85" y="885.0332">&#171;agr Battery(ESS)&#187;</text></g><!--cluster <<agr CommunityManager>>--><g id="cluster_&lt;&lt;agr CommunityManager&gt;&gt;"><path d="M365.5,580 L558.5,580 A3.75,3.75 0 0 1 561,582.5 L568,613.6094 L568.5,613.6094 A2.5,2.5 0 0 1 571,616.1094 L571,754.5 A2.5,2.5 0 0 1 568.5,757 L365.5,757 A2.5,2.5 0 0 1 363,754.5 L363,582.5 A2.5,2.5 0 0 1 365.5,580 " fill="none" style="stroke:#000000;stroke-width:1.5;"/><line style="stroke:#000000;stroke-width:1.5;" x1="363" x2="568" y1="613.6094" y2="613.6094"/><text fill="#000000" font-family="sans-serif" font-size="14" font-weight="bold" lengthAdjust="spacing" textLength="182" x="372" y="601.5332">&#171;agr CommunityManager&#187;</text></g><!--cluster <<agr Administrator>>--><g id="cluster_&lt;&lt;agr Administrator&gt;&gt;"><path d="M597.5,580 L745.5,580 A3.75,3.75 0 0 1 748,582.5 L755,613.6094 L755.5,613.6094 A2.5,2.5 0 0 1 758,616.1094 L758,754.5 A2.5,2.5 0 0 1 755.5,757 L597.5,757 A2.5,2.5 0 0 1 595,754.5 L595,582.5 A2.5,2.5 0 0 1 597.5,580 " fill="none" style="stroke:#000000;stroke-width:1.5;"/><line style="stroke:#000000;stroke-width:1.5;" x1="595" x2="755" y1="613.6094" y2="613.6094"/><text fill="#000000" font-family="sans-serif" font-size="14" font-weight="bold" lengthAdjust="spacing" textLength="137" x="604" y="601.5332">&#171;agr Administrator&#187;</text></g><!--class Simulation--><g id="elem_Simulation"><rect codeLine="28" fill="#BADFDB" height="253.3428" id="Simulation" rx="2.5" ry="2.5" style="stroke:#FFFFFF;stroke-width:0.5;" width="139" x="22.5" y="557"/><text fill="#000000" font-family="sans-serif" font-size="12" font-style="italic" lengthAdjust="spacing" textLength="43" x="70.5" y="579.457">&#171;entity&#187;</text><text fill="#000000" font-family="sans-serif" font-size="12" font-style="italic" lengthAdjust="spacing" textLength="35" x="74.5" y="594.5508">&#171;root&#187;</text><text fill="#000000" font-family="Arial" font-size="10" lengthAdjust="spacing" textLength="52" x="66" y="616.5674">Simulation</text><line style="stroke:#FFFFFF;stroke-width:0.5;" x1="23.5" x2="160.5" y1="628.6865" y2="628.6865"/><text fill="#000000" font-family="sans-serif" font-size="14" lengthAdjust="spacing" textLength="84" x="33.5" y="652.2197">+SimulationId</text><text fill="#000000" font-family="sans-serif" font-size="14" lengthAdjust="spacing" textLength="68" x="33.5" y="679.8291">+StartDate</text><text fill="#000000" font-family="sans-serif" font-size="14" lengthAdjust="spacing" textLength="63" x="33.5" y="707.4385">+EndDate</text><text fill="#000000" font-family="sans-serif" font-size="14" lengthAdjust="spacing" textLength="40" x="33.5" y="735.0479">+Load</text><text fill="#000000" font-family="sans-serif" font-size="14" lengthAdjust="spacing" textLength="85" x="33.5" y="762.6572">+BatteryLoad</text><text fill="#000000" font-family="sans-serif" font-size="14" lengthAdjust="spacing" textLength="117" x="33.5" y="790.2666">+PhotovoltaicLoad</text><line style="stroke:#FFFFFF;stroke-width:0.5;" x1="23.5" x2="160.5" y1="802.3428" y2="802.3428"/></g><!--class Community--><g id="elem_Community"><rect codeLine="39" fill="#BADFDB" height="142.9053" id="Community" rx="2.5" ry="2.5" style="stroke:#FFFFFF;stroke-width:0.5;" width="136" x="314" y="951"/><text fill="#000000" font-family="sans-serif" font-size="12" font-style="italic" lengthAdjust="spacing" textLength="43" x="360.5" y="973.457">&#171;entity&#187;</text><text fill="#000000" font-family="sans-serif" font-size="12" font-style="italic" lengthAdjust="spacing" textLength="35" x="364.5" y="988.5508">&#171;root&#187;</text><text fill="#000000" font-family="Arial" font-size="10" lengthAdjust="spacing" textLength="54" x="355" y="1010.5674">Community</text><line style="stroke:#FFFFFF;stroke-width:0.5;" x1="315" x2="449" y1="1022.6865" y2="1022.6865"/><text fill="#000000" font-family="sans-serif" font-size="14" lengthAdjust="spacing" textLength="89" x="325" y="1046.2197">+CommunityId</text><text fill="#000000" font-family="sans-serif" font-size="14" lengthAdjust="spacing" textLength="114" x="325" y="1073.8291">+CommunityName</text><line style="stroke:#FFFFFF;stroke-width:0.5;" x1="315" x2="449" y1="1085.9053" y2="1085.9053"/></g><!--class Profile--><g id="elem_Profile"><rect codeLine="46" fill="#BADFDB" height="418.999" id="Profile" rx="2.5" ry="2.5" style="stroke:#FFFFFF;stroke-width:0.5;" width="184" x="94" y="52"/><text fill="#000000" font-family="sans-serif" font-size="12" font-style="italic" lengthAdjust="spacing" textLength="43" x="164.5" y="74.457">&#171;entity&#187;</text><text fill="#000000" font-family="sans-serif" font-size="12" font-style="italic" lengthAdjust="spacing" textLength="35" x="168.5" y="89.5508">&#171;root&#187;</text><text fill="#000000" font-family="Arial" font-size="10" lengthAdjust="spacing" textLength="31" x="170.5" y="111.5674">Profile</text><line style="stroke:#FFFFFF;stroke-width:0.5;" x1="95" x2="277" y1="123.6865" y2="123.6865"/><text fill="#000000" font-family="sans-serif" font-size="14" lengthAdjust="spacing" textLength="59" x="105" y="147.2197">+ProfileId</text><text fill="#000000" font-family="sans-serif" font-size="14" lengthAdjust="spacing" textLength="38" x="105" y="174.8291">+Date</text><text fill="#000000" font-family="sans-serif" font-size="14" lengthAdjust="spacing" textLength="119" x="105" y="202.4385">+ProfileTimeStamp</text><text fill="#000000" font-family="sans-serif" font-size="14" lengthAdjust="spacing" textLength="80" x="105" y="230.0479">+ProfileLoad</text><text fill="#000000" font-family="sans-serif" font-size="14" lengthAdjust="spacing" textLength="81" x="105" y="257.6572">+SoldEnergy</text><text fill="#000000" font-family="sans-serif" font-size="14" lengthAdjust="spacing" textLength="98" x="105" y="285.2666">+BoughtEnergy</text><text fill="#000000" font-family="sans-serif" font-size="14" lengthAdjust="spacing" textLength="162" x="105" y="312.876">+PhotovoltaicEnergyLoad</text><text fill="#000000" font-family="sans-serif" font-size="14" lengthAdjust="spacing" textLength="103" x="105" y="340.4854">+StateOfCharge</text><text fill="#000000" font-family="sans-serif" font-size="14" lengthAdjust="spacing" textLength="49" x="105" y="368.0947">+PeerIn</text><text fill="#000000" font-family="sans-serif" font-size="14" lengthAdjust="spacing" textLength="61" x="105" y="395.7041">+PeerOut</text><text fill="#000000" font-family="sans-serif" font-size="14" lengthAdjust="spacing" textLength="100" x="105" y="423.3135">+BatteryCharge</text><text fill="#000000" font-family="sans-serif" font-size="14" lengthAdjust="spacing" textLength="117" x="105" y="450.9229">+BatteryDischarge</text><line style="stroke:#FFFFFF;stroke-width:0.5;" x1="95" x2="277" y1="462.999" y2="462.999"/></g><!--class User--><g id="elem_User"><rect codeLine="64" fill="#BADFDB" height="253.3428" id="User" rx="2.5" ry="2.5" style="stroke:#FFFFFF;stroke-width:0.5;" width="120" x="506" y="896"/><text fill="#000000" font-family="sans-serif" font-size="12" font-style="italic" lengthAdjust="spacing" textLength="43" x="544.5" y="918.457">&#171;entity&#187;</text><text fill="#000000" font-family="sans-serif" font-size="12" font-style="italic" lengthAdjust="spacing" textLength="35" x="548.5" y="933.5508">&#171;root&#187;</text><text fill="#000000" font-family="Arial" font-size="10" lengthAdjust="spacing" textLength="20" x="556" y="955.5674">User</text><line style="stroke:#FFFFFF;stroke-width:0.5;" x1="507" x2="625" y1="967.6865" y2="967.6865"/><text fill="#000000" font-family="sans-serif" font-size="14" lengthAdjust="spacing" textLength="48" x="517" y="991.2197">+UserId</text><text fill="#000000" font-family="sans-serif" font-size="14" lengthAdjust="spacing" textLength="73" x="517" y="1018.8291">+UserName</text><text fill="#000000" font-family="sans-serif" font-size="14" lengthAdjust="spacing" textLength="71" x="517" y="1046.4385">+UserEmail</text><text fill="#000000" font-family="sans-serif" font-size="14" lengthAdjust="spacing" textLength="98" x="517" y="1074.0479">+UserPassword</text><text fill="#000000" font-family="sans-serif" font-size="14" lengthAdjust="spacing" textLength="78" x="517" y="1101.6572">+UserPhone</text><text fill="#000000" font-family="sans-serif" font-size="14" lengthAdjust="spacing" textLength="66" x="517" y="1129.2666">+UserRole</text><line style="stroke:#FFFFFF;stroke-width:0.5;" x1="507" x2="625" y1="1141.3428" y2="1141.3428"/></g><!--class Prosumer--><g id="elem_Prosumer"><rect codeLine="78" fill="#BADFDB" height="115.2959" id="Prosumer" rx="2.5" ry="2.5" style="stroke:#FFFFFF;stroke-width:0.5;" width="102" x="219" y="626"/><text fill="#000000" font-family="sans-serif" font-size="12" font-style="italic" lengthAdjust="spacing" textLength="43" x="248.5" y="648.457">&#171;entity&#187;</text><text fill="#000000" font-family="sans-serif" font-size="12" font-style="italic" lengthAdjust="spacing" textLength="35" x="252.5" y="663.5508">&#171;root&#187;</text><text fill="#000000" font-family="Arial" font-size="10" lengthAdjust="spacing" textLength="44" x="248" y="685.5674">Prosumer</text><line style="stroke:#FFFFFF;stroke-width:0.5;" x1="220" x2="320" y1="697.6865" y2="697.6865"/><text fill="#000000" font-family="sans-serif" font-size="14" lengthAdjust="spacing" textLength="80" x="230" y="721.2197">+ProsumerId</text><line style="stroke:#FFFFFF;stroke-width:0.5;" x1="220" x2="320" y1="733.2959" y2="733.2959"/></g><!--class Battery--><g id="elem_Battery"><rect codeLine="88" fill="#BADFDB" height="225.7334" id="Battery" rx="2.5" ry="2.5" style="stroke:#FFFFFF;stroke-width:0.5;" width="166" x="92" y="909.5"/><text fill="#000000" font-family="sans-serif" font-size="12" font-style="italic" lengthAdjust="spacing" textLength="43" x="153.5" y="931.957">&#171;entity&#187;</text><text fill="#000000" font-family="sans-serif" font-size="12" font-style="italic" lengthAdjust="spacing" textLength="35" x="157.5" y="947.0508">&#171;root&#187;</text><text fill="#000000" font-family="Arial" font-size="10" lengthAdjust="spacing" textLength="33" x="158.5" y="969.0674">Battery</text><line style="stroke:#FFFFFF;stroke-width:0.5;" x1="93" x2="257" y1="981.1865" y2="981.1865"/><text fill="#000000" font-family="sans-serif" font-size="14" lengthAdjust="spacing" textLength="64" x="103" y="1004.7197">+BatteryId</text><text fill="#000000" font-family="sans-serif" font-size="14" lengthAdjust="spacing" textLength="89" x="103" y="1032.3291">+BatteryName</text><text fill="#000000" font-family="sans-serif" font-size="14" lengthAdjust="spacing" textLength="88" x="103" y="1059.9385">+MaxCapacity</text><text fill="#000000" font-family="sans-serif" font-size="14" lengthAdjust="spacing" textLength="68" x="103" y="1087.5479">+Efficiency</text><text fill="#000000" font-family="sans-serif" font-size="14" lengthAdjust="spacing" textLength="144" x="103" y="1115.1572">+MaxChargeDischarge</text><line style="stroke:#FFFFFF;stroke-width:0.5;" x1="93" x2="257" y1="1127.2334" y2="1127.2334"/></g><!--class CommunityManager--><g id="elem_CommunityManager"><rect codeLine="100" fill="#BADFDB" height="115.2959" id="CommunityManager" rx="2.5" ry="2.5" style="stroke:#FFFFFF;stroke-width:0.5;" width="167" x="383.5" y="626"/><text fill="#000000" font-family="sans-serif" font-size="12" font-style="italic" lengthAdjust="spacing" textLength="43" x="445.5" y="648.457">&#171;entity&#187;</text><text fill="#000000" font-family="sans-serif" font-size="12" font-style="italic" lengthAdjust="spacing" textLength="35" x="449.5" y="663.5508">&#171;root&#187;</text><text fill="#000000" font-family="Arial" font-size="10" lengthAdjust="spacing" textLength="96" x="419" y="685.5674">CommunityManager</text><line style="stroke:#FFFFFF;stroke-width:0.5;" x1="384.5" x2="549.5" y1="697.6865" y2="697.6865"/><text fill="#000000" font-family="sans-serif" font-size="14" lengthAdjust="spacing" textLength="145" x="394.5" y="721.2197">+CommunityManagerId</text><line style="stroke:#FFFFFF;stroke-width:0.5;" x1="384.5" x2="549.5" y1="733.2959" y2="733.2959"/></g><!--class Administrator--><g id="elem_Administrator"><rect codeLine="108" fill="#BADFDB" height="115.2959" id="Administrator" rx="2.5" ry="2.5" style="stroke:#FFFFFF;stroke-width:0.5;" width="80" x="611" y="626"/><text fill="#000000" font-family="sans-serif" font-size="12" font-style="italic" lengthAdjust="spacing" textLength="43" x="629.5" y="648.457">&#171;entity&#187;</text><text fill="#000000" font-family="sans-serif" font-size="12" font-style="italic" lengthAdjust="spacing" textLength="35" x="633.5" y="663.5508">&#171;root&#187;</text><text fill="#000000" font-family="Arial" font-size="10" lengthAdjust="spacing" textLength="62" x="620" y="685.5674">Administrator</text><line style="stroke:#FFFFFF;stroke-width:0.5;" x1="612" x2="690" y1="697.6865" y2="697.6865"/><text fill="#000000" font-family="sans-serif" font-size="14" lengthAdjust="spacing" textLength="58" x="622" y="721.2197">+AdminId</text><line style="stroke:#FFFFFF;stroke-width:0.5;" x1="612" x2="690" y1="733.2959" y2="733.2959"/></g><!--link Profile to Simulation--><g id="link_Profile_Simulation"><path codeLine="60" d="M139.28,471.27 C132.73,500.5 127.4905,523.9149 121.4405,550.9449 " fill="none" id="Profile-to-Simulation" style="stroke:#FFC5A1;stroke-width:1.0;"/><polygon fill="#FFC5A1" points="120.13,556.8,125.9992,548.891,121.2221,551.9207,118.1924,547.1436,120.13,556.8" style="stroke:#FFC5A1;stroke-width:1.0;"/></g><!--link Prosumer to Community--><g id="link_Prosumer_Community"><path codeLine="82" d="M288.87,741.29 C308.04,798.97 335.8881,882.7461 356.5781,945.0161 " fill="none" id="Prosumer-to-Community" style="stroke:#FFC5A1;stroke-width:1.0;"/><polygon fill="#FFC5A1" points="358.47,950.71,359.4281,940.9079,356.8934,945.9651,351.8362,943.4304,358.47,950.71" style="stroke:#FFC5A1;stroke-width:1.0;"/></g><!--link Prosumer to User--><g id="link_Prosumer_User"><path codeLine="83" d="M294.01,741.33 C311.03,774.19 337.23,813.06 373,834 C406.51,853.62 427.2,821.23 460,842 C481.25,855.46 488.6877,859.9287 502.9477,881.0187 " fill="none" id="Prosumer-to-User" style="stroke:#FFC5A1;stroke-width:1.0;"/><polygon fill="none" points="513.03,895.93,507.9182,877.6579,497.9773,884.3794,513.03,895.93" style="stroke:#FFC5A1;stroke-width:1.0;"/></g><!--link Profile to Prosumer--><g id="link_Profile_Prosumer"><path codeLine="84" d="M227.75,471.27 C239.16,528.3 249.413,579.5666 257.503,620.0066 " fill="none" id="Profile-to-Prosumer" style="stroke:#FFC5A1;stroke-width:1.0;"/><polygon fill="#FFC5A1" points="258.68,625.89,260.8368,616.2802,257.6992,620.9871,252.9922,617.8495,258.68,625.89" style="stroke:#FFC5A1;stroke-width:1.0;"/></g><!--link Prosumer to Battery--><g id="link_Prosumer_Battery"><path codeLine="95" d="M253.99,741.29 C241.09,787.06 224.1671,847.0648 208.2971,903.3948 " fill="none" id="Prosumer-to-Battery" style="stroke:#FFC5A1;stroke-width:1.0;"/><polygon fill="#FFC5A1" points="206.67,909.17,212.9607,901.5919,208.0259,904.3574,205.2605,899.4225,206.67,909.17" style="stroke:#FFC5A1;stroke-width:1.0;"/></g><!--link CommunityManager to User--><g id="link_CommunityManager_User"><path codeLine="103" d="M483.68,741.29 C496.08,783.49 508.4059,825.45 524.0159,878.58 " fill="none" id="CommunityManager-to-User" style="stroke:#FFC5A1;stroke-width:1.0;"/><polygon fill="none" points="529.09,895.85,529.7726,876.8886,518.2593,880.2713,529.09,895.85" style="stroke:#FFC5A1;stroke-width:1.0;"/></g><!--link CommunityManager to Community--><g id="link_CommunityManager_Community"><path codeLine="104" d="M452.68,741.29 C438.13,798.97 417.0269,882.6221 401.3269,944.8921 " fill="none" id="CommunityManager-to-Community" style="stroke:#FFC5A1;stroke-width:1.0;"/><polygon fill="#FFC5A1" points="399.86,950.71,405.9389,942.961,401.0824,945.8617,398.1817,941.0052,399.86,950.71" style="stroke:#FFC5A1;stroke-width:1.0;"/></g><!--link Administrator to User--><g id="link_Administrator_User"><path codeLine="111" d="M636.68,741.29 C626.03,783.49 615.492,825.2666 602.092,878.3966 " fill="none" id="Administrator-to-User" style="stroke:#FFC5A1;stroke-width:1.0;"/><polygon fill="none" points="597.69,895.85,607.9098,879.8639,596.2741,876.9292,597.69,895.85" style="stroke:#FFC5A1;stroke-width:1.0;"/></g><!--SRC=[ZLF1Yjim4BtxAyIUMif2GidD67QpAGIQRjYqz3oHP4T4rWHvd6tQvjyhsx8j9qxemM2zUPfvyqQpKq8ohYpNCegAlJ87i90pKgJbCreXxHkMHipH6cdPT7R9-OA6DkgtP9ydGOXhA8ed8gks9SabHrDp9b5Omw2GXJomQNZJWjdNO5Zf048eax5PT5cZAp-TZ8M-GIxParMWnw9pr6ZPLWFVNoLcVoBcRbfyRrXfocSmTLXZIWF-t2cI5UOoPBRngKu98XNRwq0SBuxIK9AmOd_QwbAEKJRI7XMNZhH2pg5G9Zf74U614R8j4c7EXBAIaq8JHGTt7pB97k8OCiisAYyrLA4aUQYRQDhfSHR7JeEYKvB4iKMiv5GynZxrfANm286b5wYxTCU54VtXAu9dFGEHjASUME-Gy8YQG76FdgikBiJECSzBKqi9jNRm7QaTfrNQ0TNCRzHRMqoLbiDg7hnJopFQIhq3Fl1TvT8PbHy6QE_61hLOkFN9JjukBBCTXKZeLuC7jydLUqtdEx1PMrTAkpJz_sj9Wq64N0-zg8AtwDbzRTUFZqdmDaOy-r58EpIiGkwuLOLRgwf_Fmz_MkIWT7zSkuJlRgC2P8ScuB-XxgOPZGsqAFDBWIrwVwGrPTayJTOuqjogBEbUKqKF8d-JklqB0rl2Y7tU_W-BpURZKAMFt17f6SlXblL-hk3N75mzBzEjPveghgJXfvvG3tra-dslFc_jyAq5NO5niBsnfpxwF-lggQtlrpb2ZqU2uMYktNuIkJAg80k45s87eJjAQrudRtYhrtQE_W40]--></g></svg>