<?xml version="1.0" encoding="us-ascii" standalone="no"?><svg xmlns="http://www.w3.org/2000/svg" xmlns:xlink="http://www.w3.org/1999/xlink" contentStyleType="text/css" height="642px" preserveAspectRatio="none" style="width:493px;height:642px;background:#FFFFFF;" version="1.1" viewBox="0 0 493 642" width="493px" zoomAndPan="magnify"><defs/><g><ellipse cx="244.75" cy="20" fill="#222222" rx="10" ry="10" style="stroke:#222222;stroke-width:1.0;"/><rect fill="#F1F1F1" height="35.0938" rx="12.5" ry="12.5" style="stroke:#181818;stroke-width:0.5;" width="222" x="133.75" y="50"/><text fill="#000000" font-family="sans-serif" font-size="12" lengthAdjust="spacing" textLength="202" x="143.75" y="72.457">Load Data (PLoad, PPV, Cbuy, Csell)</text><rect fill="#F1F1F1" height="35.0938" rx="12.5" ry="12.5" style="stroke:#181818;stroke-width:0.5;" width="321" x="84.25" y="105.0938"/><text fill="#000000" font-family="sans-serif" font-size="12" lengthAdjust="spacing" textLength="301" x="94.25" y="127.5508">Define parameters (&#951;, SOCmax, SOCmin, Pmax, Pmin)</text><rect fill="#F1F1F1" height="35.0938" rx="12.5" ry="12.5" style="stroke:#181818;stroke-width:0.5;" width="166" x="161.75" y="160.1875"/><text fill="#000000" font-family="sans-serif" font-size="12" lengthAdjust="spacing" textLength="146" x="171.75" y="182.6445">Define time intervals (T, &#916;t)</text><rect fill="#F1F1F1" height="35.0938" rx="12.5" ry="12.5" style="stroke:#181818;stroke-width:0.5;" width="355" x="67.25" y="215.2813"/><text fill="#000000" font-family="sans-serif" font-size="12" lengthAdjust="spacing" textLength="335" x="77.25" y="237.7383">Initialize variables (SOC, Pcharge, Pdischarge, Ccost, Cprofit)</text><polygon fill="#F1F1F1" points="188.75,270.375,300.75,270.375,312.75,282.375,300.75,294.375,188.75,294.375,176.75,282.375,188.75,270.375" style="stroke:#181818;stroke-width:0.5;"/><text fill="#000000" font-family="sans-serif" font-size="11" lengthAdjust="spacing" textLength="112" x="188.75" y="286.876">First period of the day?</text><text fill="#000000" font-family="sans-serif" font-size="11" lengthAdjust="spacing" textLength="20" x="156.75" y="279.958">Yes</text><text fill="#000000" font-family="sans-serif" font-size="11" lengthAdjust="spacing" textLength="13" x="312.75" y="279.958">No</text><rect fill="#F1F1F1" height="35.0938" rx="12.5" ry="12.5" style="stroke:#181818;stroke-width:0.5;" width="222" x="11" y="304.375"/><text fill="#000000" font-family="sans-serif" font-size="12" lengthAdjust="spacing" textLength="202" x="21" y="326.832">initial SOC = SOC of the previous day</text><rect fill="#F1F1F1" height="35.0938" rx="12.5" ry="12.5" style="stroke:#181818;stroke-width:0.5;" width="229" x="253" y="304.375"/><text fill="#000000" font-family="sans-serif" font-size="12" lengthAdjust="spacing" textLength="209" x="263" y="326.832">Update SOC on charge and discharge</text><polygon fill="#F1F1F1" points="244.75,345.4688,256.75,357.4688,244.75,369.4688,232.75,357.4688,244.75,345.4688" style="stroke:#181818;stroke-width:0.5;"/><rect fill="#F1F1F1" height="35.0938" rx="12.5" ry="12.5" style="stroke:#181818;stroke-width:0.5;" width="192" x="148.75" y="389.4688"/><text fill="#000000" font-family="sans-serif" font-size="12" lengthAdjust="spacing" textLength="172" x="158.75" y="411.9258">Define objective (Minimize cost)</text><rect fill="#F1F1F1" height="35.0938" rx="12.5" ry="12.5" style="stroke:#181818;stroke-width:0.5;" width="269" x="110.25" y="444.5625"/><text fill="#000000" font-family="sans-serif" font-size="12" lengthAdjust="spacing" textLength="249" x="120.25" y="467.0195">Define restraints (SOC, Pcharge, Pdischarge)</text><rect fill="#F1F1F1" height="35.0938" rx="12.5" ry="12.5" style="stroke:#181818;stroke-width:0.5;" width="155" x="167.25" y="499.6563"/><text fill="#000000" font-family="sans-serif" font-size="12" lengthAdjust="spacing" textLength="135" x="177.25" y="522.1133">Solve solution (GUROBI)</text><rect fill="#F1F1F1" height="35.0938" rx="12.5" ry="12.5" style="stroke:#181818;stroke-width:0.5;" width="95" x="197.25" y="554.75"/><text fill="#000000" font-family="sans-serif" font-size="12" lengthAdjust="spacing" textLength="75" x="207.25" y="577.207">Store Results</text><ellipse cx="244.75" cy="620.8438" fill="none" rx="11" ry="11" style="stroke:#222222;stroke-width:1.0;"/><ellipse cx="244.75" cy="620.8438" fill="#222222" rx="6" ry="6" style="stroke:#222222;stroke-width:1.0;"/><line style="stroke:#181818;stroke-width:1.0;" x1="244.75" x2="244.75" y1="30" y2="50"/><polygon fill="#181818" points="240.75,40,244.75,50,248.75,40,244.75,44" style="stroke:#181818;stroke-width:1.0;"/><line style="stroke:#181818;stroke-width:1.0;" x1="244.75" x2="244.75" y1="85.0938" y2="105.0938"/><polygon fill="#181818" points="240.75,95.0938,244.75,105.0938,248.75,95.0938,244.75,99.0938" style="stroke:#181818;stroke-width:1.0;"/><line style="stroke:#181818;stroke-width:1.0;" x1="244.75" x2="244.75" y1="140.1875" y2="160.1875"/><polygon fill="#181818" points="240.75,150.1875,244.75,160.1875,248.75,150.1875,244.75,154.1875" style="stroke:#181818;stroke-width:1.0;"/><line style="stroke:#181818;stroke-width:1.0;" x1="244.75" x2="244.75" y1="195.2813" y2="215.2813"/><polygon fill="#181818" points="240.75,205.2813,244.75,215.2813,248.75,205.2813,244.75,209.2813" style="stroke:#181818;stroke-width:1.0;"/><line style="stroke:#181818;stroke-width:1.0;" x1="176.75" x2="122" y1="282.375" y2="282.375"/><line style="stroke:#181818;stroke-width:1.0;" x1="122" x2="122" y1="282.375" y2="304.375"/><polygon fill="#181818" points="118,294.375,122,304.375,126,294.375,122,298.375" style="stroke:#181818;stroke-width:1.0;"/><line style="stroke:#181818;stroke-width:1.0;" x1="312.75" x2="367.5" y1="282.375" y2="282.375"/><line style="stroke:#181818;stroke-width:1.0;" x1="367.5" x2="367.5" y1="282.375" y2="304.375"/><polygon fill="#181818" points="363.5,294.375,367.5,304.375,371.5,294.375,367.5,298.375" style="stroke:#181818;stroke-width:1.0;"/><line style="stroke:#181818;stroke-width:1.0;" x1="122" x2="122" y1="339.4688" y2="357.4688"/><line style="stroke:#181818;stroke-width:1.0;" x1="122" x2="232.75" y1="357.4688" y2="357.4688"/><polygon fill="#181818" points="222.75,353.4688,232.75,357.4688,222.75,361.4688,226.75,357.4688" style="stroke:#181818;stroke-width:1.0;"/><line style="stroke:#181818;stroke-width:1.0;" x1="367.5" x2="367.5" y1="339.4688" y2="357.4688"/><line style="stroke:#181818;stroke-width:1.0;" x1="367.5" x2="256.75" y1="357.4688" y2="357.4688"/><polygon fill="#181818" points="266.75,353.4688,256.75,357.4688,266.75,361.4688,262.75,357.4688" style="stroke:#181818;stroke-width:1.0;"/><line style="stroke:#181818;stroke-width:1.0;" x1="244.75" x2="244.75" y1="250.375" y2="270.375"/><polygon fill="#181818" points="240.75,260.375,244.75,270.375,248.75,260.375,244.75,264.375" style="stroke:#181818;stroke-width:1.0;"/><line style="stroke:#181818;stroke-width:1.0;" x1="244.75" x2="244.75" y1="369.4688" y2="389.4688"/><polygon fill="#181818" points="240.75,379.4688,244.75,389.4688,248.75,379.4688,244.75,383.4688" style="stroke:#181818;stroke-width:1.0;"/><line style="stroke:#181818;stroke-width:1.0;" x1="244.75" x2="244.75" y1="424.5625" y2="444.5625"/><polygon fill="#181818" points="240.75,434.5625,244.75,444.5625,248.75,434.5625,244.75,438.5625" style="stroke:#181818;stroke-width:1.0;"/><line style="stroke:#181818;stroke-width:1.0;" x1="244.75" x2="244.75" y1="479.6563" y2="499.6563"/><polygon fill="#181818" points="240.75,489.6563,244.75,499.6563,248.75,489.6563,244.75,493.6563" style="stroke:#181818;stroke-width:1.0;"/><line style="stroke:#181818;stroke-width:1.0;" x1="244.75" x2="244.75" y1="534.75" y2="554.75"/><polygon fill="#181818" points="240.75,544.75,244.75,554.75,248.75,544.75,244.75,548.75" style="stroke:#181818;stroke-width:1.0;"/><line style="stroke:#181818;stroke-width:1.0;" x1="244.75" x2="244.75" y1="589.8438" y2="609.8438"/><polygon fill="#181818" points="240.75,599.8438,244.75,609.8438,248.75,599.8438,244.75,603.8438" style="stroke:#181818;stroke-width:1.0;"/><!--SRC=[VL51JWCn3Bpd5RwnbVO5hH22Lg1AG5SjHUBeDjxMA9ki4k-AyWx-mY_w9fnkgJYHWpEHFUEnSmKpnbt41i4It0htRD5ICaamYZ7Znu0MPYW8HPLn2LNrMi9qqnqq9d9kD37Z6TNi2LfK9HAA2OhZTmchnRJ1Z-5chzJJgrByXoJS4B1NLezEYIyb7Bya5ymz2wFZJu8U8-F6aUPLJ3MsUumxKc0v_UBfDYJHgusXvgnWk8RYdcCIQ2boi11ga3s1nSFDA2CFnHkbaG4zOnxwPRjmVOhdyZPIpw5BcJSnv191yHpEh7LhKMWezp1u0VGMBiwKuYtNvZ9osBpJLdUjCa_QjCaJPkz_jX8fIKHTopyJv_9LS2gJWkk4jNtni5ukxkQdZ8H8iAJKEKaJ_T3GcXy0]--></g></svg>