<?xml version="1.0" encoding="us-ascii" standalone="no"?><svg xmlns="http://www.w3.org/2000/svg" xmlns:xlink="http://www.w3.org/1999/xlink" contentStyleType="text/css" height="493px" preserveAspectRatio="none" style="width:353px;height:493px;background:#FFFFFF;" version="1.1" viewBox="0 0 353 493" width="353px" zoomAndPan="magnify"><defs/><g><!--cluster Frameworks & Drivers--><g id="cluster_Frameworks &amp; Drivers"><path d="M27.5,6.0137 L184.5,6.0137 A3.75,3.75 0 0 1 187,8.5137 L194,30.6348 L280.5,30.6348 A2.5,2.5 0 0 1 283,33.1348 L283,105.5137 A2.5,2.5 0 0 1 280.5,108.0137 L27.5,108.0137 A2.5,2.5 0 0 1 25,105.5137 L25,8.5137 A2.5,2.5 0 0 1 27.5,6.0137 " fill="none" style="stroke:#000000;stroke-width:1.5;"/><line style="stroke:#000000;stroke-width:1.5;" x1="25" x2="194" y1="30.6348" y2="30.6348"/><text fill="#000000" font-family="sans-serif" font-size="14" font-weight="bold" lengthAdjust="spacing" textLength="156" x="29" y="23.1211">Frameworks &amp; Drivers</text></g><!--cluster Interface Adapters--><g id="cluster_Interface Adapters"><path d="M9.5,132.0137 L140.5,132.0137 A3.75,3.75 0 0 1 143,134.5137 L150,156.6348 L300.5,156.6348 A2.5,2.5 0 0 1 303,159.1348 L303,231.5137 A2.5,2.5 0 0 1 300.5,234.0137 L9.5,234.0137 A2.5,2.5 0 0 1 7,231.5137 L7,134.5137 A2.5,2.5 0 0 1 9.5,132.0137 " fill="none" style="stroke:#000000;stroke-width:1.5;"/><line style="stroke:#000000;stroke-width:1.5;" x1="7" x2="150" y1="156.6348" y2="156.6348"/><text fill="#000000" font-family="sans-serif" font-size="14" font-weight="bold" lengthAdjust="spacing" textLength="130" x="11" y="149.1211">Interface Adapters</text></g><!--cluster Application Business Rules--><g id="cluster_Application Business Rules"><path d="M141.5,258.0137 L333.5,258.0137 A3.75,3.75 0 0 1 336,260.5137 L343,282.6348 L343.5,282.6348 A2.5,2.5 0 0 1 346,285.1348 L346,357.5137 A2.5,2.5 0 0 1 343.5,360.0137 L141.5,360.0137 A2.5,2.5 0 0 1 139,357.5137 L139,260.5137 A2.5,2.5 0 0 1 141.5,258.0137 " fill="none" style="stroke:#000000;stroke-width:1.5;"/><line style="stroke:#000000;stroke-width:1.5;" x1="139" x2="343" y1="282.6348" y2="282.6348"/><text fill="#000000" font-family="sans-serif" font-size="14" font-weight="bold" lengthAdjust="spacing" textLength="191" x="143" y="275.1211">Application Business Rules</text></g><!--cluster Enterprise Business Rules--><g id="cluster_Enterprise Business Rules"><path d="M8.5,384.0137 L196.5,384.0137 A3.75,3.75 0 0 1 199,386.5137 L206,408.6348 L280.5,408.6348 A2.5,2.5 0 0 1 283,411.1348 L283,483.5137 A2.5,2.5 0 0 1 280.5,486.0137 L8.5,486.0137 A2.5,2.5 0 0 1 6,483.5137 L6,386.5137 A2.5,2.5 0 0 1 8.5,384.0137 " fill="none" style="stroke:#000000;stroke-width:1.5;"/><line style="stroke:#000000;stroke-width:1.5;" x1="6" x2="206" y1="408.6348" y2="408.6348"/><text fill="#000000" font-family="sans-serif" font-size="14" font-weight="bold" lengthAdjust="spacing" textLength="187" x="10" y="401.1211">Enterprise Business Rules</text></g><!--entity Database--><g id="elem_Database"><rect fill="#F1F1F1" height="48.6211" rx="2.5" ry="2.5" style="stroke:#181818;stroke-width:0.5;" width="101" x="41.5" y="43.0137"/><rect fill="#F1F1F1" height="10" style="stroke:#181818;stroke-width:0.5;" width="15" x="122.5" y="48.0137"/><rect fill="#F1F1F1" height="2" style="stroke:#181818;stroke-width:0.5;" width="4" x="120.5" y="50.0137"/><rect fill="#F1F1F1" height="2" style="stroke:#181818;stroke-width:0.5;" width="4" x="120.5" y="54.0137"/><text fill="#000000" font-family="sans-serif" font-size="14" lengthAdjust="spacing" textLength="61" x="56.5" y="78.1211">Database</text></g><!--entity Routing--><g id="elem_Routing"><rect fill="#F1F1F1" height="48.6211" rx="2.5" ry="2.5" style="stroke:#181818;stroke-width:0.5;" width="89" x="177.5" y="43.0137"/><rect fill="#F1F1F1" height="10" style="stroke:#181818;stroke-width:0.5;" width="15" x="246.5" y="48.0137"/><rect fill="#F1F1F1" height="2" style="stroke:#181818;stroke-width:0.5;" width="4" x="244.5" y="50.0137"/><rect fill="#F1F1F1" height="2" style="stroke:#181818;stroke-width:0.5;" width="4" x="244.5" y="54.0137"/><text fill="#000000" font-family="sans-serif" font-size="14" lengthAdjust="spacing" textLength="49" x="192.5" y="78.1211">Routing</text></g><!--entity Repositories--><g id="elem_Repositories"><rect fill="#F1F1F1" height="48.6211" rx="2.5" ry="2.5" style="stroke:#181818;stroke-width:0.5;" width="119" x="23.5" y="169.0137"/><rect fill="#F1F1F1" height="10" style="stroke:#181818;stroke-width:0.5;" width="15" x="122.5" y="174.0137"/><rect fill="#F1F1F1" height="2" style="stroke:#181818;stroke-width:0.5;" width="4" x="120.5" y="176.0137"/><rect fill="#F1F1F1" height="2" style="stroke:#181818;stroke-width:0.5;" width="4" x="120.5" y="180.0137"/><text fill="#000000" font-family="sans-serif" font-size="14" lengthAdjust="spacing" textLength="79" x="38.5" y="204.1211">Repositories</text></g><!--entity Controllers--><g id="elem_Controllers"><rect fill="#F1F1F1" height="48.6211" rx="2.5" ry="2.5" style="stroke:#181818;stroke-width:0.5;" width="109" x="177.5" y="169.0137"/><rect fill="#F1F1F1" height="10" style="stroke:#181818;stroke-width:0.5;" width="15" x="266.5" y="174.0137"/><rect fill="#F1F1F1" height="2" style="stroke:#181818;stroke-width:0.5;" width="4" x="264.5" y="176.0137"/><rect fill="#F1F1F1" height="2" style="stroke:#181818;stroke-width:0.5;" width="4" x="264.5" y="180.0137"/><text fill="#000000" font-family="sans-serif" font-size="14" lengthAdjust="spacing" textLength="69" x="192.5" y="204.1211">Controllers</text></g><!--entity Services--><g id="elem_Services"><rect fill="#F1F1F1" height="48.6211" rx="2.5" ry="2.5" style="stroke:#181818;stroke-width:0.5;" width="94" x="176" y="295.0137"/><rect fill="#F1F1F1" height="10" style="stroke:#181818;stroke-width:0.5;" width="15" x="250" y="300.0137"/><rect fill="#F1F1F1" height="2" style="stroke:#181818;stroke-width:0.5;" width="4" x="248" y="302.0137"/><rect fill="#F1F1F1" height="2" style="stroke:#181818;stroke-width:0.5;" width="4" x="248" y="306.0137"/><text fill="#000000" font-family="sans-serif" font-size="14" lengthAdjust="spacing" textLength="54" x="191" y="330.1211">Services</text></g><!--entity Domain--><g id="elem_Domain"><rect fill="#F1F1F1" height="48.6211" rx="2.5" ry="2.5" style="stroke:#181818;stroke-width:0.5;" width="88" x="179" y="421.0137"/><rect fill="#F1F1F1" height="10" style="stroke:#181818;stroke-width:0.5;" width="15" x="247" y="426.0137"/><rect fill="#F1F1F1" height="2" style="stroke:#181818;stroke-width:0.5;" width="4" x="245" y="428.0137"/><rect fill="#F1F1F1" height="2" style="stroke:#181818;stroke-width:0.5;" width="4" x="245" y="432.0137"/><text fill="#000000" font-family="sans-serif" font-size="14" lengthAdjust="spacing" textLength="48" x="194" y="456.1211">Domain</text></g><!--entity IRepositories--><g id="elem_IRepositories"><rect fill="#F1F1F1" height="48.6211" rx="2.5" ry="2.5" style="stroke:#181818;stroke-width:0.5;" width="122" x="22" y="421.0137"/><rect fill="#F1F1F1" height="10" style="stroke:#181818;stroke-width:0.5;" width="15" x="124" y="426.0137"/><rect fill="#F1F1F1" height="2" style="stroke:#181818;stroke-width:0.5;" width="4" x="122" y="428.0137"/><rect fill="#F1F1F1" height="2" style="stroke:#181818;stroke-width:0.5;" width="4" x="122" y="432.0137"/><text fill="#000000" font-family="sans-serif" font-size="14" lengthAdjust="spacing" textLength="82" x="37" y="456.1211">IRepositories</text></g><!--link Routing to Controllers--><g id="link_Routing_Controllers"><path d="M223.9,92.1337 C225.68,114.1937 227.8495,140.9729 229.6195,163.0029 " fill="none" id="Routing-to-Controllers" style="stroke:#181818;stroke-width:1.0;stroke-dasharray:7.0,7.0;"/><polygon fill="#181818" points="230.1,168.9837,233.3664,159.6922,229.6996,163.9997,225.3921,160.3329,230.1,168.9837" style="stroke:#181818;stroke-width:1.0;"/></g><!--reverse link Database to Repositories--><g id="link_Database_Repositories"><path d="M89.8533,98.1178 C88.2433,120.1778 86.31,146.9537 84.71,168.9837 " fill="none" id="Database-backto-Repositories" style="stroke:#181818;stroke-width:1.0;stroke-dasharray:7.0,7.0;"/><polygon fill="#181818" points="90.29,92.1337,85.6455,100.8186,89.9261,97.1204,93.6243,101.401,90.29,92.1337" style="stroke:#181818;stroke-width:1.0;"/></g><!--link Controllers to Services--><g id="link_Controllers_Services"><path d="M230.29,218.1337 C228.68,240.1937 226.7446,266.9694 225.1446,288.9994 " fill="none" id="Controllers-to-Services" style="stroke:#181818;stroke-width:1.0;stroke-dasharray:7.0,7.0;"/><polygon fill="#181818" points="224.71,294.9837,229.3514,286.2971,225.0722,289.9968,221.3724,285.7176,224.71,294.9837" style="stroke:#181818;stroke-width:1.0;"/></g><!--link Services to Domain--><g id="link_Services_Domain"><path d="M223,344.1337 C223,366.1937 223,392.9537 223,414.9837 " fill="none" id="Services-to-Domain" style="stroke:#181818;stroke-width:1.0;stroke-dasharray:7.0,7.0;"/><polygon fill="#181818" points="223,420.9837,227,411.9837,223,415.9837,219,411.9837,223,420.9837" style="stroke:#181818;stroke-width:1.0;"/></g><!--link Services to IRepositories--><g id="link_Services_IRepositories"><path d="M196.34,344.1337 C171.43,366.1937 138.9321,394.9761 114.0521,417.0061 " fill="none" id="Services-to-IRepositories" style="stroke:#181818;stroke-width:1.0;stroke-dasharray:7.0,7.0;"/><polygon fill="#181818" points="109.56,420.9837,118.9499,418.0121,113.3034,417.669,113.6465,412.0226,109.56,420.9837" style="stroke:#181818;stroke-width:1.0;"/></g><!--link Repositories to IRepositories--><g id="link_Repositories_IRepositories"><path d="M83,218.0337 C83,265.6837 83,355.1237 83,402.8737 " fill="none" id="Repositories-to-IRepositories" style="stroke:#181818;stroke-width:1.0;stroke-dasharray:7.0,7.0;"/><polygon fill="none" points="83,420.8737,89,402.8737,77,402.8737,83,420.8737" style="stroke:#181818;stroke-width:1.0;"/></g><!--SRC=[XO_DJiCm48JlUOfL3t32kIE4L4YHUWrFiBXBMDNnMlQc781tnutw4vi3bdpmZ6Q-yUs7QaZtRHiSUfr6PwoCRRv1F7czsp4E4SScdu1sZmF1wYKBz2bnd-06kiW7Yca5NmtaSqb2XuflcAYIUvcK_T3yB1ktNYc-eoLOxp3eiQ-kwob8OfN8b2hhMRn6SIx7vjeJ0envBBpp8dWmfkoxBbc7uDYYidXucX9xIWdwoT7VHQyK3snfPYumC_RYNPitnp-6o9d_Jt4d8xAln6qnE2FFY9btYXHQcLW-ilrT-xy0]--></g></svg>