<?xml version="1.0" encoding="us-ascii" standalone="no"?><svg xmlns="http://www.w3.org/2000/svg" xmlns:xlink="http://www.w3.org/1999/xlink" contentStyleType="text/css" height="808px" preserveAspectRatio="none" style="width:659px;height:808px;background:#FFFFFF;" version="1.1" viewBox="0 0 659 808" width="659px" zoomAndPan="magnify"><defs/><g><!--cluster Frameworks & Drivers--><g id="cluster_Frameworks &amp; Drivers"><path d="M143.5,6.0137 L300.5,6.0137 A3.75,3.75 0 0 1 303,8.5137 L310,30.6348 L396.5,30.6348 A2.5,2.5 0 0 1 399,33.1348 L399,105.5137 A2.5,2.5 0 0 1 396.5,108.0137 L143.5,108.0137 A2.5,2.5 0 0 1 141,105.5137 L141,8.5137 A2.5,2.5 0 0 1 143.5,6.0137 " fill="none" style="stroke:#000000;stroke-width:1.5;"/><line style="stroke:#000000;stroke-width:1.5;" x1="141" x2="310" y1="30.6348" y2="30.6348"/><text fill="#000000" font-family="sans-serif" font-size="14" font-weight="bold" lengthAdjust="spacing" textLength="156" x="145" y="23.1211">Frameworks &amp; Drivers</text></g><!--cluster Interface Adapters--><g id="cluster_Interface Adapters"><path d="M169.5,237.0137 L300.5,237.0137 A3.75,3.75 0 0 1 303,239.5137 L310,261.6348 L460.5,261.6348 A2.5,2.5 0 0 1 463,264.1348 L463,336.5137 A2.5,2.5 0 0 1 460.5,339.0137 L169.5,339.0137 A2.5,2.5 0 0 1 167,336.5137 L167,239.5137 A2.5,2.5 0 0 1 169.5,237.0137 " fill="none" style="stroke:#000000;stroke-width:1.5;"/><line style="stroke:#000000;stroke-width:1.5;" x1="167" x2="310" y1="261.6348" y2="261.6348"/><text fill="#000000" font-family="sans-serif" font-size="14" font-weight="bold" lengthAdjust="spacing" textLength="130" x="171" y="254.1211">Interface Adapters</text></g><!--cluster Application Business Rules--><g id="cluster_Application Business Rules"><path d="M53.5,468.0137 L245.5,468.0137 A3.75,3.75 0 0 1 248,470.5137 L255,492.6348 L255.5,492.6348 A2.5,2.5 0 0 1 258,495.1348 L258,567.5137 A2.5,2.5 0 0 1 255.5,570.0137 L53.5,570.0137 A2.5,2.5 0 0 1 51,567.5137 L51,470.5137 A2.5,2.5 0 0 1 53.5,468.0137 " fill="none" style="stroke:#000000;stroke-width:1.5;"/><line style="stroke:#000000;stroke-width:1.5;" x1="51" x2="255" y1="492.6348" y2="492.6348"/><text fill="#000000" font-family="sans-serif" font-size="14" font-weight="bold" lengthAdjust="spacing" textLength="191" x="55" y="485.1211">Application Business Rules</text></g><!--cluster Enterprise Business Rules--><g id="cluster_Enterprise Business Rules"><path d="M144.5,699.0137 L332.5,699.0137 A3.75,3.75 0 0 1 335,701.5137 L342,723.6348 L342.5,723.6348 A2.5,2.5 0 0 1 345,726.1348 L345,798.5137 A2.5,2.5 0 0 1 342.5,801.0137 L144.5,801.0137 A2.5,2.5 0 0 1 142,798.5137 L142,701.5137 A2.5,2.5 0 0 1 144.5,699.0137 " fill="none" style="stroke:#000000;stroke-width:1.5;"/><line style="stroke:#000000;stroke-width:1.5;" x1="142" x2="342" y1="723.6348" y2="723.6348"/><text fill="#000000" font-family="sans-serif" font-size="14" font-weight="bold" lengthAdjust="spacing" textLength="187" x="146" y="716.1211">Enterprise Business Rules</text></g><!--entity Database--><g id="elem_Database"><rect fill="#F1F1F1" height="48.6211" rx="2.5" ry="2.5" style="stroke:#181818;stroke-width:0.5;" width="101" x="157.5" y="43.0137"/><rect fill="#F1F1F1" height="10" style="stroke:#181818;stroke-width:0.5;" width="15" x="238.5" y="48.0137"/><rect fill="#F1F1F1" height="2" style="stroke:#181818;stroke-width:0.5;" width="4" x="236.5" y="50.0137"/><rect fill="#F1F1F1" height="2" style="stroke:#181818;stroke-width:0.5;" width="4" x="236.5" y="54.0137"/><text fill="#000000" font-family="sans-serif" font-size="14" lengthAdjust="spacing" textLength="61" x="172.5" y="78.1211">Database</text></g><!--entity Routing--><g id="elem_Routing"><rect fill="#F1F1F1" height="48.6211" rx="2.5" ry="2.5" style="stroke:#181818;stroke-width:0.5;" width="89" x="293.5" y="43.0137"/><rect fill="#F1F1F1" height="10" style="stroke:#181818;stroke-width:0.5;" width="15" x="362.5" y="48.0137"/><rect fill="#F1F1F1" height="2" style="stroke:#181818;stroke-width:0.5;" width="4" x="360.5" y="50.0137"/><rect fill="#F1F1F1" height="2" style="stroke:#181818;stroke-width:0.5;" width="4" x="360.5" y="54.0137"/><text fill="#000000" font-family="sans-serif" font-size="14" lengthAdjust="spacing" textLength="49" x="308.5" y="78.1211">Routing</text></g><!--entity Repositories--><g id="elem_Repositories"><rect fill="#F1F1F1" height="48.6211" rx="2.5" ry="2.5" style="stroke:#181818;stroke-width:0.5;" width="119" x="183.5" y="274.0137"/><rect fill="#F1F1F1" height="10" style="stroke:#181818;stroke-width:0.5;" width="15" x="282.5" y="279.0137"/><rect fill="#F1F1F1" height="2" style="stroke:#181818;stroke-width:0.5;" width="4" x="280.5" y="281.0137"/><rect fill="#F1F1F1" height="2" style="stroke:#181818;stroke-width:0.5;" width="4" x="280.5" y="285.0137"/><text fill="#000000" font-family="sans-serif" font-size="14" lengthAdjust="spacing" textLength="79" x="198.5" y="309.1211">Repositories</text></g><!--entity Controllers--><g id="elem_Controllers"><rect fill="#F1F1F1" height="48.6211" rx="2.5" ry="2.5" style="stroke:#181818;stroke-width:0.5;" width="109" x="337.5" y="274.0137"/><rect fill="#F1F1F1" height="10" style="stroke:#181818;stroke-width:0.5;" width="15" x="426.5" y="279.0137"/><rect fill="#F1F1F1" height="2" style="stroke:#181818;stroke-width:0.5;" width="4" x="424.5" y="281.0137"/><rect fill="#F1F1F1" height="2" style="stroke:#181818;stroke-width:0.5;" width="4" x="424.5" y="285.0137"/><text fill="#000000" font-family="sans-serif" font-size="14" lengthAdjust="spacing" textLength="69" x="352.5" y="309.1211">Controllers</text></g><!--entity Services--><g id="elem_Services"><rect fill="#F1F1F1" height="48.6211" rx="2.5" ry="2.5" style="stroke:#181818;stroke-width:0.5;" width="94" x="146" y="505.0137"/><rect fill="#F1F1F1" height="10" style="stroke:#181818;stroke-width:0.5;" width="15" x="220" y="510.0137"/><rect fill="#F1F1F1" height="2" style="stroke:#181818;stroke-width:0.5;" width="4" x="218" y="512.0137"/><rect fill="#F1F1F1" height="2" style="stroke:#181818;stroke-width:0.5;" width="4" x="218" y="516.0137"/><text fill="#000000" font-family="sans-serif" font-size="14" lengthAdjust="spacing" textLength="54" x="161" y="540.1211">Services</text></g><!--entity Domain--><g id="elem_Domain"><rect fill="#F1F1F1" height="48.6211" rx="2.5" ry="2.5" style="stroke:#181818;stroke-width:0.5;" width="88" x="199" y="736.0137"/><rect fill="#F1F1F1" height="10" style="stroke:#181818;stroke-width:0.5;" width="15" x="267" y="741.0137"/><rect fill="#F1F1F1" height="2" style="stroke:#181818;stroke-width:0.5;" width="4" x="265" y="743.0137"/><rect fill="#F1F1F1" height="2" style="stroke:#181818;stroke-width:0.5;" width="4" x="265" y="747.0137"/><text fill="#000000" font-family="sans-serif" font-size="14" lengthAdjust="spacing" textLength="48" x="214" y="771.1211">Domain</text></g><!--entity DTO--><g id="elem_DTO"><rect fill="#F1F1F1" height="48.6211" rx="2.5" ry="2.5" style="stroke:#181818;stroke-width:0.5;" width="70" x="583" y="158.5137"/><rect fill="#F1F1F1" height="10" style="stroke:#181818;stroke-width:0.5;" width="15" x="633" y="163.5137"/><rect fill="#F1F1F1" height="2" style="stroke:#181818;stroke-width:0.5;" width="4" x="631" y="165.5137"/><rect fill="#F1F1F1" height="2" style="stroke:#181818;stroke-width:0.5;" width="4" x="631" y="169.5137"/><text fill="#000000" font-family="sans-serif" font-size="14" lengthAdjust="spacing" textLength="30" x="598" y="193.6211">DTO</text></g><!--entity Data_Model--><g id="elem_Data_Model"><rect fill="#F1F1F1" height="48.6211" rx="2.5" ry="2.5" style="stroke:#181818;stroke-width:0.5;" width="116" x="238" y="158.5137"/><rect fill="#F1F1F1" height="10" style="stroke:#181818;stroke-width:0.5;" width="15" x="334" y="163.5137"/><rect fill="#F1F1F1" height="2" style="stroke:#181818;stroke-width:0.5;" width="4" x="332" y="165.5137"/><rect fill="#F1F1F1" height="2" style="stroke:#181818;stroke-width:0.5;" width="4" x="332" y="169.5137"/><text fill="#000000" font-family="sans-serif" font-size="14" lengthAdjust="spacing" textLength="76" x="253" y="193.6211">Data_Model</text></g><!--entity Data_Model_API--><g id="elem_Data_Model_API"><ellipse cx="194" cy="183.0137" fill="#F1F1F1" rx="8" ry="8" style="stroke:#181818;stroke-width:0.5;"/><text fill="#000000" font-family="sans-serif" font-size="14" lengthAdjust="spacing" textLength="105" x="141.5" y="215.1211">Data_Model_API</text></g><!--entity Database_Driver_API--><g id="elem_Database_Driver_API"><ellipse cx="74" cy="183.0137" fill="#F1F1F1" rx="8" ry="8" style="stroke:#181818;stroke-width:0.5;"/><text fill="#000000" font-family="sans-serif" font-size="14" lengthAdjust="spacing" textLength="136" x="6" y="215.1211">Database_Driver_API</text></g><!--entity DTO_API--><g id="elem_DTO_API"><ellipse cx="539" cy="183.0137" fill="#F1F1F1" rx="8" ry="8" style="stroke:#181818;stroke-width:0.5;"/><text fill="#000000" font-family="sans-serif" font-size="14" lengthAdjust="spacing" textLength="59" x="509.5" y="215.1211">DTO_API</text></g><!--entity Controller_API--><g id="elem_Controller_API"><ellipse cx="442" cy="183.0137" fill="#F1F1F1" rx="8" ry="8" style="stroke:#181818;stroke-width:0.5;"/><text fill="#000000" font-family="sans-serif" font-size="14" lengthAdjust="spacing" textLength="91" x="396.5" y="215.1211">Controller_API</text></g><!--entity Service_API--><g id="elem_Service_API"><ellipse cx="392" cy="414.0137" fill="#F1F1F1" rx="8" ry="8" style="stroke:#181818;stroke-width:0.5;"/><text fill="#000000" font-family="sans-serif" font-size="14" lengthAdjust="spacing" textLength="76" x="354" y="446.1211">Service_API</text></g><!--entity Repo_API--><g id="elem_Repo_API"><ellipse cx="197" cy="414.0137" fill="#F1F1F1" rx="8" ry="8" style="stroke:#181818;stroke-width:0.5;"/><text fill="#000000" font-family="sans-serif" font-size="14" lengthAdjust="spacing" textLength="63" x="165.5" y="446.1211">Repo_API</text></g><!--entity Model_API--><g id="elem_Model_API"><ellipse cx="243" cy="645.0137" fill="#F1F1F1" rx="8" ry="8" style="stroke:#181818;stroke-width:0.5;"/><text fill="#000000" font-family="sans-serif" font-size="14" lengthAdjust="spacing" textLength="67" x="209.5" y="677.1211">Model_API</text></g><!--link Database to Data_Model_API--><g id="link_Database_Data_Model_API"><path d="M205.1,92.0337 C201.94,117.6137 197.07,157.1137 194.99,173.9537 " fill="none" id="Database-Data_Model_API" style="stroke:#181818;stroke-width:1.0;"/></g><!--link Database to Database_Driver_API--><g id="link_Database_Database_Driver_API"><path d="M180.24,92.0337 C149.88,117.7437 102.93,157.5137 83.21,174.2137 " fill="none" id="Database-Database_Driver_API" style="stroke:#181818;stroke-width:1.0;"/></g><!--link Data_Model_API to Data_Model--><g id="link_Data_Model_API_Data_Model"><path d="M203.16,183.0137 C214.77,183.0137 226.37,183.0137 237.98,183.0137 " fill="none" id="Data_Model_API-Data_Model" style="stroke:#181818;stroke-width:1.0;"/></g><!--link Routing to DTO_API--><g id="link_Routing_DTO_API"><path d="M382.5,83.8637 C419.65,98.0037 472.83,121.4137 513,152.0137 C521.11,158.1937 528.54,167.2537 533.35,173.8037 " fill="none" id="Routing-DTO_API" style="stroke:#181818;stroke-width:1.0;"/></g><!--link Routing to Controller_API--><g id="link_Routing_Controller_API"><path d="M359.55,92.0337 C382.99,117.6137 419.18,157.1137 434.62,173.9537 " fill="none" id="Routing-Controller_API" style="stroke:#181818;stroke-width:1.0;"/></g><!--link DTO_API to DTO--><g id="link_DTO_API_DTO"><path d="M548.26,183.0137 C559.79,183.0137 571.32,183.0137 582.86,183.0137 " fill="none" id="DTO_API-DTO" style="stroke:#181818;stroke-width:1.0;"/></g><!--link Controller_API to Controllers--><g id="link_Controller_API_Controllers"><path d="M438.4,192.1737 C430.97,209.0537 413.67,248.3337 402.42,273.8637 " fill="none" id="Controller_API-Controllers" style="stroke:#181818;stroke-width:1.0;"/></g><!--link DTO_API to Controllers--><g id="link_DTO_API_Controllers"><path d="M532.88,192.1537 C527.9,198.4837 520.5,207.3037 513,214.0137 C487.71,236.6637 456.04,258.3137 431.44,273.8937 " fill="none" id="DTO_API-Controllers" style="stroke:#181818;stroke-width:1.0;"/></g><!--link Data_Model_API to Repositories--><g id="link_Data_Model_API_Repositories"><path d="M197.52,192.1737 C204.81,209.0537 221.77,248.3337 232.79,273.8637 " fill="none" id="Data_Model_API-Repositories" style="stroke:#181818;stroke-width:1.0;"/></g><!--link Database_Driver_API to Repositories--><g id="link_Database_Driver_API_Repositories"><path d="M83.09,190.1137 C106.19,205.6337 168.16,247.2537 207.82,273.8937 " fill="none" id="Database_Driver_API-Repositories" style="stroke:#181818;stroke-width:1.0;"/></g><!--link Controllers to Service_API--><g id="link_Controllers_Service_API"><path d="M392,323.0337 C392,348.6137 392,388.1137 392,404.9537 " fill="none" id="Controllers-Service_API" style="stroke:#181818;stroke-width:1.0;"/></g><!--link Repositories to Repo_API--><g id="link_Repositories_Repo_API"><path d="M233.47,323.0337 C223.1,348.6137 207.09,388.1137 200.27,404.9537 " fill="none" id="Repositories-Repo_API" style="stroke:#181818;stroke-width:1.0;"/></g><!--link Repositories to Model_API--><g id="link_Repositories_Model_API"><path d="M246.37,323.0437 C252.76,371.0737 265.19,483.8337 256,578.0137 C253.94,599.1637 248.24,623.6037 245.11,635.9637 " fill="none" id="Repositories-Model_API" style="stroke:#181818;stroke-width:1.0;"/></g><!--link Service_API to Services--><g id="link_Service_API_Services"><path d="M382.93,420.1837 C357.16,434.8837 282.25,477.6137 234.57,504.8037 " fill="none" id="Service_API-Services" style="stroke:#181818;stroke-width:1.0;"/></g><!--link Repo_API to Services--><g id="link_Repo_API_Services"><path d="M196.71,423.1737 C196.12,440.0537 194.73,479.3337 193.83,504.8637 " fill="none" id="Repo_API-Services" style="stroke:#181818;stroke-width:1.0;"/></g><!--link Services to Model_API--><g id="link_Services_Model_API"><path d="M203.36,554.0337 C214.63,579.6137 232.03,619.1137 239.45,635.9537 " fill="none" id="Services-Model_API" style="stroke:#181818;stroke-width:1.0;"/></g><!--link Model_API to Domain--><g id="link_Model_API_Domain"><path d="M243,654.1737 C243,671.0537 243,710.3337 243,735.8637 " fill="none" id="Model_API-Domain" style="stroke:#181818;stroke-width:1.0;"/></g><!--SRC=[XL9DJuGm4BttLpHxa1DozuQYoHxC6jpibLGOiTdIDcrP3yR_Rldi1oHEqeIyUJFpvWt9bp5IFsIPP8IRlcFtjUWo-wJWm4tQKD8gqY4RajHNqW8-l5W0leMwQdo72qLleFG1_o1iOwt41J7aWsY8u5BqXl8M_IBaSSyd55PMhw81Xj3I1QUfXrVvst6J6hwhISwQTtJirwDPnLXwFerq3teIt2Z1sD9eOk2Hwnjnv0RK9wa1vmsHPh0XTg44AJGrGb7GKSfDqOCRuT1GXdOQ8ZZQCGq7xjYouNZjXjmxg1kjORB4uorrkmbtb2HgTvdCJUAA6NTUvb8oMXD31SUFlQOSjCPbps3hwInnT2svhBwiiBT2W2_ozyZH6axNyt1ZgQZzp_wHLOYEK1w9ci7WH3Dcumy0]--></g></svg>