<?xml version="1.0" encoding="us-ascii" standalone="no"?><svg xmlns="http://www.w3.org/2000/svg" xmlns:xlink="http://www.w3.org/1999/xlink" contentStyleType="text/css" height="1421px" preserveAspectRatio="none" style="width:2146px;height:1421px;background:#FFFFFF;" version="1.1" viewBox="0 0 2146 1421" width="2146px" zoomAndPan="magnify"><defs/><g><ellipse cx="1076.6875" cy="20" fill="#222222" rx="10" ry="10" style="stroke:#222222;stroke-width:1.0;"/><path d="M1165.6875,40 L1165.6875,81.8789 L1145.6875,85.8789 L1165.6875,89.8789 L1165.6875,131.7578 A0,0 0 0 0 1165.6875,131.7578 L1378.6875,131.7578 A0,0 0 0 0 1378.6875,131.7578 L1378.6875,50 L1368.6875,40 L1165.6875,40 A0,0 0 0 0 1165.6875,40 " fill="#FAFAFA" style="stroke:#181818;stroke-width:0.5;"/><path d="M1368.6875,40 L1368.6875,50 L1378.6875,50 L1368.6875,40 " fill="#FAFAFA" style="stroke:#181818;stroke-width:0.5;"/><text fill="#000000" font-family="sans-serif" font-size="13" lengthAdjust="spacing" textLength="192" x="1171.6875" y="58.4951">Maximum solar panel production,</text><text fill="#000000" font-family="sans-serif" font-size="13" lengthAdjust="spacing" textLength="70" x="1171.6875" y="74.8467">User usage,</text><text fill="#000000" font-family="sans-serif" font-size="13" lengthAdjust="spacing" textLength="91" x="1171.6875" y="91.1982">Purchase price,</text><text fill="#000000" font-family="sans-serif" font-size="13" lengthAdjust="spacing" textLength="75" x="1171.6875" y="107.5498">Selling price,</text><text fill="#000000" font-family="sans-serif" font-size="13" lengthAdjust="spacing" textLength="111" x="1171.6875" y="123.9014">Battery parameters</text><rect fill="#F1F1F1" height="35.0938" rx="12.5" ry="12.5" style="stroke:#181818;stroke-width:0.5;" width="138" x="1007.6875" y="68.332"/><text fill="#000000" font-family="sans-serif" font-size="12" lengthAdjust="spacing" textLength="118" x="1017.6875" y="90.7891">Load current day data</text><rect fill="#F1F1F1" height="35.0938" rx="12.5" ry="12.5" style="stroke:#181818;stroke-width:0.5;" width="288" x="932.6875" y="151.7578"/><text fill="#000000" font-family="sans-serif" font-size="12" lengthAdjust="spacing" textLength="268" x="942.6875" y="174.2148">For each 15-minute interval in the day (total of 96)</text><path d="M1217.6875,203.0469 L1217.6875,220.3984 L1197.6875,224.3984 L1217.6875,228.3984 L1217.6875,245.75 A0,0 0 0 0 1217.6875,245.75 L1578.6875,245.75 A0,0 0 0 0 1578.6875,245.75 L1578.6875,213.0469 L1568.6875,203.0469 L1217.6875,203.0469 A0,0 0 0 0 1217.6875,203.0469 " fill="#FAFAFA" style="stroke:#181818;stroke-width:0.5;"/><path d="M1568.6875,203.0469 L1568.6875,213.0469 L1578.6875,213.0469 L1568.6875,203.0469 " fill="#FAFAFA" style="stroke:#181818;stroke-width:0.5;"/><text fill="#000000" font-family="sans-serif" font-size="13" lengthAdjust="spacing" textLength="169" x="1223.6875" y="221.542">UserUsage = energy required</text><text fill="#000000" font-family="sans-serif" font-size="13" lengthAdjust="spacing" textLength="340" x="1223.6875" y="237.8936">MaxSolarProduction = energy generated by the solar panel</text><rect fill="#F1F1F1" height="35.0938" rx="12.5" ry="12.5" style="stroke:#181818;stroke-width:0.5;" width="242" x="955.6875" y="206.8516"/><text fill="#000000" font-family="sans-serif" font-size="12" lengthAdjust="spacing" textLength="222" x="965.6875" y="229.3086">Get UserUsage and MaxSolarProduction</text><path d="M1273.6875,270.1211 L1273.6875,279.2969 L1253.6875,283.2969 L1273.6875,287.2969 L1273.6875,296.4727 A0,0 0 0 0 1273.6875,296.4727 L1642.6875,296.4727 A0,0 0 0 0 1642.6875,296.4727 L1642.6875,280.1211 L1632.6875,270.1211 L1273.6875,270.1211 A0,0 0 0 0 1273.6875,270.1211 " fill="#FAFAFA" style="stroke:#181818;stroke-width:0.5;"/><path d="M1632.6875,270.1211 L1632.6875,280.1211 L1642.6875,280.1211 L1632.6875,270.1211 " fill="#FAFAFA" style="stroke:#181818;stroke-width:0.5;"/><text fill="#000000" font-family="sans-serif" font-size="13" lengthAdjust="spacing" textLength="348" x="1279.6875" y="288.6162">EnergyForUsage + EnergyForBattery = MaxSolarProduction</text><rect fill="#F1F1F1" height="35.0938" rx="12.5" ry="12.5" style="stroke:#181818;stroke-width:0.5;" width="354" x="899.6875" y="265.75"/><text fill="#000000" font-family="sans-serif" font-size="12" lengthAdjust="spacing" textLength="334" x="909.6875" y="288.207">Split solar energy into EnergyForUsage and EnergyForBattery</text><polygon fill="#F1F1F1" points="1022.1875,320.8438,1131.1875,320.8438,1143.1875,332.8438,1131.1875,344.8438,1022.1875,344.8438,1010.1875,332.8438,1022.1875,320.8438" style="stroke:#181818;stroke-width:0.5;"/><text fill="#000000" font-family="sans-serif" font-size="11" lengthAdjust="spacing" textLength="109" x="1022.1875" y="337.3447">EnergyForBattery &gt; 0?</text><text fill="#000000" font-family="sans-serif" font-size="11" lengthAdjust="spacing" textLength="20" x="990.1875" y="330.4268">Yes</text><text fill="#000000" font-family="sans-serif" font-size="11" lengthAdjust="spacing" textLength="13" x="1143.1875" y="330.4268">No</text><path d="M813.0625,354.8438 L813.0625,372.1953 L793.0625,376.1953 L813.0625,380.1953 L813.0625,397.5469 A0,0 0 0 0 813.0625,397.5469 L1083.0625,397.5469 A0,0 0 0 0 1083.0625,397.5469 L1083.0625,364.8438 L1073.0625,354.8438 L813.0625,354.8438 A0,0 0 0 0 813.0625,354.8438 " fill="#FAFAFA" style="stroke:#181818;stroke-width:0.5;"/><path d="M1073.0625,354.8438 L1073.0625,364.8438 L1083.0625,364.8438 L1073.0625,354.8438 " fill="#FAFAFA" style="stroke:#181818;stroke-width:0.5;"/><text fill="#000000" font-family="sans-serif" font-size="13" lengthAdjust="spacing" textLength="201" x="819.0625" y="373.3389">BatteryCharge = EnergyForBattery</text><text fill="#000000" font-family="sans-serif" font-size="13" lengthAdjust="spacing" textLength="249" x="819.0625" y="389.6904">Limited by the battery's maximum capacity</text><rect fill="#F1F1F1" height="35.0938" rx="12.5" ry="12.5" style="stroke:#181818;stroke-width:0.5;" width="153" x="640.0625" y="358.6484"/><text fill="#000000" font-family="sans-serif" font-size="12" lengthAdjust="spacing" textLength="133" x="650.0625" y="381.1055">Calculate BatteryCharge</text><rect fill="#F1F1F1" height="35.0938" rx="12.5" ry="12.5" style="stroke:#181818;stroke-width:0.5;" width="146" x="643.5625" y="432.5469"/><text fill="#000000" font-family="sans-serif" font-size="12" lengthAdjust="spacing" textLength="126" x="653.5625" y="455.0039">ChargingBattery = True</text><rect fill="#F1F1F1" height="35.0938" rx="12.5" ry="12.5" style="stroke:#181818;stroke-width:0.5;" width="168" x="632.5625" y="502.6406"/><text fill="#000000" font-family="sans-serif" font-size="12" lengthAdjust="spacing" textLength="148" x="642.5625" y="525.0977">DischargingBattery = False</text><polygon fill="#F1F1F1" points="1360.3125,354.8438,1513.3125,354.8438,1525.3125,366.8438,1513.3125,378.8438,1360.3125,378.8438,1348.3125,366.8438,1360.3125,354.8438" style="stroke:#181818;stroke-width:0.5;"/><text fill="#000000" font-family="sans-serif" font-size="11" lengthAdjust="spacing" textLength="153" x="1360.3125" y="371.3447">UserUsage &gt; EnergyForUsage?</text><text fill="#000000" font-family="sans-serif" font-size="11" lengthAdjust="spacing" textLength="20" x="1328.3125" y="364.4268">Yes</text><text fill="#000000" font-family="sans-serif" font-size="11" lengthAdjust="spacing" textLength="13" x="1525.3125" y="364.4268">No</text><path d="M1302.0625,393.2148 L1302.0625,402.3906 L1282.0625,406.3906 L1302.0625,410.3906 L1302.0625,419.5664 A0,0 0 0 0 1302.0625,419.5664 L1572.0625,419.5664 A0,0 0 0 0 1572.0625,419.5664 L1572.0625,403.2148 L1562.0625,393.2148 L1302.0625,393.2148 A0,0 0 0 0 1302.0625,393.2148 " fill="#FAFAFA" style="stroke:#181818;stroke-width:0.5;"/><path d="M1562.0625,393.2148 L1562.0625,403.2148 L1572.0625,403.2148 L1562.0625,393.2148 " fill="#FAFAFA" style="stroke:#181818;stroke-width:0.5;"/><text fill="#000000" font-family="sans-serif" font-size="13" lengthAdjust="spacing" textLength="249" x="1308.0625" y="411.71">Limited by the battery's maximum capacity</text><rect fill="#F1F1F1" height="35.0938" rx="12.5" ry="12.5" style="stroke:#181818;stroke-width:0.5;" width="169" x="1113.0625" y="388.8438"/><text fill="#000000" font-family="sans-serif" font-size="12" lengthAdjust="spacing" textLength="149" x="1123.0625" y="411.3008">Calculate BatteryDischarge</text><rect fill="#F1F1F1" height="35.0938" rx="12.5" ry="12.5" style="stroke:#181818;stroke-width:0.5;" width="162" x="1116.5625" y="458.9375"/><text fill="#000000" font-family="sans-serif" font-size="12" lengthAdjust="spacing" textLength="142" x="1126.5625" y="481.3945">DischargingBattery = True</text><rect fill="#F1F1F1" height="35.0938" rx="12.5" ry="12.5" style="stroke:#181818;stroke-width:0.5;" width="152" x="1121.5625" y="529.0313"/><text fill="#000000" font-family="sans-serif" font-size="12" lengthAdjust="spacing" textLength="132" x="1131.5625" y="551.4883">ChargingBattery = False</text><rect fill="#F1F1F1" height="35.0938" rx="12.5" ry="12.5" style="stroke:#181818;stroke-width:0.5;" width="118" x="1617.0625" y="388.8438"/><text fill="#000000" font-family="sans-serif" font-size="12" lengthAdjust="spacing" textLength="98" x="1627.0625" y="411.3008">BatteryCharge = 0</text><rect fill="#F1F1F1" height="35.0938" rx="12.5" ry="12.5" style="stroke:#181818;stroke-width:0.5;" width="134" x="1609.0625" y="458.9375"/><text fill="#000000" font-family="sans-serif" font-size="12" lengthAdjust="spacing" textLength="114" x="1619.0625" y="481.3945">BatteryDischarge = 0</text><rect fill="#F1F1F1" height="35.0938" rx="12.5" ry="12.5" style="stroke:#181818;stroke-width:0.5;" width="152" x="1600.0625" y="529.0313"/><text fill="#000000" font-family="sans-serif" font-size="12" lengthAdjust="spacing" textLength="132" x="1610.0625" y="551.4883">ChargingBattery = False</text><rect fill="#F1F1F1" height="35.0938" rx="12.5" ry="12.5" style="stroke:#181818;stroke-width:0.5;" width="168" x="1592.0625" y="584.125"/><text fill="#000000" font-family="sans-serif" font-size="12" lengthAdjust="spacing" textLength="148" x="1602.0625" y="606.582">DischargingBattery = False</text><polygon fill="#F1F1F1" points="1436.8125,625.2188,1448.8125,637.2188,1436.8125,649.2188,1424.8125,637.2188,1436.8125,625.2188" style="stroke:#181818;stroke-width:0.5;"/><polygon fill="#F1F1F1" points="1076.6875,655.2188,1088.6875,667.2188,1076.6875,679.2188,1064.6875,667.2188,1076.6875,655.2188" style="stroke:#181818;stroke-width:0.5;"/><path d="M1169.1875,695.4141 L1169.1875,712.7656 L1149.1875,716.7656 L1169.1875,720.7656 L1169.1875,738.1172 A0,0 0 0 0 1169.1875,738.1172 L1857.1875,738.1172 A0,0 0 0 0 1857.1875,738.1172 L1857.1875,705.4141 L1847.1875,695.4141 L1169.1875,695.4141 A0,0 0 0 0 1169.1875,695.4141 " fill="#FAFAFA" style="stroke:#181818;stroke-width:0.5;"/><path d="M1847.1875,695.4141 L1847.1875,705.4141 L1857.1875,705.4141 L1847.1875,695.4141 " fill="#FAFAFA" style="stroke:#181818;stroke-width:0.5;"/><text fill="#000000" font-family="sans-serif" font-size="13" lengthAdjust="spacing" textLength="667" x="1175.1875" y="713.9092">ChargeLevel = Previous level + 15min * (ChargeEfficiency * BatteryCharge - BatteryDischarge / DischargeEfficiency)</text><text fill="#000000" font-family="sans-serif" font-size="13" lengthAdjust="spacing" textLength="229" x="1175.1875" y="730.2607">Minimum defined by battery parameters</text><rect fill="#F1F1F1" height="35.0938" rx="12.5" ry="12.5" style="stroke:#181818;stroke-width:0.5;" width="145" x="1004.1875" y="699.2188"/><text fill="#000000" font-family="sans-serif" font-size="12" lengthAdjust="spacing" textLength="125" x="1014.1875" y="721.6758">Calculate ChargeLevel</text><path d="M1205.1875,762.4883 L1205.1875,771.6641 L1185.1875,775.6641 L1205.1875,779.6641 L1205.1875,788.8398 A0,0 0 0 0 1205.1875,788.8398 L1906.1875,788.8398 A0,0 0 0 0 1906.1875,788.8398 L1906.1875,772.4883 L1896.1875,762.4883 L1205.1875,762.4883 A0,0 0 0 0 1205.1875,762.4883 " fill="#FAFAFA" style="stroke:#181818;stroke-width:0.5;"/><path d="M1896.1875,762.4883 L1896.1875,772.4883 L1906.1875,772.4883 L1896.1875,762.4883 " fill="#FAFAFA" style="stroke:#181818;stroke-width:0.5;"/><text fill="#000000" font-family="sans-serif" font-size="13" lengthAdjust="spacing" textLength="680" x="1211.1875" y="780.9834">UserUsage = EnergyForUsage + BatteryDischarge + EnergyPurchased - EnergySold + EnergyReceived - EnergySent</text><rect fill="#F1F1F1" height="35.0938" rx="12.5" ry="12.5" style="stroke:#181818;stroke-width:0.5;" width="217" x="968.1875" y="758.1172"/><text fill="#000000" font-family="sans-serif" font-size="12" lengthAdjust="spacing" textLength="197" x="978.1875" y="780.5742">Calculate required or excess energy</text><polygon fill="#F1F1F1" points="952.1875,813.2109,1201.1875,813.2109,1213.1875,825.2109,1201.1875,837.2109,952.1875,837.2109,940.1875,825.2109,952.1875,813.2109" style="stroke:#181818;stroke-width:0.5;"/><text fill="#000000" font-family="sans-serif" font-size="11" lengthAdjust="spacing" textLength="249" x="952.1875" y="829.7119">UserUsage &gt; EnergyForUsage + BatteryDischarge?</text><text fill="#000000" font-family="sans-serif" font-size="11" lengthAdjust="spacing" textLength="20" x="920.1875" y="822.7939">Yes</text><text fill="#000000" font-family="sans-serif" font-size="11" lengthAdjust="spacing" textLength="13" x="1213.1875" y="822.7939">No</text><polygon fill="#F1F1F1" points="333,847.2109,480,847.2109,492,859.2109,480,871.2109,333,871.2109,321,859.2109,333,847.2109" style="stroke:#181818;stroke-width:0.5;"/><text fill="#000000" font-family="sans-serif" font-size="11" lengthAdjust="spacing" textLength="147" x="333" y="863.7119">Community has spare energy?</text><text fill="#000000" font-family="sans-serif" font-size="11" lengthAdjust="spacing" textLength="20" x="301" y="856.7939">Yes</text><text fill="#000000" font-family="sans-serif" font-size="11" lengthAdjust="spacing" textLength="13" x="492" y="856.7939">No</text><path d="M278,885.582 L278,894.7578 L258,898.7578 L278,902.7578 L278,911.9336 A0,0 0 0 0 278,911.9336 L552,911.9336 A0,0 0 0 0 552,911.9336 L552,895.582 L542,885.582 L278,885.582 A0,0 0 0 0 278,885.582 " fill="#FAFAFA" style="stroke:#181818;stroke-width:0.5;"/><path d="M542,885.582 L542,895.582 L552,895.582 L542,885.582 " fill="#FAFAFA" style="stroke:#181818;stroke-width:0.5;"/><text fill="#000000" font-family="sans-serif" font-size="13" lengthAdjust="spacing" textLength="253" x="284" y="904.0771">EnergyReceived = energy from another user</text><rect fill="#F1F1F1" height="35.0938" rx="12.5" ry="12.5" style="stroke:#181818;stroke-width:0.5;" width="247" x="11" y="881.2109"/><text fill="#000000" font-family="sans-serif" font-size="12" lengthAdjust="spacing" textLength="227" x="21" y="903.668">Receive EnergyReceived from community</text><path d="M795,881.2109 L795,898.5625 L775,902.5625 L795,906.5625 L795,923.9141 A0,0 0 0 0 795,923.9141 L1060,923.9141 A0,0 0 0 0 1060,923.9141 L1060,891.2109 L1050,881.2109 L795,881.2109 A0,0 0 0 0 795,881.2109 " fill="#FAFAFA" style="stroke:#181818;stroke-width:0.5;"/><path d="M1050,881.2109 L1050,891.2109 L1060,891.2109 L1050,881.2109 " fill="#FAFAFA" style="stroke:#181818;stroke-width:0.5;"/><text fill="#000000" font-family="sans-serif" font-size="13" lengthAdjust="spacing" textLength="213" x="801" y="899.7061">EnergyPurchased limited to 12.5 kW</text><text fill="#000000" font-family="sans-serif" font-size="13" lengthAdjust="spacing" textLength="244" x="801" y="916.0576">Cost = PurchasePrice * EnergyPurchased</text><rect fill="#F1F1F1" height="35.0938" rx="12.5" ry="12.5" style="stroke:#181818;stroke-width:0.5;" width="213" x="562" y="885.0156"/><text fill="#000000" font-family="sans-serif" font-size="12" lengthAdjust="spacing" textLength="193" x="572" y="907.4727">Buy EnergyPurchased from the grid</text><polygon fill="#F1F1F1" points="406.5,929.9141,418.5,941.9141,406.5,953.9141,394.5,941.9141,406.5,929.9141" style="stroke:#181818;stroke-width:0.5;"/><polygon fill="#F1F1F1" points="1624.375,847.2109,1889.375,847.2109,1901.375,859.2109,1889.375,871.2109,1624.375,871.2109,1612.375,859.2109,1624.375,847.2109" style="stroke:#181818;stroke-width:0.5;"/><text fill="#000000" font-family="sans-serif" font-size="11" lengthAdjust="spacing" textLength="265" x="1624.375" y="863.7119">MaxSolarProduction &gt; UserUsage + EnergyForBattery?</text><text fill="#000000" font-family="sans-serif" font-size="11" lengthAdjust="spacing" textLength="20" x="1592.375" y="856.7939">Yes</text><text fill="#000000" font-family="sans-serif" font-size="11" lengthAdjust="spacing" textLength="13" x="1901.375" y="856.7939">No</text><polygon fill="#F1F1F1" points="1363.75,881.2109,1491.75,881.2109,1503.75,893.2109,1491.75,905.2109,1363.75,905.2109,1351.75,893.2109,1363.75,881.2109" style="stroke:#181818;stroke-width:0.5;"/><text fill="#000000" font-family="sans-serif" font-size="11" lengthAdjust="spacing" textLength="128" x="1363.75" y="897.7119">Community needs energy?</text><text fill="#000000" font-family="sans-serif" font-size="11" lengthAdjust="spacing" textLength="20" x="1331.75" y="890.7939">Yes</text><text fill="#000000" font-family="sans-serif" font-size="11" lengthAdjust="spacing" textLength="13" x="1503.75" y="890.7939">No</text><path d="M1321,919.582 L1321,928.7578 L1301,932.7578 L1321,936.7578 L1321,945.9336 A0,0 0 0 0 1321,945.9336 L1548,945.9336 A0,0 0 0 0 1548,945.9336 L1548,929.582 L1538,919.582 L1321,919.582 A0,0 0 0 0 1321,919.582 " fill="#FAFAFA" style="stroke:#181818;stroke-width:0.5;"/><path d="M1538,919.582 L1538,929.582 L1548,929.582 L1538,919.582 " fill="#FAFAFA" style="stroke:#181818;stroke-width:0.5;"/><text fill="#000000" font-family="sans-serif" font-size="13" lengthAdjust="spacing" textLength="206" x="1327" y="938.0771">EnergySent limited by solar excess</text><rect fill="#F1F1F1" height="35.0938" rx="12.5" ry="12.5" style="stroke:#181818;stroke-width:0.5;" width="191" x="1110" y="915.2109"/><text fill="#000000" font-family="sans-serif" font-size="12" lengthAdjust="spacing" textLength="171" x="1120" y="937.668">Send EnergySent to community</text><path d="M1752,915.2109 L1752,932.5625 L1732,936.5625 L1752,940.5625 L1752,957.9141 A0,0 0 0 0 1752,957.9141 L1987,957.9141 A0,0 0 0 0 1987,957.9141 L1987,925.2109 L1977,915.2109 L1752,915.2109 A0,0 0 0 0 1752,915.2109 " fill="#FAFAFA" style="stroke:#181818;stroke-width:0.5;"/><path d="M1977,915.2109 L1977,925.2109 L1987,925.2109 L1977,915.2109 " fill="#FAFAFA" style="stroke:#181818;stroke-width:0.5;"/><text fill="#000000" font-family="sans-serif" font-size="13" lengthAdjust="spacing" textLength="177" x="1758" y="933.7061">EnergySold limited to 10.5 kW</text><text fill="#000000" font-family="sans-serif" font-size="13" lengthAdjust="spacing" textLength="214" x="1758" y="950.0576">Revenue = SellingPrice * EnergySold</text><rect fill="#F1F1F1" height="35.0938" rx="12.5" ry="12.5" style="stroke:#181818;stroke-width:0.5;" width="164" x="1568" y="919.0156"/><text fill="#000000" font-family="sans-serif" font-size="12" lengthAdjust="spacing" textLength="144" x="1578" y="941.4727">Sell EnergySold to the grid</text><polygon fill="#F1F1F1" points="1427.75,963.9141,1439.75,975.9141,1427.75,987.9141,1415.75,975.9141,1427.75,963.9141" style="stroke:#181818;stroke-width:0.5;"/><rect fill="#F1F1F1" height="35.0938" rx="12.5" ry="12.5" style="stroke:#181818;stroke-width:0.5;" width="138" x="1997" y="881.2109"/><text fill="#000000" font-family="sans-serif" font-size="12" lengthAdjust="spacing" textLength="118" x="2007" y="903.668">EnergyPurchased = 0</text><rect fill="#F1F1F1" height="35.0938" rx="12.5" ry="12.5" style="stroke:#181818;stroke-width:0.5;" width="103" x="2014.5" y="951.3047"/><text fill="#000000" font-family="sans-serif" font-size="12" lengthAdjust="spacing" textLength="83" x="2024.5" y="973.7617">EnergySold = 0</text><rect fill="#F1F1F1" height="35.0938" rx="12.5" ry="12.5" style="stroke:#181818;stroke-width:0.5;" width="129" x="2001.5" y="1007.9141"/><text fill="#000000" font-family="sans-serif" font-size="12" lengthAdjust="spacing" textLength="109" x="2011.5" y="1030.3711">EnergyReceived = 0</text><rect fill="#F1F1F1" height="35.0938" rx="12.5" ry="12.5" style="stroke:#181818;stroke-width:0.5;" width="103" x="2014.5" y="1063.0078"/><text fill="#000000" font-family="sans-serif" font-size="12" lengthAdjust="spacing" textLength="83" x="2024.5" y="1085.4648">EnergySent = 0</text><polygon fill="#F1F1F1" points="1756.875,1104.1016,1768.875,1116.1016,1756.875,1128.1016,1744.875,1116.1016,1756.875,1104.1016" style="stroke:#181818;stroke-width:0.5;"/><polygon fill="#F1F1F1" points="1076.6875,1134.1016,1088.6875,1146.1016,1076.6875,1158.1016,1064.6875,1146.1016,1076.6875,1134.1016" style="stroke:#181818;stroke-width:0.5;"/><rect fill="#F1F1F1" height="35.0938" rx="12.5" ry="12.5" style="stroke:#181818;stroke-width:0.5;" width="841" x="656.1875" y="1178.1016"/><text fill="#000000" font-family="sans-serif" font-size="12" lengthAdjust="spacing" textLength="821" x="666.1875" y="1200.5586">Store EnergyPurchased, EnergySold, ChargeLevel, BatteryCharge, BatteryDischarge, EnergyForUsage, EnergyForBattery, EnergyReceived, EnergySent</text><rect fill="#F1F1F1" height="35.0938" rx="12.5" ry="12.5" style="stroke:#181818;stroke-width:0.5;" width="86" x="1033.6875" y="1233.1953"/><text fill="#000000" font-family="sans-serif" font-size="12" lengthAdjust="spacing" textLength="66" x="1043.6875" y="1255.6523">Next interval</text><path d="M1199.1875,1282.6602 L1199.1875,1291.8359 L1179.1875,1295.8359 L1199.1875,1299.8359 L1199.1875,1309.0117 A0,0 0 0 0 1199.1875,1309.0117 L1510.1875,1309.0117 A0,0 0 0 0 1510.1875,1309.0117 L1510.1875,1292.6602 L1500.1875,1282.6602 L1199.1875,1282.6602 A0,0 0 0 0 1199.1875,1282.6602 " fill="#FAFAFA" style="stroke:#181818;stroke-width:0.5;"/><path d="M1500.1875,1282.6602 L1500.1875,1292.6602 L1510.1875,1292.6602 L1500.1875,1282.6602 " fill="#FAFAFA" style="stroke:#181818;stroke-width:0.5;"/><text fill="#000000" font-family="sans-serif" font-size="13" lengthAdjust="spacing" textLength="290" x="1205.1875" y="1301.1553">FinalChargeLevel = ChargeLevel at the last interval</text><rect fill="#F1F1F1" height="35.0938" rx="12.5" ry="12.5" style="stroke:#181818;stroke-width:0.5;" width="205" x="974.1875" y="1278.2891"/><text fill="#000000" font-family="sans-serif" font-size="12" lengthAdjust="spacing" textLength="185" x="984.1875" y="1300.7461">Save final ChargeLevel for the day</text><path d="M1172.6875,1337.7539 L1172.6875,1346.9297 L1152.6875,1350.9297 L1172.6875,1354.9297 L1172.6875,1364.1055 A0,0 0 0 0 1172.6875,1364.1055 L1751.6875,1364.1055 A0,0 0 0 0 1751.6875,1364.1055 L1751.6875,1347.7539 L1741.6875,1337.7539 L1172.6875,1337.7539 A0,0 0 0 0 1172.6875,1337.7539 " fill="#FAFAFA" style="stroke:#181818;stroke-width:0.5;"/><path d="M1741.6875,1337.7539 L1741.6875,1347.7539 L1751.6875,1347.7539 L1741.6875,1337.7539 " fill="#FAFAFA" style="stroke:#181818;stroke-width:0.5;"/><text fill="#000000" font-family="sans-serif" font-size="13" lengthAdjust="spacing" textLength="558" x="1178.6875" y="1356.249">Total Cost = Sum(PurchasePrice * EnergyPurchased - SellingPrice * EnergySold) for all intervals</text><rect fill="#F1F1F1" height="35.0938" rx="12.5" ry="12.5" style="stroke:#181818;stroke-width:0.5;" width="152" x="1000.6875" y="1333.3828"/><text fill="#000000" font-family="sans-serif" font-size="12" lengthAdjust="spacing" textLength="132" x="1010.6875" y="1355.8398">Calculate total daily cost</text><ellipse cx="1076.6875" cy="1399.4766" fill="none" rx="11" ry="11" style="stroke:#222222;stroke-width:1.0;"/><ellipse cx="1076.6875" cy="1399.4766" fill="#222222" rx="6" ry="6" style="stroke:#222222;stroke-width:1.0;"/><line style="stroke:#181818;stroke-width:1.0;" x1="1076.6875" x2="1076.6875" y1="30" y2="68.332"/><polygon fill="#181818" points="1072.6875,58.332,1076.6875,68.332,1080.6875,58.332,1076.6875,62.332" style="stroke:#181818;stroke-width:1.0;"/><line style="stroke:#181818;stroke-width:1.0;" x1="1076.6875" x2="1076.6875" y1="103.4258" y2="151.7578"/><polygon fill="#181818" points="1072.6875,141.7578,1076.6875,151.7578,1080.6875,141.7578,1076.6875,145.7578" style="stroke:#181818;stroke-width:1.0;"/><line style="stroke:#181818;stroke-width:1.0;" x1="1076.6875" x2="1076.6875" y1="186.8516" y2="206.8516"/><polygon fill="#181818" points="1072.6875,196.8516,1076.6875,206.8516,1080.6875,196.8516,1076.6875,200.8516" style="stroke:#181818;stroke-width:1.0;"/><line style="stroke:#181818;stroke-width:1.0;" x1="1076.6875" x2="1076.6875" y1="241.9453" y2="265.75"/><polygon fill="#181818" points="1072.6875,255.75,1076.6875,265.75,1080.6875,255.75,1076.6875,259.75" style="stroke:#181818;stroke-width:1.0;"/><line style="stroke:#181818;stroke-width:1.0;" x1="716.5625" x2="716.5625" y1="393.7422" y2="432.5469"/><polygon fill="#181818" points="712.5625,422.5469,716.5625,432.5469,720.5625,422.5469,716.5625,426.5469" style="stroke:#181818;stroke-width:1.0;"/><line style="stroke:#181818;stroke-width:1.0;" x1="716.5625" x2="716.5625" y1="467.6406" y2="502.6406"/><polygon fill="#181818" points="712.5625,492.6406,716.5625,502.6406,720.5625,492.6406,716.5625,496.6406" style="stroke:#181818;stroke-width:1.0;"/><line style="stroke:#181818;stroke-width:1.0;" x1="1197.5625" x2="1197.5625" y1="423.9375" y2="458.9375"/><polygon fill="#181818" points="1193.5625,448.9375,1197.5625,458.9375,1201.5625,448.9375,1197.5625,452.9375" style="stroke:#181818;stroke-width:1.0;"/><line style="stroke:#181818;stroke-width:1.0;" x1="1197.5625" x2="1197.5625" y1="494.0313" y2="529.0313"/><polygon fill="#181818" points="1193.5625,519.0313,1197.5625,529.0313,1201.5625,519.0313,1197.5625,523.0313" style="stroke:#181818;stroke-width:1.0;"/><line style="stroke:#181818;stroke-width:1.0;" x1="1676.0625" x2="1676.0625" y1="423.9375" y2="458.9375"/><polygon fill="#181818" points="1672.0625,448.9375,1676.0625,458.9375,1680.0625,448.9375,1676.0625,452.9375" style="stroke:#181818;stroke-width:1.0;"/><line style="stroke:#181818;stroke-width:1.0;" x1="1676.0625" x2="1676.0625" y1="494.0313" y2="529.0313"/><polygon fill="#181818" points="1672.0625,519.0313,1676.0625,529.0313,1680.0625,519.0313,1676.0625,523.0313" style="stroke:#181818;stroke-width:1.0;"/><line style="stroke:#181818;stroke-width:1.0;" x1="1676.0625" x2="1676.0625" y1="564.125" y2="584.125"/><polygon fill="#181818" points="1672.0625,574.125,1676.0625,584.125,1680.0625,574.125,1676.0625,578.125" style="stroke:#181818;stroke-width:1.0;"/><line style="stroke:#181818;stroke-width:1.0;" x1="1348.3125" x2="1197.5625" y1="366.8438" y2="366.8438"/><line style="stroke:#181818;stroke-width:1.0;" x1="1197.5625" x2="1197.5625" y1="366.8438" y2="388.8438"/><polygon fill="#181818" points="1193.5625,378.8438,1197.5625,388.8438,1201.5625,378.8438,1197.5625,382.8438" style="stroke:#181818;stroke-width:1.0;"/><line style="stroke:#181818;stroke-width:1.0;" x1="1525.3125" x2="1676.0625" y1="366.8438" y2="366.8438"/><line style="stroke:#181818;stroke-width:1.0;" x1="1676.0625" x2="1676.0625" y1="366.8438" y2="388.8438"/><polygon fill="#181818" points="1672.0625,378.8438,1676.0625,388.8438,1680.0625,378.8438,1676.0625,382.8438" style="stroke:#181818;stroke-width:1.0;"/><line style="stroke:#181818;stroke-width:1.0;" x1="1197.5625" x2="1197.5625" y1="564.125" y2="637.2188"/><line style="stroke:#181818;stroke-width:1.0;" x1="1197.5625" x2="1424.8125" y1="637.2188" y2="637.2188"/><polygon fill="#181818" points="1414.8125,633.2188,1424.8125,637.2188,1414.8125,641.2188,1418.8125,637.2188" style="stroke:#181818;stroke-width:1.0;"/><line style="stroke:#181818;stroke-width:1.0;" x1="1676.0625" x2="1676.0625" y1="619.2188" y2="637.2188"/><line style="stroke:#181818;stroke-width:1.0;" x1="1676.0625" x2="1448.8125" y1="637.2188" y2="637.2188"/><polygon fill="#181818" points="1458.8125,633.2188,1448.8125,637.2188,1458.8125,641.2188,1454.8125,637.2188" style="stroke:#181818;stroke-width:1.0;"/><line style="stroke:#181818;stroke-width:1.0;" x1="1010.1875" x2="716.5625" y1="332.8438" y2="332.8438"/><line style="stroke:#181818;stroke-width:1.0;" x1="716.5625" x2="716.5625" y1="332.8438" y2="358.6484"/><polygon fill="#181818" points="712.5625,348.6484,716.5625,358.6484,720.5625,348.6484,716.5625,352.6484" style="stroke:#181818;stroke-width:1.0;"/><line style="stroke:#181818;stroke-width:1.0;" x1="1143.1875" x2="1436.8125" y1="332.8438" y2="332.8438"/><line style="stroke:#181818;stroke-width:1.0;" x1="1436.8125" x2="1436.8125" y1="332.8438" y2="354.8438"/><polygon fill="#181818" points="1432.8125,344.8438,1436.8125,354.8438,1440.8125,344.8438,1436.8125,348.8438" style="stroke:#181818;stroke-width:1.0;"/><line style="stroke:#181818;stroke-width:1.0;" x1="716.5625" x2="716.5625" y1="537.7344" y2="667.2188"/><line style="stroke:#181818;stroke-width:1.0;" x1="716.5625" x2="1064.6875" y1="667.2188" y2="667.2188"/><polygon fill="#181818" points="1054.6875,663.2188,1064.6875,667.2188,1054.6875,671.2188,1058.6875,667.2188" style="stroke:#181818;stroke-width:1.0;"/><line style="stroke:#181818;stroke-width:1.0;" x1="1436.8125" x2="1436.8125" y1="649.2188" y2="667.2188"/><line style="stroke:#181818;stroke-width:1.0;" x1="1436.8125" x2="1088.6875" y1="667.2188" y2="667.2188"/><polygon fill="#181818" points="1098.6875,663.2188,1088.6875,667.2188,1098.6875,671.2188,1094.6875,667.2188" style="stroke:#181818;stroke-width:1.0;"/><line style="stroke:#181818;stroke-width:1.0;" x1="1076.6875" x2="1076.6875" y1="300.8438" y2="320.8438"/><polygon fill="#181818" points="1072.6875,310.8438,1076.6875,320.8438,1080.6875,310.8438,1076.6875,314.8438" style="stroke:#181818;stroke-width:1.0;"/><line style="stroke:#181818;stroke-width:1.0;" x1="1076.6875" x2="1076.6875" y1="679.2188" y2="699.2188"/><polygon fill="#181818" points="1072.6875,689.2188,1076.6875,699.2188,1080.6875,689.2188,1076.6875,693.2188" style="stroke:#181818;stroke-width:1.0;"/><line style="stroke:#181818;stroke-width:1.0;" x1="1076.6875" x2="1076.6875" y1="734.3125" y2="758.1172"/><polygon fill="#181818" points="1072.6875,748.1172,1076.6875,758.1172,1080.6875,748.1172,1076.6875,752.1172" style="stroke:#181818;stroke-width:1.0;"/><line style="stroke:#181818;stroke-width:1.0;" x1="321" x2="134.5" y1="859.2109" y2="859.2109"/><line style="stroke:#181818;stroke-width:1.0;" x1="134.5" x2="134.5" y1="859.2109" y2="881.2109"/><polygon fill="#181818" points="130.5,871.2109,134.5,881.2109,138.5,871.2109,134.5,875.2109" style="stroke:#181818;stroke-width:1.0;"/><line style="stroke:#181818;stroke-width:1.0;" x1="492" x2="668.5" y1="859.2109" y2="859.2109"/><line style="stroke:#181818;stroke-width:1.0;" x1="668.5" x2="668.5" y1="859.2109" y2="885.0156"/><polygon fill="#181818" points="664.5,875.0156,668.5,885.0156,672.5,875.0156,668.5,879.0156" style="stroke:#181818;stroke-width:1.0;"/><line style="stroke:#181818;stroke-width:1.0;" x1="134.5" x2="134.5" y1="916.3047" y2="941.9141"/><line style="stroke:#181818;stroke-width:1.0;" x1="134.5" x2="394.5" y1="941.9141" y2="941.9141"/><polygon fill="#181818" points="384.5,937.9141,394.5,941.9141,384.5,945.9141,388.5,941.9141" style="stroke:#181818;stroke-width:1.0;"/><line style="stroke:#181818;stroke-width:1.0;" x1="668.5" x2="668.5" y1="920.1094" y2="941.9141"/><line style="stroke:#181818;stroke-width:1.0;" x1="668.5" x2="418.5" y1="941.9141" y2="941.9141"/><polygon fill="#181818" points="428.5,937.9141,418.5,941.9141,428.5,945.9141,424.5,941.9141" style="stroke:#181818;stroke-width:1.0;"/><line style="stroke:#181818;stroke-width:1.0;" x1="1351.75" x2="1205.5" y1="893.2109" y2="893.2109"/><line style="stroke:#181818;stroke-width:1.0;" x1="1205.5" x2="1205.5" y1="893.2109" y2="915.2109"/><polygon fill="#181818" points="1201.5,905.2109,1205.5,915.2109,1209.5,905.2109,1205.5,909.2109" style="stroke:#181818;stroke-width:1.0;"/><line style="stroke:#181818;stroke-width:1.0;" x1="1503.75" x2="1650" y1="893.2109" y2="893.2109"/><line style="stroke:#181818;stroke-width:1.0;" x1="1650" x2="1650" y1="893.2109" y2="919.0156"/><polygon fill="#181818" points="1646,909.0156,1650,919.0156,1654,909.0156,1650,913.0156" style="stroke:#181818;stroke-width:1.0;"/><line style="stroke:#181818;stroke-width:1.0;" x1="1205.5" x2="1205.5" y1="950.3047" y2="975.9141"/><line style="stroke:#181818;stroke-width:1.0;" x1="1205.5" x2="1415.75" y1="975.9141" y2="975.9141"/><polygon fill="#181818" points="1405.75,971.9141,1415.75,975.9141,1405.75,979.9141,1409.75,975.9141" style="stroke:#181818;stroke-width:1.0;"/><line style="stroke:#181818;stroke-width:1.0;" x1="1650" x2="1650" y1="954.1094" y2="975.9141"/><line style="stroke:#181818;stroke-width:1.0;" x1="1650" x2="1439.75" y1="975.9141" y2="975.9141"/><polygon fill="#181818" points="1449.75,971.9141,1439.75,975.9141,1449.75,979.9141,1445.75,975.9141" style="stroke:#181818;stroke-width:1.0;"/><line style="stroke:#181818;stroke-width:1.0;" x1="2066" x2="2066" y1="916.3047" y2="951.3047"/><polygon fill="#181818" points="2062,941.3047,2066,951.3047,2070,941.3047,2066,945.3047" style="stroke:#181818;stroke-width:1.0;"/><line style="stroke:#181818;stroke-width:1.0;" x1="2066" x2="2066" y1="986.3984" y2="1007.9141"/><polygon fill="#181818" points="2062,997.9141,2066,1007.9141,2070,997.9141,2066,1001.9141" style="stroke:#181818;stroke-width:1.0;"/><line style="stroke:#181818;stroke-width:1.0;" x1="2066" x2="2066" y1="1043.0078" y2="1063.0078"/><polygon fill="#181818" points="2062,1053.0078,2066,1063.0078,2070,1053.0078,2066,1057.0078" style="stroke:#181818;stroke-width:1.0;"/><line style="stroke:#181818;stroke-width:1.0;" x1="1612.375" x2="1427.75" y1="859.2109" y2="859.2109"/><line style="stroke:#181818;stroke-width:1.0;" x1="1427.75" x2="1427.75" y1="859.2109" y2="881.2109"/><polygon fill="#181818" points="1423.75,871.2109,1427.75,881.2109,1431.75,871.2109,1427.75,875.2109" style="stroke:#181818;stroke-width:1.0;"/><line style="stroke:#181818;stroke-width:1.0;" x1="1901.375" x2="2066" y1="859.2109" y2="859.2109"/><line style="stroke:#181818;stroke-width:1.0;" x1="2066" x2="2066" y1="859.2109" y2="881.2109"/><polygon fill="#181818" points="2062,871.2109,2066,881.2109,2070,871.2109,2066,875.2109" style="stroke:#181818;stroke-width:1.0;"/><line style="stroke:#181818;stroke-width:1.0;" x1="1427.75" x2="1427.75" y1="987.9141" y2="1116.1016"/><line style="stroke:#181818;stroke-width:1.0;" x1="1427.75" x2="1744.875" y1="1116.1016" y2="1116.1016"/><polygon fill="#181818" points="1734.875,1112.1016,1744.875,1116.1016,1734.875,1120.1016,1738.875,1116.1016" style="stroke:#181818;stroke-width:1.0;"/><line style="stroke:#181818;stroke-width:1.0;" x1="2066" x2="2066" y1="1098.1016" y2="1116.1016"/><line style="stroke:#181818;stroke-width:1.0;" x1="2066" x2="1768.875" y1="1116.1016" y2="1116.1016"/><polygon fill="#181818" points="1778.875,1112.1016,1768.875,1116.1016,1778.875,1120.1016,1774.875,1116.1016" style="stroke:#181818;stroke-width:1.0;"/><line style="stroke:#181818;stroke-width:1.0;" x1="940.1875" x2="406.5" y1="825.2109" y2="825.2109"/><line style="stroke:#181818;stroke-width:1.0;" x1="406.5" x2="406.5" y1="825.2109" y2="847.2109"/><polygon fill="#181818" points="402.5,837.2109,406.5,847.2109,410.5,837.2109,406.5,841.2109" style="stroke:#181818;stroke-width:1.0;"/><line style="stroke:#181818;stroke-width:1.0;" x1="1213.1875" x2="1756.875" y1="825.2109" y2="825.2109"/><line style="stroke:#181818;stroke-width:1.0;" x1="1756.875" x2="1756.875" y1="825.2109" y2="847.2109"/><polygon fill="#181818" points="1752.875,837.2109,1756.875,847.2109,1760.875,837.2109,1756.875,841.2109" style="stroke:#181818;stroke-width:1.0;"/><line style="stroke:#181818;stroke-width:1.0;" x1="406.5" x2="406.5" y1="953.9141" y2="1146.1016"/><line style="stroke:#181818;stroke-width:1.0;" x1="406.5" x2="1064.6875" y1="1146.1016" y2="1146.1016"/><polygon fill="#181818" points="1054.6875,1142.1016,1064.6875,1146.1016,1054.6875,1150.1016,1058.6875,1146.1016" style="stroke:#181818;stroke-width:1.0;"/><line style="stroke:#181818;stroke-width:1.0;" x1="1756.875" x2="1756.875" y1="1128.1016" y2="1146.1016"/><line style="stroke:#181818;stroke-width:1.0;" x1="1756.875" x2="1088.6875" y1="1146.1016" y2="1146.1016"/><polygon fill="#181818" points="1098.6875,1142.1016,1088.6875,1146.1016,1098.6875,1150.1016,1094.6875,1146.1016" style="stroke:#181818;stroke-width:1.0;"/><line style="stroke:#181818;stroke-width:1.0;" x1="1076.6875" x2="1076.6875" y1="793.2109" y2="813.2109"/><polygon fill="#181818" points="1072.6875,803.2109,1076.6875,813.2109,1080.6875,803.2109,1076.6875,807.2109" style="stroke:#181818;stroke-width:1.0;"/><line style="stroke:#181818;stroke-width:1.0;" x1="1076.6875" x2="1076.6875" y1="1158.1016" y2="1178.1016"/><polygon fill="#181818" points="1072.6875,1168.1016,1076.6875,1178.1016,1080.6875,1168.1016,1076.6875,1172.1016" style="stroke:#181818;stroke-width:1.0;"/><line style="stroke:#181818;stroke-width:1.0;" x1="1076.6875" x2="1076.6875" y1="1213.1953" y2="1233.1953"/><polygon fill="#181818" points="1072.6875,1223.1953,1076.6875,1233.1953,1080.6875,1223.1953,1076.6875,1227.1953" style="stroke:#181818;stroke-width:1.0;"/><line style="stroke:#181818;stroke-width:1.0;" x1="1076.6875" x2="1076.6875" y1="1313.3828" y2="1333.3828"/><polygon fill="#181818" points="1072.6875,1323.3828,1076.6875,1333.3828,1080.6875,1323.3828,1076.6875,1327.3828" style="stroke:#181818;stroke-width:1.0;"/><line style="stroke:#181818;stroke-width:1.0;" x1="1076.6875" x2="1076.6875" y1="1368.4766" y2="1388.4766"/><polygon fill="#181818" points="1072.6875,1378.4766,1076.6875,1388.4766,1080.6875,1378.4766,1076.6875,1382.4766" style="stroke:#181818;stroke-width:1.0;"/><!--SRC=[bLPTRnit47o_Nx5lbffBOnTmWKge0qInWm1E84GnYW9-eUzM4c4UgP8yr_httULzyNXIWWA6B95BxinmTqZtBFL1M551PRGfzjPK2DxMcBb-vaaKppjhQbskZ38M_jrBZrbs0Hilh0Up1Rz7E5XJe7EmfGYZ4KfnX8lCSKYsk3UYXAAs5hKFCwNmOfbfun6itEtz0hw8LrdL5JYZX8M3qAXupx8kl3GwVzGF3YtKJkoGVgnhM-o5uxIou84DAYNrhl_zGNYFzWY10j9NnuZlZJa4X2YAFNX9PAMcoHUXO7Pr3PNKjKSt9-IBkoxiwlfjCpx4IXquCvEPDvv6I8K_VfylESdQ6bTN1FQpFjJUyLwVq0FZVs3u87J9T3VCTDrJ7CinHFy9gD7kZc3ndrfQB1_rTF4GjUF_mcC9JyS0CXAKqNt4GZfUGN_DLBimICjWDmSb_NYEY1ku3Tz9be55FzJAFUQGB7Wp2IVKKoeCifl_8ZIjhBXgBZAvXTbaXnkuV3zddXfcVzF9PG2BbL15hKY3Rf_LNjWTBcakXZUQ92Zfte_wNbOoKlAf6RzmKBN5MeY3AAG_Xgoy3vNWmEqxzH4dNNoKhfZCtWdbQ1hf4sPV3IDdXiF1toG2fZnFCUqoXRnZkl-7p3dC7QEJT5j2034bYanrlboEndl8qTGFDl-9d9HTbtARDPzKIW-7alLfwKARIk4B-GiL-w1WW- -U9yPb74rGdhN55sbgrsxnXko1t05-WLaJTxlToaAYBeuqDgR-Td9Ay0xwxyF2ENMurE5CIjnAtHpQqqb72wxOr0djheGkS4ohSmrWEtiD5jqqzNc_cVJj17RNofqDbyIj6Q5cBllfRrYWV8bdgPDJ4ofCLTMQweuHxgmi6UPUw616F-w84z3I9k4DLdq6mWgE1CHMWnCjrM9E6MpfPXoWJhih2U_jEAmJ5BaFjnVQ4_rH7oToXcNSfYp8kMn3k6fxcrpwwhTVh-7vhqUzCivplRP1QxuOgIIJfKF393vquewvYQfaQkPJBSVQQyJIdTMTTA3YAACwOJA9uAT42A5gyBRstWgL7XQDrGvvb8ghbVACbJwPXYDZcIzRcR-H3UYQswPzWeo5vdKDZA3ovF3JanmyCCgR3aPbbaIp6ErWueCRRooxWQkLRrvfJBf_qV2z7o8IG7d48u-jC1-RMpxfn3nfrdnICNdIDNbqfE4bTKi5mSzBVgSfVheHog_uwdlOown4Js-qABXvTousWdgOl9EenVxTyQQeiV_TSUZOwUDVmeTbIhWXEISTVBOKKj7rGattphObCVBXvfauH8tJVm-pRSjkwchsaxObHprRRlF0KYZL8wMRmdbpoFu3]--></g></svg>