<?xml version="1.0" encoding="us-ascii" standalone="no"?><svg xmlns="http://www.w3.org/2000/svg" xmlns:xlink="http://www.w3.org/1999/xlink" contentStyleType="text/css" height="1364px" preserveAspectRatio="none" style="width:1237px;height:1364px;background:#FFFFFF;" version="1.1" viewBox="0 0 1237 1364" width="1237px" zoomAndPan="magnify"><defs/><g><text fill="#000000" font-family="sans-serif" font-size="14" font-weight="bold" lengthAdjust="spacing" textLength="248" x="493.75" y="29.5332">Sequence Diagram: DELETE Level 3</text><rect fill="#FFFFFF" height="1223.8984" style="stroke:#181818;stroke-width:1.0;" width="10" x="86" y="86.2188"/><rect fill="#FFFFFF" height="394.5703" style="stroke:#181818;stroke-width:1.0;" width="10" x="263" y="108.5703"/><rect fill="#FFFFFF" height="685.5703" style="stroke:#181818;stroke-width:1.0;" width="10" x="263" y="594.1953"/><rect fill="#FFFFFF" height="333.8672" style="stroke:#181818;stroke-width:1.0;" width="10" x="432" y="138.9219"/><rect fill="#FFFFFF" height="624.8672" style="stroke:#181818;stroke-width:1.0;" width="10" x="432" y="624.5469"/><rect fill="#FFFFFF" height="273.1641" style="stroke:#181818;stroke-width:1.0;" width="10" x="562.5" y="169.2734"/><rect fill="#FFFFFF" height="564.1641" style="stroke:#181818;stroke-width:1.0;" width="10" x="562.5" y="654.8984"/><rect fill="#FFFFFF" height="151.7578" style="stroke:#181818;stroke-width:1.0;" width="10" x="679" y="199.625"/><rect fill="#FFFFFF" height="151.7578" style="stroke:#181818;stroke-width:1.0;" width="10" x="679" y="685.25"/><rect fill="#FFFFFF" height="151.7578" style="stroke:#181818;stroke-width:1.0;" width="10" x="679" y="892.7109"/><rect fill="#FFFFFF" height="30.3516" style="stroke:#181818;stroke-width:1.0;" width="10" x="768.5" y="381.7344"/><rect fill="#FFFFFF" height="30.3516" style="stroke:#181818;stroke-width:1.0;" width="10" x="768.5" y="1158.3594"/><rect fill="#FFFFFF" height="91.0547" style="stroke:#181818;stroke-width:1.0;" width="10" x="919.5" y="229.9766"/><rect fill="#FFFFFF" height="91.0547" style="stroke:#181818;stroke-width:1.0;" width="10" x="919.5" y="715.6016"/><rect fill="#FFFFFF" height="91.0547" style="stroke:#181818;stroke-width:1.0;" width="10" x="919.5" y="923.0625"/><rect fill="#FFFFFF" height="30.3516" style="stroke:#181818;stroke-width:1.0;" width="10" x="1095.5" y="260.3281"/><rect fill="#FFFFFF" height="30.3516" style="stroke:#181818;stroke-width:1.0;" width="10" x="1095.5" y="745.9531"/><rect fill="#FFFFFF" height="30.3516" style="stroke:#181818;stroke-width:1.0;" width="10" x="1095.5" y="953.4141"/><rect fill="none" height="277" style="stroke:#000000;stroke-width:1.5;" width="817" x="371.5" y="852.0078"/><line style="stroke:#181818;stroke-width:0.5;stroke-dasharray:5.0,5.0;" x1="91" x2="91" y1="76.2188" y2="1328.1172"/><line style="stroke:#181818;stroke-width:0.5;stroke-dasharray:5.0,5.0;" x1="268" x2="268" y1="76.2188" y2="1328.1172"/><line style="stroke:#181818;stroke-width:0.5;stroke-dasharray:5.0,5.0;" x1="436.5" x2="436.5" y1="76.2188" y2="1328.1172"/><line style="stroke:#181818;stroke-width:0.5;stroke-dasharray:5.0,5.0;" x1="567.5" x2="567.5" y1="76.2188" y2="1328.1172"/><line style="stroke:#181818;stroke-width:0.5;stroke-dasharray:5.0,5.0;" x1="683.5" x2="683.5" y1="76.2188" y2="1328.1172"/><line style="stroke:#181818;stroke-width:0.5;stroke-dasharray:5.0,5.0;" x1="773.5" x2="773.5" y1="76.2188" y2="1328.1172"/><line style="stroke:#181818;stroke-width:0.5;stroke-dasharray:5.0,5.0;" x1="845.5" x2="845.5" y1="76.2188" y2="1328.1172"/><line style="stroke:#181818;stroke-width:0.5;stroke-dasharray:5.0,5.0;" x1="924.5" x2="924.5" y1="76.2188" y2="1328.1172"/><line style="stroke:#181818;stroke-width:0.5;stroke-dasharray:5.0,5.0;" x1="1100.5" x2="1100.5" y1="76.2188" y2="1328.1172"/><line style="stroke:#181818;stroke-width:0.5;stroke-dasharray:5.0,5.0;" x1="1209.5" x2="1209.5" y1="76.2188" y2="1328.1172"/><rect fill="#E3E3E3" height="31.6094" rx="2.5" ry="2.5" style="stroke:#181818;stroke-width:0.5;" width="172" x="5" y="43.6094"/><text fill="#000000" font-family="sans-serif" font-size="14" lengthAdjust="spacing" textLength="158" x="12" y="65.1426">Frontend (React, Refine)</text><rect fill="#E3E3E3" height="31.6094" rx="2.5" ry="2.5" style="stroke:#181818;stroke-width:0.5;" width="172" x="5" y="1327.1172"/><text fill="#000000" font-family="sans-serif" font-size="14" lengthAdjust="spacing" textLength="158" x="12" y="1348.6504">Frontend (React, Refine)</text><rect fill="#E3E3E3" height="31.6094" rx="2.5" ry="2.5" style="stroke:#181818;stroke-width:0.5;" width="162" x="187" y="43.6094"/><text fill="#000000" font-family="sans-serif" font-size="14" lengthAdjust="spacing" textLength="148" x="194" y="65.1426">EnergyManagementAPI</text><rect fill="#E3E3E3" height="31.6094" rx="2.5" ry="2.5" style="stroke:#181818;stroke-width:0.5;" width="162" x="187" y="1327.1172"/><text fill="#000000" font-family="sans-serif" font-size="14" lengthAdjust="spacing" textLength="148" x="194" y="1348.6504">EnergyManagementAPI</text><rect fill="#E3E3E3" height="31.6094" rx="2.5" ry="2.5" style="stroke:#181818;stroke-width:0.5;" width="111" x="381.5" y="43.6094"/><text fill="#000000" font-family="sans-serif" font-size="14" lengthAdjust="spacing" textLength="97" x="388.5" y="65.1426">EntityController</text><rect fill="#E3E3E3" height="31.6094" rx="2.5" ry="2.5" style="stroke:#181818;stroke-width:0.5;" width="111" x="381.5" y="1327.1172"/><text fill="#000000" font-family="sans-serif" font-size="14" lengthAdjust="spacing" textLength="97" x="388.5" y="1348.6504">EntityController</text><rect fill="#E3E3E3" height="31.6094" rx="2.5" ry="2.5" style="stroke:#181818;stroke-width:0.5;" width="130" x="502.5" y="43.6094"/><text fill="#000000" font-family="sans-serif" font-size="14" lengthAdjust="spacing" textLength="116" x="509.5" y="65.1426">ApplicationService</text><rect fill="#E3E3E3" height="31.6094" rx="2.5" ry="2.5" style="stroke:#181818;stroke-width:0.5;" width="130" x="502.5" y="1327.1172"/><text fill="#000000" font-family="sans-serif" font-size="14" lengthAdjust="spacing" textLength="116" x="509.5" y="1348.6504">ApplicationService</text><rect fill="#E3E3E3" height="31.6094" rx="2.5" ry="2.5" style="stroke:#181818;stroke-width:0.5;" width="83" x="642.5" y="43.6094"/><text fill="#000000" font-family="sans-serif" font-size="14" lengthAdjust="spacing" textLength="69" x="649.5" y="65.1426">EntityRepo</text><rect fill="#E3E3E3" height="31.6094" rx="2.5" ry="2.5" style="stroke:#181818;stroke-width:0.5;" width="83" x="642.5" y="1327.1172"/><text fill="#000000" font-family="sans-serif" font-size="14" lengthAdjust="spacing" textLength="69" x="649.5" y="1348.6504">EntityRepo</text><rect fill="#E3E3E3" height="31.6094" rx="2.5" ry="2.5" style="stroke:#181818;stroke-width:0.5;" width="76" x="735.5" y="43.6094"/><text fill="#000000" font-family="sans-serif" font-size="14" lengthAdjust="spacing" textLength="62" x="742.5" y="65.1426">EntityMap</text><rect fill="#E3E3E3" height="31.6094" rx="2.5" ry="2.5" style="stroke:#181818;stroke-width:0.5;" width="76" x="735.5" y="1327.1172"/><text fill="#000000" font-family="sans-serif" font-size="14" lengthAdjust="spacing" textLength="62" x="742.5" y="1348.6504">EntityMap</text><rect fill="#E3E3E3" height="31.6094" rx="2.5" ry="2.5" style="stroke:#181818;stroke-width:0.5;" width="49" x="821.5" y="43.6094"/><text fill="#000000" font-family="sans-serif" font-size="14" lengthAdjust="spacing" textLength="35" x="828.5" y="65.1426">Entity</text><rect fill="#E3E3E3" height="31.6094" rx="2.5" ry="2.5" style="stroke:#181818;stroke-width:0.5;" width="49" x="821.5" y="1327.1172"/><text fill="#000000" font-family="sans-serif" font-size="14" lengthAdjust="spacing" textLength="35" x="828.5" y="1348.6504">Entity</text><rect fill="#E3E3E3" height="31.6094" rx="2.5" ry="2.5" style="stroke:#181818;stroke-width:0.5;" width="88" x="880.5" y="43.6094"/><text fill="#000000" font-family="sans-serif" font-size="14" lengthAdjust="spacing" textLength="74" x="887.5" y="65.1426">Persistence</text><rect fill="#E3E3E3" height="31.6094" rx="2.5" ry="2.5" style="stroke:#181818;stroke-width:0.5;" width="88" x="880.5" y="1327.1172"/><text fill="#000000" font-family="sans-serif" font-size="14" lengthAdjust="spacing" textLength="74" x="887.5" y="1348.6504">Persistence</text><rect fill="#E3E3E3" height="31.6094" rx="2.5" ry="2.5" style="stroke:#181818;stroke-width:0.5;" width="156" x="1022.5" y="43.6094"/><text fill="#000000" font-family="sans-serif" font-size="14" lengthAdjust="spacing" textLength="142" x="1029.5" y="65.1426">PostgreSQL Database</text><rect fill="#E3E3E3" height="31.6094" rx="2.5" ry="2.5" style="stroke:#181818;stroke-width:0.5;" width="156" x="1022.5" y="1327.1172"/><text fill="#000000" font-family="sans-serif" font-size="14" lengthAdjust="spacing" textLength="142" x="1029.5" y="1348.6504">PostgreSQL Database</text><rect fill="#E3E3E3" height="31.6094" rx="2.5" ry="2.5" style="stroke:#181818;stroke-width:0.5;" width="43" x="1188.5" y="43.6094"/><text fill="#000000" font-family="sans-serif" font-size="14" lengthAdjust="spacing" textLength="29" x="1195.5" y="65.1426">User</text><rect fill="#E3E3E3" height="31.6094" rx="2.5" ry="2.5" style="stroke:#181818;stroke-width:0.5;" width="43" x="1188.5" y="1327.1172"/><text fill="#000000" font-family="sans-serif" font-size="14" lengthAdjust="spacing" textLength="29" x="1195.5" y="1348.6504">User</text><rect fill="#FFFFFF" height="1223.8984" style="stroke:#181818;stroke-width:1.0;" width="10" x="86" y="86.2188"/><rect fill="#FFFFFF" height="394.5703" style="stroke:#181818;stroke-width:1.0;" width="10" x="263" y="108.5703"/><rect fill="#FFFFFF" height="685.5703" style="stroke:#181818;stroke-width:1.0;" width="10" x="263" y="594.1953"/><rect fill="#FFFFFF" height="333.8672" style="stroke:#181818;stroke-width:1.0;" width="10" x="432" y="138.9219"/><rect fill="#FFFFFF" height="624.8672" style="stroke:#181818;stroke-width:1.0;" width="10" x="432" y="624.5469"/><rect fill="#FFFFFF" height="273.1641" style="stroke:#181818;stroke-width:1.0;" width="10" x="562.5" y="169.2734"/><rect fill="#FFFFFF" height="564.1641" style="stroke:#181818;stroke-width:1.0;" width="10" x="562.5" y="654.8984"/><rect fill="#FFFFFF" height="151.7578" style="stroke:#181818;stroke-width:1.0;" width="10" x="679" y="199.625"/><rect fill="#FFFFFF" height="151.7578" style="stroke:#181818;stroke-width:1.0;" width="10" x="679" y="685.25"/><rect fill="#FFFFFF" height="151.7578" style="stroke:#181818;stroke-width:1.0;" width="10" x="679" y="892.7109"/><rect fill="#FFFFFF" height="30.3516" style="stroke:#181818;stroke-width:1.0;" width="10" x="768.5" y="381.7344"/><rect fill="#FFFFFF" height="30.3516" style="stroke:#181818;stroke-width:1.0;" width="10" x="768.5" y="1158.3594"/><rect fill="#FFFFFF" height="91.0547" style="stroke:#181818;stroke-width:1.0;" width="10" x="919.5" y="229.9766"/><rect fill="#FFFFFF" height="91.0547" style="stroke:#181818;stroke-width:1.0;" width="10" x="919.5" y="715.6016"/><rect fill="#FFFFFF" height="91.0547" style="stroke:#181818;stroke-width:1.0;" width="10" x="919.5" y="923.0625"/><rect fill="#FFFFFF" height="30.3516" style="stroke:#181818;stroke-width:1.0;" width="10" x="1095.5" y="260.3281"/><rect fill="#FFFFFF" height="30.3516" style="stroke:#181818;stroke-width:1.0;" width="10" x="1095.5" y="745.9531"/><rect fill="#FFFFFF" height="30.3516" style="stroke:#181818;stroke-width:1.0;" width="10" x="1095.5" y="953.4141"/><polygon fill="#181818" points="251,104.5703,261,108.5703,251,112.5703,255,108.5703" style="stroke:#181818;stroke-width:1.0;"/><line style="stroke:#181818;stroke-width:1.0;" x1="96" x2="257" y1="108.5703" y2="108.5703"/><text fill="#000000" font-family="sans-serif" font-size="13" lengthAdjust="spacing" textLength="76" x="103" y="103.7139">GET /entities</text><polygon fill="#181818" points="420,134.9219,430,138.9219,420,142.9219,424,138.9219" style="stroke:#181818;stroke-width:1.0;"/><line style="stroke:#181818;stroke-width:1.0;" x1="273" x2="426" y1="138.9219" y2="138.9219"/><text fill="#000000" font-family="sans-serif" font-size="13" lengthAdjust="spacing" textLength="26" x="280" y="134.0654">GET</text><polygon fill="#181818" points="550.5,165.2734,560.5,169.2734,550.5,173.2734,554.5,169.2734" style="stroke:#181818;stroke-width:1.0;"/><line style="stroke:#181818;stroke-width:1.0;" x1="442" x2="556.5" y1="169.2734" y2="169.2734"/><text fill="#000000" font-family="sans-serif" font-size="13" lengthAdjust="spacing" textLength="70" x="449" y="164.417">getEntities()</text><polygon fill="#181818" points="667,195.625,677,199.625,667,203.625,671,199.625" style="stroke:#181818;stroke-width:1.0;"/><line style="stroke:#181818;stroke-width:1.0;" x1="572.5" x2="673" y1="199.625" y2="199.625"/><text fill="#000000" font-family="sans-serif" font-size="13" lengthAdjust="spacing" textLength="80" x="579.5" y="194.7686">fetchEntities()</text><polygon fill="#181818" points="907.5,225.9766,917.5,229.9766,907.5,233.9766,911.5,229.9766" style="stroke:#181818;stroke-width:1.0;"/><line style="stroke:#181818;stroke-width:1.0;" x1="689" x2="913.5" y1="229.9766" y2="229.9766"/><text fill="#000000" font-family="sans-serif" font-size="13" lengthAdjust="spacing" textLength="92" x="696" y="225.1201">Query entity list</text><polygon fill="#181818" points="1083.5,256.3281,1093.5,260.3281,1083.5,264.3281,1087.5,260.3281" style="stroke:#181818;stroke-width:1.0;"/><line style="stroke:#181818;stroke-width:1.0;" x1="929.5" x2="1089.5" y1="260.3281" y2="260.3281"/><text fill="#000000" font-family="sans-serif" font-size="13" lengthAdjust="spacing" textLength="120" x="936.5" y="255.4717">Select entity records</text><polygon fill="#181818" points="940.5,286.6797,930.5,290.6797,940.5,294.6797,936.5,290.6797" style="stroke:#181818;stroke-width:1.0;"/><line style="stroke:#181818;stroke-width:1.0;stroke-dasharray:2.0,2.0;" x1="934.5" x2="1099.5" y1="290.6797" y2="290.6797"/><text fill="#000000" font-family="sans-serif" font-size="13" lengthAdjust="spacing" textLength="95" x="946.5" y="285.8232">Return entity list</text><polygon fill="#181818" points="700,317.0313,690,321.0313,700,325.0313,696,321.0313" style="stroke:#181818;stroke-width:1.0;"/><line style="stroke:#181818;stroke-width:1.0;stroke-dasharray:2.0,2.0;" x1="694" x2="923.5" y1="321.0313" y2="321.0313"/><text fill="#000000" font-family="sans-serif" font-size="13" lengthAdjust="spacing" textLength="84" x="706" y="316.1748">Return entities</text><polygon fill="#181818" points="583.5,347.3828,573.5,351.3828,583.5,355.3828,579.5,351.3828" style="stroke:#181818;stroke-width:1.0;"/><line style="stroke:#181818;stroke-width:1.0;stroke-dasharray:2.0,2.0;" x1="577.5" x2="683" y1="351.3828" y2="351.3828"/><text fill="#000000" font-family="sans-serif" font-size="13" lengthAdjust="spacing" textLength="42" x="589.5" y="346.5264">entities</text><polygon fill="#181818" points="756.5,377.7344,766.5,381.7344,756.5,385.7344,760.5,381.7344" style="stroke:#181818;stroke-width:1.0;"/><line style="stroke:#181818;stroke-width:1.0;" x1="572.5" x2="762.5" y1="381.7344" y2="381.7344"/><text fill="#000000" font-family="sans-serif" font-size="13" lengthAdjust="spacing" textLength="87" x="579.5" y="376.8779">toDTO(entities)</text><polygon fill="#181818" points="583.5,408.0859,573.5,412.0859,583.5,416.0859,579.5,412.0859" style="stroke:#181818;stroke-width:1.0;"/><line style="stroke:#181818;stroke-width:1.0;" x1="577.5" x2="772.5" y1="412.0859" y2="412.0859"/><text fill="#000000" font-family="sans-serif" font-size="13" lengthAdjust="spacing" textLength="68" x="589.5" y="407.2295">entitiesDTO</text><polygon fill="#181818" points="453,438.4375,443,442.4375,453,446.4375,449,442.4375" style="stroke:#181818;stroke-width:1.0;"/><line style="stroke:#181818;stroke-width:1.0;" x1="447" x2="566.5" y1="442.4375" y2="442.4375"/><text fill="#000000" font-family="sans-serif" font-size="13" lengthAdjust="spacing" textLength="68" x="459" y="437.5811">entitiesDTO</text><polygon fill="#181818" points="284,468.7891,274,472.7891,284,476.7891,280,472.7891" style="stroke:#181818;stroke-width:1.0;"/><line style="stroke:#181818;stroke-width:1.0;" x1="278" x2="436" y1="472.7891" y2="472.7891"/><text fill="#000000" font-family="sans-serif" font-size="13" lengthAdjust="spacing" textLength="95" x="290" y="467.9326">Status code 200</text><polygon fill="#181818" points="107,499.1406,97,503.1406,107,507.1406,103,503.1406" style="stroke:#181818;stroke-width:1.0;"/><line style="stroke:#181818;stroke-width:1.0;" x1="101" x2="267" y1="503.1406" y2="503.1406"/><text fill="#000000" font-family="sans-serif" font-size="13" lengthAdjust="spacing" textLength="135" x="113" y="498.2842">Success with entity list</text><polygon fill="#181818" points="1224.5,529.4922,1234.5,533.4922,1224.5,537.4922,1228.5,533.4922" style="stroke:#181818;stroke-width:1.0;"/><line style="stroke:#181818;stroke-width:1.0;stroke-dasharray:2.0,2.0;" x1="96" x2="1230.5" y1="533.4922" y2="533.4922"/><text fill="#000000" font-family="sans-serif" font-size="13" lengthAdjust="spacing" textLength="100" x="103" y="528.6357">Display entity list</text><polygon fill="#181818" points="107,559.8438,97,563.8438,107,567.8438,103,563.8438" style="stroke:#181818;stroke-width:1.0;"/><line style="stroke:#181818;stroke-width:1.0;" x1="101" x2="1209" y1="563.8438" y2="563.8438"/><text fill="#000000" font-family="sans-serif" font-size="13" lengthAdjust="spacing" textLength="102" x="113" y="558.9873">Selects entity {id}</text><polygon fill="#181818" points="251,590.1953,261,594.1953,251,598.1953,255,594.1953" style="stroke:#181818;stroke-width:1.0;"/><line style="stroke:#181818;stroke-width:1.0;" x1="96" x2="257" y1="594.1953" y2="594.1953"/><text fill="#000000" font-family="sans-serif" font-size="13" lengthAdjust="spacing" textLength="112" x="103" y="589.3389">DELETE /entity/{id}</text><polygon fill="#181818" points="420,620.5469,430,624.5469,420,628.5469,424,624.5469" style="stroke:#181818;stroke-width:1.0;"/><line style="stroke:#181818;stroke-width:1.0;" x1="273" x2="426" y1="624.5469" y2="624.5469"/><text fill="#000000" font-family="sans-serif" font-size="13" lengthAdjust="spacing" textLength="50" x="280" y="619.6904">DELETE</text><polygon fill="#181818" points="550.5,650.8984,560.5,654.8984,550.5,658.8984,554.5,654.8984" style="stroke:#181818;stroke-width:1.0;"/><line style="stroke:#181818;stroke-width:1.0;" x1="442" x2="556.5" y1="654.8984" y2="654.8984"/><text fill="#000000" font-family="sans-serif" font-size="13" lengthAdjust="spacing" textLength="87" x="449" y="650.042">deleteEntity(id)</text><polygon fill="#181818" points="667,681.25,677,685.25,667,689.25,671,685.25" style="stroke:#181818;stroke-width:1.0;"/><line style="stroke:#181818;stroke-width:1.0;" x1="572.5" x2="673" y1="685.25" y2="685.25"/><text fill="#000000" font-family="sans-serif" font-size="13" lengthAdjust="spacing" textLength="80" x="579.5" y="680.3936">fetchEntity(id)</text><polygon fill="#181818" points="907.5,711.6016,917.5,715.6016,907.5,719.6016,911.5,715.6016" style="stroke:#181818;stroke-width:1.0;"/><line style="stroke:#181818;stroke-width:1.0;" x1="689" x2="913.5" y1="715.6016" y2="715.6016"/><text fill="#000000" font-family="sans-serif" font-size="13" lengthAdjust="spacing" textLength="100" x="696" y="710.7451">Query entity data</text><polygon fill="#181818" points="1083.5,741.9531,1093.5,745.9531,1083.5,749.9531,1087.5,745.9531" style="stroke:#181818;stroke-width:1.0;"/><line style="stroke:#181818;stroke-width:1.0;" x1="929.5" x2="1089.5" y1="745.9531" y2="745.9531"/><text fill="#000000" font-family="sans-serif" font-size="13" lengthAdjust="spacing" textLength="113" x="936.5" y="741.0967">Select entity record</text><polygon fill="#181818" points="940.5,772.3047,930.5,776.3047,940.5,780.3047,936.5,776.3047" style="stroke:#181818;stroke-width:1.0;"/><line style="stroke:#181818;stroke-width:1.0;stroke-dasharray:2.0,2.0;" x1="934.5" x2="1099.5" y1="776.3047" y2="776.3047"/><text fill="#000000" font-family="sans-serif" font-size="13" lengthAdjust="spacing" textLength="142" x="946.5" y="771.4482">Return entity data or null</text><polygon fill="#181818" points="700,802.6563,690,806.6563,700,810.6563,696,806.6563" style="stroke:#181818;stroke-width:1.0;"/><line style="stroke:#181818;stroke-width:1.0;stroke-dasharray:2.0,2.0;" x1="694" x2="923.5" y1="806.6563" y2="806.6563"/><text fill="#000000" font-family="sans-serif" font-size="13" lengthAdjust="spacing" textLength="113" x="706" y="801.7998">Return entity or null</text><polygon fill="#181818" points="583.5,833.0078,573.5,837.0078,583.5,841.0078,579.5,837.0078" style="stroke:#181818;stroke-width:1.0;"/><line style="stroke:#181818;stroke-width:1.0;stroke-dasharray:2.0,2.0;" x1="577.5" x2="683" y1="837.0078" y2="837.0078"/><text fill="#000000" font-family="sans-serif" font-size="13" lengthAdjust="spacing" textLength="71" x="589.5" y="832.1514">entity or null</text><path d="M371.5,852.0078 L432.5,852.0078 L432.5,860.3594 L422.5,870.3594 L371.5,870.3594 L371.5,852.0078 " fill="#EEEEEE" style="stroke:#000000;stroke-width:1.5;"/><rect fill="none" height="277" style="stroke:#000000;stroke-width:1.5;" width="817" x="371.5" y="852.0078"/><text fill="#000000" font-family="sans-serif" font-size="13" font-weight="bold" lengthAdjust="spacing" textLength="16" x="386.5" y="866.5029">alt</text><text fill="#000000" font-family="sans-serif" font-size="11" font-weight="bold" lengthAdjust="spacing" textLength="76" x="447.5" y="865.4268">[entity exists]</text><polygon fill="#181818" points="667,888.7109,677,892.7109,667,896.7109,671,892.7109" style="stroke:#181818;stroke-width:1.0;"/><line style="stroke:#181818;stroke-width:1.0;" x1="572.5" x2="673" y1="892.7109" y2="892.7109"/><text fill="#000000" font-family="sans-serif" font-size="13" lengthAdjust="spacing" textLength="53" x="579.5" y="887.8545">delete(id)</text><polygon fill="#181818" points="907.5,919.0625,917.5,923.0625,907.5,927.0625,911.5,923.0625" style="stroke:#181818;stroke-width:1.0;"/><line style="stroke:#181818;stroke-width:1.0;" x1="689" x2="913.5" y1="923.0625" y2="923.0625"/><text fill="#000000" font-family="sans-serif" font-size="13" lengthAdjust="spacing" textLength="102" x="696" y="918.2061">Delete entity data</text><polygon fill="#181818" points="1083.5,949.4141,1093.5,953.4141,1083.5,957.4141,1087.5,953.4141" style="stroke:#181818;stroke-width:1.0;"/><line style="stroke:#181818;stroke-width:1.0;" x1="929.5" x2="1089.5" y1="953.4141" y2="953.4141"/><text fill="#000000" font-family="sans-serif" font-size="13" lengthAdjust="spacing" textLength="113" x="936.5" y="948.5576">Delete entity record</text><polygon fill="#181818" points="940.5,979.7656,930.5,983.7656,940.5,987.7656,936.5,983.7656" style="stroke:#181818;stroke-width:1.0;"/><line style="stroke:#181818;stroke-width:1.0;stroke-dasharray:2.0,2.0;" x1="934.5" x2="1099.5" y1="983.7656" y2="983.7656"/><text fill="#000000" font-family="sans-serif" font-size="13" lengthAdjust="spacing" textLength="93" x="946.5" y="978.9092">Confirm deletion</text><polygon fill="#181818" points="700,1010.1172,690,1014.1172,700,1018.1172,696,1014.1172" style="stroke:#181818;stroke-width:1.0;"/><line style="stroke:#181818;stroke-width:1.0;stroke-dasharray:2.0,2.0;" x1="694" x2="923.5" y1="1014.1172" y2="1014.1172"/><text fill="#000000" font-family="sans-serif" font-size="13" lengthAdjust="spacing" textLength="91" x="706" y="1009.2607">Return success</text><polygon fill="#181818" points="583.5,1040.4688,573.5,1044.4688,583.5,1048.4688,579.5,1044.4688" style="stroke:#181818;stroke-width:1.0;"/><line style="stroke:#181818;stroke-width:1.0;stroke-dasharray:2.0,2.0;" x1="577.5" x2="683" y1="1044.4688" y2="1044.4688"/><text fill="#000000" font-family="sans-serif" font-size="13" lengthAdjust="spacing" textLength="51" x="589.5" y="1039.6123">Success</text><polygon fill="#181818" points="453,1070.8203,443,1074.8203,453,1078.8203,449,1074.8203" style="stroke:#181818;stroke-width:1.0;"/><line style="stroke:#181818;stroke-width:1.0;" x1="447" x2="561.5" y1="1074.8203" y2="1074.8203"/><text fill="#000000" font-family="sans-serif" font-size="13" lengthAdjust="spacing" textLength="51" x="459" y="1069.9639">Success</text><line style="stroke:#000000;stroke-width:1.0;stroke-dasharray:2.0,2.0;" x1="371.5" x2="1188.5" y1="1083.8203" y2="1083.8203"/><text fill="#000000" font-family="sans-serif" font-size="11" font-weight="bold" lengthAdjust="spacing" textLength="121" x="376.5" y="1095.2393">[entity does not exist]</text><polygon fill="#181818" points="453,1117.0078,443,1121.0078,453,1125.0078,449,1121.0078" style="stroke:#181818;stroke-width:1.0;"/><line style="stroke:#181818;stroke-width:1.0;" x1="447" x2="561.5" y1="1121.0078" y2="1121.0078"/><text fill="#000000" font-family="sans-serif" font-size="13" lengthAdjust="spacing" textLength="28" x="459" y="1116.1514">Error</text><polygon fill="#181818" points="756.5,1154.3594,766.5,1158.3594,756.5,1162.3594,760.5,1158.3594" style="stroke:#181818;stroke-width:1.0;"/><line style="stroke:#181818;stroke-width:1.0;" x1="572.5" x2="762.5" y1="1158.3594" y2="1158.3594"/><text fill="#000000" font-family="sans-serif" font-size="13" lengthAdjust="spacing" textLength="77" x="579.5" y="1153.5029">toDTO(result)</text><polygon fill="#181818" points="583.5,1184.7109,573.5,1188.7109,583.5,1192.7109,579.5,1188.7109" style="stroke:#181818;stroke-width:1.0;"/><line style="stroke:#181818;stroke-width:1.0;" x1="577.5" x2="772.5" y1="1188.7109" y2="1188.7109"/><text fill="#000000" font-family="sans-serif" font-size="13" lengthAdjust="spacing" textLength="58" x="589.5" y="1183.8545">resultDTO</text><polygon fill="#181818" points="453,1215.0625,443,1219.0625,453,1223.0625,449,1219.0625" style="stroke:#181818;stroke-width:1.0;"/><line style="stroke:#181818;stroke-width:1.0;" x1="447" x2="566.5" y1="1219.0625" y2="1219.0625"/><text fill="#000000" font-family="sans-serif" font-size="13" lengthAdjust="spacing" textLength="58" x="459" y="1214.2061">resultDTO</text><polygon fill="#181818" points="284,1245.4141,274,1249.4141,284,1253.4141,280,1249.4141" style="stroke:#181818;stroke-width:1.0;"/><line style="stroke:#181818;stroke-width:1.0;" x1="278" x2="436" y1="1249.4141" y2="1249.4141"/><text fill="#000000" font-family="sans-serif" font-size="13" lengthAdjust="spacing" textLength="135" x="290" y="1244.5576">Status code 200 or 404</text><polygon fill="#181818" points="107,1275.7656,97,1279.7656,107,1283.7656,103,1279.7656" style="stroke:#181818;stroke-width:1.0;"/><line style="stroke:#181818;stroke-width:1.0;" x1="101" x2="267" y1="1279.7656" y2="1279.7656"/><text fill="#000000" font-family="sans-serif" font-size="13" lengthAdjust="spacing" textLength="96" x="113" y="1274.9092">Success or error</text><polygon fill="#181818" points="1224.5,1306.1172,1234.5,1310.1172,1224.5,1314.1172,1228.5,1310.1172" style="stroke:#181818;stroke-width:1.0;"/><line style="stroke:#181818;stroke-width:1.0;stroke-dasharray:2.0,2.0;" x1="91" x2="1230.5" y1="1310.1172" y2="1310.1172"/><text fill="#000000" font-family="sans-serif" font-size="13" lengthAdjust="spacing" textLength="141" x="98" y="1305.2607">Display success or error</text><!--SRC=[bPNVRfim5CRlUOgZNgNIfbPRhtengHricjHgQUWUm8CJOjMncMtQeMdllcER13ibpOWKySU_xt3y-SEO9ovRfjaMxfLKrKQhBOBL7MPcFx9arHDhiBIzGD1OMIOR4GFbXjNgXSi6ramOp3BBBQ4b_kfGLWWvPmrnrv0NTyLZ0NVuZ08-PXd9BQzuowI5iozQIOkoXiKAMMNVmGhNNEBv6J03vV8cfGk9kkdlcQJEjYZjpVAR1-bu258t_MUghPKGg3qrNgRmJTiANZ7BbInHF_CAmzF3-LJX5RRAC-va2hXdhH-duzIm7mkdwV0IjU76EWCzuwuF26Liex5yk8ESMVQJcK3cjrb61l9dPj4RHtzu_ybP0zVmjNY42tGFv6X6pldc0E96Sm8-Gf5j4KIImI3Y6xJ5K7nn7hKnEBW3IUCC8y4QRRMPadX3FKImcpt13ntg7dptFGYoPyIzFnuZFBybk4H1OTtH55obwsZ6P1DXxyVYAxITbadr6cCyL1zRZmNEp8ZstOJc4tkcM3_Ho1XA2f5MvO_V5pi-yiK5oI6JTKaJbtPiL3bPsIEItKgb2nooKrfcEmELgX4-N5x6iYWQGunSwaZILHKQ0o_SRevPwxBdCqegsYIuQGLBL_c76N8MQlg5DJlY3w__fXaVzfaGy_x20oUJ7aIpmbvJ8nR3sxlWzSoy7qXEvhscbtnktlyxxguuA0so4s96xFifpPlXdrJukJEnRnv_qwgR3EZtsi7WkZVF0MaHT-V0nDppYOk9phVhxYHkfgh1pKH7rhZhr5MAofhhRMYIFYCUIVqS7_NAKnFUbaFHliC9KyjfoTwCOw__JeVqnTvxez20L3Ru_wQyq5hfZ3xNntOkZQOJzjI-5QWPkzQaOCQUvT9tTNarP-iY1VhPdjoop1iAzo7-1m00]--></g></svg>