<?xml version="1.0" encoding="us-ascii" standalone="no"?><svg xmlns="http://www.w3.org/2000/svg" xmlns:xlink="http://www.w3.org/1999/xlink" contentStyleType="text/css" height="623px" preserveAspectRatio="none" style="width:1080px;height:623px;background:#FFFFFF;" version="1.1" viewBox="0 0 1080 623" width="1080px" zoomAndPan="magnify"><defs/><g><ellipse cx="386.75" cy="20" fill="#222222" rx="10" ry="10" style="stroke:#222222;stroke-width:1.0;"/><polygon fill="#F1F1F1" points="325.25,50,448.25,50,460.25,62,448.25,74,325.25,74,313.25,62,325.25,50" style="stroke:#181818;stroke-width:0.5;"/><text fill="#000000" font-family="sans-serif" font-size="11" lengthAdjust="spacing" textLength="123" x="325.25" y="66.501">Prosumer is out of home?</text><text fill="#000000" font-family="sans-serif" font-size="11" lengthAdjust="spacing" textLength="18" x="295.25" y="59.583">yes</text><text fill="#000000" font-family="sans-serif" font-size="11" lengthAdjust="spacing" textLength="12" x="460.25" y="59.583">no</text><rect fill="#F1F1F1" height="35.0938" rx="12.5" ry="12.5" style="stroke:#181818;stroke-width:0.5;" width="112" x="87.5" y="84"/><text fill="#000000" font-family="sans-serif" font-size="12" lengthAdjust="spacing" textLength="92" x="97.5" y="106.457">produces energy</text><polygon fill="#F1F1F1" points="77,139.0938,210,139.0938,222,152.9297,210,166.7656,77,166.7656,65,152.9297,77,139.0938" style="stroke:#181818;stroke-width:0.5;"/><text fill="#000000" font-family="sans-serif" font-size="11" lengthAdjust="spacing" textLength="130" x="77" y="150.5127">Battery needs energy from</text><text fill="#000000" font-family="sans-serif" font-size="11" lengthAdjust="spacing" textLength="114" x="80" y="164.3486">the photovoltaic  panel?</text><text fill="#000000" font-family="sans-serif" font-size="11" lengthAdjust="spacing" textLength="18" x="47" y="150.5127">yes</text><text fill="#000000" font-family="sans-serif" font-size="11" lengthAdjust="spacing" textLength="12" x="222" y="150.5127">no</text><rect fill="#F1F1F1" height="50.1875" rx="12.5" ry="12.5" style="stroke:#181818;stroke-width:0.5;" width="69" x="11" y="176.7656"/><text fill="#000000" font-family="sans-serif" font-size="12" lengthAdjust="spacing" textLength="46" x="21" y="199.2227">Process</text><text fill="#000000" font-family="sans-serif" font-size="12" lengthAdjust="spacing" textLength="35" x="24" y="214.3164">ended</text><rect fill="#F1F1F1" height="50.1875" rx="12.5" ry="12.5" style="stroke:#181818;stroke-width:0.5;" width="151" x="166" y="176.7656"/><text fill="#000000" font-family="sans-serif" font-size="12" lengthAdjust="spacing" textLength="128" x="176" y="199.2227">is going to send energy</text><text fill="#000000" font-family="sans-serif" font-size="12" lengthAdjust="spacing" textLength="93" x="179" y="214.3164">to the community</text><polygon fill="#F1F1F1" points="166.5,250.625,316.5,250.625,328.5,264.4609,316.5,278.2969,166.5,278.2969,154.5,264.4609,166.5,250.625" style="stroke:#181818;stroke-width:0.5;"/><text fill="#000000" font-family="sans-serif" font-size="11" lengthAdjust="spacing" textLength="147" x="166.5" y="262.0439">Community needs energy from</text><text fill="#000000" font-family="sans-serif" font-size="11" lengthAdjust="spacing" textLength="111" x="169.5" y="275.8799">the photovoltaic panel?</text><text fill="#000000" font-family="sans-serif" font-size="11" lengthAdjust="spacing" textLength="18" x="136.5" y="262.0439">yes</text><text fill="#000000" font-family="sans-serif" font-size="11" lengthAdjust="spacing" textLength="12" x="328.5" y="262.0439">no</text><rect fill="#F1F1F1" height="50.1875" rx="12.5" ry="12.5" style="stroke:#181818;stroke-width:0.5;" width="69" x="110" y="288.2969"/><text fill="#000000" font-family="sans-serif" font-size="12" lengthAdjust="spacing" textLength="46" x="120" y="310.7539">Process</text><text fill="#000000" font-family="sans-serif" font-size="12" lengthAdjust="spacing" textLength="35" x="123" y="325.8477">ended</text><rect fill="#F1F1F1" height="50.1875" rx="12.5" ry="12.5" style="stroke:#181818;stroke-width:0.5;" width="159" x="259" y="288.2969"/><text fill="#000000" font-family="sans-serif" font-size="12" lengthAdjust="spacing" textLength="87" x="272" y="310.7539">sells the energy</text><text fill="#000000" font-family="sans-serif" font-size="12" lengthAdjust="spacing" textLength="136" x="272" y="325.8477">to the grid, ends process</text><polygon fill="#F1F1F1" points="241.5,344.4844,253.5,356.4844,241.5,368.4844,229.5,356.4844,241.5,344.4844" style="stroke:#181818;stroke-width:0.5;"/><polygon fill="#F1F1F1" points="143.5,374.4844,155.5,386.4844,143.5,398.4844,131.5,386.4844,143.5,374.4844" style="stroke:#181818;stroke-width:0.5;"/><rect fill="#F1F1F1" height="35.0938" rx="12.5" ry="12.5" style="stroke:#181818;stroke-width:0.5;" width="125" x="567.5" y="84"/><text fill="#000000" font-family="sans-serif" font-size="12" lengthAdjust="spacing" textLength="99" x="580.5" y="106.457">consumes energy</text><polygon fill="#F1F1F1" points="524.5,139.0938,735.5,139.0938,747.5,151.0938,735.5,163.0938,524.5,163.0938,512.5,151.0938,524.5,139.0938" style="stroke:#181818;stroke-width:0.5;"/><text fill="#000000" font-family="sans-serif" font-size="11" lengthAdjust="spacing" textLength="211" x="524.5" y="155.5947">Photovoltaic panel is giving enough energy?</text><text fill="#000000" font-family="sans-serif" font-size="11" lengthAdjust="spacing" textLength="18" x="494.5" y="148.6768">yes</text><text fill="#000000" font-family="sans-serif" font-size="11" lengthAdjust="spacing" textLength="12" x="747.5" y="148.6768">no</text><rect fill="#F1F1F1" height="50.1875" rx="12.5" ry="12.5" style="stroke:#181818;stroke-width:0.5;" width="69" x="468" y="173.0938"/><text fill="#000000" font-family="sans-serif" font-size="12" lengthAdjust="spacing" textLength="46" x="478" y="195.5508">Process</text><text fill="#000000" font-family="sans-serif" font-size="12" lengthAdjust="spacing" textLength="35" x="481" y="210.6445">ended</text><rect fill="#F1F1F1" height="50.1875" rx="12.5" ry="12.5" style="stroke:#181818;stroke-width:0.5;" width="136" x="689.5" y="173.0938"/><text fill="#000000" font-family="sans-serif" font-size="12" lengthAdjust="spacing" textLength="102" x="699.5" y="195.5508">is going to request</text><text fill="#000000" font-family="sans-serif" font-size="12" lengthAdjust="spacing" textLength="113" x="702.5" y="210.6445">the battery for energy</text><polygon fill="#F1F1F1" points="671,246.9531,844,246.9531,856,258.9531,844,270.9531,671,270.9531,659,258.9531,671,246.9531" style="stroke:#181818;stroke-width:0.5;"/><text fill="#000000" font-family="sans-serif" font-size="11" lengthAdjust="spacing" textLength="173" x="671" y="263.4541">Battery has enough energy to give?</text><text fill="#000000" font-family="sans-serif" font-size="11" lengthAdjust="spacing" textLength="18" x="641" y="256.5361">yes</text><text fill="#000000" font-family="sans-serif" font-size="11" lengthAdjust="spacing" textLength="12" x="856" y="256.5361">no</text><rect fill="#F1F1F1" height="50.1875" rx="12.5" ry="12.5" style="stroke:#181818;stroke-width:0.5;" width="69" x="614.5" y="280.9531"/><text fill="#000000" font-family="sans-serif" font-size="12" lengthAdjust="spacing" textLength="46" x="624.5" y="303.4102">Process</text><text fill="#000000" font-family="sans-serif" font-size="12" lengthAdjust="spacing" textLength="35" x="627.5" y="318.5039">ended</text><rect fill="#F1F1F1" height="50.1875" rx="12.5" ry="12.5" style="stroke:#181818;stroke-width:0.5;" width="156" x="788" y="280.9531"/><text fill="#000000" font-family="sans-serif" font-size="12" lengthAdjust="spacing" textLength="102" x="801" y="303.4102">is going to request</text><text fill="#000000" font-family="sans-serif" font-size="12" lengthAdjust="spacing" textLength="133" x="801" y="318.5039">energy to the community</text><polygon fill="#F1F1F1" points="771,366.1406,961,366.1406,973,378.1406,961,390.1406,771,390.1406,759,378.1406,771,366.1406" style="stroke:#181818;stroke-width:0.5;"/><text fill="#000000" font-family="sans-serif" font-size="11" lengthAdjust="spacing" textLength="190" x="771" y="382.6416">Community has enough energy to give?</text><text fill="#000000" font-family="sans-serif" font-size="11" lengthAdjust="spacing" textLength="18" x="741" y="375.7236">yes</text><text fill="#000000" font-family="sans-serif" font-size="11" lengthAdjust="spacing" textLength="12" x="973" y="375.7236">no</text><rect fill="#F1F1F1" height="50.1875" rx="12.5" ry="12.5" style="stroke:#181818;stroke-width:0.5;" width="69" x="714.5" y="400.1406"/><text fill="#000000" font-family="sans-serif" font-size="12" lengthAdjust="spacing" textLength="46" x="724.5" y="422.5977">Process</text><text fill="#000000" font-family="sans-serif" font-size="12" lengthAdjust="spacing" textLength="35" x="727.5" y="437.6914">ended</text><rect fill="#F1F1F1" height="50.1875" rx="12.5" ry="12.5" style="stroke:#181818;stroke-width:0.5;" width="173" x="896.5" y="400.1406"/><text fill="#000000" font-family="sans-serif" font-size="12" lengthAdjust="spacing" textLength="147" x="909.5" y="422.5977">is going to buy energy from</text><text fill="#000000" font-family="sans-serif" font-size="12" lengthAdjust="spacing" textLength="123" x="909.5" y="437.6914">the grid, ends process</text><polygon fill="#F1F1F1" points="866,456.3281,878,468.3281,866,480.3281,854,468.3281,866,456.3281" style="stroke:#181818;stroke-width:0.5;"/><polygon fill="#F1F1F1" points="757.5,486.3281,769.5,498.3281,757.5,510.3281,745.5,498.3281,757.5,486.3281" style="stroke:#181818;stroke-width:0.5;"/><polygon fill="#F1F1F1" points="630,516.3281,642,528.3281,630,540.3281,618,528.3281,630,516.3281" style="stroke:#181818;stroke-width:0.5;"/><polygon fill="#F1F1F1" points="386.75,546.3281,398.75,558.3281,386.75,570.3281,374.75,558.3281,386.75,546.3281" style="stroke:#181818;stroke-width:0.5;"/><ellipse cx="386.75" cy="601.3281" fill="none" rx="11" ry="11" style="stroke:#222222;stroke-width:1.0;"/><ellipse cx="386.75" cy="601.3281" fill="#222222" rx="6" ry="6" style="stroke:#222222;stroke-width:1.0;"/><line style="stroke:#181818;stroke-width:1.0;" x1="154.5" x2="144.5" y1="264.4609" y2="264.4609"/><line style="stroke:#181818;stroke-width:1.0;" x1="144.5" x2="144.5" y1="264.4609" y2="288.2969"/><polygon fill="#181818" points="140.5,278.2969,144.5,288.2969,148.5,278.2969,144.5,282.2969" style="stroke:#181818;stroke-width:1.0;"/><line style="stroke:#181818;stroke-width:1.0;" x1="328.5" x2="338.5" y1="264.4609" y2="264.4609"/><line style="stroke:#181818;stroke-width:1.0;" x1="338.5" x2="338.5" y1="264.4609" y2="288.2969"/><polygon fill="#181818" points="334.5,278.2969,338.5,288.2969,342.5,278.2969,338.5,282.2969" style="stroke:#181818;stroke-width:1.0;"/><line style="stroke:#181818;stroke-width:1.0;" x1="144.5" x2="144.5" y1="338.4844" y2="356.4844"/><line style="stroke:#181818;stroke-width:1.0;" x1="144.5" x2="229.5" y1="356.4844" y2="356.4844"/><polygon fill="#181818" points="219.5,352.4844,229.5,356.4844,219.5,360.4844,223.5,356.4844" style="stroke:#181818;stroke-width:1.0;"/><line style="stroke:#181818;stroke-width:1.0;" x1="338.5" x2="338.5" y1="338.4844" y2="356.4844"/><line style="stroke:#181818;stroke-width:1.0;" x1="338.5" x2="253.5" y1="356.4844" y2="356.4844"/><polygon fill="#181818" points="263.5,352.4844,253.5,356.4844,263.5,360.4844,259.5,356.4844" style="stroke:#181818;stroke-width:1.0;"/><line style="stroke:#181818;stroke-width:1.0;" x1="241.5" x2="241.5" y1="226.9531" y2="250.625"/><polygon fill="#181818" points="237.5,240.625,241.5,250.625,245.5,240.625,241.5,244.625" style="stroke:#181818;stroke-width:1.0;"/><line style="stroke:#181818;stroke-width:1.0;" x1="65" x2="45.5" y1="152.9297" y2="152.9297"/><line style="stroke:#181818;stroke-width:1.0;" x1="45.5" x2="45.5" y1="152.9297" y2="176.7656"/><polygon fill="#181818" points="41.5,166.7656,45.5,176.7656,49.5,166.7656,45.5,170.7656" style="stroke:#181818;stroke-width:1.0;"/><line style="stroke:#181818;stroke-width:1.0;" x1="222" x2="241.5" y1="152.9297" y2="152.9297"/><line style="stroke:#181818;stroke-width:1.0;" x1="241.5" x2="241.5" y1="152.9297" y2="176.7656"/><polygon fill="#181818" points="237.5,166.7656,241.5,176.7656,245.5,166.7656,241.5,170.7656" style="stroke:#181818;stroke-width:1.0;"/><line style="stroke:#181818;stroke-width:1.0;" x1="45.5" x2="45.5" y1="226.9531" y2="386.4844"/><line style="stroke:#181818;stroke-width:1.0;" x1="45.5" x2="131.5" y1="386.4844" y2="386.4844"/><polygon fill="#181818" points="121.5,382.4844,131.5,386.4844,121.5,390.4844,125.5,386.4844" style="stroke:#181818;stroke-width:1.0;"/><line style="stroke:#181818;stroke-width:1.0;" x1="241.5" x2="241.5" y1="368.4844" y2="386.4844"/><line style="stroke:#181818;stroke-width:1.0;" x1="241.5" x2="155.5" y1="386.4844" y2="386.4844"/><polygon fill="#181818" points="165.5,382.4844,155.5,386.4844,165.5,390.4844,161.5,386.4844" style="stroke:#181818;stroke-width:1.0;"/><line style="stroke:#181818;stroke-width:1.0;" x1="143.5" x2="143.5" y1="119.0938" y2="139.0938"/><polygon fill="#181818" points="139.5,129.0938,143.5,139.0938,147.5,129.0938,143.5,133.0938" style="stroke:#181818;stroke-width:1.0;"/><line style="stroke:#181818;stroke-width:1.0;" x1="759" x2="749" y1="378.1406" y2="378.1406"/><line style="stroke:#181818;stroke-width:1.0;" x1="749" x2="749" y1="378.1406" y2="400.1406"/><polygon fill="#181818" points="745,390.1406,749,400.1406,753,390.1406,749,394.1406" style="stroke:#181818;stroke-width:1.0;"/><line style="stroke:#181818;stroke-width:1.0;" x1="973" x2="983" y1="378.1406" y2="378.1406"/><line style="stroke:#181818;stroke-width:1.0;" x1="983" x2="983" y1="378.1406" y2="400.1406"/><polygon fill="#181818" points="979,390.1406,983,400.1406,987,390.1406,983,394.1406" style="stroke:#181818;stroke-width:1.0;"/><line style="stroke:#181818;stroke-width:1.0;" x1="749" x2="749" y1="450.3281" y2="468.3281"/><line style="stroke:#181818;stroke-width:1.0;" x1="749" x2="854" y1="468.3281" y2="468.3281"/><polygon fill="#181818" points="844,464.3281,854,468.3281,844,472.3281,848,468.3281" style="stroke:#181818;stroke-width:1.0;"/><line style="stroke:#181818;stroke-width:1.0;" x1="983" x2="983" y1="450.3281" y2="468.3281"/><line style="stroke:#181818;stroke-width:1.0;" x1="983" x2="878" y1="468.3281" y2="468.3281"/><polygon fill="#181818" points="888,464.3281,878,468.3281,888,472.3281,884,468.3281" style="stroke:#181818;stroke-width:1.0;"/><line style="stroke:#181818;stroke-width:1.0;" x1="866" x2="866" y1="331.1406" y2="366.1406"/><polygon fill="#181818" points="862,356.1406,866,366.1406,870,356.1406,866,360.1406" style="stroke:#181818;stroke-width:1.0;"/><line style="stroke:#181818;stroke-width:1.0;" x1="659" x2="649" y1="258.9531" y2="258.9531"/><line style="stroke:#181818;stroke-width:1.0;" x1="649" x2="649" y1="258.9531" y2="280.9531"/><polygon fill="#181818" points="645,270.9531,649,280.9531,653,270.9531,649,274.9531" style="stroke:#181818;stroke-width:1.0;"/><line style="stroke:#181818;stroke-width:1.0;" x1="856" x2="866" y1="258.9531" y2="258.9531"/><line style="stroke:#181818;stroke-width:1.0;" x1="866" x2="866" y1="258.9531" y2="280.9531"/><polygon fill="#181818" points="862,270.9531,866,280.9531,870,270.9531,866,274.9531" style="stroke:#181818;stroke-width:1.0;"/><line style="stroke:#181818;stroke-width:1.0;" x1="649" x2="649" y1="331.1406" y2="498.3281"/><line style="stroke:#181818;stroke-width:1.0;" x1="649" x2="745.5" y1="498.3281" y2="498.3281"/><polygon fill="#181818" points="735.5,494.3281,745.5,498.3281,735.5,502.3281,739.5,498.3281" style="stroke:#181818;stroke-width:1.0;"/><line style="stroke:#181818;stroke-width:1.0;" x1="866" x2="866" y1="480.3281" y2="498.3281"/><line style="stroke:#181818;stroke-width:1.0;" x1="866" x2="769.5" y1="498.3281" y2="498.3281"/><polygon fill="#181818" points="779.5,494.3281,769.5,498.3281,779.5,502.3281,775.5,498.3281" style="stroke:#181818;stroke-width:1.0;"/><line style="stroke:#181818;stroke-width:1.0;" x1="757.5" x2="757.5" y1="223.2813" y2="246.9531"/><polygon fill="#181818" points="753.5,236.9531,757.5,246.9531,761.5,236.9531,757.5,240.9531" style="stroke:#181818;stroke-width:1.0;"/><line style="stroke:#181818;stroke-width:1.0;" x1="512.5" x2="502.5" y1="151.0938" y2="151.0938"/><line style="stroke:#181818;stroke-width:1.0;" x1="502.5" x2="502.5" y1="151.0938" y2="173.0938"/><polygon fill="#181818" points="498.5,163.0938,502.5,173.0938,506.5,163.0938,502.5,167.0938" style="stroke:#181818;stroke-width:1.0;"/><line style="stroke:#181818;stroke-width:1.0;" x1="747.5" x2="757.5" y1="151.0938" y2="151.0938"/><line style="stroke:#181818;stroke-width:1.0;" x1="757.5" x2="757.5" y1="151.0938" y2="173.0938"/><polygon fill="#181818" points="753.5,163.0938,757.5,173.0938,761.5,163.0938,757.5,167.0938" style="stroke:#181818;stroke-width:1.0;"/><line style="stroke:#181818;stroke-width:1.0;" x1="502.5" x2="502.5" y1="223.2813" y2="528.3281"/><line style="stroke:#181818;stroke-width:1.0;" x1="502.5" x2="618" y1="528.3281" y2="528.3281"/><polygon fill="#181818" points="608,524.3281,618,528.3281,608,532.3281,612,528.3281" style="stroke:#181818;stroke-width:1.0;"/><line style="stroke:#181818;stroke-width:1.0;" x1="757.5" x2="757.5" y1="510.3281" y2="528.3281"/><line style="stroke:#181818;stroke-width:1.0;" x1="757.5" x2="642" y1="528.3281" y2="528.3281"/><polygon fill="#181818" points="652,524.3281,642,528.3281,652,532.3281,648,528.3281" style="stroke:#181818;stroke-width:1.0;"/><line style="stroke:#181818;stroke-width:1.0;" x1="630" x2="630" y1="119.0938" y2="139.0938"/><polygon fill="#181818" points="626,129.0938,630,139.0938,634,129.0938,630,133.0938" style="stroke:#181818;stroke-width:1.0;"/><line style="stroke:#181818;stroke-width:1.0;" x1="313.25" x2="143.5" y1="62" y2="62"/><line style="stroke:#181818;stroke-width:1.0;" x1="143.5" x2="143.5" y1="62" y2="84"/><polygon fill="#181818" points="139.5,74,143.5,84,147.5,74,143.5,78" style="stroke:#181818;stroke-width:1.0;"/><line style="stroke:#181818;stroke-width:1.0;" x1="460.25" x2="630" y1="62" y2="62"/><line style="stroke:#181818;stroke-width:1.0;" x1="630" x2="630" y1="62" y2="84"/><polygon fill="#181818" points="626,74,630,84,634,74,630,78" style="stroke:#181818;stroke-width:1.0;"/><line style="stroke:#181818;stroke-width:1.0;" x1="143.5" x2="143.5" y1="398.4844" y2="558.3281"/><line style="stroke:#181818;stroke-width:1.0;" x1="143.5" x2="374.75" y1="558.3281" y2="558.3281"/><polygon fill="#181818" points="364.75,554.3281,374.75,558.3281,364.75,562.3281,368.75,558.3281" style="stroke:#181818;stroke-width:1.0;"/><line style="stroke:#181818;stroke-width:1.0;" x1="630" x2="630" y1="540.3281" y2="558.3281"/><line style="stroke:#181818;stroke-width:1.0;" x1="630" x2="398.75" y1="558.3281" y2="558.3281"/><polygon fill="#181818" points="408.75,554.3281,398.75,558.3281,408.75,562.3281,404.75,558.3281" style="stroke:#181818;stroke-width:1.0;"/><line style="stroke:#181818;stroke-width:1.0;" x1="386.75" x2="386.75" y1="30" y2="50"/><polygon fill="#181818" points="382.75,40,386.75,50,390.75,40,386.75,44" style="stroke:#181818;stroke-width:1.0;"/><line style="stroke:#181818;stroke-width:1.0;" x1="386.75" x2="386.75" y1="570.3281" y2="590.3281"/><polygon fill="#181818" points="382.75,580.3281,386.75,590.3281,390.75,580.3281,386.75,584.3281" style="stroke:#181818;stroke-width:1.0;"/><!--SRC=[dP9DRiCW48Ntd6AMZjGJD8jAxGLoW6uSCs0act6P8P9lNx1DMjk9v7O3ucVUVBm7Inr4ELDT0d7iCO1Ze2X01bhgyUq4qgA7QaG-AO3N8P2E3JAWns37Szfp1ghtMWJ321vHbpCmWNhuz5a1XfQ4RjH9xHg0eVROxRGJGrBcN89Uepuhx1YXyZGT9p9BpbiG0auNIflSWQOc3VLzz4uMhEgZh0zo7SK2M84bcgxZIMw7P8FJBxcEOPXrfdAldL7pk1LhoESaxhJ5uikED6TbtIrRWfwYRPUIlx_WjxK1loAo58EkIxA6mYhpU-HjpUlsMIHXuJ-CVCBnexjBUPFpOPWdE6kWBT8rZe_-qEECIyhRUHwLOg51VGC0]--></g></svg>