<?xml version="1.0" encoding="us-ascii" standalone="no"?><svg xmlns="http://www.w3.org/2000/svg" xmlns:xlink="http://www.w3.org/1999/xlink" contentStyleType="text/css" height="818px" preserveAspectRatio="none" style="width:845px;height:818px;background:#FFFFFF;" version="1.1" viewBox="0 0 845 818" width="845px" zoomAndPan="magnify"><defs/><g><!--class Prosumer--><g id="elem_Prosumer"><rect codeLine="6" fill="#F1F1F1" height="70.8281" id="Prosumer" rx="2.5" ry="2.5" style="stroke:#181818;stroke-width:0.5;" width="171" x="215.5" y="251.5"/><text fill="#000000" font-family="sans-serif" font-size="14" lengthAdjust="spacing" textLength="61" x="270.5" y="271.0332">Prosumer</text><line style="stroke:#181818;stroke-width:0.5;" x1="216.5" x2="385.5" y1="279.1094" y2="279.1094"/><rect fill="none" height="6" style="stroke:#C82930;stroke-width:1.0;" width="6" x="223.5" y="290.4141"/><text fill="#000000" font-family="sans-serif" font-size="14" lengthAdjust="spacing" textLength="116" x="235.5" y="297.6426">prosumerId: String</text><rect fill="none" height="6" style="stroke:#C82930;stroke-width:1.0;" width="6" x="223.5" y="308.0234"/><text fill="#000000" font-family="sans-serif" font-size="14" lengthAdjust="spacing" textLength="145" x="235.5" y="315.252">community: Community</text></g><!--class Profile--><g id="elem_Profile"><rect codeLine="11" fill="#F1F1F1" height="176.4844" id="Profile" rx="2.5" ry="2.5" style="stroke:#181818;stroke-width:0.5;" width="255" x="429.5" y="7"/><text fill="#000000" font-family="sans-serif" font-size="14" lengthAdjust="spacing" textLength="40" x="537" y="26.5332">Profile</text><line style="stroke:#181818;stroke-width:0.5;" x1="430.5" x2="683.5" y1="34.6094" y2="34.6094"/><rect fill="none" height="6" style="stroke:#C82930;stroke-width:1.0;" width="6" x="437.5" y="45.9141"/><text fill="#000000" font-family="sans-serif" font-size="14" lengthAdjust="spacing" textLength="95" x="449.5" y="53.1426">profileId: String</text><rect fill="none" height="6" style="stroke:#C82930;stroke-width:1.0;" width="6" x="437.5" y="63.5234"/><text fill="#000000" font-family="sans-serif" font-size="14" lengthAdjust="spacing" textLength="66" x="449.5" y="70.752">date: Date</text><rect fill="none" height="6" style="stroke:#C82930;stroke-width:1.0;" width="6" x="437.5" y="81.1328"/><text fill="#000000" font-family="sans-serif" font-size="14" lengthAdjust="spacing" textLength="229" x="449.5" y="88.3613">profileTimeStamp: ProfileTimeStamp</text><rect fill="none" height="6" style="stroke:#C82930;stroke-width:1.0;" width="6" x="437.5" y="98.7422"/><text fill="#000000" font-family="sans-serif" font-size="14" lengthAdjust="spacing" textLength="106" x="449.5" y="105.9707">profileLoad: float</text><rect fill="none" height="6" style="stroke:#C82930;stroke-width:1.0;" width="6" x="437.5" y="116.3516"/><text fill="#000000" font-family="sans-serif" font-size="14" lengthAdjust="spacing" textLength="106" x="449.5" y="123.5801">soldEnergy: float</text><rect fill="none" height="6" style="stroke:#C82930;stroke-width:1.0;" width="6" x="437.5" y="133.9609"/><text fill="#000000" font-family="sans-serif" font-size="14" lengthAdjust="spacing" textLength="124" x="449.5" y="141.1895">boughtEnergy: float</text><rect fill="none" height="6" style="stroke:#C82930;stroke-width:1.0;" width="6" x="437.5" y="151.5703"/><text fill="#000000" font-family="sans-serif" font-size="14" lengthAdjust="spacing" textLength="188" x="449.5" y="158.7988">photovoltaicEnergyLoad: float</text><rect fill="none" height="6" style="stroke:#C82930;stroke-width:1.0;" width="6" x="437.5" y="169.1797"/><text fill="#000000" font-family="sans-serif" font-size="14" lengthAdjust="spacing" textLength="128" x="449.5" y="176.4082">stateOfCharge: float</text></g><!--class User--><g id="elem_User"><rect codeLine="22" fill="#F1F1F1" height="141.2656" id="User" rx="2.5" ry="2.5" style="stroke:#181818;stroke-width:0.5;" width="160" x="7" y="391"/><text fill="#000000" font-family="sans-serif" font-size="14" lengthAdjust="spacing" textLength="29" x="72.5" y="410.5332">User</text><line style="stroke:#181818;stroke-width:0.5;" x1="8" x2="166" y1="418.6094" y2="418.6094"/><rect fill="none" height="6" style="stroke:#C82930;stroke-width:1.0;" width="6" x="15" y="429.9141"/><text fill="#000000" font-family="sans-serif" font-size="14" lengthAdjust="spacing" textLength="84" x="27" y="437.1426">userId: String</text><rect fill="none" height="6" style="stroke:#C82930;stroke-width:1.0;" width="6" x="15" y="447.5234"/><text fill="#000000" font-family="sans-serif" font-size="14" lengthAdjust="spacing" textLength="109" x="27" y="454.752">userName: String</text><rect fill="none" height="6" style="stroke:#C82930;stroke-width:1.0;" width="6" x="15" y="465.1328"/><text fill="#000000" font-family="sans-serif" font-size="14" lengthAdjust="spacing" textLength="107" x="27" y="472.3613">userEmail: String</text><rect fill="none" height="6" style="stroke:#C82930;stroke-width:1.0;" width="6" x="15" y="482.7422"/><text fill="#000000" font-family="sans-serif" font-size="14" lengthAdjust="spacing" textLength="134" x="27" y="489.9707">userPassword: String</text><rect fill="none" height="6" style="stroke:#C82930;stroke-width:1.0;" width="6" x="15" y="500.3516"/><text fill="#000000" font-family="sans-serif" font-size="14" lengthAdjust="spacing" textLength="114" x="27" y="507.5801">userPhone: String</text><rect fill="none" height="6" style="stroke:#C82930;stroke-width:1.0;" width="6" x="15" y="517.9609"/><text fill="#000000" font-family="sans-serif" font-size="14" lengthAdjust="spacing" textLength="102" x="27" y="525.1895">userRole: String</text></g><!--class Administrator--><g id="elem_Administrator"><rect codeLine="31" fill="#F1F1F1" height="53.2188" id="Administrator" rx="2.5" ry="2.5" style="stroke:#181818;stroke-width:0.5;" width="120" x="27" y="601"/><text fill="#000000" font-family="sans-serif" font-size="14" lengthAdjust="spacing" textLength="83" x="45.5" y="620.5332">Administrator</text><line style="stroke:#181818;stroke-width:0.5;" x1="28" x2="146" y1="628.6094" y2="628.6094"/><rect fill="none" height="6" style="stroke:#C82930;stroke-width:1.0;" width="6" x="35" y="639.9141"/><text fill="#000000" font-family="sans-serif" font-size="14" lengthAdjust="spacing" textLength="94" x="47" y="647.1426">adminId: String</text></g><!--class CommunityManager--><g id="elem_CommunityManager"><rect codeLine="35" fill="#F1F1F1" height="70.8281" id="CommunityManager" rx="2.5" ry="2.5" style="stroke:#181818;stroke-width:0.5;" width="205" x="188.5" y="592"/><text fill="#000000" font-family="sans-serif" font-size="14" lengthAdjust="spacing" textLength="126" x="228" y="611.5332">CommunityManager</text><line style="stroke:#181818;stroke-width:0.5;" x1="189.5" x2="392.5" y1="619.6094" y2="619.6094"/><rect fill="none" height="6" style="stroke:#C82930;stroke-width:1.0;" width="6" x="196.5" y="630.9141"/><text fill="#000000" font-family="sans-serif" font-size="14" lengthAdjust="spacing" textLength="179" x="208.5" y="638.1426">communityManagerId: String</text><rect fill="none" height="6" style="stroke:#C82930;stroke-width:1.0;" width="6" x="196.5" y="648.5234"/><text fill="#000000" font-family="sans-serif" font-size="14" lengthAdjust="spacing" textLength="141" x="208.5" y="655.752">communiy: Community</text></g><!--class Battery--><g id="elem_Battery"><rect codeLine="40" fill="#F1F1F1" height="123.6563" id="Battery" rx="2.5" ry="2.5" style="stroke:#181818;stroke-width:0.5;" width="197" x="202.5" y="399.5"/><text fill="#000000" font-family="sans-serif" font-size="14" lengthAdjust="spacing" textLength="45" x="278.5" y="419.0332">Battery</text><line style="stroke:#181818;stroke-width:0.5;" x1="203.5" x2="398.5" y1="427.1094" y2="427.1094"/><rect fill="none" height="6" style="stroke:#C82930;stroke-width:1.0;" width="6" x="210.5" y="438.4141"/><text fill="#000000" font-family="sans-serif" font-size="14" lengthAdjust="spacing" textLength="100" x="222.5" y="445.6426">batteryId: String</text><rect fill="none" height="6" style="stroke:#C82930;stroke-width:1.0;" width="6" x="210.5" y="456.0234"/><text fill="#000000" font-family="sans-serif" font-size="14" lengthAdjust="spacing" textLength="125" x="222.5" y="463.252">batteryName: String</text><rect fill="none" height="6" style="stroke:#C82930;stroke-width:1.0;" width="6" x="210.5" y="473.6328"/><text fill="#000000" font-family="sans-serif" font-size="14" lengthAdjust="spacing" textLength="115" x="222.5" y="480.8613">maxCapacity: float</text><rect fill="none" height="6" style="stroke:#C82930;stroke-width:1.0;" width="6" x="210.5" y="491.2422"/><text fill="#000000" font-family="sans-serif" font-size="14" lengthAdjust="spacing" textLength="94" x="222.5" y="498.4707">efficiency: float</text><rect fill="none" height="6" style="stroke:#C82930;stroke-width:1.0;" width="6" x="210.5" y="508.8516"/><text fill="#000000" font-family="sans-serif" font-size="14" lengthAdjust="spacing" textLength="171" x="222.5" y="516.0801">maxChargeDischarge: float</text></g><!--class Community--><g id="elem_Community"><rect codeLine="48" fill="#F1F1F1" height="88.4375" id="Community" rx="2.5" ry="2.5" style="stroke:#181818;stroke-width:0.5;" width="255" x="244.5" y="723"/><text fill="#000000" font-family="sans-serif" font-size="14" lengthAdjust="spacing" textLength="70" x="337" y="742.5332">Community</text><line style="stroke:#181818;stroke-width:0.5;" x1="245.5" x2="498.5" y1="750.6094" y2="750.6094"/><rect fill="none" height="6" style="stroke:#C82930;stroke-width:1.0;" width="6" x="252.5" y="761.9141"/><text fill="#000000" font-family="sans-serif" font-size="14" lengthAdjust="spacing" textLength="123" x="264.5" y="769.1426">communityId: String</text><rect fill="none" height="6" style="stroke:#C82930;stroke-width:1.0;" width="6" x="252.5" y="779.5234"/><text fill="#000000" font-family="sans-serif" font-size="14" lengthAdjust="spacing" textLength="148" x="264.5" y="786.752">communityName: String</text><rect fill="none" height="6" style="stroke:#C82930;stroke-width:1.0;" width="6" x="252.5" y="797.1328"/><text fill="#000000" font-family="sans-serif" font-size="14" lengthAdjust="spacing" textLength="229" x="264.5" y="804.3613">communityProsumerIds: List&lt;String&gt;</text></g><!--class Simulation--><g id="elem_Simulation"><rect codeLine="54" fill="#F1F1F1" height="88.4375" id="Simulation" rx="2.5" ry="2.5" style="stroke:#181818;stroke-width:0.5;" width="145" x="421.5" y="243"/><text fill="#000000" font-family="sans-serif" font-size="14" lengthAdjust="spacing" textLength="65" x="461.5" y="262.5332">Simulation</text><line style="stroke:#181818;stroke-width:0.5;" x1="422.5" x2="565.5" y1="270.6094" y2="270.6094"/><rect fill="none" height="6" style="stroke:#C82930;stroke-width:1.0;" width="6" x="429.5" y="281.9141"/><text fill="#000000" font-family="sans-serif" font-size="14" lengthAdjust="spacing" textLength="119" x="441.5" y="289.1426">simulationId: String</text><rect fill="none" height="6" style="stroke:#C82930;stroke-width:1.0;" width="6" x="429.5" y="299.5234"/><text fill="#000000" font-family="sans-serif" font-size="14" lengthAdjust="spacing" textLength="96" x="441.5" y="306.752">startDate: Date</text><rect fill="none" height="6" style="stroke:#C82930;stroke-width:1.0;" width="6" x="429.5" y="317.1328"/><text fill="#000000" font-family="sans-serif" font-size="14" lengthAdjust="spacing" textLength="92" x="441.5" y="324.3613">endDate: Date</text></g><!--class Date--><g id="elem_Date"><rect codeLine="60" fill="#F1F1F1" height="53.2188" id="Date" rx="2.5" ry="2.5" style="stroke:#181818;stroke-width:0.5;" width="105" x="537.5" y="435"/><text fill="#000000" font-family="sans-serif" font-size="14" lengthAdjust="spacing" textLength="30" x="575" y="454.5332">Date</text><line style="stroke:#181818;stroke-width:0.5;" x1="538.5" x2="641.5" y1="462.6094" y2="462.6094"/><rect fill="none" height="6" style="stroke:#C82930;stroke-width:1.0;" width="6" x="545.5" y="473.9141"/><text fill="#000000" font-family="sans-serif" font-size="14" lengthAdjust="spacing" textLength="79" x="557.5" y="481.1426">value: String</text></g><!--class ProfileTimeStamp--><g id="elem_ProfileTimeStamp"><rect codeLine="64" fill="#F1F1F1" height="70.8281" id="ProfileTimeStamp" rx="2.5" ry="2.5" style="stroke:#181818;stroke-width:0.5;" width="165" x="673.5" y="251.5"/><text fill="#000000" font-family="sans-serif" font-size="14" lengthAdjust="spacing" textLength="111" x="700.5" y="271.0332">ProfileTimeStamp</text><line style="stroke:#181818;stroke-width:0.5;" x1="674.5" x2="837.5" y1="279.1094" y2="279.1094"/><rect fill="none" height="6" style="stroke:#C82930;stroke-width:1.0;" width="6" x="681.5" y="290.4141"/><text fill="#000000" font-family="sans-serif" font-size="14" lengthAdjust="spacing" textLength="137" x="693.5" y="297.6426">intervalOfTime: String</text><rect fill="none" height="6" style="stroke:#C82930;stroke-width:1.0;" width="6" x="681.5" y="308.0234"/><text fill="#000000" font-family="sans-serif" font-size="14" lengthAdjust="spacing" textLength="139" x="693.5" y="315.252">numberOfIntervals: int</text></g><!--link Prosumer to Battery--><g id="link_Prosumer_Battery"><path codeLine="71" d="M301,322.91 C301,344.86 301,367.79 301,393.46 " fill="none" id="Prosumer-to-Battery" style="stroke:#181818;stroke-width:1.0;"/><polygon fill="#181818" points="301,399.46,305,390.46,301,394.46,297,390.46,301,399.46" style="stroke:#181818;stroke-width:1.0;"/></g><!--link Prosumer to Community--><g id="link_Prosumer_Community"><path codeLine="72" d="M357.47,322.53 C380.46,339.92 404.53,363.24 417,391 C467.13,502.54 422.574,645.0254 393.474,717.1854 " fill="none" id="Prosumer-to-Community" style="stroke:#181818;stroke-width:1.0;"/><polygon fill="#181818" points="391.23,722.75,398.3057,715.8992,393.1,718.1129,390.8863,712.9071,391.23,722.75" style="stroke:#181818;stroke-width:1.0;"/></g><!--link Prosumer to User--><g id="link_Prosumer_User"><path codeLine="73" d="M257.95,322.7 C231.95,343.66 212.016,359.7362 181.226,384.5462 " fill="none" id="Prosumer-to-User" style="stroke:#181818;stroke-width:1.0;"/><polygon fill="none" points="167.21,395.84,184.9906,389.2182,177.4614,379.8741,167.21,395.84" style="stroke:#181818;stroke-width:1.0;"/></g><!--link Profile to Prosumer--><g id="link_Profile_Prosumer"><path codeLine="75" d="M439.49,183.21 C406.89,207.41 378.1976,228.7036 352.3076,247.9236 " fill="none" id="Profile-to-Prosumer" style="stroke:#181818;stroke-width:1.0;"/><polygon fill="#181818" points="347.49,251.5,357.1007,249.3471,351.5047,248.5196,352.3321,242.9236,347.49,251.5" style="stroke:#181818;stroke-width:1.0;"/></g><!--link Profile to Simulation--><g id="link_Profile_Simulation"><path codeLine="76" d="M528.08,183.21 C521.22,203.9 516.0868,219.3744 510.2168,237.0944 " fill="none" id="Profile-to-Simulation" style="stroke:#181818;stroke-width:1.0;"/><polygon fill="#181818" points="508.33,242.79,514.9572,235.5044,509.9023,238.0436,507.3631,232.9887,508.33,242.79" style="stroke:#181818;stroke-width:1.0;"/></g><!--link Profile to ProfileTimeStamp--><g id="link_Profile_ProfileTimeStamp"><path codeLine="77" d="M648.35,183.21 C673.69,207.41 695.4014,228.1355 715.5214,247.3555 " fill="none" id="Profile-to-ProfileTimeStamp" style="stroke:#181818;stroke-width:1.0;"/><polygon fill="#181818" points="719.86,251.5,716.1151,242.3909,716.2445,248.0463,710.5892,248.1756,719.86,251.5" style="stroke:#181818;stroke-width:1.0;"/></g><!--link Profile to Date--><g id="link_Profile_Date"><path codeLine="78" d="M575.29,183.13 C578.77,202.74 581.95,223.52 584,243 C591.26,312.13 591.2698,388.2407 590.6598,428.9707 " fill="none" id="Profile-to-Date" style="stroke:#181818;stroke-width:1.0;"/><polygon fill="#181818" points="590.57,434.97,594.7043,426.0309,590.6449,429.9706,586.7052,425.9111,590.57,434.97" style="stroke:#181818;stroke-width:1.0;"/></g><!--reverse link User to Administrator--><g id="link_User_Administrator"><path codeLine="80" d="M87,550.05 C87,574.5 87,582.45 87,600.95 " fill="none" id="User-backto-Administrator" style="stroke:#181818;stroke-width:1.0;"/><polygon fill="none" points="87,532.05,81,550.05,93,550.05,87,532.05" style="stroke:#181818;stroke-width:1.0;"/></g><!--reverse link User to CommunityManager--><g id="link_User_CommunityManager"><path codeLine="81" d="M181.0698,538.1268 C208.6398,560.2868 224.43,572.98 247.91,591.86 " fill="none" id="User-backto-CommunityManager" style="stroke:#181818;stroke-width:1.0;"/><polygon fill="none" points="167.04,526.85,177.3109,542.8033,184.8287,533.4502,167.04,526.85" style="stroke:#181818;stroke-width:1.0;"/></g><!--link CommunityManager to Community--><g id="link_CommunityManager_Community"><path codeLine="83" d="M311.44,663.2 C322.13,681.34 332.2542,698.5405 343.5842,717.7705 " fill="none" id="CommunityManager-to-Community" style="stroke:#181818;stroke-width:1.0;"/><polygon fill="#181818" points="346.63,722.94,345.5077,713.1553,344.0919,718.6321,338.615,717.2163,346.63,722.94" style="stroke:#181818;stroke-width:1.0;"/></g><!--link Simulation to Date--><g id="link_Simulation_Date"><path codeLine="84" d="M517.98,331.08 C536.14,363.72 557.5624,402.2071 572.7824,429.5571 " fill="none" id="Simulation-to-Date" style="stroke:#181818;stroke-width:1.0;"/><polygon fill="#181818" points="575.7,434.8,574.8188,424.9906,573.2687,430.4309,567.8284,428.8808,575.7,434.8" style="stroke:#181818;stroke-width:1.0;"/></g><!--SRC=[TLHBRjim5Dpp5DnbfGi8WO76pY90MXjnUe1dafAOadm2FscDfkVfgikUm1Sh9KlKX-w648UZURyXtJTfMh2WgVDd9U9g9VD1Az98BgWMla7k2BcZMmNE2KVXBJWF71nreWw68qMgaGk5DFx0KL_-68c4i8vF3nPTqCBIduJIWhR3zecNz1X3cRg76MeTZFJdacx7J_9hfb79c5kIw7Oh1GvUb7GNrpdfLMfnzA3RSXH9o9psZ13LAeNWUzYXuez6sFeyHqyOwiRdUDkWntTK7YIxdcPwFkQrhxODs5gC1wcyhowr9xYiDHtq1RJ8m4SDKcNe8If-Hvjh71eqkSWBgWbC6NtYMXePhG0UnzIWmsQv9N8Qs6SmKATIs0g-FV7R0ty0xuKz3qgdwsubCA1PQpJys48Bh3VJD09HLP99OTW2xSZzK7RIiTlJIUcjw_gVXRECqiaXcT-Lz3dsz_xAsapHZb871LwY6SAv1ApYHKzPlrkwNXW-Gv9ejnlata656mDVNuw1BKriSVnbNtKdY_0cw9Em- -ffeCIA8hjJlAClGi7bz-LlV2mOMYjh6LyBGj9JK1GREivuXKvccE4Vc_wEz0hzGz1JHy8IdHgOiPVNVtxQjulqz_3-eoYM_f_XQwiJafc_avkAc8qpnVa7]--></g></svg>