<?xml version="1.0" encoding="us-ascii" standalone="no"?><svg xmlns="http://www.w3.org/2000/svg" xmlns:xlink="http://www.w3.org/1999/xlink" contentStyleType="text/css" height="819px" preserveAspectRatio="none" style="width:1398px;height:819px;background:#FFFFFF;" version="1.1" viewBox="0 0 1398 819" width="1398px" zoomAndPan="magnify"><defs/><g><!--class Prosumer--><g id="elem_Prosumer"><rect codeLine="5" fill="#F1F1F1" height="53.2188" id="Prosumer" rx="2.5" ry="2.5" style="stroke:#181818;stroke-width:0.5;" width="142" x="335.5" y="190.5"/><text fill="#000000" font-family="sans-serif" font-size="14" lengthAdjust="spacing" textLength="61" x="376" y="210.0332">Prosumer</text><line style="stroke:#181818;stroke-width:0.5;" x1="336.5" x2="476.5" y1="218.1094" y2="218.1094"/><rect fill="none" height="6" style="stroke:#C82930;stroke-width:1.0;" width="6" x="343.5" y="229.4141"/><text fill="#000000" font-family="sans-serif" font-size="14" lengthAdjust="spacing" textLength="116" x="355.5" y="236.6426">prosumerId: String</text></g><!--class Profile--><g id="elem_Profile"><rect codeLine="9" fill="#F1F1F1" height="158.875" id="Profile" rx="2.5" ry="2.5" style="stroke:#181818;stroke-width:0.5;" width="215" x="62" y="339"/><text fill="#000000" font-family="sans-serif" font-size="14" lengthAdjust="spacing" textLength="40" x="149.5" y="358.5332">Profile</text><line style="stroke:#181818;stroke-width:0.5;" x1="63" x2="276" y1="366.6094" y2="366.6094"/><rect fill="none" height="6" style="stroke:#C82930;stroke-width:1.0;" width="6" x="70" y="377.9141"/><text fill="#000000" font-family="sans-serif" font-size="14" lengthAdjust="spacing" textLength="95" x="82" y="385.1426">profileId: String</text><rect fill="none" height="6" style="stroke:#C82930;stroke-width:1.0;" width="6" x="70" y="395.5234"/><text fill="#000000" font-family="sans-serif" font-size="14" lengthAdjust="spacing" textLength="189" x="82" y="402.752">profileTimeStamp: TimeStamp</text><rect fill="none" height="6" style="stroke:#C82930;stroke-width:1.0;" width="6" x="70" y="413.1328"/><text fill="#000000" font-family="sans-serif" font-size="14" lengthAdjust="spacing" textLength="106" x="82" y="420.3613">profileLoad: float</text><rect fill="none" height="6" style="stroke:#C82930;stroke-width:1.0;" width="6" x="70" y="430.7422"/><text fill="#000000" font-family="sans-serif" font-size="14" lengthAdjust="spacing" textLength="106" x="82" y="437.9707">soldEnergy: float</text><rect fill="none" height="6" style="stroke:#C82930;stroke-width:1.0;" width="6" x="70" y="448.3516"/><text fill="#000000" font-family="sans-serif" font-size="14" lengthAdjust="spacing" textLength="124" x="82" y="455.5801">boughtEnergy: float</text><rect fill="none" height="6" style="stroke:#C82930;stroke-width:1.0;" width="6" x="70" y="465.9609"/><text fill="#000000" font-family="sans-serif" font-size="14" lengthAdjust="spacing" textLength="188" x="82" y="473.1895">photovoltaicEnergyLoad: float</text><rect fill="none" height="6" style="stroke:#C82930;stroke-width:1.0;" width="6" x="70" y="483.5703"/><text fill="#000000" font-family="sans-serif" font-size="14" lengthAdjust="spacing" textLength="128" x="82" y="490.7988">stateOfCharge: float</text></g><!--class User--><g id="elem_User"><rect codeLine="19" fill="#F1F1F1" height="123.6563" id="User" rx="2.5" ry="2.5" style="stroke:#181818;stroke-width:0.5;" width="160" x="1142.5" y="356.5"/><text fill="#000000" font-family="sans-serif" font-size="14" lengthAdjust="spacing" textLength="29" x="1208" y="376.0332">User</text><line style="stroke:#181818;stroke-width:0.5;" x1="1143.5" x2="1301.5" y1="384.1094" y2="384.1094"/><rect fill="none" height="6" style="stroke:#C82930;stroke-width:1.0;" width="6" x="1150.5" y="395.4141"/><text fill="#000000" font-family="sans-serif" font-size="14" lengthAdjust="spacing" textLength="84" x="1162.5" y="402.6426">userId: String</text><rect fill="none" height="6" style="stroke:#C82930;stroke-width:1.0;" width="6" x="1150.5" y="413.0234"/><text fill="#000000" font-family="sans-serif" font-size="14" lengthAdjust="spacing" textLength="109" x="1162.5" y="420.252">userName: String</text><rect fill="none" height="6" style="stroke:#C82930;stroke-width:1.0;" width="6" x="1150.5" y="430.6328"/><text fill="#000000" font-family="sans-serif" font-size="14" lengthAdjust="spacing" textLength="107" x="1162.5" y="437.8613">userEmail: String</text><rect fill="none" height="6" style="stroke:#C82930;stroke-width:1.0;" width="6" x="1150.5" y="448.2422"/><text fill="#000000" font-family="sans-serif" font-size="14" lengthAdjust="spacing" textLength="134" x="1162.5" y="455.4707">userPassword: String</text><rect fill="none" height="6" style="stroke:#C82930;stroke-width:1.0;" width="6" x="1150.5" y="465.8516"/><text fill="#000000" font-family="sans-serif" font-size="14" lengthAdjust="spacing" textLength="114" x="1162.5" y="473.0801">userPhone: String</text></g><!--class Administrator--><g id="elem_Administrator"><rect codeLine="27" fill="#F1F1F1" height="53.2188" id="Administrator" rx="2.5" ry="2.5" style="stroke:#181818;stroke-width:0.5;" width="120" x="1030.5" y="567"/><text fill="#000000" font-family="sans-serif" font-size="14" lengthAdjust="spacing" textLength="83" x="1049" y="586.5332">Administrator</text><line style="stroke:#181818;stroke-width:0.5;" x1="1031.5" x2="1149.5" y1="594.6094" y2="594.6094"/><rect fill="none" height="6" style="stroke:#C82930;stroke-width:1.0;" width="6" x="1038.5" y="605.9141"/><text fill="#000000" font-family="sans-serif" font-size="14" lengthAdjust="spacing" textLength="94" x="1050.5" y="613.1426">adminId: String</text></g><!--class CommunityManager--><g id="elem_CommunityManager"><rect codeLine="31" fill="#F1F1F1" height="53.2188" id="CommunityManager" rx="2.5" ry="2.5" style="stroke:#181818;stroke-width:0.5;" width="205" x="1186" y="567"/><text fill="#000000" font-family="sans-serif" font-size="14" lengthAdjust="spacing" textLength="126" x="1225.5" y="586.5332">CommunityManager</text><line style="stroke:#181818;stroke-width:0.5;" x1="1187" x2="1390" y1="594.6094" y2="594.6094"/><rect fill="none" height="6" style="stroke:#C82930;stroke-width:1.0;" width="6" x="1194" y="605.9141"/><text fill="#000000" font-family="sans-serif" font-size="14" lengthAdjust="spacing" textLength="179" x="1206" y="613.1426">communityManagerId: String</text></g><!--class Battery--><g id="elem_Battery"><rect codeLine="35" fill="#F1F1F1" height="123.6563" id="Battery" rx="2.5" ry="2.5" style="stroke:#181818;stroke-width:0.5;" width="197" x="384" y="356.5"/><text fill="#000000" font-family="sans-serif" font-size="14" lengthAdjust="spacing" textLength="45" x="460" y="376.0332">Battery</text><line style="stroke:#181818;stroke-width:0.5;" x1="385" x2="580" y1="384.1094" y2="384.1094"/><rect fill="none" height="6" style="stroke:#C82930;stroke-width:1.0;" width="6" x="392" y="395.4141"/><text fill="#000000" font-family="sans-serif" font-size="14" lengthAdjust="spacing" textLength="100" x="404" y="402.6426">batteryId: String</text><rect fill="none" height="6" style="stroke:#C82930;stroke-width:1.0;" width="6" x="392" y="413.0234"/><text fill="#000000" font-family="sans-serif" font-size="14" lengthAdjust="spacing" textLength="125" x="404" y="420.252">batteryName: String</text><rect fill="none" height="6" style="stroke:#C82930;stroke-width:1.0;" width="6" x="392" y="430.6328"/><text fill="#000000" font-family="sans-serif" font-size="14" lengthAdjust="spacing" textLength="115" x="404" y="437.8613">maxCapacity: float</text><rect fill="none" height="6" style="stroke:#C82930;stroke-width:1.0;" width="6" x="392" y="448.2422"/><text fill="#000000" font-family="sans-serif" font-size="14" lengthAdjust="spacing" textLength="94" x="404" y="455.4707">efficiency: float</text><rect fill="none" height="6" style="stroke:#C82930;stroke-width:1.0;" width="6" x="392" y="465.8516"/><text fill="#000000" font-family="sans-serif" font-size="14" lengthAdjust="spacing" textLength="171" x="404" y="473.0801">maxChargeDischarge: float</text></g><!--class Community--><g id="elem_Community"><rect codeLine="43" fill="#F1F1F1" height="88.4375" id="Community" rx="2.5" ry="2.5" style="stroke:#181818;stroke-width:0.5;" width="230" x="291.5" y="7"/><text fill="#000000" font-family="sans-serif" font-size="14" lengthAdjust="spacing" textLength="70" x="371.5" y="26.5332">Community</text><line style="stroke:#181818;stroke-width:0.5;" x1="292.5" x2="520.5" y1="34.6094" y2="34.6094"/><rect fill="none" height="6" style="stroke:#C82930;stroke-width:1.0;" width="6" x="299.5" y="45.9141"/><text fill="#000000" font-family="sans-serif" font-size="14" lengthAdjust="spacing" textLength="123" x="311.5" y="53.1426">communityId: String</text><rect fill="none" height="6" style="stroke:#C82930;stroke-width:1.0;" width="6" x="299.5" y="63.5234"/><text fill="#000000" font-family="sans-serif" font-size="14" lengthAdjust="spacing" textLength="148" x="311.5" y="70.752">communityName: String</text><rect fill="none" height="6" style="stroke:#C82930;stroke-width:1.0;" width="6" x="299.5" y="81.1328"/><text fill="#000000" font-family="sans-serif" font-size="14" lengthAdjust="spacing" textLength="204" x="311.5" y="88.3613">communityProsumerIds: String[*]</text></g><!--class MembershipRequest--><g id="elem_MembershipRequest"><rect codeLine="49" fill="#F1F1F1" height="123.6563" id="MembershipRequest" rx="2.5" ry="2.5" style="stroke:#181818;stroke-width:0.5;" width="171" x="691" y="689"/><text fill="#000000" font-family="sans-serif" font-size="14" lengthAdjust="spacing" textLength="130" x="711.5" y="708.5332">MembershipRequest</text><line style="stroke:#181818;stroke-width:0.5;" x1="692" x2="861" y1="716.6094" y2="716.6094"/><rect fill="none" height="6" style="stroke:#C82930;stroke-width:1.0;" width="6" x="699" y="727.9141"/><text fill="#000000" font-family="sans-serif" font-size="14" lengthAdjust="spacing" textLength="104" x="711" y="735.1426">requestId: String</text><rect fill="none" height="6" style="stroke:#C82930;stroke-width:1.0;" width="6" x="699" y="745.5234"/><text fill="#000000" font-family="sans-serif" font-size="14" lengthAdjust="spacing" textLength="116" x="711" y="752.752">prosumerId: String</text><rect fill="none" height="6" style="stroke:#C82930;stroke-width:1.0;" width="6" x="699" y="763.1328"/><text fill="#000000" font-family="sans-serif" font-size="14" lengthAdjust="spacing" textLength="123" x="711" y="770.3613">communityId: String</text><rect fill="none" height="6" style="stroke:#C82930;stroke-width:1.0;" width="6" x="699" y="780.7422"/><text fill="#000000" font-family="sans-serif" font-size="14" lengthAdjust="spacing" textLength="83" x="711" y="787.9707">status: String</text><rect fill="none" height="6" style="stroke:#C82930;stroke-width:1.0;" width="6" x="699" y="798.3516"/><text fill="#000000" font-family="sans-serif" font-size="14" lengthAdjust="spacing" textLength="145" x="711" y="805.5801">timeStamp: TimeStamp</text></g><!--class CommunityEnergyProfile--><g id="elem_CommunityEnergyProfile"><rect codeLine="57" fill="#F1F1F1" height="123.6563" id="CommunityEnergyProfile" rx="2.5" ry="2.5" style="stroke:#181818;stroke-width:0.5;" width="234" x="17.5" y="155"/><text fill="#000000" font-family="sans-serif" font-size="14" lengthAdjust="spacing" textLength="155" x="57" y="174.5332">CommunityEnergyProfile</text><line style="stroke:#181818;stroke-width:0.5;" x1="18.5" x2="250.5" y1="182.6094" y2="182.6094"/><rect fill="none" height="6" style="stroke:#C82930;stroke-width:1.0;" width="6" x="25.5" y="193.9141"/><text fill="#000000" font-family="sans-serif" font-size="14" lengthAdjust="spacing" textLength="208" x="37.5" y="201.1426">communityEnergyProfileId: String</text><rect fill="none" height="6" style="stroke:#C82930;stroke-width:1.0;" width="6" x="25.5" y="211.5234"/><text fill="#000000" font-family="sans-serif" font-size="14" lengthAdjust="spacing" textLength="145" x="37.5" y="218.752">timeStamp: TimeStamp</text><rect fill="none" height="6" style="stroke:#C82930;stroke-width:1.0;" width="6" x="25.5" y="229.1328"/><text fill="#000000" font-family="sans-serif" font-size="14" lengthAdjust="spacing" textLength="130" x="37.5" y="236.3613">totalProduction: float</text><rect fill="none" height="6" style="stroke:#C82930;stroke-width:1.0;" width="6" x="25.5" y="246.7422"/><text fill="#000000" font-family="sans-serif" font-size="14" lengthAdjust="spacing" textLength="145" x="37.5" y="253.9707">totalConsumption: float</text><rect fill="none" height="6" style="stroke:#C82930;stroke-width:1.0;" width="6" x="25.5" y="264.3516"/><text fill="#000000" font-family="sans-serif" font-size="14" lengthAdjust="spacing" textLength="124" x="37.5" y="271.5801">sharedEnergy: float</text></g><!--class TimeStamp--><g id="elem_TimeStamp"><rect codeLine="65" fill="#F1F1F1" height="70.8281" id="TimeStamp" rx="2.5" ry="2.5" style="stroke:#181818;stroke-width:0.5;" width="165" x="7" y="558"/><text fill="#000000" font-family="sans-serif" font-size="14" lengthAdjust="spacing" textLength="71" x="54" y="577.5332">TimeStamp</text><line style="stroke:#181818;stroke-width:0.5;" x1="8" x2="171" y1="585.6094" y2="585.6094"/><rect fill="none" height="6" style="stroke:#C82930;stroke-width:1.0;" width="6" x="15" y="596.9141"/><text fill="#000000" font-family="sans-serif" font-size="14" lengthAdjust="spacing" textLength="137" x="27" y="604.1426">intervalOfTime: String</text><rect fill="none" height="6" style="stroke:#C82930;stroke-width:1.0;" width="6" x="15" y="614.5234"/><text fill="#000000" font-family="sans-serif" font-size="14" lengthAdjust="spacing" textLength="139" x="27" y="621.752">numberOfIntervals: int</text></g><g id="elem_GMN24"><path d="M616,405.5 L616,431.8516 L1107,431.8516 L1107,415.5 L1097,405.5 L616,405.5 " fill="#FEFFDD" style="stroke:#181818;stroke-width:0.5;"/><path d="M1097,405.5 L1097,415.5 L1107,415.5 L1097,405.5 " fill="#FEFFDD" style="stroke:#181818;stroke-width:1.0;"/><text fill="#000000" font-family="sans-serif" font-size="13" lengthAdjust="spacing" textLength="470" x="622" y="423.9951">Balance of the Prosumer in kW/h, positive values lead to buy energy from the grid</text></g><!--link Prosumer to Profile--><g id="link_Prosumer_Profile"><path codeLine="71" d="M376,243.67 C347.37,267.77 307.6302,301.2261 267.3702,335.1161 " fill="none" id="Prosumer-to-Profile" style="stroke:#181818;stroke-width:1.0;"/><polygon fill="#181818" points="262.78,338.98,272.2413,336.2442,266.6052,335.7601,267.0894,330.124,262.78,338.98" style="stroke:#181818;stroke-width:1.0;"/><text fill="#000000" font-family="sans-serif" font-size="13" lengthAdjust="spacing" textLength="7" x="264.3372" y="328.1561">1</text></g><!--link Prosumer to Battery--><g id="link_Prosumer_Battery"><path codeLine="72" d="M416.28,243.67 C427.06,271.98 442.664,312.9231 457.064,350.7231 " fill="none" id="Prosumer-to-Battery" style="stroke:#181818;stroke-width:1.0;"/><polygon fill="#181818" points="459.2,356.33,459.734,346.4956,457.42,351.6576,452.2581,349.3436,459.2,356.33" style="stroke:#181818;stroke-width:1.0;"/><text fill="#000000" font-family="sans-serif" font-size="13" lengthAdjust="spacing" textLength="7" x="449.1013" y="345.7519">1</text></g><!--link Prosumer to User--><g id="link_Prosumer_User"><path codeLine="73" d="M477.68,218.31 C610.64,221.37 903.29,239.91 1124.5,339 C1134.94,343.68 1130.3857,339.5593 1140.1257,346.2393 " fill="none" id="Prosumer-to-User" style="stroke:#181818;stroke-width:1.0;"/><polygon fill="none" points="1154.97,356.42,1143.5193,341.2912,1136.7321,351.1874,1154.97,356.42" style="stroke:#181818;stroke-width:1.0;"/><text fill="#000000" font-family="sans-serif" font-size="13" lengthAdjust="spacing" textLength="7" x="1139.7572" y="345.8523">1</text></g><!--link Prosumer to MembershipRequest--><g id="link_Prosumer_MembershipRequest"><path codeLine="74" d="M392.81,243.88 C367.44,295.71 319.77,414.42 366.5,498 C435.51,621.43 586.8001,689.8663 685.2601,723.3863 " fill="none" id="Prosumer-to-MembershipRequest" style="stroke:#181818;stroke-width:1.0;"/><polygon fill="#181818" points="690.94,725.32,683.7093,718.6329,686.2068,723.7086,681.1311,726.2061,690.94,725.32" style="stroke:#181818;stroke-width:1.0;"/><text fill="#000000" font-family="sans-serif" font-size="13" lengthAdjust="spacing" textLength="20" x="663.0264" y="720.0548">1..*</text></g><!--link Profile to TimeStamp--><g id="link_Profile_TimeStamp"><path codeLine="76" d="M133.13,498.15 C123.47,519.04 116.0486,535.0942 108.0986,552.2842 " fill="none" id="Profile-to-TimeStamp" style="stroke:#181818;stroke-width:1.0;"/><polygon fill="#181818" points="105.58,557.73,112.9884,551.2403,107.6788,553.1918,105.7273,547.8822,105.58,557.73" style="stroke:#181818;stroke-width:1.0;"/><text fill="#000000" font-family="sans-serif" font-size="13" lengthAdjust="spacing" textLength="7" x="100.8994" y="547.2033">1</text></g><!--reverse link User to Administrator--><g id="link_User_Administrator"><path codeLine="78" d="M1164.6694,495.2888 C1142.1394,524.8088 1127.29,544.28 1110.07,566.86 " fill="none" id="User-backto-Administrator" style="stroke:#181818;stroke-width:1.0;"/><polygon fill="none" points="1175.59,480.98,1159.8998,491.6486,1169.439,498.929,1175.59,480.98" style="stroke:#181818;stroke-width:1.0;"/></g><!--reverse link User to CommunityManager--><g id="link_User_CommunityManager"><path codeLine="79" d="M1252.37,497.7962 C1263.64,527.3162 1270.11,544.28 1278.72,566.86 " fill="none" id="User-backto-CommunityManager" style="stroke:#181818;stroke-width:1.0;"/><polygon fill="none" points="1245.95,480.98,1246.7646,499.9362,1257.9754,495.6562,1245.95,480.98" style="stroke:#181818;stroke-width:1.0;"/></g><!--link Community to Prosumer--><g id="link_Community_Prosumer"><path codeLine="81" d="M406.5,95.09 C406.5,125.27 406.5,158.6 406.5,184.08 " fill="none" id="Community-to-Prosumer" style="stroke:#181818;stroke-width:1.0;"/><polygon fill="#181818" points="406.5,190.08,410.5,181.08,406.5,185.08,402.5,181.08,406.5,190.08" style="stroke:#181818;stroke-width:1.0;"/><text fill="#000000" font-family="sans-serif" font-size="13" lengthAdjust="spacing" textLength="20" x="384.1875" y="179.5152">1..*</text></g><!--link Community to CommunityManager--><g id="link_Community_CommunityManager"><path codeLine="82" d="M521.84,71.03 C745.31,110.49 1223.77,208.56 1319.5,339 C1370.26,408.17 1329.2262,512.22 1304.8762,561.54 " fill="none" id="Community-to-CommunityManager" style="stroke:#181818;stroke-width:1.0;"/><polygon fill="#181818" points="1302.22,566.92,1309.791,560.6208,1304.4335,562.4366,1302.6176,557.0792,1302.22,566.92" style="stroke:#181818;stroke-width:1.0;"/><text fill="#000000" font-family="sans-serif" font-size="13" lengthAdjust="spacing" textLength="7" x="1297.7111" y="556.0024">1</text></g><!--link Community to CommunityEnergyProfile--><g id="link_Community_CommunityEnergyProfile"><path codeLine="83" d="M335.04,95.09 C304.74,113.36 274.0085,131.8823 241.0485,151.7523 " fill="none" id="Community-to-CommunityEnergyProfile" style="stroke:#181818;stroke-width:1.0;"/><polygon fill="#181818" points="235.91,154.85,245.6829,153.629,240.1921,152.2685,241.5526,146.7777,235.91,154.85" style="stroke:#181818;stroke-width:1.0;"/><text fill="#000000" font-family="sans-serif" font-size="13" lengthAdjust="spacing" textLength="20" x="226.4793" y="144.2742">1..*</text></g><!--link CommunityManager to MembershipRequest--><g id="link_CommunityManager_MembershipRequest"><path codeLine="84" d="M1204.53,620 C1110.06,648.7 963.1512,693.3168 867.9712,722.2168 " fill="none" id="CommunityManager-to-MembershipRequest" style="stroke:#181818;stroke-width:1.0;"/><polygon fill="#181818" points="862.23,723.96,872.0039,725.1726,867.0143,722.5073,869.6796,717.5177,862.23,723.96" style="stroke:#181818;stroke-width:1.0;"/><text fill="#000000" font-family="sans-serif" font-size="13" lengthAdjust="spacing" textLength="20" x="869.8585" y="718.6906">1..*</text></g><!--link CommunityEnergyProfile to TimeStamp--><g id="link_CommunityEnergyProfile_TimeStamp"><path codeLine="86" d="M77.27,279.25 C63.91,297.2 51.54,317.75 44.5,339 C22.29,406.08 28.93,429.07 44.5,498 C49.23,518.92 56.3158,535.347 65.6458,552.677 " fill="none" id="CommunityEnergyProfile-to-TimeStamp" style="stroke:#181818;stroke-width:1.0;"/><polygon fill="#181818" points="68.49,557.96,67.7457,548.1393,66.1198,553.5575,60.7016,551.9316,68.49,557.96" style="stroke:#181818;stroke-width:1.0;"/><text fill="#000000" font-family="sans-serif" font-size="13" lengthAdjust="spacing" textLength="7" x="56.8178" y="547.2052">1</text></g><!--link Profile to GMN24--><g id="link_Profile_GMN24"><path d="M277.23,351.04 C310.25,333.85 347.51,317.77 384,309 C469.13,288.53 494.96,292.8 581,309 C680.41,327.72 789.8,380.7 837.28,405.45 " fill="none" id="Profile-GMN24" style="stroke:#181818;stroke-width:1.0;stroke-dasharray:7.0,7.0;"/></g><!--SRC=[VLLDZzCm4BtxLrYzhBIYYxXM20dIFQp4qceNn05nc2QJn5f_17jIg5Z-EtQJk4cStKjLlpUUppUEUnAw0GkAEpf9zBzMvDGgoMfH85T8jIaSOrSya-0SEbvQe_Xsk-LGLHOh87Gi3npVM-DQXPR_PPolUTCVxueDV_HkTSN-iOjfANouQ1bE8yCH-bKeV2HGpOR7lsF-im5_hvG6w0mx8ujRZROwZT63QQkQKhof3PcZaGGYxzZ47_aITsLMWwrm868XtroijtMJMWVe2oXCm5i5GYRetdlyRMpgOryRZMaNFnPAQE571cI6B21WIotFZ5Aj5dIw1mrLp3gVmKjNFm4HsbD_uz2TPgNsQ5AjWZyPD93x2EEkObcANA3E9sWmFlTvAro-tF1OnZp_MJuHJpAAp3uAr0q6Fwv_NaBTepgWTRLe7l1NYuxwaBOxfNATo_sr_8AiMZU1Q4dfQU6TJASRb2-Iiv3qqYQH8P3-Jj7c98mUJ-HCPKRxqfevv_o4SBPhCTqOeSzGQ2-F8yXT6PX9NheDVTwLTxs9xugt3gwk-0DA277351oBBynw_O6ltgs6ToGbUicEYUUE2Hixjx-vkLwbusPiQFBWzT8sTbxyzy_hzNGBH_XyuHYxQ7SKTaWbOLUfXqK7oy9WoRw_NkeBybgeN1j2ReL_JhafXmbiVCSbw1m3HZLUFWP2ywVlR-itl35Ea3WYzoFsCRb4ABo- -A4zSJm7xRujuNPbHS7-0m00]--></g></svg>