<?xml version="1.0" encoding="UTF-8" standalone="no"?><svg xmlns="http://www.w3.org/2000/svg" xmlns:xlink="http://www.w3.org/1999/xlink" contentStyleType="text/css" height="992px" preserveAspectRatio="none" style="width:1030px;height:992px;background:#FFFFFF;" version="1.1" viewBox="0 0 1030 992" width="1030px" zoomAndPan="magnify"><defs/><g><rect fill="#FFFFFF" height="899.6797" style="stroke:#181818;stroke-width:1.0;" width="10" x="35.5" y="47.6094"/><rect fill="#FFFFFF" height="552.8125" style="stroke:#181818;stroke-width:1.0;" width="10" x="40.5" y="393.4766"/><rect fill="#FFFFFF" height="212.4609" style="stroke:#181818;stroke-width:1.0;" width="10" x="205.5" y="106.3125"/><rect fill="#FFFFFF" height="394.5703" style="stroke:#181818;stroke-width:1.0;" width="10" x="205.5" y="454.1797"/><rect fill="#FFFFFF" height="151.7578" style="stroke:#181818;stroke-width:1.0;" width="10" x="332.5" y="136.6641"/><rect fill="#FFFFFF" height="333.8672" style="stroke:#181818;stroke-width:1.0;" width="10" x="332.5" y="484.5313"/><rect fill="#FFFFFF" height="121.4063" style="stroke:#181818;stroke-width:1.0;" width="10" x="527.5" y="167.0156"/><rect fill="#FFFFFF" height="273.1641" style="stroke:#181818;stroke-width:1.0;" width="10" x="527.5" y="514.8828"/><rect fill="#FFFFFF" height="30.3516" style="stroke:#181818;stroke-width:1.0;" width="10" x="725.5" y="197.3672"/><rect fill="#FFFFFF" height="30.3516" style="stroke:#181818;stroke-width:1.0;" width="10" x="725.5" y="545.2344"/><rect fill="#FFFFFF" height="30.3516" style="stroke:#181818;stroke-width:1.0;" width="10" x="725.5" y="666.6406"/><rect fill="#FFFFFF" height="30.3516" style="stroke:#181818;stroke-width:1.0;" width="10" x="810.5" y="605.9375"/><rect fill="#FFFFFF" height="30.3516" style="stroke:#181818;stroke-width:1.0;" width="10" x="902.5" y="727.3438"/><rect fill="none" height="525.8125" style="stroke:#000000;stroke-width:1.5;" width="1013.5" x="10" y="413.4766"/><line style="stroke:#181818;stroke-width:0.5;stroke-dasharray:5.0,5.0;" x1="40" x2="40" y1="37.6094" y2="956.2891"/><line style="stroke:#181818;stroke-width:0.5;stroke-dasharray:5.0,5.0;" x1="210" x2="210" y1="37.6094" y2="956.2891"/><line style="stroke:#181818;stroke-width:0.5;stroke-dasharray:5.0,5.0;" x1="337.5" x2="337.5" y1="37.6094" y2="956.2891"/><line style="stroke:#181818;stroke-width:0.5;stroke-dasharray:5.0,5.0;" x1="532" x2="532" y1="37.6094" y2="956.2891"/><line style="stroke:#181818;stroke-width:0.5;stroke-dasharray:5.0,5.0;" x1="730.5" x2="730.5" y1="37.6094" y2="956.2891"/><line style="stroke:#181818;stroke-width:0.5;stroke-dasharray:5.0,5.0;" x1="815.5" x2="815.5" y1="37.6094" y2="956.2891"/><line style="stroke:#181818;stroke-width:0.5;stroke-dasharray:5.0,5.0;" x1="907.5" x2="907.5" y1="37.6094" y2="956.2891"/><line style="stroke:#181818;stroke-width:0.5;stroke-dasharray:5.0,5.0;" x1="991.5" x2="991.5" y1="37.6094" y2="956.2891"/><rect fill="#E2E2F0" height="31.6094" rx="2.5" ry="2.5" style="stroke:#181818;stroke-width:0.5;" width="41" x="20" y="5"/><text fill="#000000" font-family="sans-serif" font-size="14" lengthAdjust="spacing" textLength="27" x="27" y="26.5332">SPA</text><rect fill="#E2E2F0" height="31.6094" rx="2.5" ry="2.5" style="stroke:#181818;stroke-width:0.5;" width="41" x="20" y="955.2891"/><text fill="#000000" font-family="sans-serif" font-size="14" lengthAdjust="spacing" textLength="27" x="27" y="976.8223">SPA</text><rect fill="#E2E2F0" height="31.6094" rx="2.5" ry="2.5" style="stroke:#181818;stroke-width:0.5;" width="35" x="193" y="5"/><text fill="#000000" font-family="sans-serif" font-size="14" lengthAdjust="spacing" textLength="21" x="200" y="26.5332">API</text><rect fill="#E2E2F0" height="31.6094" rx="2.5" ry="2.5" style="stroke:#181818;stroke-width:0.5;" width="35" x="193" y="955.2891"/><text fill="#000000" font-family="sans-serif" font-size="14" lengthAdjust="spacing" textLength="21" x="200" y="976.8223">API</text><rect fill="#E2E2F0" height="31.6094" rx="2.5" ry="2.5" style="stroke:#181818;stroke-width:0.5;" width="120" x="277.5" y="5"/><text fill="#000000" font-family="sans-serif" font-size="14" lengthAdjust="spacing" textLength="106" x="284.5" y="26.5332">PatientController</text><rect fill="#E2E2F0" height="31.6094" rx="2.5" ry="2.5" style="stroke:#181818;stroke-width:0.5;" width="120" x="277.5" y="955.2891"/><text fill="#000000" font-family="sans-serif" font-size="14" lengthAdjust="spacing" textLength="106" x="284.5" y="976.8223">PatientController</text><rect fill="#E2E2F0" height="31.6094" rx="2.5" ry="2.5" style="stroke:#181818;stroke-width:0.5;" width="105" x="480" y="5"/><text fill="#000000" font-family="sans-serif" font-size="14" lengthAdjust="spacing" textLength="91" x="487" y="26.5332">PatientService</text><rect fill="#E2E2F0" height="31.6094" rx="2.5" ry="2.5" style="stroke:#181818;stroke-width:0.5;" width="105" x="480" y="955.2891"/><text fill="#000000" font-family="sans-serif" font-size="14" lengthAdjust="spacing" textLength="91" x="487" y="976.8223">PatientService</text><rect fill="#E2E2F0" height="31.6094" rx="2.5" ry="2.5" style="stroke:#181818;stroke-width:0.5;" width="92" x="684.5" y="5"/><text fill="#000000" font-family="sans-serif" font-size="14" lengthAdjust="spacing" textLength="78" x="691.5" y="26.5332">PatientRepo</text><rect fill="#E2E2F0" height="31.6094" rx="2.5" ry="2.5" style="stroke:#181818;stroke-width:0.5;" width="92" x="684.5" y="955.2891"/><text fill="#000000" font-family="sans-serif" font-size="14" lengthAdjust="spacing" textLength="78" x="691.5" y="976.8223">PatientRepo</text><rect fill="#E2E2F0" height="31.6094" rx="2.5" ry="2.5" style="stroke:#181818;stroke-width:0.5;" width="58" x="786.5" y="5"/><text fill="#000000" font-family="sans-serif" font-size="14" lengthAdjust="spacing" textLength="44" x="793.5" y="26.5332">Patient</text><rect fill="#E2E2F0" height="31.6094" rx="2.5" ry="2.5" style="stroke:#181818;stroke-width:0.5;" width="58" x="786.5" y="955.2891"/><text fill="#000000" font-family="sans-serif" font-size="14" lengthAdjust="spacing" textLength="44" x="793.5" y="976.8223">Patient</text><rect fill="#E2E2F0" height="31.6094" rx="2.5" ry="2.5" style="stroke:#181818;stroke-width:0.5;" width="106" x="854.5" y="5"/><text fill="#000000" font-family="sans-serif" font-size="14" lengthAdjust="spacing" textLength="92" x="861.5" y="26.5332">PatientMapper</text><rect fill="#E2E2F0" height="31.6094" rx="2.5" ry="2.5" style="stroke:#181818;stroke-width:0.5;" width="106" x="854.5" y="955.2891"/><text fill="#000000" font-family="sans-serif" font-size="14" lengthAdjust="spacing" textLength="92" x="861.5" y="976.8223">PatientMapper</text><rect fill="#E2E2F0" height="31.6094" rx="2.5" ry="2.5" style="stroke:#181818;stroke-width:0.5;" width="43" x="970.5" y="5"/><text fill="#000000" font-family="sans-serif" font-size="14" lengthAdjust="spacing" textLength="29" x="977.5" y="26.5332">User</text><rect fill="#E2E2F0" height="31.6094" rx="2.5" ry="2.5" style="stroke:#181818;stroke-width:0.5;" width="43" x="970.5" y="955.2891"/><text fill="#000000" font-family="sans-serif" font-size="14" lengthAdjust="spacing" textLength="29" x="977.5" y="976.8223">User</text><rect fill="#FFFFFF" height="899.6797" style="stroke:#181818;stroke-width:1.0;" width="10" x="35.5" y="47.6094"/><rect fill="#FFFFFF" height="552.8125" style="stroke:#181818;stroke-width:1.0;" width="10" x="40.5" y="393.4766"/><rect fill="#FFFFFF" height="212.4609" style="stroke:#181818;stroke-width:1.0;" width="10" x="205.5" y="106.3125"/><rect fill="#FFFFFF" height="394.5703" style="stroke:#181818;stroke-width:1.0;" width="10" x="205.5" y="454.1797"/><rect fill="#FFFFFF" height="151.7578" style="stroke:#181818;stroke-width:1.0;" width="10" x="332.5" y="136.6641"/><rect fill="#FFFFFF" height="333.8672" style="stroke:#181818;stroke-width:1.0;" width="10" x="332.5" y="484.5313"/><rect fill="#FFFFFF" height="121.4063" style="stroke:#181818;stroke-width:1.0;" width="10" x="527.5" y="167.0156"/><rect fill="#FFFFFF" height="273.1641" style="stroke:#181818;stroke-width:1.0;" width="10" x="527.5" y="514.8828"/><rect fill="#FFFFFF" height="30.3516" style="stroke:#181818;stroke-width:1.0;" width="10" x="725.5" y="197.3672"/><rect fill="#FFFFFF" height="30.3516" style="stroke:#181818;stroke-width:1.0;" width="10" x="725.5" y="545.2344"/><rect fill="#FFFFFF" height="30.3516" style="stroke:#181818;stroke-width:1.0;" width="10" x="725.5" y="666.6406"/><rect fill="#FFFFFF" height="30.3516" style="stroke:#181818;stroke-width:1.0;" width="10" x="810.5" y="605.9375"/><rect fill="#FFFFFF" height="30.3516" style="stroke:#181818;stroke-width:1.0;" width="10" x="902.5" y="727.3438"/><path d="M50,52.6094 L50,78.6094 L209,78.6094 L209,62.6094 L199,52.6094 L50,52.6094 " fill="#FEFFDD" style="stroke:#181818;stroke-width:0.5;"/><path d="M199,52.6094 L199,62.6094 L209,62.6094 L199,52.6094 " fill="#FEFFDD" style="stroke:#181818;stroke-width:0.5;"/><text fill="#000000" font-family="sans-serif" font-size="13" lengthAdjust="spacing" textLength="138" x="56" y="71.1045">Single Page Application</text><polygon fill="#181818" points="193.5,102.3125,203.5,106.3125,193.5,110.3125,197.5,106.3125" style="stroke:#181818;stroke-width:1.0;"/><line style="stroke:#181818;stroke-width:1.0;" x1="45.5" x2="199.5" y1="106.3125" y2="106.3125"/><text fill="#000000" font-family="sans-serif" font-size="13" lengthAdjust="spacing" textLength="97" x="52.5" y="101.4561">get(/api/patients)</text><polygon fill="#181818" points="320.5,132.6641,330.5,136.6641,320.5,140.6641,324.5,136.6641" style="stroke:#181818;stroke-width:1.0;"/><line style="stroke:#181818;stroke-width:1.0;" x1="215.5" x2="326.5" y1="136.6641" y2="136.6641"/><text fill="#000000" font-family="sans-serif" font-size="13" lengthAdjust="spacing" textLength="18" x="222.5" y="131.8076">get</text><polygon fill="#181818" points="515.5,163.0156,525.5,167.0156,515.5,171.0156,519.5,167.0156" style="stroke:#181818;stroke-width:1.0;"/><line style="stroke:#181818;stroke-width:1.0;" x1="342.5" x2="521.5" y1="167.0156" y2="167.0156"/><text fill="#000000" font-family="sans-serif" font-size="13" lengthAdjust="spacing" textLength="139" x="349.5" y="162.1592">getPatients(patientDTO)</text><polygon fill="#181818" points="713.5,193.3672,723.5,197.3672,713.5,201.3672,717.5,197.3672" style="stroke:#181818;stroke-width:1.0;"/><line style="stroke:#181818;stroke-width:1.0;" x1="537.5" x2="719.5" y1="197.3672" y2="197.3672"/><text fill="#000000" font-family="sans-serif" font-size="13" lengthAdjust="spacing" textLength="43" x="544.5" y="192.5107">findAll()</text><polygon fill="#181818" points="548.5,223.7188,538.5,227.7188,548.5,231.7188,544.5,227.7188" style="stroke:#181818;stroke-width:1.0;"/><line style="stroke:#181818;stroke-width:1.0;stroke-dasharray:2.0,2.0;" x1="542.5" x2="729.5" y1="227.7188" y2="227.7188"/><text fill="#000000" font-family="sans-serif" font-size="13" lengthAdjust="spacing" textLength="46" x="554.5" y="222.8623">patients</text><polygon fill="#181818" points="353.5,254.0703,343.5,258.0703,353.5,262.0703,349.5,258.0703" style="stroke:#181818;stroke-width:1.0;"/><line style="stroke:#181818;stroke-width:1.0;" x1="347.5" x2="526.5" y1="258.0703" y2="258.0703"/><text fill="#000000" font-family="sans-serif" font-size="13" lengthAdjust="spacing" textLength="46" x="359.5" y="253.2139">patients</text><polygon fill="#181818" points="226.5,284.4219,216.5,288.4219,226.5,292.4219,222.5,288.4219" style="stroke:#181818;stroke-width:1.0;"/><line style="stroke:#181818;stroke-width:1.0;stroke-dasharray:2.0,2.0;" x1="220.5" x2="336.5" y1="288.4219" y2="288.4219"/><text fill="#000000" font-family="sans-serif" font-size="13" lengthAdjust="spacing" textLength="93" x="232.5" y="283.5654">status code 200</text><polygon fill="#181818" points="56.5,314.7734,46.5,318.7734,56.5,322.7734,52.5,318.7734" style="stroke:#181818;stroke-width:1.0;"/><line style="stroke:#181818;stroke-width:1.0;stroke-dasharray:2.0,2.0;" x1="50.5" x2="209.5" y1="318.7734" y2="318.7734"/><text fill="#000000" font-family="sans-serif" font-size="13" lengthAdjust="spacing" textLength="87" x="62.5" y="313.917">shows patients</text><path d="M50,331.7734 L50,357.7734 L201,357.7734 L201,341.7734 L191,331.7734 L50,331.7734 " fill="#FEFFDD" style="stroke:#181818;stroke-width:0.5;"/><path d="M191,331.7734 L191,341.7734 L201,341.7734 L191,331.7734 " fill="#FEFFDD" style="stroke:#181818;stroke-width:0.5;"/><text fill="#000000" font-family="sans-serif" font-size="13" lengthAdjust="spacing" textLength="130" x="56" y="350.2686">Admin types patient id</text><line style="stroke:#181818;stroke-width:1.0;" x1="45.5" x2="92.5" y1="380.4766" y2="380.4766"/><line style="stroke:#181818;stroke-width:1.0;" x1="92.5" x2="92.5" y1="380.4766" y2="393.4766"/><line style="stroke:#181818;stroke-width:1.0;" x1="51.5" x2="92.5" y1="393.4766" y2="393.4766"/><polygon fill="#181818" points="61.5,389.4766,51.5,393.4766,61.5,397.4766,57.5,393.4766" style="stroke:#181818;stroke-width:1.0;"/><text fill="#000000" font-family="sans-serif" font-size="13" lengthAdjust="spacing" textLength="100" x="57.5" y="375.6201">Confirm deletion?</text><path d="M10,413.4766 L71,413.4766 L71,421.8281 L61,431.8281 L10,431.8281 L10,413.4766 " fill="#EEEEEE" style="stroke:#000000;stroke-width:1.5;"/><rect fill="none" height="525.8125" style="stroke:#000000;stroke-width:1.5;" width="1013.5" x="10" y="413.4766"/><text fill="#000000" font-family="sans-serif" font-size="13" font-weight="bold" lengthAdjust="spacing" textLength="16" x="25" y="427.9717">alt</text><text fill="#000000" font-family="sans-serif" font-size="11" font-weight="bold" lengthAdjust="spacing" textLength="129" x="86" y="426.8955">[confirmation received]</text><polygon fill="#181818" points="193.5,450.1797,203.5,454.1797,193.5,458.1797,197.5,454.1797" style="stroke:#181818;stroke-width:1.0;"/><line style="stroke:#181818;stroke-width:1.0;" x1="50.5" x2="199.5" y1="454.1797" y2="454.1797"/><text fill="#000000" font-family="sans-serif" font-size="13" lengthAdjust="spacing" textLength="136" x="57.5" y="449.3232">delete(/api/patients/{id})</text><polygon fill="#181818" points="320.5,480.5313,330.5,484.5313,320.5,488.5313,324.5,484.5313" style="stroke:#181818;stroke-width:1.0;"/><line style="stroke:#181818;stroke-width:1.0;" x1="215.5" x2="326.5" y1="484.5313" y2="484.5313"/><text fill="#000000" font-family="sans-serif" font-size="13" lengthAdjust="spacing" textLength="78" x="222.5" y="479.6748">delete patient</text><polygon fill="#181818" points="515.5,510.8828,525.5,514.8828,515.5,518.8828,519.5,514.8828" style="stroke:#181818;stroke-width:1.0;"/><line style="stroke:#181818;stroke-width:1.0;" x1="342.5" x2="521.5" y1="514.8828" y2="514.8828"/><text fill="#000000" font-family="sans-serif" font-size="13" lengthAdjust="spacing" textLength="149" x="349.5" y="510.0264">deletePatient(patientDTO)</text><polygon fill="#181818" points="713.5,541.2344,723.5,545.2344,713.5,549.2344,717.5,545.2344" style="stroke:#181818;stroke-width:1.0;"/><line style="stroke:#181818;stroke-width:1.0;" x1="537.5" x2="719.5" y1="545.2344" y2="545.2344"/><text fill="#000000" font-family="sans-serif" font-size="13" lengthAdjust="spacing" textLength="151" x="544.5" y="540.3779">findByDomainId(patient.id)</text><polygon fill="#181818" points="548.5,571.5859,538.5,575.5859,548.5,579.5859,544.5,575.5859" style="stroke:#181818;stroke-width:1.0;"/><line style="stroke:#181818;stroke-width:1.0;stroke-dasharray:2.0,2.0;" x1="542.5" x2="729.5" y1="575.5859" y2="575.5859"/><text fill="#000000" font-family="sans-serif" font-size="13" lengthAdjust="spacing" textLength="39" x="554.5" y="570.7295">patient</text><polygon fill="#181818" points="798.5,601.9375,808.5,605.9375,798.5,609.9375,802.5,605.9375" style="stroke:#181818;stroke-width:1.0;"/><line style="stroke:#181818;stroke-width:1.0;" x1="537.5" x2="804.5" y1="605.9375" y2="605.9375"/><text fill="#000000" font-family="sans-serif" font-size="13" lengthAdjust="spacing" textLength="98" x="544.5" y="601.0811">anonymizeData()</text><polygon fill="#181818" points="548.5,632.2891,538.5,636.2891,548.5,640.2891,544.5,636.2891" style="stroke:#181818;stroke-width:1.0;"/><line style="stroke:#181818;stroke-width:1.0;" x1="542.5" x2="814.5" y1="636.2891" y2="636.2891"/><text fill="#000000" font-family="sans-serif" font-size="13" lengthAdjust="spacing" textLength="135" x="554.5" y="631.4326">anonymousPatientData</text><polygon fill="#181818" points="713.5,662.6406,723.5,666.6406,713.5,670.6406,717.5,666.6406" style="stroke:#181818;stroke-width:1.0;"/><line style="stroke:#181818;stroke-width:1.0;" x1="537.5" x2="719.5" y1="666.6406" y2="666.6406"/><text fill="#000000" font-family="sans-serif" font-size="13" lengthAdjust="spacing" textLength="169" x="544.5" y="661.7842">save(anonymousPatientData)</text><polygon fill="#181818" points="548.5,692.9922,538.5,696.9922,548.5,700.9922,544.5,696.9922" style="stroke:#181818;stroke-width:1.0;"/><line style="stroke:#181818;stroke-width:1.0;stroke-dasharray:2.0,2.0;" x1="542.5" x2="729.5" y1="696.9922" y2="696.9922"/><text fill="#000000" font-family="sans-serif" font-size="13" lengthAdjust="spacing" textLength="36" x="554.5" y="692.1357">status</text><polygon fill="#181818" points="890.5,723.3438,900.5,727.3438,890.5,731.3438,894.5,727.3438" style="stroke:#181818;stroke-width:1.0;"/><line style="stroke:#181818;stroke-width:1.0;" x1="537.5" x2="896.5" y1="727.3438" y2="727.3438"/><text fill="#000000" font-family="sans-serif" font-size="13" lengthAdjust="spacing" textLength="180" x="544.5" y="722.4873">toDTO(anonymousPatientData)</text><polygon fill="#181818" points="548.5,753.6953,538.5,757.6953,548.5,761.6953,544.5,757.6953" style="stroke:#181818;stroke-width:1.0;"/><line style="stroke:#181818;stroke-width:1.0;stroke-dasharray:2.0,2.0;" x1="542.5" x2="906.5" y1="757.6953" y2="757.6953"/><text fill="#000000" font-family="sans-serif" font-size="13" lengthAdjust="spacing" textLength="161" x="554.5" y="752.8389">anonymousPatientDataDTO</text><polygon fill="#181818" points="353.5,784.0469,343.5,788.0469,353.5,792.0469,349.5,788.0469" style="stroke:#181818;stroke-width:1.0;"/><line style="stroke:#181818;stroke-width:1.0;stroke-dasharray:2.0,2.0;" x1="347.5" x2="531.5" y1="788.0469" y2="788.0469"/><text fill="#000000" font-family="sans-serif" font-size="13" lengthAdjust="spacing" textLength="161" x="359.5" y="783.1904">anonymousPatientDataDTO</text><polygon fill="#181818" points="226.5,814.3984,216.5,818.3984,226.5,822.3984,222.5,818.3984" style="stroke:#181818;stroke-width:1.0;"/><line style="stroke:#181818;stroke-width:1.0;stroke-dasharray:2.0,2.0;" x1="220.5" x2="336.5" y1="818.3984" y2="818.3984"/><text fill="#000000" font-family="sans-serif" font-size="13" lengthAdjust="spacing" textLength="93" x="232.5" y="813.542">status code 204</text><polygon fill="#181818" points="61.5,844.75,51.5,848.75,61.5,852.75,57.5,848.75" style="stroke:#181818;stroke-width:1.0;"/><line style="stroke:#181818;stroke-width:1.0;stroke-dasharray:2.0,2.0;" x1="55.5" x2="209.5" y1="848.75" y2="848.75"/><text fill="#000000" font-family="sans-serif" font-size="13" lengthAdjust="spacing" textLength="49" x="67.5" y="843.8936">success</text><path d="M342,861.75 L342,887.75 L619,887.75 L619,871.75 L609,861.75 L342,861.75 " fill="#FEFFDD" style="stroke:#181818;stroke-width:0.5;"/><path d="M609,861.75 L609,871.75 L619,871.75 L609,861.75 " fill="#FEFFDD" style="stroke:#181818;stroke-width:0.5;"/><text fill="#000000" font-family="sans-serif" font-size="13" lengthAdjust="spacing" textLength="256" x="348" y="880.2451">Log deletion for audit and GDPR compliance</text><line style="stroke:#000000;stroke-width:1.0;stroke-dasharray:2.0,2.0;" x1="10" x2="1023.5" y1="894.1016" y2="894.1016"/><text fill="#000000" font-family="sans-serif" font-size="11" font-weight="bold" lengthAdjust="spacing" textLength="73" x="15" y="905.5205">[cancellation]</text><polygon fill="#181818" points="980,927.2891,990,931.2891,980,935.2891,984,931.2891" style="stroke:#181818;stroke-width:1.0;"/><line style="stroke:#181818;stroke-width:1.0;stroke-dasharray:2.0,2.0;" x1="50.5" x2="986" y1="931.2891" y2="931.2891"/><text fill="#000000" font-family="sans-serif" font-size="13" lengthAdjust="spacing" textLength="106" x="57.5" y="926.4326">Deletion cancelled</text><!--SRC=[fPNFZjCm4CRlVeevfeVIrOeJ1r0Wqceb4D4M7i2AfrrBZXt5Rb51l3jZEtytJkb2JvNzpM_6uyyJNZbvvWvXN-QCQKF_MdbyTc0EOMalzL4XbFo8a3UDaXLtqcY6Ma1GCqOosBw7l7o4Tt14b-ru8tSDwL0xks6yJq4AnhoCr6NS_cIqQurIsCROKRmGCBQC6K5xRC-omaZfrcpM5L5y-xfPaBk80TiJHkOJDeQ01wb5hbIsH7W1cugtgOBwJZ21IS1w0UD99vH45uRkMyVToK9b1CBztLqYOt_gvSwqq-6IYEglbgZFveTD7YFSwD8qkQYb1dTfS0W3AGRF39Q9U4fya6qD0XLwRtqO-nnCoPMZ4mLDy1wqMA4yes10lvdx0WBd1jpzakBt9cZdTVkLAswChBx-UNoYPNx_DeD6SBSyisWgns3JIOAhLlruAKpDfNuKFVkD56bsiD-4-rSF1_6QZQyMI0okZRxKyYSMtF4iNT4KacnUX9YJxNOyQwMgsrfc-Hcp5FL_MnRVuhztx0jlcc14PyWShoWn1axX7MfxQqCftqhT7JjP-SexUbs2bDrl67LlLt0lN-YBmNQgAhIBEngcmtooBP5UyzaSXya51zC2FmdfwDG27ehoYGgiwQl9DPt9oySPYCeYL7v3gVXD7SOP5VZTXkOLFRaJOfYYR3g3AU8F]--></g></svg>