<?xml version="1.0" encoding="us-ascii" standalone="no"?><svg xmlns="http://www.w3.org/2000/svg" xmlns:xlink="http://www.w3.org/1999/xlink" contentStyleType="text/css" height="797px" preserveAspectRatio="none" style="width:659px;height:797px;background:#FFFFFF;" version="1.1" viewBox="0 0 659 797" width="659px" zoomAndPan="magnify"><defs/><g><!--cluster Frameworks & Drivers--><g id="cluster_Frameworks &amp; Drivers"><path d="M143.5,6 L300.5,6 A3.75,3.75 0 0 1 303,8.5 L310,29.6094 L396.5,29.6094 A2.5,2.5 0 0 1 399,32.1094 L399,103.5 A2.5,2.5 0 0 1 396.5,106 L143.5,106 A2.5,2.5 0 0 1 141,103.5 L141,8.5 A2.5,2.5 0 0 1 143.5,6 " fill="none" style="stroke:#000000;stroke-width:1.5;"/><line style="stroke:#000000;stroke-width:1.5;" x1="141" x2="310" y1="29.6094" y2="29.6094"/><text fill="#000000" font-family="sans-serif" font-size="14" font-weight="bold" lengthAdjust="spacing" textLength="156" x="145" y="22.5332">Frameworks &amp; Drivers</text></g><!--cluster Interface Adapters--><g id="cluster_Interface Adapters"><path d="M169.5,234 L300.5,234 A3.75,3.75 0 0 1 303,236.5 L310,257.6094 L460.5,257.6094 A2.5,2.5 0 0 1 463,260.1094 L463,331.5 A2.5,2.5 0 0 1 460.5,334 L169.5,334 A2.5,2.5 0 0 1 167,331.5 L167,236.5 A2.5,2.5 0 0 1 169.5,234 " fill="none" style="stroke:#000000;stroke-width:1.5;"/><line style="stroke:#000000;stroke-width:1.5;" x1="167" x2="310" y1="257.6094" y2="257.6094"/><text fill="#000000" font-family="sans-serif" font-size="14" font-weight="bold" lengthAdjust="spacing" textLength="130" x="171" y="250.5332">Interface Adapters</text></g><!--cluster Application Business Rules--><g id="cluster_Application Business Rules"><path d="M53.5,462 L245.5,462 A3.75,3.75 0 0 1 248,464.5 L255,485.6094 L255.5,485.6094 A2.5,2.5 0 0 1 258,488.1094 L258,559.5 A2.5,2.5 0 0 1 255.5,562 L53.5,562 A2.5,2.5 0 0 1 51,559.5 L51,464.5 A2.5,2.5 0 0 1 53.5,462 " fill="none" style="stroke:#000000;stroke-width:1.5;"/><line style="stroke:#000000;stroke-width:1.5;" x1="51" x2="255" y1="485.6094" y2="485.6094"/><text fill="#000000" font-family="sans-serif" font-size="14" font-weight="bold" lengthAdjust="spacing" textLength="191" x="55" y="478.5332">Application Business Rules</text></g><!--cluster Enterprise Business Rules--><g id="cluster_Enterprise Business Rules"><path d="M145.5,690 L333.5,690 A3.75,3.75 0 0 1 336,692.5 L343,713.6094 L343.5,713.6094 A2.5,2.5 0 0 1 346,716.1094 L346,787.5 A2.5,2.5 0 0 1 343.5,790 L145.5,790 A2.5,2.5 0 0 1 143,787.5 L143,692.5 A2.5,2.5 0 0 1 145.5,690 " fill="none" style="stroke:#000000;stroke-width:1.5;"/><line style="stroke:#000000;stroke-width:1.5;" x1="143" x2="343" y1="713.6094" y2="713.6094"/><text fill="#000000" font-family="sans-serif" font-size="14" font-weight="bold" lengthAdjust="spacing" textLength="187" x="147" y="706.5332">Enterprise Business Rules</text></g><!--entity Database--><g id="elem_Database"><rect fill="#F1F1F1" height="47.6094" rx="2.5" ry="2.5" style="stroke:#181818;stroke-width:0.5;" width="101" x="157.5" y="42"/><rect fill="#F1F1F1" height="10" style="stroke:#181818;stroke-width:0.5;" width="15" x="238.5" y="47"/><rect fill="#F1F1F1" height="2" style="stroke:#181818;stroke-width:0.5;" width="4" x="236.5" y="49"/><rect fill="#F1F1F1" height="2" style="stroke:#181818;stroke-width:0.5;" width="4" x="236.5" y="53"/><text fill="#000000" font-family="sans-serif" font-size="14" lengthAdjust="spacing" textLength="61" x="172.5" y="76.5332">Database</text></g><!--entity Routing--><g id="elem_Routing"><rect fill="#F1F1F1" height="47.6094" rx="2.5" ry="2.5" style="stroke:#181818;stroke-width:0.5;" width="89" x="293.5" y="42"/><rect fill="#F1F1F1" height="10" style="stroke:#181818;stroke-width:0.5;" width="15" x="362.5" y="47"/><rect fill="#F1F1F1" height="2" style="stroke:#181818;stroke-width:0.5;" width="4" x="360.5" y="49"/><rect fill="#F1F1F1" height="2" style="stroke:#181818;stroke-width:0.5;" width="4" x="360.5" y="53"/><text fill="#000000" font-family="sans-serif" font-size="14" lengthAdjust="spacing" textLength="49" x="308.5" y="76.5332">Routing</text></g><!--entity Repositories--><g id="elem_Repositories"><rect fill="#F1F1F1" height="47.6094" rx="2.5" ry="2.5" style="stroke:#181818;stroke-width:0.5;" width="119" x="183.5" y="270"/><rect fill="#F1F1F1" height="10" style="stroke:#181818;stroke-width:0.5;" width="15" x="282.5" y="275"/><rect fill="#F1F1F1" height="2" style="stroke:#181818;stroke-width:0.5;" width="4" x="280.5" y="277"/><rect fill="#F1F1F1" height="2" style="stroke:#181818;stroke-width:0.5;" width="4" x="280.5" y="281"/><text fill="#000000" font-family="sans-serif" font-size="14" lengthAdjust="spacing" textLength="79" x="198.5" y="304.5332">Repositories</text></g><!--entity Controllers--><g id="elem_Controllers"><rect fill="#F1F1F1" height="47.6094" rx="2.5" ry="2.5" style="stroke:#181818;stroke-width:0.5;" width="109" x="337.5" y="270"/><rect fill="#F1F1F1" height="10" style="stroke:#181818;stroke-width:0.5;" width="15" x="426.5" y="275"/><rect fill="#F1F1F1" height="2" style="stroke:#181818;stroke-width:0.5;" width="4" x="424.5" y="277"/><rect fill="#F1F1F1" height="2" style="stroke:#181818;stroke-width:0.5;" width="4" x="424.5" y="281"/><text fill="#000000" font-family="sans-serif" font-size="14" lengthAdjust="spacing" textLength="69" x="352.5" y="304.5332">Controllers</text></g><!--entity Services--><g id="elem_Services"><rect fill="#F1F1F1" height="47.6094" rx="2.5" ry="2.5" style="stroke:#181818;stroke-width:0.5;" width="94" x="146" y="498"/><rect fill="#F1F1F1" height="10" style="stroke:#181818;stroke-width:0.5;" width="15" x="220" y="503"/><rect fill="#F1F1F1" height="2" style="stroke:#181818;stroke-width:0.5;" width="4" x="218" y="505"/><rect fill="#F1F1F1" height="2" style="stroke:#181818;stroke-width:0.5;" width="4" x="218" y="509"/><text fill="#000000" font-family="sans-serif" font-size="14" lengthAdjust="spacing" textLength="54" x="161" y="532.5332">Services</text></g><!--entity Domain--><g id="elem_Domain"><rect fill="#F1F1F1" height="47.6094" rx="2.5" ry="2.5" style="stroke:#181818;stroke-width:0.5;" width="88" x="199" y="726"/><rect fill="#F1F1F1" height="10" style="stroke:#181818;stroke-width:0.5;" width="15" x="267" y="731"/><rect fill="#F1F1F1" height="2" style="stroke:#181818;stroke-width:0.5;" width="4" x="265" y="733"/><rect fill="#F1F1F1" height="2" style="stroke:#181818;stroke-width:0.5;" width="4" x="265" y="737"/><text fill="#000000" font-family="sans-serif" font-size="14" lengthAdjust="spacing" textLength="48" x="214" y="760.5332">Domain</text></g><!--entity DTO--><g id="elem_DTO"><rect fill="#F1F1F1" height="47.6094" rx="2.5" ry="2.5" style="stroke:#181818;stroke-width:0.5;" width="70" x="583" y="156"/><rect fill="#F1F1F1" height="10" style="stroke:#181818;stroke-width:0.5;" width="15" x="633" y="161"/><rect fill="#F1F1F1" height="2" style="stroke:#181818;stroke-width:0.5;" width="4" x="631" y="163"/><rect fill="#F1F1F1" height="2" style="stroke:#181818;stroke-width:0.5;" width="4" x="631" y="167"/><text fill="#000000" font-family="sans-serif" font-size="14" lengthAdjust="spacing" textLength="30" x="598" y="190.5332">DTO</text></g><!--entity Data_Model--><g id="elem_Data_Model"><rect fill="#F1F1F1" height="47.6094" rx="2.5" ry="2.5" style="stroke:#181818;stroke-width:0.5;" width="116" x="238" y="156"/><rect fill="#F1F1F1" height="10" style="stroke:#181818;stroke-width:0.5;" width="15" x="334" y="161"/><rect fill="#F1F1F1" height="2" style="stroke:#181818;stroke-width:0.5;" width="4" x="332" y="163"/><rect fill="#F1F1F1" height="2" style="stroke:#181818;stroke-width:0.5;" width="4" x="332" y="167"/><text fill="#000000" font-family="sans-serif" font-size="14" lengthAdjust="spacing" textLength="76" x="253" y="190.5332">Data_Model</text></g><!--entity Data_Model_API--><g id="elem_Data_Model_API"><ellipse cx="194" cy="180" fill="#F1F1F1" rx="8" ry="8" style="stroke:#181818;stroke-width:0.5;"/><text fill="#000000" font-family="sans-serif" font-size="14" lengthAdjust="spacing" textLength="105" x="141.5" y="211.5332">Data_Model_API</text></g><!--entity Database_Driver_API--><g id="elem_Database_Driver_API"><ellipse cx="74" cy="180" fill="#F1F1F1" rx="8" ry="8" style="stroke:#181818;stroke-width:0.5;"/><text fill="#000000" font-family="sans-serif" font-size="14" lengthAdjust="spacing" textLength="136" x="6" y="211.5332">Database_Driver_API</text></g><!--entity DTO_API--><g id="elem_DTO_API"><ellipse cx="539" cy="180" fill="#F1F1F1" rx="8" ry="8" style="stroke:#181818;stroke-width:0.5;"/><text fill="#000000" font-family="sans-serif" font-size="14" lengthAdjust="spacing" textLength="59" x="509.5" y="211.5332">DTO_API</text></g><!--entity Controller_API--><g id="elem_Controller_API"><ellipse cx="442" cy="180" fill="#F1F1F1" rx="8" ry="8" style="stroke:#181818;stroke-width:0.5;"/><text fill="#000000" font-family="sans-serif" font-size="14" lengthAdjust="spacing" textLength="91" x="396.5" y="211.5332">Controller_API</text></g><!--entity Service_API--><g id="elem_Service_API"><ellipse cx="392" cy="408" fill="#F1F1F1" rx="8" ry="8" style="stroke:#181818;stroke-width:0.5;"/><text fill="#000000" font-family="sans-serif" font-size="14" lengthAdjust="spacing" textLength="76" x="354" y="439.5332">Service_API</text></g><!--entity Repo_API--><g id="elem_Repo_API"><ellipse cx="197" cy="408" fill="#F1F1F1" rx="8" ry="8" style="stroke:#181818;stroke-width:0.5;"/><text fill="#000000" font-family="sans-serif" font-size="14" lengthAdjust="spacing" textLength="63" x="165.5" y="439.5332">Repo_API</text></g><!--entity Model_API--><g id="elem_Model_API"><ellipse cx="243" cy="636" fill="#F1F1F1" rx="8" ry="8" style="stroke:#181818;stroke-width:0.5;"/><text fill="#000000" font-family="sans-serif" font-size="14" lengthAdjust="spacing" textLength="67" x="209.5" y="667.5332">Model_API</text></g><!--link Database to Data_Model_API--><g id="link_Database_Data_Model_API"><path d="M205.1,90.21 C201.96,115.32 197.12,154.03 195.03,170.79 " fill="none" id="Database-Data_Model_API" style="stroke:#181818;stroke-width:1.0;"/></g><!--link Database to Database_Driver_API--><g id="link_Database_Database_Driver_API"><path d="M180.24,90.21 C149.88,115.58 102.93,154.82 83.21,171.3 " fill="none" id="Database-Database_Driver_API" style="stroke:#181818;stroke-width:1.0;"/></g><!--link Data_Model_API to Data_Model--><g id="link_Data_Model_API_Data_Model"><path d="M203.16,180 C214.77,180 226.37,180 237.98,180 " fill="none" id="Data_Model_API-Data_Model" style="stroke:#181818;stroke-width:1.0;"/></g><!--link Routing to DTO_API--><g id="link_Routing_DTO_API"><path d="M382.75,82.53 C419.8,96.67 472.72,119.92 513,150 C520.91,155.91 528.25,164.51 533.11,170.81 " fill="none" id="Routing-DTO_API" style="stroke:#181818;stroke-width:1.0;"/></g><!--link Routing to Controller_API--><g id="link_Routing_Controller_API"><path d="M359.55,90.21 C382.87,115.32 418.81,154.03 434.38,170.79 " fill="none" id="Routing-Controller_API" style="stroke:#181818;stroke-width:1.0;"/></g><!--link DTO_API to DTO--><g id="link_DTO_API_DTO"><path d="M548.26,180 C559.79,180 571.32,180 582.86,180 " fill="none" id="DTO_API-DTO" style="stroke:#181818;stroke-width:1.0;"/></g><!--link Controller_API to Controllers--><g id="link_Controller_API_Controllers"><path d="M438.4,189.05 C430.97,205.71 413.67,244.47 402.42,269.67 " fill="none" id="Controller_API-Controllers" style="stroke:#181818;stroke-width:1.0;"/></g><!--link DTO_API to Controllers--><g id="link_DTO_API_Controllers"><path d="M532.63,189.11 C527.63,195.2 520.32,203.58 513,210 C487.25,232.61 455.16,254.37 430.5,269.94 " fill="none" id="DTO_API-Controllers" style="stroke:#181818;stroke-width:1.0;"/></g><!--link Data_Model_API to Repositories--><g id="link_Data_Model_API_Repositories"><path d="M197.52,189.05 C204.81,205.71 221.77,244.47 232.79,269.67 " fill="none" id="Data_Model_API-Repositories" style="stroke:#181818;stroke-width:1.0;"/></g><!--link Database_Driver_API to Repositories--><g id="link_Database_Driver_API_Repositories"><path d="M83.09,187.02 C106.26,202.38 168.53,243.65 208.18,269.92 " fill="none" id="Database_Driver_API-Repositories" style="stroke:#181818;stroke-width:1.0;"/></g><!--link Controllers to Service_API--><g id="link_Controllers_Service_API"><path d="M392,318.21 C392,343.32 392,382.03 392,398.79 " fill="none" id="Controllers-Service_API" style="stroke:#181818;stroke-width:1.0;"/></g><!--link Repositories to Repo_API--><g id="link_Repositories_Repo_API"><path d="M233.47,318.21 C223.15,343.32 207.26,382.03 200.37,398.79 " fill="none" id="Repositories-Repo_API" style="stroke:#181818;stroke-width:1.0;"/></g><!--link Repositories to Model_API--><g id="link_Repositories_Model_API"><path d="M246.38,318.24 C252.77,365.67 265.21,477.01 256,570 C253.96,590.61 248.36,614.37 245.22,626.67 " fill="none" id="Repositories-Model_API" style="stroke:#181818;stroke-width:1.0;"/></g><!--link Service_API to Services--><g id="link_Service_API_Services"><path d="M382.93,414.1 C357.08,428.65 281.81,471.02 234.15,497.84 " fill="none" id="Service_API-Services" style="stroke:#181818;stroke-width:1.0;"/></g><!--link Repo_API to Services--><g id="link_Repo_API_Services"><path d="M196.71,417.05 C196.12,433.71 194.73,472.47 193.83,497.67 " fill="none" id="Repo_API-Services" style="stroke:#181818;stroke-width:1.0;"/></g><!--link Services to Model_API--><g id="link_Services_Model_API"><path d="M203.36,546.21 C214.57,571.32 231.85,610.03 239.34,626.79 " fill="none" id="Services-Model_API" style="stroke:#181818;stroke-width:1.0;"/></g><!--link Model_API to Domain--><g id="link_Model_API_Domain"><path d="M243,645.05 C243,661.71 243,700.47 243,725.67 " fill="none" id="Model_API-Domain" style="stroke:#181818;stroke-width:1.0;"/></g><!--SRC=[XL9DJuGm4BttLpHxa1DozuQYoHxC6jpibLGOiTdIDcrP3yR_Rldi1oHEqeIyUJFpvWt9bp5IFsIPP8IRlcFtjUWo-wJWm4tQKD8gqY4RajHNqW8-l5W0leMwQdo72qLleFG1_o1iOwt41J7aWsY8u5BqXl8M_IBaSSyd55PMhw81Xj3I1QUfXrVvst6J6hwhISwQTtJirwDPnLXwFerq3teIt2Z1sD9eOk2Hwnjnv0RK9wa1vmsHPh0XTg44AJGrGb7GKSfDqOCRuT1GXdOQ8ZZQCGq7xjYouNZjXjmxg1kjORB4uorrkmbtb2HgTvdCJUAA6NTUvb8oMXD31SUFlQOSjCPbps3hwInnT2svhBwiiBT2W2_ozyZH6axNyt1ZgQZzp_wHLOYEK1w9ci7WH3Dcumy0]--></g></svg>