<?xml version="1.0" encoding="us-ascii" standalone="no"?><svg xmlns="http://www.w3.org/2000/svg" xmlns:xlink="http://www.w3.org/1999/xlink" contentStyleType="text/css" height="612px" preserveAspectRatio="none" style="width:1420px;height:612px;background:#FFFFFF;" version="1.1" viewBox="0 0 1420 612" width="1420px" zoomAndPan="magnify"><defs/><g><text fill="#000000" font-family="sans-serif" font-size="14" font-weight="bold" lengthAdjust="spacing" textLength="271" x="567.5" y="24.5332">Frontend Architecture - React + Refine</text><!--cluster Frontend App--><g id="cluster_Frontend App"><path d="M8.5,44.6094 L105.5,44.6094 A3.75,3.75 0 0 1 108,47.1094 L115,68.2188 L1410.5,68.2188 A2.5,2.5 0 0 1 1413,70.7188 L1413,476.1094 A2.5,2.5 0 0 1 1410.5,478.6094 L8.5,478.6094 A2.5,2.5 0 0 1 6,476.1094 L6,47.1094 A2.5,2.5 0 0 1 8.5,44.6094 " fill="none" style="stroke:#000000;stroke-width:1.5;"/><line style="stroke:#000000;stroke-width:1.5;" x1="6" x2="115" y1="68.2188" y2="68.2188"/><text fill="#000000" font-family="sans-serif" font-size="14" font-weight="bold" lengthAdjust="spacing" textLength="96" x="10" y="61.1426">Frontend App</text></g><!--cluster UI Components--><g id="cluster_UI Components"><path d="M32.5,88.6094 L140.5,88.6094 A3.75,3.75 0 0 1 143,91.1094 L150,112.2188 L1386.5,112.2188 A2.5,2.5 0 0 1 1389,114.7188 L1389,186.1094 A2.5,2.5 0 0 1 1386.5,188.6094 L32.5,188.6094 A2.5,2.5 0 0 1 30,186.1094 L30,91.1094 A2.5,2.5 0 0 1 32.5,88.6094 " fill="none" style="stroke:#000000;stroke-width:1.5;"/><line style="stroke:#000000;stroke-width:1.5;" x1="30" x2="150" y1="112.2188" y2="112.2188"/><text fill="#000000" font-family="sans-serif" font-size="14" font-weight="bold" lengthAdjust="spacing" textLength="107" x="34" y="105.1426">UI Components</text></g><!--cluster Core Framework (Refine)--><g id="cluster_Core Framework (Refine)"><path d="M345.5,221.6094 L522.5,221.6094 A3.75,3.75 0 0 1 525,224.1094 L532,245.2188 L896.5,245.2188 A2.5,2.5 0 0 1 899,247.7188 L899,319.1094 A2.5,2.5 0 0 1 896.5,321.6094 L345.5,321.6094 A2.5,2.5 0 0 1 343,319.1094 L343,224.1094 A2.5,2.5 0 0 1 345.5,221.6094 " fill="none" style="stroke:#000000;stroke-width:1.5;"/><line style="stroke:#000000;stroke-width:1.5;" x1="343" x2="532" y1="245.2188" y2="245.2188"/><text fill="#000000" font-family="sans-serif" font-size="14" font-weight="bold" lengthAdjust="spacing" textLength="176" x="347" y="238.1426">Core Framework (Refine)</text></g><!--cluster Data & Auth Providers--><g id="cluster_Data &amp; Auth Providers"><path d="M510.5,354.6094 L665.5,354.6094 A3.75,3.75 0 0 1 668,357.1094 L675,378.2188 L1028.5,378.2188 A2.5,2.5 0 0 1 1031,380.7188 L1031,452.1094 A2.5,2.5 0 0 1 1028.5,454.6094 L510.5,454.6094 A2.5,2.5 0 0 1 508,452.1094 L508,357.1094 A2.5,2.5 0 0 1 510.5,354.6094 " fill="none" style="stroke:#000000;stroke-width:1.5;"/><line style="stroke:#000000;stroke-width:1.5;" x1="508" x2="675" y1="378.2188" y2="378.2188"/><text fill="#000000" font-family="sans-serif" font-size="14" font-weight="bold" lengthAdjust="spacing" textLength="154" x="512" y="371.1426">Data &amp; Auth Providers</text></g><!--cluster Routing--><g id="cluster_Routing"><path d="M330.5,354.6094 L386.5,354.6094 A3.75,3.75 0 0 1 389,357.1094 L396,378.2188 L481.5,378.2188 A2.5,2.5 0 0 1 484,380.7188 L484,452.1094 A2.5,2.5 0 0 1 481.5,454.6094 L330.5,454.6094 A2.5,2.5 0 0 1 328,452.1094 L328,357.1094 A2.5,2.5 0 0 1 330.5,354.6094 " fill="none" style="stroke:#000000;stroke-width:1.5;"/><line style="stroke:#000000;stroke-width:1.5;" x1="328" x2="396" y1="378.2188" y2="378.2188"/><text fill="#000000" font-family="sans-serif" font-size="14" font-weight="bold" lengthAdjust="spacing" textLength="55" x="332" y="371.1426">Routing</text></g><!--entity Layout--><g id="elem_Layout"><rect fill="#F1F1F1" height="47.6094" rx="2.5" ry="2.5" style="stroke:#181818;stroke-width:0.5;" width="83" x="46.5" y="124.6094"/><rect fill="#F1F1F1" height="10" style="stroke:#181818;stroke-width:0.5;" width="15" x="109.5" y="129.6094"/><rect fill="#F1F1F1" height="2" style="stroke:#181818;stroke-width:0.5;" width="4" x="107.5" y="131.6094"/><rect fill="#F1F1F1" height="2" style="stroke:#181818;stroke-width:0.5;" width="4" x="107.5" y="135.6094"/><text fill="#000000" font-family="sans-serif" font-size="14" lengthAdjust="spacing" textLength="43" x="61.5" y="159.1426">Layout</text></g><!--entity Dashboard--><g id="elem_Dashboard"><rect fill="#F1F1F1" height="47.6094" rx="2.5" ry="2.5" style="stroke:#181818;stroke-width:0.5;" width="110" x="165" y="124.6094"/><rect fill="#F1F1F1" height="10" style="stroke:#181818;stroke-width:0.5;" width="15" x="255" y="129.6094"/><rect fill="#F1F1F1" height="2" style="stroke:#181818;stroke-width:0.5;" width="4" x="253" y="131.6094"/><rect fill="#F1F1F1" height="2" style="stroke:#181818;stroke-width:0.5;" width="4" x="253" y="135.6094"/><text fill="#000000" font-family="sans-serif" font-size="14" lengthAdjust="spacing" textLength="70" x="180" y="159.1426">Dashboard</text></g><!--entity Community Manager CRUD--><g id="elem_Community Manager CRUD"><rect fill="#F1F1F1" height="47.6094" rx="2.5" ry="2.5" style="stroke:#181818;stroke-width:0.5;" width="213" x="310.5" y="124.6094"/><rect fill="#F1F1F1" height="10" style="stroke:#181818;stroke-width:0.5;" width="15" x="503.5" y="129.6094"/><rect fill="#F1F1F1" height="2" style="stroke:#181818;stroke-width:0.5;" width="4" x="501.5" y="131.6094"/><rect fill="#F1F1F1" height="2" style="stroke:#181818;stroke-width:0.5;" width="4" x="501.5" y="135.6094"/><text fill="#000000" font-family="sans-serif" font-size="14" lengthAdjust="spacing" textLength="173" x="325.5" y="159.1426">Community Manager CRUD</text></g><!--entity Prosumer CRUD--><g id="elem_Prosumer CRUD"><rect fill="#F1F1F1" height="47.6094" rx="2.5" ry="2.5" style="stroke:#181818;stroke-width:0.5;" width="144" x="559" y="124.6094"/><rect fill="#F1F1F1" height="10" style="stroke:#181818;stroke-width:0.5;" width="15" x="683" y="129.6094"/><rect fill="#F1F1F1" height="2" style="stroke:#181818;stroke-width:0.5;" width="4" x="681" y="131.6094"/><rect fill="#F1F1F1" height="2" style="stroke:#181818;stroke-width:0.5;" width="4" x="681" y="135.6094"/><text fill="#000000" font-family="sans-serif" font-size="14" lengthAdjust="spacing" textLength="104" x="574" y="159.1426">Prosumer CRUD</text></g><!--entity Battery CRUD--><g id="elem_Battery CRUD"><rect fill="#F1F1F1" height="47.6094" rx="2.5" ry="2.5" style="stroke:#181818;stroke-width:0.5;" width="128" x="738" y="124.6094"/><rect fill="#F1F1F1" height="10" style="stroke:#181818;stroke-width:0.5;" width="15" x="846" y="129.6094"/><rect fill="#F1F1F1" height="2" style="stroke:#181818;stroke-width:0.5;" width="4" x="844" y="131.6094"/><rect fill="#F1F1F1" height="2" style="stroke:#181818;stroke-width:0.5;" width="4" x="844" y="135.6094"/><text fill="#000000" font-family="sans-serif" font-size="14" lengthAdjust="spacing" textLength="88" x="753" y="159.1426">Battery CRUD</text></g><!--entity Profile Analytics--><g id="elem_Profile Analytics"><rect fill="#F1F1F1" height="47.6094" rx="2.5" ry="2.5" style="stroke:#181818;stroke-width:0.5;" width="140" x="901" y="124.6094"/><rect fill="#F1F1F1" height="10" style="stroke:#181818;stroke-width:0.5;" width="15" x="1021" y="129.6094"/><rect fill="#F1F1F1" height="2" style="stroke:#181818;stroke-width:0.5;" width="4" x="1019" y="131.6094"/><rect fill="#F1F1F1" height="2" style="stroke:#181818;stroke-width:0.5;" width="4" x="1019" y="135.6094"/><text fill="#000000" font-family="sans-serif" font-size="14" lengthAdjust="spacing" textLength="100" x="916" y="159.1426">Profile Analytics</text></g><!--entity File Upload Page--><g id="elem_File Upload Page"><rect fill="#F1F1F1" height="47.6094" rx="2.5" ry="2.5" style="stroke:#181818;stroke-width:0.5;" width="148" x="1076" y="124.6094"/><rect fill="#F1F1F1" height="10" style="stroke:#181818;stroke-width:0.5;" width="15" x="1204" y="129.6094"/><rect fill="#F1F1F1" height="2" style="stroke:#181818;stroke-width:0.5;" width="4" x="1202" y="131.6094"/><rect fill="#F1F1F1" height="2" style="stroke:#181818;stroke-width:0.5;" width="4" x="1202" y="135.6094"/><text fill="#000000" font-family="sans-serif" font-size="14" lengthAdjust="spacing" textLength="108" x="1091" y="159.1426">File Upload Page</text></g><!--entity Auth Pages--><g id="elem_Auth Pages"><rect fill="#F1F1F1" height="47.6094" rx="2.5" ry="2.5" style="stroke:#181818;stroke-width:0.5;" width="113" x="1259.5" y="124.6094"/><rect fill="#F1F1F1" height="10" style="stroke:#181818;stroke-width:0.5;" width="15" x="1352.5" y="129.6094"/><rect fill="#F1F1F1" height="2" style="stroke:#181818;stroke-width:0.5;" width="4" x="1350.5" y="131.6094"/><rect fill="#F1F1F1" height="2" style="stroke:#181818;stroke-width:0.5;" width="4" x="1350.5" y="135.6094"/><text fill="#000000" font-family="sans-serif" font-size="14" lengthAdjust="spacing" textLength="73" x="1274.5" y="159.1426">Auth Pages</text></g><!--entity Refine Resource Manager--><g id="elem_Refine Resource Manager"><rect fill="#F1F1F1" height="47.6094" rx="2.5" ry="2.5" style="stroke:#181818;stroke-width:0.5;" width="206" x="528" y="257.6094"/><rect fill="#F1F1F1" height="10" style="stroke:#181818;stroke-width:0.5;" width="15" x="714" y="262.6094"/><rect fill="#F1F1F1" height="2" style="stroke:#181818;stroke-width:0.5;" width="4" x="712" y="264.6094"/><rect fill="#F1F1F1" height="2" style="stroke:#181818;stroke-width:0.5;" width="4" x="712" y="268.6094"/><text fill="#000000" font-family="sans-serif" font-size="14" lengthAdjust="spacing" textLength="166" x="543" y="292.1426">Refine Resource Manager</text></g><!--entity Refine Routing--><g id="elem_Refine Routing"><rect fill="#F1F1F1" height="47.6094" rx="2.5" ry="2.5" style="stroke:#181818;stroke-width:0.5;" width="134" x="359" y="257.6094"/><rect fill="#F1F1F1" height="10" style="stroke:#181818;stroke-width:0.5;" width="15" x="473" y="262.6094"/><rect fill="#F1F1F1" height="2" style="stroke:#181818;stroke-width:0.5;" width="4" x="471" y="264.6094"/><rect fill="#F1F1F1" height="2" style="stroke:#181818;stroke-width:0.5;" width="4" x="471" y="268.6094"/><text fill="#000000" font-family="sans-serif" font-size="14" lengthAdjust="spacing" textLength="94" x="374" y="292.1426">Refine Routing</text></g><!--entity Refine Auth--><g id="elem_Refine Auth"><rect fill="#F1F1F1" height="47.6094" rx="2.5" ry="2.5" style="stroke:#181818;stroke-width:0.5;" width="114" x="769" y="257.6094"/><rect fill="#F1F1F1" height="10" style="stroke:#181818;stroke-width:0.5;" width="15" x="863" y="262.6094"/><rect fill="#F1F1F1" height="2" style="stroke:#181818;stroke-width:0.5;" width="4" x="861" y="264.6094"/><rect fill="#F1F1F1" height="2" style="stroke:#181818;stroke-width:0.5;" width="4" x="861" y="268.6094"/><text fill="#000000" font-family="sans-serif" font-size="14" lengthAdjust="spacing" textLength="74" x="784" y="292.1426">Refine Auth</text></g><!--entity REST Client (DataProvider)--><g id="elem_REST Client (DataProvider)"><rect fill="#F1F1F1" height="47.6094" rx="2.5" ry="2.5" style="stroke:#181818;stroke-width:0.5;" width="214" x="524" y="390.6094"/><rect fill="#F1F1F1" height="10" style="stroke:#181818;stroke-width:0.5;" width="15" x="718" y="395.6094"/><rect fill="#F1F1F1" height="2" style="stroke:#181818;stroke-width:0.5;" width="4" x="716" y="397.6094"/><rect fill="#F1F1F1" height="2" style="stroke:#181818;stroke-width:0.5;" width="4" x="716" y="401.6094"/><text fill="#000000" font-family="sans-serif" font-size="14" lengthAdjust="spacing" textLength="174" x="539" y="425.1426">REST Client (DataProvider)</text></g><!--entity OAuth2 Provider (AuthProvider)--><g id="elem_OAuth2 Provider (AuthProvider)"><rect fill="#F1F1F1" height="47.6094" rx="2.5" ry="2.5" style="stroke:#181818;stroke-width:0.5;" width="241" x="773.5" y="390.6094"/><rect fill="#F1F1F1" height="10" style="stroke:#181818;stroke-width:0.5;" width="15" x="994.5" y="395.6094"/><rect fill="#F1F1F1" height="2" style="stroke:#181818;stroke-width:0.5;" width="4" x="992.5" y="397.6094"/><rect fill="#F1F1F1" height="2" style="stroke:#181818;stroke-width:0.5;" width="4" x="992.5" y="401.6094"/><text fill="#000000" font-family="sans-serif" font-size="14" lengthAdjust="spacing" textLength="201" x="788.5" y="425.1426">OAuth2 Provider (AuthProvider)</text></g><!--entity React Router--><g id="elem_React Router"><rect fill="#F1F1F1" height="47.6094" rx="2.5" ry="2.5" style="stroke:#181818;stroke-width:0.5;" width="124" x="344" y="390.6094"/><rect fill="#F1F1F1" height="10" style="stroke:#181818;stroke-width:0.5;" width="15" x="448" y="395.6094"/><rect fill="#F1F1F1" height="2" style="stroke:#181818;stroke-width:0.5;" width="4" x="446" y="397.6094"/><rect fill="#F1F1F1" height="2" style="stroke:#181818;stroke-width:0.5;" width="4" x="446" y="401.6094"/><text fill="#000000" font-family="sans-serif" font-size="14" lengthAdjust="spacing" textLength="84" x="359" y="425.1426">React Router</text></g><!--entity Backend API (REST)--><g id="elem_Backend API (REST)"><ellipse cx="547" cy="572.6094" fill="#F1F1F1" rx="8" ry="8" style="stroke:#181818;stroke-width:0.5;"/><text fill="#000000" font-family="sans-serif" font-size="14" lengthAdjust="spacing" textLength="131" x="481.5" y="604.1426">Backend API (REST)</text></g><!--entity Optimization API--><g id="elem_Optimization API"><ellipse cx="714" cy="572.6094" fill="#F1F1F1" rx="8" ry="8" style="stroke:#181818;stroke-width:0.5;"/><text fill="#000000" font-family="sans-serif" font-size="14" lengthAdjust="spacing" textLength="102" x="663" y="604.1426">Optimization API</text></g><!--link Layout to Refine Resource Manager--><g id="link_Layout_Refine Resource Manager"><path d="M110.26,172.7994 C120.51,181.9294 133.41,191.4494 147,196.6094 C222.7,225.3594 433.07,191.6094 511,213.6094 C543.15,222.6794 571.034,238.5318 594.234,254.0618 " fill="none" id="Layout-to-Refine Resource Manager" style="stroke:#181818;stroke-width:1.0;"/><polygon fill="#181818" points="599.22,257.3994,593.9661,249.0689,595.065,254.618,589.5159,255.717,599.22,257.3994" style="stroke:#181818;stroke-width:1.0;"/></g><!--link Dashboard to Refine Resource Manager--><g id="link_Dashboard_Refine Resource Manager"><path d="M248.47,172.6194 C261.31,181.7194 277.14,191.2694 293,196.6094 C385.1,227.6294 417.97,185.4894 511,213.6094 C542.86,223.2394 570.6222,238.9646 593.8522,254.2946 " fill="none" id="Dashboard-to-Refine Resource Manager" style="stroke:#181818;stroke-width:1.0;"/><polygon fill="#181818" points="598.86,257.5994,593.5514,249.3036,594.6868,254.8454,589.1451,255.9808,598.86,257.5994" style="stroke:#181818;stroke-width:1.0;"/></g><!--link Community Manager CRUD to Refine Resource Manager--><g id="link_Community Manager CRUD_Refine Resource Manager"><path d="M454.77,172.7294 C493.76,196.5994 549.1428,230.4966 588.1328,254.3666 " fill="none" id="Community Manager CRUD-to-Refine Resource Manager" style="stroke:#181818;stroke-width:1.0;"/><polygon fill="#181818" points="593.25,257.4994,587.6627,249.3887,588.9857,254.8887,583.4857,256.2117,593.25,257.4994" style="stroke:#181818;stroke-width:1.0;"/></g><!--link Prosumer CRUD to Refine Resource Manager--><g id="link_Prosumer CRUD_Refine Resource Manager"><path d="M631,172.7294 C631,196.5294 631,227.4094 631,251.2794 " fill="none" id="Prosumer CRUD-to-Refine Resource Manager" style="stroke:#181818;stroke-width:1.0;"/><polygon fill="#181818" points="631,257.2794,635,248.2794,631,252.2794,627,248.2794,631,257.2794" style="stroke:#181818;stroke-width:1.0;"/></g><!--link Battery CRUD to Refine Resource Manager--><g id="link_Battery CRUD_Refine Resource Manager"><path d="M771.82,172.7294 C740.66,196.5994 697.0831,229.9806 665.9231,253.8506 " fill="none" id="Battery CRUD-to-Refine Resource Manager" style="stroke:#181818;stroke-width:1.0;"/><polygon fill="#181818" points="661.16,257.4994,670.7371,255.2017,665.1292,254.4588,665.8721,248.8509,661.16,257.4994" style="stroke:#181818;stroke-width:1.0;"/></g><!--link Profile Analytics to Refine Resource Manager--><g id="link_Profile Analytics_Refine Resource Manager"><path d="M935.5,172.6294 C920.23,181.4994 901.81,190.8694 884,196.6094 C827.7,214.7494 808.21,195.1794 752,213.6094 C720.51,223.9394 692.8641,239.3657 669.4041,254.3757 " fill="none" id="Profile Analytics-to-Refine Resource Manager" style="stroke:#181818;stroke-width:1.0;"/><polygon fill="#181818" points="664.35,257.6094,674.0869,256.1283,668.5617,254.9147,669.7753,249.3895,664.35,257.6094" style="stroke:#181818;stroke-width:1.0;"/></g><!--link File Upload Page to Refine Resource Manager--><g id="link_File Upload Page_Refine Resource Manager"><path d="M1113.82,172.7694 C1097.68,181.8994 1078.04,191.4194 1059,196.6094 C1026.04,205.5894 784.83,204.1494 752,213.6094 C719.7,222.9194 691.5474,238.7739 668.1274,254.2339 " fill="none" id="File Upload Page-to-Refine Resource Manager" style="stroke:#181818;stroke-width:1.0;"/><polygon fill="#181818" points="663.12,257.5394,672.8347,255.9194,667.2928,254.7848,668.4274,249.2429,663.12,257.5394" style="stroke:#181818;stroke-width:1.0;"/></g><!--link Auth Pages to Refine Auth--><g id="link_Auth Pages_Refine Auth"><path d="M1285.33,172.6594 C1272.51,181.3194 1257.11,190.5294 1242,196.6094 C1119.65,245.8394 970.9783,266.6732 889.0283,275.1332 " fill="none" id="Auth Pages-to-Refine Auth" style="stroke:#181818;stroke-width:1.0;"/><polygon fill="#181818" points="883.06,275.7494,892.4232,278.804,888.0336,275.2359,891.6017,270.8463,883.06,275.7494" style="stroke:#181818;stroke-width:1.0;"/></g><!--link Refine Resource Manager to REST Client (DataProvider)--><g id="link_Refine Resource Manager_REST Client (DataProvider)"><path d="M631,305.7294 C631,329.5294 631,360.4094 631,384.2794 " fill="none" id="Refine Resource Manager-to-REST Client (DataProvider)" style="stroke:#181818;stroke-width:1.0;"/><polygon fill="#181818" points="631,390.2794,635,381.2794,631,385.2794,627,381.2794,631,390.2794" style="stroke:#181818;stroke-width:1.0;"/></g><!--link Refine Resource Manager to React Router--><g id="link_Refine Resource Manager_React Router"><path d="M583.96,305.6794 C560.79,317.3894 532.6,332.1794 508,346.6094 C484.61,360.3294 464.0765,373.7128 444.4265,387.0328 " fill="none" id="Refine Resource Manager-to-React Router" style="stroke:#181818;stroke-width:1.0;"/><polygon fill="#181818" points="439.46,390.3994,449.1541,388.6605,443.5987,387.5939,444.6653,382.0385,439.46,390.3994" style="stroke:#181818;stroke-width:1.0;"/></g><!--link Refine Auth to OAuth2 Provider (AuthProvider)--><g id="link_Refine Auth_OAuth2 Provider (AuthProvider)"><path d="M838,305.7294 C850.35,329.5294 866.7358,361.084 879.1258,384.954 " fill="none" id="Refine Auth-to-OAuth2 Provider (AuthProvider)" style="stroke:#181818;stroke-width:1.0;"/><polygon fill="#181818" points="881.89,390.2794,881.294,380.4486,879.5865,385.8416,874.1935,384.1341,881.89,390.2794" style="stroke:#181818;stroke-width:1.0;"/></g><!--link Refine Routing to React Router--><g id="link_Refine Routing_React Router"><path d="M422.47,305.7294 C418.84,329.5294 414.1169,360.4783 410.4669,384.3483 " fill="none" id="Refine Routing-to-React Router" style="stroke:#181818;stroke-width:1.0;"/><polygon fill="#181818" points="409.56,390.2794,414.8744,381.9874,410.3158,385.3368,406.9664,380.7782,409.56,390.2794" style="stroke:#181818;stroke-width:1.0;"/></g><!--link Layout to React Router--><g id="link_Layout_React Router"><path d="M115.94,172.8094 C176.26,222.8794 313.4531,336.7874 373.6231,386.7274 " fill="none" id="Layout-to-React Router" style="stroke:#181818;stroke-width:1.0;"/><polygon fill="#181818" points="378.24,390.5594,373.8693,381.7335,374.3926,387.3661,368.76,387.8894,378.24,390.5594" style="stroke:#181818;stroke-width:1.0;"/></g><!--link REST Client (DataProvider) to Backend API (REST)--><g id="link_REST Client (DataProvider)_Backend API (REST)"><path d="M618.61,438.6294 C599.53,474.0594 568.6083,531.4632 556.1683,554.5832 " fill="none" id="REST Client (DataProvider)-to-Backend API (REST)" style="stroke:#181818;stroke-width:1.0;"/><path d="M560.3361,564.6859 A9,9 0 0 0 545.4409 556.6714" fill="none" style="stroke:#181818;stroke-width:1.5;"/><text fill="#000000" font-family="sans-serif" font-size="13" lengthAdjust="spacing" textLength="71" x="587" y="509.1045">Data &amp; Auth</text></g><!--link REST Client (DataProvider) to Optimization API--><g id="link_REST Client (DataProvider)_Optimization API"><path d="M643.25,438.6294 C662.1,474.0594 697.33,540.2694 709.63,563.3894 " fill="none" id="REST Client (DataProvider)-Optimization API" style="stroke:#181818;stroke-width:1.0;"/><text fill="#000000" font-family="sans-serif" font-size="13" lengthAdjust="spacing" textLength="127" x="683" y="509.1045">Optimization iput data</text></g><!--SRC=[ZLJBRjim4BphAnOwD0u2NthieO1h9u215Z7I-WEsr3eYB944IJLLY_vxbteubapBuaKWTtRsDLftbCgWnH9AhRJ8hIu9lAqeSIUBop7JRrAzmW4BHucNlY1uibfvKXcihCYb9-4hIx245qBXuO6_1waeIGoA8xuIfEyEngJmDqc0pycwty9QbqOhKju5CtH7zA_m5MjT-OXXWox_gT5c4LlAh6MbfA_X6oeEPM7zij-aCUZEQbULKuWlw3tPUfBY8BaxAuL5xQLmKTHJWEnDeJ637USK1QqgdpVMZkFVg6DhRSCKiAGtRO-mQ1j-7-zTsbfvAavNLb3VZ7GAoztcgKz1Gexnx3Re4Jv0MuJLlsH6rbtBxV7x3rWNCbmMmR5tk8_6VWwa7q-ii0ZtaSiudRwMQyq9cWsOlYET_nsmBbbt72KZm-8b9IIvnjRA4PRBppUwUvBd3EmrkSvn7SftZiT0pZD3ZEGzn-j2xdESpkG_WBUIwwRJlJM_miM0hWRe-6wexfRxXMO66RQWEL8T_sun-hxSvlfUQHqHui2DPNm7Zx_vmWE3rMxh4ibBs1wGw-7nYsEpa7TRNX_S3buUv_PdusKf_w2NMWKG4qvrZJDOn4a_mTawkCKHYSi4WpTfkDuiK2RX_0S0]--></g></svg>